M48
;DRILL file {KiCad (2015-05-09 BZR 5648)-product} date ons 29 jul 2015 23:10:45 CEST
;FORMAT={-:-/ absolute / inch / decimal}
FMAT,2
INCH,TZ
T1C0.016
T2C0.018
T3C0.026
T4C0.040
%
G90
G05
M72
T1
X4.7461Y-3.0988
X4.755Y-4.318
X4.7599Y-3.7149
X4.7727Y-3.9914
X4.795Y-3.94
X4.81Y-3.91
X4.85Y-3.715
X4.95Y-3.2218
X4.96Y-3.465
X4.9758Y-4.2282
X4.9764Y-3.2466
X4.9948Y-3.4181
X4.995Y-2.95
X5.005Y-4.315
X5.0155Y-3.4701
X5.022Y-3.4332
X5.0276Y-3.5668
X5.0277Y-3.3428
X5.0456Y-3.48
X5.058Y-3.697
X5.06Y-3.54
X5.063Y-3.873
X5.07Y-3.09
X5.0849Y-3.3929
X5.0874Y-3.522
X5.1136Y-3.405
X5.115Y-3.605
X5.13Y-3.05
X5.135Y-2.615
X5.1492Y-3.935
X5.1521Y-3.889
X5.154Y-3.7679
X5.155Y-3.28
X5.155Y-3.715
X5.1554Y-3.4202
X5.1842Y-3.9794
X5.187Y-3.4126
X5.19Y-3.705
X5.195Y-3.345
X5.2125Y-3.1875
X5.2141Y-3.0173
X5.23Y-3.705
X5.24Y-3.
X5.25Y-3.35
X5.265Y-3.0229
X5.265Y-4.225
X5.275Y-3.705
X5.295Y-3.9622
X5.31Y-3.885
X5.32Y-3.705
X5.335Y-2.96
X5.335Y-3.075
X5.355Y-2.875
X5.355Y-3.33
X5.36Y-3.705
X5.365Y-3.765
X5.3677Y-2.9043
X5.37Y-3.285
X5.3785Y-3.925
X5.41Y-3.145
X5.45Y-3.465
X5.462Y-3.6021
X5.4767Y-2.9901
X5.4866Y-3.0196
X5.49Y-2.69
X5.4936Y-3.6021
X5.497Y-2.9064
X5.498Y-3.4636
X5.5081Y-3.907
X5.52Y-3.76
X5.5247Y-2.9727
X5.5543Y-3.6336
X5.5557Y-2.9693
X5.5652Y-3.4353
X5.57Y-4.1
X5.5808Y-3.0415
X5.59Y-2.99
X5.59Y-3.785
X5.6074Y-3.0226
X5.61Y-4.18
X5.6128Y-3.335
X5.615Y-3.76
X5.615Y-4.015
X5.6185Y-3.1529
X5.62Y-3.9
X5.635Y-3.7357
X5.64Y-2.9
X5.6425Y-3.2675
X5.645Y-3.025
X5.6455Y-2.85
X5.65Y-3.635
X5.655Y-3.3988
X5.6558Y-3.4392
X5.6804Y-3.315
X5.6857Y-3.3577
X5.69Y-3.645
X5.69Y-4.
X5.6998Y-3.2468
X5.702Y-3.2784
X5.705Y-3.095
X5.71Y-3.62
X5.7101Y-3.3375
X5.735Y-3.585
X5.7672Y-3.7086
X5.774Y-4.247
X5.7773Y-3.9173
X5.78Y-2.87
X5.78Y-3.055
X5.7914Y-3.6637
X5.815Y-2.72
X5.8186Y-3.6263
X5.82Y-3.32
X5.835Y-2.955
X5.8397Y-3.4426
X5.845Y-3.01
X5.865Y-4.017
X5.878Y-3.136
X5.885Y-3.37
X5.9Y-3.785
X5.9056Y-3.5452
X5.915Y-3.735
X5.9248Y-3.6038
X5.9248Y-3.6367
X5.9355Y-3.574
X5.945Y-3.295
X5.9458Y-3.762
X6.17Y-3.665
X6.297Y-3.601
X6.395Y-3.67
X6.415Y-4.095
X6.462Y-3.391
X6.462Y-3.516
T3
X5.4863Y-2.6339
X5.6437Y-2.6339
T4
X4.8Y-2.95
X4.8Y-3.05
X4.8Y-3.15
X4.8Y-3.25
X4.8Y-3.35
X4.8Y-3.45
X4.8Y-3.55
X4.8Y-3.65
X4.8Y-3.75
X4.8Y-3.85
X4.9Y-2.95
X4.9Y-3.05
X4.9Y-3.15
X4.9Y-3.25
X4.9Y-3.35
X4.9Y-3.45
X4.9Y-3.55
X4.9Y-3.65
X4.9Y-3.75
X4.9Y-3.85
X4.99Y-4.07
X4.99Y-4.17
X5.09Y-4.07
X5.09Y-4.17
X5.19Y-4.07
X5.19Y-4.17
X5.28Y-2.655
X5.29Y-4.07
X5.29Y-4.17
X5.93Y-4.25
X5.93Y-4.35
X6.0075Y-3.9675
X6.0075Y-4.0675
X6.03Y-4.25
X6.03Y-4.35
X6.1075Y-3.9675
X6.1075Y-4.0675
X6.13Y-4.25
X6.13Y-4.35
X6.2075Y-3.9675
X6.2075Y-4.0675
X6.23Y-4.25
X6.23Y-4.35
X6.3075Y-3.9675
X6.3075Y-4.0675
X6.33Y-4.25
X6.33Y-4.35
T2
X5.4243Y-2.566G85X5.4243Y-2.5345
G05
X5.4243Y-2.7019G85X5.4243Y-2.6704
G05
X5.7057Y-2.566G85X5.7057Y-2.5345
G05
X5.7057Y-2.7019G85X5.7057Y-2.6704
G05
T0
M30
