G04 #@! TF.FileFunction,Copper,L1,Top,Signal*
%FSLAX46Y46*%
G04 Gerber Fmt 4.6, Leading zero omitted, Abs format (unit mm)*
G04 Created by KiCad (PCBNEW (2015-05-09 BZR 5648)-product) date man 31 aug 2015 20:52:31 CEST*
%MOMM*%
G01*
G04 APERTURE LIST*
%ADD10C,0.100000*%
%ADD11R,0.750000X1.200000*%
%ADD12R,1.550000X0.600000*%
%ADD13R,0.797560X0.797560*%
%ADD14R,1.200000X0.750000*%
%ADD15R,1.200000X0.900000*%
%ADD16R,0.900000X1.200000*%
%ADD17R,0.800100X0.800100*%
%ADD18R,2.032000X3.657600*%
%ADD19R,2.032000X1.016000*%
%ADD20R,0.300000X1.500000*%
%ADD21R,1.500000X0.300000*%
%ADD22O,1.727200X1.727200*%
%ADD23R,1.727200X1.727200*%
%ADD24R,0.650000X1.060000*%
%ADD25R,2.235200X2.235200*%
%ADD26R,2.400000X0.740000*%
%ADD27R,2.800000X2.200000*%
%ADD28R,1.500000X1.800000*%
%ADD29R,0.400000X1.700000*%
%ADD30O,1.050000X1.850000*%
%ADD31C,0.600000*%
%ADD32C,0.254000*%
%ADD33C,0.381000*%
G04 APERTURE END LIST*
D10*
D11*
X128524000Y-92898000D03*
X128524000Y-90998000D03*
D12*
X140302000Y-100330000D03*
X140302000Y-101600000D03*
X140302000Y-102870000D03*
X140302000Y-104140000D03*
X145702000Y-104140000D03*
X145702000Y-102870000D03*
X145702000Y-101600000D03*
X145702000Y-100330000D03*
D13*
X126746000Y-67932300D03*
X126746000Y-66433700D03*
D11*
X158064200Y-94955400D03*
X158064200Y-93055400D03*
D14*
X132903000Y-84074000D03*
X131003000Y-84074000D03*
D11*
X137033000Y-76642000D03*
X137033000Y-74742000D03*
X148717000Y-86106000D03*
X148717000Y-84206000D03*
X140208000Y-92649000D03*
X140208000Y-94549000D03*
X148971000Y-104988400D03*
X148971000Y-103088400D03*
X136906000Y-105090000D03*
X136906000Y-103190000D03*
X162941000Y-102931000D03*
X162941000Y-101031000D03*
D14*
X142687000Y-98298000D03*
X144587000Y-98298000D03*
X162295800Y-86893400D03*
X164195800Y-86893400D03*
X162285600Y-85293200D03*
X164185600Y-85293200D03*
D11*
X142240000Y-72705000D03*
X142240000Y-70805000D03*
D14*
X162295800Y-88544400D03*
X164195800Y-88544400D03*
D13*
X128397000Y-67932300D03*
X128397000Y-66433700D03*
D15*
X146134000Y-70739000D03*
X143934000Y-70739000D03*
X156294000Y-96774000D03*
X154094000Y-96774000D03*
D16*
X128143000Y-70900000D03*
X128143000Y-73100000D03*
X129794000Y-70900000D03*
X129794000Y-73100000D03*
D17*
X154167800Y-95082360D03*
X156067800Y-95082360D03*
X155117800Y-93083380D03*
D18*
X153339800Y-88290400D03*
D19*
X159943800Y-88290400D03*
X159943800Y-86004400D03*
X159943800Y-90576400D03*
D14*
X131003000Y-82550000D03*
X132903000Y-82550000D03*
D15*
X138514000Y-98171000D03*
X136314000Y-98171000D03*
D14*
X162295800Y-90068400D03*
X164195800Y-90068400D03*
X130622000Y-90170000D03*
X132522000Y-90170000D03*
D11*
X137795000Y-94549000D03*
X137795000Y-92649000D03*
X140589000Y-97221000D03*
X140589000Y-99121000D03*
D20*
X136839000Y-90028000D03*
X137339000Y-90028000D03*
X137839000Y-90028000D03*
X138339000Y-90028000D03*
X138839000Y-90028000D03*
X139339000Y-90028000D03*
X139839000Y-90028000D03*
X140339000Y-90028000D03*
X140839000Y-90028000D03*
X141339000Y-90028000D03*
X141839000Y-90028000D03*
X142339000Y-90028000D03*
X142839000Y-90028000D03*
X143339000Y-90028000D03*
X143839000Y-90028000D03*
X144339000Y-90028000D03*
D21*
X146289000Y-88078000D03*
X146289000Y-87578000D03*
X146289000Y-87078000D03*
X146289000Y-86578000D03*
X146289000Y-86078000D03*
X146289000Y-85578000D03*
X146289000Y-85078000D03*
X146289000Y-84578000D03*
X146289000Y-84078000D03*
X146289000Y-83578000D03*
X146289000Y-83078000D03*
X146289000Y-82578000D03*
X146289000Y-82078000D03*
X146289000Y-81578000D03*
X146289000Y-81078000D03*
X146289000Y-80578000D03*
D20*
X144339000Y-78628000D03*
X143839000Y-78628000D03*
X143339000Y-78628000D03*
X142839000Y-78628000D03*
X142339000Y-78628000D03*
X141839000Y-78628000D03*
X141339000Y-78628000D03*
X140839000Y-78628000D03*
X140339000Y-78628000D03*
X139839000Y-78628000D03*
X139339000Y-78628000D03*
X138839000Y-78628000D03*
X138339000Y-78628000D03*
X137839000Y-78628000D03*
X137339000Y-78628000D03*
X136839000Y-78628000D03*
D21*
X134889000Y-80578000D03*
X134889000Y-81078000D03*
X134889000Y-81578000D03*
X134889000Y-82078000D03*
X134889000Y-82578000D03*
X134889000Y-83078000D03*
X134889000Y-83578000D03*
X134889000Y-84078000D03*
X134889000Y-84578000D03*
X134889000Y-85078000D03*
X134889000Y-85578000D03*
X134889000Y-86078000D03*
X134889000Y-86578000D03*
X134889000Y-87078000D03*
X134889000Y-87578000D03*
X134889000Y-88078000D03*
D13*
X130048000Y-67932300D03*
X130048000Y-66433700D03*
D16*
X131445000Y-70900000D03*
X131445000Y-73100000D03*
D14*
X144846000Y-76835000D03*
X146746000Y-76835000D03*
D11*
X147955000Y-70805000D03*
X147955000Y-72705000D03*
X128143000Y-108524000D03*
X128143000Y-110424000D03*
D16*
X129794000Y-110701000D03*
X129794000Y-108501000D03*
X131445000Y-108501000D03*
X131445000Y-110701000D03*
X121285000Y-102405000D03*
X121285000Y-104605000D03*
X123444000Y-102405000D03*
X123444000Y-104605000D03*
D22*
X126746000Y-103378000D03*
X126746000Y-105918000D03*
X129286000Y-103378000D03*
X129286000Y-105918000D03*
X131826000Y-103378000D03*
X131826000Y-105918000D03*
D23*
X134366000Y-103378000D03*
D22*
X134366000Y-105918000D03*
D13*
X131699000Y-67932300D03*
X131699000Y-66433700D03*
D16*
X133096000Y-70900000D03*
X133096000Y-73100000D03*
D22*
X124460000Y-97790000D03*
X121920000Y-97790000D03*
X124460000Y-95250000D03*
X121920000Y-95250000D03*
X124460000Y-92710000D03*
X121920000Y-92710000D03*
X124460000Y-90170000D03*
X121920000Y-90170000D03*
X124460000Y-87630000D03*
X121920000Y-87630000D03*
X124460000Y-85090000D03*
X121920000Y-85090000D03*
D23*
X121920000Y-74930000D03*
D22*
X124460000Y-74930000D03*
X121920000Y-77470000D03*
X124460000Y-77470000D03*
X121920000Y-80010000D03*
X124460000Y-80010000D03*
X121920000Y-82550000D03*
X124460000Y-82550000D03*
D24*
X127762000Y-77597000D03*
X128712000Y-77597000D03*
X129662000Y-77597000D03*
X129662000Y-75397000D03*
X127762000Y-75397000D03*
D16*
X147701000Y-67902000D03*
X147701000Y-65702000D03*
D25*
X134112000Y-67437000D03*
D26*
X128651000Y-95123000D03*
X132551000Y-95123000D03*
X128651000Y-96393000D03*
X132551000Y-96393000D03*
X128651000Y-97663000D03*
X132551000Y-97663000D03*
X132551000Y-98933000D03*
X128651000Y-100203000D03*
X132551000Y-100203000D03*
D27*
X146684400Y-109753400D03*
X137084400Y-109753400D03*
D28*
X135993000Y-92202000D03*
X132993000Y-92202000D03*
D23*
X150622000Y-110490000D03*
D22*
X150622000Y-107950000D03*
X153162000Y-110490000D03*
X153162000Y-107950000D03*
X155702000Y-110490000D03*
X155702000Y-107950000D03*
X158242000Y-110490000D03*
X158242000Y-107950000D03*
X160782000Y-110490000D03*
X160782000Y-107950000D03*
D23*
X152590500Y-103314500D03*
D22*
X152590500Y-100774500D03*
X155130500Y-103314500D03*
X155130500Y-100774500D03*
X157670500Y-103314500D03*
X157670500Y-100774500D03*
X160210500Y-103314500D03*
X160210500Y-100774500D03*
D29*
X141351000Y-67877000D03*
X140701000Y-67877000D03*
X142001000Y-67877000D03*
D10*
G36*
X142851000Y-67027000D02*
X142851000Y-68727000D01*
X142451000Y-68727000D01*
X142451000Y-67027000D01*
X142851000Y-67027000D01*
X142851000Y-67027000D01*
G37*
D29*
X140051000Y-67877000D03*
D30*
X144926000Y-64777000D03*
X137776000Y-64777000D03*
X144926000Y-68227000D03*
X137776000Y-68227000D03*
D31*
X139809520Y-87925212D03*
X159943800Y-91465400D03*
X164134800Y-86131400D03*
X164134800Y-89306400D03*
X156718000Y-93091000D03*
X128472718Y-93904282D03*
X139446000Y-68326000D03*
X140208000Y-95504000D03*
X147828000Y-84328000D03*
X146812000Y-72898000D03*
X143256000Y-73660000D03*
X135509000Y-75184000D03*
X137414000Y-79883000D03*
X144907000Y-78613000D03*
X146812000Y-77597000D03*
X130937000Y-83312000D03*
X144526000Y-101600000D03*
X141478000Y-104140000D03*
X162941000Y-104013000D03*
X142748000Y-99060000D03*
X139905131Y-99238135D03*
X136398000Y-83439000D03*
X126873000Y-74930000D03*
X128778000Y-78486000D03*
X147701000Y-69088000D03*
X128600200Y-98374200D03*
X136144000Y-94107000D03*
X135128000Y-94107000D03*
X133985000Y-94107000D03*
X132842000Y-94107000D03*
X131826000Y-94107000D03*
X148971000Y-102031800D03*
X146659600Y-107873800D03*
X127654344Y-109602819D03*
X130873500Y-66421000D03*
X122392440Y-102405000D03*
X136338865Y-73769502D03*
X139624595Y-73822900D03*
X136613991Y-99695000D03*
X151003000Y-83693000D03*
X149479000Y-85598000D03*
X131953000Y-84963000D03*
X146742659Y-99498659D03*
X162433000Y-93218000D03*
X142621000Y-101981000D03*
X127718872Y-90593901D03*
X128742961Y-89955811D03*
X130911235Y-95704455D03*
X130937000Y-94361000D03*
X129921000Y-91567000D03*
X130863038Y-98780600D03*
X136017000Y-84582000D03*
X130789980Y-99949000D03*
X133350000Y-85090000D03*
X129290070Y-89385214D03*
X144417084Y-85284923D03*
X147793039Y-92108298D03*
X143408400Y-75996800D03*
X143865600Y-79868502D03*
X150490220Y-92372666D03*
X145035953Y-84772916D03*
X143067095Y-85685305D03*
X147102587Y-93057251D03*
X142893010Y-76860400D03*
X143154571Y-80063137D03*
X146487455Y-94199041D03*
X133731000Y-107315000D03*
X142494000Y-106172000D03*
X143636834Y-86328636D03*
X149931368Y-86634568D03*
X150914484Y-91535677D03*
X157795832Y-106738972D03*
X159770562Y-102082592D03*
X151125210Y-101864253D03*
X149978270Y-91501492D03*
X144426352Y-84200718D03*
X144830719Y-83270791D03*
X149275064Y-87290872D03*
X148835107Y-81565531D03*
X143395798Y-72390000D03*
X148463000Y-76454000D03*
X148209000Y-75057000D03*
X136271000Y-95631000D03*
X134493000Y-100639569D03*
X143658241Y-87355361D03*
X148327889Y-87442246D03*
X150760670Y-90779353D03*
X143318331Y-83976213D03*
X139537646Y-91492251D03*
X131679934Y-101077713D03*
X144774341Y-82469570D03*
X138206170Y-87917766D03*
X138734433Y-91492251D03*
X134874000Y-98679000D03*
X126386067Y-107396067D03*
X141355780Y-87255381D03*
X141078256Y-92294560D03*
X141753351Y-77253290D03*
X132438263Y-76638491D03*
X141114480Y-75420145D03*
X133096000Y-76200000D03*
X140326846Y-75507655D03*
X133731000Y-76780807D03*
X142621000Y-95504000D03*
X151023616Y-95554348D03*
X150241000Y-94869000D03*
X143129000Y-94886480D03*
X141986000Y-96139000D03*
X149860000Y-96139000D03*
X136017000Y-73025000D03*
X141986000Y-75946000D03*
X120550215Y-78710534D03*
X126474140Y-82538562D03*
X130948145Y-86872780D03*
X127965200Y-89814400D03*
X129549965Y-87090532D03*
X127904404Y-88634494D03*
X127279165Y-87484324D03*
X129262684Y-85982923D03*
X127288435Y-88248322D03*
X129901666Y-86454252D03*
X131748673Y-86679883D03*
X127098457Y-86760782D03*
X139359485Y-76697348D03*
X121793000Y-100076000D03*
X123190000Y-94361000D03*
X132396374Y-80963626D03*
X130302000Y-77470000D03*
X125909427Y-88085574D03*
X127989483Y-84635581D03*
X139108709Y-75947470D03*
X122174000Y-99314000D03*
X120900935Y-94358318D03*
X135509000Y-78105000D03*
X145034000Y-91948000D03*
X143510000Y-92329000D03*
X145669000Y-91059000D03*
X144526000Y-92583000D03*
X139496800Y-85801200D03*
X142367128Y-82961584D03*
X150774400Y-80543400D03*
X140208000Y-86207600D03*
X143050990Y-83208319D03*
X148234400Y-80543400D03*
X141579600Y-82448400D03*
X138988800Y-85090000D03*
X153314400Y-80543400D03*
D32*
X151180800Y-85648800D02*
X151074420Y-85648800D01*
X139839000Y-90028000D02*
X139839000Y-87954692D01*
X139839000Y-87954692D02*
X139809520Y-87925212D01*
X159943800Y-90576400D02*
X159943800Y-91465400D01*
D33*
X164195800Y-86070400D02*
X164134800Y-86131400D01*
X164195800Y-85369400D02*
X164195800Y-86070400D01*
X164195800Y-86192400D02*
X164134800Y-86131400D01*
X164195800Y-86893400D02*
X164195800Y-86192400D01*
X164195800Y-89245400D02*
X164134800Y-89306400D01*
X164195800Y-88544400D02*
X164195800Y-89245400D01*
X164195800Y-89367400D02*
X164134800Y-89306400D01*
X164195800Y-90068400D02*
X164195800Y-89367400D01*
X158064200Y-93055400D02*
X156753600Y-93055400D01*
X156753600Y-93055400D02*
X156718000Y-93091000D01*
X155117800Y-93083380D02*
X156710380Y-93083380D01*
X156710380Y-93083380D02*
X156718000Y-93091000D01*
D32*
X128524000Y-93853000D02*
X128472718Y-93904282D01*
X128524000Y-92898000D02*
X128524000Y-93853000D01*
X146289000Y-85578000D02*
X147293000Y-85578000D01*
X147293000Y-85578000D02*
X147828000Y-85043000D01*
X147828000Y-85043000D02*
X147828000Y-84752264D01*
X147828000Y-84752264D02*
X147828000Y-84328000D01*
D33*
X140051000Y-67727000D02*
X140045000Y-67727000D01*
X140045000Y-67727000D02*
X139446000Y-68326000D01*
X140208000Y-94549000D02*
X140208000Y-95504000D01*
X148717000Y-84206000D02*
X147950000Y-84206000D01*
X147950000Y-84206000D02*
X147828000Y-84328000D01*
X147955000Y-72705000D02*
X147005000Y-72705000D01*
X147005000Y-72705000D02*
X146812000Y-72898000D01*
D32*
X142240000Y-72705000D02*
X142301000Y-72705000D01*
D33*
X142301000Y-72705000D02*
X143256000Y-73660000D01*
X137033000Y-74742000D02*
X135951000Y-74742000D01*
X135951000Y-74742000D02*
X135509000Y-75184000D01*
D32*
X135570000Y-75245000D02*
X135509000Y-75184000D01*
X137339000Y-79808000D02*
X137414000Y-79883000D01*
X137339000Y-78628000D02*
X137339000Y-79808000D01*
X144892000Y-78628000D02*
X144907000Y-78613000D01*
X144339000Y-78628000D02*
X144892000Y-78628000D01*
X146746000Y-77531000D02*
X146812000Y-77597000D01*
X146746000Y-76835000D02*
X146746000Y-77531000D01*
X136000538Y-83078000D02*
X136000619Y-83077919D01*
X134889000Y-83078000D02*
X136000538Y-83078000D01*
X131003000Y-83246000D02*
X130937000Y-83312000D01*
X131003000Y-82550000D02*
X131003000Y-83246000D01*
X131003000Y-83378000D02*
X130937000Y-83312000D01*
X131003000Y-84074000D02*
X131003000Y-83378000D01*
X145702000Y-101600000D02*
X144526000Y-101600000D01*
X140302000Y-104140000D02*
X140302000Y-102870000D01*
X140302000Y-104140000D02*
X141478000Y-104140000D01*
X134554000Y-103190000D02*
X134366000Y-103378000D01*
D33*
X136906000Y-103190000D02*
X134554000Y-103190000D01*
D32*
X150561000Y-110551000D02*
X150622000Y-110490000D01*
X162941000Y-102931000D02*
X162941000Y-104013000D01*
D33*
X142687000Y-98999000D02*
X142748000Y-99060000D01*
X142687000Y-98298000D02*
X142687000Y-98999000D01*
X140329395Y-99238135D02*
X139905131Y-99238135D01*
X140589000Y-99121000D02*
X140471865Y-99238135D01*
X140471865Y-99238135D02*
X140329395Y-99238135D01*
X136037000Y-83078000D02*
X136398000Y-83439000D01*
X136000538Y-83078000D02*
X136037000Y-83078000D01*
X127340000Y-75397000D02*
X126873000Y-74930000D01*
X127762000Y-75397000D02*
X127340000Y-75397000D01*
X128712000Y-78420000D02*
X128778000Y-78486000D01*
X128712000Y-77597000D02*
X128712000Y-78420000D01*
X147701000Y-67902000D02*
X147701000Y-69088000D01*
X128651000Y-98323400D02*
X128600200Y-98374200D01*
X128651000Y-97536000D02*
X128651000Y-98323400D01*
X128651000Y-96266000D02*
X128651000Y-97536000D01*
X137039000Y-94549000D02*
X136597000Y-94107000D01*
X137795000Y-94549000D02*
X137039000Y-94549000D01*
X136597000Y-94107000D02*
X136144000Y-94107000D01*
X136144000Y-94107000D02*
X135128000Y-94107000D01*
X135128000Y-94107000D02*
X133985000Y-94107000D01*
X133985000Y-94107000D02*
X132842000Y-94107000D01*
X132842000Y-94107000D02*
X131826000Y-94107000D01*
X130622000Y-92903000D02*
X131826000Y-94107000D01*
X130622000Y-90170000D02*
X130622000Y-92903000D01*
X148971000Y-103088400D02*
X148971000Y-102031800D01*
X146684400Y-109753400D02*
X146684400Y-107898600D01*
X146684400Y-107898600D02*
X146659600Y-107873800D01*
X128143000Y-110424000D02*
X128143000Y-110091475D01*
X128143000Y-110091475D02*
X127954343Y-109902818D01*
X127954343Y-109902818D02*
X127654344Y-109602819D01*
X126746000Y-66433700D02*
X128397000Y-66433700D01*
X128397000Y-66433700D02*
X130048000Y-66433700D01*
X130886200Y-66433700D02*
X130873500Y-66421000D01*
X131699000Y-66433700D02*
X130886200Y-66433700D01*
X130860800Y-66433700D02*
X130873500Y-66421000D01*
X130048000Y-66433700D02*
X130860800Y-66433700D01*
X121285000Y-102405000D02*
X122392440Y-102405000D01*
X122392440Y-102405000D02*
X123444000Y-102405000D01*
X138671801Y-108272399D02*
X140564779Y-106379421D01*
X140564779Y-106379421D02*
X142621000Y-104323200D01*
X136906000Y-105090000D02*
X139275358Y-105090000D01*
X139275358Y-105090000D02*
X140564779Y-106379421D01*
X133482299Y-109494701D02*
X134704601Y-108272399D01*
X127453039Y-111417701D02*
X128832961Y-111417701D01*
X128832961Y-111417701D02*
X129109290Y-111141372D01*
X129109290Y-111141372D02*
X129353628Y-111141372D01*
X129353628Y-111141372D02*
X129738290Y-110756710D01*
X129738290Y-110756710D02*
X130070685Y-110756710D01*
X130070685Y-110756710D02*
X130375710Y-110451685D01*
X130375710Y-110451685D02*
X130375710Y-110119290D01*
X134704601Y-108272399D02*
X138671801Y-108272399D01*
X130375710Y-110119290D02*
X131000299Y-109494701D01*
X131000299Y-109494701D02*
X133482299Y-109494701D01*
X142621000Y-104323200D02*
X142621000Y-101981000D01*
X162433000Y-93218000D02*
X162433000Y-90205600D01*
X162433000Y-90205600D02*
X162295800Y-90068400D01*
X154838400Y-83693000D02*
X155206700Y-84061300D01*
X155206700Y-84061300D02*
X159435800Y-88290400D01*
X145999852Y-75906148D02*
X146167999Y-75738001D01*
X146167999Y-75738001D02*
X151938001Y-75738001D01*
X151938001Y-75738001D02*
X154871017Y-78671017D01*
X154871017Y-78671017D02*
X154871017Y-83725617D01*
X154871017Y-83725617D02*
X155206700Y-84061300D01*
X151003000Y-83693000D02*
X154838400Y-83693000D01*
X159435800Y-88290400D02*
X159943800Y-88290400D01*
X162041800Y-88290400D02*
X162295800Y-88544400D01*
X159943800Y-88290400D02*
X162041800Y-88290400D01*
X162295800Y-88544400D02*
X162295800Y-90068400D01*
X162356800Y-90129400D02*
X162295800Y-90068400D01*
X156067800Y-95082360D02*
X157937240Y-95082360D01*
X157937240Y-95082360D02*
X158064200Y-94955400D01*
X156294000Y-96774000D02*
X156294000Y-95308560D01*
X156294000Y-95308560D02*
X156067800Y-95082360D01*
X121226346Y-102346346D02*
X121285000Y-102405000D01*
X134596998Y-75087105D02*
X135914601Y-73769502D01*
X135914601Y-73769502D02*
X136338865Y-73769502D01*
X134596998Y-77411299D02*
X134596998Y-75087105D01*
X139924594Y-74122899D02*
X139624595Y-73822900D01*
X145999852Y-75906148D02*
X144515704Y-74422000D01*
X140223695Y-74422000D02*
X139924594Y-74122899D01*
X144515704Y-74422000D02*
X140223695Y-74422000D01*
X145071000Y-76835000D02*
X145999852Y-75906148D01*
X125031489Y-102589290D02*
X125187570Y-102433209D01*
X125159361Y-102405000D02*
X125187570Y-102433209D01*
X123444000Y-102405000D02*
X125159361Y-102405000D01*
D32*
X129855000Y-110236000D02*
X129630000Y-110236000D01*
D33*
X144587000Y-98298000D02*
X145542000Y-98298000D01*
X145542000Y-98298000D02*
X146050000Y-98806000D01*
X136314000Y-98171000D02*
X136613991Y-98470991D01*
X136613991Y-98470991D02*
X136613991Y-99695000D01*
X149225000Y-85846000D02*
X149231000Y-85846000D01*
X149231000Y-85846000D02*
X149479000Y-85598000D01*
X148209000Y-86106000D02*
X148965000Y-86106000D01*
X148965000Y-86106000D02*
X149225000Y-85846000D01*
X144846000Y-76835000D02*
X145023322Y-76835000D01*
X137033000Y-76642000D02*
X136263701Y-77411299D01*
X128651000Y-94996000D02*
X127070000Y-94996000D01*
X128524000Y-91223000D02*
X128524000Y-90998000D01*
X121920000Y-77470000D02*
X124460000Y-74930000D01*
D32*
X136839000Y-78628000D02*
X136839000Y-76836000D01*
X136839000Y-76836000D02*
X137033000Y-76642000D01*
X144621000Y-76835000D02*
X144846000Y-76835000D01*
X143839000Y-77617000D02*
X144621000Y-76835000D01*
X143839000Y-78628000D02*
X143839000Y-77617000D01*
X148181000Y-86078000D02*
X148209000Y-86106000D01*
X146289000Y-86078000D02*
X148181000Y-86078000D01*
X134885000Y-84074000D02*
X134889000Y-84078000D01*
X132903000Y-84074000D02*
X134885000Y-84074000D01*
X145227000Y-100330000D02*
X145702000Y-100330000D01*
X144587000Y-99690000D02*
X145227000Y-100330000D01*
X144587000Y-98298000D02*
X144587000Y-99690000D01*
X162684500Y-100774500D02*
X162941000Y-101031000D01*
D33*
X160210500Y-100774500D02*
X162684500Y-100774500D01*
X132842000Y-84074000D02*
X131953000Y-84963000D01*
X132903000Y-84074000D02*
X132842000Y-84074000D01*
X128524000Y-90998000D02*
X127622475Y-90998000D01*
X144846000Y-76835000D02*
X145071000Y-76835000D01*
X136263701Y-77411299D02*
X134596998Y-77411299D01*
X146050000Y-98806000D02*
X146742659Y-99498659D01*
X134546489Y-77461808D02*
X134596998Y-77411299D01*
X132253698Y-77461808D02*
X134546489Y-77461808D01*
X131477889Y-76685999D02*
X132253698Y-77461808D01*
X124460000Y-74930000D02*
X126215999Y-76685999D01*
X129645333Y-76324667D02*
X129645333Y-76685999D01*
X129662000Y-76308000D02*
X129645333Y-76324667D01*
X129662000Y-75397000D02*
X129662000Y-76308000D01*
X129645333Y-76685999D02*
X131477889Y-76685999D01*
X126215999Y-76685999D02*
X129645333Y-76685999D01*
X161098486Y-94552514D02*
X162433000Y-93218000D01*
X158877000Y-96774000D02*
X161098486Y-94552514D01*
X156294000Y-96774000D02*
X158877000Y-96774000D01*
X162941000Y-100050000D02*
X162941000Y-101031000D01*
X162713000Y-99822000D02*
X162941000Y-100050000D01*
X162713000Y-99821062D02*
X162433000Y-99541062D01*
X162713000Y-99822000D02*
X162713000Y-99821062D01*
X162433000Y-93218000D02*
X162433000Y-99541062D01*
X136332000Y-105918000D02*
X136906000Y-105344000D01*
X134366000Y-105918000D02*
X136332000Y-105918000D01*
X125187570Y-102433209D02*
X127000009Y-100620770D01*
X127000009Y-100620770D02*
X127000009Y-94926009D01*
X127718872Y-91018165D02*
X127718872Y-90593901D01*
X127609609Y-94062391D02*
X127609609Y-91214084D01*
X127624562Y-91112475D02*
X127718872Y-91018165D01*
X127070000Y-94602000D02*
X127609609Y-94062391D01*
X127070000Y-94996000D02*
X127070000Y-94602000D01*
X128524000Y-90998000D02*
X128742961Y-90779039D01*
X128742961Y-90380075D02*
X128742961Y-89955811D01*
X128742961Y-90779039D02*
X128742961Y-90380075D01*
X125031489Y-106624847D02*
X125031489Y-107048289D01*
X125031489Y-106624847D02*
X125031489Y-102589290D01*
X126973324Y-108990124D02*
X126973324Y-110937986D01*
X125031489Y-107048289D02*
X126973324Y-108990124D01*
X126973324Y-110937986D02*
X127453039Y-111417701D01*
X162372000Y-82896178D02*
X162285600Y-82982578D01*
X162285600Y-82982578D02*
X162285600Y-85293200D01*
X162285600Y-85293200D02*
X162285600Y-85948600D01*
X162285600Y-85948600D02*
X162229800Y-86004400D01*
X159943800Y-86004400D02*
X162229800Y-86004400D01*
X162229800Y-85435400D02*
X162295800Y-85369400D01*
X162295800Y-86070400D02*
X162295800Y-86893400D01*
X162229800Y-86004400D02*
X162295800Y-86070400D01*
X150748000Y-70805000D02*
X160781343Y-80838343D01*
X160781343Y-80838343D02*
X162372000Y-82429000D01*
X147955000Y-70805000D02*
X150748000Y-70805000D01*
D32*
X147955000Y-70805000D02*
X147955000Y-71030000D01*
D33*
X146134000Y-70739000D02*
X147889000Y-70739000D01*
D32*
X147889000Y-70739000D02*
X147955000Y-70805000D01*
D33*
X162372000Y-82429000D02*
X162372000Y-82896178D01*
X149727000Y-104988400D02*
X148971000Y-104988400D01*
X150622000Y-105883400D02*
X149727000Y-104988400D01*
X150622000Y-107950000D02*
X150622000Y-105883400D01*
X158400995Y-112191811D02*
X158431664Y-112161142D01*
X149910809Y-112191811D02*
X158400995Y-112191811D01*
X148971000Y-111252002D02*
X149910809Y-112191811D01*
X148971000Y-104988400D02*
X148971000Y-111252002D01*
X158431664Y-112161142D02*
X158388295Y-112204511D01*
X165471958Y-82896178D02*
X162372000Y-82896178D01*
X165989000Y-83413220D02*
X165471958Y-82896178D01*
X164560790Y-104694001D02*
X165989000Y-103265791D01*
X162195989Y-104694001D02*
X164560790Y-104694001D01*
X159499301Y-107390689D02*
X162195989Y-104694001D01*
X159499301Y-111093505D02*
X159499301Y-107390689D01*
X165989000Y-103265791D02*
X165989000Y-83413220D01*
X158431664Y-112161142D02*
X159499301Y-111093505D01*
X146134000Y-67038400D02*
X146134000Y-70739000D01*
X145592800Y-66497200D02*
X146134000Y-67038400D01*
X143746388Y-65760600D02*
X144449800Y-66464012D01*
X138938000Y-65760600D02*
X143746388Y-65760600D01*
X136011919Y-65653919D02*
X136441010Y-66083010D01*
X126042419Y-65653919D02*
X136011919Y-65653919D01*
X125966219Y-69740781D02*
X125966219Y-65730119D01*
X125019111Y-70687889D02*
X125966219Y-69740781D01*
X123811789Y-71869811D02*
X124993711Y-70687889D01*
X144449800Y-66497200D02*
X145592800Y-66497200D01*
X123735589Y-71869811D02*
X123811789Y-71869811D01*
X124993711Y-70687889D02*
X125019111Y-70687889D01*
X138615590Y-66083010D02*
X138938000Y-65760600D01*
X144449800Y-66464012D02*
X144449800Y-66497200D01*
X121920000Y-73685400D02*
X123735589Y-71869811D01*
X125966219Y-65730119D02*
X126042419Y-65653919D01*
X136441010Y-66083010D02*
X138615590Y-66083010D01*
X121920000Y-74930000D02*
X121920000Y-73685400D01*
D32*
X142651000Y-67727000D02*
X142651000Y-69606000D01*
X142651000Y-69606000D02*
X143784000Y-70739000D01*
X143784000Y-70739000D02*
X143934000Y-70739000D01*
X142240000Y-70805000D02*
X143868000Y-70805000D01*
X143868000Y-70805000D02*
X143934000Y-70739000D01*
X141985981Y-87950862D02*
X142654910Y-88619792D01*
X141985981Y-86626830D02*
X141985981Y-87950862D01*
X136937151Y-81578000D02*
X141985981Y-86626830D01*
X134889000Y-81578000D02*
X136937151Y-81578000D01*
X142113001Y-88077883D02*
X142654910Y-88619792D01*
X141331000Y-100330000D02*
X140302000Y-100330000D01*
X141756799Y-97282103D02*
X141756799Y-99904201D01*
X142982917Y-88947799D02*
X144753161Y-88947799D01*
X144797499Y-94241403D02*
X141756799Y-97282103D01*
X141756799Y-99904201D02*
X141331000Y-100330000D01*
X142654910Y-88619792D02*
X142982917Y-88947799D01*
X144797499Y-94241403D02*
X144797499Y-93200501D01*
X144797499Y-93200501D02*
X146304000Y-91694000D01*
X146304000Y-90498638D02*
X144753161Y-88947799D01*
X146304000Y-91694000D02*
X146304000Y-90498638D01*
X138306000Y-77470000D02*
X138306000Y-73316380D01*
X138339000Y-77503000D02*
X138306000Y-77470000D01*
X138339000Y-78628000D02*
X138339000Y-77503000D01*
X142001000Y-69152000D02*
X142001000Y-67877000D01*
X141893000Y-69260000D02*
X142001000Y-69152000D01*
X141893000Y-69729380D02*
X141893000Y-69260000D01*
X138306000Y-73316380D02*
X141893000Y-69729380D01*
X137872000Y-77470000D02*
X137872000Y-73136612D01*
X137839000Y-77503000D02*
X137872000Y-77470000D01*
X137839000Y-78628000D02*
X137839000Y-77503000D01*
X141351000Y-69152000D02*
X141351000Y-67877000D01*
X141459000Y-69260000D02*
X141351000Y-69152000D01*
X141459000Y-69549612D02*
X141459000Y-69260000D01*
X137872000Y-73136612D02*
X141459000Y-69549612D01*
X131097000Y-96266000D02*
X131348365Y-96266000D01*
X131348365Y-96266000D02*
X133381000Y-96266000D01*
X130911235Y-95704455D02*
X130911235Y-96128719D01*
X130911235Y-96128719D02*
X131048516Y-96266000D01*
X131048516Y-96266000D02*
X131348365Y-96266000D01*
X130683000Y-94361000D02*
X130937000Y-94361000D01*
X130863038Y-98780600D02*
X130863038Y-96499962D01*
X130863038Y-96499962D02*
X131097000Y-96266000D01*
X130683000Y-94361000D02*
X129921000Y-93599000D01*
X129921000Y-93599000D02*
X129921000Y-91567000D01*
X134893000Y-84582000D02*
X134889000Y-84578000D01*
X136017000Y-84582000D02*
X134893000Y-84582000D01*
X129931706Y-99090726D02*
X130489981Y-99649001D01*
X129931706Y-98800494D02*
X129931706Y-99090726D01*
X130489981Y-99649001D02*
X130789980Y-99949000D01*
X130175000Y-98557200D02*
X130175000Y-94926138D01*
X130244862Y-94996000D02*
X130175000Y-94926138D01*
X130893302Y-94996000D02*
X130244862Y-94996000D01*
X129931706Y-98800494D02*
X130175000Y-98557200D01*
X132551000Y-94996000D02*
X130893302Y-94996000D01*
X134877000Y-85090000D02*
X134889000Y-85078000D01*
X133350000Y-85090000D02*
X134877000Y-85090000D01*
X130175000Y-94478039D02*
X129360462Y-93663501D01*
X129360462Y-93663501D02*
X129360462Y-89455606D01*
X130175000Y-94926138D02*
X130175000Y-94478039D01*
X129360462Y-89455606D02*
X129290070Y-89385214D01*
X143662375Y-84530214D02*
X142841492Y-84530214D01*
X143865600Y-80149596D02*
X143865600Y-79868502D01*
X141020800Y-82041997D02*
X142367005Y-80695792D01*
X144417084Y-85284923D02*
X143662375Y-84530214D01*
X143319404Y-80695792D02*
X143865600Y-80149596D01*
X142841492Y-84530214D02*
X141020800Y-82709522D01*
X141020800Y-82709522D02*
X141020800Y-82041997D01*
X142367005Y-80695792D02*
X143319404Y-80695792D01*
X126746000Y-103378000D02*
X127939801Y-102184199D01*
X127939801Y-102184199D02*
X129731607Y-102184199D01*
X129731607Y-102184199D02*
X129858617Y-102311209D01*
X138799408Y-101600000D02*
X139502719Y-101600000D01*
X129858617Y-102311209D02*
X130745383Y-102311209D01*
X130745383Y-102311209D02*
X130872393Y-102184199D01*
X130872393Y-102184199D02*
X138215209Y-102184199D01*
X138215209Y-102184199D02*
X138799408Y-101600000D01*
X139502719Y-101600000D02*
X140302000Y-101600000D01*
X141625268Y-100751732D02*
X142072268Y-100751732D01*
X143656799Y-99167201D02*
X143656799Y-96010735D01*
X140777000Y-101600000D02*
X141625268Y-100751732D01*
X146797236Y-92108298D02*
X147368775Y-92108298D01*
X140302000Y-101600000D02*
X140777000Y-101600000D01*
X145364210Y-93541324D02*
X146797236Y-92108298D01*
X147368775Y-92108298D02*
X147793039Y-92108298D01*
X145364210Y-94303324D02*
X145364210Y-93541324D01*
X142072268Y-100751732D02*
X143656799Y-99167201D01*
X143656799Y-96010735D02*
X145364210Y-94303324D01*
X143408400Y-75996800D02*
X142900400Y-75996800D01*
X142339000Y-76558200D02*
X142339000Y-78628000D01*
X142900400Y-75996800D02*
X142339000Y-76558200D01*
X156122627Y-109296199D02*
X156895801Y-108523025D01*
X154355801Y-109296199D02*
X156122627Y-109296199D01*
X153162000Y-110490000D02*
X154355801Y-109296199D01*
X158851601Y-104795239D02*
X156895801Y-106751039D01*
X158851601Y-102747571D02*
X158851601Y-104795239D01*
X158534099Y-102430069D02*
X158851601Y-102747571D01*
X158534099Y-101638099D02*
X158534099Y-102430069D01*
X157670500Y-100774500D02*
X158534099Y-101638099D01*
X156895801Y-108523025D02*
X156895801Y-106751039D01*
X150490220Y-92372666D02*
X152731990Y-94614436D01*
X153168643Y-97986011D02*
X154882011Y-97986011D01*
X152731991Y-97549359D02*
X153168643Y-97986011D01*
X156806901Y-99910901D02*
X157670500Y-100774500D01*
X152731990Y-94614436D02*
X152731991Y-97549359D01*
X154882011Y-97986011D02*
X156806901Y-99910901D01*
X145230869Y-84578000D02*
X145035953Y-84772916D01*
X146289000Y-84578000D02*
X145230869Y-84578000D01*
X140157200Y-81788000D02*
X140157200Y-83020070D01*
X142522436Y-85385306D02*
X142767096Y-85385306D01*
X142839000Y-79558786D02*
X142765785Y-79632001D01*
X142839000Y-78628000D02*
X142839000Y-79558786D01*
X142313199Y-79632001D02*
X140157200Y-81788000D01*
X142767096Y-85385306D02*
X143067095Y-85685305D01*
X142765785Y-79632001D02*
X142313199Y-79632001D01*
X140157200Y-83020070D02*
X142522436Y-85385306D01*
X146177000Y-102870000D02*
X147360160Y-101686840D01*
X145952645Y-93581521D02*
X146578317Y-93581521D01*
X146578317Y-93581521D02*
X147102587Y-93057251D01*
X147360160Y-101686840D02*
X147360160Y-96516896D01*
X145821420Y-93712746D02*
X145952645Y-93581521D01*
X145702000Y-102870000D02*
X146177000Y-102870000D01*
X147360160Y-96516896D02*
X145821420Y-94978156D01*
X145821420Y-94978156D02*
X145821420Y-93712746D01*
X129286000Y-103378000D02*
X130479801Y-104571801D01*
X130479801Y-104571801D02*
X135551442Y-104571801D01*
X135551442Y-104571801D02*
X136003042Y-104120201D01*
X136003042Y-104120201D02*
X137545161Y-104120201D01*
X137545161Y-104120201D02*
X137892466Y-103772896D01*
X137892466Y-103772896D02*
X137892466Y-103153534D01*
X137892466Y-103153534D02*
X138806201Y-102239799D01*
X138806201Y-102239799D02*
X141346201Y-102239799D01*
X141346201Y-102239799D02*
X142240000Y-101346000D01*
X142240000Y-101346000D02*
X143149000Y-101346000D01*
X143149000Y-101346000D02*
X144673000Y-102870000D01*
X144673000Y-102870000D02*
X145702000Y-102870000D01*
X142893010Y-78573990D02*
X142839000Y-78628000D01*
X142893010Y-76860400D02*
X142893010Y-78573990D01*
X142460831Y-80063137D02*
X142730307Y-80063137D01*
X140639790Y-81884178D02*
X142460831Y-80063137D01*
X143339000Y-78628000D02*
X143339000Y-79670829D01*
X142730307Y-80063137D02*
X143154571Y-80063137D01*
X143154571Y-79855258D02*
X143154571Y-80063137D01*
X142683673Y-84911224D02*
X140639790Y-82867341D01*
X143339000Y-79670829D02*
X143154571Y-79855258D01*
X143636834Y-86328636D02*
X143636834Y-85435122D01*
X143112936Y-84911224D02*
X142683673Y-84911224D01*
X143636834Y-85435122D02*
X143112936Y-84911224D01*
X140639790Y-82867341D02*
X140639790Y-81884178D01*
X146787454Y-94499040D02*
X146487455Y-94199041D01*
X147955000Y-97033796D02*
X147908971Y-96987765D01*
X146177000Y-104140000D02*
X147955000Y-102362000D01*
X145702000Y-104140000D02*
X146177000Y-104140000D01*
X147908971Y-96987765D02*
X147908971Y-95620557D01*
X147955000Y-102362000D02*
X147955000Y-97033796D01*
X147908971Y-95620557D02*
X146787454Y-94499040D01*
X144673000Y-104140000D02*
X145702000Y-104140000D01*
X142792799Y-106020201D02*
X144673000Y-104140000D01*
X129286000Y-105918000D02*
X130625535Y-107257535D01*
X133673535Y-107257535D02*
X133731000Y-107315000D01*
X130625535Y-107257535D02*
X133673535Y-107257535D01*
X142645799Y-106020201D02*
X142792799Y-106020201D01*
X142494000Y-106172000D02*
X142645799Y-106020201D01*
X150914484Y-91535677D02*
X153176499Y-93797692D01*
X153176499Y-93797692D02*
X153176499Y-97365235D01*
X153176499Y-97365235D02*
X153352765Y-97541501D01*
X153352765Y-97541501D02*
X156304025Y-97541501D01*
X156304025Y-97541501D02*
X159016699Y-100254175D01*
X159016699Y-100254175D02*
X159016699Y-101328729D01*
X149601201Y-83390503D02*
X149273497Y-83062799D01*
X149601201Y-84028839D02*
X149601201Y-83390503D01*
X150109201Y-86593632D02*
X150109201Y-84536839D01*
X150109201Y-84536839D02*
X149601201Y-84028839D01*
X147293000Y-83078000D02*
X146289000Y-83078000D01*
X149273497Y-83062799D02*
X147308201Y-83062799D01*
X147308201Y-83062799D02*
X147293000Y-83078000D01*
X149972304Y-86593632D02*
X149931368Y-86634568D01*
X150109201Y-86593632D02*
X149972304Y-86593632D01*
X159016699Y-101328729D02*
X159770562Y-102082592D01*
X160746949Y-102196899D02*
X159884869Y-102196899D01*
X161328101Y-102778051D02*
X160746949Y-102196899D01*
X161328101Y-103850949D02*
X161328101Y-102778051D01*
X159884869Y-102196899D02*
X159770562Y-102082592D01*
X158440078Y-106738972D02*
X161328101Y-103850949D01*
X157795832Y-106738972D02*
X158440078Y-106738972D01*
X151125210Y-101864253D02*
X151125210Y-104147912D01*
X151125210Y-104147912D02*
X153161997Y-106184699D01*
X153161997Y-106184699D02*
X153936699Y-106184699D01*
X153936699Y-106184699D02*
X155702000Y-107950000D01*
X149369499Y-97039131D02*
X150712006Y-98381638D01*
X150712006Y-98381638D02*
X150952210Y-98621842D01*
X151125210Y-101864253D02*
X151125210Y-98794842D01*
X151125210Y-98794842D02*
X150712006Y-98381638D01*
X149242499Y-96435401D02*
X149242499Y-94953599D01*
X149242499Y-94953599D02*
X149860000Y-94336098D01*
X149369499Y-97039131D02*
X149369499Y-96562401D01*
X149369499Y-96562401D02*
X149242499Y-96435401D01*
X149860000Y-94336098D02*
X149860000Y-91619762D01*
X149860000Y-91619762D02*
X149978270Y-91501492D01*
X146289000Y-84078000D02*
X144549070Y-84078000D01*
X144549070Y-84078000D02*
X144426352Y-84200718D01*
X155713592Y-110490000D02*
X155702000Y-110490000D01*
X155702000Y-110490000D02*
X156475174Y-110490000D01*
X148480481Y-96930645D02*
X148353480Y-96803644D01*
X148480480Y-97407374D02*
X148480481Y-96930645D01*
X148914201Y-97841097D02*
X148480480Y-97407374D01*
X148917795Y-97841097D02*
X148914201Y-97841097D01*
X150129230Y-99052532D02*
X148917795Y-97841097D01*
X150129230Y-104320955D02*
X150129230Y-99052532D01*
X152588975Y-111683801D02*
X151968199Y-111063025D01*
X154508199Y-111683801D02*
X152588975Y-111683801D01*
X155702000Y-110490000D02*
X154508199Y-111683801D01*
X151968199Y-111063025D02*
X151968199Y-106159923D01*
X151968199Y-106159923D02*
X150129230Y-104320955D01*
X145137928Y-83578000D02*
X144830719Y-83270791D01*
X146289000Y-83578000D02*
X145137928Y-83578000D01*
X148353480Y-96803644D02*
X148353480Y-94585354D01*
X148353480Y-94585354D02*
X148914201Y-94024633D01*
X148914201Y-87651735D02*
X149275064Y-87290872D01*
X148914201Y-94024633D02*
X148914201Y-87651735D01*
X149599782Y-97898046D02*
X150549742Y-98848006D01*
X150463074Y-98761338D02*
X149599782Y-97898046D01*
X150571200Y-98869464D02*
X150463074Y-98761338D01*
X150571200Y-104137886D02*
X150571200Y-98869464D01*
X153162000Y-106728686D02*
X150571200Y-104137886D01*
X153162000Y-107950000D02*
X153162000Y-106728686D01*
X148924990Y-96746524D02*
X148797989Y-96619523D01*
X148797989Y-94769477D02*
X149371411Y-94196055D01*
X150566411Y-86783014D02*
X150566410Y-84347456D01*
X148797989Y-96619523D02*
X148797989Y-94769477D01*
X150566410Y-84347456D02*
X150058411Y-83839457D01*
X149478701Y-82621411D02*
X147336411Y-82621411D01*
X149599782Y-97898046D02*
X148924989Y-97223253D01*
X148924989Y-97223253D02*
X148924990Y-96746524D01*
X149371411Y-87978014D02*
X150566411Y-86783014D01*
X150058411Y-83839457D02*
X150058410Y-83201120D01*
X150058410Y-83201120D02*
X149478701Y-82621411D01*
X147336411Y-82621411D02*
X147293000Y-82578000D01*
X149371411Y-94196055D02*
X149371411Y-87978014D01*
X147293000Y-82578000D02*
X146289000Y-82578000D01*
X147107373Y-80578000D02*
X146289000Y-80578000D01*
X148094904Y-81565531D02*
X147107373Y-80578000D01*
X148835107Y-81565531D02*
X148094904Y-81565531D01*
X133885000Y-83578000D02*
X134889000Y-83578000D01*
X133757000Y-83450000D02*
X133885000Y-83578000D01*
X133757000Y-83179000D02*
X133757000Y-83450000D01*
X133128000Y-82550000D02*
X133757000Y-83179000D01*
X132903000Y-82550000D02*
X133128000Y-82550000D01*
X150817582Y-76454000D02*
X148887264Y-76454000D01*
X153868401Y-79504819D02*
X150817582Y-76454000D01*
X152437321Y-82240401D02*
X153868401Y-80809321D01*
X148690055Y-82240401D02*
X152437321Y-82240401D01*
X146289000Y-82078000D02*
X148527654Y-82078000D01*
X148887264Y-76454000D02*
X148463000Y-76454000D01*
X153868401Y-80809321D02*
X153868401Y-79504819D01*
X148527654Y-82078000D02*
X148690055Y-82240401D01*
X147293000Y-82078000D02*
X146289000Y-82078000D01*
X147834537Y-74682537D02*
X145688335Y-74682537D01*
X148209000Y-75057000D02*
X147834537Y-74682537D01*
X143395798Y-72390000D02*
X145688335Y-74682537D01*
X134493000Y-97392038D02*
X134509962Y-97392038D01*
X134509962Y-97392038D02*
X136271000Y-95631000D01*
X146289000Y-87078000D02*
X146269201Y-87097799D01*
X143935602Y-87078000D02*
X143658241Y-87355361D01*
X146289000Y-87078000D02*
X143935602Y-87078000D01*
X134193001Y-97692037D02*
X134493000Y-97392038D01*
X134493000Y-100639569D02*
X134193001Y-100339570D01*
X134193001Y-100339570D02*
X134193001Y-97692037D01*
X132522000Y-90170000D02*
X136697000Y-90170000D01*
X136697000Y-90170000D02*
X136839000Y-90028000D01*
X132522000Y-90799000D02*
X132522000Y-90170000D01*
X132731200Y-91008200D02*
X132522000Y-90799000D01*
X132953200Y-91008200D02*
X132731200Y-91008200D01*
X132993000Y-91048000D02*
X132953200Y-91008200D01*
X132993000Y-92202000D02*
X132993000Y-91048000D01*
X137339000Y-90028000D02*
X137339000Y-91032000D01*
X137339000Y-91032000D02*
X137795000Y-91488000D01*
X137795000Y-91488000D02*
X137795000Y-92649000D01*
X137602000Y-92456000D02*
X137795000Y-92649000D01*
X136997000Y-92202000D02*
X137109200Y-92314200D01*
X135993000Y-92202000D02*
X136997000Y-92202000D01*
X137166000Y-92649000D02*
X137795000Y-92649000D01*
X137109200Y-92592200D02*
X137166000Y-92649000D01*
X137109200Y-92314200D02*
X137109200Y-92592200D01*
X154094000Y-96774000D02*
X154094000Y-95156160D01*
X154094000Y-95156160D02*
X154167800Y-95082360D01*
X154178000Y-93726000D02*
X154167800Y-93736200D01*
X154167800Y-93736200D02*
X154167800Y-95082360D01*
X147369201Y-86654201D02*
X147369201Y-86907822D01*
X147903625Y-87442246D02*
X148327889Y-87442246D01*
X146289000Y-86578000D02*
X147293000Y-86578000D01*
X147369201Y-86907822D02*
X147903625Y-87442246D01*
X147293000Y-86578000D02*
X147369201Y-86654201D01*
X151231353Y-90779353D02*
X150760670Y-90779353D01*
X151231353Y-90779353D02*
X154178000Y-93726000D01*
X143618330Y-83676214D02*
X143318331Y-83976213D01*
X145246858Y-81078000D02*
X143687810Y-82637046D01*
X146289000Y-81078000D02*
X145246858Y-81078000D01*
X143687810Y-82637046D02*
X143687810Y-83606734D01*
X143687810Y-83606734D02*
X143618330Y-83676214D01*
X138957411Y-92479853D02*
X139537646Y-91899618D01*
X138957411Y-92811867D02*
X138957411Y-92479853D01*
X139537646Y-91899618D02*
X139537646Y-91492251D01*
X137244201Y-97634089D02*
X137244201Y-98483406D01*
X137244201Y-98483406D02*
X137244201Y-98837207D01*
X136906000Y-101269779D02*
X137244201Y-100931578D01*
X137244201Y-100931578D02*
X137244201Y-98483406D01*
X131872000Y-101269779D02*
X136906000Y-101269779D01*
X131679934Y-101077713D02*
X131872000Y-101269779D01*
X138957411Y-95920879D02*
X137244201Y-97634089D01*
X138957411Y-92811867D02*
X138957411Y-95920879D01*
X138957411Y-92456589D02*
X138957411Y-92811867D01*
X146289000Y-81578000D02*
X145285686Y-81578000D01*
X145285686Y-81578000D02*
X145074340Y-81789346D01*
X145074340Y-82169571D02*
X144774341Y-82469570D01*
X145074340Y-81789346D02*
X145074340Y-82169571D01*
X140208000Y-92649000D02*
X140208000Y-91795000D01*
X140208000Y-91795000D02*
X140339000Y-91664000D01*
X140339000Y-91032000D02*
X140339000Y-90028000D01*
X140339000Y-91664000D02*
X140339000Y-91032000D01*
X140589000Y-97221000D02*
X139960000Y-97221000D01*
X139960000Y-97221000D02*
X139502799Y-96763799D01*
X139502799Y-96763799D02*
X139502799Y-93579201D01*
X140208000Y-92874000D02*
X140208000Y-92649000D01*
X139502799Y-93579201D02*
X140208000Y-92874000D01*
X139368000Y-98171000D02*
X140318000Y-97221000D01*
X138514000Y-98171000D02*
X139368000Y-98171000D01*
X140318000Y-97221000D02*
X140589000Y-97221000D01*
X138206170Y-84254354D02*
X138206170Y-87493502D01*
X136521806Y-82569990D02*
X138206170Y-84254354D01*
X135901010Y-82569990D02*
X136521806Y-82569990D01*
X138206170Y-87493502D02*
X138206170Y-87917766D01*
X135893000Y-82578000D02*
X135901010Y-82569990D01*
X134889000Y-82578000D02*
X135893000Y-82578000D01*
X138500201Y-95731497D02*
X138500201Y-92150747D01*
X136706437Y-96134201D02*
X138097497Y-96134201D01*
X135533316Y-97307322D02*
X136706437Y-96134201D01*
X138097497Y-96134201D02*
X138500201Y-95731497D01*
X138500201Y-92150747D02*
X138734433Y-91916515D01*
X138734433Y-91916515D02*
X138734433Y-91492251D01*
X135173999Y-97666639D02*
X135533316Y-97307322D01*
X135173999Y-98379001D02*
X135173999Y-97666639D01*
X134874000Y-98679000D02*
X135173999Y-98379001D01*
X135329194Y-97511444D02*
X135533316Y-97307322D01*
X134889000Y-82078000D02*
X136898322Y-82078000D01*
X141355780Y-86831117D02*
X141355780Y-87255381D01*
X136898322Y-82078000D02*
X141355780Y-86535458D01*
X141355780Y-86535458D02*
X141355780Y-86831117D01*
X130930099Y-100866901D02*
X130930099Y-101726989D01*
X131721000Y-100076000D02*
X130930099Y-100866901D01*
X127514000Y-108524000D02*
X126386067Y-107396067D01*
X126386067Y-107396067D02*
X125552199Y-106562199D01*
X125552199Y-106491025D02*
X125552199Y-106323805D01*
X125552199Y-106323805D02*
X125552199Y-102804975D01*
X128143000Y-108524000D02*
X127514000Y-108524000D01*
X125552199Y-106562199D02*
X125552199Y-106323805D01*
X131422000Y-108524000D02*
X131445000Y-108501000D01*
X130930099Y-101726989D02*
X126630185Y-101726989D01*
X125552199Y-102804975D02*
X126096452Y-102260722D01*
X126630185Y-101726989D02*
X126096452Y-102260722D01*
X129771000Y-108524000D02*
X129794000Y-108501000D01*
X128143000Y-108524000D02*
X129771000Y-108524000D01*
X131445000Y-108501000D02*
X129794000Y-108501000D01*
X141078256Y-92718824D02*
X141078256Y-92294560D01*
X141133189Y-98190799D02*
X141285056Y-98038932D01*
X141285056Y-92925624D02*
X141078256Y-92718824D01*
X140061201Y-98190799D02*
X141133189Y-98190799D01*
X139192000Y-99060000D02*
X140061201Y-98190799D01*
X130930099Y-101726989D02*
X138025827Y-101726989D01*
X141285056Y-98038932D02*
X141285056Y-92925624D01*
X138025827Y-101726989D02*
X139192000Y-100560816D01*
X139192000Y-100560816D02*
X139192000Y-99060000D01*
X128143000Y-73100000D02*
X128143000Y-73250000D01*
X132138264Y-76338492D02*
X132438263Y-76638491D01*
X128143000Y-73250000D02*
X129442499Y-74549499D01*
X129442499Y-74549499D02*
X130349271Y-74549499D01*
X130349271Y-74549499D02*
X132138264Y-76338492D01*
X141859000Y-77343000D02*
X141839000Y-77363000D01*
X141839000Y-77363000D02*
X141839000Y-78628000D01*
X129794000Y-73100000D02*
X129794000Y-73250000D01*
X129794000Y-73250000D02*
X132444001Y-75900001D01*
X132444001Y-75900001D02*
X132796001Y-75900001D01*
X132796001Y-75900001D02*
X133096000Y-76200000D01*
X140339000Y-77260367D02*
X140421496Y-77177871D01*
X141114480Y-75844409D02*
X141114480Y-75420145D01*
X140421496Y-77177871D02*
X140421496Y-76881872D01*
X141114480Y-76188888D02*
X141114480Y-75844409D01*
X140421496Y-76881872D02*
X141114480Y-76188888D01*
X140339000Y-78628000D02*
X140339000Y-77260367D01*
X131445000Y-73100000D02*
X131445000Y-73250000D01*
X131445000Y-73250000D02*
X133731000Y-75536000D01*
X133731000Y-75536000D02*
X133731000Y-76356543D01*
X133731000Y-76356543D02*
X133731000Y-76780807D01*
X139976986Y-75857515D02*
X140026847Y-75807654D01*
X139839000Y-77131735D02*
X139976986Y-76993749D01*
X139839000Y-78628000D02*
X139839000Y-77131735D01*
X140026847Y-75807654D02*
X140326846Y-75507655D01*
X139976986Y-76993749D02*
X139976986Y-75857515D01*
X133670000Y-76719807D02*
X133731000Y-76780807D01*
X137084400Y-109753400D02*
X134781274Y-109753400D01*
X134781274Y-109753400D02*
X133833674Y-110701000D01*
X133833674Y-110701000D02*
X131445000Y-110701000D01*
X141839000Y-90028000D02*
X141839000Y-91426368D01*
X142321001Y-95204001D02*
X142621000Y-95504000D01*
X141839000Y-91426368D02*
X142321001Y-91908369D01*
X142321001Y-91908369D02*
X142321001Y-95204001D01*
X151023616Y-96469616D02*
X151023616Y-95978612D01*
X157670500Y-103314500D02*
X156337000Y-101981000D01*
X151023616Y-95978612D02*
X151023616Y-95554348D01*
X153258379Y-98704379D02*
X151023616Y-96469616D01*
X156337000Y-101981000D02*
X156337000Y-100232970D01*
X156337000Y-100232970D02*
X154808410Y-98704380D01*
X154808410Y-98704380D02*
X153258379Y-98704379D01*
X142829001Y-91787737D02*
X142829001Y-94586481D01*
X142339000Y-90028000D02*
X142339000Y-91297736D01*
X142339000Y-91297736D02*
X142829001Y-91787737D01*
X142829001Y-94586481D02*
X143129000Y-94886480D01*
X150477501Y-96552133D02*
X153074257Y-99148889D01*
X150241000Y-94869000D02*
X150241000Y-95606098D01*
X150241000Y-95606098D02*
X150477501Y-95842599D01*
X150477501Y-95842599D02*
X150477501Y-96552133D01*
X153074257Y-99148889D02*
X153504889Y-99148889D01*
X153504889Y-99148889D02*
X154266901Y-99910901D01*
X154266901Y-99910901D02*
X155130500Y-100774500D01*
X141339000Y-90028000D02*
X141339000Y-91555000D01*
X141339000Y-91555000D02*
X141732000Y-91948000D01*
X141732000Y-95885000D02*
X141986000Y-96139000D01*
X141732000Y-91948000D02*
X141732000Y-95885000D01*
X153949399Y-100385369D02*
X153949399Y-101371399D01*
X153157429Y-99593399D02*
X153949399Y-100385369D01*
X155130500Y-102552500D02*
X155130500Y-103314500D01*
X153949399Y-101371399D02*
X155130500Y-102552500D01*
X152890135Y-99593399D02*
X153157429Y-99593399D01*
X149860000Y-96139000D02*
X149860000Y-96563264D01*
X149860000Y-96563264D02*
X152890135Y-99593399D01*
X126746000Y-68643500D02*
X126746000Y-67932300D01*
X128143000Y-70040500D02*
X126746000Y-68643500D01*
X128143000Y-70900000D02*
X128143000Y-70040500D01*
X128397000Y-68643500D02*
X128397000Y-67932300D01*
X129794000Y-70040500D02*
X128397000Y-68643500D01*
X129794000Y-70900000D02*
X129794000Y-70040500D01*
X131445000Y-69982080D02*
X131445000Y-70900000D01*
X130048000Y-68585080D02*
X131445000Y-69982080D01*
X130048000Y-67932300D02*
X130048000Y-68585080D01*
X133096000Y-70490080D02*
X133096000Y-70900000D01*
X133096000Y-70046000D02*
X133096000Y-70900000D01*
X133096000Y-69982080D02*
X133096000Y-70046000D01*
X131699000Y-68585080D02*
X133096000Y-69982080D01*
X131699000Y-67932300D02*
X131699000Y-68585080D01*
X133815000Y-73025000D02*
X133815000Y-73085000D01*
X133815000Y-73085000D02*
X133800000Y-73100000D01*
X133800000Y-73100000D02*
X133096000Y-73100000D01*
X136017000Y-73025000D02*
X133815000Y-73025000D01*
X141097000Y-77470000D02*
X141097000Y-76835000D01*
X141097000Y-76835000D02*
X141986000Y-75946000D01*
X141306501Y-77679501D02*
X141097000Y-77470000D01*
X141339000Y-78628000D02*
X141306501Y-78595501D01*
X141306501Y-78595501D02*
X141306501Y-77679501D01*
X137776000Y-64777000D02*
X144926000Y-64777000D01*
X147701000Y-65552000D02*
X147701000Y-65702000D01*
X146926000Y-64777000D02*
X147701000Y-65552000D01*
X137776000Y-64777000D02*
X146926000Y-64777000D01*
X120268989Y-95365815D02*
X120268989Y-78991760D01*
X120268989Y-78991760D02*
X120550215Y-78710534D01*
X121346975Y-96443801D02*
X120268989Y-95365815D01*
X123113801Y-96443801D02*
X121346975Y-96443801D01*
X124460000Y-97790000D02*
X123113801Y-96443801D01*
X128816444Y-82538562D02*
X126898404Y-82538562D01*
X134889000Y-81078000D02*
X133402000Y-81078000D01*
X133402000Y-81078000D02*
X132562630Y-80238630D01*
X132562630Y-80238630D02*
X131116376Y-80238630D01*
X126898404Y-82538562D02*
X126474140Y-82538562D01*
X131116376Y-80238630D02*
X128816444Y-82538562D01*
X134889000Y-86078000D02*
X133941290Y-86078000D01*
X133841879Y-86177411D02*
X132160103Y-86177411D01*
X133941290Y-86078000D02*
X133841879Y-86177411D01*
X131334279Y-86062382D02*
X130948145Y-86448516D01*
X132045074Y-86062382D02*
X131334279Y-86062382D01*
X132160103Y-86177411D02*
X132045074Y-86062382D01*
X130948145Y-86448516D02*
X130948145Y-86872780D01*
X126847600Y-90576400D02*
X127507998Y-89916002D01*
X126847600Y-93940057D02*
X126847600Y-90576400D01*
X126491999Y-94295658D02*
X126847600Y-93940057D01*
X126491999Y-97536001D02*
X126491999Y-94295658D01*
X125120399Y-98907601D02*
X126491999Y-97536001D01*
X123037601Y-98907601D02*
X125120399Y-98907601D01*
X121920000Y-97790000D02*
X123037601Y-98907601D01*
X127863598Y-89916002D02*
X127965200Y-89814400D01*
X127507998Y-89916002D02*
X127863598Y-89916002D01*
X129249966Y-86790533D02*
X129549965Y-87090532D01*
X126085580Y-92902362D02*
X126085580Y-90108362D01*
X125882400Y-82310380D02*
X125882400Y-83422967D01*
X127314553Y-88879389D02*
X127659509Y-88879389D01*
X126607969Y-81584811D02*
X125882400Y-82310380D01*
X130958557Y-79857620D02*
X129231367Y-81584811D01*
X134889000Y-80578000D02*
X133885000Y-80578000D01*
X133885000Y-80578000D02*
X133164620Y-79857620D01*
X133164620Y-79857620D02*
X130958557Y-79857620D01*
X129231367Y-81584811D02*
X126607969Y-81584811D01*
X124460000Y-95250000D02*
X125323599Y-94386401D01*
X125882400Y-83422967D02*
X129249966Y-86790533D01*
X126085580Y-90108362D02*
X127314553Y-88879389D01*
X125323599Y-93664343D02*
X126085580Y-92902362D01*
X125323599Y-94386401D02*
X125323599Y-93664343D01*
X127659509Y-88879389D02*
X127904404Y-88634494D01*
X125983981Y-93542791D02*
X126466590Y-93060182D01*
X122555000Y-95250000D02*
X123736101Y-96431101D01*
X128170723Y-89260399D02*
X128468401Y-88962721D01*
X127624773Y-89260399D02*
X128170723Y-89260399D01*
X123736101Y-96431101D02*
X125026929Y-96431101D01*
X125026929Y-96431101D02*
X125983981Y-95474049D01*
X125983981Y-95474049D02*
X125983981Y-93542791D01*
X128468401Y-88962721D02*
X128468401Y-88380079D01*
X121920000Y-95250000D02*
X122555000Y-95250000D01*
X128468401Y-88380079D02*
X127572646Y-87484324D01*
X127572646Y-87484324D02*
X127279165Y-87484324D01*
X126466590Y-93060182D02*
X126466590Y-90418582D01*
X126466590Y-90418582D02*
X127624773Y-89260399D01*
X133652497Y-85720201D02*
X132331525Y-85720201D01*
X133794698Y-85578000D02*
X133652497Y-85720201D01*
X129627735Y-85617872D02*
X129562683Y-85682924D01*
X132229196Y-85617872D02*
X129627735Y-85617872D01*
X129562683Y-85682924D02*
X129262684Y-85982923D01*
X132331525Y-85720201D02*
X132229196Y-85617872D01*
X134889000Y-85578000D02*
X133794698Y-85578000D01*
X130201665Y-86754251D02*
X129901666Y-86454252D01*
X134889000Y-88078000D02*
X131238895Y-88078000D01*
X130201665Y-87040770D02*
X130201665Y-86754251D01*
X126988436Y-88548321D02*
X127288435Y-88248322D01*
X124460000Y-92710000D02*
X125704570Y-91465430D01*
X125704570Y-89832187D02*
X126988436Y-88548321D01*
X131238895Y-88078000D02*
X130201665Y-87040770D01*
X125704570Y-91465430D02*
X125704570Y-89832187D01*
X132048672Y-86979882D02*
X131748673Y-86679883D01*
X134889000Y-87578000D02*
X132646790Y-87578000D01*
X132646790Y-87578000D02*
X132048672Y-86979882D01*
X126798458Y-86460783D02*
X127098457Y-86760782D01*
X123266199Y-91363801D02*
X123266199Y-86664801D01*
X123266199Y-86664801D02*
X123470217Y-86460783D01*
X123470217Y-86460783D02*
X126798458Y-86460783D01*
X121920000Y-92710000D02*
X123266199Y-91363801D01*
X121793000Y-100076000D02*
X120116600Y-100076000D01*
X120116600Y-100076000D02*
X119951490Y-100241110D01*
X120581000Y-104605000D02*
X121285000Y-104605000D01*
X119951490Y-100241110D02*
X119951490Y-103975490D01*
X119951490Y-103975490D02*
X120581000Y-104605000D01*
X139339000Y-78628000D02*
X139339000Y-76717833D01*
X139339000Y-76717833D02*
X139359485Y-76697348D01*
X121005000Y-104885000D02*
X121285000Y-104605000D01*
X124460000Y-90170000D02*
X125663332Y-88966668D01*
X125663332Y-88966668D02*
X125810274Y-88819726D01*
X124460000Y-90932000D02*
X123190000Y-92202000D01*
X123190000Y-92202000D02*
X123190000Y-94361000D01*
X124460000Y-90170000D02*
X124460000Y-90932000D01*
X130175000Y-77597000D02*
X130302000Y-77470000D01*
X129662000Y-77597000D02*
X130175000Y-77597000D01*
X127989483Y-83994155D02*
X127989483Y-84211317D01*
X131020012Y-80963626D02*
X127989483Y-83994155D01*
X132396374Y-80963626D02*
X131020012Y-80963626D01*
X125909427Y-88720573D02*
X125909427Y-88509838D01*
X125909427Y-88509838D02*
X125909427Y-88085574D01*
X127989483Y-84211317D02*
X127989483Y-84635581D01*
X125663332Y-88966668D02*
X125909427Y-88720573D01*
X122174000Y-99314000D02*
X122682000Y-99822000D01*
X122676499Y-103687499D02*
X123444000Y-104455000D01*
X122682000Y-99822000D02*
X122682000Y-100076000D01*
X122682000Y-100076000D02*
X121993977Y-100764023D01*
X121993977Y-100764023D02*
X120825577Y-100764023D01*
X120825577Y-100764023D02*
X120396000Y-101193600D01*
X120396000Y-101193600D02*
X120396000Y-103137502D01*
X120396000Y-103137502D02*
X120945997Y-103687499D01*
X120945997Y-103687499D02*
X122676499Y-103687499D01*
X123444000Y-104455000D02*
X123444000Y-104605000D01*
X138839000Y-77049353D02*
X138721457Y-76931810D01*
X138721457Y-76334722D02*
X138808710Y-76247469D01*
X138839000Y-78628000D02*
X138839000Y-77049353D01*
X138808710Y-76247469D02*
X139108709Y-75947470D01*
X138721457Y-76931810D02*
X138721457Y-76334722D01*
X123444000Y-104605000D02*
X123685000Y-104846000D01*
X121920000Y-90170000D02*
X120738899Y-91351101D01*
X120738899Y-91351101D02*
X120738899Y-94196282D01*
X120738899Y-94196282D02*
X120900935Y-94358318D01*
X120726199Y-79425801D02*
X121488199Y-78663801D01*
X120726199Y-88976199D02*
X120726199Y-79425801D01*
X121920000Y-90170000D02*
X120726199Y-88976199D01*
X126917217Y-77862783D02*
X126917217Y-78663801D01*
X127183000Y-77597000D02*
X126917217Y-77862783D01*
X127762000Y-77597000D02*
X127183000Y-77597000D01*
X121488199Y-78663801D02*
X126917217Y-78663801D01*
X135191509Y-78422491D02*
X135509000Y-78105000D01*
X130417989Y-78422491D02*
X135191509Y-78422491D01*
X129274988Y-79565490D02*
X130417989Y-78422491D01*
X127825490Y-79565490D02*
X129274988Y-79565490D01*
X126923801Y-78663801D02*
X127825490Y-79565490D01*
X126917217Y-78663801D02*
X126923801Y-78663801D01*
X144734001Y-91648001D02*
X144575161Y-91648001D01*
X143839000Y-90911840D02*
X143839000Y-90028000D01*
X145034000Y-91948000D02*
X144734001Y-91648001D01*
X144575161Y-91648001D02*
X143839000Y-90911840D01*
X142839000Y-91032000D02*
X142839000Y-90028000D01*
X143510000Y-91840104D02*
X142839000Y-91169104D01*
X142839000Y-91169104D02*
X142839000Y-91032000D01*
X143510000Y-92329000D02*
X143510000Y-91840104D01*
X144638000Y-90028000D02*
X145669000Y-91059000D01*
X144339000Y-90028000D02*
X144638000Y-90028000D01*
X143338877Y-90028123D02*
X143339000Y-90028000D01*
X143339000Y-91032000D02*
X143339000Y-90028000D01*
X144226001Y-92283001D02*
X144226001Y-91927473D01*
X143339000Y-91040472D02*
X143339000Y-91032000D01*
X144526000Y-92583000D02*
X144226001Y-92283001D01*
X144226001Y-91927473D02*
X143339000Y-91040472D01*
X147369201Y-87654201D02*
X147293000Y-87578000D01*
X147369201Y-88492161D02*
X147369201Y-87654201D01*
X147293000Y-87578000D02*
X146289000Y-87578000D01*
X147303161Y-88558201D02*
X147369201Y-88492161D01*
X142570211Y-87821619D02*
X143239181Y-88490589D01*
X143239181Y-88490589D02*
X144942544Y-88490590D01*
X142570211Y-86618501D02*
X142570211Y-87821619D01*
X145010155Y-88558201D02*
X147303161Y-88558201D01*
X135275920Y-79324210D02*
X142570211Y-86618501D01*
X130773532Y-79324210D02*
X135275920Y-79324210D01*
X144942544Y-88490590D02*
X145010155Y-88558201D01*
X128893941Y-81203801D02*
X130773532Y-79324210D01*
X123113801Y-81203801D02*
X128893941Y-81203801D01*
X121920000Y-80010000D02*
X123113801Y-81203801D01*
X143380764Y-87985580D02*
X145192580Y-87985580D01*
X143027421Y-86429119D02*
X143027421Y-87632237D01*
X145285000Y-88078000D02*
X146289000Y-88078000D01*
X135465303Y-78867001D02*
X143027421Y-86429119D01*
X130602110Y-78867000D02*
X135465303Y-78867001D01*
X129459110Y-80010000D02*
X130602110Y-78867000D01*
X145192580Y-87985580D02*
X145285000Y-88078000D01*
X143027421Y-87632237D02*
X143380764Y-87985580D01*
X124460000Y-80010000D02*
X129459110Y-80010000D01*
X127652458Y-86494861D02*
X127652458Y-86962387D01*
X137762799Y-88947799D02*
X137839000Y-89024000D01*
X121920000Y-82550000D02*
X123342399Y-83972399D01*
X129844071Y-89154000D02*
X136218638Y-89154000D01*
X123342399Y-83972399D02*
X125129996Y-83972399D01*
X136218638Y-89154000D02*
X136424839Y-88947799D01*
X136424839Y-88947799D02*
X137762799Y-88947799D01*
X127652458Y-86962387D02*
X129844071Y-89154000D01*
X125129996Y-83972399D02*
X127652458Y-86494861D01*
X137839000Y-89024000D02*
X137839000Y-90028000D01*
X124460000Y-82550000D02*
X128033468Y-86123468D01*
X137942544Y-88490590D02*
X138339000Y-88887046D01*
X128033468Y-86123468D02*
X128033468Y-86769861D01*
X128033468Y-86769861D02*
X129754197Y-88490590D01*
X129754197Y-88490590D02*
X137942544Y-88490590D01*
X138339000Y-88887046D02*
X138339000Y-89024000D01*
X138339000Y-89024000D02*
X138339000Y-90028000D01*
X139141200Y-88826200D02*
X139141200Y-86156800D01*
X139141200Y-86156800D02*
X139496800Y-85801200D01*
X139339000Y-89024000D02*
X139141200Y-88826200D01*
X139339000Y-90028000D02*
X139339000Y-89024000D01*
X144903989Y-80241610D02*
X144612971Y-80532628D01*
X145177980Y-79792989D02*
X144903989Y-80066980D01*
X147400020Y-79792989D02*
X145177980Y-79792989D01*
X149058290Y-79843290D02*
X147450321Y-79843290D01*
X150774400Y-80543400D02*
X149758400Y-80543400D01*
X144903989Y-80066980D02*
X144903989Y-80241610D01*
X149758400Y-80543400D02*
X149058290Y-79843290D01*
X147450321Y-79843290D02*
X147400020Y-79792989D01*
X144612971Y-80532628D02*
X142667127Y-82478472D01*
X142667127Y-82478472D02*
X142667127Y-82661585D01*
X142667127Y-82661585D02*
X142367128Y-82961584D01*
X144475200Y-80670399D02*
X144612971Y-80532628D01*
X140839000Y-88062415D02*
X140208000Y-87431415D01*
X140208000Y-86631864D02*
X140208000Y-86207600D01*
X140208000Y-87431415D02*
X140208000Y-86631864D01*
X140839000Y-90028000D02*
X140839000Y-88062415D01*
X145335799Y-80173999D02*
X147242201Y-80173999D01*
X143050990Y-83208319D02*
X143050990Y-82735038D01*
X145284999Y-80501029D02*
X145284999Y-80224799D01*
X147611602Y-80543400D02*
X148234400Y-80543400D01*
X143050990Y-82735038D02*
X145284999Y-80501029D01*
X147242201Y-80173999D02*
X147611602Y-80543400D01*
X145284999Y-80224799D02*
X145335799Y-80173999D01*
X138988800Y-85191600D02*
X138988800Y-85090000D01*
X138760190Y-85420210D02*
X138988800Y-85191600D01*
X138760190Y-89949190D02*
X138760190Y-85420210D01*
X138839000Y-90028000D02*
X138760190Y-89949190D01*
X141579600Y-82448400D02*
X142158371Y-82448400D01*
X144941291Y-79462280D02*
X144969860Y-79462280D01*
X152182979Y-79411979D02*
X152777634Y-80006634D01*
X144522979Y-79880592D02*
X144941291Y-79462280D01*
X145020161Y-79411979D02*
X152182979Y-79411979D01*
X152777634Y-80006634D02*
X153314400Y-80543400D01*
X144969860Y-79462280D02*
X145020161Y-79411979D01*
X142158371Y-82448400D02*
X144522979Y-80083792D01*
X144522979Y-80083792D02*
X144522979Y-79880592D01*
G36*
X137738201Y-94632500D02*
X137731500Y-94632500D01*
X137731500Y-94612500D01*
X137134250Y-94612500D01*
X137039000Y-94707750D01*
X137039000Y-94742000D01*
X136568188Y-94742000D01*
X136457799Y-94696162D01*
X136085833Y-94695838D01*
X135974112Y-94742000D01*
X134396305Y-94742000D01*
X134351463Y-94510877D01*
X134211673Y-94298073D01*
X134000640Y-94155623D01*
X133751000Y-94105560D01*
X131843125Y-94105560D01*
X131730117Y-93832057D01*
X131467327Y-93568808D01*
X131123799Y-93426162D01*
X130825532Y-93425902D01*
X130683000Y-93283369D01*
X130683000Y-92127466D01*
X130713192Y-92097327D01*
X130855838Y-91753799D01*
X130856162Y-91381833D01*
X130714117Y-91038057D01*
X130532813Y-90856436D01*
X130558500Y-90830750D01*
X130558500Y-90233500D01*
X130538500Y-90233500D01*
X130538500Y-90106500D01*
X130558500Y-90106500D01*
X130558500Y-90086500D01*
X130685500Y-90086500D01*
X130685500Y-90106500D01*
X130705500Y-90106500D01*
X130705500Y-90233500D01*
X130685500Y-90233500D01*
X130685500Y-90830750D01*
X130780750Y-90926000D01*
X131297786Y-90926000D01*
X131388171Y-90888561D01*
X131461327Y-90999927D01*
X131632911Y-91115748D01*
X131595560Y-91302000D01*
X131595560Y-93102000D01*
X131642537Y-93344123D01*
X131782327Y-93556927D01*
X131993360Y-93699377D01*
X132243000Y-93749440D01*
X133743000Y-93749440D01*
X133985123Y-93702463D01*
X134197927Y-93562673D01*
X134340377Y-93351640D01*
X134390440Y-93102000D01*
X134390440Y-91302000D01*
X134343463Y-91059877D01*
X134259461Y-90932000D01*
X134726867Y-90932000D01*
X134645623Y-91052360D01*
X134595560Y-91302000D01*
X134595560Y-93102000D01*
X134642537Y-93344123D01*
X134782327Y-93556927D01*
X134993360Y-93699377D01*
X135243000Y-93749440D01*
X136743000Y-93749440D01*
X136963401Y-93706677D01*
X137076390Y-93782946D01*
X137039000Y-93873214D01*
X137039000Y-94390250D01*
X137134250Y-94485500D01*
X137731500Y-94485500D01*
X137731500Y-94465500D01*
X137738201Y-94465500D01*
X137738201Y-94632500D01*
X137738201Y-94632500D01*
G37*
X137738201Y-94632500D02*
X137731500Y-94632500D01*
X137731500Y-94612500D01*
X137134250Y-94612500D01*
X137039000Y-94707750D01*
X137039000Y-94742000D01*
X136568188Y-94742000D01*
X136457799Y-94696162D01*
X136085833Y-94695838D01*
X135974112Y-94742000D01*
X134396305Y-94742000D01*
X134351463Y-94510877D01*
X134211673Y-94298073D01*
X134000640Y-94155623D01*
X133751000Y-94105560D01*
X131843125Y-94105560D01*
X131730117Y-93832057D01*
X131467327Y-93568808D01*
X131123799Y-93426162D01*
X130825532Y-93425902D01*
X130683000Y-93283369D01*
X130683000Y-92127466D01*
X130713192Y-92097327D01*
X130855838Y-91753799D01*
X130856162Y-91381833D01*
X130714117Y-91038057D01*
X130532813Y-90856436D01*
X130558500Y-90830750D01*
X130558500Y-90233500D01*
X130538500Y-90233500D01*
X130538500Y-90106500D01*
X130558500Y-90106500D01*
X130558500Y-90086500D01*
X130685500Y-90086500D01*
X130685500Y-90106500D01*
X130705500Y-90106500D01*
X130705500Y-90233500D01*
X130685500Y-90233500D01*
X130685500Y-90830750D01*
X130780750Y-90926000D01*
X131297786Y-90926000D01*
X131388171Y-90888561D01*
X131461327Y-90999927D01*
X131632911Y-91115748D01*
X131595560Y-91302000D01*
X131595560Y-93102000D01*
X131642537Y-93344123D01*
X131782327Y-93556927D01*
X131993360Y-93699377D01*
X132243000Y-93749440D01*
X133743000Y-93749440D01*
X133985123Y-93702463D01*
X134197927Y-93562673D01*
X134340377Y-93351640D01*
X134390440Y-93102000D01*
X134390440Y-91302000D01*
X134343463Y-91059877D01*
X134259461Y-90932000D01*
X134726867Y-90932000D01*
X134645623Y-91052360D01*
X134595560Y-91302000D01*
X134595560Y-93102000D01*
X134642537Y-93344123D01*
X134782327Y-93556927D01*
X134993360Y-93699377D01*
X135243000Y-93749440D01*
X136743000Y-93749440D01*
X136963401Y-93706677D01*
X137076390Y-93782946D01*
X137039000Y-93873214D01*
X137039000Y-94390250D01*
X137134250Y-94485500D01*
X137731500Y-94485500D01*
X137731500Y-94465500D01*
X137738201Y-94465500D01*
X137738201Y-94632500D01*
M02*
