M48
;DRILL file {KiCad 4.1.0-alpha+201605180746+6813~44~ubuntu16.04.1-product} date Thu May 19 20:41:19 2016
;FORMAT={-:-/ absolute / metric / decimal}
FMAT,2
METRIC,TZ
T1C0.400
T2C0.450
T3C0.500
T4C0.600
T5C1.016
T6C3.000
T7C0.650
T8C1.000
%
G90
G05
M71
T1
X120.55Y-78.711
X120.901Y-94.358
X121.793Y-100.076
X122.174Y-99.314
X123.19Y-94.361
X125.909Y-88.086
X125.92Y-80.518
X126.474Y-82.539
X127.035Y-86.761
X127.273Y-88.237
X127.278Y-87.482
X127.654Y-109.603
X127.846Y-88.684
X127.943Y-89.792
X127.989Y-84.636
X128.125Y-93.934
X128.741Y-89.958
X128.743Y-89.956
X129.022Y-97.363
X129.038Y-88.965
X129.135Y-91.184
X129.159Y-85.725
X129.184Y-87.342
X129.862Y-86.424
X130.354Y-86.959
X130.404Y-94.102
X130.937Y-83.312
X131.081Y-86.992
X131.369Y-74.981
X131.587Y-86.419
X131.68Y-101.078
X131.974Y-89.24
X132.08Y-93.345
X132.177Y-100.52
X132.189Y-74.912
X132.274Y-78.938
X132.813Y-85.485
X132.893Y-83.416
X132.994Y-74.854
X133.253Y-81.628
X133.655Y-65.977
X133.807Y-74.727
X133.985Y-77.953
X134.102Y-96.947
X134.759Y-78.029
X134.917Y-95.573
X135.033Y-90.639
X135.23Y-99.939
X135.433Y-74.371
X135.603Y-99.315
X135.636Y-93.345
X136.066Y-85.984
X136.154Y-90.622
X136.364Y-94.951
X136.398Y-83.439
X136.639Y-99.123
X137.16Y-72.681
X137.419Y-95.697
X137.491Y-79.96
X138.206Y-87.918
X138.734Y-91.492
X138.849Y-76.837
X139.304Y-102.53
X139.393Y-77.343
X139.538Y-91.492
X139.7Y-85.852
X139.748Y-76.16
X139.941Y-68.237
X139.957Y-87.867
X139.974Y-96.09
X140.208Y-86.487
X140.394Y-75.827
X140.839Y-87.503
X140.934Y-91.706
X140.995Y-76.454
X141.732Y-76.454
X141.737Y-83.053
X141.776Y-77.302
X141.884Y-96.39
X142.03Y-94.47
X142.367Y-83.566
X142.376Y-92.503
X142.654Y-88.155
X142.84Y-76.66
X142.881Y-84.08
X142.954Y-92.062
X143.068Y-104.978
X143.155Y-80.078
X143.394Y-75.93
X143.395Y-84.594
X143.521Y-86.244
X143.764Y-76.81
X143.798Y-94.344
X143.851Y-79.869
X143.891Y-91.506
X144.244Y-86.313
X144.485Y-106.055
X144.528Y-85.18
X144.635Y-84.255
X144.738Y-87.382
X144.78Y-82.804
X144.816Y-83.551
X144.942Y-78.648
X145.012Y-91.544
X145.136Y-84.782
X145.171Y-93.106
X145.313Y-94.056
X145.72Y-102.489
X145.786Y-90.2
X145.993Y-108.449
X146.812Y-77.597
X147.127Y-89.459
X147.523Y-105.156
X147.726Y-68.834
X147.909Y-87.244
X147.977Y-88.905
X148.097Y-95.664
X148.234Y-80.543
X148.835Y-81.566
X148.934Y-76.843
X149.403Y-84.226
X149.408Y-80.772
X149.618Y-87.173
X149.962Y-81.331
X149.977Y-102.682
X150.101Y-84.695
X150.19Y-93.391
X150.746Y-84.099
X150.942Y-87.558
X151.054Y-86.208
X151.818Y-100.859
X151.956Y-106.68
X152.7Y-93.289
X154.Y-90.576
X154.389Y-107.421
X154.94Y-93.777
X154.94Y-98.938
X155.194Y-103.886
X155.27Y-89.764
X156.134Y-85.006
X157.14Y-89.244
X157.178Y-90.352
X157.327Y-95.05
X157.865Y-89.116
X158.61Y-88.506
X159.664Y-97.841
X163.322Y-102.997
X163.449Y-89.662
T3
X128.168Y-73.
X135.865Y-79.114
T4
X133.897Y-76.944
X136.902Y-74.422
X139.421Y-74.422
X140.183Y-73.609
X144.272Y-72.581
X152.092Y-98.282
T5
X121.92Y-74.93
X121.92Y-77.47
X121.92Y-80.01
X121.92Y-82.55
X121.92Y-85.09
X121.92Y-87.63
X121.92Y-90.17
X121.92Y-92.71
X121.92Y-95.25
X121.92Y-97.79
X124.46Y-74.93
X124.46Y-77.47
X124.46Y-80.01
X124.46Y-82.55
X124.46Y-85.09
X124.46Y-87.63
X124.46Y-90.17
X124.46Y-92.71
X124.46Y-95.25
X124.46Y-97.79
X126.746Y-103.378
X126.746Y-105.918
X127.127Y-65.786
X127.127Y-68.326
X128.435Y-76.505
X128.435Y-79.045
X129.286Y-103.378
X129.286Y-105.918
X131.826Y-103.378
X131.826Y-105.918
X134.366Y-103.378
X134.366Y-105.918
X146.888Y-71.272
X146.888Y-73.812
X148.742Y-91.008
X148.742Y-93.548
X150.622Y-107.95
X150.622Y-110.49
X153.162Y-107.95
X153.162Y-110.49
X155.702Y-107.95
X155.702Y-110.49
X158.242Y-107.95
X158.242Y-110.49
X160.782Y-107.95
X160.782Y-110.49
T6
X122.209Y-67.218
X122.209Y-109.656
X164.711Y-67.318
X164.711Y-109.656
T7
X139.853Y-66.92
X143.853Y-66.92
T8
X163.982Y-93.216
X163.982Y-101.196
T2
X138.278Y-65.195G85X138.278Y-64.395
G05
X138.278Y-68.645G85X138.278Y-67.845
G05
X145.428Y-65.195G85X145.428Y-64.395
G05
X145.428Y-68.645G85X145.428Y-67.845
G05
T0
M30
