G04 #@! TF.FileFunction,Soldermask,Top*
%FSLAX46Y46*%
G04 Gerber Fmt 4.6, Leading zero omitted, Abs format (unit mm)*
G04 Created by KiCad (PCBNEW 4.1.0-alpha+201606061201+6885~45~ubuntu16.04.1-product) date Tue Jun  7 19:16:38 2016*
%MOMM*%
%LPD*%
G01*
G04 APERTURE LIST*
%ADD10C,0.100000*%
%ADD11R,1.200000X0.750000*%
%ADD12R,0.900000X1.200000*%
%ADD13R,1.500000X1.400000*%
%ADD14R,1.000000X1.150000*%
%ADD15R,2.032000X2.032000*%
%ADD16O,2.032000X2.032000*%
%ADD17R,0.797560X0.797560*%
%ADD18R,0.650000X1.060000*%
%ADD19R,1.200000X0.900000*%
%ADD20R,0.800100X0.800100*%
%ADD21R,3.657600X2.032000*%
%ADD22R,1.016000X2.032000*%
%ADD23O,1.727200X1.727200*%
%ADD24R,1.727200X1.727200*%
%ADD25R,0.750000X1.200000*%
%ADD26R,0.300000X1.500000*%
%ADD27R,1.500000X0.300000*%
%ADD28R,0.740000X2.400000*%
%ADD29R,1.500000X1.800000*%
%ADD30R,0.400000X1.700000*%
%ADD31O,1.050000X1.850000*%
%ADD32C,0.650000*%
%ADD33R,1.600000X0.700000*%
%ADD34C,1.000000*%
%ADD35R,2.200000X1.200000*%
%ADD36R,1.400000X1.200000*%
%ADD37R,1.400000X1.600000*%
G04 APERTURE END LIST*
D10*
D11*
X142372000Y-73279000D03*
X144272000Y-73279000D03*
D12*
X121279920Y-101815720D03*
X121279920Y-104015720D03*
X123383040Y-101815720D03*
X123383040Y-104015720D03*
D13*
X145391800Y-109626400D03*
X137591800Y-109626400D03*
D14*
X143341800Y-111701400D03*
X139641800Y-107551400D03*
D15*
X148742400Y-93548200D03*
D16*
X148742400Y-91008200D03*
D17*
X131356100Y-67462400D03*
X131356100Y-65963800D03*
X136004300Y-67449700D03*
X136004300Y-65951100D03*
D12*
X130987800Y-70748800D03*
X130987800Y-72948800D03*
D18*
X131348400Y-78120600D03*
X132298400Y-78120600D03*
X133248400Y-78120600D03*
X133248400Y-75920600D03*
X131348400Y-75920600D03*
D19*
X138844200Y-96860360D03*
X136644200Y-96860360D03*
D11*
X147375960Y-106080560D03*
X145475960Y-106080560D03*
D20*
X153837600Y-87005160D03*
X155737600Y-87005160D03*
X154787600Y-85006180D03*
D21*
X146354800Y-97307400D03*
D22*
X146354800Y-103911400D03*
X148640800Y-103911400D03*
X144068800Y-103911400D03*
D23*
X124460000Y-97790000D03*
X121920000Y-97790000D03*
X124460000Y-95250000D03*
X121920000Y-95250000D03*
X124460000Y-92710000D03*
X121920000Y-92710000D03*
X124460000Y-90170000D03*
X121920000Y-90170000D03*
X124460000Y-87630000D03*
X121920000Y-87630000D03*
X124460000Y-85090000D03*
X121920000Y-85090000D03*
D24*
X121920000Y-74930000D03*
D23*
X124460000Y-74930000D03*
X121920000Y-77470000D03*
X124460000Y-77470000D03*
X121920000Y-80010000D03*
X124460000Y-80010000D03*
X121920000Y-82550000D03*
X124460000Y-82550000D03*
D25*
X128193800Y-92882800D03*
X128193800Y-90982800D03*
D17*
X129832100Y-67449700D03*
X129832100Y-65951100D03*
D25*
X157251400Y-86903600D03*
X157251400Y-85003600D03*
D11*
X132461000Y-84239100D03*
X130561000Y-84239100D03*
X136855200Y-76911200D03*
X134955200Y-76911200D03*
D25*
X148717000Y-86106000D03*
X148717000Y-84206000D03*
X140233400Y-92684600D03*
X140233400Y-94584600D03*
X147929600Y-110032800D03*
X147929600Y-108132800D03*
X136906000Y-105090000D03*
X136906000Y-103190000D03*
X151282400Y-99385200D03*
X151282400Y-97485200D03*
X150835360Y-105008720D03*
X150835360Y-103108720D03*
D11*
X144267000Y-71818500D03*
X142367000Y-71818500D03*
X141203720Y-101762560D03*
X139303720Y-101762560D03*
D19*
X144292500Y-70294500D03*
X142092500Y-70294500D03*
D12*
X152247600Y-87790200D03*
X152247600Y-85590200D03*
X129336800Y-70748800D03*
X129336800Y-72948800D03*
D11*
X130548300Y-82473800D03*
X132448300Y-82473800D03*
X141203720Y-103306880D03*
X139303720Y-103306880D03*
D25*
X132638800Y-92136000D03*
X132638800Y-90236000D03*
D11*
X135600400Y-94107000D03*
X137500400Y-94107000D03*
X138678960Y-98430080D03*
X136778960Y-98430080D03*
D26*
X136839000Y-90028000D03*
X137339000Y-90028000D03*
X137839000Y-90028000D03*
X138339000Y-90028000D03*
X138839000Y-90028000D03*
X139339000Y-90028000D03*
X139839000Y-90028000D03*
X140339000Y-90028000D03*
X140839000Y-90028000D03*
X141339000Y-90028000D03*
X141839000Y-90028000D03*
X142339000Y-90028000D03*
X142839000Y-90028000D03*
X143339000Y-90028000D03*
X143839000Y-90028000D03*
X144339000Y-90028000D03*
D27*
X146289000Y-88078000D03*
X146289000Y-87578000D03*
X146289000Y-87078000D03*
X146289000Y-86578000D03*
X146289000Y-86078000D03*
X146289000Y-85578000D03*
X146289000Y-85078000D03*
X146289000Y-84578000D03*
X146289000Y-84078000D03*
X146289000Y-83578000D03*
X146289000Y-83078000D03*
X146289000Y-82578000D03*
X146289000Y-82078000D03*
X146289000Y-81578000D03*
X146289000Y-81078000D03*
X146289000Y-80578000D03*
D26*
X144339000Y-78628000D03*
X143839000Y-78628000D03*
X143339000Y-78628000D03*
X142839000Y-78628000D03*
X142339000Y-78628000D03*
X141839000Y-78628000D03*
X141339000Y-78628000D03*
X140839000Y-78628000D03*
X140339000Y-78628000D03*
X139839000Y-78628000D03*
X139339000Y-78628000D03*
X138839000Y-78628000D03*
X138339000Y-78628000D03*
X137839000Y-78628000D03*
X137339000Y-78628000D03*
X136839000Y-78628000D03*
D27*
X134889000Y-80578000D03*
X134889000Y-81078000D03*
X134889000Y-81578000D03*
X134889000Y-82078000D03*
X134889000Y-82578000D03*
X134889000Y-83078000D03*
X134889000Y-83578000D03*
X134889000Y-84078000D03*
X134889000Y-84578000D03*
X134889000Y-85078000D03*
X134889000Y-85578000D03*
X134889000Y-86078000D03*
X134889000Y-86578000D03*
X134889000Y-87078000D03*
X134889000Y-87578000D03*
X134889000Y-88078000D03*
D17*
X132905500Y-67449700D03*
X132905500Y-65951100D03*
D12*
X132638800Y-70748800D03*
X132638800Y-72948800D03*
D11*
X145252400Y-76911200D03*
X147152400Y-76911200D03*
D25*
X128143000Y-108524000D03*
X128143000Y-110424000D03*
D12*
X129794000Y-110701000D03*
X129794000Y-108501000D03*
X131445000Y-108501000D03*
X131445000Y-110701000D03*
D17*
X134454900Y-67449700D03*
X134454900Y-65951100D03*
D12*
X134289800Y-70748800D03*
X134289800Y-72948800D03*
X147726400Y-67902000D03*
X147726400Y-65702000D03*
D28*
X134086600Y-95072200D03*
X134086600Y-98972200D03*
X132816600Y-95072200D03*
X132816600Y-98972200D03*
X131546600Y-95072200D03*
X131546600Y-98972200D03*
X130276600Y-98972200D03*
X129006600Y-95072200D03*
X129006600Y-98972200D03*
D29*
X137223500Y-92062300D03*
X134223500Y-92062300D03*
D30*
X141852600Y-67895400D03*
X141202600Y-67895400D03*
X142502600Y-67895400D03*
D10*
G36*
X143352600Y-67045400D02*
X143352600Y-68745400D01*
X142952600Y-68745400D01*
X142952600Y-67045400D01*
X143352600Y-67045400D01*
X143352600Y-67045400D01*
G37*
D30*
X140552600Y-67895400D03*
D31*
X145427600Y-64795400D03*
X138277600Y-64795400D03*
X145427600Y-68245400D03*
X138277600Y-68245400D03*
D32*
X143852600Y-66920400D03*
X139852600Y-66920400D03*
D20*
X146238000Y-93301820D03*
X144338000Y-93301820D03*
X145288000Y-95300800D03*
D12*
X135991600Y-70748800D03*
X135991600Y-72948800D03*
D24*
X128435100Y-76504800D03*
D23*
X128435100Y-79044800D03*
D15*
X146888200Y-71196200D03*
D16*
X146888200Y-73736200D03*
D33*
X153482400Y-94066000D03*
X153482400Y-95166000D03*
X153482400Y-96266000D03*
X153482400Y-97366000D03*
X153482400Y-98466000D03*
X153482400Y-99566000D03*
X153482400Y-100666000D03*
X153482400Y-101766000D03*
X153482400Y-102866000D03*
D34*
X163982400Y-93216000D03*
X163982400Y-101196000D03*
D35*
X163582400Y-88516000D03*
D36*
X153982400Y-104016000D03*
D37*
X153982400Y-89416000D03*
D35*
X163582400Y-104016000D03*
D15*
X127127000Y-65786000D03*
D16*
X127127000Y-68326000D03*
D24*
X150622000Y-107950000D03*
D23*
X150622000Y-110490000D03*
X153162000Y-107950000D03*
X153162000Y-110490000D03*
X155702000Y-107950000D03*
X155702000Y-110490000D03*
X158242000Y-107950000D03*
X158242000Y-110490000D03*
X160782000Y-107950000D03*
X160782000Y-110490000D03*
X126746000Y-103378000D03*
X126746000Y-105918000D03*
X129286000Y-103378000D03*
X129286000Y-105918000D03*
X131826000Y-103378000D03*
X131826000Y-105918000D03*
D24*
X134366000Y-103378000D03*
D23*
X134366000Y-105918000D03*
D11*
X138572200Y-105232200D03*
X140472200Y-105232200D03*
D25*
X129755900Y-92885300D03*
X129755900Y-90985300D03*
M02*
