G04 #@! TF.FileFunction,Soldermask,Bot*
%FSLAX46Y46*%
G04 Gerber Fmt 4.6, Leading zero omitted, Abs format (unit mm)*
G04 Created by KiCad (PCBNEW 4.1.0-alpha+201606061201+6885~45~ubuntu16.04.1-product) date Tue Jun  7 19:16:38 2016*
%MOMM*%
%LPD*%
G01*
G04 APERTURE LIST*
%ADD10C,0.100000*%
%ADD11R,1.200000X2.200000*%
%ADD12R,2.032000X2.032000*%
%ADD13O,2.032000X2.032000*%
%ADD14O,1.727200X1.727200*%
%ADD15R,1.727200X1.727200*%
%ADD16O,1.050000X1.850000*%
%ADD17C,0.650000*%
%ADD18R,1.524000X0.635000*%
%ADD19O,1.524000X1.270000*%
%ADD20C,1.524000*%
%ADD21C,1.000000*%
G04 APERTURE END LIST*
D10*
D11*
X142399000Y-89773000D03*
X130399000Y-89773000D03*
X130399000Y-70873000D03*
X132399000Y-70873000D03*
X134399000Y-70873000D03*
X136399000Y-70873000D03*
X138399000Y-70873000D03*
X140399000Y-70873000D03*
X142399000Y-70873000D03*
D12*
X148742400Y-93548200D03*
D13*
X148742400Y-91008200D03*
D14*
X124460000Y-97790000D03*
X121920000Y-97790000D03*
X124460000Y-95250000D03*
X121920000Y-95250000D03*
X124460000Y-92710000D03*
X121920000Y-92710000D03*
X124460000Y-90170000D03*
X121920000Y-90170000D03*
X124460000Y-87630000D03*
X121920000Y-87630000D03*
X124460000Y-85090000D03*
X121920000Y-85090000D03*
D15*
X121920000Y-74930000D03*
D14*
X124460000Y-74930000D03*
X121920000Y-77470000D03*
X124460000Y-77470000D03*
X121920000Y-80010000D03*
X124460000Y-80010000D03*
X121920000Y-82550000D03*
X124460000Y-82550000D03*
D16*
X145427600Y-64795400D03*
X138277600Y-64795400D03*
X145427600Y-68245400D03*
X138277600Y-68245400D03*
D17*
X143852600Y-66920400D03*
X139852600Y-66920400D03*
D18*
X153314400Y-80098900D03*
X153314400Y-79209900D03*
D19*
X153314400Y-80416400D03*
X153314400Y-78892400D03*
D18*
X155854400Y-80098900D03*
X155854400Y-79209900D03*
D19*
X155854400Y-80416400D03*
X155854400Y-78892400D03*
D18*
X150774400Y-80098900D03*
X150774400Y-79209900D03*
D19*
X150774400Y-80416400D03*
X150774400Y-78892400D03*
D18*
X148234400Y-80098900D03*
X148234400Y-79209900D03*
D19*
X148234400Y-80416400D03*
X148234400Y-78892400D03*
D20*
X130434080Y-95234760D03*
D15*
X128435100Y-76504800D03*
D14*
X128435100Y-79044800D03*
D20*
X127894080Y-97769680D03*
X130434080Y-100309680D03*
X130434080Y-97769680D03*
X132974080Y-97769680D03*
D12*
X146888200Y-71196200D03*
D13*
X146888200Y-73736200D03*
D21*
X163982400Y-93216000D03*
X163982400Y-101196000D03*
D12*
X127127000Y-65786000D03*
D13*
X127127000Y-68326000D03*
D15*
X150622000Y-107950000D03*
D14*
X150622000Y-110490000D03*
X153162000Y-107950000D03*
X153162000Y-110490000D03*
X155702000Y-107950000D03*
X155702000Y-110490000D03*
X158242000Y-107950000D03*
X158242000Y-110490000D03*
X160782000Y-107950000D03*
X160782000Y-110490000D03*
X126746000Y-103378000D03*
X126746000Y-105918000D03*
X129286000Y-103378000D03*
X129286000Y-105918000D03*
X131826000Y-103378000D03*
X131826000Y-105918000D03*
D15*
X134366000Y-103378000D03*
D14*
X134366000Y-105918000D03*
M02*
