G04 #@! TF.FileFunction,Legend,Bot*
%FSLAX46Y46*%
G04 Gerber Fmt 4.6, Leading zero omitted, Abs format (unit mm)*
G04 Created by KiCad (PCBNEW (2015-05-09 BZR 5648)-product) date tir 28 jul 2015 23:38:07 CEST*
%MOMM*%
G01*
G04 APERTURE LIST*
%ADD10C,0.100000*%
%ADD11C,0.300000*%
%ADD12C,0.160000*%
%ADD13C,0.150000*%
%ADD14O,1.050000X1.850000*%
%ADD15C,0.650000*%
%ADD16R,1.200000X2.200000*%
%ADD17O,1.727200X1.727200*%
%ADD18R,1.727200X1.727200*%
%ADD19R,2.235200X2.235200*%
%ADD20R,2.400000X0.740000*%
%ADD21O,1.224000X1.524000*%
G04 APERTURE END LIST*
D10*
D11*
X160903514Y-66337571D02*
X161403514Y-65623286D01*
X161760657Y-66337571D02*
X161760657Y-64837571D01*
X161189229Y-64837571D01*
X161046371Y-64909000D01*
X160974943Y-64980429D01*
X160903514Y-65123286D01*
X160903514Y-65337571D01*
X160974943Y-65480429D01*
X161046371Y-65551857D01*
X161189229Y-65623286D01*
X161760657Y-65623286D01*
X159689229Y-66266143D02*
X159832086Y-66337571D01*
X160117800Y-66337571D01*
X160260657Y-66266143D01*
X160332086Y-66123286D01*
X160332086Y-65551857D01*
X160260657Y-65409000D01*
X160117800Y-65337571D01*
X159832086Y-65337571D01*
X159689229Y-65409000D01*
X159617800Y-65551857D01*
X159617800Y-65694714D01*
X160332086Y-65837571D01*
X159117800Y-65337571D02*
X158760657Y-66337571D01*
X158403515Y-65337571D01*
X157832086Y-66337571D02*
X157832086Y-65337571D01*
X157832086Y-64837571D02*
X157903515Y-64909000D01*
X157832086Y-64980429D01*
X157760658Y-64909000D01*
X157832086Y-64837571D01*
X157832086Y-64980429D01*
X157189229Y-66266143D02*
X157046372Y-66337571D01*
X156760657Y-66337571D01*
X156617800Y-66266143D01*
X156546372Y-66123286D01*
X156546372Y-66051857D01*
X156617800Y-65909000D01*
X156760657Y-65837571D01*
X156974943Y-65837571D01*
X157117800Y-65766143D01*
X157189229Y-65623286D01*
X157189229Y-65551857D01*
X157117800Y-65409000D01*
X156974943Y-65337571D01*
X156760657Y-65337571D01*
X156617800Y-65409000D01*
X155903514Y-66337571D02*
X155903514Y-65337571D01*
X155903514Y-64837571D02*
X155974943Y-64909000D01*
X155903514Y-64980429D01*
X155832086Y-64909000D01*
X155903514Y-64837571D01*
X155903514Y-64980429D01*
X154974942Y-66337571D02*
X155117800Y-66266143D01*
X155189228Y-66194714D01*
X155260657Y-66051857D01*
X155260657Y-65623286D01*
X155189228Y-65480429D01*
X155117800Y-65409000D01*
X154974942Y-65337571D01*
X154760657Y-65337571D01*
X154617800Y-65409000D01*
X154546371Y-65480429D01*
X154474942Y-65623286D01*
X154474942Y-66051857D01*
X154546371Y-66194714D01*
X154617800Y-66266143D01*
X154760657Y-66337571D01*
X154974942Y-66337571D01*
X153832085Y-65337571D02*
X153832085Y-66337571D01*
X153832085Y-65480429D02*
X153760657Y-65409000D01*
X153617799Y-65337571D01*
X153403514Y-65337571D01*
X153260657Y-65409000D01*
X153189228Y-65551857D01*
X153189228Y-66337571D01*
X151046371Y-64837571D02*
X150903514Y-64837571D01*
X150760657Y-64909000D01*
X150689228Y-64980429D01*
X150617799Y-65123286D01*
X150546371Y-65409000D01*
X150546371Y-65766143D01*
X150617799Y-66051857D01*
X150689228Y-66194714D01*
X150760657Y-66266143D01*
X150903514Y-66337571D01*
X151046371Y-66337571D01*
X151189228Y-66266143D01*
X151260657Y-66194714D01*
X151332085Y-66051857D01*
X151403514Y-65766143D01*
X151403514Y-65409000D01*
X151332085Y-65123286D01*
X151260657Y-64980429D01*
X151189228Y-64909000D01*
X151046371Y-64837571D01*
X149903514Y-66194714D02*
X149832086Y-66266143D01*
X149903514Y-66337571D01*
X149974943Y-66266143D01*
X149903514Y-66194714D01*
X149903514Y-66337571D01*
X148474942Y-64837571D02*
X149189228Y-64837571D01*
X149260657Y-65551857D01*
X149189228Y-65480429D01*
X149046371Y-65409000D01*
X148689228Y-65409000D01*
X148546371Y-65480429D01*
X148474942Y-65551857D01*
X148403514Y-65694714D01*
X148403514Y-66051857D01*
X148474942Y-66194714D01*
X148546371Y-66266143D01*
X148689228Y-66337571D01*
X149046371Y-66337571D01*
X149189228Y-66266143D01*
X149260657Y-66194714D01*
X156438171Y-72163943D02*
X154938171Y-72163943D01*
X156009600Y-72663943D01*
X154938171Y-73163943D01*
X156438171Y-73163943D01*
X155438171Y-73735372D02*
X156438171Y-74092515D01*
X155438171Y-74449657D02*
X156438171Y-74092515D01*
X156795314Y-73949657D01*
X156866743Y-73878229D01*
X156938171Y-73735372D01*
X156366743Y-74949657D02*
X156438171Y-75163943D01*
X156438171Y-75521086D01*
X156366743Y-75663943D01*
X156295314Y-75735372D01*
X156152457Y-75806800D01*
X156009600Y-75806800D01*
X155866743Y-75735372D01*
X155795314Y-75663943D01*
X155723886Y-75521086D01*
X155652457Y-75235372D01*
X155581029Y-75092514D01*
X155509600Y-75021086D01*
X155366743Y-74949657D01*
X155223886Y-74949657D01*
X155081029Y-75021086D01*
X155009600Y-75092514D01*
X154938171Y-75235372D01*
X154938171Y-75592514D01*
X155009600Y-75806800D01*
X156366743Y-77021085D02*
X156438171Y-76878228D01*
X156438171Y-76592514D01*
X156366743Y-76449657D01*
X156223886Y-76378228D01*
X155652457Y-76378228D01*
X155509600Y-76449657D01*
X155438171Y-76592514D01*
X155438171Y-76878228D01*
X155509600Y-77021085D01*
X155652457Y-77092514D01*
X155795314Y-77092514D01*
X155938171Y-76378228D01*
X155438171Y-77735371D02*
X156438171Y-77735371D01*
X155581029Y-77735371D02*
X155509600Y-77806799D01*
X155438171Y-77949657D01*
X155438171Y-78163942D01*
X155509600Y-78306799D01*
X155652457Y-78378228D01*
X156438171Y-78378228D01*
X156366743Y-79021085D02*
X156438171Y-79163942D01*
X156438171Y-79449657D01*
X156366743Y-79592514D01*
X156223886Y-79663942D01*
X156152457Y-79663942D01*
X156009600Y-79592514D01*
X155938171Y-79449657D01*
X155938171Y-79235371D01*
X155866743Y-79092514D01*
X155723886Y-79021085D01*
X155652457Y-79021085D01*
X155509600Y-79092514D01*
X155438171Y-79235371D01*
X155438171Y-79449657D01*
X155509600Y-79592514D01*
X156438171Y-80521086D02*
X156366743Y-80378228D01*
X156295314Y-80306800D01*
X156152457Y-80235371D01*
X155723886Y-80235371D01*
X155581029Y-80306800D01*
X155509600Y-80378228D01*
X155438171Y-80521086D01*
X155438171Y-80735371D01*
X155509600Y-80878228D01*
X155581029Y-80949657D01*
X155723886Y-81021086D01*
X156152457Y-81021086D01*
X156295314Y-80949657D01*
X156366743Y-80878228D01*
X156438171Y-80735371D01*
X156438171Y-80521086D01*
X156438171Y-81663943D02*
X155438171Y-81663943D01*
X155723886Y-81663943D02*
X155581029Y-81735371D01*
X155509600Y-81806800D01*
X155438171Y-81949657D01*
X155438171Y-82092514D01*
X156366743Y-82521085D02*
X156438171Y-82663942D01*
X156438171Y-82949657D01*
X156366743Y-83092514D01*
X156223886Y-83163942D01*
X156152457Y-83163942D01*
X156009600Y-83092514D01*
X155938171Y-82949657D01*
X155938171Y-82735371D01*
X155866743Y-82592514D01*
X155723886Y-82521085D01*
X155652457Y-82521085D01*
X155509600Y-82592514D01*
X155438171Y-82735371D01*
X155438171Y-82949657D01*
X155509600Y-83092514D01*
X155009600Y-85735371D02*
X154938171Y-85592514D01*
X154938171Y-85378228D01*
X155009600Y-85163943D01*
X155152457Y-85021085D01*
X155295314Y-84949657D01*
X155581029Y-84878228D01*
X155795314Y-84878228D01*
X156081029Y-84949657D01*
X156223886Y-85021085D01*
X156366743Y-85163943D01*
X156438171Y-85378228D01*
X156438171Y-85521085D01*
X156366743Y-85735371D01*
X156295314Y-85806800D01*
X155795314Y-85806800D01*
X155795314Y-85521085D01*
X154938171Y-86306800D02*
X156438171Y-86663943D01*
X155366743Y-86949657D01*
X156438171Y-87235371D01*
X154938171Y-87592514D01*
X158838171Y-70021086D02*
X157338171Y-70021086D01*
X158766743Y-70021086D02*
X158838171Y-69878229D01*
X158838171Y-69592515D01*
X158766743Y-69449657D01*
X158695314Y-69378229D01*
X158552457Y-69306800D01*
X158123886Y-69306800D01*
X157981029Y-69378229D01*
X157909600Y-69449657D01*
X157838171Y-69592515D01*
X157838171Y-69878229D01*
X157909600Y-70021086D01*
X158766743Y-71306800D02*
X158838171Y-71163943D01*
X158838171Y-70878229D01*
X158766743Y-70735372D01*
X158623886Y-70663943D01*
X158052457Y-70663943D01*
X157909600Y-70735372D01*
X157838171Y-70878229D01*
X157838171Y-71163943D01*
X157909600Y-71306800D01*
X158052457Y-71378229D01*
X158195314Y-71378229D01*
X158338171Y-70663943D01*
X157838171Y-71878229D02*
X158838171Y-72235372D01*
X157838171Y-72592514D01*
X158766743Y-73735371D02*
X158838171Y-73592514D01*
X158838171Y-73306800D01*
X158766743Y-73163943D01*
X158623886Y-73092514D01*
X158052457Y-73092514D01*
X157909600Y-73163943D01*
X157838171Y-73306800D01*
X157838171Y-73592514D01*
X157909600Y-73735371D01*
X158052457Y-73806800D01*
X158195314Y-73806800D01*
X158338171Y-73092514D01*
X158838171Y-74663943D02*
X158766743Y-74521085D01*
X158623886Y-74449657D01*
X157338171Y-74449657D01*
X158838171Y-75449657D02*
X158766743Y-75306799D01*
X158695314Y-75235371D01*
X158552457Y-75163942D01*
X158123886Y-75163942D01*
X157981029Y-75235371D01*
X157909600Y-75306799D01*
X157838171Y-75449657D01*
X157838171Y-75663942D01*
X157909600Y-75806799D01*
X157981029Y-75878228D01*
X158123886Y-75949657D01*
X158552457Y-75949657D01*
X158695314Y-75878228D01*
X158766743Y-75806799D01*
X158838171Y-75663942D01*
X158838171Y-75449657D01*
X157838171Y-76592514D02*
X159338171Y-76592514D01*
X157909600Y-76592514D02*
X157838171Y-76735371D01*
X157838171Y-77021085D01*
X157909600Y-77163942D01*
X157981029Y-77235371D01*
X158123886Y-77306800D01*
X158552457Y-77306800D01*
X158695314Y-77235371D01*
X158766743Y-77163942D01*
X158838171Y-77021085D01*
X158838171Y-76735371D01*
X158766743Y-76592514D01*
X158838171Y-77949657D02*
X157838171Y-77949657D01*
X157981029Y-77949657D02*
X157909600Y-78021085D01*
X157838171Y-78163943D01*
X157838171Y-78378228D01*
X157909600Y-78521085D01*
X158052457Y-78592514D01*
X158838171Y-78592514D01*
X158052457Y-78592514D02*
X157909600Y-78663943D01*
X157838171Y-78806800D01*
X157838171Y-79021085D01*
X157909600Y-79163943D01*
X158052457Y-79235371D01*
X158838171Y-79235371D01*
X158766743Y-80521085D02*
X158838171Y-80378228D01*
X158838171Y-80092514D01*
X158766743Y-79949657D01*
X158623886Y-79878228D01*
X158052457Y-79878228D01*
X157909600Y-79949657D01*
X157838171Y-80092514D01*
X157838171Y-80378228D01*
X157909600Y-80521085D01*
X158052457Y-80592514D01*
X158195314Y-80592514D01*
X158338171Y-79878228D01*
X157838171Y-81235371D02*
X158838171Y-81235371D01*
X157981029Y-81235371D02*
X157909600Y-81306799D01*
X157838171Y-81449657D01*
X157838171Y-81663942D01*
X157909600Y-81806799D01*
X158052457Y-81878228D01*
X158838171Y-81878228D01*
X157838171Y-82378228D02*
X157838171Y-82949657D01*
X157338171Y-82592514D02*
X158623886Y-82592514D01*
X158766743Y-82663942D01*
X158838171Y-82806800D01*
X158838171Y-82949657D01*
X158838171Y-84592514D02*
X157338171Y-84592514D01*
X157909600Y-84592514D02*
X157838171Y-84735371D01*
X157838171Y-85021085D01*
X157909600Y-85163942D01*
X157981029Y-85235371D01*
X158123886Y-85306800D01*
X158552457Y-85306800D01*
X158695314Y-85235371D01*
X158766743Y-85163942D01*
X158838171Y-85021085D01*
X158838171Y-84735371D01*
X158766743Y-84592514D01*
X158838171Y-86163943D02*
X158766743Y-86021085D01*
X158695314Y-85949657D01*
X158552457Y-85878228D01*
X158123886Y-85878228D01*
X157981029Y-85949657D01*
X157909600Y-86021085D01*
X157838171Y-86163943D01*
X157838171Y-86378228D01*
X157909600Y-86521085D01*
X157981029Y-86592514D01*
X158123886Y-86663943D01*
X158552457Y-86663943D01*
X158695314Y-86592514D01*
X158766743Y-86521085D01*
X158838171Y-86378228D01*
X158838171Y-86163943D01*
X158838171Y-87949657D02*
X158052457Y-87949657D01*
X157909600Y-87878228D01*
X157838171Y-87735371D01*
X157838171Y-87449657D01*
X157909600Y-87306800D01*
X158766743Y-87949657D02*
X158838171Y-87806800D01*
X158838171Y-87449657D01*
X158766743Y-87306800D01*
X158623886Y-87235371D01*
X158481029Y-87235371D01*
X158338171Y-87306800D01*
X158266743Y-87449657D01*
X158266743Y-87806800D01*
X158195314Y-87949657D01*
X158838171Y-88663943D02*
X157838171Y-88663943D01*
X158123886Y-88663943D02*
X157981029Y-88735371D01*
X157909600Y-88806800D01*
X157838171Y-88949657D01*
X157838171Y-89092514D01*
X158838171Y-90235371D02*
X157338171Y-90235371D01*
X158766743Y-90235371D02*
X158838171Y-90092514D01*
X158838171Y-89806800D01*
X158766743Y-89663942D01*
X158695314Y-89592514D01*
X158552457Y-89521085D01*
X158123886Y-89521085D01*
X157981029Y-89592514D01*
X157909600Y-89663942D01*
X157838171Y-89806800D01*
X157838171Y-90092514D01*
X157909600Y-90235371D01*
X163638171Y-67985371D02*
X162138171Y-67985371D01*
X163638171Y-68628228D02*
X162852457Y-68628228D01*
X162709600Y-68556799D01*
X162638171Y-68413942D01*
X162638171Y-68199657D01*
X162709600Y-68056799D01*
X162781029Y-67985371D01*
X162638171Y-69128228D02*
X162638171Y-69699657D01*
X162138171Y-69342514D02*
X163423886Y-69342514D01*
X163566743Y-69413942D01*
X163638171Y-69556800D01*
X163638171Y-69699657D01*
X162638171Y-69985371D02*
X162638171Y-70556800D01*
X162138171Y-70199657D02*
X163423886Y-70199657D01*
X163566743Y-70271085D01*
X163638171Y-70413943D01*
X163638171Y-70556800D01*
X162638171Y-71056800D02*
X164138171Y-71056800D01*
X162709600Y-71056800D02*
X162638171Y-71199657D01*
X162638171Y-71485371D01*
X162709600Y-71628228D01*
X162781029Y-71699657D01*
X162923886Y-71771086D01*
X163352457Y-71771086D01*
X163495314Y-71699657D01*
X163566743Y-71628228D01*
X163638171Y-71485371D01*
X163638171Y-71199657D01*
X163566743Y-71056800D01*
X163495314Y-72413943D02*
X163566743Y-72485371D01*
X163638171Y-72413943D01*
X163566743Y-72342514D01*
X163495314Y-72413943D01*
X163638171Y-72413943D01*
X162709600Y-72413943D02*
X162781029Y-72485371D01*
X162852457Y-72413943D01*
X162781029Y-72342514D01*
X162709600Y-72413943D01*
X162852457Y-72413943D01*
X162066743Y-74199657D02*
X163995314Y-72913943D01*
X162066743Y-75771086D02*
X163995314Y-74485372D01*
X163638171Y-76271087D02*
X162638171Y-76271087D01*
X162781029Y-76271087D02*
X162709600Y-76342515D01*
X162638171Y-76485373D01*
X162638171Y-76699658D01*
X162709600Y-76842515D01*
X162852457Y-76913944D01*
X163638171Y-76913944D01*
X162852457Y-76913944D02*
X162709600Y-76985373D01*
X162638171Y-77128230D01*
X162638171Y-77342515D01*
X162709600Y-77485373D01*
X162852457Y-77556801D01*
X163638171Y-77556801D01*
X162638171Y-78128230D02*
X163638171Y-78485373D01*
X162638171Y-78842515D02*
X163638171Y-78485373D01*
X163995314Y-78342515D01*
X164066743Y-78271087D01*
X164138171Y-78128230D01*
X163566743Y-79342515D02*
X163638171Y-79485372D01*
X163638171Y-79771087D01*
X163566743Y-79913944D01*
X163423886Y-79985372D01*
X163352457Y-79985372D01*
X163209600Y-79913944D01*
X163138171Y-79771087D01*
X163138171Y-79556801D01*
X163066743Y-79413944D01*
X162923886Y-79342515D01*
X162852457Y-79342515D01*
X162709600Y-79413944D01*
X162638171Y-79556801D01*
X162638171Y-79771087D01*
X162709600Y-79913944D01*
X163566743Y-81199658D02*
X163638171Y-81056801D01*
X163638171Y-80771087D01*
X163566743Y-80628230D01*
X163423886Y-80556801D01*
X162852457Y-80556801D01*
X162709600Y-80628230D01*
X162638171Y-80771087D01*
X162638171Y-81056801D01*
X162709600Y-81199658D01*
X162852457Y-81271087D01*
X162995314Y-81271087D01*
X163138171Y-80556801D01*
X162638171Y-81913944D02*
X163638171Y-81913944D01*
X162781029Y-81913944D02*
X162709600Y-81985372D01*
X162638171Y-82128230D01*
X162638171Y-82342515D01*
X162709600Y-82485372D01*
X162852457Y-82556801D01*
X163638171Y-82556801D01*
X163566743Y-83199658D02*
X163638171Y-83342515D01*
X163638171Y-83628230D01*
X163566743Y-83771087D01*
X163423886Y-83842515D01*
X163352457Y-83842515D01*
X163209600Y-83771087D01*
X163138171Y-83628230D01*
X163138171Y-83413944D01*
X163066743Y-83271087D01*
X162923886Y-83199658D01*
X162852457Y-83199658D01*
X162709600Y-83271087D01*
X162638171Y-83413944D01*
X162638171Y-83628230D01*
X162709600Y-83771087D01*
X163638171Y-84699659D02*
X163566743Y-84556801D01*
X163495314Y-84485373D01*
X163352457Y-84413944D01*
X162923886Y-84413944D01*
X162781029Y-84485373D01*
X162709600Y-84556801D01*
X162638171Y-84699659D01*
X162638171Y-84913944D01*
X162709600Y-85056801D01*
X162781029Y-85128230D01*
X162923886Y-85199659D01*
X163352457Y-85199659D01*
X163495314Y-85128230D01*
X163566743Y-85056801D01*
X163638171Y-84913944D01*
X163638171Y-84699659D01*
X163638171Y-85842516D02*
X162638171Y-85842516D01*
X162923886Y-85842516D02*
X162781029Y-85913944D01*
X162709600Y-85985373D01*
X162638171Y-86128230D01*
X162638171Y-86271087D01*
X163566743Y-86699658D02*
X163638171Y-86842515D01*
X163638171Y-87128230D01*
X163566743Y-87271087D01*
X163423886Y-87342515D01*
X163352457Y-87342515D01*
X163209600Y-87271087D01*
X163138171Y-87128230D01*
X163138171Y-86913944D01*
X163066743Y-86771087D01*
X162923886Y-86699658D01*
X162852457Y-86699658D01*
X162709600Y-86771087D01*
X162638171Y-86913944D01*
X162638171Y-87128230D01*
X162709600Y-87271087D01*
X163495314Y-87985373D02*
X163566743Y-88056801D01*
X163638171Y-87985373D01*
X163566743Y-87913944D01*
X163495314Y-87985373D01*
X163638171Y-87985373D01*
X163638171Y-88913945D02*
X163566743Y-88771087D01*
X163495314Y-88699659D01*
X163352457Y-88628230D01*
X162923886Y-88628230D01*
X162781029Y-88699659D01*
X162709600Y-88771087D01*
X162638171Y-88913945D01*
X162638171Y-89128230D01*
X162709600Y-89271087D01*
X162781029Y-89342516D01*
X162923886Y-89413945D01*
X163352457Y-89413945D01*
X163495314Y-89342516D01*
X163566743Y-89271087D01*
X163638171Y-89128230D01*
X163638171Y-88913945D01*
X163638171Y-90056802D02*
X162638171Y-90056802D01*
X162923886Y-90056802D02*
X162781029Y-90128230D01*
X162709600Y-90199659D01*
X162638171Y-90342516D01*
X162638171Y-90485373D01*
X162638171Y-91628230D02*
X163852457Y-91628230D01*
X163995314Y-91556801D01*
X164066743Y-91485373D01*
X164138171Y-91342516D01*
X164138171Y-91128230D01*
X164066743Y-90985373D01*
X163566743Y-91628230D02*
X163638171Y-91485373D01*
X163638171Y-91199659D01*
X163566743Y-91056801D01*
X163495314Y-90985373D01*
X163352457Y-90913944D01*
X162923886Y-90913944D01*
X162781029Y-90985373D01*
X162709600Y-91056801D01*
X162638171Y-91199659D01*
X162638171Y-91485373D01*
X162709600Y-91628230D01*
X132761228Y-108036771D02*
X132761228Y-109108200D01*
X132832656Y-109322486D01*
X132975513Y-109465343D01*
X133189799Y-109536771D01*
X133332656Y-109536771D01*
X132261228Y-108036771D02*
X131404085Y-108036771D01*
X131832656Y-109536771D02*
X131832656Y-108036771D01*
X130975514Y-109108200D02*
X130261228Y-109108200D01*
X131118371Y-109536771D02*
X130618371Y-108036771D01*
X130118371Y-109536771D01*
X128832657Y-108108200D02*
X128975514Y-108036771D01*
X129189800Y-108036771D01*
X129404085Y-108108200D01*
X129546943Y-108251057D01*
X129618371Y-108393914D01*
X129689800Y-108679629D01*
X129689800Y-108893914D01*
X129618371Y-109179629D01*
X129546943Y-109322486D01*
X129404085Y-109465343D01*
X129189800Y-109536771D01*
X129046943Y-109536771D01*
X128832657Y-109465343D01*
X128761228Y-109393914D01*
X128761228Y-108893914D01*
X129046943Y-108893914D01*
X126975514Y-109536771D02*
X126975514Y-108036771D01*
X125404085Y-109393914D02*
X125475514Y-109465343D01*
X125689800Y-109536771D01*
X125832657Y-109536771D01*
X126046942Y-109465343D01*
X126189800Y-109322486D01*
X126261228Y-109179629D01*
X126332657Y-108893914D01*
X126332657Y-108679629D01*
X126261228Y-108393914D01*
X126189800Y-108251057D01*
X126046942Y-108108200D01*
X125832657Y-108036771D01*
X125689800Y-108036771D01*
X125475514Y-108108200D01*
X125404085Y-108179629D01*
X124761228Y-108751057D02*
X124261228Y-108751057D01*
X124046942Y-109536771D02*
X124761228Y-109536771D01*
X124761228Y-108036771D01*
X124046942Y-108036771D01*
X123546942Y-108036771D02*
X122618371Y-108036771D01*
X123118371Y-108608200D01*
X122904085Y-108608200D01*
X122761228Y-108679629D01*
X122689799Y-108751057D01*
X122618371Y-108893914D01*
X122618371Y-109251057D01*
X122689799Y-109393914D01*
X122761228Y-109465343D01*
X122904085Y-109536771D01*
X123332657Y-109536771D01*
X123475514Y-109465343D01*
X123546942Y-109393914D01*
X133832657Y-111936771D02*
X133832657Y-110436771D01*
X133475514Y-110436771D01*
X133261229Y-110508200D01*
X133118371Y-110651057D01*
X133046943Y-110793914D01*
X132975514Y-111079629D01*
X132975514Y-111293914D01*
X133046943Y-111579629D01*
X133118371Y-111722486D01*
X133261229Y-111865343D01*
X133475514Y-111936771D01*
X133832657Y-111936771D01*
X131761229Y-111865343D02*
X131904086Y-111936771D01*
X132189800Y-111936771D01*
X132332657Y-111865343D01*
X132404086Y-111722486D01*
X132404086Y-111151057D01*
X132332657Y-111008200D01*
X132189800Y-110936771D01*
X131904086Y-110936771D01*
X131761229Y-111008200D01*
X131689800Y-111151057D01*
X131689800Y-111293914D01*
X132404086Y-111436771D01*
X131046943Y-111936771D02*
X131046943Y-110436771D01*
X131046943Y-111008200D02*
X130904086Y-110936771D01*
X130618372Y-110936771D01*
X130475515Y-111008200D01*
X130404086Y-111079629D01*
X130332657Y-111222486D01*
X130332657Y-111651057D01*
X130404086Y-111793914D01*
X130475515Y-111865343D01*
X130618372Y-111936771D01*
X130904086Y-111936771D01*
X131046943Y-111865343D01*
X129046943Y-110936771D02*
X129046943Y-111936771D01*
X129689800Y-110936771D02*
X129689800Y-111722486D01*
X129618372Y-111865343D01*
X129475514Y-111936771D01*
X129261229Y-111936771D01*
X129118372Y-111865343D01*
X129046943Y-111793914D01*
X127689800Y-110936771D02*
X127689800Y-112151057D01*
X127761229Y-112293914D01*
X127832657Y-112365343D01*
X127975514Y-112436771D01*
X128189800Y-112436771D01*
X128332657Y-112365343D01*
X127689800Y-111865343D02*
X127832657Y-111936771D01*
X128118371Y-111936771D01*
X128261229Y-111865343D01*
X128332657Y-111793914D01*
X128404086Y-111651057D01*
X128404086Y-111222486D01*
X128332657Y-111079629D01*
X128261229Y-111008200D01*
X128118371Y-110936771D01*
X127832657Y-110936771D01*
X127689800Y-111008200D01*
X125832657Y-110936771D02*
X125832657Y-112436771D01*
X125832657Y-111008200D02*
X125689800Y-110936771D01*
X125404086Y-110936771D01*
X125261229Y-111008200D01*
X125189800Y-111079629D01*
X125118371Y-111222486D01*
X125118371Y-111651057D01*
X125189800Y-111793914D01*
X125261229Y-111865343D01*
X125404086Y-111936771D01*
X125689800Y-111936771D01*
X125832657Y-111865343D01*
X124261228Y-111936771D02*
X124404086Y-111865343D01*
X124475514Y-111793914D01*
X124546943Y-111651057D01*
X124546943Y-111222486D01*
X124475514Y-111079629D01*
X124404086Y-111008200D01*
X124261228Y-110936771D01*
X124046943Y-110936771D01*
X123904086Y-111008200D01*
X123832657Y-111079629D01*
X123761228Y-111222486D01*
X123761228Y-111651057D01*
X123832657Y-111793914D01*
X123904086Y-111865343D01*
X124046943Y-111936771D01*
X124261228Y-111936771D01*
X123118371Y-111936771D02*
X123118371Y-110936771D01*
X123118371Y-111222486D02*
X123046943Y-111079629D01*
X122975514Y-111008200D01*
X122832657Y-110936771D01*
X122689800Y-110936771D01*
X122404086Y-110936771D02*
X121832657Y-110936771D01*
X122189800Y-110436771D02*
X122189800Y-111722486D01*
X122118372Y-111865343D01*
X121975514Y-111936771D01*
X121832657Y-111936771D01*
D12*
X138404524Y-81476905D02*
X138404524Y-82124524D01*
X138366429Y-82200714D01*
X138328333Y-82238810D01*
X138252143Y-82276905D01*
X138099762Y-82276905D01*
X138023571Y-82238810D01*
X137985476Y-82200714D01*
X137947381Y-82124524D01*
X137947381Y-81476905D01*
X137642619Y-81476905D02*
X137109286Y-81476905D01*
X137452143Y-82276905D01*
X128758905Y-81375524D02*
X128377952Y-81108857D01*
X128758905Y-80918381D02*
X127958905Y-80918381D01*
X127958905Y-81223143D01*
X127997000Y-81299334D01*
X128035095Y-81337429D01*
X128111286Y-81375524D01*
X128225571Y-81375524D01*
X128301762Y-81337429D01*
X128339857Y-81299334D01*
X128377952Y-81223143D01*
X128377952Y-80918381D01*
X128339857Y-81985048D02*
X128339857Y-81718381D01*
X128758905Y-81718381D02*
X127958905Y-81718381D01*
X127958905Y-82099334D01*
X128758905Y-82404095D02*
X127958905Y-82404095D01*
X128530333Y-82670762D01*
X127958905Y-82937429D01*
X128758905Y-82937429D01*
X127958905Y-83661238D02*
X127958905Y-83508857D01*
X127997000Y-83432667D01*
X128035095Y-83394572D01*
X128149381Y-83318381D01*
X128301762Y-83280286D01*
X128606524Y-83280286D01*
X128682714Y-83318381D01*
X128720810Y-83356476D01*
X128758905Y-83432667D01*
X128758905Y-83585048D01*
X128720810Y-83661238D01*
X128682714Y-83699334D01*
X128606524Y-83737429D01*
X128416048Y-83737429D01*
X128339857Y-83699334D01*
X128301762Y-83661238D01*
X128263667Y-83585048D01*
X128263667Y-83432667D01*
X128301762Y-83356476D01*
X128339857Y-83318381D01*
X128416048Y-83280286D01*
X128758905Y-84118381D02*
X128758905Y-84270762D01*
X128720810Y-84346953D01*
X128682714Y-84385048D01*
X128568429Y-84461239D01*
X128416048Y-84499334D01*
X128111286Y-84499334D01*
X128035095Y-84461239D01*
X127997000Y-84423143D01*
X127958905Y-84346953D01*
X127958905Y-84194572D01*
X127997000Y-84118381D01*
X128035095Y-84080286D01*
X128111286Y-84042191D01*
X128301762Y-84042191D01*
X128377952Y-84080286D01*
X128416048Y-84118381D01*
X128454143Y-84194572D01*
X128454143Y-84346953D01*
X128416048Y-84423143D01*
X128377952Y-84461239D01*
X128301762Y-84499334D01*
X128758905Y-84842191D02*
X127958905Y-84842191D01*
X128339857Y-84842191D02*
X128339857Y-85299334D01*
X128758905Y-85299334D02*
X127958905Y-85299334D01*
X127958905Y-85604096D02*
X128758905Y-85794572D01*
X128187476Y-85946953D01*
X128758905Y-86099334D01*
X127958905Y-86289810D01*
D13*
X128747781Y-103833705D02*
X127747781Y-103833705D01*
X127747781Y-104214658D01*
X127795400Y-104309896D01*
X127843019Y-104357515D01*
X127938257Y-104405134D01*
X128081114Y-104405134D01*
X128176352Y-104357515D01*
X128223971Y-104309896D01*
X128271590Y-104214658D01*
X128271590Y-103833705D01*
X127747781Y-105309896D02*
X127747781Y-104833705D01*
X128223971Y-104786086D01*
X128176352Y-104833705D01*
X128128733Y-104928943D01*
X128128733Y-105167039D01*
X128176352Y-105262277D01*
X128223971Y-105309896D01*
X128319210Y-105357515D01*
X128557305Y-105357515D01*
X128652543Y-105309896D01*
X128700162Y-105262277D01*
X128747781Y-105167039D01*
X128747781Y-104928943D01*
X128700162Y-104833705D01*
X128652543Y-104786086D01*
X150598095Y-81859381D02*
X150598095Y-80859381D01*
X150217142Y-80859381D01*
X150121904Y-80907000D01*
X150074285Y-80954619D01*
X150026666Y-81049857D01*
X150026666Y-81192714D01*
X150074285Y-81287952D01*
X150121904Y-81335571D01*
X150217142Y-81383190D01*
X150598095Y-81383190D01*
X149693333Y-80859381D02*
X149074285Y-80859381D01*
X149407619Y-81240333D01*
X149264761Y-81240333D01*
X149169523Y-81287952D01*
X149121904Y-81335571D01*
X149074285Y-81430810D01*
X149074285Y-81668905D01*
X149121904Y-81764143D01*
X149169523Y-81811762D01*
X149264761Y-81859381D01*
X149550476Y-81859381D01*
X149645714Y-81811762D01*
X149693333Y-81764143D01*
X152379371Y-76478239D02*
X152426990Y-76621096D01*
X152474610Y-76668715D01*
X152569848Y-76716334D01*
X152712705Y-76716334D01*
X152807943Y-76668715D01*
X152855562Y-76621096D01*
X152903181Y-76525858D01*
X152903181Y-76144905D01*
X151903181Y-76144905D01*
X151903181Y-76478239D01*
X151950800Y-76573477D01*
X151998419Y-76621096D01*
X152093657Y-76668715D01*
X152188895Y-76668715D01*
X152284133Y-76621096D01*
X152331752Y-76573477D01*
X152379371Y-76478239D01*
X152379371Y-76144905D01*
X151903181Y-77335381D02*
X151903181Y-77525858D01*
X151950800Y-77621096D01*
X152046038Y-77716334D01*
X152236514Y-77763953D01*
X152569848Y-77763953D01*
X152760324Y-77716334D01*
X152855562Y-77621096D01*
X152903181Y-77525858D01*
X152903181Y-77335381D01*
X152855562Y-77240143D01*
X152760324Y-77144905D01*
X152569848Y-77097286D01*
X152236514Y-77097286D01*
X152046038Y-77144905D01*
X151950800Y-77240143D01*
X151903181Y-77335381D01*
X151903181Y-78383000D02*
X151903181Y-78573477D01*
X151950800Y-78668715D01*
X152046038Y-78763953D01*
X152236514Y-78811572D01*
X152569848Y-78811572D01*
X152760324Y-78763953D01*
X152855562Y-78668715D01*
X152903181Y-78573477D01*
X152903181Y-78383000D01*
X152855562Y-78287762D01*
X152760324Y-78192524D01*
X152569848Y-78144905D01*
X152236514Y-78144905D01*
X152046038Y-78192524D01*
X151950800Y-78287762D01*
X151903181Y-78383000D01*
X151903181Y-79097286D02*
X151903181Y-79668715D01*
X152903181Y-79383000D02*
X151903181Y-79383000D01*
X152903181Y-80002048D02*
X151903181Y-80002048D01*
X152617467Y-80335382D01*
X151903181Y-80668715D01*
X152903181Y-80668715D01*
X151903181Y-81335381D02*
X151903181Y-81525858D01*
X151950800Y-81621096D01*
X152046038Y-81716334D01*
X152236514Y-81763953D01*
X152569848Y-81763953D01*
X152760324Y-81716334D01*
X152855562Y-81621096D01*
X152903181Y-81525858D01*
X152903181Y-81335381D01*
X152855562Y-81240143D01*
X152760324Y-81144905D01*
X152569848Y-81097286D01*
X152236514Y-81097286D01*
X152046038Y-81144905D01*
X151950800Y-81240143D01*
X151903181Y-81335381D01*
X152903181Y-82192524D02*
X151903181Y-82192524D01*
X151903181Y-82430619D01*
X151950800Y-82573477D01*
X152046038Y-82668715D01*
X152141276Y-82716334D01*
X152331752Y-82763953D01*
X152474610Y-82763953D01*
X152665086Y-82716334D01*
X152760324Y-82668715D01*
X152855562Y-82573477D01*
X152903181Y-82430619D01*
X152903181Y-82192524D01*
X152379371Y-83192524D02*
X152379371Y-83525858D01*
X152903181Y-83668715D02*
X152903181Y-83192524D01*
X151903181Y-83192524D01*
X151903181Y-83668715D01*
%LPC*%
D14*
X144926000Y-64777000D03*
X137776000Y-64777000D03*
X144926000Y-68227000D03*
X137776000Y-68227000D03*
D15*
X143351000Y-66902000D03*
X139351000Y-66902000D03*
D16*
X144399000Y-89773000D03*
X142399000Y-89773000D03*
X140399000Y-89773000D03*
X138399000Y-89773000D03*
X136399000Y-89773000D03*
X134399000Y-89773000D03*
X132399000Y-89773000D03*
X130399000Y-89773000D03*
X130399000Y-70873000D03*
X132399000Y-70873000D03*
X134399000Y-70873000D03*
X136399000Y-70873000D03*
X138399000Y-70873000D03*
X140399000Y-70873000D03*
X142399000Y-70873000D03*
X144399000Y-70873000D03*
D17*
X126746000Y-103378000D03*
X126746000Y-105918000D03*
X129286000Y-103378000D03*
X129286000Y-105918000D03*
X131826000Y-103378000D03*
X131826000Y-105918000D03*
D18*
X134366000Y-103378000D03*
D17*
X134366000Y-105918000D03*
X124460000Y-97790000D03*
X121920000Y-97790000D03*
X124460000Y-95250000D03*
X121920000Y-95250000D03*
X124460000Y-92710000D03*
X121920000Y-92710000D03*
X124460000Y-90170000D03*
X121920000Y-90170000D03*
X124460000Y-87630000D03*
X121920000Y-87630000D03*
X124460000Y-85090000D03*
X121920000Y-85090000D03*
D18*
X121920000Y-74930000D03*
D17*
X124460000Y-74930000D03*
X121920000Y-77470000D03*
X124460000Y-77470000D03*
X121920000Y-80010000D03*
X124460000Y-80010000D03*
X121920000Y-82550000D03*
X124460000Y-82550000D03*
D19*
X134112000Y-67437000D03*
D20*
X124358400Y-102031800D03*
X120458400Y-102031800D03*
X124358400Y-103301800D03*
X120458400Y-103301800D03*
X124358400Y-104571800D03*
X120458400Y-104571800D03*
X120458400Y-105841800D03*
X124358400Y-107111800D03*
X120458400Y-107111800D03*
D21*
X150698200Y-79654400D03*
X149301200Y-79654400D03*
D18*
X150622000Y-110490000D03*
D17*
X150622000Y-107950000D03*
X153162000Y-110490000D03*
X153162000Y-107950000D03*
X155702000Y-110490000D03*
X155702000Y-107950000D03*
X158242000Y-110490000D03*
X158242000Y-107950000D03*
X160782000Y-110490000D03*
X160782000Y-107950000D03*
D18*
X152590500Y-103314500D03*
D17*
X152590500Y-100774500D03*
X155130500Y-103314500D03*
X155130500Y-100774500D03*
X157670500Y-103314500D03*
X157670500Y-100774500D03*
X160210500Y-103314500D03*
X160210500Y-100774500D03*
M02*
