G04 #@! TF.FileFunction,Legend,Bot*
%FSLAX46Y46*%
G04 Gerber Fmt 4.6, Leading zero omitted, Abs format (unit mm)*
G04 Created by KiCad (PCBNEW 4.1.0-alpha+201608060946+7009~46~ubuntu16.04.1-product) date Tue Aug 30 18:17:03 2016*
%MOMM*%
%LPD*%
G01*
G04 APERTURE LIST*
%ADD10C,0.100000*%
%ADD11C,0.150000*%
%ADD12C,0.010000*%
%ADD13C,0.160000*%
%ADD14R,1.200000X2.200000*%
%ADD15R,2.032000X2.032000*%
%ADD16O,2.032000X2.032000*%
%ADD17O,1.727200X1.727200*%
%ADD18R,1.727200X1.727200*%
%ADD19O,1.050000X1.850000*%
%ADD20C,0.650000*%
%ADD21C,1.524000*%
%ADD22C,1.000000*%
%ADD23R,1.270000X0.600000*%
%ADD24O,1.270000X1.270000*%
G04 APERTURE END LIST*
D10*
D11*
X163819552Y-72760342D02*
X163867171Y-72807961D01*
X164010028Y-72855580D01*
X164105266Y-72855580D01*
X164248123Y-72807961D01*
X164343361Y-72712723D01*
X164390980Y-72617485D01*
X164438600Y-72427009D01*
X164438600Y-72284152D01*
X164390980Y-72093676D01*
X164343361Y-71998438D01*
X164248123Y-71903200D01*
X164105266Y-71855580D01*
X164010028Y-71855580D01*
X163867171Y-71903200D01*
X163819552Y-71950819D01*
X162962409Y-72188914D02*
X162962409Y-72855580D01*
X163390980Y-72188914D02*
X163390980Y-72712723D01*
X163343361Y-72807961D01*
X163248123Y-72855580D01*
X163105266Y-72855580D01*
X163010028Y-72807961D01*
X162962409Y-72760342D01*
X162629076Y-72188914D02*
X162248123Y-72188914D01*
X162486219Y-71855580D02*
X162486219Y-72712723D01*
X162438600Y-72807961D01*
X162343361Y-72855580D01*
X162248123Y-72855580D01*
X161295742Y-72188914D02*
X160914790Y-72188914D01*
X161152885Y-71855580D02*
X161152885Y-72712723D01*
X161105266Y-72807961D01*
X161010028Y-72855580D01*
X160914790Y-72855580D01*
X160438600Y-72855580D02*
X160533838Y-72807961D01*
X160581457Y-72760342D01*
X160629076Y-72665104D01*
X160629076Y-72379390D01*
X160581457Y-72284152D01*
X160533838Y-72236533D01*
X160438600Y-72188914D01*
X160295742Y-72188914D01*
X160200504Y-72236533D01*
X160152885Y-72284152D01*
X160105266Y-72379390D01*
X160105266Y-72665104D01*
X160152885Y-72760342D01*
X160200504Y-72807961D01*
X160295742Y-72855580D01*
X160438600Y-72855580D01*
X158486219Y-72855580D02*
X158486219Y-71855580D01*
X158486219Y-72807961D02*
X158581457Y-72855580D01*
X158771933Y-72855580D01*
X158867171Y-72807961D01*
X158914790Y-72760342D01*
X158962409Y-72665104D01*
X158962409Y-72379390D01*
X158914790Y-72284152D01*
X158867171Y-72236533D01*
X158771933Y-72188914D01*
X158581457Y-72188914D01*
X158486219Y-72236533D01*
X158010028Y-72855580D02*
X158010028Y-72188914D01*
X158010028Y-71855580D02*
X158057647Y-71903200D01*
X158010028Y-71950819D01*
X157962409Y-71903200D01*
X158010028Y-71855580D01*
X158010028Y-71950819D01*
X157581457Y-72807961D02*
X157486219Y-72855580D01*
X157295742Y-72855580D01*
X157200504Y-72807961D01*
X157152885Y-72712723D01*
X157152885Y-72665104D01*
X157200504Y-72569866D01*
X157295742Y-72522247D01*
X157438600Y-72522247D01*
X157533838Y-72474628D01*
X157581457Y-72379390D01*
X157581457Y-72331771D01*
X157533838Y-72236533D01*
X157438600Y-72188914D01*
X157295742Y-72188914D01*
X157200504Y-72236533D01*
X156295742Y-72855580D02*
X156295742Y-72331771D01*
X156343361Y-72236533D01*
X156438600Y-72188914D01*
X156629076Y-72188914D01*
X156724314Y-72236533D01*
X156295742Y-72807961D02*
X156390980Y-72855580D01*
X156629076Y-72855580D01*
X156724314Y-72807961D01*
X156771933Y-72712723D01*
X156771933Y-72617485D01*
X156724314Y-72522247D01*
X156629076Y-72474628D01*
X156390980Y-72474628D01*
X156295742Y-72427009D01*
X155819552Y-72855580D02*
X155819552Y-71855580D01*
X155819552Y-72236533D02*
X155724314Y-72188914D01*
X155533838Y-72188914D01*
X155438600Y-72236533D01*
X155390980Y-72284152D01*
X155343361Y-72379390D01*
X155343361Y-72665104D01*
X155390980Y-72760342D01*
X155438600Y-72807961D01*
X155533838Y-72855580D01*
X155724314Y-72855580D01*
X155819552Y-72807961D01*
X154771933Y-72855580D02*
X154867171Y-72807961D01*
X154914790Y-72712723D01*
X154914790Y-71855580D01*
X154010028Y-72807961D02*
X154105266Y-72855580D01*
X154295742Y-72855580D01*
X154390980Y-72807961D01*
X154438600Y-72712723D01*
X154438600Y-72331771D01*
X154390980Y-72236533D01*
X154295742Y-72188914D01*
X154105266Y-72188914D01*
X154010028Y-72236533D01*
X153962409Y-72331771D01*
X153962409Y-72427009D01*
X154438600Y-72522247D01*
X150486219Y-72474628D02*
X149724314Y-72474628D01*
X149248123Y-72188914D02*
X148486219Y-72474628D01*
X149248123Y-72760342D01*
X162200504Y-73838914D02*
X162200504Y-74838914D01*
X162200504Y-73886533D02*
X162105266Y-73838914D01*
X161914790Y-73838914D01*
X161819552Y-73886533D01*
X161771933Y-73934152D01*
X161724314Y-74029390D01*
X161724314Y-74315104D01*
X161771933Y-74410342D01*
X161819552Y-74457961D01*
X161914790Y-74505580D01*
X162105266Y-74505580D01*
X162200504Y-74457961D01*
X161152885Y-74505580D02*
X161248123Y-74457961D01*
X161295742Y-74410342D01*
X161343361Y-74315104D01*
X161343361Y-74029390D01*
X161295742Y-73934152D01*
X161248123Y-73886533D01*
X161152885Y-73838914D01*
X161010028Y-73838914D01*
X160914790Y-73886533D01*
X160867171Y-73934152D01*
X160819552Y-74029390D01*
X160819552Y-74315104D01*
X160867171Y-74410342D01*
X160914790Y-74457961D01*
X161010028Y-74505580D01*
X161152885Y-74505580D01*
X160486219Y-73838914D02*
X160295742Y-74505580D01*
X160105266Y-74029390D01*
X159914790Y-74505580D01*
X159724314Y-73838914D01*
X158962409Y-74457961D02*
X159057647Y-74505580D01*
X159248123Y-74505580D01*
X159343361Y-74457961D01*
X159390980Y-74362723D01*
X159390980Y-73981771D01*
X159343361Y-73886533D01*
X159248123Y-73838914D01*
X159057647Y-73838914D01*
X158962409Y-73886533D01*
X158914790Y-73981771D01*
X158914790Y-74077009D01*
X159390980Y-74172247D01*
X158486219Y-74505580D02*
X158486219Y-73838914D01*
X158486219Y-74029390D02*
X158438600Y-73934152D01*
X158390980Y-73886533D01*
X158295742Y-73838914D01*
X158200504Y-73838914D01*
X156962409Y-74505580D02*
X157057647Y-74457961D01*
X157105266Y-74410342D01*
X157152885Y-74315104D01*
X157152885Y-74029390D01*
X157105266Y-73934152D01*
X157057647Y-73886533D01*
X156962409Y-73838914D01*
X156819552Y-73838914D01*
X156724314Y-73886533D01*
X156676695Y-73934152D01*
X156629076Y-74029390D01*
X156629076Y-74315104D01*
X156676695Y-74410342D01*
X156724314Y-74457961D01*
X156819552Y-74505580D01*
X156962409Y-74505580D01*
X156295742Y-73838914D02*
X156057647Y-74505580D01*
X155819552Y-73838914D01*
X155057647Y-74457961D02*
X155152885Y-74505580D01*
X155343361Y-74505580D01*
X155438600Y-74457961D01*
X155486219Y-74362723D01*
X155486219Y-73981771D01*
X155438600Y-73886533D01*
X155343361Y-73838914D01*
X155152885Y-73838914D01*
X155057647Y-73886533D01*
X155010028Y-73981771D01*
X155010028Y-74077009D01*
X155486219Y-74172247D01*
X154581457Y-74505580D02*
X154581457Y-73838914D01*
X154581457Y-74029390D02*
X154533838Y-73934152D01*
X154486219Y-73886533D01*
X154390980Y-73838914D01*
X154295742Y-73838914D01*
X153200504Y-73505580D02*
X153200504Y-74315104D01*
X153152885Y-74410342D01*
X153105266Y-74457961D01*
X153010028Y-74505580D01*
X152819552Y-74505580D01*
X152724314Y-74457961D01*
X152676695Y-74410342D01*
X152629076Y-74315104D01*
X152629076Y-73505580D01*
X152200504Y-74457961D02*
X152057647Y-74505580D01*
X151819552Y-74505580D01*
X151724314Y-74457961D01*
X151676695Y-74410342D01*
X151629076Y-74315104D01*
X151629076Y-74219866D01*
X151676695Y-74124628D01*
X151724314Y-74077009D01*
X151819552Y-74029390D01*
X152010028Y-73981771D01*
X152105266Y-73934152D01*
X152152885Y-73886533D01*
X152200504Y-73791295D01*
X152200504Y-73696057D01*
X152152885Y-73600819D01*
X152105266Y-73553200D01*
X152010028Y-73505580D01*
X151771933Y-73505580D01*
X151629076Y-73553200D01*
X150867171Y-73981771D02*
X150724314Y-74029390D01*
X150676695Y-74077009D01*
X150629076Y-74172247D01*
X150629076Y-74315104D01*
X150676695Y-74410342D01*
X150724314Y-74457961D01*
X150819552Y-74505580D01*
X151200504Y-74505580D01*
X151200504Y-73505580D01*
X150867171Y-73505580D01*
X150771933Y-73553200D01*
X150724314Y-73600819D01*
X150676695Y-73696057D01*
X150676695Y-73791295D01*
X150724314Y-73886533D01*
X150771933Y-73934152D01*
X150867171Y-73981771D01*
X151200504Y-73981771D01*
X129399000Y-91173000D02*
X145399000Y-91173000D01*
X129399000Y-69473000D02*
X129399000Y-91173000D01*
X145399000Y-69473000D02*
X129399000Y-69473000D01*
X145399000Y-91173000D02*
X145399000Y-69473000D01*
D12*
G36*
X147958319Y-106004849D02*
X147730633Y-106018783D01*
X147718535Y-106428310D01*
X147718510Y-106663030D01*
X147739418Y-106826320D01*
X147788411Y-106930284D01*
X147872639Y-106987031D01*
X147999253Y-107008665D01*
X148062245Y-107010200D01*
X148180721Y-107004448D01*
X148259848Y-106990005D01*
X148272760Y-106983128D01*
X148286537Y-106933791D01*
X148227954Y-106898245D01*
X148109030Y-106883301D01*
X148096435Y-106883200D01*
X147940918Y-106859247D01*
X147855028Y-106787525D01*
X147836467Y-106705400D01*
X147860703Y-106638753D01*
X147912965Y-106639365D01*
X147942300Y-106671533D01*
X148010516Y-106711513D01*
X148112398Y-106701681D01*
X148217481Y-106647503D01*
X148252421Y-106615888D01*
X148320725Y-106504491D01*
X148344200Y-106349927D01*
X148344467Y-106326116D01*
X148342014Y-106304071D01*
X148209615Y-106304071D01*
X148200661Y-106448370D01*
X148153538Y-106549084D01*
X148077428Y-106586866D01*
X148017443Y-106560201D01*
X147935655Y-106495954D01*
X147934445Y-106494820D01*
X147864985Y-106408599D01*
X147836467Y-106332048D01*
X147873327Y-106236489D01*
X147962477Y-106159756D01*
X148071772Y-106126924D01*
X148097559Y-106128381D01*
X148165514Y-106153959D01*
X148198742Y-106221758D01*
X148209615Y-106304071D01*
X148342014Y-106304071D01*
X148326201Y-106161966D01*
X148263999Y-106059816D01*
X148146753Y-106010424D01*
X147963356Y-106004549D01*
X147958319Y-106004849D01*
X147958319Y-106004849D01*
G37*
X147958319Y-106004849D02*
X147730633Y-106018783D01*
X147718535Y-106428310D01*
X147718510Y-106663030D01*
X147739418Y-106826320D01*
X147788411Y-106930284D01*
X147872639Y-106987031D01*
X147999253Y-107008665D01*
X148062245Y-107010200D01*
X148180721Y-107004448D01*
X148259848Y-106990005D01*
X148272760Y-106983128D01*
X148286537Y-106933791D01*
X148227954Y-106898245D01*
X148109030Y-106883301D01*
X148096435Y-106883200D01*
X147940918Y-106859247D01*
X147855028Y-106787525D01*
X147836467Y-106705400D01*
X147860703Y-106638753D01*
X147912965Y-106639365D01*
X147942300Y-106671533D01*
X148010516Y-106711513D01*
X148112398Y-106701681D01*
X148217481Y-106647503D01*
X148252421Y-106615888D01*
X148320725Y-106504491D01*
X148344200Y-106349927D01*
X148344467Y-106326116D01*
X148342014Y-106304071D01*
X148209615Y-106304071D01*
X148200661Y-106448370D01*
X148153538Y-106549084D01*
X148077428Y-106586866D01*
X148017443Y-106560201D01*
X147935655Y-106495954D01*
X147934445Y-106494820D01*
X147864985Y-106408599D01*
X147836467Y-106332048D01*
X147873327Y-106236489D01*
X147962477Y-106159756D01*
X148071772Y-106126924D01*
X148097559Y-106128381D01*
X148165514Y-106153959D01*
X148198742Y-106221758D01*
X148209615Y-106304071D01*
X148342014Y-106304071D01*
X148326201Y-106161966D01*
X148263999Y-106059816D01*
X148146753Y-106010424D01*
X147963356Y-106004549D01*
X147958319Y-106004849D01*
G36*
X143062725Y-106028817D02*
X143053010Y-106068283D01*
X143039691Y-106152979D01*
X143006035Y-106269703D01*
X142961998Y-106391502D01*
X142917536Y-106491426D01*
X142882604Y-106542520D01*
X142877085Y-106544533D01*
X142841184Y-106508566D01*
X142791355Y-106418334D01*
X142739066Y-106300343D01*
X142695781Y-106181098D01*
X142672965Y-106087104D01*
X142671800Y-106069957D01*
X142648556Y-106012201D01*
X142600191Y-106012544D01*
X142558756Y-106066638D01*
X142553621Y-106085992D01*
X142565264Y-106148839D01*
X142606368Y-106269425D01*
X142670047Y-106429021D01*
X142731312Y-106569317D01*
X142817213Y-106755259D01*
X142880281Y-106877332D01*
X142930858Y-106949562D01*
X142979287Y-106985977D01*
X143035911Y-107000603D01*
X143050574Y-107002298D01*
X143146508Y-106999207D01*
X143179350Y-106958442D01*
X143179800Y-106949382D01*
X143144527Y-106894686D01*
X143096623Y-106883200D01*
X143000424Y-106855720D01*
X142964494Y-106772349D01*
X142988695Y-106631690D01*
X143055432Y-106468152D01*
X143137331Y-106271465D01*
X143175168Y-106121653D01*
X143167931Y-106026607D01*
X143116300Y-105994200D01*
X143062725Y-106028817D01*
X143062725Y-106028817D01*
G37*
X143062725Y-106028817D02*
X143053010Y-106068283D01*
X143039691Y-106152979D01*
X143006035Y-106269703D01*
X142961998Y-106391502D01*
X142917536Y-106491426D01*
X142882604Y-106542520D01*
X142877085Y-106544533D01*
X142841184Y-106508566D01*
X142791355Y-106418334D01*
X142739066Y-106300343D01*
X142695781Y-106181098D01*
X142672965Y-106087104D01*
X142671800Y-106069957D01*
X142648556Y-106012201D01*
X142600191Y-106012544D01*
X142558756Y-106066638D01*
X142553621Y-106085992D01*
X142565264Y-106148839D01*
X142606368Y-106269425D01*
X142670047Y-106429021D01*
X142731312Y-106569317D01*
X142817213Y-106755259D01*
X142880281Y-106877332D01*
X142930858Y-106949562D01*
X142979287Y-106985977D01*
X143035911Y-107000603D01*
X143050574Y-107002298D01*
X143146508Y-106999207D01*
X143179350Y-106958442D01*
X143179800Y-106949382D01*
X143144527Y-106894686D01*
X143096623Y-106883200D01*
X143000424Y-106855720D01*
X142964494Y-106772349D01*
X142988695Y-106631690D01*
X143055432Y-106468152D01*
X143137331Y-106271465D01*
X143175168Y-106121653D01*
X143167931Y-106026607D01*
X143116300Y-105994200D01*
X143062725Y-106028817D01*
G36*
X146982035Y-106010379D02*
X146913600Y-106045000D01*
X146885925Y-106115374D01*
X146868066Y-106249609D01*
X146862800Y-106399376D01*
X146862800Y-106702952D01*
X147129181Y-106708728D01*
X147293124Y-106703800D01*
X147408469Y-106683224D01*
X147446681Y-106663385D01*
X147493750Y-106561085D01*
X147487267Y-106504634D01*
X147370800Y-106504634D01*
X147360129Y-106558954D01*
X147313142Y-106580935D01*
X147207382Y-106579844D01*
X147191249Y-106578717D01*
X147065028Y-106558063D01*
X147005892Y-106515178D01*
X146997645Y-106491616D01*
X147002574Y-106445615D01*
X147052907Y-106423520D01*
X147167504Y-106417548D01*
X147177196Y-106417533D01*
X147297141Y-106422719D01*
X147354379Y-106444773D01*
X147370571Y-106493439D01*
X147370800Y-106504634D01*
X147487267Y-106504634D01*
X147478582Y-106429012D01*
X147453977Y-106372416D01*
X147405211Y-106320179D01*
X147316305Y-106295563D01*
X147199977Y-106290533D01*
X147073565Y-106286010D01*
X147010732Y-106266842D01*
X146990621Y-106224626D01*
X146989800Y-106205866D01*
X147004000Y-106150474D01*
X147061395Y-106125993D01*
X147159133Y-106121200D01*
X147276876Y-106110714D01*
X147325394Y-106075955D01*
X147328467Y-106057700D01*
X147291943Y-106018240D01*
X147202200Y-105996593D01*
X147088983Y-105993669D01*
X146982035Y-106010379D01*
X146982035Y-106010379D01*
G37*
X146982035Y-106010379D02*
X146913600Y-106045000D01*
X146885925Y-106115374D01*
X146868066Y-106249609D01*
X146862800Y-106399376D01*
X146862800Y-106702952D01*
X147129181Y-106708728D01*
X147293124Y-106703800D01*
X147408469Y-106683224D01*
X147446681Y-106663385D01*
X147493750Y-106561085D01*
X147487267Y-106504634D01*
X147370800Y-106504634D01*
X147360129Y-106558954D01*
X147313142Y-106580935D01*
X147207382Y-106579844D01*
X147191249Y-106578717D01*
X147065028Y-106558063D01*
X147005892Y-106515178D01*
X146997645Y-106491616D01*
X147002574Y-106445615D01*
X147052907Y-106423520D01*
X147167504Y-106417548D01*
X147177196Y-106417533D01*
X147297141Y-106422719D01*
X147354379Y-106444773D01*
X147370571Y-106493439D01*
X147370800Y-106504634D01*
X147487267Y-106504634D01*
X147478582Y-106429012D01*
X147453977Y-106372416D01*
X147405211Y-106320179D01*
X147316305Y-106295563D01*
X147199977Y-106290533D01*
X147073565Y-106286010D01*
X147010732Y-106266842D01*
X146990621Y-106224626D01*
X146989800Y-106205866D01*
X147004000Y-106150474D01*
X147061395Y-106125993D01*
X147159133Y-106121200D01*
X147276876Y-106110714D01*
X147325394Y-106075955D01*
X147328467Y-106057700D01*
X147291943Y-106018240D01*
X147202200Y-105996593D01*
X147088983Y-105993669D01*
X146982035Y-106010379D01*
G36*
X146380516Y-105854546D02*
X146375967Y-105888366D01*
X146358098Y-105947062D01*
X146290308Y-105976813D01*
X146214593Y-105986328D01*
X146103437Y-106011197D01*
X146070779Y-106050941D01*
X146115924Y-106090500D01*
X146220477Y-106113298D01*
X146303598Y-106127319D01*
X146342618Y-106164095D01*
X146354150Y-106248497D01*
X146354800Y-106314382D01*
X146355075Y-106435565D01*
X146355767Y-106518754D01*
X146356116Y-106533950D01*
X146322616Y-106565602D01*
X146243860Y-106578812D01*
X146157498Y-106572327D01*
X146101177Y-106544890D01*
X146099543Y-106542499D01*
X146050838Y-106505264D01*
X146011828Y-106529324D01*
X146003318Y-106592038D01*
X146017508Y-106631769D01*
X146071456Y-106687060D01*
X146170529Y-106710981D01*
X146251504Y-106713866D01*
X146373985Y-106707189D01*
X146440548Y-106678308D01*
X146479472Y-106613950D01*
X146482848Y-106605277D01*
X146509368Y-106492447D01*
X146523445Y-106348586D01*
X146524133Y-106313473D01*
X146535237Y-106183201D01*
X146573093Y-106115707D01*
X146598217Y-106101539D01*
X146648851Y-106073631D01*
X146625506Y-106038872D01*
X146603156Y-106021871D01*
X146536396Y-105938193D01*
X146517909Y-105887311D01*
X146478936Y-105819232D01*
X146421857Y-105808394D01*
X146380516Y-105854546D01*
X146380516Y-105854546D01*
G37*
X146380516Y-105854546D02*
X146375967Y-105888366D01*
X146358098Y-105947062D01*
X146290308Y-105976813D01*
X146214593Y-105986328D01*
X146103437Y-106011197D01*
X146070779Y-106050941D01*
X146115924Y-106090500D01*
X146220477Y-106113298D01*
X146303598Y-106127319D01*
X146342618Y-106164095D01*
X146354150Y-106248497D01*
X146354800Y-106314382D01*
X146355075Y-106435565D01*
X146355767Y-106518754D01*
X146356116Y-106533950D01*
X146322616Y-106565602D01*
X146243860Y-106578812D01*
X146157498Y-106572327D01*
X146101177Y-106544890D01*
X146099543Y-106542499D01*
X146050838Y-106505264D01*
X146011828Y-106529324D01*
X146003318Y-106592038D01*
X146017508Y-106631769D01*
X146071456Y-106687060D01*
X146170529Y-106710981D01*
X146251504Y-106713866D01*
X146373985Y-106707189D01*
X146440548Y-106678308D01*
X146479472Y-106613950D01*
X146482848Y-106605277D01*
X146509368Y-106492447D01*
X146523445Y-106348586D01*
X146524133Y-106313473D01*
X146535237Y-106183201D01*
X146573093Y-106115707D01*
X146598217Y-106101539D01*
X146648851Y-106073631D01*
X146625506Y-106038872D01*
X146603156Y-106021871D01*
X146536396Y-105938193D01*
X146517909Y-105887311D01*
X146478936Y-105819232D01*
X146421857Y-105808394D01*
X146380516Y-105854546D01*
G36*
X145308288Y-106025328D02*
X145210030Y-106118198D01*
X145170338Y-106272042D01*
X145169467Y-106304450D01*
X145169467Y-106459866D01*
X145422138Y-106459866D01*
X145564118Y-106463724D01*
X145636728Y-106477990D01*
X145655026Y-106506700D01*
X145651242Y-106521283D01*
X145590191Y-106566332D01*
X145452773Y-106592366D01*
X145412481Y-106595367D01*
X145255323Y-106615609D01*
X145179981Y-106646828D01*
X145186059Y-106679759D01*
X145273163Y-106705137D01*
X145417539Y-106713866D01*
X145567883Y-106708925D01*
X145659322Y-106689131D01*
X145717293Y-106647029D01*
X145738566Y-106619780D01*
X145780915Y-106517096D01*
X145803376Y-106380317D01*
X145804467Y-106346263D01*
X145788752Y-106257845D01*
X145665640Y-106257845D01*
X145621016Y-106309129D01*
X145500871Y-106331925D01*
X145460357Y-106332866D01*
X145352106Y-106327548D01*
X145306816Y-106302866D01*
X145303015Y-106245732D01*
X145304106Y-106237616D01*
X145350779Y-106164885D01*
X145443355Y-106127357D01*
X145548335Y-106130851D01*
X145631800Y-106180683D01*
X145665640Y-106257845D01*
X145788752Y-106257845D01*
X145773294Y-106170882D01*
X145681697Y-106053979D01*
X145532560Y-105998538D01*
X145464379Y-105994200D01*
X145308288Y-106025328D01*
X145308288Y-106025328D01*
G37*
X145308288Y-106025328D02*
X145210030Y-106118198D01*
X145170338Y-106272042D01*
X145169467Y-106304450D01*
X145169467Y-106459866D01*
X145422138Y-106459866D01*
X145564118Y-106463724D01*
X145636728Y-106477990D01*
X145655026Y-106506700D01*
X145651242Y-106521283D01*
X145590191Y-106566332D01*
X145452773Y-106592366D01*
X145412481Y-106595367D01*
X145255323Y-106615609D01*
X145179981Y-106646828D01*
X145186059Y-106679759D01*
X145273163Y-106705137D01*
X145417539Y-106713866D01*
X145567883Y-106708925D01*
X145659322Y-106689131D01*
X145717293Y-106647029D01*
X145738566Y-106619780D01*
X145780915Y-106517096D01*
X145803376Y-106380317D01*
X145804467Y-106346263D01*
X145788752Y-106257845D01*
X145665640Y-106257845D01*
X145621016Y-106309129D01*
X145500871Y-106331925D01*
X145460357Y-106332866D01*
X145352106Y-106327548D01*
X145306816Y-106302866D01*
X145303015Y-106245732D01*
X145304106Y-106237616D01*
X145350779Y-106164885D01*
X145443355Y-106127357D01*
X145548335Y-106130851D01*
X145631800Y-106180683D01*
X145665640Y-106257845D01*
X145788752Y-106257845D01*
X145773294Y-106170882D01*
X145681697Y-106053979D01*
X145532560Y-105998538D01*
X145464379Y-105994200D01*
X145308288Y-106025328D01*
G36*
X144303669Y-106031954D02*
X144282633Y-106131088D01*
X144281408Y-106270407D01*
X144300546Y-106428718D01*
X144329501Y-106550205D01*
X144388529Y-106672554D01*
X144466079Y-106714517D01*
X144558443Y-106674411D01*
X144573625Y-106660950D01*
X144623863Y-106629262D01*
X144649120Y-106660950D01*
X144699654Y-106714010D01*
X144771175Y-106703982D01*
X144839820Y-106639591D01*
X144868992Y-106580549D01*
X144897909Y-106460531D01*
X144913320Y-106320756D01*
X144915481Y-106183946D01*
X144904644Y-106072825D01*
X144881064Y-106010118D01*
X144862550Y-106004564D01*
X144828157Y-106054951D01*
X144803767Y-106165271D01*
X144797799Y-106230342D01*
X144786477Y-106365692D01*
X144771265Y-106471249D01*
X144763772Y-106501013D01*
X144739690Y-106542093D01*
X144706242Y-106507389D01*
X144702171Y-106501013D01*
X144669100Y-106407745D01*
X144662115Y-106345948D01*
X144644140Y-106260436D01*
X144618835Y-106226848D01*
X144587394Y-106219685D01*
X144561906Y-106254633D01*
X144534402Y-106347616D01*
X144513927Y-106436492D01*
X144485762Y-106513264D01*
X144456370Y-106515491D01*
X144430516Y-106453082D01*
X144412967Y-106335948D01*
X144408115Y-106216450D01*
X144401454Y-106079529D01*
X144379462Y-106010802D01*
X144343967Y-105994200D01*
X144303669Y-106031954D01*
X144303669Y-106031954D01*
G37*
X144303669Y-106031954D02*
X144282633Y-106131088D01*
X144281408Y-106270407D01*
X144300546Y-106428718D01*
X144329501Y-106550205D01*
X144388529Y-106672554D01*
X144466079Y-106714517D01*
X144558443Y-106674411D01*
X144573625Y-106660950D01*
X144623863Y-106629262D01*
X144649120Y-106660950D01*
X144699654Y-106714010D01*
X144771175Y-106703982D01*
X144839820Y-106639591D01*
X144868992Y-106580549D01*
X144897909Y-106460531D01*
X144913320Y-106320756D01*
X144915481Y-106183946D01*
X144904644Y-106072825D01*
X144881064Y-106010118D01*
X144862550Y-106004564D01*
X144828157Y-106054951D01*
X144803767Y-106165271D01*
X144797799Y-106230342D01*
X144786477Y-106365692D01*
X144771265Y-106471249D01*
X144763772Y-106501013D01*
X144739690Y-106542093D01*
X144706242Y-106507389D01*
X144702171Y-106501013D01*
X144669100Y-106407745D01*
X144662115Y-106345948D01*
X144644140Y-106260436D01*
X144618835Y-106226848D01*
X144587394Y-106219685D01*
X144561906Y-106254633D01*
X144534402Y-106347616D01*
X144513927Y-106436492D01*
X144485762Y-106513264D01*
X144456370Y-106515491D01*
X144430516Y-106453082D01*
X144412967Y-106335948D01*
X144408115Y-106216450D01*
X144401454Y-106079529D01*
X144379462Y-106010802D01*
X144343967Y-105994200D01*
X144303669Y-106031954D01*
G36*
X143553035Y-106010379D02*
X143484600Y-106045000D01*
X143456925Y-106115374D01*
X143439066Y-106249609D01*
X143433800Y-106399376D01*
X143433800Y-106702952D01*
X143709636Y-106708933D01*
X143860117Y-106709554D01*
X143948797Y-106698530D01*
X143998415Y-106668822D01*
X144031710Y-106613393D01*
X144033931Y-106608557D01*
X144055069Y-106515393D01*
X143934458Y-106515393D01*
X143932039Y-106562663D01*
X143887372Y-106581695D01*
X143780710Y-106579929D01*
X143765855Y-106578893D01*
X143640113Y-106559460D01*
X143579636Y-106519261D01*
X143568142Y-106489006D01*
X143570562Y-106441736D01*
X143615228Y-106422704D01*
X143721890Y-106424470D01*
X143736745Y-106425506D01*
X143862487Y-106444939D01*
X143922964Y-106485138D01*
X143934458Y-106515393D01*
X144055069Y-106515393D01*
X144060806Y-106490113D01*
X144034170Y-106396366D01*
X143993822Y-106332216D01*
X143931384Y-106300730D01*
X143819734Y-106290903D01*
X143773374Y-106290533D01*
X143646084Y-106286114D01*
X143582470Y-106267342D01*
X143561760Y-106225943D01*
X143560800Y-106205866D01*
X143575000Y-106150474D01*
X143632395Y-106125993D01*
X143730133Y-106121200D01*
X143847876Y-106110714D01*
X143896394Y-106075955D01*
X143899467Y-106057700D01*
X143862943Y-106018240D01*
X143773200Y-105996593D01*
X143659983Y-105993669D01*
X143553035Y-106010379D01*
X143553035Y-106010379D01*
G37*
X143553035Y-106010379D02*
X143484600Y-106045000D01*
X143456925Y-106115374D01*
X143439066Y-106249609D01*
X143433800Y-106399376D01*
X143433800Y-106702952D01*
X143709636Y-106708933D01*
X143860117Y-106709554D01*
X143948797Y-106698530D01*
X143998415Y-106668822D01*
X144031710Y-106613393D01*
X144033931Y-106608557D01*
X144055069Y-106515393D01*
X143934458Y-106515393D01*
X143932039Y-106562663D01*
X143887372Y-106581695D01*
X143780710Y-106579929D01*
X143765855Y-106578893D01*
X143640113Y-106559460D01*
X143579636Y-106519261D01*
X143568142Y-106489006D01*
X143570562Y-106441736D01*
X143615228Y-106422704D01*
X143721890Y-106424470D01*
X143736745Y-106425506D01*
X143862487Y-106444939D01*
X143922964Y-106485138D01*
X143934458Y-106515393D01*
X144055069Y-106515393D01*
X144060806Y-106490113D01*
X144034170Y-106396366D01*
X143993822Y-106332216D01*
X143931384Y-106300730D01*
X143819734Y-106290903D01*
X143773374Y-106290533D01*
X143646084Y-106286114D01*
X143582470Y-106267342D01*
X143561760Y-106225943D01*
X143560800Y-106205866D01*
X143575000Y-106150474D01*
X143632395Y-106125993D01*
X143730133Y-106121200D01*
X143847876Y-106110714D01*
X143896394Y-106075955D01*
X143899467Y-106057700D01*
X143862943Y-106018240D01*
X143773200Y-105996593D01*
X143659983Y-105993669D01*
X143553035Y-106010379D01*
G36*
X141105467Y-106118880D02*
X141103497Y-106329429D01*
X141096466Y-106468312D01*
X141082688Y-106548461D01*
X141060480Y-106582809D01*
X141044522Y-106586866D01*
X140995845Y-106546629D01*
X140970502Y-106428878D01*
X140970439Y-106428116D01*
X140950571Y-106316472D01*
X140921425Y-106282488D01*
X140890895Y-106320919D01*
X140866871Y-106426517D01*
X140859838Y-106501644D01*
X140847042Y-106713866D01*
X141164256Y-106713866D01*
X141319976Y-106709149D01*
X141440148Y-106696685D01*
X141501993Y-106679010D01*
X141504892Y-106675969D01*
X141493478Y-106633302D01*
X141420953Y-106599947D01*
X141313671Y-106586866D01*
X141275765Y-106579928D01*
X141251879Y-106548665D01*
X141238827Y-106477404D01*
X141233425Y-106350470D01*
X141232467Y-106187382D01*
X141232467Y-105787897D01*
X141370050Y-105774632D01*
X141475700Y-105752854D01*
X141503869Y-105721706D01*
X141459724Y-105690207D01*
X141348430Y-105667371D01*
X141306550Y-105663797D01*
X141105467Y-105650894D01*
X141105467Y-106118880D01*
X141105467Y-106118880D01*
G37*
X141105467Y-106118880D02*
X141103497Y-106329429D01*
X141096466Y-106468312D01*
X141082688Y-106548461D01*
X141060480Y-106582809D01*
X141044522Y-106586866D01*
X140995845Y-106546629D01*
X140970502Y-106428878D01*
X140970439Y-106428116D01*
X140950571Y-106316472D01*
X140921425Y-106282488D01*
X140890895Y-106320919D01*
X140866871Y-106426517D01*
X140859838Y-106501644D01*
X140847042Y-106713866D01*
X141164256Y-106713866D01*
X141319976Y-106709149D01*
X141440148Y-106696685D01*
X141501993Y-106679010D01*
X141504892Y-106675969D01*
X141493478Y-106633302D01*
X141420953Y-106599947D01*
X141313671Y-106586866D01*
X141275765Y-106579928D01*
X141251879Y-106548665D01*
X141238827Y-106477404D01*
X141233425Y-106350470D01*
X141232467Y-106187382D01*
X141232467Y-105787897D01*
X141370050Y-105774632D01*
X141475700Y-105752854D01*
X141503869Y-105721706D01*
X141459724Y-105690207D01*
X141348430Y-105667371D01*
X141306550Y-105663797D01*
X141105467Y-105650894D01*
X141105467Y-106118880D01*
G36*
X139262535Y-105673068D02*
X139174070Y-105703827D01*
X139161839Y-105714567D01*
X139137065Y-105793123D01*
X139124370Y-105953014D01*
X139123931Y-106191749D01*
X139124906Y-106233151D01*
X139136967Y-106692700D01*
X139435150Y-106704961D01*
X139587032Y-106707079D01*
X139704149Y-106701045D01*
X139762272Y-106688160D01*
X139763233Y-106687322D01*
X139780466Y-106627986D01*
X139790796Y-106506367D01*
X139794695Y-106344527D01*
X139792631Y-106164527D01*
X139785076Y-105988430D01*
X139772499Y-105838297D01*
X139763144Y-105782533D01*
X139666133Y-105782533D01*
X139666133Y-106586866D01*
X139242800Y-106586866D01*
X139242800Y-105782533D01*
X139666133Y-105782533D01*
X139763144Y-105782533D01*
X139755369Y-105736190D01*
X139742333Y-105706333D01*
X139665944Y-105673686D01*
X139539697Y-105657555D01*
X139394819Y-105657497D01*
X139262535Y-105673068D01*
X139262535Y-105673068D01*
G37*
X139262535Y-105673068D02*
X139174070Y-105703827D01*
X139161839Y-105714567D01*
X139137065Y-105793123D01*
X139124370Y-105953014D01*
X139123931Y-106191749D01*
X139124906Y-106233151D01*
X139136967Y-106692700D01*
X139435150Y-106704961D01*
X139587032Y-106707079D01*
X139704149Y-106701045D01*
X139762272Y-106688160D01*
X139763233Y-106687322D01*
X139780466Y-106627986D01*
X139790796Y-106506367D01*
X139794695Y-106344527D01*
X139792631Y-106164527D01*
X139785076Y-105988430D01*
X139772499Y-105838297D01*
X139763144Y-105782533D01*
X139666133Y-105782533D01*
X139666133Y-106586866D01*
X139242800Y-106586866D01*
X139242800Y-105782533D01*
X139666133Y-105782533D01*
X139763144Y-105782533D01*
X139755369Y-105736190D01*
X139742333Y-105706333D01*
X139665944Y-105673686D01*
X139539697Y-105657555D01*
X139394819Y-105657497D01*
X139262535Y-105673068D01*
G36*
X140210370Y-106344257D02*
X140177166Y-106392677D01*
X140174133Y-106438700D01*
X140187802Y-106514336D01*
X140245906Y-106542005D01*
X140301133Y-106544533D01*
X140391897Y-106533142D01*
X140425101Y-106484722D01*
X140428133Y-106438700D01*
X140414465Y-106363063D01*
X140356361Y-106335394D01*
X140301133Y-106332866D01*
X140210370Y-106344257D01*
X140210370Y-106344257D01*
G37*
X140210370Y-106344257D02*
X140177166Y-106392677D01*
X140174133Y-106438700D01*
X140187802Y-106514336D01*
X140245906Y-106542005D01*
X140301133Y-106544533D01*
X140391897Y-106533142D01*
X140425101Y-106484722D01*
X140428133Y-106438700D01*
X140414465Y-106363063D01*
X140356361Y-106335394D01*
X140301133Y-106332866D01*
X140210370Y-106344257D01*
G36*
X158906152Y-103498361D02*
X158746570Y-103505482D01*
X158634675Y-103520356D01*
X158552002Y-103545438D01*
X158480085Y-103583187D01*
X158479899Y-103583301D01*
X158352035Y-103689367D01*
X158307369Y-103796996D01*
X158346518Y-103904153D01*
X158373224Y-103934438D01*
X158462511Y-104023725D01*
X158642239Y-103926739D01*
X158742183Y-103879084D01*
X158840749Y-103851495D01*
X158963938Y-103840092D01*
X159137755Y-103840994D01*
X159202967Y-103843060D01*
X159384548Y-103851072D01*
X159497428Y-103862315D01*
X159557570Y-103880778D01*
X159580937Y-103910453D01*
X159583967Y-103938307D01*
X159566291Y-103981461D01*
X159506550Y-104032951D01*
X159394673Y-104099007D01*
X159220590Y-104185856D01*
X159070619Y-104255807D01*
X158816374Y-104373973D01*
X158628371Y-104466668D01*
X158495142Y-104542036D01*
X158405223Y-104608223D01*
X158347146Y-104673373D01*
X158309446Y-104745631D01*
X158286651Y-104812696D01*
X158265173Y-105015460D01*
X158313766Y-105211360D01*
X158424376Y-105374579D01*
X158475786Y-105418865D01*
X158538335Y-105457454D01*
X158614790Y-105484058D01*
X158722714Y-105501479D01*
X158879671Y-105512518D01*
X159103225Y-105519979D01*
X159110786Y-105520168D01*
X159335902Y-105524157D01*
X159496253Y-105521516D01*
X159611630Y-105510008D01*
X159701821Y-105487395D01*
X159786615Y-105451439D01*
X159806564Y-105441489D01*
X159943413Y-105345868D01*
X160014694Y-105237811D01*
X160013734Y-105130655D01*
X159985677Y-105083483D01*
X159892599Y-105029013D01*
X159778743Y-105030623D01*
X159688698Y-105085361D01*
X159618394Y-105118231D01*
X159487441Y-105138549D01*
X159317726Y-105147015D01*
X159131136Y-105144333D01*
X158949558Y-105131202D01*
X158794878Y-105108327D01*
X158688984Y-105076408D01*
X158657365Y-105052283D01*
X158633243Y-104988984D01*
X158649668Y-104927290D01*
X158714682Y-104860700D01*
X158836328Y-104782709D01*
X159022651Y-104686815D01*
X159228173Y-104590793D01*
X159496752Y-104464483D01*
X159695559Y-104359862D01*
X159834233Y-104269243D01*
X159922408Y-104184939D01*
X159969722Y-104099262D01*
X159985810Y-104004525D01*
X159986133Y-103986140D01*
X159955611Y-103792651D01*
X159871176Y-103637973D01*
X159754483Y-103547108D01*
X159659572Y-103524427D01*
X159496290Y-103507686D01*
X159280805Y-103498198D01*
X159131888Y-103496533D01*
X158906152Y-103498361D01*
X158906152Y-103498361D01*
G37*
X158906152Y-103498361D02*
X158746570Y-103505482D01*
X158634675Y-103520356D01*
X158552002Y-103545438D01*
X158480085Y-103583187D01*
X158479899Y-103583301D01*
X158352035Y-103689367D01*
X158307369Y-103796996D01*
X158346518Y-103904153D01*
X158373224Y-103934438D01*
X158462511Y-104023725D01*
X158642239Y-103926739D01*
X158742183Y-103879084D01*
X158840749Y-103851495D01*
X158963938Y-103840092D01*
X159137755Y-103840994D01*
X159202967Y-103843060D01*
X159384548Y-103851072D01*
X159497428Y-103862315D01*
X159557570Y-103880778D01*
X159580937Y-103910453D01*
X159583967Y-103938307D01*
X159566291Y-103981461D01*
X159506550Y-104032951D01*
X159394673Y-104099007D01*
X159220590Y-104185856D01*
X159070619Y-104255807D01*
X158816374Y-104373973D01*
X158628371Y-104466668D01*
X158495142Y-104542036D01*
X158405223Y-104608223D01*
X158347146Y-104673373D01*
X158309446Y-104745631D01*
X158286651Y-104812696D01*
X158265173Y-105015460D01*
X158313766Y-105211360D01*
X158424376Y-105374579D01*
X158475786Y-105418865D01*
X158538335Y-105457454D01*
X158614790Y-105484058D01*
X158722714Y-105501479D01*
X158879671Y-105512518D01*
X159103225Y-105519979D01*
X159110786Y-105520168D01*
X159335902Y-105524157D01*
X159496253Y-105521516D01*
X159611630Y-105510008D01*
X159701821Y-105487395D01*
X159786615Y-105451439D01*
X159806564Y-105441489D01*
X159943413Y-105345868D01*
X160014694Y-105237811D01*
X160013734Y-105130655D01*
X159985677Y-105083483D01*
X159892599Y-105029013D01*
X159778743Y-105030623D01*
X159688698Y-105085361D01*
X159618394Y-105118231D01*
X159487441Y-105138549D01*
X159317726Y-105147015D01*
X159131136Y-105144333D01*
X158949558Y-105131202D01*
X158794878Y-105108327D01*
X158688984Y-105076408D01*
X158657365Y-105052283D01*
X158633243Y-104988984D01*
X158649668Y-104927290D01*
X158714682Y-104860700D01*
X158836328Y-104782709D01*
X159022651Y-104686815D01*
X159228173Y-104590793D01*
X159496752Y-104464483D01*
X159695559Y-104359862D01*
X159834233Y-104269243D01*
X159922408Y-104184939D01*
X159969722Y-104099262D01*
X159985810Y-104004525D01*
X159986133Y-103986140D01*
X159955611Y-103792651D01*
X159871176Y-103637973D01*
X159754483Y-103547108D01*
X159659572Y-103524427D01*
X159496290Y-103507686D01*
X159280805Y-103498198D01*
X159131888Y-103496533D01*
X158906152Y-103498361D01*
G36*
X157055835Y-103497907D02*
X156927370Y-103506028D01*
X156834908Y-103526897D01*
X156754119Y-103566514D01*
X156660674Y-103630880D01*
X156640765Y-103645459D01*
X156508007Y-103761491D01*
X156414776Y-103879225D01*
X156391676Y-103926943D01*
X156365284Y-104046780D01*
X156350267Y-104205145D01*
X156346479Y-104376820D01*
X156353773Y-104536587D01*
X156372003Y-104659229D01*
X156396267Y-104715733D01*
X156456055Y-104738221D01*
X156586497Y-104753963D01*
X156792118Y-104763288D01*
X157077445Y-104766525D01*
X157094767Y-104766533D01*
X157342058Y-104767188D01*
X157517074Y-104770162D01*
X157632200Y-104776963D01*
X157699824Y-104789102D01*
X157732333Y-104808089D01*
X157742113Y-104835434D01*
X157742467Y-104845490D01*
X157717279Y-104932744D01*
X157656508Y-105033711D01*
X157654728Y-105035990D01*
X157615359Y-105082263D01*
X157572578Y-105113560D01*
X157510203Y-105132809D01*
X157412053Y-105142936D01*
X157261949Y-105146868D01*
X157043709Y-105147533D01*
X157038111Y-105147533D01*
X156828096Y-105150932D01*
X156643499Y-105160195D01*
X156503833Y-105173922D01*
X156428606Y-105190714D01*
X156427350Y-105191356D01*
X156356191Y-105268151D01*
X156347810Y-105366435D01*
X156399321Y-105454250D01*
X156454056Y-105487247D01*
X156542547Y-105503973D01*
X156692884Y-105515829D01*
X156883514Y-105522802D01*
X157092883Y-105524877D01*
X157299440Y-105522042D01*
X157481631Y-105514282D01*
X157617903Y-105501583D01*
X157678967Y-105488030D01*
X157756237Y-105440327D01*
X157865089Y-105354920D01*
X157943550Y-105285550D01*
X158123467Y-105118205D01*
X158123467Y-104537419D01*
X158120424Y-104317944D01*
X158115115Y-104194411D01*
X157742467Y-104194411D01*
X157742467Y-104385533D01*
X156726467Y-104385533D01*
X156726467Y-104219963D01*
X156742695Y-104089546D01*
X156805573Y-103991775D01*
X156856715Y-103944796D01*
X157010473Y-103864211D01*
X157204326Y-103830862D01*
X157407407Y-103845796D01*
X157588854Y-103910062D01*
X157604883Y-103919402D01*
X157691848Y-103982781D01*
X157731809Y-104054486D01*
X157742339Y-104169638D01*
X157742467Y-104194411D01*
X158115115Y-104194411D01*
X158112090Y-104124025D01*
X158099654Y-103973918D01*
X158084306Y-103885880D01*
X158080370Y-103876106D01*
X158023694Y-103806509D01*
X157923457Y-103712678D01*
X157841449Y-103646055D01*
X157746796Y-103576439D01*
X157668324Y-103532682D01*
X157582080Y-103508782D01*
X157464112Y-103498741D01*
X157290467Y-103496555D01*
X157244634Y-103496533D01*
X157055835Y-103497907D01*
X157055835Y-103497907D01*
G37*
X157055835Y-103497907D02*
X156927370Y-103506028D01*
X156834908Y-103526897D01*
X156754119Y-103566514D01*
X156660674Y-103630880D01*
X156640765Y-103645459D01*
X156508007Y-103761491D01*
X156414776Y-103879225D01*
X156391676Y-103926943D01*
X156365284Y-104046780D01*
X156350267Y-104205145D01*
X156346479Y-104376820D01*
X156353773Y-104536587D01*
X156372003Y-104659229D01*
X156396267Y-104715733D01*
X156456055Y-104738221D01*
X156586497Y-104753963D01*
X156792118Y-104763288D01*
X157077445Y-104766525D01*
X157094767Y-104766533D01*
X157342058Y-104767188D01*
X157517074Y-104770162D01*
X157632200Y-104776963D01*
X157699824Y-104789102D01*
X157732333Y-104808089D01*
X157742113Y-104835434D01*
X157742467Y-104845490D01*
X157717279Y-104932744D01*
X157656508Y-105033711D01*
X157654728Y-105035990D01*
X157615359Y-105082263D01*
X157572578Y-105113560D01*
X157510203Y-105132809D01*
X157412053Y-105142936D01*
X157261949Y-105146868D01*
X157043709Y-105147533D01*
X157038111Y-105147533D01*
X156828096Y-105150932D01*
X156643499Y-105160195D01*
X156503833Y-105173922D01*
X156428606Y-105190714D01*
X156427350Y-105191356D01*
X156356191Y-105268151D01*
X156347810Y-105366435D01*
X156399321Y-105454250D01*
X156454056Y-105487247D01*
X156542547Y-105503973D01*
X156692884Y-105515829D01*
X156883514Y-105522802D01*
X157092883Y-105524877D01*
X157299440Y-105522042D01*
X157481631Y-105514282D01*
X157617903Y-105501583D01*
X157678967Y-105488030D01*
X157756237Y-105440327D01*
X157865089Y-105354920D01*
X157943550Y-105285550D01*
X158123467Y-105118205D01*
X158123467Y-104537419D01*
X158120424Y-104317944D01*
X158115115Y-104194411D01*
X157742467Y-104194411D01*
X157742467Y-104385533D01*
X156726467Y-104385533D01*
X156726467Y-104219963D01*
X156742695Y-104089546D01*
X156805573Y-103991775D01*
X156856715Y-103944796D01*
X157010473Y-103864211D01*
X157204326Y-103830862D01*
X157407407Y-103845796D01*
X157588854Y-103910062D01*
X157604883Y-103919402D01*
X157691848Y-103982781D01*
X157731809Y-104054486D01*
X157742339Y-104169638D01*
X157742467Y-104194411D01*
X158115115Y-104194411D01*
X158112090Y-104124025D01*
X158099654Y-103973918D01*
X158084306Y-103885880D01*
X158080370Y-103876106D01*
X158023694Y-103806509D01*
X157923457Y-103712678D01*
X157841449Y-103646055D01*
X157746796Y-103576439D01*
X157668324Y-103532682D01*
X157582080Y-103508782D01*
X157464112Y-103498741D01*
X157290467Y-103496555D01*
X157244634Y-103496533D01*
X157055835Y-103497907D01*
G36*
X154914559Y-103499148D02*
X154809247Y-103512687D01*
X154733830Y-103545689D01*
X154660939Y-103606693D01*
X154631686Y-103635514D01*
X154492705Y-103774495D01*
X154461125Y-104574625D01*
X154450415Y-104878046D01*
X154446444Y-105107557D01*
X154450732Y-105273751D01*
X154464798Y-105387224D01*
X154490160Y-105458571D01*
X154528337Y-105498385D01*
X154580849Y-105517263D01*
X154596661Y-105519992D01*
X154664520Y-105520329D01*
X154716230Y-105491725D01*
X154754422Y-105424376D01*
X154781725Y-105308480D01*
X154800769Y-105134232D01*
X154814184Y-104891828D01*
X154821467Y-104681946D01*
X154832585Y-104388129D01*
X154846444Y-104170758D01*
X154863881Y-104021630D01*
X154885733Y-103932546D01*
X154900734Y-103905189D01*
X155007258Y-103840226D01*
X155160050Y-103845321D01*
X155358109Y-103920288D01*
X155537540Y-104023396D01*
X155831145Y-104211592D01*
X155844889Y-104829355D01*
X155852200Y-105081940D01*
X155862039Y-105261899D01*
X155875820Y-105381264D01*
X155894956Y-105452069D01*
X155920859Y-105486347D01*
X155922133Y-105487177D01*
X156031260Y-105525313D01*
X156128536Y-105483540D01*
X156151943Y-105462009D01*
X156174715Y-105427869D01*
X156191768Y-105369875D01*
X156203877Y-105277004D01*
X156211812Y-105138230D01*
X156216348Y-104942528D01*
X156218256Y-104678876D01*
X156218467Y-104512971D01*
X156217275Y-104244730D01*
X156213946Y-104002791D01*
X156208852Y-103800854D01*
X156202362Y-103652619D01*
X156194848Y-103571784D01*
X156192771Y-103563495D01*
X156132124Y-103511746D01*
X156043697Y-103496533D01*
X155939406Y-103519180D01*
X155875160Y-103602049D01*
X155870321Y-103612950D01*
X155832399Y-103699589D01*
X155812339Y-103742395D01*
X155775355Y-103729218D01*
X155687616Y-103681742D01*
X155593978Y-103625978D01*
X155467444Y-103555237D01*
X155355027Y-103515993D01*
X155221459Y-103499414D01*
X155077135Y-103496533D01*
X154914559Y-103499148D01*
X154914559Y-103499148D01*
G37*
X154914559Y-103499148D02*
X154809247Y-103512687D01*
X154733830Y-103545689D01*
X154660939Y-103606693D01*
X154631686Y-103635514D01*
X154492705Y-103774495D01*
X154461125Y-104574625D01*
X154450415Y-104878046D01*
X154446444Y-105107557D01*
X154450732Y-105273751D01*
X154464798Y-105387224D01*
X154490160Y-105458571D01*
X154528337Y-105498385D01*
X154580849Y-105517263D01*
X154596661Y-105519992D01*
X154664520Y-105520329D01*
X154716230Y-105491725D01*
X154754422Y-105424376D01*
X154781725Y-105308480D01*
X154800769Y-105134232D01*
X154814184Y-104891828D01*
X154821467Y-104681946D01*
X154832585Y-104388129D01*
X154846444Y-104170758D01*
X154863881Y-104021630D01*
X154885733Y-103932546D01*
X154900734Y-103905189D01*
X155007258Y-103840226D01*
X155160050Y-103845321D01*
X155358109Y-103920288D01*
X155537540Y-104023396D01*
X155831145Y-104211592D01*
X155844889Y-104829355D01*
X155852200Y-105081940D01*
X155862039Y-105261899D01*
X155875820Y-105381264D01*
X155894956Y-105452069D01*
X155920859Y-105486347D01*
X155922133Y-105487177D01*
X156031260Y-105525313D01*
X156128536Y-105483540D01*
X156151943Y-105462009D01*
X156174715Y-105427869D01*
X156191768Y-105369875D01*
X156203877Y-105277004D01*
X156211812Y-105138230D01*
X156216348Y-104942528D01*
X156218256Y-104678876D01*
X156218467Y-104512971D01*
X156217275Y-104244730D01*
X156213946Y-104002791D01*
X156208852Y-103800854D01*
X156202362Y-103652619D01*
X156194848Y-103571784D01*
X156192771Y-103563495D01*
X156132124Y-103511746D01*
X156043697Y-103496533D01*
X155939406Y-103519180D01*
X155875160Y-103602049D01*
X155870321Y-103612950D01*
X155832399Y-103699589D01*
X155812339Y-103742395D01*
X155775355Y-103729218D01*
X155687616Y-103681742D01*
X155593978Y-103625978D01*
X155467444Y-103555237D01*
X155355027Y-103515993D01*
X155221459Y-103499414D01*
X155077135Y-103496533D01*
X154914559Y-103499148D01*
G36*
X153178765Y-103497244D02*
X153015890Y-103501097D01*
X152904677Y-103510668D01*
X152828626Y-103528534D01*
X152771236Y-103557272D01*
X152716005Y-103599460D01*
X152708048Y-103606129D01*
X152608413Y-103722002D01*
X152578370Y-103833992D01*
X152619132Y-103926983D01*
X152679008Y-103967795D01*
X152763567Y-103989992D01*
X152846112Y-103961753D01*
X152903286Y-103922917D01*
X152969366Y-103880778D01*
X153042548Y-103855016D01*
X153143510Y-103842640D01*
X153292930Y-103840658D01*
X153447662Y-103844147D01*
X153640490Y-103851179D01*
X153763842Y-103860999D01*
X153832906Y-103876939D01*
X153862872Y-103902325D01*
X153868967Y-103936493D01*
X153850690Y-103978144D01*
X153789486Y-104029075D01*
X153675797Y-104094993D01*
X153500063Y-104181604D01*
X153318633Y-104265000D01*
X153045268Y-104393179D01*
X152842096Y-104502216D01*
X152699391Y-104600908D01*
X152607421Y-104698054D01*
X152556457Y-104802450D01*
X152536771Y-104922894D01*
X152535467Y-104973158D01*
X152570182Y-105185834D01*
X152674248Y-105349970D01*
X152847550Y-105465387D01*
X152858715Y-105470163D01*
X152967678Y-105495936D01*
X153136459Y-105513810D01*
X153340550Y-105523470D01*
X153555443Y-105524601D01*
X153756629Y-105516885D01*
X153919601Y-105500008D01*
X153990916Y-105484742D01*
X154117105Y-105425234D01*
X154228312Y-105336821D01*
X154299852Y-105241990D01*
X154313467Y-105190954D01*
X154279538Y-105089958D01*
X154193349Y-105033881D01*
X154078300Y-105029634D01*
X153957788Y-105084130D01*
X153956126Y-105085379D01*
X153883214Y-105117486D01*
X153758503Y-105137177D01*
X153568971Y-105146028D01*
X153448126Y-105146885D01*
X153233945Y-105144361D01*
X153088762Y-105135014D01*
X152996960Y-105115019D01*
X152942923Y-105080553D01*
X152911034Y-105027791D01*
X152905703Y-105014064D01*
X152897213Y-104958601D01*
X152920958Y-104904712D01*
X152986205Y-104845773D01*
X153102224Y-104775159D01*
X153278281Y-104686245D01*
X153523512Y-104572468D01*
X153737821Y-104470469D01*
X153922797Y-104373449D01*
X154062869Y-104290124D01*
X154142466Y-104229210D01*
X154147928Y-104222927D01*
X154212928Y-104078349D01*
X154228800Y-103932067D01*
X154214914Y-103789240D01*
X154161259Y-103682886D01*
X154105057Y-103620276D01*
X153981313Y-103496533D01*
X153409805Y-103496533D01*
X153178765Y-103497244D01*
X153178765Y-103497244D01*
G37*
X153178765Y-103497244D02*
X153015890Y-103501097D01*
X152904677Y-103510668D01*
X152828626Y-103528534D01*
X152771236Y-103557272D01*
X152716005Y-103599460D01*
X152708048Y-103606129D01*
X152608413Y-103722002D01*
X152578370Y-103833992D01*
X152619132Y-103926983D01*
X152679008Y-103967795D01*
X152763567Y-103989992D01*
X152846112Y-103961753D01*
X152903286Y-103922917D01*
X152969366Y-103880778D01*
X153042548Y-103855016D01*
X153143510Y-103842640D01*
X153292930Y-103840658D01*
X153447662Y-103844147D01*
X153640490Y-103851179D01*
X153763842Y-103860999D01*
X153832906Y-103876939D01*
X153862872Y-103902325D01*
X153868967Y-103936493D01*
X153850690Y-103978144D01*
X153789486Y-104029075D01*
X153675797Y-104094993D01*
X153500063Y-104181604D01*
X153318633Y-104265000D01*
X153045268Y-104393179D01*
X152842096Y-104502216D01*
X152699391Y-104600908D01*
X152607421Y-104698054D01*
X152556457Y-104802450D01*
X152536771Y-104922894D01*
X152535467Y-104973158D01*
X152570182Y-105185834D01*
X152674248Y-105349970D01*
X152847550Y-105465387D01*
X152858715Y-105470163D01*
X152967678Y-105495936D01*
X153136459Y-105513810D01*
X153340550Y-105523470D01*
X153555443Y-105524601D01*
X153756629Y-105516885D01*
X153919601Y-105500008D01*
X153990916Y-105484742D01*
X154117105Y-105425234D01*
X154228312Y-105336821D01*
X154299852Y-105241990D01*
X154313467Y-105190954D01*
X154279538Y-105089958D01*
X154193349Y-105033881D01*
X154078300Y-105029634D01*
X153957788Y-105084130D01*
X153956126Y-105085379D01*
X153883214Y-105117486D01*
X153758503Y-105137177D01*
X153568971Y-105146028D01*
X153448126Y-105146885D01*
X153233945Y-105144361D01*
X153088762Y-105135014D01*
X152996960Y-105115019D01*
X152942923Y-105080553D01*
X152911034Y-105027791D01*
X152905703Y-105014064D01*
X152897213Y-104958601D01*
X152920958Y-104904712D01*
X152986205Y-104845773D01*
X153102224Y-104775159D01*
X153278281Y-104686245D01*
X153523512Y-104572468D01*
X153737821Y-104470469D01*
X153922797Y-104373449D01*
X154062869Y-104290124D01*
X154142466Y-104229210D01*
X154147928Y-104222927D01*
X154212928Y-104078349D01*
X154228800Y-103932067D01*
X154214914Y-103789240D01*
X154161259Y-103682886D01*
X154105057Y-103620276D01*
X153981313Y-103496533D01*
X153409805Y-103496533D01*
X153178765Y-103497244D01*
G36*
X151328832Y-103498131D02*
X151196516Y-103506204D01*
X151102982Y-103525671D01*
X151025296Y-103561452D01*
X150940522Y-103618467D01*
X150934678Y-103622693D01*
X150786230Y-103742316D01*
X150690478Y-103858533D01*
X150636520Y-103995133D01*
X150613455Y-104175902D01*
X150609858Y-104331411D01*
X150613667Y-104520752D01*
X150627429Y-104640910D01*
X150653568Y-104707035D01*
X150672800Y-104725060D01*
X150735731Y-104739119D01*
X150866845Y-104751119D01*
X151049667Y-104760111D01*
X151267720Y-104765148D01*
X151381883Y-104765885D01*
X151629355Y-104766910D01*
X151804442Y-104770356D01*
X151919424Y-104777647D01*
X151986577Y-104790205D01*
X152018178Y-104809455D01*
X152026506Y-104836818D01*
X152026526Y-104840616D01*
X152001122Y-104925972D01*
X151944409Y-105020533D01*
X151907881Y-105063032D01*
X151864474Y-105093031D01*
X151799040Y-105113438D01*
X151696432Y-105127167D01*
X151541502Y-105137127D01*
X151319104Y-105146230D01*
X151283606Y-105147533D01*
X151050041Y-105156989D01*
X150886483Y-105167111D01*
X150778294Y-105180488D01*
X150710835Y-105199710D01*
X150669469Y-105227366D01*
X150642953Y-105260846D01*
X150606337Y-105334204D01*
X150625849Y-105392799D01*
X150669697Y-105440763D01*
X150712527Y-105476695D01*
X150766829Y-105501268D01*
X150848270Y-105516596D01*
X150972519Y-105524798D01*
X151155244Y-105527987D01*
X151318383Y-105528375D01*
X151557402Y-105526582D01*
X151728414Y-105520083D01*
X151848035Y-105506963D01*
X151932880Y-105485306D01*
X151999563Y-105453198D01*
X152006300Y-105449072D01*
X152120027Y-105364569D01*
X152238992Y-105256776D01*
X152260300Y-105234784D01*
X152387300Y-105099640D01*
X152387300Y-104219963D01*
X152027467Y-104219963D01*
X152027467Y-104385533D01*
X150969133Y-104385533D01*
X150969133Y-104219963D01*
X150985361Y-104089546D01*
X151048239Y-103991775D01*
X151099382Y-103944796D01*
X151188468Y-103881675D01*
X151284514Y-103848360D01*
X151419229Y-103836139D01*
X151498300Y-103835200D01*
X151659860Y-103840940D01*
X151768898Y-103863968D01*
X151857124Y-103912997D01*
X151897219Y-103944796D01*
X151989071Y-104042713D01*
X152024362Y-104152339D01*
X152027467Y-104219963D01*
X152387300Y-104219963D01*
X152387300Y-103910682D01*
X152162097Y-103703607D01*
X151936895Y-103496533D01*
X151522866Y-103496533D01*
X151328832Y-103498131D01*
X151328832Y-103498131D01*
G37*
X151328832Y-103498131D02*
X151196516Y-103506204D01*
X151102982Y-103525671D01*
X151025296Y-103561452D01*
X150940522Y-103618467D01*
X150934678Y-103622693D01*
X150786230Y-103742316D01*
X150690478Y-103858533D01*
X150636520Y-103995133D01*
X150613455Y-104175902D01*
X150609858Y-104331411D01*
X150613667Y-104520752D01*
X150627429Y-104640910D01*
X150653568Y-104707035D01*
X150672800Y-104725060D01*
X150735731Y-104739119D01*
X150866845Y-104751119D01*
X151049667Y-104760111D01*
X151267720Y-104765148D01*
X151381883Y-104765885D01*
X151629355Y-104766910D01*
X151804442Y-104770356D01*
X151919424Y-104777647D01*
X151986577Y-104790205D01*
X152018178Y-104809455D01*
X152026506Y-104836818D01*
X152026526Y-104840616D01*
X152001122Y-104925972D01*
X151944409Y-105020533D01*
X151907881Y-105063032D01*
X151864474Y-105093031D01*
X151799040Y-105113438D01*
X151696432Y-105127167D01*
X151541502Y-105137127D01*
X151319104Y-105146230D01*
X151283606Y-105147533D01*
X151050041Y-105156989D01*
X150886483Y-105167111D01*
X150778294Y-105180488D01*
X150710835Y-105199710D01*
X150669469Y-105227366D01*
X150642953Y-105260846D01*
X150606337Y-105334204D01*
X150625849Y-105392799D01*
X150669697Y-105440763D01*
X150712527Y-105476695D01*
X150766829Y-105501268D01*
X150848270Y-105516596D01*
X150972519Y-105524798D01*
X151155244Y-105527987D01*
X151318383Y-105528375D01*
X151557402Y-105526582D01*
X151728414Y-105520083D01*
X151848035Y-105506963D01*
X151932880Y-105485306D01*
X151999563Y-105453198D01*
X152006300Y-105449072D01*
X152120027Y-105364569D01*
X152238992Y-105256776D01*
X152260300Y-105234784D01*
X152387300Y-105099640D01*
X152387300Y-104219963D01*
X152027467Y-104219963D01*
X152027467Y-104385533D01*
X150969133Y-104385533D01*
X150969133Y-104219963D01*
X150985361Y-104089546D01*
X151048239Y-103991775D01*
X151099382Y-103944796D01*
X151188468Y-103881675D01*
X151284514Y-103848360D01*
X151419229Y-103836139D01*
X151498300Y-103835200D01*
X151659860Y-103840940D01*
X151768898Y-103863968D01*
X151857124Y-103912997D01*
X151897219Y-103944796D01*
X151989071Y-104042713D01*
X152024362Y-104152339D01*
X152027467Y-104219963D01*
X152387300Y-104219963D01*
X152387300Y-103910682D01*
X152162097Y-103703607D01*
X151936895Y-103496533D01*
X151522866Y-103496533D01*
X151328832Y-103498131D01*
G36*
X150230077Y-102753689D02*
X150173331Y-102787754D01*
X150151846Y-102853132D01*
X150132845Y-102983013D01*
X150118766Y-103157233D01*
X150113454Y-103283038D01*
X150101300Y-103720820D01*
X149968189Y-103608676D01*
X149891736Y-103551547D01*
X149813682Y-103517862D01*
X149708649Y-103501587D01*
X149551258Y-103496688D01*
X149496517Y-103496533D01*
X149322950Y-103498950D01*
X149206782Y-103511097D01*
X149120779Y-103540322D01*
X149037707Y-103593968D01*
X148986426Y-103634116D01*
X148862045Y-103745591D01*
X148776364Y-103858560D01*
X148722597Y-103992140D01*
X148693958Y-104165447D01*
X148683662Y-104397596D01*
X148683133Y-104488540D01*
X148689131Y-104751059D01*
X148711253Y-104947670D01*
X148755693Y-105096549D01*
X148828646Y-105215869D01*
X148936307Y-105323805D01*
X148980026Y-105359643D01*
X149113566Y-105451091D01*
X149244319Y-105499404D01*
X149407267Y-105520659D01*
X149615131Y-105526705D01*
X149768484Y-105504984D01*
X149894834Y-105448722D01*
X149992204Y-105376615D01*
X150074971Y-105311126D01*
X150112606Y-105298974D01*
X150122345Y-105336237D01*
X150122467Y-105346970D01*
X150154658Y-105451925D01*
X150232846Y-105514739D01*
X150329457Y-105523733D01*
X150414228Y-105470543D01*
X150428942Y-105421980D01*
X150440119Y-105313019D01*
X150447882Y-105139016D01*
X150452354Y-104895327D01*
X150453659Y-104577308D01*
X150453293Y-104493523D01*
X150121819Y-104493523D01*
X150118693Y-104646249D01*
X150101042Y-104748961D01*
X150055006Y-104829784D01*
X149966726Y-104916845D01*
X149875045Y-104994335D01*
X149748728Y-105088381D01*
X149640180Y-105134293D01*
X149511158Y-105147429D01*
X149493612Y-105147533D01*
X149341154Y-105133177D01*
X149229297Y-105080830D01*
X149180118Y-105039986D01*
X149128027Y-104987574D01*
X149094448Y-104933868D01*
X149075325Y-104859753D01*
X149066600Y-104746117D01*
X149064219Y-104573843D01*
X149064133Y-104493416D01*
X149064906Y-104296408D01*
X149070229Y-104165085D01*
X149084607Y-104080468D01*
X149112547Y-104023575D01*
X149158556Y-103975426D01*
X149194382Y-103944796D01*
X149332143Y-103861179D01*
X149495846Y-103835268D01*
X149507070Y-103835200D01*
X149614172Y-103842669D01*
X149702993Y-103874144D01*
X149800223Y-103943222D01*
X149905988Y-104038440D01*
X150019285Y-104147944D01*
X150083940Y-104228631D01*
X150113523Y-104309115D01*
X150121604Y-104418009D01*
X150121819Y-104493523D01*
X150453293Y-104493523D01*
X150451921Y-104180315D01*
X150451161Y-104084126D01*
X150439967Y-102755700D01*
X150330510Y-102742976D01*
X150230077Y-102753689D01*
X150230077Y-102753689D01*
G37*
X150230077Y-102753689D02*
X150173331Y-102787754D01*
X150151846Y-102853132D01*
X150132845Y-102983013D01*
X150118766Y-103157233D01*
X150113454Y-103283038D01*
X150101300Y-103720820D01*
X149968189Y-103608676D01*
X149891736Y-103551547D01*
X149813682Y-103517862D01*
X149708649Y-103501587D01*
X149551258Y-103496688D01*
X149496517Y-103496533D01*
X149322950Y-103498950D01*
X149206782Y-103511097D01*
X149120779Y-103540322D01*
X149037707Y-103593968D01*
X148986426Y-103634116D01*
X148862045Y-103745591D01*
X148776364Y-103858560D01*
X148722597Y-103992140D01*
X148693958Y-104165447D01*
X148683662Y-104397596D01*
X148683133Y-104488540D01*
X148689131Y-104751059D01*
X148711253Y-104947670D01*
X148755693Y-105096549D01*
X148828646Y-105215869D01*
X148936307Y-105323805D01*
X148980026Y-105359643D01*
X149113566Y-105451091D01*
X149244319Y-105499404D01*
X149407267Y-105520659D01*
X149615131Y-105526705D01*
X149768484Y-105504984D01*
X149894834Y-105448722D01*
X149992204Y-105376615D01*
X150074971Y-105311126D01*
X150112606Y-105298974D01*
X150122345Y-105336237D01*
X150122467Y-105346970D01*
X150154658Y-105451925D01*
X150232846Y-105514739D01*
X150329457Y-105523733D01*
X150414228Y-105470543D01*
X150428942Y-105421980D01*
X150440119Y-105313019D01*
X150447882Y-105139016D01*
X150452354Y-104895327D01*
X150453659Y-104577308D01*
X150453293Y-104493523D01*
X150121819Y-104493523D01*
X150118693Y-104646249D01*
X150101042Y-104748961D01*
X150055006Y-104829784D01*
X149966726Y-104916845D01*
X149875045Y-104994335D01*
X149748728Y-105088381D01*
X149640180Y-105134293D01*
X149511158Y-105147429D01*
X149493612Y-105147533D01*
X149341154Y-105133177D01*
X149229297Y-105080830D01*
X149180118Y-105039986D01*
X149128027Y-104987574D01*
X149094448Y-104933868D01*
X149075325Y-104859753D01*
X149066600Y-104746117D01*
X149064219Y-104573843D01*
X149064133Y-104493416D01*
X149064906Y-104296408D01*
X149070229Y-104165085D01*
X149084607Y-104080468D01*
X149112547Y-104023575D01*
X149158556Y-103975426D01*
X149194382Y-103944796D01*
X149332143Y-103861179D01*
X149495846Y-103835268D01*
X149507070Y-103835200D01*
X149614172Y-103842669D01*
X149702993Y-103874144D01*
X149800223Y-103943222D01*
X149905988Y-104038440D01*
X150019285Y-104147944D01*
X150083940Y-104228631D01*
X150113523Y-104309115D01*
X150121604Y-104418009D01*
X150121819Y-104493523D01*
X150453293Y-104493523D01*
X150451921Y-104180315D01*
X150451161Y-104084126D01*
X150439967Y-102755700D01*
X150330510Y-102742976D01*
X150230077Y-102753689D01*
G36*
X147692796Y-103496691D02*
X147464195Y-103503734D01*
X147294581Y-103530621D01*
X147158978Y-103586318D01*
X147032408Y-103679789D01*
X146942055Y-103766156D01*
X146859102Y-103875119D01*
X146807884Y-104011808D01*
X146782923Y-104196486D01*
X146778133Y-104372441D01*
X146779308Y-104512333D01*
X146790501Y-104614462D01*
X146823216Y-104684768D01*
X146888959Y-104729187D01*
X146999233Y-104753658D01*
X147165543Y-104764119D01*
X147399393Y-104766509D01*
X147541623Y-104766533D01*
X147813380Y-104767667D01*
X148008636Y-104773480D01*
X148135554Y-104787585D01*
X148202291Y-104813594D01*
X148217009Y-104855123D01*
X148187868Y-104915784D01*
X148123028Y-104999191D01*
X148107870Y-105017285D01*
X147998274Y-105147533D01*
X147454727Y-105147533D01*
X147218561Y-105149509D01*
X147052842Y-105156464D01*
X146943421Y-105169943D01*
X146876151Y-105191487D01*
X146844657Y-105214057D01*
X146783868Y-105311779D01*
X146803558Y-105416140D01*
X146819489Y-105443866D01*
X146852861Y-105470344D01*
X146922651Y-105489855D01*
X147040990Y-105503846D01*
X147220008Y-105513765D01*
X147465044Y-105520909D01*
X148070539Y-105534452D01*
X148270239Y-105381970D01*
X148386706Y-105285210D01*
X148477524Y-105195665D01*
X148513036Y-105148960D01*
X148530949Y-105072132D01*
X148543966Y-104931460D01*
X148552031Y-104747627D01*
X148555091Y-104541317D01*
X148553092Y-104333213D01*
X148549331Y-104233184D01*
X148217467Y-104233184D01*
X148217467Y-104385533D01*
X147159133Y-104385533D01*
X147159133Y-104219963D01*
X147175361Y-104089546D01*
X147238239Y-103991775D01*
X147289382Y-103944796D01*
X147378798Y-103881510D01*
X147475288Y-103848199D01*
X147610715Y-103836081D01*
X147687071Y-103835200D01*
X147842913Y-103839934D01*
X147945719Y-103860582D01*
X148026888Y-103906810D01*
X148085990Y-103958017D01*
X148180965Y-104071270D01*
X148215911Y-104191848D01*
X148217467Y-104233184D01*
X148549331Y-104233184D01*
X148545977Y-104144000D01*
X148533694Y-103994361D01*
X148516315Y-103905315D01*
X148461199Y-103822277D01*
X148361268Y-103718978D01*
X148277394Y-103648559D01*
X148179442Y-103576586D01*
X148098861Y-103531899D01*
X148010677Y-103508012D01*
X147889921Y-103498437D01*
X147711619Y-103496687D01*
X147692796Y-103496691D01*
X147692796Y-103496691D01*
G37*
X147692796Y-103496691D02*
X147464195Y-103503734D01*
X147294581Y-103530621D01*
X147158978Y-103586318D01*
X147032408Y-103679789D01*
X146942055Y-103766156D01*
X146859102Y-103875119D01*
X146807884Y-104011808D01*
X146782923Y-104196486D01*
X146778133Y-104372441D01*
X146779308Y-104512333D01*
X146790501Y-104614462D01*
X146823216Y-104684768D01*
X146888959Y-104729187D01*
X146999233Y-104753658D01*
X147165543Y-104764119D01*
X147399393Y-104766509D01*
X147541623Y-104766533D01*
X147813380Y-104767667D01*
X148008636Y-104773480D01*
X148135554Y-104787585D01*
X148202291Y-104813594D01*
X148217009Y-104855123D01*
X148187868Y-104915784D01*
X148123028Y-104999191D01*
X148107870Y-105017285D01*
X147998274Y-105147533D01*
X147454727Y-105147533D01*
X147218561Y-105149509D01*
X147052842Y-105156464D01*
X146943421Y-105169943D01*
X146876151Y-105191487D01*
X146844657Y-105214057D01*
X146783868Y-105311779D01*
X146803558Y-105416140D01*
X146819489Y-105443866D01*
X146852861Y-105470344D01*
X146922651Y-105489855D01*
X147040990Y-105503846D01*
X147220008Y-105513765D01*
X147465044Y-105520909D01*
X148070539Y-105534452D01*
X148270239Y-105381970D01*
X148386706Y-105285210D01*
X148477524Y-105195665D01*
X148513036Y-105148960D01*
X148530949Y-105072132D01*
X148543966Y-104931460D01*
X148552031Y-104747627D01*
X148555091Y-104541317D01*
X148553092Y-104333213D01*
X148549331Y-104233184D01*
X148217467Y-104233184D01*
X148217467Y-104385533D01*
X147159133Y-104385533D01*
X147159133Y-104219963D01*
X147175361Y-104089546D01*
X147238239Y-103991775D01*
X147289382Y-103944796D01*
X147378798Y-103881510D01*
X147475288Y-103848199D01*
X147610715Y-103836081D01*
X147687071Y-103835200D01*
X147842913Y-103839934D01*
X147945719Y-103860582D01*
X148026888Y-103906810D01*
X148085990Y-103958017D01*
X148180965Y-104071270D01*
X148215911Y-104191848D01*
X148217467Y-104233184D01*
X148549331Y-104233184D01*
X148545977Y-104144000D01*
X148533694Y-103994361D01*
X148516315Y-103905315D01*
X148461199Y-103822277D01*
X148361268Y-103718978D01*
X148277394Y-103648559D01*
X148179442Y-103576586D01*
X148098861Y-103531899D01*
X148010677Y-103508012D01*
X147889921Y-103498437D01*
X147711619Y-103496687D01*
X147692796Y-103496691D01*
G36*
X145352308Y-103498987D02*
X145245788Y-103511781D01*
X145170531Y-103543066D01*
X145099849Y-103600989D01*
X145066208Y-103634116D01*
X144929083Y-103771700D01*
X144900574Y-104567235D01*
X144891062Y-104879691D01*
X144888796Y-105117462D01*
X144895226Y-105290332D01*
X144911800Y-105408084D01*
X144939968Y-105480501D01*
X144981180Y-105517366D01*
X145036884Y-105528464D01*
X145042980Y-105528533D01*
X145110314Y-105515617D01*
X145162037Y-105470384D01*
X145200622Y-105383105D01*
X145228542Y-105244049D01*
X145248269Y-105043489D01*
X145262276Y-104771694D01*
X145266584Y-104648608D01*
X145279518Y-104345511D01*
X145296431Y-104116790D01*
X145316987Y-103965895D01*
X145340052Y-103897191D01*
X145442568Y-103837761D01*
X145594406Y-103844045D01*
X145792317Y-103915387D01*
X145999792Y-104030081D01*
X146312467Y-104224963D01*
X146312467Y-104825948D01*
X146314671Y-105087383D01*
X146323131Y-105275732D01*
X146340622Y-105402506D01*
X146369918Y-105479213D01*
X146413793Y-105517363D01*
X146475020Y-105528467D01*
X146481800Y-105528533D01*
X146570689Y-105500290D01*
X146600333Y-105477733D01*
X146615397Y-105421707D01*
X146628036Y-105296231D01*
X146638142Y-105116489D01*
X146645608Y-104897667D01*
X146650323Y-104654948D01*
X146652181Y-104403518D01*
X146651071Y-104158562D01*
X146646886Y-103935263D01*
X146639517Y-103748808D01*
X146628856Y-103614379D01*
X146614794Y-103547163D01*
X146614142Y-103546060D01*
X146548129Y-103508549D01*
X146456040Y-103503726D01*
X146362970Y-103531848D01*
X146324687Y-103604513D01*
X146320238Y-103634116D01*
X146304577Y-103711510D01*
X146270684Y-103741890D01*
X146203429Y-103724705D01*
X146087680Y-103659400D01*
X146030482Y-103623533D01*
X145911856Y-103555202D01*
X145805049Y-103516746D01*
X145676797Y-103499942D01*
X145516779Y-103496533D01*
X145352308Y-103498987D01*
X145352308Y-103498987D01*
G37*
X145352308Y-103498987D02*
X145245788Y-103511781D01*
X145170531Y-103543066D01*
X145099849Y-103600989D01*
X145066208Y-103634116D01*
X144929083Y-103771700D01*
X144900574Y-104567235D01*
X144891062Y-104879691D01*
X144888796Y-105117462D01*
X144895226Y-105290332D01*
X144911800Y-105408084D01*
X144939968Y-105480501D01*
X144981180Y-105517366D01*
X145036884Y-105528464D01*
X145042980Y-105528533D01*
X145110314Y-105515617D01*
X145162037Y-105470384D01*
X145200622Y-105383105D01*
X145228542Y-105244049D01*
X145248269Y-105043489D01*
X145262276Y-104771694D01*
X145266584Y-104648608D01*
X145279518Y-104345511D01*
X145296431Y-104116790D01*
X145316987Y-103965895D01*
X145340052Y-103897191D01*
X145442568Y-103837761D01*
X145594406Y-103844045D01*
X145792317Y-103915387D01*
X145999792Y-104030081D01*
X146312467Y-104224963D01*
X146312467Y-104825948D01*
X146314671Y-105087383D01*
X146323131Y-105275732D01*
X146340622Y-105402506D01*
X146369918Y-105479213D01*
X146413793Y-105517363D01*
X146475020Y-105528467D01*
X146481800Y-105528533D01*
X146570689Y-105500290D01*
X146600333Y-105477733D01*
X146615397Y-105421707D01*
X146628036Y-105296231D01*
X146638142Y-105116489D01*
X146645608Y-104897667D01*
X146650323Y-104654948D01*
X146652181Y-104403518D01*
X146651071Y-104158562D01*
X146646886Y-103935263D01*
X146639517Y-103748808D01*
X146628856Y-103614379D01*
X146614794Y-103547163D01*
X146614142Y-103546060D01*
X146548129Y-103508549D01*
X146456040Y-103503726D01*
X146362970Y-103531848D01*
X146324687Y-103604513D01*
X146320238Y-103634116D01*
X146304577Y-103711510D01*
X146270684Y-103741890D01*
X146203429Y-103724705D01*
X146087680Y-103659400D01*
X146030482Y-103623533D01*
X145911856Y-103555202D01*
X145805049Y-103516746D01*
X145676797Y-103499942D01*
X145516779Y-103496533D01*
X145352308Y-103498987D01*
G36*
X143080141Y-102740279D02*
X143043309Y-102764778D01*
X143015588Y-102817131D01*
X142995685Y-102905579D01*
X142982305Y-103038366D01*
X142974154Y-103223735D01*
X142969938Y-103469929D01*
X142968363Y-103785191D01*
X142968133Y-104131533D01*
X142968697Y-104507509D01*
X142970648Y-104807376D01*
X142974374Y-105039686D01*
X142980264Y-105212990D01*
X142988706Y-105335841D01*
X143000089Y-105416789D01*
X143014801Y-105464387D01*
X143029600Y-105484512D01*
X143121071Y-105528775D01*
X143207658Y-105498913D01*
X143296838Y-105390984D01*
X143336113Y-105322831D01*
X143371758Y-105335114D01*
X143451040Y-105384232D01*
X143483332Y-105406659D01*
X143640077Y-105478545D01*
X143841777Y-105517641D01*
X144054425Y-105521707D01*
X144244014Y-105488504D01*
X144311952Y-105461214D01*
X144423628Y-105386601D01*
X144547607Y-105278681D01*
X144597702Y-105226918D01*
X144746133Y-105062622D01*
X144746133Y-104531475D01*
X144742690Y-104269015D01*
X144728590Y-104074243D01*
X144724396Y-104054392D01*
X144365133Y-104054392D01*
X144365133Y-104512765D01*
X144364317Y-104715091D01*
X144359340Y-104850501D01*
X144346413Y-104936742D01*
X144321747Y-104991564D01*
X144281551Y-105032715D01*
X144248717Y-105057994D01*
X144081520Y-105131069D01*
X143937177Y-105146192D01*
X143815431Y-105138880D01*
X143717970Y-105105390D01*
X143612050Y-105031373D01*
X143545594Y-104974602D01*
X143349133Y-104801671D01*
X143349133Y-104175835D01*
X143564602Y-104005517D01*
X143763369Y-103878670D01*
X143942072Y-103831448D01*
X144107627Y-103863226D01*
X144234885Y-103944796D01*
X144365133Y-104054392D01*
X144724396Y-104054392D01*
X144698182Y-103930327D01*
X144645812Y-103820436D01*
X144565829Y-103727738D01*
X144452580Y-103635404D01*
X144442762Y-103628152D01*
X144342629Y-103560184D01*
X144253199Y-103520677D01*
X144145293Y-103502041D01*
X143989729Y-103496686D01*
X143936708Y-103496533D01*
X143763051Y-103499770D01*
X143647886Y-103513644D01*
X143565154Y-103544400D01*
X143488794Y-103598284D01*
X143479382Y-103606129D01*
X143349133Y-103715726D01*
X143344914Y-103341546D01*
X143338338Y-103102116D01*
X143322741Y-102934816D01*
X143294859Y-102827307D01*
X143251428Y-102767248D01*
X143189186Y-102742300D01*
X143186318Y-102741866D01*
X143127380Y-102735389D01*
X143080141Y-102740279D01*
X143080141Y-102740279D01*
G37*
X143080141Y-102740279D02*
X143043309Y-102764778D01*
X143015588Y-102817131D01*
X142995685Y-102905579D01*
X142982305Y-103038366D01*
X142974154Y-103223735D01*
X142969938Y-103469929D01*
X142968363Y-103785191D01*
X142968133Y-104131533D01*
X142968697Y-104507509D01*
X142970648Y-104807376D01*
X142974374Y-105039686D01*
X142980264Y-105212990D01*
X142988706Y-105335841D01*
X143000089Y-105416789D01*
X143014801Y-105464387D01*
X143029600Y-105484512D01*
X143121071Y-105528775D01*
X143207658Y-105498913D01*
X143296838Y-105390984D01*
X143336113Y-105322831D01*
X143371758Y-105335114D01*
X143451040Y-105384232D01*
X143483332Y-105406659D01*
X143640077Y-105478545D01*
X143841777Y-105517641D01*
X144054425Y-105521707D01*
X144244014Y-105488504D01*
X144311952Y-105461214D01*
X144423628Y-105386601D01*
X144547607Y-105278681D01*
X144597702Y-105226918D01*
X144746133Y-105062622D01*
X144746133Y-104531475D01*
X144742690Y-104269015D01*
X144728590Y-104074243D01*
X144724396Y-104054392D01*
X144365133Y-104054392D01*
X144365133Y-104512765D01*
X144364317Y-104715091D01*
X144359340Y-104850501D01*
X144346413Y-104936742D01*
X144321747Y-104991564D01*
X144281551Y-105032715D01*
X144248717Y-105057994D01*
X144081520Y-105131069D01*
X143937177Y-105146192D01*
X143815431Y-105138880D01*
X143717970Y-105105390D01*
X143612050Y-105031373D01*
X143545594Y-104974602D01*
X143349133Y-104801671D01*
X143349133Y-104175835D01*
X143564602Y-104005517D01*
X143763369Y-103878670D01*
X143942072Y-103831448D01*
X144107627Y-103863226D01*
X144234885Y-103944796D01*
X144365133Y-104054392D01*
X144724396Y-104054392D01*
X144698182Y-103930327D01*
X144645812Y-103820436D01*
X144565829Y-103727738D01*
X144452580Y-103635404D01*
X144442762Y-103628152D01*
X144342629Y-103560184D01*
X144253199Y-103520677D01*
X144145293Y-103502041D01*
X143989729Y-103496686D01*
X143936708Y-103496533D01*
X143763051Y-103499770D01*
X143647886Y-103513644D01*
X143565154Y-103544400D01*
X143488794Y-103598284D01*
X143479382Y-103606129D01*
X143349133Y-103715726D01*
X143344914Y-103341546D01*
X143338338Y-103102116D01*
X143322741Y-102934816D01*
X143294859Y-102827307D01*
X143251428Y-102767248D01*
X143189186Y-102742300D01*
X143186318Y-102741866D01*
X143127380Y-102735389D01*
X143080141Y-102740279D01*
G36*
X141763620Y-103497682D02*
X141633418Y-103504925D01*
X141541440Y-103523951D01*
X141464468Y-103560452D01*
X141379279Y-103620118D01*
X141345152Y-103646055D01*
X141229682Y-103742212D01*
X141139949Y-103831298D01*
X141106231Y-103876106D01*
X141082771Y-103963123D01*
X141068563Y-104102466D01*
X141063380Y-104269438D01*
X141066995Y-104439336D01*
X141079183Y-104587462D01*
X141099716Y-104689116D01*
X141113933Y-104715733D01*
X141173722Y-104738221D01*
X141304163Y-104753963D01*
X141509784Y-104763288D01*
X141795112Y-104766525D01*
X141812433Y-104766533D01*
X142059185Y-104767031D01*
X142233741Y-104769638D01*
X142348569Y-104776020D01*
X142416138Y-104787844D01*
X142448918Y-104806777D01*
X142459377Y-104834487D01*
X142460133Y-104853124D01*
X142431431Y-104941426D01*
X142361784Y-105037941D01*
X142356224Y-105043624D01*
X142309203Y-105086387D01*
X142258169Y-105115462D01*
X142186714Y-105133482D01*
X142078427Y-105143078D01*
X141916899Y-105146883D01*
X141708524Y-105147533D01*
X141436747Y-105151601D01*
X141247433Y-105163909D01*
X141138767Y-105184611D01*
X141113933Y-105198333D01*
X141067498Y-105293642D01*
X141077180Y-105401156D01*
X141138659Y-105481058D01*
X141145017Y-105484710D01*
X141219571Y-105501568D01*
X141358201Y-105513908D01*
X141540435Y-105521681D01*
X141745800Y-105524840D01*
X141953823Y-105523336D01*
X142144032Y-105517122D01*
X142295954Y-105506150D01*
X142389117Y-105490371D01*
X142396633Y-105487639D01*
X142472424Y-105438108D01*
X142577084Y-105348600D01*
X142650633Y-105276616D01*
X142819967Y-105101120D01*
X142819967Y-104219963D01*
X142460133Y-104219963D01*
X142460133Y-104385533D01*
X141401800Y-104385533D01*
X141401800Y-104218354D01*
X141414622Y-104096121D01*
X141467198Y-104008856D01*
X141543379Y-103943187D01*
X141646552Y-103878165D01*
X141758383Y-103845374D01*
X141913907Y-103835330D01*
X141942298Y-103835200D01*
X142102067Y-103841759D01*
X142210971Y-103867698D01*
X142302219Y-103922406D01*
X142329885Y-103944796D01*
X142421738Y-104042713D01*
X142457029Y-104152339D01*
X142460133Y-104219963D01*
X142819967Y-104219963D01*
X142819967Y-103910682D01*
X142594764Y-103703607D01*
X142369561Y-103496533D01*
X141955268Y-103496533D01*
X141763620Y-103497682D01*
X141763620Y-103497682D01*
G37*
X141763620Y-103497682D02*
X141633418Y-103504925D01*
X141541440Y-103523951D01*
X141464468Y-103560452D01*
X141379279Y-103620118D01*
X141345152Y-103646055D01*
X141229682Y-103742212D01*
X141139949Y-103831298D01*
X141106231Y-103876106D01*
X141082771Y-103963123D01*
X141068563Y-104102466D01*
X141063380Y-104269438D01*
X141066995Y-104439336D01*
X141079183Y-104587462D01*
X141099716Y-104689116D01*
X141113933Y-104715733D01*
X141173722Y-104738221D01*
X141304163Y-104753963D01*
X141509784Y-104763288D01*
X141795112Y-104766525D01*
X141812433Y-104766533D01*
X142059185Y-104767031D01*
X142233741Y-104769638D01*
X142348569Y-104776020D01*
X142416138Y-104787844D01*
X142448918Y-104806777D01*
X142459377Y-104834487D01*
X142460133Y-104853124D01*
X142431431Y-104941426D01*
X142361784Y-105037941D01*
X142356224Y-105043624D01*
X142309203Y-105086387D01*
X142258169Y-105115462D01*
X142186714Y-105133482D01*
X142078427Y-105143078D01*
X141916899Y-105146883D01*
X141708524Y-105147533D01*
X141436747Y-105151601D01*
X141247433Y-105163909D01*
X141138767Y-105184611D01*
X141113933Y-105198333D01*
X141067498Y-105293642D01*
X141077180Y-105401156D01*
X141138659Y-105481058D01*
X141145017Y-105484710D01*
X141219571Y-105501568D01*
X141358201Y-105513908D01*
X141540435Y-105521681D01*
X141745800Y-105524840D01*
X141953823Y-105523336D01*
X142144032Y-105517122D01*
X142295954Y-105506150D01*
X142389117Y-105490371D01*
X142396633Y-105487639D01*
X142472424Y-105438108D01*
X142577084Y-105348600D01*
X142650633Y-105276616D01*
X142819967Y-105101120D01*
X142819967Y-104219963D01*
X142460133Y-104219963D01*
X142460133Y-104385533D01*
X141401800Y-104385533D01*
X141401800Y-104218354D01*
X141414622Y-104096121D01*
X141467198Y-104008856D01*
X141543379Y-103943187D01*
X141646552Y-103878165D01*
X141758383Y-103845374D01*
X141913907Y-103835330D01*
X141942298Y-103835200D01*
X142102067Y-103841759D01*
X142210971Y-103867698D01*
X142302219Y-103922406D01*
X142329885Y-103944796D01*
X142421738Y-104042713D01*
X142457029Y-104152339D01*
X142460133Y-104219963D01*
X142819967Y-104219963D01*
X142819967Y-103910682D01*
X142594764Y-103703607D01*
X142369561Y-103496533D01*
X141955268Y-103496533D01*
X141763620Y-103497682D01*
G36*
X139448079Y-103530243D02*
X139315303Y-103615845D01*
X139249793Y-103687758D01*
X139184921Y-103811573D01*
X139156018Y-103955704D01*
X139160847Y-104098025D01*
X139197173Y-104216410D01*
X139262761Y-104288732D01*
X139311743Y-104300866D01*
X139397629Y-104264202D01*
X139467858Y-104175710D01*
X139496800Y-104068033D01*
X139533357Y-103941856D01*
X139634705Y-103860822D01*
X139772479Y-103835200D01*
X139860622Y-103848388D01*
X139961768Y-103894205D01*
X140092772Y-103982031D01*
X140235122Y-104092635D01*
X140555133Y-104350071D01*
X140555133Y-104888502D01*
X140557852Y-105136875D01*
X140568152Y-105312625D01*
X140589250Y-105427680D01*
X140624366Y-105493973D01*
X140676716Y-105523431D01*
X140727750Y-105528533D01*
X140811527Y-105498137D01*
X140856867Y-105458646D01*
X140878756Y-105410020D01*
X140895871Y-105316980D01*
X140908939Y-105170303D01*
X140918686Y-104960764D01*
X140925841Y-104679140D01*
X140927935Y-104557507D01*
X140931311Y-104226351D01*
X140928814Y-103970510D01*
X140918911Y-103780743D01*
X140900068Y-103647811D01*
X140870752Y-103562473D01*
X140829428Y-103515490D01*
X140774565Y-103497619D01*
X140751865Y-103496533D01*
X140637897Y-103526235D01*
X140570565Y-103620357D01*
X140548296Y-103722056D01*
X140533967Y-103841746D01*
X140327189Y-103680206D01*
X140192752Y-103584882D01*
X140072955Y-103531241D01*
X139926778Y-103503502D01*
X139847837Y-103495795D01*
X139619139Y-103492296D01*
X139448079Y-103530243D01*
X139448079Y-103530243D01*
G37*
X139448079Y-103530243D02*
X139315303Y-103615845D01*
X139249793Y-103687758D01*
X139184921Y-103811573D01*
X139156018Y-103955704D01*
X139160847Y-104098025D01*
X139197173Y-104216410D01*
X139262761Y-104288732D01*
X139311743Y-104300866D01*
X139397629Y-104264202D01*
X139467858Y-104175710D01*
X139496800Y-104068033D01*
X139533357Y-103941856D01*
X139634705Y-103860822D01*
X139772479Y-103835200D01*
X139860622Y-103848388D01*
X139961768Y-103894205D01*
X140092772Y-103982031D01*
X140235122Y-104092635D01*
X140555133Y-104350071D01*
X140555133Y-104888502D01*
X140557852Y-105136875D01*
X140568152Y-105312625D01*
X140589250Y-105427680D01*
X140624366Y-105493973D01*
X140676716Y-105523431D01*
X140727750Y-105528533D01*
X140811527Y-105498137D01*
X140856867Y-105458646D01*
X140878756Y-105410020D01*
X140895871Y-105316980D01*
X140908939Y-105170303D01*
X140918686Y-104960764D01*
X140925841Y-104679140D01*
X140927935Y-104557507D01*
X140931311Y-104226351D01*
X140928814Y-103970510D01*
X140918911Y-103780743D01*
X140900068Y-103647811D01*
X140870752Y-103562473D01*
X140829428Y-103515490D01*
X140774565Y-103497619D01*
X140751865Y-103496533D01*
X140637897Y-103526235D01*
X140570565Y-103620357D01*
X140548296Y-103722056D01*
X140533967Y-103841746D01*
X140327189Y-103680206D01*
X140192752Y-103584882D01*
X140072955Y-103531241D01*
X139926778Y-103503502D01*
X139847837Y-103495795D01*
X139619139Y-103492296D01*
X139448079Y-103530243D01*
G36*
X144111133Y-96203833D02*
X144103939Y-96315412D01*
X144068787Y-96373560D01*
X143985324Y-96409175D01*
X143973550Y-96412682D01*
X143895970Y-96439482D01*
X143855828Y-96477151D01*
X143842104Y-96549661D01*
X143843776Y-96680981D01*
X143844218Y-96693973D01*
X143845456Y-96823934D01*
X143840137Y-96911397D01*
X143832269Y-96934866D01*
X143786255Y-96920634D01*
X143680770Y-96882645D01*
X143535205Y-96827958D01*
X143470878Y-96803289D01*
X143282324Y-96738272D01*
X143151209Y-96708557D01*
X143082335Y-96712627D01*
X143080503Y-96748967D01*
X143150513Y-96816062D01*
X143238637Y-96876601D01*
X143345802Y-96948294D01*
X143416211Y-97002584D01*
X143432254Y-97021391D01*
X143395574Y-97043745D01*
X143296084Y-97084196D01*
X143151819Y-97135687D01*
X143073967Y-97161600D01*
X142874995Y-97233216D01*
X142758212Y-97293304D01*
X142722367Y-97344677D01*
X142766206Y-97390146D01*
X142888475Y-97432524D01*
X142946967Y-97446567D01*
X143073476Y-97479438D01*
X143158037Y-97510142D01*
X143179800Y-97526890D01*
X143151626Y-97571587D01*
X143082421Y-97644689D01*
X143068511Y-97657737D01*
X142989522Y-97750770D01*
X142912975Y-97871612D01*
X142857602Y-97987505D01*
X142841133Y-98055340D01*
X142879211Y-98068248D01*
X142976469Y-98076398D01*
X143050697Y-98077866D01*
X143196994Y-98067554D01*
X143280657Y-98032752D01*
X143305588Y-98003783D01*
X143331727Y-97976544D01*
X143343443Y-98013096D01*
X143343332Y-98123071D01*
X143342658Y-98141366D01*
X143342018Y-98261120D01*
X143359820Y-98323354D01*
X143408209Y-98329550D01*
X143499331Y-98281190D01*
X143645331Y-98179756D01*
X143647079Y-98178500D01*
X143760943Y-98101357D01*
X143845275Y-98052915D01*
X143879174Y-98043462D01*
X143882654Y-98091695D01*
X143872990Y-98198247D01*
X143856458Y-98313306D01*
X143819012Y-98704702D01*
X143839084Y-99058358D01*
X143915156Y-99365581D01*
X144045711Y-99617680D01*
X144095085Y-99681039D01*
X144176235Y-99781509D01*
X144228072Y-99856571D01*
X144238133Y-99880041D01*
X144214753Y-99920500D01*
X144152302Y-100012812D01*
X144062319Y-100140956D01*
X143956343Y-100288909D01*
X143845911Y-100440647D01*
X143742562Y-100580148D01*
X143657832Y-100691389D01*
X143618106Y-100741074D01*
X143574842Y-100735071D01*
X143473428Y-100703419D01*
X143334064Y-100652561D01*
X143303955Y-100640864D01*
X142926278Y-100461536D01*
X142626016Y-100250458D01*
X142403690Y-100008103D01*
X142259820Y-99734942D01*
X142240067Y-99675189D01*
X142212484Y-99564826D01*
X142218639Y-99505262D01*
X142261455Y-99468439D01*
X142261611Y-99468352D01*
X142321678Y-99396632D01*
X142319714Y-99297199D01*
X142267238Y-99184279D01*
X142175768Y-99072096D01*
X142056824Y-98974876D01*
X141921924Y-98906845D01*
X141786986Y-98882200D01*
X141717318Y-98892454D01*
X141711101Y-98927451D01*
X141771508Y-98993538D01*
X141889942Y-99088227D01*
X142020335Y-99200531D01*
X142073711Y-99284438D01*
X142051549Y-99343277D01*
X142012567Y-99364352D01*
X141905190Y-99361969D01*
X141783996Y-99284222D01*
X141701417Y-99194258D01*
X141613467Y-99082448D01*
X141613467Y-99193558D01*
X141629532Y-99267507D01*
X141687567Y-99340563D01*
X141802328Y-99429468D01*
X141849585Y-99461442D01*
X141999202Y-99572937D01*
X142101561Y-99687775D01*
X142187491Y-99842033D01*
X142202614Y-99874624D01*
X142350319Y-100123952D01*
X142554356Y-100338877D01*
X142824799Y-100528419D01*
X143080873Y-100661010D01*
X143241320Y-100736063D01*
X143370446Y-100798211D01*
X143450516Y-100838823D01*
X143467468Y-100849089D01*
X143454963Y-100890607D01*
X143408108Y-100991251D01*
X143334127Y-101136392D01*
X143240246Y-101311400D01*
X143229580Y-101330819D01*
X143053246Y-101673540D01*
X142924474Y-101982496D01*
X142833851Y-102286547D01*
X142771962Y-102614555D01*
X142747518Y-102808654D01*
X142726094Y-103043063D01*
X142722147Y-103198260D01*
X142735935Y-103277929D01*
X142767713Y-103285755D01*
X142780031Y-103275413D01*
X142795366Y-103226097D01*
X142818145Y-103111563D01*
X142844910Y-102950555D01*
X142864640Y-102816860D01*
X142891796Y-102634535D01*
X142916924Y-102485681D01*
X142936715Y-102388848D01*
X142945814Y-102361741D01*
X142989289Y-102371282D01*
X143095363Y-102411079D01*
X143249991Y-102475412D01*
X143439129Y-102558561D01*
X143527955Y-102598852D01*
X143750897Y-102698651D01*
X143968033Y-102791890D01*
X144157535Y-102869453D01*
X144297581Y-102922228D01*
X144321647Y-102930270D01*
X144430417Y-102963024D01*
X144519594Y-102979971D01*
X144612809Y-102980591D01*
X144733697Y-102964364D01*
X144905890Y-102930769D01*
X144977814Y-102915821D01*
X145155721Y-102880116D01*
X145299721Y-102853935D01*
X145391785Y-102840395D01*
X145415730Y-102840155D01*
X145405549Y-102881549D01*
X145365330Y-102975247D01*
X145319767Y-103068990D01*
X145210374Y-103284866D01*
X145424082Y-103284866D01*
X145566956Y-103274478D01*
X145646995Y-103245637D01*
X145657275Y-103231950D01*
X145687979Y-103117719D01*
X145723018Y-102937885D01*
X145759815Y-102711229D01*
X145795798Y-102456533D01*
X145821517Y-102248234D01*
X145717509Y-102248234D01*
X145708855Y-102365718D01*
X145689598Y-102450242D01*
X145659567Y-102512035D01*
X145627754Y-102551888D01*
X145581779Y-102594559D01*
X145527887Y-102622670D01*
X145448523Y-102639232D01*
X145326132Y-102647253D01*
X145143161Y-102649744D01*
X145056254Y-102649866D01*
X144849350Y-102649195D01*
X144712603Y-102645258D01*
X144631506Y-102635173D01*
X144591548Y-102616055D01*
X144578223Y-102585023D01*
X144576972Y-102554616D01*
X144584841Y-102480791D01*
X144606397Y-102341134D01*
X144638748Y-102152838D01*
X144679003Y-101933100D01*
X144699732Y-101824366D01*
X144745079Y-101588336D01*
X144786896Y-101368602D01*
X144821482Y-101184765D01*
X144845134Y-101056425D01*
X144850799Y-101024467D01*
X144864358Y-100945950D01*
X144788077Y-100945950D01*
X144778834Y-101033131D01*
X144754092Y-101179911D01*
X144717511Y-101369724D01*
X144672755Y-101585999D01*
X144623484Y-101812171D01*
X144573360Y-102031670D01*
X144526046Y-102227929D01*
X144485202Y-102384381D01*
X144454490Y-102484456D01*
X144442220Y-102510833D01*
X144367992Y-102542912D01*
X144227126Y-102553108D01*
X144034548Y-102542251D01*
X143805181Y-102511173D01*
X143557719Y-102461581D01*
X143328291Y-102394751D01*
X143175816Y-102313705D01*
X143092746Y-102209482D01*
X143071533Y-102073123D01*
X143098731Y-101916839D01*
X143159606Y-101743590D01*
X143256817Y-101526442D01*
X143377695Y-101290536D01*
X143509570Y-101061016D01*
X143603965Y-100914200D01*
X143727932Y-100741802D01*
X143853950Y-100582722D01*
X143970971Y-100449135D01*
X144067945Y-100353217D01*
X144133825Y-100307144D01*
X144153716Y-100308360D01*
X144180557Y-100362151D01*
X144225070Y-100475344D01*
X144279073Y-100626718D01*
X144297559Y-100681366D01*
X144351914Y-100843980D01*
X144397231Y-100979064D01*
X144425841Y-101063773D01*
X144430130Y-101076265D01*
X144465073Y-101089950D01*
X144535833Y-101029157D01*
X144559340Y-101002181D01*
X144656484Y-100908950D01*
X144734581Y-100874749D01*
X144780841Y-100902725D01*
X144788077Y-100945950D01*
X144864358Y-100945950D01*
X144879277Y-100859568D01*
X144964929Y-101000413D01*
X145050582Y-101141257D01*
X145184108Y-100922776D01*
X145270829Y-100779193D01*
X145350866Y-100643902D01*
X145389478Y-100576883D01*
X145444092Y-100493338D01*
X145489147Y-100459846D01*
X145526886Y-100482164D01*
X145559552Y-100566047D01*
X145589387Y-100717249D01*
X145618635Y-100941527D01*
X145649490Y-101244126D01*
X145681549Y-101595736D01*
X145703686Y-101873472D01*
X145715729Y-102087562D01*
X145717509Y-102248234D01*
X145821517Y-102248234D01*
X145828390Y-102192578D01*
X145855017Y-101938144D01*
X145873103Y-101712015D01*
X145877821Y-101623283D01*
X145900371Y-101083533D01*
X146126697Y-101083533D01*
X146415162Y-101056064D01*
X146691817Y-100969444D01*
X146971305Y-100817356D01*
X147268272Y-100593483D01*
X147274101Y-100588559D01*
X147449390Y-100445153D01*
X147627604Y-100307642D01*
X147784195Y-100194574D01*
X147868217Y-100139649D01*
X148015653Y-100033340D01*
X148084197Y-99931460D01*
X148079441Y-99853457D01*
X147921133Y-99853457D01*
X147917071Y-99950730D01*
X147888699Y-99991532D01*
X147811744Y-99995454D01*
X147751800Y-99990122D01*
X147645766Y-99973449D01*
X147586786Y-99951435D01*
X147582467Y-99944391D01*
X147610360Y-99894015D01*
X147678413Y-99820734D01*
X147763186Y-99745188D01*
X147841239Y-99688017D01*
X147889134Y-99669863D01*
X147892167Y-99671677D01*
X147911414Y-99729781D01*
X147920919Y-99834674D01*
X147921133Y-99853457D01*
X148079441Y-99853457D01*
X148077331Y-99818867D01*
X147998536Y-99680418D01*
X147979643Y-99655060D01*
X147868819Y-99509763D01*
X147704476Y-99670239D01*
X147596787Y-99800042D01*
X147543520Y-99918895D01*
X147549734Y-100011206D01*
X147582467Y-100046366D01*
X147612743Y-100074766D01*
X147612746Y-100113217D01*
X147575072Y-100171219D01*
X147492318Y-100258272D01*
X147357080Y-100383877D01*
X147233217Y-100494512D01*
X147005851Y-100688436D01*
X146819024Y-100827312D01*
X146656963Y-100919318D01*
X146503896Y-100972634D01*
X146344050Y-100995435D01*
X146262306Y-100997936D01*
X146085710Y-100994609D01*
X145960233Y-100974237D01*
X145870875Y-100923641D01*
X145802639Y-100829641D01*
X145740527Y-100679054D01*
X145677339Y-100483840D01*
X145602124Y-100238256D01*
X145563707Y-100100129D01*
X145498663Y-100100129D01*
X145494239Y-100172020D01*
X145465134Y-100260000D01*
X145405451Y-100378363D01*
X145309291Y-100541405D01*
X145202547Y-100712961D01*
X145076173Y-100913890D01*
X144950785Y-100839961D01*
X144875104Y-100776649D01*
X144860062Y-100760799D01*
X144639687Y-100760799D01*
X144609109Y-100796310D01*
X144593522Y-100808448D01*
X144511517Y-100857778D01*
X144452460Y-100852786D01*
X144405710Y-100784332D01*
X144360624Y-100643280D01*
X144349113Y-100598583D01*
X144309358Y-100438477D01*
X144288544Y-100343474D01*
X144284895Y-100296585D01*
X144296639Y-100280820D01*
X144315764Y-100279200D01*
X144355874Y-100311537D01*
X144426918Y-100396261D01*
X144512402Y-100513461D01*
X144596702Y-100638899D01*
X144637341Y-100714836D01*
X144639687Y-100760799D01*
X144860062Y-100760799D01*
X144765918Y-100661600D01*
X144638782Y-100512083D01*
X144528284Y-100370876D01*
X144413235Y-100215139D01*
X144321504Y-100085728D01*
X144262588Y-99996414D01*
X144245761Y-99961128D01*
X144290334Y-99962199D01*
X144396026Y-99976377D01*
X144540981Y-99999920D01*
X144703344Y-100029083D01*
X144861261Y-100060126D01*
X144989550Y-100088500D01*
X145065970Y-100133162D01*
X145076431Y-100218211D01*
X145021072Y-100349453D01*
X144996681Y-100390619D01*
X144937649Y-100492285D01*
X144927415Y-100526706D01*
X144964768Y-100494954D01*
X145048499Y-100398105D01*
X145177397Y-100237234D01*
X145195382Y-100214267D01*
X145444633Y-99895334D01*
X145484304Y-100030030D01*
X145498663Y-100100129D01*
X145563707Y-100100129D01*
X145552004Y-100058052D01*
X145526175Y-99928000D01*
X145523835Y-99832870D01*
X145544179Y-99757435D01*
X145586406Y-99686465D01*
X145632130Y-99626784D01*
X145740562Y-99464284D01*
X145816334Y-99283017D01*
X145862761Y-99067257D01*
X145883163Y-98801276D01*
X145880857Y-98469348D01*
X145880210Y-98450865D01*
X145873876Y-98247819D01*
X145870522Y-98079385D01*
X145870322Y-97961378D01*
X145873449Y-97909612D01*
X145874272Y-97908533D01*
X145915446Y-97926905D01*
X146011835Y-97975478D01*
X146144044Y-98044439D01*
X146168873Y-98057583D01*
X146325346Y-98135966D01*
X146434353Y-98171496D01*
X146504447Y-98156080D01*
X146544183Y-98081629D01*
X146562113Y-97940051D01*
X146566790Y-97723256D01*
X146566880Y-97681099D01*
X146570106Y-97468945D01*
X146582123Y-97315121D01*
X146587952Y-97286792D01*
X146326742Y-97286792D01*
X146211616Y-97385818D01*
X146115389Y-97498321D01*
X146045729Y-97629707D01*
X145994967Y-97774569D01*
X145762133Y-97672050D01*
X145649913Y-97626671D01*
X145545641Y-97597605D01*
X145426388Y-97581879D01*
X145269220Y-97576518D01*
X145051206Y-97578549D01*
X145042467Y-97578712D01*
X144804716Y-97579884D01*
X144637344Y-97572104D01*
X144526415Y-97554132D01*
X144461440Y-97527023D01*
X144364115Y-97492785D01*
X144304947Y-97523341D01*
X144301022Y-97603967D01*
X144319856Y-97649031D01*
X144413715Y-97738888D01*
X144564759Y-97780101D01*
X144759091Y-97770025D01*
X144849934Y-97749953D01*
X145086132Y-97714115D01*
X145282293Y-97718637D01*
X145416198Y-97740281D01*
X145494581Y-97776128D01*
X145546541Y-97843112D01*
X145567478Y-97884588D01*
X145608247Y-98017251D01*
X145639728Y-98209316D01*
X145660442Y-98435880D01*
X145668908Y-98672040D01*
X145663648Y-98892891D01*
X145643180Y-99073532D01*
X145639285Y-99092951D01*
X145549115Y-99357295D01*
X145404124Y-99600254D01*
X145221082Y-99796421D01*
X145131562Y-99862157D01*
X144925275Y-99958850D01*
X144727705Y-99975584D01*
X144522721Y-99913340D01*
X144497022Y-99900694D01*
X144275602Y-99742196D01*
X144101105Y-99524071D01*
X143976937Y-99259316D01*
X143906503Y-98960930D01*
X143893211Y-98641914D01*
X143940465Y-98315264D01*
X144017956Y-98072423D01*
X144072204Y-97925514D01*
X144105252Y-97812129D01*
X144111714Y-97751714D01*
X144108103Y-97746968D01*
X144060729Y-97764897D01*
X143964971Y-97824316D01*
X143838591Y-97913864D01*
X143790679Y-97950015D01*
X143660805Y-98046890D01*
X143558920Y-98117865D01*
X143501334Y-98151778D01*
X143494547Y-98152724D01*
X143494316Y-98106934D01*
X143510473Y-98009332D01*
X143518467Y-97972033D01*
X143538786Y-97863946D01*
X143543612Y-97797620D01*
X143541264Y-97790219D01*
X143494637Y-97791472D01*
X143397307Y-97813285D01*
X143278417Y-97848052D01*
X143169217Y-97887304D01*
X143106644Y-97891525D01*
X143095133Y-97859799D01*
X143126686Y-97813816D01*
X143213301Y-97727336D01*
X143342915Y-97611463D01*
X143503465Y-97477299D01*
X143560800Y-97431205D01*
X143748575Y-97279633D01*
X143878715Y-97168024D01*
X143961341Y-97085574D01*
X144006575Y-97021478D01*
X144024541Y-96964931D01*
X144026467Y-96934135D01*
X144035266Y-96840743D01*
X144070683Y-96815564D01*
X144146244Y-96855275D01*
X144195800Y-96892533D01*
X144280939Y-96950864D01*
X144338842Y-96976235D01*
X144339414Y-96976258D01*
X144355408Y-96938585D01*
X144358642Y-96839268D01*
X144350647Y-96723200D01*
X144338104Y-96582703D01*
X144341206Y-96506598D01*
X144364852Y-96475294D01*
X144413942Y-96469200D01*
X144414164Y-96469200D01*
X144491302Y-96501068D01*
X144604024Y-96587588D01*
X144737853Y-96715128D01*
X144878312Y-96870057D01*
X144992770Y-97013997D01*
X145067106Y-97099184D01*
X145128052Y-97144349D01*
X145138154Y-97146533D01*
X145201666Y-97163851D01*
X145309210Y-97207762D01*
X145368727Y-97235440D01*
X145483171Y-97287010D01*
X145555259Y-97301227D01*
X145617600Y-97280095D01*
X145660679Y-97253390D01*
X145771174Y-97206750D01*
X145853338Y-97219803D01*
X145888851Y-97288964D01*
X145889133Y-97298061D01*
X145898517Y-97336215D01*
X145935509Y-97309177D01*
X145963217Y-97276537D01*
X146022277Y-97218465D01*
X146086814Y-97208743D01*
X146182021Y-97236143D01*
X146326742Y-97286792D01*
X146587952Y-97286792D01*
X146607167Y-97193415D01*
X146649470Y-97077615D01*
X146672714Y-97025913D01*
X146729076Y-96902137D01*
X146767329Y-96812958D01*
X146778133Y-96782126D01*
X146740160Y-96777111D01*
X146642175Y-96782331D01*
X146546418Y-96792027D01*
X146412807Y-96805139D01*
X146338350Y-96798863D01*
X146298311Y-96765230D01*
X146270558Y-96703149D01*
X146233784Y-96628618D01*
X146181452Y-96604005D01*
X146082090Y-96616203D01*
X146068356Y-96618942D01*
X145907055Y-96648071D01*
X145808400Y-96650776D01*
X145752770Y-96620645D01*
X145720545Y-96551263D01*
X145707342Y-96500949D01*
X145664266Y-96383580D01*
X145614909Y-96348928D01*
X145563938Y-96395753D01*
X145516016Y-96522815D01*
X145508133Y-96553866D01*
X145475167Y-96673507D01*
X145445828Y-96750246D01*
X145433154Y-96765533D01*
X145393429Y-96737336D01*
X145314382Y-96663985D01*
X145228807Y-96577521D01*
X144971934Y-96343683D01*
X144714367Y-96174396D01*
X144466757Y-96075942D01*
X144342062Y-96054532D01*
X144111133Y-96035382D01*
X144111133Y-96203833D01*
X144111133Y-96203833D01*
G37*
X144111133Y-96203833D02*
X144103939Y-96315412D01*
X144068787Y-96373560D01*
X143985324Y-96409175D01*
X143973550Y-96412682D01*
X143895970Y-96439482D01*
X143855828Y-96477151D01*
X143842104Y-96549661D01*
X143843776Y-96680981D01*
X143844218Y-96693973D01*
X143845456Y-96823934D01*
X143840137Y-96911397D01*
X143832269Y-96934866D01*
X143786255Y-96920634D01*
X143680770Y-96882645D01*
X143535205Y-96827958D01*
X143470878Y-96803289D01*
X143282324Y-96738272D01*
X143151209Y-96708557D01*
X143082335Y-96712627D01*
X143080503Y-96748967D01*
X143150513Y-96816062D01*
X143238637Y-96876601D01*
X143345802Y-96948294D01*
X143416211Y-97002584D01*
X143432254Y-97021391D01*
X143395574Y-97043745D01*
X143296084Y-97084196D01*
X143151819Y-97135687D01*
X143073967Y-97161600D01*
X142874995Y-97233216D01*
X142758212Y-97293304D01*
X142722367Y-97344677D01*
X142766206Y-97390146D01*
X142888475Y-97432524D01*
X142946967Y-97446567D01*
X143073476Y-97479438D01*
X143158037Y-97510142D01*
X143179800Y-97526890D01*
X143151626Y-97571587D01*
X143082421Y-97644689D01*
X143068511Y-97657737D01*
X142989522Y-97750770D01*
X142912975Y-97871612D01*
X142857602Y-97987505D01*
X142841133Y-98055340D01*
X142879211Y-98068248D01*
X142976469Y-98076398D01*
X143050697Y-98077866D01*
X143196994Y-98067554D01*
X143280657Y-98032752D01*
X143305588Y-98003783D01*
X143331727Y-97976544D01*
X143343443Y-98013096D01*
X143343332Y-98123071D01*
X143342658Y-98141366D01*
X143342018Y-98261120D01*
X143359820Y-98323354D01*
X143408209Y-98329550D01*
X143499331Y-98281190D01*
X143645331Y-98179756D01*
X143647079Y-98178500D01*
X143760943Y-98101357D01*
X143845275Y-98052915D01*
X143879174Y-98043462D01*
X143882654Y-98091695D01*
X143872990Y-98198247D01*
X143856458Y-98313306D01*
X143819012Y-98704702D01*
X143839084Y-99058358D01*
X143915156Y-99365581D01*
X144045711Y-99617680D01*
X144095085Y-99681039D01*
X144176235Y-99781509D01*
X144228072Y-99856571D01*
X144238133Y-99880041D01*
X144214753Y-99920500D01*
X144152302Y-100012812D01*
X144062319Y-100140956D01*
X143956343Y-100288909D01*
X143845911Y-100440647D01*
X143742562Y-100580148D01*
X143657832Y-100691389D01*
X143618106Y-100741074D01*
X143574842Y-100735071D01*
X143473428Y-100703419D01*
X143334064Y-100652561D01*
X143303955Y-100640864D01*
X142926278Y-100461536D01*
X142626016Y-100250458D01*
X142403690Y-100008103D01*
X142259820Y-99734942D01*
X142240067Y-99675189D01*
X142212484Y-99564826D01*
X142218639Y-99505262D01*
X142261455Y-99468439D01*
X142261611Y-99468352D01*
X142321678Y-99396632D01*
X142319714Y-99297199D01*
X142267238Y-99184279D01*
X142175768Y-99072096D01*
X142056824Y-98974876D01*
X141921924Y-98906845D01*
X141786986Y-98882200D01*
X141717318Y-98892454D01*
X141711101Y-98927451D01*
X141771508Y-98993538D01*
X141889942Y-99088227D01*
X142020335Y-99200531D01*
X142073711Y-99284438D01*
X142051549Y-99343277D01*
X142012567Y-99364352D01*
X141905190Y-99361969D01*
X141783996Y-99284222D01*
X141701417Y-99194258D01*
X141613467Y-99082448D01*
X141613467Y-99193558D01*
X141629532Y-99267507D01*
X141687567Y-99340563D01*
X141802328Y-99429468D01*
X141849585Y-99461442D01*
X141999202Y-99572937D01*
X142101561Y-99687775D01*
X142187491Y-99842033D01*
X142202614Y-99874624D01*
X142350319Y-100123952D01*
X142554356Y-100338877D01*
X142824799Y-100528419D01*
X143080873Y-100661010D01*
X143241320Y-100736063D01*
X143370446Y-100798211D01*
X143450516Y-100838823D01*
X143467468Y-100849089D01*
X143454963Y-100890607D01*
X143408108Y-100991251D01*
X143334127Y-101136392D01*
X143240246Y-101311400D01*
X143229580Y-101330819D01*
X143053246Y-101673540D01*
X142924474Y-101982496D01*
X142833851Y-102286547D01*
X142771962Y-102614555D01*
X142747518Y-102808654D01*
X142726094Y-103043063D01*
X142722147Y-103198260D01*
X142735935Y-103277929D01*
X142767713Y-103285755D01*
X142780031Y-103275413D01*
X142795366Y-103226097D01*
X142818145Y-103111563D01*
X142844910Y-102950555D01*
X142864640Y-102816860D01*
X142891796Y-102634535D01*
X142916924Y-102485681D01*
X142936715Y-102388848D01*
X142945814Y-102361741D01*
X142989289Y-102371282D01*
X143095363Y-102411079D01*
X143249991Y-102475412D01*
X143439129Y-102558561D01*
X143527955Y-102598852D01*
X143750897Y-102698651D01*
X143968033Y-102791890D01*
X144157535Y-102869453D01*
X144297581Y-102922228D01*
X144321647Y-102930270D01*
X144430417Y-102963024D01*
X144519594Y-102979971D01*
X144612809Y-102980591D01*
X144733697Y-102964364D01*
X144905890Y-102930769D01*
X144977814Y-102915821D01*
X145155721Y-102880116D01*
X145299721Y-102853935D01*
X145391785Y-102840395D01*
X145415730Y-102840155D01*
X145405549Y-102881549D01*
X145365330Y-102975247D01*
X145319767Y-103068990D01*
X145210374Y-103284866D01*
X145424082Y-103284866D01*
X145566956Y-103274478D01*
X145646995Y-103245637D01*
X145657275Y-103231950D01*
X145687979Y-103117719D01*
X145723018Y-102937885D01*
X145759815Y-102711229D01*
X145795798Y-102456533D01*
X145821517Y-102248234D01*
X145717509Y-102248234D01*
X145708855Y-102365718D01*
X145689598Y-102450242D01*
X145659567Y-102512035D01*
X145627754Y-102551888D01*
X145581779Y-102594559D01*
X145527887Y-102622670D01*
X145448523Y-102639232D01*
X145326132Y-102647253D01*
X145143161Y-102649744D01*
X145056254Y-102649866D01*
X144849350Y-102649195D01*
X144712603Y-102645258D01*
X144631506Y-102635173D01*
X144591548Y-102616055D01*
X144578223Y-102585023D01*
X144576972Y-102554616D01*
X144584841Y-102480791D01*
X144606397Y-102341134D01*
X144638748Y-102152838D01*
X144679003Y-101933100D01*
X144699732Y-101824366D01*
X144745079Y-101588336D01*
X144786896Y-101368602D01*
X144821482Y-101184765D01*
X144845134Y-101056425D01*
X144850799Y-101024467D01*
X144864358Y-100945950D01*
X144788077Y-100945950D01*
X144778834Y-101033131D01*
X144754092Y-101179911D01*
X144717511Y-101369724D01*
X144672755Y-101585999D01*
X144623484Y-101812171D01*
X144573360Y-102031670D01*
X144526046Y-102227929D01*
X144485202Y-102384381D01*
X144454490Y-102484456D01*
X144442220Y-102510833D01*
X144367992Y-102542912D01*
X144227126Y-102553108D01*
X144034548Y-102542251D01*
X143805181Y-102511173D01*
X143557719Y-102461581D01*
X143328291Y-102394751D01*
X143175816Y-102313705D01*
X143092746Y-102209482D01*
X143071533Y-102073123D01*
X143098731Y-101916839D01*
X143159606Y-101743590D01*
X143256817Y-101526442D01*
X143377695Y-101290536D01*
X143509570Y-101061016D01*
X143603965Y-100914200D01*
X143727932Y-100741802D01*
X143853950Y-100582722D01*
X143970971Y-100449135D01*
X144067945Y-100353217D01*
X144133825Y-100307144D01*
X144153716Y-100308360D01*
X144180557Y-100362151D01*
X144225070Y-100475344D01*
X144279073Y-100626718D01*
X144297559Y-100681366D01*
X144351914Y-100843980D01*
X144397231Y-100979064D01*
X144425841Y-101063773D01*
X144430130Y-101076265D01*
X144465073Y-101089950D01*
X144535833Y-101029157D01*
X144559340Y-101002181D01*
X144656484Y-100908950D01*
X144734581Y-100874749D01*
X144780841Y-100902725D01*
X144788077Y-100945950D01*
X144864358Y-100945950D01*
X144879277Y-100859568D01*
X144964929Y-101000413D01*
X145050582Y-101141257D01*
X145184108Y-100922776D01*
X145270829Y-100779193D01*
X145350866Y-100643902D01*
X145389478Y-100576883D01*
X145444092Y-100493338D01*
X145489147Y-100459846D01*
X145526886Y-100482164D01*
X145559552Y-100566047D01*
X145589387Y-100717249D01*
X145618635Y-100941527D01*
X145649490Y-101244126D01*
X145681549Y-101595736D01*
X145703686Y-101873472D01*
X145715729Y-102087562D01*
X145717509Y-102248234D01*
X145821517Y-102248234D01*
X145828390Y-102192578D01*
X145855017Y-101938144D01*
X145873103Y-101712015D01*
X145877821Y-101623283D01*
X145900371Y-101083533D01*
X146126697Y-101083533D01*
X146415162Y-101056064D01*
X146691817Y-100969444D01*
X146971305Y-100817356D01*
X147268272Y-100593483D01*
X147274101Y-100588559D01*
X147449390Y-100445153D01*
X147627604Y-100307642D01*
X147784195Y-100194574D01*
X147868217Y-100139649D01*
X148015653Y-100033340D01*
X148084197Y-99931460D01*
X148079441Y-99853457D01*
X147921133Y-99853457D01*
X147917071Y-99950730D01*
X147888699Y-99991532D01*
X147811744Y-99995454D01*
X147751800Y-99990122D01*
X147645766Y-99973449D01*
X147586786Y-99951435D01*
X147582467Y-99944391D01*
X147610360Y-99894015D01*
X147678413Y-99820734D01*
X147763186Y-99745188D01*
X147841239Y-99688017D01*
X147889134Y-99669863D01*
X147892167Y-99671677D01*
X147911414Y-99729781D01*
X147920919Y-99834674D01*
X147921133Y-99853457D01*
X148079441Y-99853457D01*
X148077331Y-99818867D01*
X147998536Y-99680418D01*
X147979643Y-99655060D01*
X147868819Y-99509763D01*
X147704476Y-99670239D01*
X147596787Y-99800042D01*
X147543520Y-99918895D01*
X147549734Y-100011206D01*
X147582467Y-100046366D01*
X147612743Y-100074766D01*
X147612746Y-100113217D01*
X147575072Y-100171219D01*
X147492318Y-100258272D01*
X147357080Y-100383877D01*
X147233217Y-100494512D01*
X147005851Y-100688436D01*
X146819024Y-100827312D01*
X146656963Y-100919318D01*
X146503896Y-100972634D01*
X146344050Y-100995435D01*
X146262306Y-100997936D01*
X146085710Y-100994609D01*
X145960233Y-100974237D01*
X145870875Y-100923641D01*
X145802639Y-100829641D01*
X145740527Y-100679054D01*
X145677339Y-100483840D01*
X145602124Y-100238256D01*
X145563707Y-100100129D01*
X145498663Y-100100129D01*
X145494239Y-100172020D01*
X145465134Y-100260000D01*
X145405451Y-100378363D01*
X145309291Y-100541405D01*
X145202547Y-100712961D01*
X145076173Y-100913890D01*
X144950785Y-100839961D01*
X144875104Y-100776649D01*
X144860062Y-100760799D01*
X144639687Y-100760799D01*
X144609109Y-100796310D01*
X144593522Y-100808448D01*
X144511517Y-100857778D01*
X144452460Y-100852786D01*
X144405710Y-100784332D01*
X144360624Y-100643280D01*
X144349113Y-100598583D01*
X144309358Y-100438477D01*
X144288544Y-100343474D01*
X144284895Y-100296585D01*
X144296639Y-100280820D01*
X144315764Y-100279200D01*
X144355874Y-100311537D01*
X144426918Y-100396261D01*
X144512402Y-100513461D01*
X144596702Y-100638899D01*
X144637341Y-100714836D01*
X144639687Y-100760799D01*
X144860062Y-100760799D01*
X144765918Y-100661600D01*
X144638782Y-100512083D01*
X144528284Y-100370876D01*
X144413235Y-100215139D01*
X144321504Y-100085728D01*
X144262588Y-99996414D01*
X144245761Y-99961128D01*
X144290334Y-99962199D01*
X144396026Y-99976377D01*
X144540981Y-99999920D01*
X144703344Y-100029083D01*
X144861261Y-100060126D01*
X144989550Y-100088500D01*
X145065970Y-100133162D01*
X145076431Y-100218211D01*
X145021072Y-100349453D01*
X144996681Y-100390619D01*
X144937649Y-100492285D01*
X144927415Y-100526706D01*
X144964768Y-100494954D01*
X145048499Y-100398105D01*
X145177397Y-100237234D01*
X145195382Y-100214267D01*
X145444633Y-99895334D01*
X145484304Y-100030030D01*
X145498663Y-100100129D01*
X145563707Y-100100129D01*
X145552004Y-100058052D01*
X145526175Y-99928000D01*
X145523835Y-99832870D01*
X145544179Y-99757435D01*
X145586406Y-99686465D01*
X145632130Y-99626784D01*
X145740562Y-99464284D01*
X145816334Y-99283017D01*
X145862761Y-99067257D01*
X145883163Y-98801276D01*
X145880857Y-98469348D01*
X145880210Y-98450865D01*
X145873876Y-98247819D01*
X145870522Y-98079385D01*
X145870322Y-97961378D01*
X145873449Y-97909612D01*
X145874272Y-97908533D01*
X145915446Y-97926905D01*
X146011835Y-97975478D01*
X146144044Y-98044439D01*
X146168873Y-98057583D01*
X146325346Y-98135966D01*
X146434353Y-98171496D01*
X146504447Y-98156080D01*
X146544183Y-98081629D01*
X146562113Y-97940051D01*
X146566790Y-97723256D01*
X146566880Y-97681099D01*
X146570106Y-97468945D01*
X146582123Y-97315121D01*
X146587952Y-97286792D01*
X146326742Y-97286792D01*
X146211616Y-97385818D01*
X146115389Y-97498321D01*
X146045729Y-97629707D01*
X145994967Y-97774569D01*
X145762133Y-97672050D01*
X145649913Y-97626671D01*
X145545641Y-97597605D01*
X145426388Y-97581879D01*
X145269220Y-97576518D01*
X145051206Y-97578549D01*
X145042467Y-97578712D01*
X144804716Y-97579884D01*
X144637344Y-97572104D01*
X144526415Y-97554132D01*
X144461440Y-97527023D01*
X144364115Y-97492785D01*
X144304947Y-97523341D01*
X144301022Y-97603967D01*
X144319856Y-97649031D01*
X144413715Y-97738888D01*
X144564759Y-97780101D01*
X144759091Y-97770025D01*
X144849934Y-97749953D01*
X145086132Y-97714115D01*
X145282293Y-97718637D01*
X145416198Y-97740281D01*
X145494581Y-97776128D01*
X145546541Y-97843112D01*
X145567478Y-97884588D01*
X145608247Y-98017251D01*
X145639728Y-98209316D01*
X145660442Y-98435880D01*
X145668908Y-98672040D01*
X145663648Y-98892891D01*
X145643180Y-99073532D01*
X145639285Y-99092951D01*
X145549115Y-99357295D01*
X145404124Y-99600254D01*
X145221082Y-99796421D01*
X145131562Y-99862157D01*
X144925275Y-99958850D01*
X144727705Y-99975584D01*
X144522721Y-99913340D01*
X144497022Y-99900694D01*
X144275602Y-99742196D01*
X144101105Y-99524071D01*
X143976937Y-99259316D01*
X143906503Y-98960930D01*
X143893211Y-98641914D01*
X143940465Y-98315264D01*
X144017956Y-98072423D01*
X144072204Y-97925514D01*
X144105252Y-97812129D01*
X144111714Y-97751714D01*
X144108103Y-97746968D01*
X144060729Y-97764897D01*
X143964971Y-97824316D01*
X143838591Y-97913864D01*
X143790679Y-97950015D01*
X143660805Y-98046890D01*
X143558920Y-98117865D01*
X143501334Y-98151778D01*
X143494547Y-98152724D01*
X143494316Y-98106934D01*
X143510473Y-98009332D01*
X143518467Y-97972033D01*
X143538786Y-97863946D01*
X143543612Y-97797620D01*
X143541264Y-97790219D01*
X143494637Y-97791472D01*
X143397307Y-97813285D01*
X143278417Y-97848052D01*
X143169217Y-97887304D01*
X143106644Y-97891525D01*
X143095133Y-97859799D01*
X143126686Y-97813816D01*
X143213301Y-97727336D01*
X143342915Y-97611463D01*
X143503465Y-97477299D01*
X143560800Y-97431205D01*
X143748575Y-97279633D01*
X143878715Y-97168024D01*
X143961341Y-97085574D01*
X144006575Y-97021478D01*
X144024541Y-96964931D01*
X144026467Y-96934135D01*
X144035266Y-96840743D01*
X144070683Y-96815564D01*
X144146244Y-96855275D01*
X144195800Y-96892533D01*
X144280939Y-96950864D01*
X144338842Y-96976235D01*
X144339414Y-96976258D01*
X144355408Y-96938585D01*
X144358642Y-96839268D01*
X144350647Y-96723200D01*
X144338104Y-96582703D01*
X144341206Y-96506598D01*
X144364852Y-96475294D01*
X144413942Y-96469200D01*
X144414164Y-96469200D01*
X144491302Y-96501068D01*
X144604024Y-96587588D01*
X144737853Y-96715128D01*
X144878312Y-96870057D01*
X144992770Y-97013997D01*
X145067106Y-97099184D01*
X145128052Y-97144349D01*
X145138154Y-97146533D01*
X145201666Y-97163851D01*
X145309210Y-97207762D01*
X145368727Y-97235440D01*
X145483171Y-97287010D01*
X145555259Y-97301227D01*
X145617600Y-97280095D01*
X145660679Y-97253390D01*
X145771174Y-97206750D01*
X145853338Y-97219803D01*
X145888851Y-97288964D01*
X145889133Y-97298061D01*
X145898517Y-97336215D01*
X145935509Y-97309177D01*
X145963217Y-97276537D01*
X146022277Y-97218465D01*
X146086814Y-97208743D01*
X146182021Y-97236143D01*
X146326742Y-97286792D01*
X146587952Y-97286792D01*
X146607167Y-97193415D01*
X146649470Y-97077615D01*
X146672714Y-97025913D01*
X146729076Y-96902137D01*
X146767329Y-96812958D01*
X146778133Y-96782126D01*
X146740160Y-96777111D01*
X146642175Y-96782331D01*
X146546418Y-96792027D01*
X146412807Y-96805139D01*
X146338350Y-96798863D01*
X146298311Y-96765230D01*
X146270558Y-96703149D01*
X146233784Y-96628618D01*
X146181452Y-96604005D01*
X146082090Y-96616203D01*
X146068356Y-96618942D01*
X145907055Y-96648071D01*
X145808400Y-96650776D01*
X145752770Y-96620645D01*
X145720545Y-96551263D01*
X145707342Y-96500949D01*
X145664266Y-96383580D01*
X145614909Y-96348928D01*
X145563938Y-96395753D01*
X145516016Y-96522815D01*
X145508133Y-96553866D01*
X145475167Y-96673507D01*
X145445828Y-96750246D01*
X145433154Y-96765533D01*
X145393429Y-96737336D01*
X145314382Y-96663985D01*
X145228807Y-96577521D01*
X144971934Y-96343683D01*
X144714367Y-96174396D01*
X144466757Y-96075942D01*
X144342062Y-96054532D01*
X144111133Y-96035382D01*
X144111133Y-96203833D01*
G36*
X157760357Y-95532445D02*
X157736053Y-95683678D01*
X157700597Y-95777434D01*
X157634994Y-95840542D01*
X157520248Y-95899827D01*
X157490822Y-95913097D01*
X157305025Y-95996281D01*
X157091010Y-95852155D01*
X156876994Y-95708028D01*
X156695897Y-95885761D01*
X156599493Y-95985362D01*
X156533806Y-96062770D01*
X156514800Y-96095776D01*
X156537405Y-96145725D01*
X156595578Y-96239978D01*
X156648933Y-96318353D01*
X156725261Y-96433272D01*
X156757923Y-96514163D01*
X156754781Y-96594175D01*
X156733405Y-96674402D01*
X156687736Y-96798632D01*
X156627368Y-96877091D01*
X156529660Y-96927712D01*
X156371969Y-96968425D01*
X156358530Y-96971276D01*
X156198438Y-96989023D01*
X156013780Y-96985964D01*
X155832673Y-96965146D01*
X155683238Y-96929614D01*
X155601026Y-96889227D01*
X155559234Y-96827121D01*
X155512217Y-96719520D01*
X155500537Y-96686130D01*
X155472355Y-96586011D01*
X155474088Y-96510716D01*
X155512886Y-96427349D01*
X155578228Y-96328647D01*
X155651514Y-96215974D01*
X155699535Y-96130340D01*
X155710467Y-96099970D01*
X155682418Y-96053003D01*
X155609661Y-95968366D01*
X155529370Y-95885761D01*
X155348273Y-95708028D01*
X155134257Y-95852155D01*
X154920242Y-95996281D01*
X154734827Y-95913268D01*
X154623027Y-95861526D01*
X154548551Y-95823893D01*
X154533434Y-95814278D01*
X154516134Y-95767387D01*
X154488597Y-95663709D01*
X154467388Y-95572833D01*
X154417320Y-95347366D01*
X153869763Y-95347366D01*
X153833978Y-95572181D01*
X153802772Y-95715952D01*
X153758929Y-95799219D01*
X153695996Y-95843559D01*
X153620550Y-95893685D01*
X153595854Y-95936245D01*
X153612346Y-95993082D01*
X153655009Y-96108243D01*
X153716455Y-96262318D01*
X153758422Y-96363366D01*
X153918937Y-96744366D01*
X154126785Y-96745466D01*
X154351894Y-96781295D01*
X154525029Y-96882232D01*
X154640382Y-97042408D01*
X154692142Y-97255958D01*
X154694467Y-97318744D01*
X154683877Y-97437137D01*
X154641119Y-97532731D01*
X154549710Y-97639704D01*
X154530114Y-97659513D01*
X154418315Y-97759945D01*
X154323195Y-97809168D01*
X154210578Y-97823667D01*
X154189345Y-97823866D01*
X153966888Y-97788771D01*
X153794406Y-97687317D01*
X153677503Y-97525253D01*
X153621782Y-97308330D01*
X153617890Y-97237499D01*
X153614967Y-97053299D01*
X153218478Y-96888249D01*
X153048374Y-96818860D01*
X152907027Y-96763852D01*
X152812861Y-96730246D01*
X152785368Y-96723199D01*
X152748499Y-96758945D01*
X152723400Y-96824189D01*
X152694865Y-96884939D01*
X152632498Y-96926525D01*
X152515336Y-96960364D01*
X152447427Y-96974486D01*
X152196800Y-97023793D01*
X152196800Y-97566030D01*
X152355550Y-97592581D01*
X152531501Y-97626734D01*
X152644856Y-97666767D01*
X152717296Y-97726660D01*
X152770503Y-97820393D01*
X152792848Y-97874531D01*
X152869452Y-98069548D01*
X152724231Y-98273804D01*
X152579010Y-98478061D01*
X152756552Y-98658963D01*
X152856870Y-98755418D01*
X152935946Y-98821044D01*
X152970570Y-98839866D01*
X153023219Y-98817550D01*
X153119923Y-98760129D01*
X153199247Y-98707628D01*
X153314227Y-98632698D01*
X153393877Y-98600758D01*
X153471090Y-98604657D01*
X153556731Y-98629937D01*
X153676331Y-98675783D01*
X153750414Y-98730950D01*
X153797162Y-98818826D01*
X153834755Y-98962801D01*
X153842064Y-98997010D01*
X153861700Y-99169032D01*
X153856966Y-99354599D01*
X153831230Y-99527043D01*
X153787860Y-99659698D01*
X153751779Y-99711981D01*
X153677448Y-99757651D01*
X153566377Y-99804348D01*
X153555370Y-99808099D01*
X153463930Y-99831362D01*
X153386510Y-99823688D01*
X153291403Y-99777751D01*
X153212997Y-99728993D01*
X153096629Y-99658696D01*
X153007123Y-99612528D01*
X152974269Y-99601866D01*
X152920674Y-99631259D01*
X152836631Y-99704225D01*
X152744228Y-99797941D01*
X152665556Y-99889588D01*
X152622706Y-99956344D01*
X152620133Y-99967716D01*
X152643339Y-100025164D01*
X152702738Y-100123389D01*
X152750604Y-100192605D01*
X152881074Y-100372714D01*
X152800483Y-100569373D01*
X152750397Y-100679908D01*
X152697066Y-100746159D01*
X152614359Y-100788647D01*
X152476146Y-100827890D01*
X152468929Y-100829724D01*
X152217967Y-100893415D01*
X152193165Y-101406583D01*
X152459566Y-101467308D01*
X152608879Y-101506087D01*
X152693208Y-101543682D01*
X152731424Y-101590607D01*
X152739494Y-101623283D01*
X152750619Y-101679412D01*
X152774583Y-101707263D01*
X152827057Y-101705724D01*
X152923709Y-101673686D01*
X153080208Y-101610036D01*
X153111728Y-101596895D01*
X153322363Y-101508891D01*
X153467487Y-101444894D01*
X153559270Y-101395240D01*
X153609883Y-101350265D01*
X153631497Y-101300303D01*
X153636282Y-101235690D01*
X153636133Y-101180469D01*
X153668566Y-100953631D01*
X153763997Y-100782849D01*
X153919626Y-100670897D01*
X154132652Y-100620548D01*
X154204120Y-100617866D01*
X154339201Y-100629050D01*
X154440540Y-100674889D01*
X154538627Y-100761182D01*
X154670786Y-100941553D01*
X154719806Y-101130144D01*
X154685681Y-101319351D01*
X154568407Y-101501572D01*
X154539121Y-101532390D01*
X154441956Y-101618973D01*
X154351819Y-101661700D01*
X154230317Y-101675465D01*
X154168418Y-101676200D01*
X154018491Y-101686113D01*
X153932732Y-101713885D01*
X153919596Y-101729116D01*
X153846943Y-101905647D01*
X153772440Y-102088703D01*
X153702984Y-102261074D01*
X153645473Y-102405556D01*
X153606805Y-102504940D01*
X153593800Y-102541817D01*
X153629354Y-102561364D01*
X153698989Y-102582422D01*
X153794863Y-102644484D01*
X153828114Y-102724594D01*
X153864773Y-102899776D01*
X153896242Y-103008979D01*
X153937244Y-103068514D01*
X154002507Y-103094693D01*
X154106757Y-103103828D01*
X154173223Y-103106864D01*
X154432301Y-103119361D01*
X154489301Y-102860153D01*
X154524076Y-102716575D01*
X154561672Y-102630159D01*
X154621262Y-102574995D01*
X154722024Y-102525172D01*
X154744383Y-102515475D01*
X154942466Y-102430003D01*
X155133010Y-102561101D01*
X155245222Y-102634034D01*
X155330362Y-102681631D01*
X155360030Y-102692200D01*
X155406997Y-102664151D01*
X155491634Y-102591394D01*
X155574238Y-102511103D01*
X155751972Y-102330006D01*
X155604701Y-102111321D01*
X155457431Y-101892637D01*
X155538303Y-101703970D01*
X155593529Y-101590532D01*
X155654002Y-101526793D01*
X155749992Y-101488857D01*
X155836238Y-101468751D01*
X155976897Y-101441795D01*
X156093402Y-101424990D01*
X156133800Y-101422200D01*
X156220778Y-101430856D01*
X156352690Y-101452914D01*
X156431362Y-101468751D01*
X156562789Y-101502674D01*
X156640714Y-101548201D01*
X156695408Y-101629230D01*
X156729298Y-101703970D01*
X156810170Y-101892637D01*
X156662899Y-102111321D01*
X156515629Y-102330006D01*
X156693362Y-102511103D01*
X156793730Y-102607614D01*
X156872859Y-102673309D01*
X156907570Y-102692200D01*
X156960290Y-102669889D01*
X157056904Y-102612528D01*
X157134590Y-102561101D01*
X157325134Y-102430003D01*
X157522862Y-102515594D01*
X157645325Y-102576540D01*
X157711395Y-102639542D01*
X157745717Y-102731164D01*
X157752513Y-102763109D01*
X157786255Y-102933662D01*
X157815165Y-103038072D01*
X157854382Y-103092472D01*
X157919050Y-103112996D01*
X158024309Y-103115776D01*
X158083269Y-103115533D01*
X158249403Y-103106479D01*
X158341993Y-103080171D01*
X158358061Y-103062616D01*
X158377202Y-102990589D01*
X158401443Y-102871802D01*
X158410819Y-102819209D01*
X158446174Y-102684613D01*
X158504947Y-102605845D01*
X158557268Y-102574099D01*
X158671229Y-102519478D01*
X158591279Y-102320089D01*
X158525515Y-102158338D01*
X158450303Y-101976494D01*
X158417587Y-101898450D01*
X158323845Y-101676200D01*
X158124083Y-101676200D01*
X157914547Y-101641774D01*
X157746445Y-101548619D01*
X157625816Y-101411920D01*
X157558699Y-101246861D01*
X157551134Y-101068627D01*
X157609160Y-100892401D01*
X157738817Y-100733368D01*
X157746479Y-100726819D01*
X157852735Y-100655811D01*
X157972488Y-100624288D01*
X158094965Y-100619213D01*
X158312866Y-100654633D01*
X158477736Y-100754744D01*
X158584988Y-100914800D01*
X158630039Y-101130055D01*
X158631188Y-101174186D01*
X158630148Y-101249957D01*
X158634333Y-101305683D01*
X158655078Y-101349651D01*
X158703720Y-101390146D01*
X158791593Y-101435455D01*
X158930032Y-101493866D01*
X159130373Y-101573663D01*
X159234041Y-101614886D01*
X159476783Y-101711712D01*
X159530522Y-101599589D01*
X159580958Y-101528023D01*
X159664124Y-101481307D01*
X159805135Y-101445752D01*
X159816947Y-101443493D01*
X160049633Y-101399520D01*
X160062203Y-101136998D01*
X160068577Y-101008131D01*
X160062408Y-100926511D01*
X160028376Y-100877229D01*
X159951163Y-100845376D01*
X159815448Y-100816045D01*
X159711660Y-100795850D01*
X159604754Y-100765914D01*
X159537025Y-100712936D01*
X159481090Y-100611778D01*
X159461752Y-100566438D01*
X159380483Y-100370345D01*
X159520582Y-100152020D01*
X159660681Y-99933694D01*
X159278218Y-99551231D01*
X159066183Y-99703563D01*
X158854149Y-99855895D01*
X158659336Y-99783692D01*
X158545607Y-99736285D01*
X158473803Y-99683071D01*
X158431812Y-99603309D01*
X158407518Y-99476256D01*
X158392736Y-99327221D01*
X158389511Y-99223053D01*
X157771774Y-99223053D01*
X157767713Y-99405147D01*
X157754336Y-99516195D01*
X157725840Y-99633476D01*
X157679199Y-99704437D01*
X157589366Y-99758373D01*
X157522627Y-99787199D01*
X157325954Y-99868708D01*
X157105002Y-99709970D01*
X156884049Y-99551231D01*
X156692950Y-99742330D01*
X156501852Y-99933429D01*
X156658586Y-100169559D01*
X156815321Y-100405690D01*
X156733973Y-100589589D01*
X156679925Y-100697868D01*
X156621196Y-100759433D01*
X156528679Y-100795853D01*
X156424963Y-100818584D01*
X156303437Y-100839882D01*
X156198143Y-100848408D01*
X156082335Y-100843442D01*
X155929268Y-100824267D01*
X155781104Y-100801279D01*
X155672716Y-100772857D01*
X155600651Y-100714782D01*
X155534817Y-100602154D01*
X155530985Y-100594305D01*
X155443062Y-100413335D01*
X155576764Y-100204978D01*
X155649263Y-100084069D01*
X155697819Y-99987906D01*
X155710467Y-99947329D01*
X155681697Y-99893283D01*
X155607456Y-99805450D01*
X155534791Y-99732564D01*
X155359116Y-99567090D01*
X155135008Y-99715889D01*
X154910899Y-99864689D01*
X154722748Y-99792833D01*
X154617257Y-99748263D01*
X154555681Y-99699624D01*
X154519127Y-99621296D01*
X154488704Y-99487656D01*
X154485402Y-99470922D01*
X154458341Y-99263939D01*
X154468823Y-99068649D01*
X154486549Y-98964978D01*
X154519177Y-98820229D01*
X154555569Y-98734456D01*
X154611223Y-98682787D01*
X154684349Y-98647478D01*
X154813278Y-98601020D01*
X154911755Y-98594315D01*
X155012378Y-98632051D01*
X155138967Y-98712866D01*
X155249558Y-98784522D01*
X155333007Y-98830575D01*
X155360253Y-98839866D01*
X155407741Y-98811795D01*
X155491793Y-98739369D01*
X155564042Y-98668749D01*
X155731133Y-98497632D01*
X155657300Y-98372416D01*
X155580034Y-98241404D01*
X155511369Y-98125008D01*
X155469120Y-98042817D01*
X155462913Y-97974861D01*
X155493430Y-97883779D01*
X155516736Y-97831031D01*
X155573696Y-97724188D01*
X155641051Y-97663930D01*
X155750328Y-97626381D01*
X155802584Y-97614557D01*
X156055041Y-97577548D01*
X156283323Y-97587254D01*
X156468839Y-97626190D01*
X156594381Y-97670108D01*
X156670159Y-97735898D01*
X156729748Y-97851053D01*
X156803786Y-98026407D01*
X156659293Y-98240966D01*
X156583292Y-98356244D01*
X156530953Y-98440266D01*
X156514800Y-98471626D01*
X156542762Y-98511777D01*
X156612625Y-98587802D01*
X156703356Y-98679011D01*
X156793920Y-98764713D01*
X156863285Y-98824215D01*
X156888476Y-98839219D01*
X156936166Y-98816814D01*
X157030636Y-98759398D01*
X157124993Y-98697185D01*
X157243313Y-98619489D01*
X157321874Y-98583718D01*
X157390609Y-98583720D01*
X157479454Y-98613344D01*
X157497876Y-98620556D01*
X157612040Y-98679084D01*
X157691799Y-98744446D01*
X157703044Y-98760638D01*
X157737396Y-98870696D01*
X157760987Y-99034868D01*
X157771774Y-99223053D01*
X158389511Y-99223053D01*
X158384736Y-99068845D01*
X158413773Y-98878108D01*
X158482783Y-98745151D01*
X158590860Y-98661983D01*
X158725663Y-98606074D01*
X158833644Y-98596736D01*
X158945380Y-98637740D01*
X159075830Y-98721791D01*
X159268669Y-98857717D01*
X159464570Y-98661815D01*
X159660472Y-98465914D01*
X159510009Y-98256480D01*
X159359547Y-98047047D01*
X159442150Y-97862547D01*
X159504859Y-97735311D01*
X159567706Y-97660689D01*
X159657506Y-97619670D01*
X159801075Y-97593248D01*
X159827197Y-97589603D01*
X160032143Y-97561416D01*
X160019721Y-97280660D01*
X160007300Y-96999905D01*
X159777908Y-96956543D01*
X159638833Y-96923847D01*
X159560385Y-96883583D01*
X159518755Y-96821936D01*
X159511421Y-96801894D01*
X159474325Y-96690607D01*
X159042312Y-96869045D01*
X158610300Y-97047484D01*
X158623937Y-97200592D01*
X158604623Y-97391407D01*
X158524295Y-97574257D01*
X158398570Y-97717028D01*
X158359688Y-97744039D01*
X158173225Y-97815442D01*
X157988659Y-97813891D01*
X157819632Y-97750283D01*
X157679783Y-97635511D01*
X157582753Y-97480471D01*
X157542182Y-97296058D01*
X157566296Y-97110327D01*
X157660344Y-96928662D01*
X157812941Y-96806108D01*
X158018447Y-96746568D01*
X158099749Y-96741366D01*
X158308864Y-96738260D01*
X158468112Y-96360313D01*
X158537000Y-96191989D01*
X158591347Y-96050027D01*
X158623689Y-95954416D01*
X158629413Y-95928402D01*
X158595897Y-95874690D01*
X158527911Y-95835065D01*
X158446477Y-95775595D01*
X158402131Y-95661323D01*
X158397214Y-95635030D01*
X158368988Y-95477369D01*
X158337779Y-95385223D01*
X158284318Y-95341023D01*
X158189340Y-95327195D01*
X158058572Y-95326200D01*
X157787716Y-95326200D01*
X157760357Y-95532445D01*
X157760357Y-95532445D01*
G37*
X157760357Y-95532445D02*
X157736053Y-95683678D01*
X157700597Y-95777434D01*
X157634994Y-95840542D01*
X157520248Y-95899827D01*
X157490822Y-95913097D01*
X157305025Y-95996281D01*
X157091010Y-95852155D01*
X156876994Y-95708028D01*
X156695897Y-95885761D01*
X156599493Y-95985362D01*
X156533806Y-96062770D01*
X156514800Y-96095776D01*
X156537405Y-96145725D01*
X156595578Y-96239978D01*
X156648933Y-96318353D01*
X156725261Y-96433272D01*
X156757923Y-96514163D01*
X156754781Y-96594175D01*
X156733405Y-96674402D01*
X156687736Y-96798632D01*
X156627368Y-96877091D01*
X156529660Y-96927712D01*
X156371969Y-96968425D01*
X156358530Y-96971276D01*
X156198438Y-96989023D01*
X156013780Y-96985964D01*
X155832673Y-96965146D01*
X155683238Y-96929614D01*
X155601026Y-96889227D01*
X155559234Y-96827121D01*
X155512217Y-96719520D01*
X155500537Y-96686130D01*
X155472355Y-96586011D01*
X155474088Y-96510716D01*
X155512886Y-96427349D01*
X155578228Y-96328647D01*
X155651514Y-96215974D01*
X155699535Y-96130340D01*
X155710467Y-96099970D01*
X155682418Y-96053003D01*
X155609661Y-95968366D01*
X155529370Y-95885761D01*
X155348273Y-95708028D01*
X155134257Y-95852155D01*
X154920242Y-95996281D01*
X154734827Y-95913268D01*
X154623027Y-95861526D01*
X154548551Y-95823893D01*
X154533434Y-95814278D01*
X154516134Y-95767387D01*
X154488597Y-95663709D01*
X154467388Y-95572833D01*
X154417320Y-95347366D01*
X153869763Y-95347366D01*
X153833978Y-95572181D01*
X153802772Y-95715952D01*
X153758929Y-95799219D01*
X153695996Y-95843559D01*
X153620550Y-95893685D01*
X153595854Y-95936245D01*
X153612346Y-95993082D01*
X153655009Y-96108243D01*
X153716455Y-96262318D01*
X153758422Y-96363366D01*
X153918937Y-96744366D01*
X154126785Y-96745466D01*
X154351894Y-96781295D01*
X154525029Y-96882232D01*
X154640382Y-97042408D01*
X154692142Y-97255958D01*
X154694467Y-97318744D01*
X154683877Y-97437137D01*
X154641119Y-97532731D01*
X154549710Y-97639704D01*
X154530114Y-97659513D01*
X154418315Y-97759945D01*
X154323195Y-97809168D01*
X154210578Y-97823667D01*
X154189345Y-97823866D01*
X153966888Y-97788771D01*
X153794406Y-97687317D01*
X153677503Y-97525253D01*
X153621782Y-97308330D01*
X153617890Y-97237499D01*
X153614967Y-97053299D01*
X153218478Y-96888249D01*
X153048374Y-96818860D01*
X152907027Y-96763852D01*
X152812861Y-96730246D01*
X152785368Y-96723199D01*
X152748499Y-96758945D01*
X152723400Y-96824189D01*
X152694865Y-96884939D01*
X152632498Y-96926525D01*
X152515336Y-96960364D01*
X152447427Y-96974486D01*
X152196800Y-97023793D01*
X152196800Y-97566030D01*
X152355550Y-97592581D01*
X152531501Y-97626734D01*
X152644856Y-97666767D01*
X152717296Y-97726660D01*
X152770503Y-97820393D01*
X152792848Y-97874531D01*
X152869452Y-98069548D01*
X152724231Y-98273804D01*
X152579010Y-98478061D01*
X152756552Y-98658963D01*
X152856870Y-98755418D01*
X152935946Y-98821044D01*
X152970570Y-98839866D01*
X153023219Y-98817550D01*
X153119923Y-98760129D01*
X153199247Y-98707628D01*
X153314227Y-98632698D01*
X153393877Y-98600758D01*
X153471090Y-98604657D01*
X153556731Y-98629937D01*
X153676331Y-98675783D01*
X153750414Y-98730950D01*
X153797162Y-98818826D01*
X153834755Y-98962801D01*
X153842064Y-98997010D01*
X153861700Y-99169032D01*
X153856966Y-99354599D01*
X153831230Y-99527043D01*
X153787860Y-99659698D01*
X153751779Y-99711981D01*
X153677448Y-99757651D01*
X153566377Y-99804348D01*
X153555370Y-99808099D01*
X153463930Y-99831362D01*
X153386510Y-99823688D01*
X153291403Y-99777751D01*
X153212997Y-99728993D01*
X153096629Y-99658696D01*
X153007123Y-99612528D01*
X152974269Y-99601866D01*
X152920674Y-99631259D01*
X152836631Y-99704225D01*
X152744228Y-99797941D01*
X152665556Y-99889588D01*
X152622706Y-99956344D01*
X152620133Y-99967716D01*
X152643339Y-100025164D01*
X152702738Y-100123389D01*
X152750604Y-100192605D01*
X152881074Y-100372714D01*
X152800483Y-100569373D01*
X152750397Y-100679908D01*
X152697066Y-100746159D01*
X152614359Y-100788647D01*
X152476146Y-100827890D01*
X152468929Y-100829724D01*
X152217967Y-100893415D01*
X152193165Y-101406583D01*
X152459566Y-101467308D01*
X152608879Y-101506087D01*
X152693208Y-101543682D01*
X152731424Y-101590607D01*
X152739494Y-101623283D01*
X152750619Y-101679412D01*
X152774583Y-101707263D01*
X152827057Y-101705724D01*
X152923709Y-101673686D01*
X153080208Y-101610036D01*
X153111728Y-101596895D01*
X153322363Y-101508891D01*
X153467487Y-101444894D01*
X153559270Y-101395240D01*
X153609883Y-101350265D01*
X153631497Y-101300303D01*
X153636282Y-101235690D01*
X153636133Y-101180469D01*
X153668566Y-100953631D01*
X153763997Y-100782849D01*
X153919626Y-100670897D01*
X154132652Y-100620548D01*
X154204120Y-100617866D01*
X154339201Y-100629050D01*
X154440540Y-100674889D01*
X154538627Y-100761182D01*
X154670786Y-100941553D01*
X154719806Y-101130144D01*
X154685681Y-101319351D01*
X154568407Y-101501572D01*
X154539121Y-101532390D01*
X154441956Y-101618973D01*
X154351819Y-101661700D01*
X154230317Y-101675465D01*
X154168418Y-101676200D01*
X154018491Y-101686113D01*
X153932732Y-101713885D01*
X153919596Y-101729116D01*
X153846943Y-101905647D01*
X153772440Y-102088703D01*
X153702984Y-102261074D01*
X153645473Y-102405556D01*
X153606805Y-102504940D01*
X153593800Y-102541817D01*
X153629354Y-102561364D01*
X153698989Y-102582422D01*
X153794863Y-102644484D01*
X153828114Y-102724594D01*
X153864773Y-102899776D01*
X153896242Y-103008979D01*
X153937244Y-103068514D01*
X154002507Y-103094693D01*
X154106757Y-103103828D01*
X154173223Y-103106864D01*
X154432301Y-103119361D01*
X154489301Y-102860153D01*
X154524076Y-102716575D01*
X154561672Y-102630159D01*
X154621262Y-102574995D01*
X154722024Y-102525172D01*
X154744383Y-102515475D01*
X154942466Y-102430003D01*
X155133010Y-102561101D01*
X155245222Y-102634034D01*
X155330362Y-102681631D01*
X155360030Y-102692200D01*
X155406997Y-102664151D01*
X155491634Y-102591394D01*
X155574238Y-102511103D01*
X155751972Y-102330006D01*
X155604701Y-102111321D01*
X155457431Y-101892637D01*
X155538303Y-101703970D01*
X155593529Y-101590532D01*
X155654002Y-101526793D01*
X155749992Y-101488857D01*
X155836238Y-101468751D01*
X155976897Y-101441795D01*
X156093402Y-101424990D01*
X156133800Y-101422200D01*
X156220778Y-101430856D01*
X156352690Y-101452914D01*
X156431362Y-101468751D01*
X156562789Y-101502674D01*
X156640714Y-101548201D01*
X156695408Y-101629230D01*
X156729298Y-101703970D01*
X156810170Y-101892637D01*
X156662899Y-102111321D01*
X156515629Y-102330006D01*
X156693362Y-102511103D01*
X156793730Y-102607614D01*
X156872859Y-102673309D01*
X156907570Y-102692200D01*
X156960290Y-102669889D01*
X157056904Y-102612528D01*
X157134590Y-102561101D01*
X157325134Y-102430003D01*
X157522862Y-102515594D01*
X157645325Y-102576540D01*
X157711395Y-102639542D01*
X157745717Y-102731164D01*
X157752513Y-102763109D01*
X157786255Y-102933662D01*
X157815165Y-103038072D01*
X157854382Y-103092472D01*
X157919050Y-103112996D01*
X158024309Y-103115776D01*
X158083269Y-103115533D01*
X158249403Y-103106479D01*
X158341993Y-103080171D01*
X158358061Y-103062616D01*
X158377202Y-102990589D01*
X158401443Y-102871802D01*
X158410819Y-102819209D01*
X158446174Y-102684613D01*
X158504947Y-102605845D01*
X158557268Y-102574099D01*
X158671229Y-102519478D01*
X158591279Y-102320089D01*
X158525515Y-102158338D01*
X158450303Y-101976494D01*
X158417587Y-101898450D01*
X158323845Y-101676200D01*
X158124083Y-101676200D01*
X157914547Y-101641774D01*
X157746445Y-101548619D01*
X157625816Y-101411920D01*
X157558699Y-101246861D01*
X157551134Y-101068627D01*
X157609160Y-100892401D01*
X157738817Y-100733368D01*
X157746479Y-100726819D01*
X157852735Y-100655811D01*
X157972488Y-100624288D01*
X158094965Y-100619213D01*
X158312866Y-100654633D01*
X158477736Y-100754744D01*
X158584988Y-100914800D01*
X158630039Y-101130055D01*
X158631188Y-101174186D01*
X158630148Y-101249957D01*
X158634333Y-101305683D01*
X158655078Y-101349651D01*
X158703720Y-101390146D01*
X158791593Y-101435455D01*
X158930032Y-101493866D01*
X159130373Y-101573663D01*
X159234041Y-101614886D01*
X159476783Y-101711712D01*
X159530522Y-101599589D01*
X159580958Y-101528023D01*
X159664124Y-101481307D01*
X159805135Y-101445752D01*
X159816947Y-101443493D01*
X160049633Y-101399520D01*
X160062203Y-101136998D01*
X160068577Y-101008131D01*
X160062408Y-100926511D01*
X160028376Y-100877229D01*
X159951163Y-100845376D01*
X159815448Y-100816045D01*
X159711660Y-100795850D01*
X159604754Y-100765914D01*
X159537025Y-100712936D01*
X159481090Y-100611778D01*
X159461752Y-100566438D01*
X159380483Y-100370345D01*
X159520582Y-100152020D01*
X159660681Y-99933694D01*
X159278218Y-99551231D01*
X159066183Y-99703563D01*
X158854149Y-99855895D01*
X158659336Y-99783692D01*
X158545607Y-99736285D01*
X158473803Y-99683071D01*
X158431812Y-99603309D01*
X158407518Y-99476256D01*
X158392736Y-99327221D01*
X158389511Y-99223053D01*
X157771774Y-99223053D01*
X157767713Y-99405147D01*
X157754336Y-99516195D01*
X157725840Y-99633476D01*
X157679199Y-99704437D01*
X157589366Y-99758373D01*
X157522627Y-99787199D01*
X157325954Y-99868708D01*
X157105002Y-99709970D01*
X156884049Y-99551231D01*
X156692950Y-99742330D01*
X156501852Y-99933429D01*
X156658586Y-100169559D01*
X156815321Y-100405690D01*
X156733973Y-100589589D01*
X156679925Y-100697868D01*
X156621196Y-100759433D01*
X156528679Y-100795853D01*
X156424963Y-100818584D01*
X156303437Y-100839882D01*
X156198143Y-100848408D01*
X156082335Y-100843442D01*
X155929268Y-100824267D01*
X155781104Y-100801279D01*
X155672716Y-100772857D01*
X155600651Y-100714782D01*
X155534817Y-100602154D01*
X155530985Y-100594305D01*
X155443062Y-100413335D01*
X155576764Y-100204978D01*
X155649263Y-100084069D01*
X155697819Y-99987906D01*
X155710467Y-99947329D01*
X155681697Y-99893283D01*
X155607456Y-99805450D01*
X155534791Y-99732564D01*
X155359116Y-99567090D01*
X155135008Y-99715889D01*
X154910899Y-99864689D01*
X154722748Y-99792833D01*
X154617257Y-99748263D01*
X154555681Y-99699624D01*
X154519127Y-99621296D01*
X154488704Y-99487656D01*
X154485402Y-99470922D01*
X154458341Y-99263939D01*
X154468823Y-99068649D01*
X154486549Y-98964978D01*
X154519177Y-98820229D01*
X154555569Y-98734456D01*
X154611223Y-98682787D01*
X154684349Y-98647478D01*
X154813278Y-98601020D01*
X154911755Y-98594315D01*
X155012378Y-98632051D01*
X155138967Y-98712866D01*
X155249558Y-98784522D01*
X155333007Y-98830575D01*
X155360253Y-98839866D01*
X155407741Y-98811795D01*
X155491793Y-98739369D01*
X155564042Y-98668749D01*
X155731133Y-98497632D01*
X155657300Y-98372416D01*
X155580034Y-98241404D01*
X155511369Y-98125008D01*
X155469120Y-98042817D01*
X155462913Y-97974861D01*
X155493430Y-97883779D01*
X155516736Y-97831031D01*
X155573696Y-97724188D01*
X155641051Y-97663930D01*
X155750328Y-97626381D01*
X155802584Y-97614557D01*
X156055041Y-97577548D01*
X156283323Y-97587254D01*
X156468839Y-97626190D01*
X156594381Y-97670108D01*
X156670159Y-97735898D01*
X156729748Y-97851053D01*
X156803786Y-98026407D01*
X156659293Y-98240966D01*
X156583292Y-98356244D01*
X156530953Y-98440266D01*
X156514800Y-98471626D01*
X156542762Y-98511777D01*
X156612625Y-98587802D01*
X156703356Y-98679011D01*
X156793920Y-98764713D01*
X156863285Y-98824215D01*
X156888476Y-98839219D01*
X156936166Y-98816814D01*
X157030636Y-98759398D01*
X157124993Y-98697185D01*
X157243313Y-98619489D01*
X157321874Y-98583718D01*
X157390609Y-98583720D01*
X157479454Y-98613344D01*
X157497876Y-98620556D01*
X157612040Y-98679084D01*
X157691799Y-98744446D01*
X157703044Y-98760638D01*
X157737396Y-98870696D01*
X157760987Y-99034868D01*
X157771774Y-99223053D01*
X158389511Y-99223053D01*
X158384736Y-99068845D01*
X158413773Y-98878108D01*
X158482783Y-98745151D01*
X158590860Y-98661983D01*
X158725663Y-98606074D01*
X158833644Y-98596736D01*
X158945380Y-98637740D01*
X159075830Y-98721791D01*
X159268669Y-98857717D01*
X159464570Y-98661815D01*
X159660472Y-98465914D01*
X159510009Y-98256480D01*
X159359547Y-98047047D01*
X159442150Y-97862547D01*
X159504859Y-97735311D01*
X159567706Y-97660689D01*
X159657506Y-97619670D01*
X159801075Y-97593248D01*
X159827197Y-97589603D01*
X160032143Y-97561416D01*
X160019721Y-97280660D01*
X160007300Y-96999905D01*
X159777908Y-96956543D01*
X159638833Y-96923847D01*
X159560385Y-96883583D01*
X159518755Y-96821936D01*
X159511421Y-96801894D01*
X159474325Y-96690607D01*
X159042312Y-96869045D01*
X158610300Y-97047484D01*
X158623937Y-97200592D01*
X158604623Y-97391407D01*
X158524295Y-97574257D01*
X158398570Y-97717028D01*
X158359688Y-97744039D01*
X158173225Y-97815442D01*
X157988659Y-97813891D01*
X157819632Y-97750283D01*
X157679783Y-97635511D01*
X157582753Y-97480471D01*
X157542182Y-97296058D01*
X157566296Y-97110327D01*
X157660344Y-96928662D01*
X157812941Y-96806108D01*
X158018447Y-96746568D01*
X158099749Y-96741366D01*
X158308864Y-96738260D01*
X158468112Y-96360313D01*
X158537000Y-96191989D01*
X158591347Y-96050027D01*
X158623689Y-95954416D01*
X158629413Y-95928402D01*
X158595897Y-95874690D01*
X158527911Y-95835065D01*
X158446477Y-95775595D01*
X158402131Y-95661323D01*
X158397214Y-95635030D01*
X158368988Y-95477369D01*
X158337779Y-95385223D01*
X158284318Y-95341023D01*
X158189340Y-95327195D01*
X158058572Y-95326200D01*
X157787716Y-95326200D01*
X157760357Y-95532445D01*
G36*
X145143360Y-99173199D02*
X144973973Y-99271121D01*
X144854077Y-99321528D01*
X144763136Y-99324495D01*
X144680615Y-99280098D01*
X144585980Y-99188413D01*
X144573808Y-99175291D01*
X144472785Y-99079951D01*
X144415602Y-99056085D01*
X144405463Y-99100893D01*
X144445576Y-99211571D01*
X144471683Y-99264585D01*
X144577253Y-99392543D01*
X144725731Y-99478656D01*
X144893100Y-99517828D01*
X145055344Y-99504964D01*
X145188447Y-99434967D01*
X145203770Y-99419914D01*
X145278964Y-99305724D01*
X145322626Y-99185321D01*
X145350087Y-99048013D01*
X145143360Y-99173199D01*
X145143360Y-99173199D01*
G37*
X145143360Y-99173199D02*
X144973973Y-99271121D01*
X144854077Y-99321528D01*
X144763136Y-99324495D01*
X144680615Y-99280098D01*
X144585980Y-99188413D01*
X144573808Y-99175291D01*
X144472785Y-99079951D01*
X144415602Y-99056085D01*
X144405463Y-99100893D01*
X144445576Y-99211571D01*
X144471683Y-99264585D01*
X144577253Y-99392543D01*
X144725731Y-99478656D01*
X144893100Y-99517828D01*
X145055344Y-99504964D01*
X145188447Y-99434967D01*
X145203770Y-99419914D01*
X145278964Y-99305724D01*
X145322626Y-99185321D01*
X145350087Y-99048013D01*
X145143360Y-99173199D01*
G36*
X145111555Y-98263379D02*
X145125732Y-98358508D01*
X145137708Y-98386578D01*
X145184280Y-98473771D01*
X145227254Y-98492138D01*
X145295330Y-98451116D01*
X145307050Y-98442270D01*
X145373603Y-98364229D01*
X145356228Y-98296165D01*
X145268407Y-98244579D01*
X145160372Y-98224035D01*
X145111555Y-98263379D01*
X145111555Y-98263379D01*
G37*
X145111555Y-98263379D02*
X145125732Y-98358508D01*
X145137708Y-98386578D01*
X145184280Y-98473771D01*
X145227254Y-98492138D01*
X145295330Y-98451116D01*
X145307050Y-98442270D01*
X145373603Y-98364229D01*
X145356228Y-98296165D01*
X145268407Y-98244579D01*
X145160372Y-98224035D01*
X145111555Y-98263379D01*
G36*
X144478497Y-98221035D02*
X144424548Y-98264046D01*
X144445403Y-98325658D01*
X144477311Y-98354503D01*
X144580325Y-98409798D01*
X144662333Y-98393311D01*
X144695333Y-98365733D01*
X144746293Y-98284435D01*
X144718796Y-98228515D01*
X144617068Y-98205143D01*
X144600465Y-98204866D01*
X144478497Y-98221035D01*
X144478497Y-98221035D01*
G37*
X144478497Y-98221035D02*
X144424548Y-98264046D01*
X144445403Y-98325658D01*
X144477311Y-98354503D01*
X144580325Y-98409798D01*
X144662333Y-98393311D01*
X144695333Y-98365733D01*
X144746293Y-98284435D01*
X144718796Y-98228515D01*
X144617068Y-98205143D01*
X144600465Y-98204866D01*
X144478497Y-98221035D01*
D13*
X145738904Y-87909476D02*
X146386523Y-87909476D01*
X146462714Y-87947571D01*
X146500809Y-87985666D01*
X146538904Y-88061857D01*
X146538904Y-88214238D01*
X146500809Y-88290428D01*
X146462714Y-88328523D01*
X146386523Y-88366619D01*
X145738904Y-88366619D01*
X145738904Y-88671380D02*
X145738904Y-89204714D01*
X146538904Y-88861857D01*
D11*
X132361542Y-94059805D02*
X132232971Y-94102662D01*
X132018685Y-94102662D01*
X131932971Y-94059805D01*
X131890114Y-94016948D01*
X131847257Y-93931234D01*
X131847257Y-93845520D01*
X131890114Y-93759805D01*
X131932971Y-93716948D01*
X132018685Y-93674091D01*
X132190114Y-93631234D01*
X132275828Y-93588377D01*
X132318685Y-93545520D01*
X132361542Y-93459805D01*
X132361542Y-93374091D01*
X132318685Y-93288377D01*
X132275828Y-93245520D01*
X132190114Y-93202662D01*
X131975828Y-93202662D01*
X131847257Y-93245520D01*
X131547257Y-93202662D02*
X131332971Y-94102662D01*
X131161542Y-93459805D01*
X130990114Y-94102662D01*
X130775828Y-93202662D01*
X130432971Y-94102662D02*
X130432971Y-93202662D01*
X130218685Y-93202662D01*
X130090114Y-93245520D01*
X130004400Y-93331234D01*
X129961542Y-93416948D01*
X129918685Y-93588377D01*
X129918685Y-93716948D01*
X129961542Y-93888377D01*
X130004400Y-93974091D01*
X130090114Y-94059805D01*
X130218685Y-94102662D01*
X130432971Y-94102662D01*
X129532971Y-94102662D02*
X129532971Y-93202662D01*
X128932971Y-93202662D02*
X128761542Y-93202662D01*
X128675828Y-93245520D01*
X128590114Y-93331234D01*
X128547257Y-93502662D01*
X128547257Y-93802662D01*
X128590114Y-93974091D01*
X128675828Y-94059805D01*
X128761542Y-94102662D01*
X128932971Y-94102662D01*
X129018685Y-94059805D01*
X129104400Y-93974091D01*
X129147257Y-93802662D01*
X129147257Y-93502662D01*
X129104400Y-93331234D01*
X129018685Y-93245520D01*
X128932971Y-93202662D01*
X126939782Y-96457457D02*
X126511211Y-96157457D01*
X126939782Y-95943171D02*
X126039782Y-95943171D01*
X126039782Y-96286028D01*
X126082640Y-96371742D01*
X126125497Y-96414600D01*
X126211211Y-96457457D01*
X126339782Y-96457457D01*
X126425497Y-96414600D01*
X126468354Y-96371742D01*
X126511211Y-96286028D01*
X126511211Y-95943171D01*
X126468354Y-96843171D02*
X126468354Y-97143171D01*
X126939782Y-97271742D02*
X126939782Y-96843171D01*
X126039782Y-96843171D01*
X126039782Y-97271742D01*
X126896925Y-97614600D02*
X126939782Y-97743171D01*
X126939782Y-97957457D01*
X126896925Y-98043171D01*
X126854068Y-98086028D01*
X126768354Y-98128885D01*
X126682640Y-98128885D01*
X126596925Y-98086028D01*
X126554068Y-98043171D01*
X126511211Y-97957457D01*
X126468354Y-97786028D01*
X126425497Y-97700314D01*
X126382640Y-97657457D01*
X126296925Y-97614600D01*
X126211211Y-97614600D01*
X126125497Y-97657457D01*
X126082640Y-97700314D01*
X126039782Y-97786028D01*
X126039782Y-98000314D01*
X126082640Y-98128885D01*
X126468354Y-98514600D02*
X126468354Y-98814600D01*
X126939782Y-98943171D02*
X126939782Y-98514600D01*
X126039782Y-98514600D01*
X126039782Y-98943171D01*
X126039782Y-99200314D02*
X126039782Y-99714600D01*
X126939782Y-99457457D02*
X126039782Y-99457457D01*
X132485034Y-102187805D02*
X132356462Y-102230662D01*
X132142177Y-102230662D01*
X132056462Y-102187805D01*
X132013605Y-102144948D01*
X131970748Y-102059234D01*
X131970748Y-101973520D01*
X132013605Y-101887805D01*
X132056462Y-101844948D01*
X132142177Y-101802091D01*
X132313605Y-101759234D01*
X132399320Y-101716377D01*
X132442177Y-101673520D01*
X132485034Y-101587805D01*
X132485034Y-101502091D01*
X132442177Y-101416377D01*
X132399320Y-101373520D01*
X132313605Y-101330662D01*
X132099320Y-101330662D01*
X131970748Y-101373520D01*
X131670748Y-101330662D02*
X131456462Y-102230662D01*
X131285034Y-101587805D01*
X131113605Y-102230662D01*
X130899320Y-101330662D01*
X130042177Y-102144948D02*
X130085034Y-102187805D01*
X130213605Y-102230662D01*
X130299320Y-102230662D01*
X130427891Y-102187805D01*
X130513605Y-102102091D01*
X130556462Y-102016377D01*
X130599320Y-101844948D01*
X130599320Y-101716377D01*
X130556462Y-101544948D01*
X130513605Y-101459234D01*
X130427891Y-101373520D01*
X130299320Y-101330662D01*
X130213605Y-101330662D01*
X130085034Y-101373520D01*
X130042177Y-101416377D01*
X129227891Y-102230662D02*
X129656462Y-102230662D01*
X129656462Y-101330662D01*
X128927891Y-102230662D02*
X128927891Y-101330662D01*
X128413605Y-102230662D02*
X128799320Y-101716377D01*
X128413605Y-101330662D02*
X128927891Y-101844948D01*
X133258474Y-95709320D02*
X133344188Y-95666462D01*
X133472760Y-95666462D01*
X133601331Y-95709320D01*
X133687045Y-95795034D01*
X133729902Y-95880748D01*
X133772760Y-96052177D01*
X133772760Y-96180748D01*
X133729902Y-96352177D01*
X133687045Y-96437891D01*
X133601331Y-96523605D01*
X133472760Y-96566462D01*
X133387045Y-96566462D01*
X133258474Y-96523605D01*
X133215617Y-96480748D01*
X133215617Y-96180748D01*
X133387045Y-96180748D01*
X132829902Y-96566462D02*
X132829902Y-95666462D01*
X132315617Y-96566462D01*
X132315617Y-95666462D01*
X131887045Y-96566462D02*
X131887045Y-95666462D01*
X131672760Y-95666462D01*
X131544188Y-95709320D01*
X131458474Y-95795034D01*
X131415617Y-95880748D01*
X131372760Y-96052177D01*
X131372760Y-96180748D01*
X131415617Y-96352177D01*
X131458474Y-96437891D01*
X131544188Y-96523605D01*
X131672760Y-96566462D01*
X131887045Y-96566462D01*
X134208422Y-95160474D02*
X134208422Y-95717617D01*
X134551280Y-95417617D01*
X134551280Y-95546188D01*
X134594137Y-95631902D01*
X134636994Y-95674760D01*
X134722708Y-95717617D01*
X134936994Y-95717617D01*
X135022708Y-95674760D01*
X135065565Y-95631902D01*
X135108422Y-95546188D01*
X135108422Y-95289045D01*
X135065565Y-95203331D01*
X135022708Y-95160474D01*
X134508422Y-96017617D02*
X135108422Y-96231902D01*
X134508422Y-96446188D01*
X134208422Y-96703331D02*
X134208422Y-97260474D01*
X134551280Y-96960474D01*
X134551280Y-97089045D01*
X134594137Y-97174760D01*
X134636994Y-97217617D01*
X134722708Y-97260474D01*
X134936994Y-97260474D01*
X135022708Y-97217617D01*
X135065565Y-97174760D01*
X135108422Y-97089045D01*
X135108422Y-96831902D01*
X135065565Y-96746188D01*
X135022708Y-96703331D01*
X135065565Y-98717617D02*
X135108422Y-98631902D01*
X135108422Y-98460474D01*
X135065565Y-98374760D01*
X135022708Y-98331902D01*
X134936994Y-98289045D01*
X134679851Y-98289045D01*
X134594137Y-98331902D01*
X134551280Y-98374760D01*
X134508422Y-98460474D01*
X134508422Y-98631902D01*
X134551280Y-98717617D01*
X134508422Y-99103331D02*
X135408422Y-99103331D01*
X134551280Y-99103331D02*
X134508422Y-99189045D01*
X134508422Y-99360474D01*
X134551280Y-99446188D01*
X134594137Y-99489045D01*
X134679851Y-99531902D01*
X134936994Y-99531902D01*
X135022708Y-99489045D01*
X135065565Y-99446188D01*
X135108422Y-99360474D01*
X135108422Y-99189045D01*
X135065565Y-99103331D01*
X134508422Y-100303331D02*
X135108422Y-100303331D01*
X134508422Y-99917617D02*
X134979851Y-99917617D01*
X135065565Y-99960474D01*
X135108422Y-100046188D01*
X135108422Y-100174760D01*
X135065565Y-100260474D01*
X135022708Y-100303331D01*
X151364285Y-81550000D02*
X151407142Y-81678571D01*
X151407142Y-81892857D01*
X151364285Y-81978571D01*
X151321428Y-82021428D01*
X151235714Y-82064285D01*
X151150000Y-82064285D01*
X151064285Y-82021428D01*
X151021428Y-81978571D01*
X150978571Y-81892857D01*
X150935714Y-81721428D01*
X150892857Y-81635714D01*
X150850000Y-81592857D01*
X150764285Y-81550000D01*
X150678571Y-81550000D01*
X150592857Y-81592857D01*
X150550000Y-81635714D01*
X150507142Y-81721428D01*
X150507142Y-81935714D01*
X150550000Y-82064285D01*
X150507142Y-82364285D02*
X151407142Y-82578571D01*
X150764285Y-82750000D01*
X151407142Y-82921428D01*
X150507142Y-83135714D01*
X151321428Y-83992857D02*
X151364285Y-83950000D01*
X151407142Y-83821428D01*
X151407142Y-83735714D01*
X151364285Y-83607142D01*
X151278571Y-83521428D01*
X151192857Y-83478571D01*
X151021428Y-83435714D01*
X150892857Y-83435714D01*
X150721428Y-83478571D01*
X150635714Y-83521428D01*
X150550000Y-83607142D01*
X150507142Y-83735714D01*
X150507142Y-83821428D01*
X150550000Y-83950000D01*
X150592857Y-83992857D01*
X151407142Y-84850000D02*
X151407142Y-84335714D01*
X151407142Y-84592857D02*
X150507142Y-84592857D01*
X150635714Y-84507142D01*
X150721428Y-84421428D01*
X150764285Y-84335714D01*
X155355085Y-81535000D02*
X155397942Y-81663571D01*
X155397942Y-81877857D01*
X155355085Y-81963571D01*
X155312228Y-82006428D01*
X155226514Y-82049285D01*
X155140800Y-82049285D01*
X155055085Y-82006428D01*
X155012228Y-81963571D01*
X154969371Y-81877857D01*
X154926514Y-81706428D01*
X154883657Y-81620714D01*
X154840800Y-81577857D01*
X154755085Y-81535000D01*
X154669371Y-81535000D01*
X154583657Y-81577857D01*
X154540800Y-81620714D01*
X154497942Y-81706428D01*
X154497942Y-81920714D01*
X154540800Y-82049285D01*
X154497942Y-82349285D02*
X155397942Y-82563571D01*
X154755085Y-82735000D01*
X155397942Y-82906428D01*
X154497942Y-83120714D01*
X155312228Y-83977857D02*
X155355085Y-83935000D01*
X155397942Y-83806428D01*
X155397942Y-83720714D01*
X155355085Y-83592142D01*
X155269371Y-83506428D01*
X155183657Y-83463571D01*
X155012228Y-83420714D01*
X154883657Y-83420714D01*
X154712228Y-83463571D01*
X154626514Y-83506428D01*
X154540800Y-83592142D01*
X154497942Y-83720714D01*
X154497942Y-83806428D01*
X154540800Y-83935000D01*
X154583657Y-83977857D01*
X154497942Y-84277857D02*
X154497942Y-84835000D01*
X154840800Y-84535000D01*
X154840800Y-84663571D01*
X154883657Y-84749285D01*
X154926514Y-84792142D01*
X155012228Y-84835000D01*
X155226514Y-84835000D01*
X155312228Y-84792142D01*
X155355085Y-84749285D01*
X155397942Y-84663571D01*
X155397942Y-84406428D01*
X155355085Y-84320714D01*
X155312228Y-84277857D01*
X153373885Y-81560400D02*
X153416742Y-81688971D01*
X153416742Y-81903257D01*
X153373885Y-81988971D01*
X153331028Y-82031828D01*
X153245314Y-82074685D01*
X153159600Y-82074685D01*
X153073885Y-82031828D01*
X153031028Y-81988971D01*
X152988171Y-81903257D01*
X152945314Y-81731828D01*
X152902457Y-81646114D01*
X152859600Y-81603257D01*
X152773885Y-81560400D01*
X152688171Y-81560400D01*
X152602457Y-81603257D01*
X152559600Y-81646114D01*
X152516742Y-81731828D01*
X152516742Y-81946114D01*
X152559600Y-82074685D01*
X152516742Y-82374685D02*
X153416742Y-82588971D01*
X152773885Y-82760400D01*
X153416742Y-82931828D01*
X152516742Y-83146114D01*
X153331028Y-84003257D02*
X153373885Y-83960400D01*
X153416742Y-83831828D01*
X153416742Y-83746114D01*
X153373885Y-83617542D01*
X153288171Y-83531828D01*
X153202457Y-83488971D01*
X153031028Y-83446114D01*
X152902457Y-83446114D01*
X152731028Y-83488971D01*
X152645314Y-83531828D01*
X152559600Y-83617542D01*
X152516742Y-83746114D01*
X152516742Y-83831828D01*
X152559600Y-83960400D01*
X152602457Y-84003257D01*
X152602457Y-84346114D02*
X152559600Y-84388971D01*
X152516742Y-84474685D01*
X152516742Y-84688971D01*
X152559600Y-84774685D01*
X152602457Y-84817542D01*
X152688171Y-84860400D01*
X152773885Y-84860400D01*
X152902457Y-84817542D01*
X153416742Y-84303257D01*
X153416742Y-84860400D01*
%LPC*%
D14*
X144399000Y-89773000D03*
X142399000Y-89773000D03*
X132399000Y-89773000D03*
X130399000Y-89773000D03*
X130399000Y-70873000D03*
X132399000Y-70873000D03*
X134399000Y-70873000D03*
X136399000Y-70873000D03*
X138399000Y-70873000D03*
X140399000Y-70873000D03*
X142399000Y-70873000D03*
D15*
X148742400Y-93548200D03*
D16*
X148742400Y-91008200D03*
D17*
X124460000Y-97790000D03*
X121920000Y-97790000D03*
X124460000Y-95250000D03*
X121920000Y-95250000D03*
X124460000Y-92710000D03*
X121920000Y-92710000D03*
X124460000Y-90170000D03*
X121920000Y-90170000D03*
X124460000Y-87630000D03*
X121920000Y-87630000D03*
X124460000Y-85090000D03*
X121920000Y-85090000D03*
D18*
X121920000Y-74930000D03*
D17*
X124460000Y-74930000D03*
X121920000Y-77470000D03*
X124460000Y-77470000D03*
X121920000Y-80010000D03*
X124460000Y-80010000D03*
X121920000Y-82550000D03*
X124460000Y-82550000D03*
D19*
X145427600Y-64795400D03*
X138277600Y-64795400D03*
X145427600Y-68245400D03*
X138277600Y-68245400D03*
D20*
X143852600Y-66920400D03*
X139852600Y-66920400D03*
D21*
X130434080Y-95234760D03*
D18*
X128346200Y-76530200D03*
D17*
X128346200Y-79070200D03*
D21*
X127894080Y-97769680D03*
X130434080Y-100309680D03*
X130434080Y-97769680D03*
X132974080Y-97769680D03*
D15*
X146888200Y-71196200D03*
D16*
X146888200Y-73736200D03*
D22*
X163982400Y-93216000D03*
X163982400Y-101196000D03*
D15*
X127127000Y-65786000D03*
D16*
X127127000Y-68326000D03*
D18*
X150622000Y-107950000D03*
D17*
X150622000Y-110490000D03*
X153162000Y-107950000D03*
X153162000Y-110490000D03*
X155702000Y-107950000D03*
X155702000Y-110490000D03*
X158242000Y-107950000D03*
X158242000Y-110490000D03*
X160782000Y-107950000D03*
X160782000Y-110490000D03*
X126746000Y-103378000D03*
X126746000Y-105918000D03*
X129286000Y-103378000D03*
X129286000Y-105918000D03*
X131826000Y-103378000D03*
X131826000Y-105918000D03*
D18*
X134366000Y-103378000D03*
D17*
X134366000Y-105918000D03*
D23*
X151000000Y-79944500D03*
X151000000Y-79055500D03*
D24*
X151000000Y-80262000D03*
X151000000Y-78738000D03*
D23*
X155000000Y-79944500D03*
X155000000Y-79055500D03*
D24*
X155000000Y-80262000D03*
X155000000Y-78738000D03*
D23*
X153000000Y-79055500D03*
X153000000Y-79944500D03*
D24*
X153000000Y-78738000D03*
X153000000Y-80262000D03*
M02*
