M48
;DRILL file {KiCad 4.0.1-3.201512221401+6198~38~ubuntu15.10.1-stable} date ons 20 jan 2016 22:02:16 CET
;FORMAT={-:-/ absolute / metric / decimal}
FMAT,2
METRIC,TZ
T1C0.400
T2C0.450
T3C1.016
T4C3.000
T5C0.650
T6C1.000
%
G90
G05
M71
T1
X120.55Y-78.711
X120.901Y-94.358
X121.793Y-100.076
X122.174Y-99.314
X123.19Y-94.361
X125.909Y-88.086
X125.92Y-80.518
X126.474Y-82.539
X126.873Y-74.93
X127.098Y-86.761
X127.279Y-87.484
X127.288Y-88.248
X127.654Y-109.603
X127.719Y-90.594
X127.904Y-88.634
X127.965Y-89.814
X127.989Y-84.636
X128.473Y-93.904
X128.6Y-98.374
X128.743Y-89.956
X128.778Y-78.486
X129.263Y-85.983
X129.29Y-89.385
X129.55Y-87.091
X129.902Y-86.454
X129.921Y-91.567
X130.302Y-77.47
X130.679Y-86.859
X130.874Y-66.421
X130.911Y-95.704
X130.937Y-83.312
X130.937Y-94.361
X131.383Y-87.041
X131.68Y-101.078
X131.826Y-94.107
X132.396Y-80.964
X132.438Y-76.638
X132.842Y-94.107
X132.893Y-83.416
X132.939Y-86.309
X133.045Y-75.895
X133.731Y-76.781
X133.731Y-107.315
X133.985Y-94.107
X134.493Y-100.64
X134.874Y-98.679
X135.128Y-94.107
X135.372Y-77.416
X135.509Y-75.184
X136.017Y-73.025
X136.066Y-85.984
X136.093Y-78.588
X136.144Y-94.107
X136.271Y-95.631
X136.339Y-73.77
X136.398Y-83.439
X136.614Y-99.695
X137.414Y-79.883
X138.206Y-87.918
X138.213Y-107.352
X138.227Y-101.549
X138.734Y-91.492
X138.989Y-85.09
X139.109Y-75.947
X139.359Y-76.697
X139.446Y-68.326
X139.497Y-85.801
X139.538Y-91.492
X139.625Y-73.823
X139.81Y-87.925
X139.905Y-99.238
X140.208Y-86.208
X140.208Y-95.504
X140.327Y-75.508
X141.078Y-92.295
X141.114Y-75.42
X141.356Y-87.255
X141.58Y-82.448
X141.751Y-77.254
X141.783Y-95.199
X141.986Y-75.946
X142.367Y-82.962
X142.604Y-100.381
X142.822Y-76.789
X143.051Y-83.208
X143.067Y-85.685
X143.128Y-75.93
X143.155Y-80.063
X143.318Y-83.976
X143.396Y-72.39
X143.51Y-92.329
X143.637Y-86.329
X143.637Y-73.596
X143.764Y-76.81
X143.866Y-79.869
X144.335Y-87.757
X144.374Y-101.752
X144.417Y-85.285
X144.426Y-84.201
X144.526Y-92.583
X144.774Y-82.47
X144.831Y-83.271
X144.907Y-78.613
X145.034Y-91.948
X145.036Y-84.773
X145.669Y-91.059
X146.202Y-99.995
X146.416Y-93.959
X146.812Y-72.898
X146.812Y-77.597
X147.008Y-92.863
X147.376Y-92.129
X147.386Y-93.959
X147.701Y-69.088
X147.828Y-84.328
X147.831Y-92.881
X148.113Y-76.83
X148.156Y-87.44
X148.174Y-74.89
X148.234Y-80.543
X148.835Y-81.566
X149.454Y-85.242
X149.731Y-88.011
X150.084Y-91.501
X150.11Y-90.144
X150.185Y-86.635
X150.506Y-92.054
X150.774Y-80.543
X150.961Y-91.479
X151.282Y-84.887
X151.956Y-106.68
X152.248Y-92.202
X153.314Y-80.543
X153.783Y-94.493
X153.955Y-93.762
X153.975Y-103.581
X154.127Y-91.542
X154.495Y-107.251
X154.534Y-92.862
X154.838Y-99.314
X155.397Y-85.242
X155.397Y-95.047
X164.033Y-103.683
T3
X121.92Y-74.93
X121.92Y-77.47
X121.92Y-80.01
X121.92Y-82.55
X121.92Y-85.09
X121.92Y-87.63
X121.92Y-90.17
X121.92Y-92.71
X121.92Y-95.25
X121.92Y-97.79
X124.46Y-74.93
X124.46Y-77.47
X124.46Y-80.01
X124.46Y-82.55
X124.46Y-85.09
X124.46Y-87.63
X124.46Y-90.17
X124.46Y-92.71
X124.46Y-95.25
X124.46Y-97.79
X126.746Y-103.378
X126.746Y-105.918
X129.286Y-103.378
X129.286Y-105.918
X131.826Y-103.378
X131.826Y-105.918
X134.112Y-67.437
X134.366Y-103.378
X134.366Y-105.918
X150.622Y-107.95
X150.622Y-110.49
X153.162Y-107.95
X153.162Y-110.49
X155.702Y-107.95
X155.702Y-110.49
X158.242Y-107.95
X158.242Y-110.49
X160.782Y-107.95
X160.782Y-110.49
T4
X122.809Y-67.818
X122.809Y-109.156
X164.211Y-67.818
X164.211Y-109.156
T5
X139.351Y-66.902
X143.351Y-66.902
T6
X163.982Y-91.873
X163.982Y-99.873
T2
X137.776Y-65.177G85X137.776Y-64.377
G05
X137.776Y-68.627G85X137.776Y-67.827
G05
X144.926Y-65.177G85X144.926Y-64.377
G05
X144.926Y-68.627G85X144.926Y-67.827
G05
T0
M30
