G04 #@! TF.FileFunction,Legend,Bot*
%FSLAX46Y46*%
G04 Gerber Fmt 4.6, Leading zero omitted, Abs format (unit mm)*
G04 Created by KiCad (PCBNEW 4.1.0-alpha+201605180746+6813~44~ubuntu16.04.1-product) date Thu May 19 20:41:09 2016*
%MOMM*%
%LPD*%
G01*
G04 APERTURE LIST*
%ADD10C,0.100000*%
%ADD11C,0.150000*%
%ADD12C,0.300000*%
%ADD13C,0.160000*%
%ADD14R,2.032000X2.032000*%
%ADD15O,2.032000X2.032000*%
%ADD16O,1.727200X1.727200*%
%ADD17R,1.727200X1.727200*%
%ADD18O,1.050000X1.850000*%
%ADD19C,0.650000*%
%ADD20R,1.524000X0.635000*%
%ADD21O,1.524000X1.270000*%
%ADD22C,1.524000*%
%ADD23C,1.000000*%
%ADD24R,1.200000X2.200000*%
G04 APERTURE END LIST*
D10*
D11*
X163819552Y-72760342D02*
X163867171Y-72807961D01*
X164010028Y-72855580D01*
X164105266Y-72855580D01*
X164248123Y-72807961D01*
X164343361Y-72712723D01*
X164390980Y-72617485D01*
X164438600Y-72427009D01*
X164438600Y-72284152D01*
X164390980Y-72093676D01*
X164343361Y-71998438D01*
X164248123Y-71903200D01*
X164105266Y-71855580D01*
X164010028Y-71855580D01*
X163867171Y-71903200D01*
X163819552Y-71950819D01*
X162962409Y-72188914D02*
X162962409Y-72855580D01*
X163390980Y-72188914D02*
X163390980Y-72712723D01*
X163343361Y-72807961D01*
X163248123Y-72855580D01*
X163105266Y-72855580D01*
X163010028Y-72807961D01*
X162962409Y-72760342D01*
X162629076Y-72188914D02*
X162248123Y-72188914D01*
X162486219Y-71855580D02*
X162486219Y-72712723D01*
X162438600Y-72807961D01*
X162343361Y-72855580D01*
X162248123Y-72855580D01*
X161295742Y-72188914D02*
X160914790Y-72188914D01*
X161152885Y-71855580D02*
X161152885Y-72712723D01*
X161105266Y-72807961D01*
X161010028Y-72855580D01*
X160914790Y-72855580D01*
X160438600Y-72855580D02*
X160533838Y-72807961D01*
X160581457Y-72760342D01*
X160629076Y-72665104D01*
X160629076Y-72379390D01*
X160581457Y-72284152D01*
X160533838Y-72236533D01*
X160438600Y-72188914D01*
X160295742Y-72188914D01*
X160200504Y-72236533D01*
X160152885Y-72284152D01*
X160105266Y-72379390D01*
X160105266Y-72665104D01*
X160152885Y-72760342D01*
X160200504Y-72807961D01*
X160295742Y-72855580D01*
X160438600Y-72855580D01*
X158486219Y-72855580D02*
X158486219Y-71855580D01*
X158486219Y-72807961D02*
X158581457Y-72855580D01*
X158771933Y-72855580D01*
X158867171Y-72807961D01*
X158914790Y-72760342D01*
X158962409Y-72665104D01*
X158962409Y-72379390D01*
X158914790Y-72284152D01*
X158867171Y-72236533D01*
X158771933Y-72188914D01*
X158581457Y-72188914D01*
X158486219Y-72236533D01*
X158010028Y-72855580D02*
X158010028Y-72188914D01*
X158010028Y-71855580D02*
X158057647Y-71903200D01*
X158010028Y-71950819D01*
X157962409Y-71903200D01*
X158010028Y-71855580D01*
X158010028Y-71950819D01*
X157581457Y-72807961D02*
X157486219Y-72855580D01*
X157295742Y-72855580D01*
X157200504Y-72807961D01*
X157152885Y-72712723D01*
X157152885Y-72665104D01*
X157200504Y-72569866D01*
X157295742Y-72522247D01*
X157438600Y-72522247D01*
X157533838Y-72474628D01*
X157581457Y-72379390D01*
X157581457Y-72331771D01*
X157533838Y-72236533D01*
X157438600Y-72188914D01*
X157295742Y-72188914D01*
X157200504Y-72236533D01*
X156295742Y-72855580D02*
X156295742Y-72331771D01*
X156343361Y-72236533D01*
X156438600Y-72188914D01*
X156629076Y-72188914D01*
X156724314Y-72236533D01*
X156295742Y-72807961D02*
X156390980Y-72855580D01*
X156629076Y-72855580D01*
X156724314Y-72807961D01*
X156771933Y-72712723D01*
X156771933Y-72617485D01*
X156724314Y-72522247D01*
X156629076Y-72474628D01*
X156390980Y-72474628D01*
X156295742Y-72427009D01*
X155819552Y-72855580D02*
X155819552Y-71855580D01*
X155819552Y-72236533D02*
X155724314Y-72188914D01*
X155533838Y-72188914D01*
X155438600Y-72236533D01*
X155390980Y-72284152D01*
X155343361Y-72379390D01*
X155343361Y-72665104D01*
X155390980Y-72760342D01*
X155438600Y-72807961D01*
X155533838Y-72855580D01*
X155724314Y-72855580D01*
X155819552Y-72807961D01*
X154771933Y-72855580D02*
X154867171Y-72807961D01*
X154914790Y-72712723D01*
X154914790Y-71855580D01*
X154010028Y-72807961D02*
X154105266Y-72855580D01*
X154295742Y-72855580D01*
X154390980Y-72807961D01*
X154438600Y-72712723D01*
X154438600Y-72331771D01*
X154390980Y-72236533D01*
X154295742Y-72188914D01*
X154105266Y-72188914D01*
X154010028Y-72236533D01*
X153962409Y-72331771D01*
X153962409Y-72427009D01*
X154438600Y-72522247D01*
X150486219Y-72474628D02*
X149724314Y-72474628D01*
X149248123Y-72188914D02*
X148486219Y-72474628D01*
X149248123Y-72760342D01*
X162200504Y-73838914D02*
X162200504Y-74838914D01*
X162200504Y-73886533D02*
X162105266Y-73838914D01*
X161914790Y-73838914D01*
X161819552Y-73886533D01*
X161771933Y-73934152D01*
X161724314Y-74029390D01*
X161724314Y-74315104D01*
X161771933Y-74410342D01*
X161819552Y-74457961D01*
X161914790Y-74505580D01*
X162105266Y-74505580D01*
X162200504Y-74457961D01*
X161152885Y-74505580D02*
X161248123Y-74457961D01*
X161295742Y-74410342D01*
X161343361Y-74315104D01*
X161343361Y-74029390D01*
X161295742Y-73934152D01*
X161248123Y-73886533D01*
X161152885Y-73838914D01*
X161010028Y-73838914D01*
X160914790Y-73886533D01*
X160867171Y-73934152D01*
X160819552Y-74029390D01*
X160819552Y-74315104D01*
X160867171Y-74410342D01*
X160914790Y-74457961D01*
X161010028Y-74505580D01*
X161152885Y-74505580D01*
X160486219Y-73838914D02*
X160295742Y-74505580D01*
X160105266Y-74029390D01*
X159914790Y-74505580D01*
X159724314Y-73838914D01*
X158962409Y-74457961D02*
X159057647Y-74505580D01*
X159248123Y-74505580D01*
X159343361Y-74457961D01*
X159390980Y-74362723D01*
X159390980Y-73981771D01*
X159343361Y-73886533D01*
X159248123Y-73838914D01*
X159057647Y-73838914D01*
X158962409Y-73886533D01*
X158914790Y-73981771D01*
X158914790Y-74077009D01*
X159390980Y-74172247D01*
X158486219Y-74505580D02*
X158486219Y-73838914D01*
X158486219Y-74029390D02*
X158438600Y-73934152D01*
X158390980Y-73886533D01*
X158295742Y-73838914D01*
X158200504Y-73838914D01*
X156962409Y-74505580D02*
X157057647Y-74457961D01*
X157105266Y-74410342D01*
X157152885Y-74315104D01*
X157152885Y-74029390D01*
X157105266Y-73934152D01*
X157057647Y-73886533D01*
X156962409Y-73838914D01*
X156819552Y-73838914D01*
X156724314Y-73886533D01*
X156676695Y-73934152D01*
X156629076Y-74029390D01*
X156629076Y-74315104D01*
X156676695Y-74410342D01*
X156724314Y-74457961D01*
X156819552Y-74505580D01*
X156962409Y-74505580D01*
X156295742Y-73838914D02*
X156057647Y-74505580D01*
X155819552Y-73838914D01*
X155057647Y-74457961D02*
X155152885Y-74505580D01*
X155343361Y-74505580D01*
X155438600Y-74457961D01*
X155486219Y-74362723D01*
X155486219Y-73981771D01*
X155438600Y-73886533D01*
X155343361Y-73838914D01*
X155152885Y-73838914D01*
X155057647Y-73886533D01*
X155010028Y-73981771D01*
X155010028Y-74077009D01*
X155486219Y-74172247D01*
X154581457Y-74505580D02*
X154581457Y-73838914D01*
X154581457Y-74029390D02*
X154533838Y-73934152D01*
X154486219Y-73886533D01*
X154390980Y-73838914D01*
X154295742Y-73838914D01*
X153200504Y-73505580D02*
X153200504Y-74315104D01*
X153152885Y-74410342D01*
X153105266Y-74457961D01*
X153010028Y-74505580D01*
X152819552Y-74505580D01*
X152724314Y-74457961D01*
X152676695Y-74410342D01*
X152629076Y-74315104D01*
X152629076Y-73505580D01*
X152200504Y-74457961D02*
X152057647Y-74505580D01*
X151819552Y-74505580D01*
X151724314Y-74457961D01*
X151676695Y-74410342D01*
X151629076Y-74315104D01*
X151629076Y-74219866D01*
X151676695Y-74124628D01*
X151724314Y-74077009D01*
X151819552Y-74029390D01*
X152010028Y-73981771D01*
X152105266Y-73934152D01*
X152152885Y-73886533D01*
X152200504Y-73791295D01*
X152200504Y-73696057D01*
X152152885Y-73600819D01*
X152105266Y-73553200D01*
X152010028Y-73505580D01*
X151771933Y-73505580D01*
X151629076Y-73553200D01*
X150867171Y-73981771D02*
X150724314Y-74029390D01*
X150676695Y-74077009D01*
X150629076Y-74172247D01*
X150629076Y-74315104D01*
X150676695Y-74410342D01*
X150724314Y-74457961D01*
X150819552Y-74505580D01*
X151200504Y-74505580D01*
X151200504Y-73505580D01*
X150867171Y-73505580D01*
X150771933Y-73553200D01*
X150724314Y-73600819D01*
X150676695Y-73696057D01*
X150676695Y-73791295D01*
X150724314Y-73886533D01*
X150771933Y-73934152D01*
X150867171Y-73981771D01*
X151200504Y-73981771D01*
D12*
X159057971Y-80215742D02*
X157557971Y-80215742D01*
X158629400Y-80715742D01*
X157557971Y-81215742D01*
X159057971Y-81215742D01*
X158057971Y-81787171D02*
X159057971Y-82144314D01*
X158057971Y-82501457D02*
X159057971Y-82144314D01*
X159415114Y-82001457D01*
X159486542Y-81930028D01*
X159557971Y-81787171D01*
X158986542Y-83001457D02*
X159057971Y-83215742D01*
X159057971Y-83572885D01*
X158986542Y-83715742D01*
X158915114Y-83787171D01*
X158772257Y-83858600D01*
X158629400Y-83858600D01*
X158486542Y-83787171D01*
X158415114Y-83715742D01*
X158343685Y-83572885D01*
X158272257Y-83287171D01*
X158200828Y-83144314D01*
X158129400Y-83072885D01*
X157986542Y-83001457D01*
X157843685Y-83001457D01*
X157700828Y-83072885D01*
X157629400Y-83144314D01*
X157557971Y-83287171D01*
X157557971Y-83644314D01*
X157629400Y-83858600D01*
X158986542Y-85072885D02*
X159057971Y-84930028D01*
X159057971Y-84644314D01*
X158986542Y-84501457D01*
X158843685Y-84430028D01*
X158272257Y-84430028D01*
X158129400Y-84501457D01*
X158057971Y-84644314D01*
X158057971Y-84930028D01*
X158129400Y-85072885D01*
X158272257Y-85144314D01*
X158415114Y-85144314D01*
X158557971Y-84430028D01*
X158057971Y-85787171D02*
X159057971Y-85787171D01*
X158200828Y-85787171D02*
X158129400Y-85858600D01*
X158057971Y-86001457D01*
X158057971Y-86215742D01*
X158129400Y-86358600D01*
X158272257Y-86430028D01*
X159057971Y-86430028D01*
X158986542Y-87072885D02*
X159057971Y-87215742D01*
X159057971Y-87501457D01*
X158986542Y-87644314D01*
X158843685Y-87715742D01*
X158772257Y-87715742D01*
X158629400Y-87644314D01*
X158557971Y-87501457D01*
X158557971Y-87287171D01*
X158486542Y-87144314D01*
X158343685Y-87072885D01*
X158272257Y-87072885D01*
X158129400Y-87144314D01*
X158057971Y-87287171D01*
X158057971Y-87501457D01*
X158129400Y-87644314D01*
X159057971Y-88572885D02*
X158986542Y-88430028D01*
X158915114Y-88358600D01*
X158772257Y-88287171D01*
X158343685Y-88287171D01*
X158200828Y-88358600D01*
X158129400Y-88430028D01*
X158057971Y-88572885D01*
X158057971Y-88787171D01*
X158129400Y-88930028D01*
X158200828Y-89001457D01*
X158343685Y-89072885D01*
X158772257Y-89072885D01*
X158915114Y-89001457D01*
X158986542Y-88930028D01*
X159057971Y-88787171D01*
X159057971Y-88572885D01*
X159057971Y-89715742D02*
X158057971Y-89715742D01*
X158343685Y-89715742D02*
X158200828Y-89787171D01*
X158129400Y-89858600D01*
X158057971Y-90001457D01*
X158057971Y-90144314D01*
X158986542Y-90572885D02*
X159057971Y-90715742D01*
X159057971Y-91001457D01*
X158986542Y-91144314D01*
X158843685Y-91215742D01*
X158772257Y-91215742D01*
X158629400Y-91144314D01*
X158557971Y-91001457D01*
X158557971Y-90787171D01*
X158486542Y-90644314D01*
X158343685Y-90572885D01*
X158272257Y-90572885D01*
X158129400Y-90644314D01*
X158057971Y-90787171D01*
X158057971Y-91001457D01*
X158129400Y-91144314D01*
X157629400Y-93787171D02*
X157557971Y-93644314D01*
X157557971Y-93430028D01*
X157629400Y-93215742D01*
X157772257Y-93072885D01*
X157915114Y-93001457D01*
X158200828Y-92930028D01*
X158415114Y-92930028D01*
X158700828Y-93001457D01*
X158843685Y-93072885D01*
X158986542Y-93215742D01*
X159057971Y-93430028D01*
X159057971Y-93572885D01*
X158986542Y-93787171D01*
X158915114Y-93858600D01*
X158415114Y-93858600D01*
X158415114Y-93572885D01*
X157557971Y-94358600D02*
X159057971Y-94715742D01*
X157986542Y-95001457D01*
X159057971Y-95287171D01*
X157557971Y-95644314D01*
X161607971Y-78072885D02*
X160107971Y-78072885D01*
X161536542Y-78072885D02*
X161607971Y-77930028D01*
X161607971Y-77644314D01*
X161536542Y-77501457D01*
X161465114Y-77430028D01*
X161322257Y-77358600D01*
X160893685Y-77358600D01*
X160750828Y-77430028D01*
X160679400Y-77501457D01*
X160607971Y-77644314D01*
X160607971Y-77930028D01*
X160679400Y-78072885D01*
X161536542Y-79358600D02*
X161607971Y-79215742D01*
X161607971Y-78930028D01*
X161536542Y-78787171D01*
X161393685Y-78715742D01*
X160822257Y-78715742D01*
X160679400Y-78787171D01*
X160607971Y-78930028D01*
X160607971Y-79215742D01*
X160679400Y-79358600D01*
X160822257Y-79430028D01*
X160965114Y-79430028D01*
X161107971Y-78715742D01*
X160607971Y-79930028D02*
X161607971Y-80287171D01*
X160607971Y-80644314D01*
X161536542Y-81787171D02*
X161607971Y-81644314D01*
X161607971Y-81358600D01*
X161536542Y-81215742D01*
X161393685Y-81144314D01*
X160822257Y-81144314D01*
X160679400Y-81215742D01*
X160607971Y-81358600D01*
X160607971Y-81644314D01*
X160679400Y-81787171D01*
X160822257Y-81858600D01*
X160965114Y-81858600D01*
X161107971Y-81144314D01*
X161607971Y-82715742D02*
X161536542Y-82572885D01*
X161393685Y-82501457D01*
X160107971Y-82501457D01*
X161607971Y-83501457D02*
X161536542Y-83358600D01*
X161465114Y-83287171D01*
X161322257Y-83215742D01*
X160893685Y-83215742D01*
X160750828Y-83287171D01*
X160679400Y-83358600D01*
X160607971Y-83501457D01*
X160607971Y-83715742D01*
X160679400Y-83858600D01*
X160750828Y-83930028D01*
X160893685Y-84001457D01*
X161322257Y-84001457D01*
X161465114Y-83930028D01*
X161536542Y-83858600D01*
X161607971Y-83715742D01*
X161607971Y-83501457D01*
X160607971Y-84644314D02*
X162107971Y-84644314D01*
X160679400Y-84644314D02*
X160607971Y-84787171D01*
X160607971Y-85072885D01*
X160679400Y-85215742D01*
X160750828Y-85287171D01*
X160893685Y-85358600D01*
X161322257Y-85358600D01*
X161465114Y-85287171D01*
X161536542Y-85215742D01*
X161607971Y-85072885D01*
X161607971Y-84787171D01*
X161536542Y-84644314D01*
X161607971Y-86001457D02*
X160607971Y-86001457D01*
X160750828Y-86001457D02*
X160679400Y-86072885D01*
X160607971Y-86215742D01*
X160607971Y-86430028D01*
X160679400Y-86572885D01*
X160822257Y-86644314D01*
X161607971Y-86644314D01*
X160822257Y-86644314D02*
X160679400Y-86715742D01*
X160607971Y-86858600D01*
X160607971Y-87072885D01*
X160679400Y-87215742D01*
X160822257Y-87287171D01*
X161607971Y-87287171D01*
X161536542Y-88572885D02*
X161607971Y-88430028D01*
X161607971Y-88144314D01*
X161536542Y-88001457D01*
X161393685Y-87930028D01*
X160822257Y-87930028D01*
X160679400Y-88001457D01*
X160607971Y-88144314D01*
X160607971Y-88430028D01*
X160679400Y-88572885D01*
X160822257Y-88644314D01*
X160965114Y-88644314D01*
X161107971Y-87930028D01*
X160607971Y-89287171D02*
X161607971Y-89287171D01*
X160750828Y-89287171D02*
X160679400Y-89358600D01*
X160607971Y-89501457D01*
X160607971Y-89715742D01*
X160679400Y-89858600D01*
X160822257Y-89930028D01*
X161607971Y-89930028D01*
X160607971Y-90430028D02*
X160607971Y-91001457D01*
X160107971Y-90644314D02*
X161393685Y-90644314D01*
X161536542Y-90715742D01*
X161607971Y-90858600D01*
X161607971Y-91001457D01*
X161607971Y-92644314D02*
X160107971Y-92644314D01*
X160679400Y-92644314D02*
X160607971Y-92787171D01*
X160607971Y-93072885D01*
X160679400Y-93215742D01*
X160750828Y-93287171D01*
X160893685Y-93358600D01*
X161322257Y-93358600D01*
X161465114Y-93287171D01*
X161536542Y-93215742D01*
X161607971Y-93072885D01*
X161607971Y-92787171D01*
X161536542Y-92644314D01*
X161607971Y-94215742D02*
X161536542Y-94072885D01*
X161465114Y-94001457D01*
X161322257Y-93930028D01*
X160893685Y-93930028D01*
X160750828Y-94001457D01*
X160679400Y-94072885D01*
X160607971Y-94215742D01*
X160607971Y-94430028D01*
X160679400Y-94572885D01*
X160750828Y-94644314D01*
X160893685Y-94715742D01*
X161322257Y-94715742D01*
X161465114Y-94644314D01*
X161536542Y-94572885D01*
X161607971Y-94430028D01*
X161607971Y-94215742D01*
X161607971Y-96001457D02*
X160822257Y-96001457D01*
X160679400Y-95930028D01*
X160607971Y-95787171D01*
X160607971Y-95501457D01*
X160679400Y-95358600D01*
X161536542Y-96001457D02*
X161607971Y-95858600D01*
X161607971Y-95501457D01*
X161536542Y-95358600D01*
X161393685Y-95287171D01*
X161250828Y-95287171D01*
X161107971Y-95358600D01*
X161036542Y-95501457D01*
X161036542Y-95858600D01*
X160965114Y-96001457D01*
X161607971Y-96715742D02*
X160607971Y-96715742D01*
X160893685Y-96715742D02*
X160750828Y-96787171D01*
X160679400Y-96858600D01*
X160607971Y-97001457D01*
X160607971Y-97144314D01*
X161607971Y-98287171D02*
X160107971Y-98287171D01*
X161536542Y-98287171D02*
X161607971Y-98144314D01*
X161607971Y-97858600D01*
X161536542Y-97715742D01*
X161465114Y-97644314D01*
X161322257Y-97572885D01*
X160893685Y-97572885D01*
X160750828Y-97644314D01*
X160679400Y-97715742D01*
X160607971Y-97858600D01*
X160607971Y-98144314D01*
X160679400Y-98287171D01*
X166707971Y-76037171D02*
X165207971Y-76037171D01*
X166707971Y-76680028D02*
X165922257Y-76680028D01*
X165779400Y-76608600D01*
X165707971Y-76465742D01*
X165707971Y-76251457D01*
X165779400Y-76108600D01*
X165850828Y-76037171D01*
X165707971Y-77180028D02*
X165707971Y-77751457D01*
X165207971Y-77394314D02*
X166493685Y-77394314D01*
X166636542Y-77465742D01*
X166707971Y-77608600D01*
X166707971Y-77751457D01*
X165707971Y-78037171D02*
X165707971Y-78608600D01*
X165207971Y-78251457D02*
X166493685Y-78251457D01*
X166636542Y-78322885D01*
X166707971Y-78465742D01*
X166707971Y-78608600D01*
X165707971Y-79108600D02*
X167207971Y-79108600D01*
X165779400Y-79108600D02*
X165707971Y-79251457D01*
X165707971Y-79537171D01*
X165779400Y-79680028D01*
X165850828Y-79751457D01*
X165993685Y-79822885D01*
X166422257Y-79822885D01*
X166565114Y-79751457D01*
X166636542Y-79680028D01*
X166707971Y-79537171D01*
X166707971Y-79251457D01*
X166636542Y-79108600D01*
X166565114Y-80465742D02*
X166636542Y-80537171D01*
X166707971Y-80465742D01*
X166636542Y-80394314D01*
X166565114Y-80465742D01*
X166707971Y-80465742D01*
X165779400Y-80465742D02*
X165850828Y-80537171D01*
X165922257Y-80465742D01*
X165850828Y-80394314D01*
X165779400Y-80465742D01*
X165922257Y-80465742D01*
X165136542Y-82251457D02*
X167065114Y-80965742D01*
X165136542Y-83822885D02*
X167065114Y-82537171D01*
X166707971Y-84322885D02*
X165707971Y-84322885D01*
X165850828Y-84322885D02*
X165779400Y-84394314D01*
X165707971Y-84537171D01*
X165707971Y-84751457D01*
X165779400Y-84894314D01*
X165922257Y-84965742D01*
X166707971Y-84965742D01*
X165922257Y-84965742D02*
X165779400Y-85037171D01*
X165707971Y-85180028D01*
X165707971Y-85394314D01*
X165779400Y-85537171D01*
X165922257Y-85608600D01*
X166707971Y-85608600D01*
X165707971Y-86180028D02*
X166707971Y-86537171D01*
X165707971Y-86894314D02*
X166707971Y-86537171D01*
X167065114Y-86394314D01*
X167136542Y-86322885D01*
X167207971Y-86180028D01*
X166636542Y-87394314D02*
X166707971Y-87537171D01*
X166707971Y-87822885D01*
X166636542Y-87965742D01*
X166493685Y-88037171D01*
X166422257Y-88037171D01*
X166279400Y-87965742D01*
X166207971Y-87822885D01*
X166207971Y-87608600D01*
X166136542Y-87465742D01*
X165993685Y-87394314D01*
X165922257Y-87394314D01*
X165779400Y-87465742D01*
X165707971Y-87608600D01*
X165707971Y-87822885D01*
X165779400Y-87965742D01*
X166636542Y-89251457D02*
X166707971Y-89108600D01*
X166707971Y-88822885D01*
X166636542Y-88680028D01*
X166493685Y-88608600D01*
X165922257Y-88608600D01*
X165779400Y-88680028D01*
X165707971Y-88822885D01*
X165707971Y-89108600D01*
X165779400Y-89251457D01*
X165922257Y-89322885D01*
X166065114Y-89322885D01*
X166207971Y-88608600D01*
X165707971Y-89965742D02*
X166707971Y-89965742D01*
X165850828Y-89965742D02*
X165779400Y-90037171D01*
X165707971Y-90180028D01*
X165707971Y-90394314D01*
X165779400Y-90537171D01*
X165922257Y-90608600D01*
X166707971Y-90608600D01*
X166636542Y-91251457D02*
X166707971Y-91394314D01*
X166707971Y-91680028D01*
X166636542Y-91822885D01*
X166493685Y-91894314D01*
X166422257Y-91894314D01*
X166279400Y-91822885D01*
X166207971Y-91680028D01*
X166207971Y-91465742D01*
X166136542Y-91322885D01*
X165993685Y-91251457D01*
X165922257Y-91251457D01*
X165779400Y-91322885D01*
X165707971Y-91465742D01*
X165707971Y-91680028D01*
X165779400Y-91822885D01*
X166707971Y-92751457D02*
X166636542Y-92608600D01*
X166565114Y-92537171D01*
X166422257Y-92465742D01*
X165993685Y-92465742D01*
X165850828Y-92537171D01*
X165779400Y-92608600D01*
X165707971Y-92751457D01*
X165707971Y-92965742D01*
X165779400Y-93108600D01*
X165850828Y-93180028D01*
X165993685Y-93251457D01*
X166422257Y-93251457D01*
X166565114Y-93180028D01*
X166636542Y-93108600D01*
X166707971Y-92965742D01*
X166707971Y-92751457D01*
X166707971Y-93894314D02*
X165707971Y-93894314D01*
X165993685Y-93894314D02*
X165850828Y-93965742D01*
X165779400Y-94037171D01*
X165707971Y-94180028D01*
X165707971Y-94322885D01*
X166636542Y-94751457D02*
X166707971Y-94894314D01*
X166707971Y-95180028D01*
X166636542Y-95322885D01*
X166493685Y-95394314D01*
X166422257Y-95394314D01*
X166279400Y-95322885D01*
X166207971Y-95180028D01*
X166207971Y-94965742D01*
X166136542Y-94822885D01*
X165993685Y-94751457D01*
X165922257Y-94751457D01*
X165779400Y-94822885D01*
X165707971Y-94965742D01*
X165707971Y-95180028D01*
X165779400Y-95322885D01*
X166565114Y-96037171D02*
X166636542Y-96108600D01*
X166707971Y-96037171D01*
X166636542Y-95965742D01*
X166565114Y-96037171D01*
X166707971Y-96037171D01*
X166707971Y-96965742D02*
X166636542Y-96822885D01*
X166565114Y-96751457D01*
X166422257Y-96680028D01*
X165993685Y-96680028D01*
X165850828Y-96751457D01*
X165779400Y-96822885D01*
X165707971Y-96965742D01*
X165707971Y-97180028D01*
X165779400Y-97322885D01*
X165850828Y-97394314D01*
X165993685Y-97465742D01*
X166422257Y-97465742D01*
X166565114Y-97394314D01*
X166636542Y-97322885D01*
X166707971Y-97180028D01*
X166707971Y-96965742D01*
X166707971Y-98108600D02*
X165707971Y-98108600D01*
X165993685Y-98108600D02*
X165850828Y-98180028D01*
X165779400Y-98251457D01*
X165707971Y-98394314D01*
X165707971Y-98537171D01*
X165707971Y-99680028D02*
X166922257Y-99680028D01*
X167065114Y-99608600D01*
X167136542Y-99537171D01*
X167207971Y-99394314D01*
X167207971Y-99180028D01*
X167136542Y-99037171D01*
X166636542Y-99680028D02*
X166707971Y-99537171D01*
X166707971Y-99251457D01*
X166636542Y-99108600D01*
X166565114Y-99037171D01*
X166422257Y-98965742D01*
X165993685Y-98965742D01*
X165850828Y-99037171D01*
X165779400Y-99108600D01*
X165707971Y-99251457D01*
X165707971Y-99537171D01*
X165779400Y-99680028D01*
X159900214Y-66083571D02*
X160400214Y-65369285D01*
X160757357Y-66083571D02*
X160757357Y-64583571D01*
X160185928Y-64583571D01*
X160043071Y-64655000D01*
X159971642Y-64726428D01*
X159900214Y-64869285D01*
X159900214Y-65083571D01*
X159971642Y-65226428D01*
X160043071Y-65297857D01*
X160185928Y-65369285D01*
X160757357Y-65369285D01*
X158685928Y-66012142D02*
X158828785Y-66083571D01*
X159114500Y-66083571D01*
X159257357Y-66012142D01*
X159328785Y-65869285D01*
X159328785Y-65297857D01*
X159257357Y-65155000D01*
X159114500Y-65083571D01*
X158828785Y-65083571D01*
X158685928Y-65155000D01*
X158614500Y-65297857D01*
X158614500Y-65440714D01*
X159328785Y-65583571D01*
X158114500Y-65083571D02*
X157757357Y-66083571D01*
X157400214Y-65083571D01*
X156828785Y-66083571D02*
X156828785Y-65083571D01*
X156828785Y-64583571D02*
X156900214Y-64655000D01*
X156828785Y-64726428D01*
X156757357Y-64655000D01*
X156828785Y-64583571D01*
X156828785Y-64726428D01*
X156185928Y-66012142D02*
X156043071Y-66083571D01*
X155757357Y-66083571D01*
X155614500Y-66012142D01*
X155543071Y-65869285D01*
X155543071Y-65797857D01*
X155614500Y-65655000D01*
X155757357Y-65583571D01*
X155971642Y-65583571D01*
X156114500Y-65512142D01*
X156185928Y-65369285D01*
X156185928Y-65297857D01*
X156114500Y-65155000D01*
X155971642Y-65083571D01*
X155757357Y-65083571D01*
X155614500Y-65155000D01*
X154900214Y-66083571D02*
X154900214Y-65083571D01*
X154900214Y-64583571D02*
X154971642Y-64655000D01*
X154900214Y-64726428D01*
X154828785Y-64655000D01*
X154900214Y-64583571D01*
X154900214Y-64726428D01*
X153971642Y-66083571D02*
X154114500Y-66012142D01*
X154185928Y-65940714D01*
X154257357Y-65797857D01*
X154257357Y-65369285D01*
X154185928Y-65226428D01*
X154114500Y-65155000D01*
X153971642Y-65083571D01*
X153757357Y-65083571D01*
X153614500Y-65155000D01*
X153543071Y-65226428D01*
X153471642Y-65369285D01*
X153471642Y-65797857D01*
X153543071Y-65940714D01*
X153614500Y-66012142D01*
X153757357Y-66083571D01*
X153971642Y-66083571D01*
X152828785Y-65083571D02*
X152828785Y-66083571D01*
X152828785Y-65226428D02*
X152757357Y-65155000D01*
X152614500Y-65083571D01*
X152400214Y-65083571D01*
X152257357Y-65155000D01*
X152185928Y-65297857D01*
X152185928Y-66083571D01*
X150043071Y-64583571D02*
X149900214Y-64583571D01*
X149757357Y-64655000D01*
X149685928Y-64726428D01*
X149614500Y-64869285D01*
X149543071Y-65155000D01*
X149543071Y-65512142D01*
X149614500Y-65797857D01*
X149685928Y-65940714D01*
X149757357Y-66012142D01*
X149900214Y-66083571D01*
X150043071Y-66083571D01*
X150185928Y-66012142D01*
X150257357Y-65940714D01*
X150328785Y-65797857D01*
X150400214Y-65512142D01*
X150400214Y-65155000D01*
X150328785Y-64869285D01*
X150257357Y-64726428D01*
X150185928Y-64655000D01*
X150043071Y-64583571D01*
X148900214Y-65940714D02*
X148828785Y-66012142D01*
X148900214Y-66083571D01*
X148971642Y-66012142D01*
X148900214Y-65940714D01*
X148900214Y-66083571D01*
X147971642Y-65226428D02*
X148114500Y-65155000D01*
X148185928Y-65083571D01*
X148257357Y-64940714D01*
X148257357Y-64869285D01*
X148185928Y-64726428D01*
X148114500Y-64655000D01*
X147971642Y-64583571D01*
X147685928Y-64583571D01*
X147543071Y-64655000D01*
X147471642Y-64726428D01*
X147400214Y-64869285D01*
X147400214Y-64940714D01*
X147471642Y-65083571D01*
X147543071Y-65155000D01*
X147685928Y-65226428D01*
X147971642Y-65226428D01*
X148114500Y-65297857D01*
X148185928Y-65369285D01*
X148257357Y-65512142D01*
X148257357Y-65797857D01*
X148185928Y-65940714D01*
X148114500Y-66012142D01*
X147971642Y-66083571D01*
X147685928Y-66083571D01*
X147543071Y-66012142D01*
X147471642Y-65940714D01*
X147400214Y-65797857D01*
X147400214Y-65512142D01*
X147471642Y-65369285D01*
X147543071Y-65297857D01*
X147685928Y-65226428D01*
D11*
X129399000Y-91173000D02*
X145399000Y-91173000D01*
X129399000Y-69473000D02*
X129399000Y-91173000D01*
X145399000Y-69473000D02*
X129399000Y-69473000D01*
X145399000Y-91173000D02*
X145399000Y-69473000D01*
X152868380Y-81726542D02*
X152868380Y-82297971D01*
X153868380Y-82012257D02*
X152868380Y-82012257D01*
X153344571Y-82631304D02*
X153344571Y-82964638D01*
X153868380Y-83107495D02*
X153868380Y-82631304D01*
X152868380Y-82631304D01*
X152868380Y-83107495D01*
X153820761Y-83488447D02*
X153868380Y-83631304D01*
X153868380Y-83869400D01*
X153820761Y-83964638D01*
X153773142Y-84012257D01*
X153677904Y-84059876D01*
X153582666Y-84059876D01*
X153487428Y-84012257D01*
X153439809Y-83964638D01*
X153392190Y-83869400D01*
X153344571Y-83678923D01*
X153296952Y-83583685D01*
X153249333Y-83536066D01*
X153154095Y-83488447D01*
X153058857Y-83488447D01*
X152963619Y-83536066D01*
X152916000Y-83583685D01*
X152868380Y-83678923D01*
X152868380Y-83917019D01*
X152916000Y-84059876D01*
X152868380Y-84345590D02*
X152868380Y-84917019D01*
X153868380Y-84631304D02*
X152868380Y-84631304D01*
X153868380Y-85250352D02*
X152868380Y-85250352D01*
X153582666Y-85583685D01*
X152868380Y-85917019D01*
X153868380Y-85917019D01*
X152868380Y-86583685D02*
X152868380Y-86774161D01*
X152916000Y-86869400D01*
X153011238Y-86964638D01*
X153201714Y-87012257D01*
X153535047Y-87012257D01*
X153725523Y-86964638D01*
X153820761Y-86869400D01*
X153868380Y-86774161D01*
X153868380Y-86583685D01*
X153820761Y-86488447D01*
X153725523Y-86393209D01*
X153535047Y-86345590D01*
X153201714Y-86345590D01*
X153011238Y-86393209D01*
X152916000Y-86488447D01*
X152868380Y-86583685D01*
X153868380Y-87440828D02*
X152868380Y-87440828D01*
X152868380Y-87678923D01*
X152916000Y-87821780D01*
X153011238Y-87917019D01*
X153106476Y-87964638D01*
X153296952Y-88012257D01*
X153439809Y-88012257D01*
X153630285Y-87964638D01*
X153725523Y-87917019D01*
X153820761Y-87821780D01*
X153868380Y-87678923D01*
X153868380Y-87440828D01*
X153344571Y-88440828D02*
X153344571Y-88774161D01*
X153868380Y-88917019D02*
X153868380Y-88440828D01*
X152868380Y-88440828D01*
X152868380Y-88917019D01*
X155818531Y-82166059D02*
X155818531Y-81832725D01*
X156342340Y-81832725D02*
X155342340Y-81832725D01*
X155342340Y-82308916D01*
X155342340Y-82880344D02*
X155342340Y-83070820D01*
X155389960Y-83166059D01*
X155485198Y-83261297D01*
X155675674Y-83308916D01*
X156009007Y-83308916D01*
X156199483Y-83261297D01*
X156294721Y-83166059D01*
X156342340Y-83070820D01*
X156342340Y-82880344D01*
X156294721Y-82785106D01*
X156199483Y-82689868D01*
X156009007Y-82642249D01*
X155675674Y-82642249D01*
X155485198Y-82689868D01*
X155389960Y-82785106D01*
X155342340Y-82880344D01*
X156342340Y-84308916D02*
X155866150Y-83975582D01*
X156342340Y-83737487D02*
X155342340Y-83737487D01*
X155342340Y-84118440D01*
X155389960Y-84213678D01*
X155437579Y-84261297D01*
X155532817Y-84308916D01*
X155675674Y-84308916D01*
X155770912Y-84261297D01*
X155818531Y-84213678D01*
X155866150Y-84118440D01*
X155866150Y-83737487D01*
X156247102Y-85308916D02*
X156294721Y-85261297D01*
X156342340Y-85118440D01*
X156342340Y-85023201D01*
X156294721Y-84880344D01*
X156199483Y-84785106D01*
X156104245Y-84737487D01*
X155913769Y-84689868D01*
X155770912Y-84689868D01*
X155580436Y-84737487D01*
X155485198Y-84785106D01*
X155389960Y-84880344D01*
X155342340Y-85023201D01*
X155342340Y-85118440D01*
X155389960Y-85261297D01*
X155437579Y-85308916D01*
X155818531Y-85737487D02*
X155818531Y-86070820D01*
X156342340Y-86213678D02*
X156342340Y-85737487D01*
X155342340Y-85737487D01*
X155342340Y-86213678D01*
X156437579Y-86404154D02*
X156437579Y-87166059D01*
X155818531Y-87737487D02*
X155866150Y-87880344D01*
X155913769Y-87927963D01*
X156009007Y-87975582D01*
X156151864Y-87975582D01*
X156247102Y-87927963D01*
X156294721Y-87880344D01*
X156342340Y-87785106D01*
X156342340Y-87404154D01*
X155342340Y-87404154D01*
X155342340Y-87737487D01*
X155389960Y-87832725D01*
X155437579Y-87880344D01*
X155532817Y-87927963D01*
X155628055Y-87927963D01*
X155723293Y-87880344D01*
X155770912Y-87832725D01*
X155818531Y-87737487D01*
X155818531Y-87404154D01*
X155342340Y-88594630D02*
X155342340Y-88785106D01*
X155389960Y-88880344D01*
X155485198Y-88975582D01*
X155675674Y-89023201D01*
X156009007Y-89023201D01*
X156199483Y-88975582D01*
X156294721Y-88880344D01*
X156342340Y-88785106D01*
X156342340Y-88594630D01*
X156294721Y-88499392D01*
X156199483Y-88404154D01*
X156009007Y-88356535D01*
X155675674Y-88356535D01*
X155485198Y-88404154D01*
X155389960Y-88499392D01*
X155342340Y-88594630D01*
X155342340Y-89642249D02*
X155342340Y-89832725D01*
X155389960Y-89927963D01*
X155485198Y-90023201D01*
X155675674Y-90070820D01*
X156009007Y-90070820D01*
X156199483Y-90023201D01*
X156294721Y-89927963D01*
X156342340Y-89832725D01*
X156342340Y-89642249D01*
X156294721Y-89547011D01*
X156199483Y-89451773D01*
X156009007Y-89404154D01*
X155675674Y-89404154D01*
X155485198Y-89451773D01*
X155389960Y-89547011D01*
X155342340Y-89642249D01*
X155342340Y-90356535D02*
X155342340Y-90927963D01*
X156342340Y-90642249D02*
X155342340Y-90642249D01*
X156342340Y-91737487D02*
X156342340Y-91261297D01*
X155342340Y-91261297D01*
X155342340Y-92261297D02*
X155342340Y-92451773D01*
X155389960Y-92547011D01*
X155485198Y-92642249D01*
X155675674Y-92689868D01*
X156009007Y-92689868D01*
X156199483Y-92642249D01*
X156294721Y-92547011D01*
X156342340Y-92451773D01*
X156342340Y-92261297D01*
X156294721Y-92166059D01*
X156199483Y-92070820D01*
X156009007Y-92023201D01*
X155675674Y-92023201D01*
X155485198Y-92070820D01*
X155389960Y-92166059D01*
X155342340Y-92261297D01*
X156056626Y-93070820D02*
X156056626Y-93547011D01*
X156342340Y-92975582D02*
X155342340Y-93308916D01*
X156342340Y-93642249D01*
X156342340Y-93975582D02*
X155342340Y-93975582D01*
X155342340Y-94213678D01*
X155389960Y-94356535D01*
X155485198Y-94451773D01*
X155580436Y-94499392D01*
X155770912Y-94547011D01*
X155913769Y-94547011D01*
X156104245Y-94499392D01*
X156199483Y-94451773D01*
X156294721Y-94356535D01*
X156342340Y-94213678D01*
X156342340Y-93975582D01*
X155818531Y-94975582D02*
X155818531Y-95308916D01*
X156342340Y-95451773D02*
X156342340Y-94975582D01*
X155342340Y-94975582D01*
X155342340Y-95451773D01*
X156342340Y-96451773D02*
X155866150Y-96118440D01*
X156342340Y-95880344D02*
X155342340Y-95880344D01*
X155342340Y-96261297D01*
X155389960Y-96356535D01*
X155437579Y-96404154D01*
X155532817Y-96451773D01*
X155675674Y-96451773D01*
X155770912Y-96404154D01*
X155818531Y-96356535D01*
X155866150Y-96261297D01*
X155866150Y-95880344D01*
X151204561Y-81808866D02*
X151252180Y-81951723D01*
X151252180Y-82189819D01*
X151204561Y-82285057D01*
X151156942Y-82332676D01*
X151061704Y-82380295D01*
X150966466Y-82380295D01*
X150871228Y-82332676D01*
X150823609Y-82285057D01*
X150775990Y-82189819D01*
X150728371Y-81999342D01*
X150680752Y-81904104D01*
X150633133Y-81856485D01*
X150537895Y-81808866D01*
X150442657Y-81808866D01*
X150347419Y-81856485D01*
X150299800Y-81904104D01*
X150252180Y-81999342D01*
X150252180Y-82237438D01*
X150299800Y-82380295D01*
X150252180Y-82713628D02*
X151252180Y-82951723D01*
X150537895Y-83142200D01*
X151252180Y-83332676D01*
X150252180Y-83570771D01*
X151156942Y-84523152D02*
X151204561Y-84475533D01*
X151252180Y-84332676D01*
X151252180Y-84237438D01*
X151204561Y-84094580D01*
X151109323Y-83999342D01*
X151014085Y-83951723D01*
X150823609Y-83904104D01*
X150680752Y-83904104D01*
X150490276Y-83951723D01*
X150395038Y-83999342D01*
X150299800Y-84094580D01*
X150252180Y-84237438D01*
X150252180Y-84332676D01*
X150299800Y-84475533D01*
X150347419Y-84523152D01*
X151252180Y-85475533D02*
X151252180Y-84904104D01*
X151252180Y-85189819D02*
X150252180Y-85189819D01*
X150395038Y-85094580D01*
X150490276Y-84999342D01*
X150537895Y-84904104D01*
X148613761Y-81783466D02*
X148661380Y-81926323D01*
X148661380Y-82164419D01*
X148613761Y-82259657D01*
X148566142Y-82307276D01*
X148470904Y-82354895D01*
X148375666Y-82354895D01*
X148280428Y-82307276D01*
X148232809Y-82259657D01*
X148185190Y-82164419D01*
X148137571Y-81973942D01*
X148089952Y-81878704D01*
X148042333Y-81831085D01*
X147947095Y-81783466D01*
X147851857Y-81783466D01*
X147756619Y-81831085D01*
X147709000Y-81878704D01*
X147661380Y-81973942D01*
X147661380Y-82212038D01*
X147709000Y-82354895D01*
X147661380Y-82688228D02*
X148661380Y-82926323D01*
X147947095Y-83116800D01*
X148661380Y-83307276D01*
X147661380Y-83545371D01*
X148566142Y-84497752D02*
X148613761Y-84450133D01*
X148661380Y-84307276D01*
X148661380Y-84212038D01*
X148613761Y-84069180D01*
X148518523Y-83973942D01*
X148423285Y-83926323D01*
X148232809Y-83878704D01*
X148089952Y-83878704D01*
X147899476Y-83926323D01*
X147804238Y-83973942D01*
X147709000Y-84069180D01*
X147661380Y-84212038D01*
X147661380Y-84307276D01*
X147709000Y-84450133D01*
X147756619Y-84497752D01*
X147756619Y-84878704D02*
X147709000Y-84926323D01*
X147661380Y-85021561D01*
X147661380Y-85259657D01*
X147709000Y-85354895D01*
X147756619Y-85402514D01*
X147851857Y-85450133D01*
X147947095Y-85450133D01*
X148089952Y-85402514D01*
X148661380Y-84831085D01*
X148661380Y-85450133D01*
X132573447Y-94100281D02*
X132430590Y-94147900D01*
X132192495Y-94147900D01*
X132097257Y-94100281D01*
X132049638Y-94052662D01*
X132002019Y-93957424D01*
X132002019Y-93862186D01*
X132049638Y-93766948D01*
X132097257Y-93719329D01*
X132192495Y-93671710D01*
X132382971Y-93624091D01*
X132478209Y-93576472D01*
X132525828Y-93528853D01*
X132573447Y-93433615D01*
X132573447Y-93338377D01*
X132525828Y-93243139D01*
X132478209Y-93195520D01*
X132382971Y-93147900D01*
X132144876Y-93147900D01*
X132002019Y-93195520D01*
X131668685Y-93147900D02*
X131430590Y-94147900D01*
X131240114Y-93433615D01*
X131049638Y-94147900D01*
X130811542Y-93147900D01*
X130430590Y-94147900D02*
X130430590Y-93147900D01*
X130192495Y-93147900D01*
X130049638Y-93195520D01*
X129954400Y-93290758D01*
X129906780Y-93385996D01*
X129859161Y-93576472D01*
X129859161Y-93719329D01*
X129906780Y-93909805D01*
X129954400Y-94005043D01*
X130049638Y-94100281D01*
X130192495Y-94147900D01*
X130430590Y-94147900D01*
X129430590Y-94147900D02*
X129430590Y-93147900D01*
X128763923Y-93147900D02*
X128573447Y-93147900D01*
X128478209Y-93195520D01*
X128382971Y-93290758D01*
X128335352Y-93481234D01*
X128335352Y-93814567D01*
X128382971Y-94005043D01*
X128478209Y-94100281D01*
X128573447Y-94147900D01*
X128763923Y-94147900D01*
X128859161Y-94100281D01*
X128954400Y-94005043D01*
X129002019Y-93814567D01*
X129002019Y-93481234D01*
X128954400Y-93290758D01*
X128859161Y-93195520D01*
X128763923Y-93147900D01*
X126985020Y-96312219D02*
X126508830Y-95978885D01*
X126985020Y-95740790D02*
X125985020Y-95740790D01*
X125985020Y-96121742D01*
X126032640Y-96216980D01*
X126080259Y-96264600D01*
X126175497Y-96312219D01*
X126318354Y-96312219D01*
X126413592Y-96264600D01*
X126461211Y-96216980D01*
X126508830Y-96121742D01*
X126508830Y-95740790D01*
X126461211Y-96740790D02*
X126461211Y-97074123D01*
X126985020Y-97216980D02*
X126985020Y-96740790D01*
X125985020Y-96740790D01*
X125985020Y-97216980D01*
X126937401Y-97597933D02*
X126985020Y-97740790D01*
X126985020Y-97978885D01*
X126937401Y-98074123D01*
X126889782Y-98121742D01*
X126794544Y-98169361D01*
X126699306Y-98169361D01*
X126604068Y-98121742D01*
X126556449Y-98074123D01*
X126508830Y-97978885D01*
X126461211Y-97788409D01*
X126413592Y-97693171D01*
X126365973Y-97645552D01*
X126270735Y-97597933D01*
X126175497Y-97597933D01*
X126080259Y-97645552D01*
X126032640Y-97693171D01*
X125985020Y-97788409D01*
X125985020Y-98026504D01*
X126032640Y-98169361D01*
X126461211Y-98597933D02*
X126461211Y-98931266D01*
X126985020Y-99074123D02*
X126985020Y-98597933D01*
X125985020Y-98597933D01*
X125985020Y-99074123D01*
X125985020Y-99359838D02*
X125985020Y-99931266D01*
X126985020Y-99645552D02*
X125985020Y-99645552D01*
X132711224Y-102228281D02*
X132568367Y-102275900D01*
X132330272Y-102275900D01*
X132235034Y-102228281D01*
X132187415Y-102180662D01*
X132139796Y-102085424D01*
X132139796Y-101990186D01*
X132187415Y-101894948D01*
X132235034Y-101847329D01*
X132330272Y-101799710D01*
X132520748Y-101752091D01*
X132615986Y-101704472D01*
X132663605Y-101656853D01*
X132711224Y-101561615D01*
X132711224Y-101466377D01*
X132663605Y-101371139D01*
X132615986Y-101323520D01*
X132520748Y-101275900D01*
X132282653Y-101275900D01*
X132139796Y-101323520D01*
X131806462Y-101275900D02*
X131568367Y-102275900D01*
X131377891Y-101561615D01*
X131187415Y-102275900D01*
X130949320Y-101275900D01*
X129996939Y-102180662D02*
X130044558Y-102228281D01*
X130187415Y-102275900D01*
X130282653Y-102275900D01*
X130425510Y-102228281D01*
X130520748Y-102133043D01*
X130568367Y-102037805D01*
X130615986Y-101847329D01*
X130615986Y-101704472D01*
X130568367Y-101513996D01*
X130520748Y-101418758D01*
X130425510Y-101323520D01*
X130282653Y-101275900D01*
X130187415Y-101275900D01*
X130044558Y-101323520D01*
X129996939Y-101371139D01*
X129092177Y-102275900D02*
X129568367Y-102275900D01*
X129568367Y-101275900D01*
X128758843Y-102275900D02*
X128758843Y-101275900D01*
X128187415Y-102275900D02*
X128615986Y-101704472D01*
X128187415Y-101275900D02*
X128758843Y-101847329D01*
X133334664Y-95659320D02*
X133429902Y-95611700D01*
X133572760Y-95611700D01*
X133715617Y-95659320D01*
X133810855Y-95754558D01*
X133858474Y-95849796D01*
X133906093Y-96040272D01*
X133906093Y-96183129D01*
X133858474Y-96373605D01*
X133810855Y-96468843D01*
X133715617Y-96564081D01*
X133572760Y-96611700D01*
X133477521Y-96611700D01*
X133334664Y-96564081D01*
X133287045Y-96516462D01*
X133287045Y-96183129D01*
X133477521Y-96183129D01*
X132858474Y-96611700D02*
X132858474Y-95611700D01*
X132287045Y-96611700D01*
X132287045Y-95611700D01*
X131810855Y-96611700D02*
X131810855Y-95611700D01*
X131572760Y-95611700D01*
X131429902Y-95659320D01*
X131334664Y-95754558D01*
X131287045Y-95849796D01*
X131239426Y-96040272D01*
X131239426Y-96183129D01*
X131287045Y-96373605D01*
X131334664Y-96468843D01*
X131429902Y-96564081D01*
X131572760Y-96611700D01*
X131810855Y-96611700D01*
X134153660Y-94869998D02*
X134153660Y-95489045D01*
X134534613Y-95155712D01*
X134534613Y-95298569D01*
X134582232Y-95393807D01*
X134629851Y-95441426D01*
X134725089Y-95489045D01*
X134963184Y-95489045D01*
X135058422Y-95441426D01*
X135106041Y-95393807D01*
X135153660Y-95298569D01*
X135153660Y-95012855D01*
X135106041Y-94917617D01*
X135058422Y-94869998D01*
X134486994Y-95822379D02*
X135153660Y-96060474D01*
X134486994Y-96298569D01*
X134153660Y-96584283D02*
X134153660Y-97203331D01*
X134534613Y-96869998D01*
X134534613Y-97012855D01*
X134582232Y-97108093D01*
X134629851Y-97155712D01*
X134725089Y-97203331D01*
X134963184Y-97203331D01*
X135058422Y-97155712D01*
X135106041Y-97108093D01*
X135153660Y-97012855D01*
X135153660Y-96727140D01*
X135106041Y-96631902D01*
X135058422Y-96584283D01*
X135106041Y-98822379D02*
X135153660Y-98727140D01*
X135153660Y-98536664D01*
X135106041Y-98441426D01*
X135058422Y-98393807D01*
X134963184Y-98346188D01*
X134677470Y-98346188D01*
X134582232Y-98393807D01*
X134534613Y-98441426D01*
X134486994Y-98536664D01*
X134486994Y-98727140D01*
X134534613Y-98822379D01*
X134486994Y-99250950D02*
X135486994Y-99250950D01*
X134534613Y-99250950D02*
X134486994Y-99346188D01*
X134486994Y-99536664D01*
X134534613Y-99631902D01*
X134582232Y-99679521D01*
X134677470Y-99727140D01*
X134963184Y-99727140D01*
X135058422Y-99679521D01*
X135106041Y-99631902D01*
X135153660Y-99536664D01*
X135153660Y-99346188D01*
X135106041Y-99250950D01*
X134486994Y-100584283D02*
X135153660Y-100584283D01*
X134486994Y-100155712D02*
X135010803Y-100155712D01*
X135106041Y-100203331D01*
X135153660Y-100298569D01*
X135153660Y-100441426D01*
X135106041Y-100536664D01*
X135058422Y-100584283D01*
D13*
X145738904Y-87909476D02*
X146386523Y-87909476D01*
X146462714Y-87947571D01*
X146500809Y-87985666D01*
X146538904Y-88061857D01*
X146538904Y-88214238D01*
X146500809Y-88290428D01*
X146462714Y-88328523D01*
X146386523Y-88366619D01*
X145738904Y-88366619D01*
X145738904Y-88671380D02*
X145738904Y-89204714D01*
X146538904Y-88861857D01*
%LPC*%
D14*
X148742400Y-93548200D03*
D15*
X148742400Y-91008200D03*
D16*
X124460000Y-97790000D03*
X121920000Y-97790000D03*
X124460000Y-95250000D03*
X121920000Y-95250000D03*
X124460000Y-92710000D03*
X121920000Y-92710000D03*
X124460000Y-90170000D03*
X121920000Y-90170000D03*
X124460000Y-87630000D03*
X121920000Y-87630000D03*
X124460000Y-85090000D03*
X121920000Y-85090000D03*
D17*
X121920000Y-74930000D03*
D16*
X124460000Y-74930000D03*
X121920000Y-77470000D03*
X124460000Y-77470000D03*
X121920000Y-80010000D03*
X124460000Y-80010000D03*
X121920000Y-82550000D03*
X124460000Y-82550000D03*
D18*
X145427600Y-64795400D03*
X138277600Y-64795400D03*
X145427600Y-68245400D03*
X138277600Y-68245400D03*
D19*
X143852600Y-66920400D03*
X139852600Y-66920400D03*
D20*
X153314400Y-80098900D03*
X153314400Y-79209900D03*
D21*
X153314400Y-80416400D03*
X153314400Y-78892400D03*
D20*
X155854400Y-80098900D03*
X155854400Y-79209900D03*
D21*
X155854400Y-80416400D03*
X155854400Y-78892400D03*
D20*
X150774400Y-80098900D03*
X150774400Y-79209900D03*
D21*
X150774400Y-80416400D03*
X150774400Y-78892400D03*
D20*
X148234400Y-80098900D03*
X148234400Y-79209900D03*
D21*
X148234400Y-80416400D03*
X148234400Y-78892400D03*
D22*
X130434080Y-95234760D03*
D17*
X128435100Y-76504800D03*
D16*
X128435100Y-79044800D03*
D22*
X127894080Y-97769680D03*
X130434080Y-100309680D03*
X130434080Y-97769680D03*
X132974080Y-97769680D03*
D14*
X146888200Y-71272400D03*
D15*
X146888200Y-73812400D03*
D23*
X163982400Y-93216000D03*
X163982400Y-101196000D03*
D14*
X127127000Y-65786000D03*
D15*
X127127000Y-68326000D03*
D24*
X142399000Y-89773000D03*
X130399000Y-89773000D03*
X130399000Y-70873000D03*
X132399000Y-70873000D03*
X134399000Y-70873000D03*
X136399000Y-70873000D03*
X138399000Y-70873000D03*
X140399000Y-70873000D03*
X142399000Y-70873000D03*
D17*
X150622000Y-107950000D03*
D16*
X150622000Y-110490000D03*
X153162000Y-107950000D03*
X153162000Y-110490000D03*
X155702000Y-107950000D03*
X155702000Y-110490000D03*
X158242000Y-107950000D03*
X158242000Y-110490000D03*
X160782000Y-107950000D03*
X160782000Y-110490000D03*
X126746000Y-103378000D03*
X126746000Y-105918000D03*
X129286000Y-103378000D03*
X129286000Y-105918000D03*
X131826000Y-103378000D03*
X131826000Y-105918000D03*
D17*
X134366000Y-103378000D03*
D16*
X134366000Y-105918000D03*
M02*
