G04 #@! TF.FileFunction,Copper,L1,Top,Signal*
%FSLAX46Y46*%
G04 Gerber Fmt 4.6, Leading zero omitted, Abs format (unit mm)*
G04 Created by KiCad (PCBNEW 4.1.0-alpha+201606061201+6885~45~ubuntu16.04.1-product) date Tue Jun  7 19:16:38 2016*
%MOMM*%
%LPD*%
G01*
G04 APERTURE LIST*
%ADD10C,0.100000*%
%ADD11R,1.200000X0.750000*%
%ADD12R,0.900000X1.200000*%
%ADD13R,1.500000X1.400000*%
%ADD14R,1.000000X1.150000*%
%ADD15R,2.032000X2.032000*%
%ADD16O,2.032000X2.032000*%
%ADD17R,0.797560X0.797560*%
%ADD18R,0.650000X1.060000*%
%ADD19R,1.200000X0.900000*%
%ADD20R,0.800100X0.800100*%
%ADD21R,3.657600X2.032000*%
%ADD22R,1.016000X2.032000*%
%ADD23O,1.727200X1.727200*%
%ADD24R,1.727200X1.727200*%
%ADD25R,0.750000X1.200000*%
%ADD26R,0.300000X1.500000*%
%ADD27R,1.500000X0.300000*%
%ADD28R,0.740000X2.400000*%
%ADD29R,1.500000X1.800000*%
%ADD30R,0.400000X1.700000*%
%ADD31O,1.050000X1.850000*%
%ADD32R,1.600000X0.700000*%
%ADD33R,2.200000X1.200000*%
%ADD34R,1.400000X1.200000*%
%ADD35R,1.400000X1.600000*%
%ADD36C,0.600000*%
%ADD37C,0.800000*%
%ADD38C,0.700000*%
%ADD39C,0.635000*%
%ADD40C,0.203200*%
%ADD41C,0.381000*%
%ADD42C,0.508000*%
%ADD43C,0.254000*%
G04 APERTURE END LIST*
D10*
D11*
X142372000Y-73279000D03*
X144272000Y-73279000D03*
D12*
X121279920Y-101815720D03*
X121279920Y-104015720D03*
X123383040Y-101815720D03*
X123383040Y-104015720D03*
D13*
X145391800Y-109626400D03*
X137591800Y-109626400D03*
D14*
X143341800Y-111701400D03*
X139641800Y-107551400D03*
D15*
X148742400Y-93548200D03*
D16*
X148742400Y-91008200D03*
D17*
X131356100Y-67462400D03*
X131356100Y-65963800D03*
X136004300Y-67449700D03*
X136004300Y-65951100D03*
D12*
X130987800Y-70748800D03*
X130987800Y-72948800D03*
D18*
X131348400Y-78120600D03*
X132298400Y-78120600D03*
X133248400Y-78120600D03*
X133248400Y-75920600D03*
X131348400Y-75920600D03*
D19*
X138844200Y-96860360D03*
X136644200Y-96860360D03*
D11*
X147375960Y-106080560D03*
X145475960Y-106080560D03*
D20*
X153837600Y-87005160D03*
X155737600Y-87005160D03*
X154787600Y-85006180D03*
D21*
X146354800Y-97307400D03*
D22*
X146354800Y-103911400D03*
X148640800Y-103911400D03*
X144068800Y-103911400D03*
D23*
X124460000Y-97790000D03*
X121920000Y-97790000D03*
X124460000Y-95250000D03*
X121920000Y-95250000D03*
X124460000Y-92710000D03*
X121920000Y-92710000D03*
X124460000Y-90170000D03*
X121920000Y-90170000D03*
X124460000Y-87630000D03*
X121920000Y-87630000D03*
X124460000Y-85090000D03*
X121920000Y-85090000D03*
D24*
X121920000Y-74930000D03*
D23*
X124460000Y-74930000D03*
X121920000Y-77470000D03*
X124460000Y-77470000D03*
X121920000Y-80010000D03*
X124460000Y-80010000D03*
X121920000Y-82550000D03*
X124460000Y-82550000D03*
D25*
X128193800Y-92882800D03*
X128193800Y-90982800D03*
D17*
X129832100Y-67449700D03*
X129832100Y-65951100D03*
D25*
X157251400Y-86903600D03*
X157251400Y-85003600D03*
D11*
X132461000Y-84239100D03*
X130561000Y-84239100D03*
X136855200Y-76911200D03*
X134955200Y-76911200D03*
D25*
X148717000Y-86106000D03*
X148717000Y-84206000D03*
X140233400Y-92684600D03*
X140233400Y-94584600D03*
X147929600Y-110032800D03*
X147929600Y-108132800D03*
X136906000Y-105090000D03*
X136906000Y-103190000D03*
X151282400Y-99385200D03*
X151282400Y-97485200D03*
X150835360Y-105008720D03*
X150835360Y-103108720D03*
D11*
X144267000Y-71818500D03*
X142367000Y-71818500D03*
X141203720Y-101762560D03*
X139303720Y-101762560D03*
D19*
X144292500Y-70294500D03*
X142092500Y-70294500D03*
D12*
X152247600Y-87790200D03*
X152247600Y-85590200D03*
X129336800Y-70748800D03*
X129336800Y-72948800D03*
D11*
X130548300Y-82473800D03*
X132448300Y-82473800D03*
X141203720Y-103306880D03*
X139303720Y-103306880D03*
D25*
X132638800Y-92136000D03*
X132638800Y-90236000D03*
D11*
X135600400Y-94107000D03*
X137500400Y-94107000D03*
X138678960Y-98430080D03*
X136778960Y-98430080D03*
D26*
X136839000Y-90028000D03*
X137339000Y-90028000D03*
X137839000Y-90028000D03*
X138339000Y-90028000D03*
X138839000Y-90028000D03*
X139339000Y-90028000D03*
X139839000Y-90028000D03*
X140339000Y-90028000D03*
X140839000Y-90028000D03*
X141339000Y-90028000D03*
X141839000Y-90028000D03*
X142339000Y-90028000D03*
X142839000Y-90028000D03*
X143339000Y-90028000D03*
X143839000Y-90028000D03*
X144339000Y-90028000D03*
D27*
X146289000Y-88078000D03*
X146289000Y-87578000D03*
X146289000Y-87078000D03*
X146289000Y-86578000D03*
X146289000Y-86078000D03*
X146289000Y-85578000D03*
X146289000Y-85078000D03*
X146289000Y-84578000D03*
X146289000Y-84078000D03*
X146289000Y-83578000D03*
X146289000Y-83078000D03*
X146289000Y-82578000D03*
X146289000Y-82078000D03*
X146289000Y-81578000D03*
X146289000Y-81078000D03*
X146289000Y-80578000D03*
D26*
X144339000Y-78628000D03*
X143839000Y-78628000D03*
X143339000Y-78628000D03*
X142839000Y-78628000D03*
X142339000Y-78628000D03*
X141839000Y-78628000D03*
X141339000Y-78628000D03*
X140839000Y-78628000D03*
X140339000Y-78628000D03*
X139839000Y-78628000D03*
X139339000Y-78628000D03*
X138839000Y-78628000D03*
X138339000Y-78628000D03*
X137839000Y-78628000D03*
X137339000Y-78628000D03*
X136839000Y-78628000D03*
D27*
X134889000Y-80578000D03*
X134889000Y-81078000D03*
X134889000Y-81578000D03*
X134889000Y-82078000D03*
X134889000Y-82578000D03*
X134889000Y-83078000D03*
X134889000Y-83578000D03*
X134889000Y-84078000D03*
X134889000Y-84578000D03*
X134889000Y-85078000D03*
X134889000Y-85578000D03*
X134889000Y-86078000D03*
X134889000Y-86578000D03*
X134889000Y-87078000D03*
X134889000Y-87578000D03*
X134889000Y-88078000D03*
D17*
X132905500Y-67449700D03*
X132905500Y-65951100D03*
D12*
X132638800Y-70748800D03*
X132638800Y-72948800D03*
D11*
X145252400Y-76911200D03*
X147152400Y-76911200D03*
D25*
X128143000Y-108524000D03*
X128143000Y-110424000D03*
D12*
X129794000Y-110701000D03*
X129794000Y-108501000D03*
X131445000Y-108501000D03*
X131445000Y-110701000D03*
D17*
X134454900Y-67449700D03*
X134454900Y-65951100D03*
D12*
X134289800Y-70748800D03*
X134289800Y-72948800D03*
X147726400Y-67902000D03*
X147726400Y-65702000D03*
D28*
X134086600Y-95072200D03*
X134086600Y-98972200D03*
X132816600Y-95072200D03*
X132816600Y-98972200D03*
X131546600Y-95072200D03*
X131546600Y-98972200D03*
X130276600Y-98972200D03*
X129006600Y-95072200D03*
X129006600Y-98972200D03*
D29*
X137223500Y-92062300D03*
X134223500Y-92062300D03*
D30*
X141852600Y-67895400D03*
X141202600Y-67895400D03*
X142502600Y-67895400D03*
D10*
G36*
X143352600Y-67045400D02*
X143352600Y-68745400D01*
X142952600Y-68745400D01*
X142952600Y-67045400D01*
X143352600Y-67045400D01*
X143352600Y-67045400D01*
G37*
D30*
X140552600Y-67895400D03*
D31*
X145427600Y-64795400D03*
X138277600Y-64795400D03*
X145427600Y-68245400D03*
X138277600Y-68245400D03*
D20*
X146238000Y-93301820D03*
X144338000Y-93301820D03*
X145288000Y-95300800D03*
D12*
X135991600Y-70748800D03*
X135991600Y-72948800D03*
D24*
X128435100Y-76504800D03*
D23*
X128435100Y-79044800D03*
D15*
X146888200Y-71196200D03*
D16*
X146888200Y-73736200D03*
D32*
X153482400Y-94066000D03*
X153482400Y-95166000D03*
X153482400Y-96266000D03*
X153482400Y-97366000D03*
X153482400Y-98466000D03*
X153482400Y-99566000D03*
X153482400Y-100666000D03*
X153482400Y-101766000D03*
X153482400Y-102866000D03*
D33*
X163582400Y-88516000D03*
D34*
X153982400Y-104016000D03*
D35*
X153982400Y-89416000D03*
D33*
X163582400Y-104016000D03*
D15*
X127127000Y-65786000D03*
D16*
X127127000Y-68326000D03*
D24*
X150622000Y-107950000D03*
D23*
X150622000Y-110490000D03*
X153162000Y-107950000D03*
X153162000Y-110490000D03*
X155702000Y-107950000D03*
X155702000Y-110490000D03*
X158242000Y-107950000D03*
X158242000Y-110490000D03*
X160782000Y-107950000D03*
X160782000Y-110490000D03*
X126746000Y-103378000D03*
X126746000Y-105918000D03*
X129286000Y-103378000D03*
X129286000Y-105918000D03*
X131826000Y-103378000D03*
X131826000Y-105918000D03*
D24*
X134366000Y-103378000D03*
D23*
X134366000Y-105918000D03*
D11*
X138572200Y-105232200D03*
X140472200Y-105232200D03*
D25*
X129755900Y-92885300D03*
X129755900Y-90985300D03*
D36*
X131699000Y-93472000D03*
X132091338Y-89111210D03*
X132867400Y-93454510D03*
D37*
X137870163Y-79981202D03*
D36*
X135636000Y-93454510D03*
D37*
X130543300Y-83312000D03*
X127368300Y-110274100D03*
X132257800Y-77012800D03*
D36*
X136321969Y-83515031D03*
D37*
X145367276Y-78641476D03*
X140487400Y-106311700D03*
X133897226Y-76944403D03*
X144272000Y-72580500D03*
D36*
X147726400Y-68834000D03*
X149402800Y-84226400D03*
X128124596Y-93933570D03*
X139973646Y-96089615D03*
X151818475Y-100858610D03*
X139303760Y-102529640D03*
X136639003Y-99123203D03*
X149976840Y-102682040D03*
X145992773Y-108448532D03*
X144485360Y-106055160D03*
X154000200Y-90576400D03*
X139941300Y-68237100D03*
X133654800Y-65976500D03*
X139956520Y-87866893D03*
X155194000Y-103886000D03*
X163322000Y-102997000D03*
X163449000Y-89662000D03*
X156133800Y-85006180D03*
X143068000Y-104978200D03*
X146812000Y-77597000D03*
X136154160Y-90622120D03*
X135032954Y-90638828D03*
D37*
X140182600Y-73609200D03*
D38*
X128168400Y-72999600D03*
D36*
X147523200Y-105156000D03*
X159664400Y-97840800D03*
X130583312Y-91329967D03*
X136309100Y-85940900D03*
X132073318Y-100596590D03*
X133685608Y-84946282D03*
X128828800Y-89103200D03*
X130686088Y-94277790D03*
X144495287Y-85202866D03*
X157518100Y-90449400D03*
X143394022Y-75929727D03*
X147976774Y-88904780D03*
X143850749Y-79868512D03*
X145113579Y-84774103D03*
X158140400Y-89331800D03*
X143524985Y-86211279D03*
X142855824Y-76658342D03*
X147127260Y-89458800D03*
X155270200Y-89763600D03*
X144270439Y-86313349D03*
X155105100Y-92938600D03*
X143098810Y-80124003D03*
X143798036Y-94343690D03*
X158610150Y-88506150D03*
X150100601Y-84695319D03*
X144603345Y-84221126D03*
X157139971Y-89244034D03*
X154389263Y-107420764D03*
X144805400Y-83451700D03*
X149618389Y-87173111D03*
X151955500Y-106680000D03*
X150745874Y-84099437D03*
X151053800Y-86207600D03*
X148841649Y-81523990D03*
X148755100Y-76987400D03*
X144399000Y-87464900D03*
X135229600Y-99938507D03*
X136364413Y-94951000D03*
X151155400Y-87477600D03*
X147908990Y-87244144D03*
X143491990Y-84448537D03*
X131483100Y-101295200D03*
X139537646Y-91492251D03*
X144759368Y-82613787D03*
X135603158Y-98890543D03*
X138206170Y-87493502D03*
X138734433Y-91492251D03*
X142621445Y-88185334D03*
X129021840Y-97363280D03*
X140933539Y-91705905D03*
X128409700Y-74218800D03*
X141776487Y-77301740D03*
X140416991Y-75815283D03*
X133807200Y-74726800D03*
X139748219Y-76160055D03*
X133005703Y-74852102D03*
X141747813Y-76454000D03*
X137172700Y-72669400D03*
X126898404Y-82538562D03*
X120550215Y-78710534D03*
X130806699Y-87114267D03*
X127943232Y-89792432D03*
X129515487Y-87102851D03*
X127025400Y-88988900D03*
X129400300Y-85483700D03*
X127277624Y-87481919D03*
X126733300Y-88239600D03*
X130136900Y-86067900D03*
X131562033Y-86841102D03*
X126403100Y-87414100D03*
X139399536Y-77348844D03*
X133223000Y-81483200D03*
X127989483Y-84017015D03*
X133982677Y-77950277D03*
X125909427Y-88085574D03*
X123190000Y-94361000D03*
X121793000Y-100076000D03*
X138839000Y-76846925D03*
X120891377Y-94349955D03*
X134781817Y-78031057D03*
X122174000Y-99314000D03*
X143891000Y-91506040D03*
X142355757Y-92518262D03*
X145011820Y-91543914D03*
X142954069Y-92062032D03*
X125920130Y-80518000D03*
X142631400Y-83436407D03*
X139979400Y-86715600D03*
X149407590Y-80772000D03*
X143586200Y-83374950D03*
X140839000Y-87503000D03*
X148234400Y-80543400D03*
X142316200Y-82753200D03*
X139573000Y-85979000D03*
X149961600Y-81330800D03*
D37*
X135864600Y-79113900D03*
X132524500Y-83452002D03*
D36*
X134101840Y-96946720D03*
X148097011Y-95664320D03*
X137419080Y-95697040D03*
X134917233Y-95572633D03*
X143764000Y-76809600D03*
X150164800Y-92087700D03*
X154058031Y-93244631D03*
X141884717Y-96232954D03*
X157409042Y-95091428D03*
D37*
X142692398Y-102189002D03*
X136902442Y-74421991D03*
X152091898Y-98281640D03*
X139420600Y-74422000D03*
D36*
X128740742Y-89958453D03*
X154940000Y-98937790D03*
X145785840Y-90200480D03*
X145171430Y-93105818D03*
X128742961Y-89955811D03*
X142030145Y-94469674D03*
X145313400Y-94056200D03*
X140995400Y-76454000D03*
X135432800Y-74371200D03*
X132150512Y-86288601D03*
D39*
X131716490Y-93454510D02*
X131699000Y-93472000D01*
X132867400Y-93454510D02*
X131716490Y-93454510D01*
X131793899Y-89262301D02*
X131944990Y-89111210D01*
X131944990Y-89111210D02*
X132091338Y-89111210D01*
X131826000Y-92978795D02*
X131793899Y-92946694D01*
X131793899Y-92946694D02*
X131793899Y-89262301D01*
X132867400Y-93454510D02*
X132301715Y-93454510D01*
X132301715Y-93454510D02*
X131826000Y-92978795D01*
D40*
X135636000Y-93454510D02*
X132867400Y-93454510D01*
X135636000Y-93454510D02*
X135211736Y-93454510D01*
X135211736Y-93454510D02*
X135191126Y-93433900D01*
X137339000Y-78628000D02*
X137339000Y-79581200D01*
X137339000Y-79581200D02*
X137739002Y-79981202D01*
X137739002Y-79981202D02*
X137870163Y-79981202D01*
D41*
X135636000Y-93878774D02*
X135636000Y-93454510D01*
X135636000Y-94071400D02*
X135636000Y-93878774D01*
X135600400Y-94107000D02*
X135636000Y-94071400D01*
X135636000Y-90830400D02*
X135636000Y-93454510D01*
D39*
X130561000Y-84239100D02*
X130561000Y-83329700D01*
X130561000Y-83329700D02*
X130543300Y-83312000D01*
X130548300Y-82473800D02*
X130548300Y-83307000D01*
X130548300Y-83307000D02*
X130543300Y-83312000D01*
X128143000Y-110424000D02*
X127518200Y-110424000D01*
X127518200Y-110424000D02*
X127368300Y-110274100D01*
X132298400Y-78120600D02*
X132298400Y-77053400D01*
X132298400Y-77053400D02*
X132257800Y-77012800D01*
X131348400Y-76103400D02*
X132257800Y-77012800D01*
X131348400Y-75920600D02*
X131348400Y-76103400D01*
D41*
X136021970Y-83215032D02*
X136321969Y-83515031D01*
X136000538Y-83193600D02*
X136021970Y-83215032D01*
X136000538Y-83078000D02*
X136000538Y-83193600D01*
D39*
X145353800Y-78628000D02*
X145367276Y-78641476D01*
X144922000Y-78628000D02*
X145353800Y-78628000D01*
X140474700Y-105460800D02*
X140474700Y-106299000D01*
X140474700Y-106299000D02*
X140487400Y-106311700D01*
X129755900Y-92885300D02*
X128196300Y-92885300D01*
X128196300Y-92885300D02*
X128193800Y-92882800D01*
X134982997Y-76944403D02*
X134462911Y-76944403D01*
X135041600Y-76885800D02*
X134982997Y-76944403D01*
X134462911Y-76944403D02*
X133897226Y-76944403D01*
D41*
X140208000Y-95855261D02*
X139973646Y-96089615D01*
X140208000Y-94549000D02*
X140208000Y-95855261D01*
D39*
X144272000Y-73279000D02*
X144272000Y-72580500D01*
X144267000Y-71818500D02*
X144267000Y-72575500D01*
X144267000Y-72575500D02*
X144272000Y-72580500D01*
D40*
X144922000Y-78628000D02*
X144942428Y-78648428D01*
X144339000Y-78628000D02*
X144922000Y-78628000D01*
D39*
X147726400Y-67902000D02*
X147726400Y-68834000D01*
X147828000Y-85043000D02*
X147828000Y-84328000D01*
X147828000Y-84328000D02*
X148595000Y-84328000D01*
X148595000Y-84328000D02*
X148717000Y-84206000D01*
X148717000Y-84206000D02*
X149382400Y-84206000D01*
X149382400Y-84206000D02*
X149402800Y-84226400D01*
D41*
X128193800Y-93864366D02*
X128124596Y-93933570D01*
X128193800Y-92882800D02*
X128193800Y-93864366D01*
D39*
X131546600Y-95072200D02*
X132816600Y-95072200D01*
X157251400Y-85003600D02*
X156136380Y-85003600D01*
X156136380Y-85003600D02*
X156133800Y-85006180D01*
X145391800Y-109626400D02*
X145391800Y-109049505D01*
X145391800Y-109049505D02*
X145992773Y-108448532D01*
X139303720Y-101762560D02*
X139303720Y-102529600D01*
X139303720Y-102529600D02*
X139303760Y-102529640D01*
X139303720Y-103306880D02*
X139303720Y-102529680D01*
X139303720Y-102529680D02*
X139303760Y-102529640D01*
X143068000Y-104353400D02*
X143068000Y-104978200D01*
X144068800Y-103911400D02*
X143510000Y-103911400D01*
X143510000Y-103911400D02*
X143068000Y-104353400D01*
X153982400Y-104016000D02*
X155064000Y-104016000D01*
X155064000Y-104016000D02*
X155194000Y-103886000D01*
X147929600Y-108132800D02*
X150439200Y-108132800D01*
X150439200Y-108132800D02*
X150622000Y-107950000D01*
X134366000Y-103378000D02*
X136718000Y-103378000D01*
X136718000Y-103378000D02*
X136906000Y-103190000D01*
D41*
X151434800Y-99400400D02*
X151434800Y-100474935D01*
X151518476Y-100558611D02*
X151818475Y-100858610D01*
X151434800Y-100474935D02*
X151518476Y-100558611D01*
X136639003Y-98698939D02*
X136639003Y-99123203D01*
X136778960Y-98430080D02*
X136639003Y-98570037D01*
X136639003Y-98570037D02*
X136639003Y-98698939D01*
X150835360Y-103108720D02*
X150403520Y-103108720D01*
X150403520Y-103108720D02*
X149976840Y-102682040D01*
X145891080Y-108550225D02*
X145992773Y-108448532D01*
X145891080Y-109722920D02*
X145891080Y-108550225D01*
X145475960Y-106080560D02*
X144510760Y-106080560D01*
X144510760Y-106080560D02*
X144485360Y-106055160D01*
X153982400Y-89416000D02*
X153982400Y-90558600D01*
X153982400Y-90558600D02*
X154000200Y-90576400D01*
X153982400Y-89700914D02*
X154159407Y-89877921D01*
X153982400Y-89416000D02*
X153982400Y-89700914D01*
X140552600Y-67895400D02*
X140283000Y-67895400D01*
X140283000Y-67895400D02*
X139941300Y-68237100D01*
X134454900Y-65951100D02*
X136004300Y-65951100D01*
X133654800Y-65976500D02*
X134429500Y-65976500D01*
X134429500Y-65976500D02*
X134454900Y-65951100D01*
X132905500Y-65951100D02*
X133629400Y-65951100D01*
X133629400Y-65951100D02*
X133654800Y-65976500D01*
X131356100Y-65963800D02*
X132892800Y-65963800D01*
X132892800Y-65963800D02*
X132905500Y-65951100D01*
X129832100Y-65951100D02*
X131343400Y-65951100D01*
X131343400Y-65951100D02*
X131356100Y-65963800D01*
X134442200Y-65938400D02*
X134454900Y-65951100D01*
D40*
X139839000Y-87984413D02*
X139956520Y-87866893D01*
X139839000Y-90028000D02*
X139839000Y-87984413D01*
D41*
X163582400Y-104016000D02*
X163582400Y-103257400D01*
X163582400Y-103257400D02*
X163322000Y-102997000D01*
X163582400Y-88516000D02*
X163582400Y-89528600D01*
X163582400Y-89528600D02*
X163449000Y-89662000D01*
X128193800Y-92882800D02*
X128193800Y-92887800D01*
X154787600Y-85006180D02*
X156133800Y-85006180D01*
X143484600Y-103936800D02*
X144373600Y-103936800D01*
X143068000Y-104353400D02*
X143484600Y-103936800D01*
X151434800Y-99400400D02*
X153316800Y-99400400D01*
X153316800Y-99400400D02*
X153482400Y-99566000D01*
X128143000Y-110424000D02*
X128143000Y-110091475D01*
X136906000Y-103190000D02*
X134554000Y-103190000D01*
D40*
X134554000Y-103190000D02*
X134366000Y-103378000D01*
X134889000Y-83078000D02*
X136000538Y-83078000D01*
X136000538Y-83078000D02*
X136000619Y-83077919D01*
X146746000Y-76835000D02*
X146746000Y-77531000D01*
X146746000Y-77531000D02*
X146812000Y-77597000D01*
X147293000Y-85578000D02*
X147828000Y-85043000D01*
X146289000Y-85578000D02*
X147293000Y-85578000D01*
X132356193Y-77935000D02*
X132396374Y-77975181D01*
D41*
X135032954Y-90638828D02*
X136137452Y-90638828D01*
X136137452Y-90638828D02*
X136154160Y-90622120D01*
X135636000Y-90830400D02*
X135224526Y-90830400D01*
X135224526Y-90830400D02*
X135032954Y-90638828D01*
X135636000Y-90830400D02*
X135651240Y-90815160D01*
D39*
X143827500Y-74193400D02*
X142367000Y-74193400D01*
X145451360Y-73812400D02*
X145070360Y-74193400D01*
X145070360Y-74193400D02*
X143827500Y-74193400D01*
X145451360Y-73812400D02*
X146888200Y-73812400D01*
X142367000Y-74193400D02*
X140766800Y-74193400D01*
X142372000Y-73279000D02*
X142372000Y-74188400D01*
X142372000Y-74188400D02*
X142367000Y-74193400D01*
X144292500Y-70294500D02*
X145910300Y-70294500D01*
X145910300Y-70294500D02*
X146888200Y-71272400D01*
X140766800Y-74193400D02*
X140182600Y-73609200D01*
X159664400Y-97840800D02*
X159664400Y-81885400D01*
X159664400Y-81885400D02*
X151576200Y-73797200D01*
X151576200Y-73797200D02*
X148666200Y-73797200D01*
X146888200Y-73812400D02*
X148651000Y-73812400D01*
X148651000Y-73812400D02*
X148666200Y-73797200D01*
X121920000Y-74930000D02*
X121920000Y-73431400D01*
X121920000Y-73431400D02*
X122351800Y-72999600D01*
X122351800Y-72999600D02*
X128168400Y-72999600D01*
X147929600Y-110032800D02*
X148685600Y-110032800D01*
X150622000Y-110490000D02*
X149142800Y-110490000D01*
X149142800Y-110490000D02*
X148685600Y-110032800D01*
X147375960Y-106080560D02*
X147046599Y-106409921D01*
X147046599Y-106409921D02*
X147046599Y-109149799D01*
X147046599Y-109149799D02*
X147929600Y-110032800D01*
X147929600Y-110032800D02*
X147929600Y-110257800D01*
X147523200Y-105156000D02*
X147523200Y-105933320D01*
X147523200Y-105933320D02*
X147375960Y-106080560D01*
D41*
X150835360Y-105008720D02*
X150079360Y-105008720D01*
X150079360Y-105008720D02*
X149748240Y-104677600D01*
X149748240Y-104677600D02*
X149748240Y-104129840D01*
X149748240Y-104129840D02*
X149529800Y-103911400D01*
X149529800Y-103911400D02*
X148640800Y-103911400D01*
X147375960Y-106080560D02*
X148356960Y-106080560D01*
X148356960Y-106080560D02*
X148640800Y-105796720D01*
X148640800Y-105796720D02*
X148640800Y-103911400D01*
D40*
X150561000Y-110551000D02*
X150622000Y-110490000D01*
X142122800Y-73193000D02*
X142113000Y-73202800D01*
X142092500Y-70294500D02*
X142092500Y-71544000D01*
X142092500Y-71544000D02*
X142367000Y-71818500D01*
X142122800Y-70568400D02*
X143152600Y-69538600D01*
X143152600Y-69538600D02*
X143152600Y-67895400D01*
X142502600Y-67895400D02*
X142502600Y-68999400D01*
X138266920Y-77551920D02*
X138339000Y-77624000D01*
X138339000Y-77624000D02*
X138339000Y-78628000D01*
X138266920Y-72131080D02*
X138266920Y-77551920D01*
X140954108Y-69443892D02*
X138266920Y-72131080D01*
X142502600Y-68999400D02*
X142058108Y-69443892D01*
X142058108Y-69443892D02*
X140954108Y-69443892D01*
X141852600Y-67895400D02*
X141852600Y-68752602D01*
X140796289Y-69062881D02*
X137822410Y-72036760D01*
X137822410Y-72036760D02*
X137822410Y-76738945D01*
X141852600Y-68752602D02*
X141542321Y-69062881D01*
X141542321Y-69062881D02*
X140796289Y-69062881D01*
X137822410Y-76738945D02*
X137839000Y-76755535D01*
X137839000Y-76755535D02*
X137839000Y-77624000D01*
X137839000Y-77624000D02*
X137839000Y-78628000D01*
X141852600Y-68545400D02*
X141852600Y-67895400D01*
X130583312Y-91754231D02*
X130583312Y-91329967D01*
X129849599Y-94294357D02*
X130384901Y-93759055D01*
X129849599Y-96486699D02*
X129849599Y-94294357D01*
X131981800Y-97307400D02*
X130670300Y-97307400D01*
X132816600Y-98142200D02*
X131981800Y-97307400D01*
X132816600Y-98972200D02*
X132816600Y-98142200D01*
X130384901Y-93759055D02*
X130384901Y-91952642D01*
X130384901Y-91952642D02*
X130583312Y-91754231D01*
X130670300Y-97307400D02*
X129849599Y-96486699D01*
X136309100Y-85940900D02*
X136309100Y-85044900D01*
X136309100Y-85044900D02*
X135842200Y-84578000D01*
X135842200Y-84578000D02*
X134889000Y-84578000D01*
X132073318Y-100596590D02*
X132816600Y-99853308D01*
X132816600Y-99853308D02*
X132816600Y-98972200D01*
X132816600Y-98972200D02*
X132816600Y-99802200D01*
X132613400Y-98178600D02*
X132613400Y-99632600D01*
X134893000Y-84582000D02*
X134889000Y-84578000D01*
X130829412Y-93373664D02*
X130829412Y-94134466D01*
X131175404Y-93027672D02*
X130829412Y-93373664D01*
X128828800Y-89103200D02*
X129599354Y-89103200D01*
X131127500Y-90631346D02*
X131175404Y-90678257D01*
X130829412Y-94134466D02*
X130686088Y-94277790D01*
X129599354Y-89103200D02*
X131127500Y-90631346D01*
X131175404Y-90678257D02*
X131175404Y-93027672D01*
X134889000Y-85078000D02*
X133817326Y-85078000D01*
X133817326Y-85078000D02*
X133685608Y-84946282D01*
X128828800Y-89103200D02*
X128967010Y-88964990D01*
X132642200Y-96697800D02*
X131030698Y-96697800D01*
X130686088Y-94702054D02*
X130686088Y-94277790D01*
X130686088Y-96353190D02*
X130686088Y-94702054D01*
X131030698Y-96697800D02*
X130686088Y-96353190D01*
X134086600Y-98142200D02*
X132642200Y-96697800D01*
X134086600Y-98972200D02*
X134086600Y-98142200D01*
X133883400Y-98069400D02*
X133883400Y-99632600D01*
X134877000Y-85090000D02*
X134889000Y-85078000D01*
X126746000Y-103378000D02*
X127876300Y-102247700D01*
X139641614Y-99415578D02*
X142586257Y-96470935D01*
X147552510Y-88904780D02*
X147976774Y-88904780D01*
X143733141Y-92102884D02*
X145409823Y-92102884D01*
X142586257Y-93249768D02*
X143733141Y-92102884D01*
X146828310Y-88904780D02*
X147552510Y-88904780D01*
X145409823Y-92102884D02*
X146573240Y-90939467D01*
X142586257Y-96470935D02*
X142586257Y-93249768D01*
X133303941Y-101254549D02*
X136334533Y-101254549D01*
X146573240Y-89159850D02*
X146828310Y-88904780D01*
X132310790Y-102247700D02*
X133303941Y-101254549D01*
X127876300Y-102247700D02*
X132310790Y-102247700D01*
X136334533Y-101254549D02*
X138173504Y-99415578D01*
X146573240Y-90939467D02*
X146573240Y-89159850D01*
X138173504Y-99415578D02*
X139641614Y-99415578D01*
X141706600Y-82778600D02*
X141706600Y-82339169D01*
X141706600Y-82969100D02*
X141706600Y-82778600D01*
X142011422Y-83751457D02*
X142321265Y-84061300D01*
X142321265Y-84061300D02*
X143281666Y-85021702D01*
X141706600Y-82778600D02*
X141706600Y-83446635D01*
X141706600Y-83446635D02*
X142321265Y-84061300D01*
X144071023Y-85202866D02*
X144495287Y-85202866D01*
X143889859Y-85021702D02*
X144071023Y-85202866D01*
X143281666Y-85021702D02*
X143889859Y-85021702D01*
X141706600Y-82448400D02*
X141706600Y-82969100D01*
X143446500Y-80599269D02*
X143789400Y-80256369D01*
X143789400Y-80256369D02*
X143850749Y-80195020D01*
X141706600Y-82339169D02*
X143789400Y-80256369D01*
X143367756Y-80678013D02*
X143446500Y-80599269D01*
X142339000Y-77056774D02*
X142301814Y-77019588D01*
X142713232Y-75929727D02*
X142969758Y-75929727D01*
X142301814Y-77019588D02*
X142301814Y-76341145D01*
X142339000Y-78628000D02*
X142339000Y-77056774D01*
X142969758Y-75929727D02*
X143394022Y-75929727D01*
X142301814Y-76341145D02*
X142713232Y-75929727D01*
X143850749Y-80195020D02*
X143850749Y-79868512D01*
X154485600Y-100666000D02*
X153482400Y-100666000D01*
X156855032Y-98296568D02*
X154485600Y-100666000D01*
X157518100Y-90449400D02*
X156855032Y-91112468D01*
X156855032Y-91112468D02*
X156855032Y-98296568D01*
X156839581Y-105370049D02*
X156839581Y-107873800D01*
X158440399Y-103769231D02*
X156839581Y-105370049D01*
X158440399Y-89631799D02*
X158440399Y-103769231D01*
X158140400Y-89331800D02*
X158440399Y-89631799D01*
X158140400Y-89331800D02*
X158261754Y-89453154D01*
X145136154Y-84726846D02*
X145136154Y-84782269D01*
X146289000Y-84578000D02*
X145285000Y-84578000D01*
X145285000Y-84578000D02*
X145136154Y-84726846D01*
X156839581Y-107873800D02*
X156839581Y-107492811D01*
X156839581Y-108466469D02*
X156839581Y-107873800D01*
X156238449Y-109067601D02*
X156839581Y-108466469D01*
X154279601Y-109067601D02*
X156238449Y-109067601D01*
X153162000Y-107950000D02*
X154279601Y-109067601D01*
X142839000Y-79581200D02*
X140931900Y-81488300D01*
X140931901Y-83677754D02*
X143165427Y-85911280D01*
X140931900Y-81488300D02*
X140931901Y-83677754D01*
X143165427Y-85911280D02*
X143224986Y-85911280D01*
X142839000Y-78628000D02*
X142839000Y-79581200D01*
X143224986Y-85911280D02*
X143524985Y-86211279D01*
X133131560Y-103726490D02*
X133131560Y-102097840D01*
X147127260Y-90962530D02*
X147127260Y-89883064D01*
X142967268Y-93407587D02*
X143886539Y-92488316D01*
X143886539Y-92488316D02*
X145601474Y-92488316D01*
X132286249Y-104571801D02*
X133131560Y-103726490D01*
X129286000Y-103378000D02*
X130479801Y-104571801D01*
X136479291Y-101612700D02*
X138320802Y-99771189D01*
X147127260Y-89883064D02*
X147127260Y-89458800D01*
X145601474Y-92488316D02*
X147127260Y-90962530D01*
X133616700Y-101612700D02*
X136479291Y-101612700D01*
X130479801Y-104571801D02*
X132286249Y-104571801D01*
X138320802Y-99771189D02*
X139788911Y-99771189D01*
X139788911Y-99771189D02*
X142967268Y-96592832D01*
X142967268Y-96592832D02*
X142967268Y-93407587D01*
X133131560Y-102097840D02*
X133616700Y-101612700D01*
X142839000Y-76675166D02*
X142855824Y-76658342D01*
X142839000Y-78628000D02*
X142839000Y-76675166D01*
X155702000Y-97332800D02*
X154568800Y-98466000D01*
X154568800Y-98466000D02*
X153482400Y-98466000D01*
X155702000Y-89771136D02*
X155702000Y-97332800D01*
X155270200Y-89763600D02*
X155694464Y-89763600D01*
X155694464Y-89763600D02*
X155702000Y-89771136D01*
X143098810Y-80124003D02*
X141287511Y-81935302D01*
X141287511Y-83530455D02*
X143134368Y-85377313D01*
X141287511Y-81935302D02*
X141287511Y-83530455D01*
X144270439Y-85911182D02*
X144270439Y-86313349D01*
X143736570Y-85377313D02*
X144270439Y-85911182D01*
X143134368Y-85377313D02*
X143736570Y-85377313D01*
X137906760Y-103735742D02*
X137906760Y-101828600D01*
X137906760Y-101828600D02*
X137906760Y-101612700D01*
X138468100Y-100152200D02*
X137906760Y-100713540D01*
X137906760Y-100713540D02*
X137906760Y-101828600D01*
X139941300Y-100152200D02*
X138468100Y-100152200D01*
X143363984Y-96729516D02*
X139941300Y-100152200D01*
X143363984Y-95986600D02*
X143373678Y-96723200D01*
X143348279Y-94793447D02*
X143363984Y-95986600D01*
X143363984Y-95986600D02*
X143363984Y-96729516D01*
X153932400Y-96266000D02*
X155105100Y-95093300D01*
X155105100Y-95093300D02*
X155105100Y-92938600D01*
X143098810Y-80124003D02*
X143098810Y-79872190D01*
X143098810Y-79872190D02*
X143154571Y-79816429D01*
X136341997Y-104107501D02*
X137535001Y-104107501D01*
X137535001Y-104107501D02*
X137906760Y-103735742D01*
X135890397Y-104559101D02*
X136341997Y-104107501D01*
X133976869Y-104559101D02*
X135890397Y-104559101D01*
X133184899Y-106654601D02*
X133184899Y-105351071D01*
X133184899Y-105351071D02*
X133976869Y-104559101D01*
X130695700Y-107327700D02*
X132511800Y-107327700D01*
X132511800Y-107327700D02*
X133184899Y-106654601D01*
X129286000Y-105918000D02*
X130695700Y-107327700D01*
X143798036Y-94343690D02*
X143348279Y-94793447D01*
X153482400Y-96266000D02*
X153932400Y-96266000D01*
X143154571Y-79816429D02*
X143154571Y-79855258D01*
X143339000Y-79632000D02*
X143154571Y-79816429D01*
X143339000Y-78628000D02*
X143339000Y-79632000D01*
X158910149Y-88806149D02*
X158610150Y-88506150D01*
X158910149Y-106060537D02*
X158910149Y-88806149D01*
X158242000Y-107950000D02*
X158242000Y-106728686D01*
X158242000Y-106728686D02*
X158910149Y-106060537D01*
X150100601Y-84271055D02*
X150100601Y-84695319D01*
X149288698Y-83078000D02*
X150100601Y-83889903D01*
X150100601Y-83889903D02*
X150100601Y-84271055D01*
X146289000Y-83078000D02*
X149288698Y-83078000D01*
X144719240Y-84105231D02*
X144603345Y-84221126D01*
X146289000Y-84078000D02*
X144746471Y-84078000D01*
X144746471Y-84078000D02*
X144719240Y-84105231D01*
X157139971Y-89244034D02*
X157880743Y-89984806D01*
X157880743Y-89984806D02*
X157880743Y-89986543D01*
X157880743Y-89986543D02*
X158076900Y-90182700D01*
X158076900Y-90182700D02*
X158076900Y-103593900D01*
X158076900Y-103593900D02*
X154689262Y-106981538D01*
X154689262Y-106981538D02*
X154689262Y-107120765D01*
X154689262Y-107120765D02*
X154389263Y-107420764D01*
X155702000Y-110490000D02*
X156475174Y-110490000D01*
X155713592Y-110490000D02*
X155702000Y-110490000D01*
X145046000Y-83578000D02*
X144931700Y-83578000D01*
X144931700Y-83578000D02*
X144805400Y-83451700D01*
X145046000Y-83578000D02*
X146289000Y-83578000D01*
X151955500Y-102682358D02*
X150093680Y-100820538D01*
X151666377Y-94934839D02*
X151666377Y-89645363D01*
X151955500Y-106680000D02*
X151955500Y-102682358D01*
X150093680Y-100820538D02*
X150093680Y-96507536D01*
X150093680Y-96507536D02*
X151666377Y-94934839D01*
X151666377Y-89645363D02*
X149618389Y-87597375D01*
X149618389Y-87597375D02*
X149618389Y-87173111D01*
X151828500Y-95464585D02*
X151828500Y-95347466D01*
X151828500Y-95347466D02*
X152072786Y-95103180D01*
X150366681Y-87770917D02*
X150366681Y-86894719D01*
X152072786Y-95103180D02*
X152072787Y-89477023D01*
X152072787Y-89477023D02*
X150366681Y-87770917D01*
X150366681Y-86894719D02*
X151053800Y-86207600D01*
X150488605Y-96804480D02*
X151828500Y-95464585D01*
X146289000Y-82578000D02*
X149648701Y-82578000D01*
X149648701Y-82578000D02*
X150745874Y-83675173D01*
X150745874Y-83675173D02*
X150745874Y-84099437D01*
X152044399Y-109372399D02*
X152044399Y-107413551D01*
X152428399Y-102364999D02*
X150488605Y-100425205D01*
X150488605Y-100425205D02*
X150488605Y-96804480D01*
X152509501Y-105181400D02*
X152428399Y-105100298D01*
X152509501Y-106948449D02*
X152509501Y-105181400D01*
X153162000Y-110490000D02*
X152044399Y-109372399D01*
X152428399Y-105100298D02*
X152428399Y-102364999D01*
X152044399Y-107413551D02*
X152509501Y-106948449D01*
X148417385Y-81523990D02*
X148841649Y-81523990D01*
X147293000Y-80578000D02*
X148238990Y-81523990D01*
X148238990Y-81523990D02*
X148417385Y-81523990D01*
X146289000Y-80578000D02*
X147293000Y-80578000D01*
X133527800Y-82550000D02*
X133757000Y-82779200D01*
X133757000Y-82779200D02*
X133757000Y-83450000D01*
X132468700Y-82550000D02*
X133527800Y-82550000D01*
X132903000Y-82550000D02*
X133128000Y-82550000D01*
X133757000Y-83179000D02*
X133757000Y-83450000D01*
X133757000Y-83450000D02*
X133885000Y-83578000D01*
X133885000Y-83578000D02*
X134889000Y-83578000D01*
X148755100Y-76987400D02*
X150075900Y-76987400D01*
X150075900Y-76987400D02*
X150622000Y-77533500D01*
X150622000Y-77533500D02*
X150622000Y-81686400D01*
X150622000Y-81686400D02*
X150230400Y-82078000D01*
X150230400Y-82078000D02*
X146289000Y-82078000D01*
X147293000Y-82078000D02*
X146289000Y-82078000D01*
X144922255Y-87566467D02*
X144500567Y-87566467D01*
X144500567Y-87566467D02*
X144399000Y-87464900D01*
X135782306Y-95605600D02*
X134929601Y-96458305D01*
X136364413Y-94951000D02*
X135782306Y-95533107D01*
X135782306Y-95533107D02*
X135782306Y-95605600D01*
X134929601Y-99638508D02*
X135229600Y-99938507D01*
X134929601Y-96458305D02*
X134929601Y-99638508D01*
X146289000Y-87578000D02*
X146277467Y-87566467D01*
X146277467Y-87566467D02*
X144922255Y-87566467D01*
X136435000Y-90028000D02*
X136839000Y-90028000D01*
X134444982Y-90004618D02*
X136411618Y-90004618D01*
X134213600Y-90236000D02*
X134444982Y-90004618D01*
X136411618Y-90004618D02*
X136435000Y-90028000D01*
X132638800Y-90236000D02*
X134213600Y-90236000D01*
X134212200Y-92024200D02*
X134212200Y-90870200D01*
X134213600Y-90868800D02*
X134213600Y-90236000D01*
X134212200Y-90870200D02*
X134213600Y-90868800D01*
X136747800Y-90119200D02*
X136839000Y-90028000D01*
X137500400Y-94107000D02*
X137500400Y-92312400D01*
X137500400Y-92312400D02*
X137212200Y-92024200D01*
X137212200Y-92024200D02*
X137339000Y-91897400D01*
X137339000Y-91897400D02*
X137339000Y-90028000D01*
X137602000Y-92456000D02*
X137795000Y-92649000D01*
X151155400Y-87477600D02*
X151455399Y-87177601D01*
X151566459Y-86872699D02*
X153051089Y-86872699D01*
X151455399Y-87177601D02*
X151455399Y-86983759D01*
X151455399Y-86983759D02*
X151566459Y-86872699D01*
X153051089Y-86872699D02*
X153183550Y-87005160D01*
X153183550Y-87005160D02*
X153837600Y-87005160D01*
X146289000Y-86578000D02*
X147293000Y-86578000D01*
X147293000Y-86578000D02*
X147908990Y-87193990D01*
X147908990Y-87193990D02*
X147908990Y-87244144D01*
X153509800Y-85590200D02*
X153837600Y-85918000D01*
X153837600Y-85918000D02*
X153837600Y-87005160D01*
X152247600Y-85590200D02*
X153509800Y-85590200D01*
X137696461Y-96386597D02*
X138943988Y-95139070D01*
X137696461Y-98886803D02*
X137696461Y-96386597D01*
X132988303Y-100492527D02*
X136090737Y-100492527D01*
X131483100Y-101295200D02*
X132185630Y-101295200D01*
X138943988Y-95139070D02*
X138943988Y-92825290D01*
X136090737Y-100492527D02*
X137696461Y-98886803D01*
X138943988Y-92825290D02*
X138957411Y-92811867D01*
X132185630Y-101295200D02*
X132988303Y-100492527D01*
X143791989Y-84148538D02*
X143491990Y-84448537D01*
X144145011Y-83795516D02*
X143791989Y-84148538D01*
X146289000Y-81078000D02*
X145424661Y-81078000D01*
X144145011Y-82357650D02*
X144145011Y-83795516D01*
X145424661Y-81078000D02*
X144145011Y-82357650D01*
X138957411Y-92456589D02*
X138957411Y-92811867D01*
X139537646Y-91899618D02*
X139537646Y-91492251D01*
X138957411Y-92811867D02*
X138957411Y-92479853D01*
X138957411Y-92479853D02*
X139537646Y-91899618D01*
X145059367Y-82313788D02*
X144759368Y-82613787D01*
X145453423Y-81578000D02*
X145059367Y-81972056D01*
X145059367Y-81972056D02*
X145059367Y-82313788D01*
X146289000Y-81578000D02*
X145453423Y-81578000D01*
D41*
X139862600Y-92649000D02*
X139452000Y-93059600D01*
X139090400Y-95783160D02*
X139420483Y-95453077D01*
X138844200Y-96029360D02*
X139090400Y-95783160D01*
X140208000Y-92649000D02*
X139862600Y-92649000D01*
X139452000Y-93059600D02*
X139452000Y-95421560D01*
X139452000Y-95421560D02*
X139090400Y-95783160D01*
X138844200Y-96860360D02*
X138844200Y-96029360D01*
X138844200Y-96860360D02*
X138844200Y-98264840D01*
X138844200Y-98264840D02*
X138678960Y-98430080D01*
D40*
X140208000Y-92649000D02*
X140208000Y-91163000D01*
X140339000Y-91032000D02*
X140339000Y-90028000D01*
X140208000Y-91163000D02*
X140339000Y-91032000D01*
X136232260Y-82569990D02*
X138206170Y-84543900D01*
X138206170Y-84543900D02*
X138206170Y-87493502D01*
X134889000Y-82578000D02*
X135893000Y-82578000D01*
X135893000Y-82578000D02*
X135901010Y-82569990D01*
X135901010Y-82569990D02*
X136232260Y-82569990D01*
X138487501Y-91739183D02*
X138734433Y-91492251D01*
X138487501Y-94818200D02*
X138487501Y-91739183D01*
X135329194Y-96597542D02*
X136421735Y-95505001D01*
X136421735Y-95505001D02*
X136630334Y-95505001D01*
X135329194Y-97866200D02*
X135329194Y-96597542D01*
X136630334Y-95505001D02*
X137317135Y-94818200D01*
X137317135Y-94818200D02*
X138487501Y-94818200D01*
X135329194Y-97866200D02*
X135603158Y-98140164D01*
X135603158Y-98140164D02*
X135603158Y-98890543D01*
X135329194Y-97511444D02*
X135329194Y-97866200D01*
X139868341Y-85445591D02*
X139436550Y-85013800D01*
X139436550Y-85013800D02*
X136740900Y-82318150D01*
X142321446Y-87885335D02*
X142621445Y-88185334D01*
X139868341Y-85445591D02*
X139881702Y-85445591D01*
X139881702Y-85445591D02*
X142321446Y-87885335D01*
X127564800Y-108524000D02*
X128143000Y-108524000D01*
X125412500Y-106371700D02*
X127564800Y-108524000D01*
X125412500Y-102700338D02*
X125412500Y-106371700D01*
X126233438Y-101879400D02*
X125412500Y-102700338D01*
X128765300Y-101879400D02*
X126233438Y-101879400D01*
X138026206Y-99059967D02*
X136212635Y-100873538D01*
X140933539Y-91705905D02*
X140933539Y-97607636D01*
X139481208Y-99059967D02*
X138026206Y-99059967D01*
X136212635Y-100873538D02*
X133146122Y-100873538D01*
X133146122Y-100873538D02*
X132397500Y-101622160D01*
X140933539Y-97607636D02*
X139481208Y-99059967D01*
X128765300Y-101879400D02*
X132140260Y-101879400D01*
X128803400Y-101841300D02*
X128765300Y-101879400D01*
X128803400Y-99632600D02*
X128803400Y-101841300D01*
X132140260Y-101879400D02*
X132397500Y-101622160D01*
X132397500Y-101622160D02*
X132292671Y-101726989D01*
X129794000Y-108501000D02*
X131445000Y-108501000D01*
X128143000Y-108524000D02*
X129771000Y-108524000D01*
X129771000Y-108524000D02*
X129794000Y-108501000D01*
X136334500Y-82078000D02*
X136446700Y-82078000D01*
X136169400Y-82078000D02*
X136334500Y-82078000D01*
X136740900Y-82318150D02*
X136586331Y-82163581D01*
X136334500Y-82078000D02*
X136500750Y-82078000D01*
X136500750Y-82078000D02*
X136740900Y-82318150D01*
X134889000Y-82078000D02*
X136169400Y-82078000D01*
X129021840Y-97363280D02*
X129021840Y-98956960D01*
X129021840Y-98956960D02*
X129006600Y-98972200D01*
X141078256Y-91850622D02*
X140933539Y-91705905D01*
X131422000Y-108524000D02*
X131445000Y-108501000D01*
X128409700Y-74218800D02*
X128409700Y-73875900D01*
X128409700Y-73875900D02*
X129336800Y-72948800D01*
X129336800Y-73098800D02*
X129336800Y-72948800D01*
X141839000Y-77363000D02*
X141839000Y-78628000D01*
X141859000Y-77343000D02*
X141839000Y-77363000D01*
X140339000Y-78628000D02*
X140339000Y-75893274D01*
X140339000Y-75893274D02*
X140416991Y-75815283D01*
X130987800Y-72948800D02*
X130987800Y-72798800D01*
X133477000Y-74396600D02*
X133807200Y-74726800D01*
X130987800Y-72798800D02*
X131828400Y-71958200D01*
X131828400Y-71958200D02*
X133197600Y-71958200D01*
X133197600Y-71958200D02*
X133477000Y-72237600D01*
X133477000Y-72237600D02*
X133477000Y-74396600D01*
X132705704Y-74552103D02*
X133005703Y-74852102D01*
X132638800Y-74485199D02*
X132705704Y-74552103D01*
X132638800Y-72948800D02*
X132638800Y-74485199D01*
X139748219Y-76584319D02*
X139748219Y-76160055D01*
X139959741Y-77572983D02*
X139959741Y-76795841D01*
X139839000Y-77693724D02*
X139959741Y-77572983D01*
X139959741Y-76795841D02*
X139748219Y-76584319D01*
X139839000Y-78628000D02*
X139839000Y-77693724D01*
X137113000Y-110701000D02*
X138091080Y-109722920D01*
X131445000Y-110701000D02*
X137113000Y-110701000D01*
X129852420Y-68122800D02*
X129336800Y-68638420D01*
X129336800Y-68638420D02*
X129336800Y-70748800D01*
X129832100Y-67449700D02*
X129832100Y-68102480D01*
X129832100Y-68102480D02*
X129852420Y-68122800D01*
X131356100Y-68115180D02*
X130987800Y-68483480D01*
X130987800Y-68483480D02*
X130987800Y-70748800D01*
X131356100Y-68115180D02*
X131356100Y-67462400D01*
X132905500Y-68162700D02*
X132638800Y-68429400D01*
X132638800Y-68429400D02*
X132638800Y-70748800D01*
X132905500Y-68162700D02*
X132905500Y-67449700D01*
X134454900Y-68264300D02*
X134289800Y-68429400D01*
X134289800Y-68429400D02*
X134289800Y-70748800D01*
X134454900Y-68264300D02*
X134454900Y-67449700D01*
X141220011Y-77049313D02*
X141747813Y-76521511D01*
X141747813Y-76521511D02*
X141747813Y-76454000D01*
X141220011Y-77555811D02*
X141220011Y-77049313D01*
X141339000Y-78628000D02*
X141339000Y-77674800D01*
X141339000Y-77674800D02*
X141220011Y-77555811D01*
X137160000Y-72034400D02*
X137160000Y-72656700D01*
X137160000Y-72656700D02*
X137172700Y-72669400D01*
X136906000Y-71780400D02*
X137160000Y-72034400D01*
X135308200Y-71780400D02*
X136906000Y-71780400D01*
X134289800Y-72798800D02*
X135308200Y-71780400D01*
X134289800Y-72948800D02*
X134289800Y-72798800D01*
X145427600Y-64795400D02*
X146454040Y-64795400D01*
X146454040Y-64795400D02*
X147335240Y-65676600D01*
X138277600Y-64795400D02*
X139056600Y-64795400D01*
X139056600Y-64795400D02*
X145427600Y-64795400D01*
X126898404Y-82538562D02*
X127999737Y-81437229D01*
X127999737Y-81437229D02*
X129573271Y-81437229D01*
X129573271Y-81437229D02*
X129573273Y-81437227D01*
X129573273Y-81437227D02*
X129595723Y-81437227D01*
X133712908Y-81078000D02*
X133935800Y-81078000D01*
X129595723Y-81437227D02*
X130154552Y-80878398D01*
X130154552Y-80878398D02*
X133513306Y-80878398D01*
X133513306Y-80878398D02*
X133712908Y-81078000D01*
X133935800Y-81078000D02*
X134889000Y-81078000D01*
X120250216Y-79010533D02*
X120550215Y-78710534D01*
X121524773Y-96621599D02*
X120250216Y-95347042D01*
X122716848Y-96621599D02*
X121524773Y-96621599D01*
X123021650Y-96926401D02*
X122716848Y-96621599D01*
X123596401Y-96926401D02*
X123021650Y-96926401D01*
X124460000Y-97790000D02*
X123596401Y-96926401D01*
X120250216Y-95347042D02*
X120250216Y-79010533D01*
X132831086Y-86078000D02*
X134889000Y-86078000D01*
X126848368Y-96989900D02*
X126873000Y-90881200D01*
X126848368Y-97573332D02*
X126848368Y-96989900D01*
X125247400Y-99174300D02*
X126848368Y-97573332D01*
X123304300Y-99174300D02*
X125247400Y-99174300D01*
X121920000Y-97790000D02*
X123304300Y-99174300D01*
X130806699Y-86690003D02*
X130806699Y-87114267D01*
X131812911Y-85683791D02*
X130806699Y-86690003D01*
X132436877Y-85683791D02*
X131812911Y-85683791D01*
X132831086Y-86078000D02*
X132436877Y-85683791D01*
X126873000Y-90855800D02*
X126873000Y-90881200D01*
X127643233Y-90092431D02*
X127636369Y-90092431D01*
X127636369Y-90092431D02*
X126873000Y-90855800D01*
X127643233Y-90092431D02*
X127943232Y-89792432D01*
X129515487Y-86678587D02*
X129515487Y-87102851D01*
X129986213Y-80471987D02*
X129427382Y-81030818D01*
X125882400Y-83045500D02*
X129515487Y-86678587D01*
X125882400Y-82310380D02*
X125882400Y-83045500D01*
X126607968Y-81584812D02*
X125882400Y-82310380D01*
X134889000Y-80578000D02*
X133935800Y-80578000D01*
X126644388Y-81584812D02*
X126607968Y-81584812D01*
X133829787Y-80471987D02*
X129986213Y-80471987D01*
X129427382Y-81030818D02*
X127198381Y-81030819D01*
X127198381Y-81030819D02*
X126644388Y-81584812D01*
X133935800Y-80578000D02*
X133829787Y-80471987D01*
X127025400Y-88988900D02*
X127025400Y-89168542D01*
X127025400Y-89168542D02*
X126085580Y-90108362D01*
X126085580Y-90108362D02*
X126085579Y-93624421D01*
X126085579Y-93624421D02*
X124460000Y-95250000D01*
X126466590Y-94991440D02*
X125026929Y-96431101D01*
X123101101Y-96431101D02*
X121920000Y-95250000D01*
X127277624Y-87481919D02*
X127426595Y-87481919D01*
X127426595Y-87481919D02*
X127646741Y-87702065D01*
X127646741Y-87702065D02*
X127646741Y-89238431D01*
X127646741Y-89238431D02*
X126466590Y-90418582D01*
X126466590Y-90418582D02*
X126466590Y-94991440D01*
X125026929Y-96431101D02*
X123101101Y-96431101D01*
X132905836Y-85578000D02*
X133935800Y-85578000D01*
X133935800Y-85578000D02*
X134889000Y-85578000D01*
X129700299Y-85183701D02*
X132511537Y-85183701D01*
X129400300Y-85483700D02*
X129700299Y-85183701D01*
X132511537Y-85183701D02*
X132905836Y-85578000D01*
X133423261Y-88078000D02*
X133935800Y-88078000D01*
X130546719Y-87719068D02*
X133064328Y-87719067D01*
X133064328Y-87719067D02*
X133423261Y-88078000D01*
X130136900Y-87309249D02*
X130546719Y-87719068D01*
X130136900Y-86067900D02*
X130136900Y-87309249D01*
X133935800Y-88078000D02*
X134889000Y-88078000D01*
X125628401Y-89881089D02*
X126403100Y-89106390D01*
X126403100Y-89106390D02*
X126403100Y-88569800D01*
X126403100Y-88569800D02*
X126733300Y-88239600D01*
X124460000Y-92710000D02*
X125628401Y-91541599D01*
X125628401Y-91541599D02*
X125628401Y-89881089D01*
X131562033Y-86841102D02*
X131910468Y-87189537D01*
X131910468Y-87189537D02*
X133291737Y-87189537D01*
X133680200Y-87578000D02*
X134889000Y-87578000D01*
X133291737Y-87189537D02*
X133680200Y-87578000D01*
X126403100Y-87414100D02*
X125449783Y-86460783D01*
X125449783Y-86460783D02*
X123470217Y-86460783D01*
X123470217Y-86460783D02*
X123266199Y-86664801D01*
X123266199Y-86664801D02*
X123266199Y-91363801D01*
X123266199Y-91363801D02*
X121920000Y-92710000D01*
X139339000Y-77409380D02*
X139399536Y-77348844D01*
X139339000Y-78628000D02*
X139339000Y-77409380D01*
X133223000Y-81483200D02*
X132557792Y-81483200D01*
X132557792Y-81483200D02*
X132359400Y-81284808D01*
X132359400Y-81284808D02*
X130322892Y-81284808D01*
X129741611Y-81843639D02*
X128392161Y-81843639D01*
X128392161Y-81843639D02*
X128016000Y-82219800D01*
X127989483Y-83592751D02*
X127989483Y-84017015D01*
X130322892Y-81284808D02*
X129764064Y-81843636D01*
X129764064Y-81843636D02*
X129741611Y-81843639D01*
X128016000Y-82219800D02*
X128016000Y-83566234D01*
X128016000Y-83566234D02*
X127989483Y-83592751D01*
X121399300Y-100076000D02*
X121793000Y-100076000D01*
X119811800Y-100825300D02*
X120561100Y-100076000D01*
X120561100Y-100076000D02*
X121399300Y-100076000D01*
X119811800Y-103441500D02*
X119811800Y-100825300D01*
X120386020Y-104015720D02*
X119811800Y-103441500D01*
X121279920Y-104015720D02*
X120386020Y-104015720D01*
X133248400Y-78120600D02*
X133812354Y-78120600D01*
X133812354Y-78120600D02*
X133982677Y-77950277D01*
X125663332Y-88966668D02*
X125909427Y-88720573D01*
X125909427Y-88509838D02*
X125909427Y-88085574D01*
X125909427Y-88720573D02*
X125909427Y-88509838D01*
X124460000Y-90170000D02*
X124460000Y-90932000D01*
X123190000Y-92202000D02*
X123190000Y-94361000D01*
X124460000Y-90932000D02*
X123190000Y-92202000D01*
X125663332Y-88966668D02*
X125810274Y-88819726D01*
X124460000Y-90170000D02*
X125663332Y-88966668D01*
X120738899Y-94196282D02*
X120891377Y-94349955D01*
X120900935Y-94358318D02*
X120899740Y-94358318D01*
X120899740Y-94358318D02*
X120891377Y-94349955D01*
X123383040Y-104015720D02*
X123383040Y-103068120D01*
X123383040Y-103068120D02*
X123266200Y-102951280D01*
X123266200Y-102951280D02*
X120528080Y-102951280D01*
X120528080Y-102951280D02*
X120357900Y-102781100D01*
X120357900Y-102781100D02*
X120357900Y-100952300D01*
X120357900Y-100952300D02*
X120546177Y-100764023D01*
X120546177Y-100764023D02*
X121993977Y-100764023D01*
X121993977Y-100764023D02*
X122473999Y-100284001D01*
X122473999Y-99613999D02*
X122174000Y-99314000D01*
X122473999Y-100284001D02*
X122473999Y-99613999D01*
X130559050Y-79070200D02*
X131343400Y-79070200D01*
X131343400Y-79070200D02*
X133742674Y-79070200D01*
X131348400Y-78120600D02*
X131348400Y-78853800D01*
X131348400Y-78853800D02*
X131343400Y-78858800D01*
X131343400Y-78858800D02*
X131343400Y-79070200D01*
X121920000Y-90170000D02*
X120726199Y-88976199D01*
X120726199Y-88976199D02*
X120726199Y-79425801D01*
X120726199Y-79425801D02*
X121488199Y-78663801D01*
X121488199Y-78663801D02*
X126568200Y-78663801D01*
X126568200Y-78663801D02*
X127508001Y-77724000D01*
X127508001Y-77724000D02*
X129212850Y-77724000D01*
X129212850Y-77724000D02*
X130559050Y-79070200D01*
X133882374Y-78930500D02*
X134781817Y-78031057D01*
X133742674Y-79070200D02*
X133882374Y-78930500D01*
X138839000Y-77624000D02*
X138839000Y-76846925D01*
X138839000Y-76846925D02*
X138849381Y-76836544D01*
X138839000Y-77624000D02*
X138815798Y-77600798D01*
X138839000Y-78628000D02*
X138839000Y-77624000D01*
X120738899Y-91351101D02*
X120738899Y-94196282D01*
X121920000Y-90170000D02*
X120738899Y-91351101D01*
X143839000Y-90028000D02*
X143839000Y-91454040D01*
X143839000Y-91454040D02*
X143891000Y-91506040D01*
X142355757Y-91840420D02*
X142355757Y-92093998D01*
X142355757Y-92093998D02*
X142355757Y-92518262D01*
X142839000Y-91357177D02*
X142355757Y-91840420D01*
X142839000Y-90028000D02*
X142839000Y-91357177D01*
X145011820Y-91543914D02*
X144339000Y-90871094D01*
X144339000Y-90871094D02*
X144339000Y-90704360D01*
X144339000Y-90028000D02*
X144339000Y-90704360D01*
X143254068Y-91762033D02*
X142954069Y-92062032D01*
X143339000Y-91032000D02*
X143254068Y-91116932D01*
X143254068Y-91116932D02*
X143254068Y-91762033D01*
X143339000Y-91040472D02*
X143339000Y-91032000D01*
X143339000Y-91032000D02*
X143339000Y-90028000D01*
X143338877Y-90028123D02*
X143339000Y-90028000D01*
X145267859Y-86867359D02*
X145478500Y-87078000D01*
X140713222Y-84183005D02*
X143397576Y-86867359D01*
X143397576Y-86867359D02*
X145267859Y-86867359D01*
X140503339Y-84183005D02*
X140713222Y-84183005D01*
X135550678Y-79767902D02*
X136088236Y-79767902D01*
X129679700Y-79590900D02*
X135373676Y-79590900D01*
X135373676Y-79590900D02*
X135550678Y-79767902D01*
X129052599Y-80218001D02*
X129679700Y-79590900D01*
X136088236Y-79767902D02*
X140503339Y-84183005D01*
X126220129Y-80218001D02*
X129052599Y-80218001D01*
X125920130Y-80518000D02*
X126220129Y-80218001D01*
X146289000Y-87078000D02*
X145478500Y-87078000D01*
X146289000Y-87078000D02*
X146269201Y-87097799D01*
X135869097Y-80123513D02*
X140284200Y-84538616D01*
X140284200Y-84538616D02*
X140388124Y-84538616D01*
X140388124Y-84538616D02*
X143927508Y-88078000D01*
X126199899Y-81203801D02*
X126779289Y-80624411D01*
X135289867Y-80010000D02*
X135403380Y-80123513D01*
X129873450Y-80010000D02*
X135289867Y-80010000D01*
X125653801Y-81203801D02*
X126199899Y-81203801D01*
X126779289Y-80624411D02*
X129259040Y-80624410D01*
X129259040Y-80624410D02*
X129873450Y-80010000D01*
X135403380Y-80123513D02*
X135869097Y-80123513D01*
X124460000Y-80010000D02*
X125653801Y-81203801D01*
X143927508Y-88078000D02*
X145335800Y-88078000D01*
X145335800Y-88078000D02*
X146289000Y-88078000D01*
X128462208Y-88457208D02*
X132630809Y-88457208D01*
X123088401Y-83718401D02*
X124875998Y-83718401D01*
X137839000Y-89074800D02*
X137839000Y-90028000D01*
X133121400Y-88947799D02*
X137711999Y-88947799D01*
X132630809Y-88457208D02*
X133121400Y-88947799D01*
X128089097Y-88084097D02*
X128462208Y-88457208D01*
X128089097Y-86931500D02*
X128089097Y-88084097D01*
X137711999Y-88947799D02*
X137839000Y-89074800D01*
X121920000Y-82550000D02*
X123088401Y-83718401D01*
X124875998Y-83718401D02*
X128089097Y-86931500D01*
X138339000Y-89074800D02*
X138339000Y-90028000D01*
X133261100Y-88490590D02*
X137942544Y-88490590D01*
X132872107Y-88101597D02*
X133261100Y-88490590D01*
X129123933Y-88101597D02*
X132872107Y-88101597D01*
X138339000Y-88887046D02*
X138339000Y-89074800D01*
X128630176Y-87607840D02*
X129123933Y-88101597D01*
X124460000Y-82550000D02*
X128630176Y-86720176D01*
X137942544Y-88490590D02*
X138339000Y-88887046D01*
X128630176Y-86720176D02*
X128630176Y-87607840D01*
X142931399Y-83136408D02*
X142631400Y-83436407D01*
X144932409Y-80208099D02*
X144919709Y-80220799D01*
X142931399Y-82493603D02*
X142931399Y-83136408D01*
X145093181Y-79792989D02*
X144932409Y-79953761D01*
X149407590Y-80772000D02*
X148428579Y-79792989D01*
X148428579Y-79792989D02*
X145093181Y-79792989D01*
X144919709Y-80505293D02*
X142931399Y-82493603D01*
X144919709Y-80220799D02*
X144919709Y-80505293D01*
X144932409Y-79953761D02*
X144932409Y-80208099D01*
X139339000Y-87356000D02*
X139979400Y-86715600D01*
X139339000Y-90028000D02*
X139339000Y-87356000D01*
X147934401Y-80243401D02*
X148234400Y-80543400D01*
X145275320Y-80368097D02*
X145288020Y-80355397D01*
X145275320Y-80688511D02*
X145275320Y-80368097D01*
X143586200Y-82377631D02*
X145275320Y-80688511D01*
X143586200Y-83374950D02*
X143586200Y-82377631D01*
X145335799Y-80173999D02*
X147864999Y-80173999D01*
X145288020Y-80221778D02*
X145335799Y-80173999D01*
X147864999Y-80173999D02*
X147934401Y-80243401D01*
X145288020Y-80355397D02*
X145288020Y-80221778D01*
X140839000Y-87503000D02*
X140839000Y-90028000D01*
X149961600Y-80906536D02*
X149961600Y-81330800D01*
X149961600Y-80264000D02*
X149961600Y-80906536D01*
X149109579Y-79411979D02*
X149961600Y-80264000D01*
X144935361Y-79411979D02*
X149109579Y-79411979D01*
X144404750Y-80253158D02*
X144404750Y-79942590D01*
X142316200Y-82341708D02*
X144404750Y-80253158D01*
X142316200Y-82753200D02*
X142316200Y-82341708D01*
X144404750Y-79942590D02*
X144935361Y-79411979D01*
X138839000Y-86713000D02*
X139573000Y-85979000D01*
X139700000Y-85852000D02*
X139573000Y-85979000D01*
X138839000Y-90028000D02*
X138839000Y-86713000D01*
D39*
X136132201Y-78587600D02*
X136132201Y-78846299D01*
X136132201Y-78846299D02*
X135864600Y-79113900D01*
X132524500Y-83452002D02*
X132524500Y-84175600D01*
X132524500Y-84175600D02*
X132461000Y-84239100D01*
X145288000Y-95300800D02*
X146456400Y-95300800D01*
X148097011Y-95664320D02*
X146819920Y-95664320D01*
X146819920Y-95664320D02*
X146456400Y-95300800D01*
X148097011Y-95664320D02*
X149648880Y-95664320D01*
X149648880Y-95664320D02*
X150998201Y-94314999D01*
X150998201Y-94314999D02*
X150998201Y-90017599D01*
X150998201Y-90017599D02*
X148717000Y-87736398D01*
X148717000Y-87736398D02*
X148717000Y-86106000D01*
X136214599Y-78669998D02*
X136214599Y-78763901D01*
X136132201Y-78587600D02*
X136214599Y-78669998D01*
X147955000Y-76034912D02*
X150271196Y-76034912D01*
X150746245Y-85272599D02*
X150665959Y-85272599D01*
X151553884Y-77317600D02*
X151553884Y-84464960D01*
X151553884Y-84464960D02*
X150746245Y-85272599D01*
X150271196Y-76034912D02*
X151553884Y-77317600D01*
X150665959Y-85272599D02*
X150421556Y-85517002D01*
X150421556Y-85517002D02*
X150315998Y-85517002D01*
X150315998Y-85517002D02*
X149727000Y-86106000D01*
X149727000Y-86106000D02*
X148717000Y-86106000D01*
X136132201Y-78202337D02*
X136132201Y-78587600D01*
D40*
X136839000Y-78628000D02*
X136435000Y-78628000D01*
X136435000Y-78628000D02*
X136394600Y-78587600D01*
X136394600Y-78587600D02*
X136132201Y-78587600D01*
D39*
X136132201Y-77695199D02*
X136132201Y-78202337D01*
X136132201Y-77767799D02*
X136132201Y-77695199D01*
X136132201Y-77695199D02*
X136941600Y-76885800D01*
X143764000Y-76809600D02*
X144538688Y-76034912D01*
X144538688Y-76034912D02*
X145602730Y-76034912D01*
X144835800Y-76936600D02*
X144835800Y-76801842D01*
X144835800Y-76801842D02*
X145602730Y-76034912D01*
D41*
X145602730Y-76034912D02*
X147955000Y-76034912D01*
D39*
X134416800Y-95072200D02*
X134917233Y-95572633D01*
X134086600Y-95072200D02*
X134416800Y-95072200D01*
D41*
X144828042Y-76809600D02*
X145602730Y-76034912D01*
X134101840Y-96946720D02*
X134101840Y-95087440D01*
X134101840Y-95087440D02*
X134086600Y-95072200D01*
X136644200Y-96860360D02*
X136644200Y-96471920D01*
X136644200Y-96471920D02*
X137419080Y-95697040D01*
X136132201Y-77767799D02*
X136132201Y-78202337D01*
X148181000Y-86078000D02*
X148689000Y-86078000D01*
X148689000Y-86078000D02*
X148717000Y-86106000D01*
D40*
X134885000Y-84074000D02*
X134889000Y-84078000D01*
X146289000Y-86078000D02*
X148181000Y-86078000D01*
X143839000Y-78628000D02*
X143839000Y-77617000D01*
D41*
X144846000Y-76835000D02*
X145071000Y-76835000D01*
X132903000Y-84074000D02*
X132842000Y-84074000D01*
D40*
X132903000Y-84074000D02*
X134885000Y-84074000D01*
X143839000Y-77617000D02*
X144621000Y-76835000D01*
X144621000Y-76835000D02*
X144846000Y-76835000D01*
X136839000Y-76836000D02*
X137033000Y-76642000D01*
D41*
X144846000Y-76835000D02*
X145023322Y-76835000D01*
D40*
X134889000Y-81578000D02*
X136144000Y-81578000D01*
X143027400Y-87807800D02*
X136797600Y-81578000D01*
X136797600Y-81578000D02*
X136144000Y-81578000D01*
X143124913Y-87807800D02*
X143645602Y-88328489D01*
X143124913Y-87807800D02*
X143027400Y-87807800D01*
X150190200Y-90298284D02*
X150190200Y-92062300D01*
X150190200Y-92062300D02*
X150164800Y-92087700D01*
X154058031Y-93244631D02*
X154482295Y-93244631D01*
X154482295Y-93244631D02*
X154536401Y-93298737D01*
X154536401Y-93298737D02*
X154536401Y-94561999D01*
X154536401Y-94561999D02*
X153932400Y-95166000D01*
X153932400Y-95166000D02*
X153482400Y-95166000D01*
X143645602Y-88328489D02*
X143645602Y-88337102D01*
X147567348Y-88494284D02*
X147710853Y-88350779D01*
X148242695Y-88350779D02*
X148513800Y-88621884D01*
X143645602Y-88337102D02*
X143802784Y-88494284D01*
X143802784Y-88494284D02*
X147567348Y-88494284D01*
X147710853Y-88350779D02*
X148242695Y-88350779D01*
X150190200Y-90298284D02*
X149809200Y-89917284D01*
X149809200Y-89917284D02*
X148513800Y-88621884D01*
X153482400Y-95166000D02*
X153032400Y-95166000D01*
X148513800Y-88621884D02*
X148787254Y-88895338D01*
X141491477Y-91446354D02*
X141491477Y-92028586D01*
X141339000Y-90028000D02*
X141339000Y-91293876D01*
X141491477Y-92028586D02*
X141383699Y-92136364D01*
X141339000Y-91293876D02*
X141491477Y-91446354D01*
X141383699Y-92136364D02*
X141383699Y-95731936D01*
X141584718Y-95932955D02*
X141884717Y-96232954D01*
X141383699Y-95731936D02*
X141584718Y-95932955D01*
X153932400Y-102866000D02*
X157409042Y-99389358D01*
X157409042Y-99389358D02*
X157409042Y-95515692D01*
X153482400Y-102866000D02*
X153932400Y-102866000D01*
X157409042Y-95515692D02*
X157409042Y-95091428D01*
D39*
X125031489Y-101859080D02*
X125031489Y-100271600D01*
X125031489Y-100271600D02*
X125963689Y-99339400D01*
X125031489Y-102273111D02*
X124468040Y-102836560D01*
X124468040Y-102836560D02*
X124468040Y-106692700D01*
X125031489Y-101859080D02*
X125031489Y-102273111D01*
X141203720Y-103776820D02*
X141897100Y-104470200D01*
X144056099Y-99936301D02*
X142692398Y-101300002D01*
X142692398Y-101300002D02*
X142692398Y-102189002D01*
X144144999Y-95109341D02*
X144056099Y-95198241D01*
X144056099Y-95198241D02*
X144056099Y-99936301D01*
X154940000Y-98937790D02*
X156283521Y-97594269D01*
X156283521Y-97594269D02*
X156283521Y-93472000D01*
X156283521Y-93472000D02*
X156283521Y-94115463D01*
X156283521Y-89001600D02*
X156283521Y-93472000D01*
D40*
X142339000Y-90028000D02*
X142339000Y-89074800D01*
X142450300Y-88963500D02*
X144746002Y-88963500D01*
X142339000Y-89074800D02*
X142450300Y-88963500D01*
X144746002Y-88963500D02*
X145785840Y-90003338D01*
X145785840Y-90003338D02*
X145785840Y-90200480D01*
D39*
X138572200Y-105232200D02*
X139467901Y-104336499D01*
X139467901Y-104336499D02*
X140644041Y-104336499D01*
X140644041Y-104336499D02*
X141203720Y-103776820D01*
X140896002Y-108686600D02*
X138279802Y-111302800D01*
X129844800Y-111809001D02*
X129857500Y-111821701D01*
X129857500Y-111821701D02*
X137760901Y-111821701D01*
X137760901Y-111821701D02*
X138279802Y-111302800D01*
X127540561Y-111809001D02*
X126390400Y-110658840D01*
X126390400Y-108615060D02*
X124468040Y-106692700D01*
X126390400Y-110658840D02*
X126390400Y-108615060D01*
X129844800Y-111809001D02*
X127540561Y-111809001D01*
D41*
X127384865Y-94331457D02*
X127609609Y-94556201D01*
X127384865Y-92016735D02*
X127384865Y-94331457D01*
X128193800Y-91207800D02*
X127384865Y-92016735D01*
X128193800Y-90982800D02*
X128193800Y-91207800D01*
D39*
X132351008Y-75920600D02*
X133248400Y-75920600D01*
X132194101Y-75763693D02*
X132351008Y-75920600D01*
X132194101Y-74974039D02*
X132194101Y-75763693D01*
X132086562Y-74866500D02*
X132194101Y-74974039D01*
X129679700Y-74866500D02*
X132086562Y-74866500D01*
X129506699Y-75039501D02*
X129679700Y-74866500D01*
X125790815Y-75039501D02*
X129506699Y-75039501D01*
X125681314Y-74930000D02*
X125790815Y-75039501D01*
X124460000Y-74930000D02*
X125681314Y-74930000D01*
X139420600Y-74422000D02*
X140017511Y-75018911D01*
X147480803Y-75323702D02*
X147607803Y-75196702D01*
X140017511Y-75018911D02*
X145896593Y-75018911D01*
X145896593Y-75018911D02*
X146201384Y-75323702D01*
X146201384Y-75323702D02*
X147480803Y-75323702D01*
X147607803Y-75196702D02*
X150990302Y-75196702D01*
X150990302Y-75196702D02*
X158302000Y-82508400D01*
X158302000Y-82508400D02*
X158302000Y-86156800D01*
X138572200Y-105232200D02*
X137048200Y-105232200D01*
X137048200Y-105232200D02*
X136906000Y-105090000D01*
X141203720Y-108378882D02*
X140896002Y-108686600D01*
X141897100Y-104470200D02*
X141897100Y-107685502D01*
X141897100Y-107685502D02*
X140896002Y-108686600D01*
X141203720Y-103306880D02*
X141203720Y-103776820D01*
X129415500Y-90985300D02*
X128863839Y-90433639D01*
X128863839Y-90433639D02*
X128742961Y-90433639D01*
X129755900Y-90985300D02*
X129415500Y-90985300D01*
X136502443Y-74821990D02*
X136902442Y-74421991D01*
X133250904Y-75918096D02*
X135406337Y-75918096D01*
X133248400Y-75920600D02*
X133250904Y-75918096D01*
X135406337Y-75918096D02*
X136502443Y-74821990D01*
X152130800Y-97485200D02*
X153363200Y-97485200D01*
X153363200Y-97485200D02*
X153482400Y-97366000D01*
X152091898Y-97524102D02*
X152091898Y-98281640D01*
X151282400Y-97485200D02*
X152130800Y-97485200D01*
X152146000Y-98227538D02*
X152091898Y-98281640D01*
X156205209Y-89079912D02*
X156283521Y-89001600D01*
X156283521Y-88436024D02*
X156283521Y-89001600D01*
X152247600Y-87790200D02*
X152370611Y-87913211D01*
X152370611Y-87913211D02*
X155760708Y-87913211D01*
X155760708Y-87913211D02*
X156283521Y-88436024D01*
X158302000Y-86156800D02*
X158302000Y-86863000D01*
X157283576Y-88436024D02*
X158302000Y-87417600D01*
X158302000Y-87417600D02*
X158302000Y-86156800D01*
X156283521Y-88436024D02*
X157283576Y-88436024D01*
X158261400Y-86903600D02*
X157251400Y-86903600D01*
X158302000Y-86863000D02*
X158261400Y-86903600D01*
X121920000Y-77470000D02*
X124460000Y-74930000D01*
X129794000Y-110701000D02*
X129794000Y-111758201D01*
X129794000Y-111758201D02*
X129844800Y-111809001D01*
X128742961Y-90433639D02*
X128193800Y-90982800D01*
X128742961Y-89955811D02*
X128742961Y-90433639D01*
X127609609Y-97693480D02*
X127609609Y-94556201D01*
X125963689Y-99339400D02*
X127609609Y-97693480D01*
D41*
X125369320Y-99933769D02*
X125963689Y-99339400D01*
D39*
X123383040Y-101815720D02*
X124468040Y-101815720D01*
X124468040Y-101815720D02*
X124988129Y-101815720D01*
X129794000Y-110701000D02*
X129794000Y-110851000D01*
X142692398Y-102189002D02*
X144170400Y-102189002D01*
X144170400Y-102189002D02*
X145419802Y-102189002D01*
X144144999Y-95109341D02*
X144017999Y-95236341D01*
X134366000Y-105918000D02*
X136078000Y-105918000D01*
X136078000Y-105918000D02*
X136906000Y-105090000D01*
X141203720Y-102489000D02*
X141203720Y-101762560D01*
X141203720Y-103306880D02*
X141203720Y-102489000D01*
X141203720Y-102489000D02*
X142372080Y-102489000D01*
X142372080Y-102489000D02*
X142382240Y-102499160D01*
X142382240Y-102499160D02*
X142692398Y-102189002D01*
X145419802Y-102189002D02*
X145719801Y-102489001D01*
X146354800Y-103911400D02*
X146354800Y-103124000D01*
X146354800Y-103124000D02*
X145719801Y-102489001D01*
D41*
X142382240Y-102499160D02*
X141229120Y-102499160D01*
X141203720Y-101762560D02*
X141203720Y-102473760D01*
X141203720Y-102473760D02*
X141203720Y-103306880D01*
X141229120Y-102499160D02*
X141203720Y-102473760D01*
X125031489Y-101859080D02*
X124988129Y-101815720D01*
X125074680Y-100228409D02*
X125369320Y-99933769D01*
X125031489Y-100271600D02*
X125369320Y-99933769D01*
X121279920Y-101815720D02*
X123383040Y-101815720D01*
X157251400Y-86944200D02*
X158007401Y-86944200D01*
D40*
X144338000Y-93301820D02*
X144992050Y-93301820D01*
X145171430Y-93122440D02*
X145171430Y-93105818D01*
X144992050Y-93301820D02*
X145171430Y-93122440D01*
D41*
X144576318Y-94526580D02*
X144576318Y-94678022D01*
X144576318Y-94678022D02*
X144144999Y-95109341D01*
X144338000Y-93301820D02*
X144576318Y-93540138D01*
X144576318Y-93540138D02*
X144576318Y-94526580D01*
X152247600Y-87790200D02*
X155506600Y-87790200D01*
X157251400Y-86903600D02*
X158007401Y-86903601D01*
X158007401Y-86903601D02*
X158007401Y-86944200D01*
X155737600Y-87005160D02*
X157149840Y-87005160D01*
X157149840Y-87005160D02*
X157251400Y-86903600D01*
X145719801Y-102489001D02*
X146659600Y-103428800D01*
X146659600Y-103428800D02*
X146659600Y-103936800D01*
X153348000Y-97500400D02*
X153482400Y-97366000D01*
D40*
X129855000Y-110236000D02*
X129630000Y-110236000D01*
X142030145Y-94045410D02*
X142030145Y-94469674D01*
X141801756Y-93817021D02*
X142030145Y-94045410D01*
X141801756Y-92252341D02*
X141801756Y-93817021D01*
X141872488Y-91014688D02*
X141872488Y-92181609D01*
X141839000Y-90981200D02*
X141872488Y-91014688D01*
X141872488Y-92181609D02*
X141801756Y-92252341D01*
X141839000Y-90028000D02*
X141839000Y-90981200D01*
X146238000Y-93301820D02*
X147040600Y-93301820D01*
D42*
X146238000Y-93301820D02*
X148496020Y-93301820D01*
D40*
X148496020Y-93301820D02*
X148742400Y-93548200D01*
X148234400Y-94056200D02*
X148742400Y-93548200D01*
X146238000Y-93301820D02*
X146067780Y-93301820D01*
X146067780Y-93301820D02*
X145313400Y-94056200D01*
X140839000Y-76610400D02*
X140995400Y-76454000D01*
X140839000Y-77624000D02*
X140839000Y-76610400D01*
X135432800Y-74371200D02*
X136017000Y-73787000D01*
X136017000Y-73787000D02*
X136017000Y-72974200D01*
X136017000Y-72974200D02*
X135991600Y-72948800D01*
X140839000Y-77624000D02*
X140833829Y-77618829D01*
X140839000Y-78628000D02*
X140839000Y-77624000D01*
X134889000Y-87078000D02*
X133832600Y-87078000D01*
X132150512Y-86288601D02*
X132450511Y-86588600D01*
X132450511Y-86588600D02*
X133343200Y-86588600D01*
X133343200Y-86588600D02*
X133832600Y-87078000D01*
X136004300Y-68365900D02*
X135991600Y-68378600D01*
X135991600Y-68378600D02*
X135991600Y-70748800D01*
X136004300Y-68365900D02*
X136004300Y-67449700D01*
D43*
G36*
X131904906Y-89487341D02*
X131875336Y-89636000D01*
X131875336Y-90836000D01*
X131904906Y-90984659D01*
X131989114Y-91110686D01*
X132106171Y-91188901D01*
X132047981Y-91213004D01*
X131940804Y-91320180D01*
X131882800Y-91460214D01*
X131882800Y-91977250D01*
X131978050Y-92072500D01*
X132575300Y-92072500D01*
X132575300Y-92052500D01*
X132702300Y-92052500D01*
X132702300Y-92072500D01*
X132722300Y-92072500D01*
X132722300Y-92199500D01*
X132702300Y-92199500D01*
X132702300Y-93021750D01*
X132797550Y-93117000D01*
X133089585Y-93117000D01*
X133113812Y-93106965D01*
X133114606Y-93110959D01*
X133198814Y-93236986D01*
X133324841Y-93321194D01*
X133473500Y-93350764D01*
X134973500Y-93350764D01*
X135122159Y-93321194D01*
X135248186Y-93236986D01*
X135332394Y-93110959D01*
X135361964Y-92962300D01*
X135361964Y-91162300D01*
X135332394Y-91013641D01*
X135248186Y-90887614D01*
X135122159Y-90803406D01*
X134973500Y-90773836D01*
X134696200Y-90773836D01*
X134696200Y-90487218D01*
X136300536Y-90487218D01*
X136300536Y-90778000D01*
X136307848Y-90814760D01*
X136198814Y-90887614D01*
X136114606Y-91013641D01*
X136085036Y-91162300D01*
X136085036Y-92962300D01*
X136114606Y-93110959D01*
X136198814Y-93236986D01*
X136324841Y-93321194D01*
X136473500Y-93350764D01*
X136864062Y-93350764D01*
X136751741Y-93373106D01*
X136625714Y-93457314D01*
X136547499Y-93574371D01*
X136523396Y-93516181D01*
X136416220Y-93409004D01*
X136276186Y-93351000D01*
X135759150Y-93351000D01*
X135663900Y-93446250D01*
X135663900Y-94043500D01*
X135683900Y-94043500D01*
X135683900Y-94170500D01*
X135663900Y-94170500D01*
X135663900Y-94767750D01*
X135691619Y-94795469D01*
X135683531Y-94814946D01*
X135683414Y-94949500D01*
X135470234Y-95162679D01*
X135461200Y-95153629D01*
X135411147Y-95078719D01*
X135195428Y-94863000D01*
X135441650Y-94863000D01*
X135536900Y-94767750D01*
X135536900Y-94170500D01*
X135516900Y-94170500D01*
X135516900Y-94043500D01*
X135536900Y-94043500D01*
X135536900Y-93446250D01*
X135441650Y-93351000D01*
X134924614Y-93351000D01*
X134784580Y-93409004D01*
X134677404Y-93516181D01*
X134662698Y-93551685D01*
X134605259Y-93513306D01*
X134456600Y-93483736D01*
X133716600Y-93483736D01*
X133567941Y-93513306D01*
X133447199Y-93593983D01*
X133402420Y-93549204D01*
X133262386Y-93491200D01*
X132975350Y-93491200D01*
X132880100Y-93586450D01*
X132880100Y-95008700D01*
X132900100Y-95008700D01*
X132900100Y-95135700D01*
X132880100Y-95135700D01*
X132880100Y-95155700D01*
X132753100Y-95155700D01*
X132753100Y-95135700D01*
X131610100Y-95135700D01*
X131610100Y-95155700D01*
X131483100Y-95155700D01*
X131483100Y-95135700D01*
X131463100Y-95135700D01*
X131463100Y-95008700D01*
X131483100Y-95008700D01*
X131483100Y-93586450D01*
X131610100Y-93586450D01*
X131610100Y-95008700D01*
X132753100Y-95008700D01*
X132753100Y-93586450D01*
X132657850Y-93491200D01*
X132370814Y-93491200D01*
X132230780Y-93549204D01*
X132181600Y-93598384D01*
X132132420Y-93549204D01*
X131992386Y-93491200D01*
X131705350Y-93491200D01*
X131610100Y-93586450D01*
X131483100Y-93586450D01*
X131445000Y-93548350D01*
X131445000Y-93440576D01*
X131516651Y-93368924D01*
X131516654Y-93368922D01*
X131621268Y-93212355D01*
X131658005Y-93027672D01*
X131658004Y-93027667D01*
X131658004Y-92294750D01*
X131882800Y-92294750D01*
X131882800Y-92811786D01*
X131940804Y-92951820D01*
X132047981Y-93058996D01*
X132188015Y-93117000D01*
X132480050Y-93117000D01*
X132575300Y-93021750D01*
X132575300Y-92199500D01*
X131978050Y-92199500D01*
X131882800Y-92294750D01*
X131658004Y-92294750D01*
X131658004Y-90678257D01*
X131657502Y-90675734D01*
X131657978Y-90673203D01*
X131639144Y-90583440D01*
X131621268Y-90493574D01*
X131619839Y-90491435D01*
X131619310Y-90488915D01*
X131567588Y-90413235D01*
X131516654Y-90337007D01*
X131514513Y-90335576D01*
X131513061Y-90333452D01*
X131466990Y-90288336D01*
X131445000Y-90266346D01*
X131445000Y-89458800D01*
X131923976Y-89458800D01*
X131904906Y-89487341D01*
X131904906Y-89487341D01*
G37*
X131904906Y-89487341D02*
X131875336Y-89636000D01*
X131875336Y-90836000D01*
X131904906Y-90984659D01*
X131989114Y-91110686D01*
X132106171Y-91188901D01*
X132047981Y-91213004D01*
X131940804Y-91320180D01*
X131882800Y-91460214D01*
X131882800Y-91977250D01*
X131978050Y-92072500D01*
X132575300Y-92072500D01*
X132575300Y-92052500D01*
X132702300Y-92052500D01*
X132702300Y-92072500D01*
X132722300Y-92072500D01*
X132722300Y-92199500D01*
X132702300Y-92199500D01*
X132702300Y-93021750D01*
X132797550Y-93117000D01*
X133089585Y-93117000D01*
X133113812Y-93106965D01*
X133114606Y-93110959D01*
X133198814Y-93236986D01*
X133324841Y-93321194D01*
X133473500Y-93350764D01*
X134973500Y-93350764D01*
X135122159Y-93321194D01*
X135248186Y-93236986D01*
X135332394Y-93110959D01*
X135361964Y-92962300D01*
X135361964Y-91162300D01*
X135332394Y-91013641D01*
X135248186Y-90887614D01*
X135122159Y-90803406D01*
X134973500Y-90773836D01*
X134696200Y-90773836D01*
X134696200Y-90487218D01*
X136300536Y-90487218D01*
X136300536Y-90778000D01*
X136307848Y-90814760D01*
X136198814Y-90887614D01*
X136114606Y-91013641D01*
X136085036Y-91162300D01*
X136085036Y-92962300D01*
X136114606Y-93110959D01*
X136198814Y-93236986D01*
X136324841Y-93321194D01*
X136473500Y-93350764D01*
X136864062Y-93350764D01*
X136751741Y-93373106D01*
X136625714Y-93457314D01*
X136547499Y-93574371D01*
X136523396Y-93516181D01*
X136416220Y-93409004D01*
X136276186Y-93351000D01*
X135759150Y-93351000D01*
X135663900Y-93446250D01*
X135663900Y-94043500D01*
X135683900Y-94043500D01*
X135683900Y-94170500D01*
X135663900Y-94170500D01*
X135663900Y-94767750D01*
X135691619Y-94795469D01*
X135683531Y-94814946D01*
X135683414Y-94949500D01*
X135470234Y-95162679D01*
X135461200Y-95153629D01*
X135411147Y-95078719D01*
X135195428Y-94863000D01*
X135441650Y-94863000D01*
X135536900Y-94767750D01*
X135536900Y-94170500D01*
X135516900Y-94170500D01*
X135516900Y-94043500D01*
X135536900Y-94043500D01*
X135536900Y-93446250D01*
X135441650Y-93351000D01*
X134924614Y-93351000D01*
X134784580Y-93409004D01*
X134677404Y-93516181D01*
X134662698Y-93551685D01*
X134605259Y-93513306D01*
X134456600Y-93483736D01*
X133716600Y-93483736D01*
X133567941Y-93513306D01*
X133447199Y-93593983D01*
X133402420Y-93549204D01*
X133262386Y-93491200D01*
X132975350Y-93491200D01*
X132880100Y-93586450D01*
X132880100Y-95008700D01*
X132900100Y-95008700D01*
X132900100Y-95135700D01*
X132880100Y-95135700D01*
X132880100Y-95155700D01*
X132753100Y-95155700D01*
X132753100Y-95135700D01*
X131610100Y-95135700D01*
X131610100Y-95155700D01*
X131483100Y-95155700D01*
X131483100Y-95135700D01*
X131463100Y-95135700D01*
X131463100Y-95008700D01*
X131483100Y-95008700D01*
X131483100Y-93586450D01*
X131610100Y-93586450D01*
X131610100Y-95008700D01*
X132753100Y-95008700D01*
X132753100Y-93586450D01*
X132657850Y-93491200D01*
X132370814Y-93491200D01*
X132230780Y-93549204D01*
X132181600Y-93598384D01*
X132132420Y-93549204D01*
X131992386Y-93491200D01*
X131705350Y-93491200D01*
X131610100Y-93586450D01*
X131483100Y-93586450D01*
X131445000Y-93548350D01*
X131445000Y-93440576D01*
X131516651Y-93368924D01*
X131516654Y-93368922D01*
X131621268Y-93212355D01*
X131658005Y-93027672D01*
X131658004Y-93027667D01*
X131658004Y-92294750D01*
X131882800Y-92294750D01*
X131882800Y-92811786D01*
X131940804Y-92951820D01*
X132047981Y-93058996D01*
X132188015Y-93117000D01*
X132480050Y-93117000D01*
X132575300Y-93021750D01*
X132575300Y-92199500D01*
X131978050Y-92199500D01*
X131882800Y-92294750D01*
X131658004Y-92294750D01*
X131658004Y-90678257D01*
X131657502Y-90675734D01*
X131657978Y-90673203D01*
X131639144Y-90583440D01*
X131621268Y-90493574D01*
X131619839Y-90491435D01*
X131619310Y-90488915D01*
X131567588Y-90413235D01*
X131516654Y-90337007D01*
X131514513Y-90335576D01*
X131513061Y-90333452D01*
X131466990Y-90288336D01*
X131445000Y-90266346D01*
X131445000Y-89458800D01*
X131923976Y-89458800D01*
X131904906Y-89487341D01*
M02*
