G04 #@! TF.FileFunction,Paste,Top*
%FSLAX46Y46*%
G04 Gerber Fmt 4.6, Leading zero omitted, Abs format (unit mm)*
G04 Created by KiCad (PCBNEW (2015-05-09 BZR 5648)-product) date fre 24 jul 2015 08:35:53 CEST*
%MOMM*%
G01*
G04 APERTURE LIST*
%ADD10C,0.100000*%
%ADD11R,1.550000X0.600000*%
%ADD12R,0.797560X0.797560*%
%ADD13R,0.750000X1.200000*%
%ADD14R,1.200000X0.750000*%
%ADD15R,1.200000X0.900000*%
%ADD16R,0.900000X1.200000*%
%ADD17R,0.800100X0.800100*%
%ADD18R,2.032000X3.657600*%
%ADD19R,2.032000X1.016000*%
%ADD20R,0.400000X1.400000*%
%ADD21R,1.500000X1.300000*%
%ADD22R,2.400000X0.740000*%
%ADD23R,0.300000X1.500000*%
%ADD24R,1.500000X0.300000*%
%ADD25R,1.550000X1.300000*%
%ADD26R,0.630000X0.450000*%
%ADD27R,0.510000X0.780000*%
%ADD28R,0.650000X1.060000*%
G04 APERTURE END LIST*
D10*
D11*
X140302000Y-100330000D03*
X140302000Y-101600000D03*
X140302000Y-102870000D03*
X140302000Y-104140000D03*
X145702000Y-104140000D03*
X145702000Y-102870000D03*
X145702000Y-101600000D03*
X145702000Y-100330000D03*
D12*
X126238000Y-67932300D03*
X126238000Y-66433700D03*
D13*
X157861000Y-94488000D03*
X157861000Y-92588000D03*
D14*
X132903000Y-84074000D03*
X131003000Y-84074000D03*
D13*
X137033000Y-76642000D03*
X137033000Y-74742000D03*
X148717000Y-86106000D03*
X148717000Y-84206000D03*
X140208000Y-92649000D03*
X140208000Y-94549000D03*
X148336000Y-108651000D03*
X148336000Y-110551000D03*
X136906000Y-105090000D03*
X136906000Y-103190000D03*
X128524000Y-92898000D03*
X128524000Y-90998000D03*
X162941000Y-102931000D03*
X162941000Y-101031000D03*
D14*
X142687000Y-98298000D03*
X144587000Y-98298000D03*
X162372000Y-84963000D03*
X164272000Y-84963000D03*
X162372000Y-83185000D03*
X164272000Y-83185000D03*
D13*
X142240000Y-72705000D03*
X142240000Y-70805000D03*
D14*
X162372000Y-87249000D03*
X164272000Y-87249000D03*
D12*
X127889000Y-67932300D03*
X127889000Y-66433700D03*
D15*
X146134000Y-70739000D03*
X143934000Y-70739000D03*
X156294000Y-96774000D03*
X154094000Y-96774000D03*
D16*
X128143000Y-70900000D03*
X128143000Y-73100000D03*
X129794000Y-70900000D03*
X129794000Y-73100000D03*
D17*
X154178000Y-94488000D03*
X156078000Y-94488000D03*
X155128000Y-92489020D03*
D18*
X153416000Y-87249000D03*
D19*
X160020000Y-87249000D03*
X160020000Y-84963000D03*
X160020000Y-89535000D03*
D20*
X141351000Y-67727000D03*
X140701000Y-67727000D03*
X142001000Y-67727000D03*
X142651000Y-67727000D03*
X140051000Y-67727000D03*
D21*
X135843000Y-92456000D03*
X133143000Y-92456000D03*
D14*
X131003000Y-82550000D03*
X132903000Y-82550000D03*
D15*
X138514000Y-98171000D03*
X136314000Y-98171000D03*
D14*
X162372000Y-89154000D03*
X164272000Y-89154000D03*
X130622000Y-90170000D03*
X132522000Y-90170000D03*
D13*
X137795000Y-94549000D03*
X137795000Y-92649000D03*
D22*
X128651000Y-94996000D03*
X132551000Y-94996000D03*
X128651000Y-96266000D03*
X132551000Y-96266000D03*
X128651000Y-97536000D03*
X132551000Y-97536000D03*
X132551000Y-98806000D03*
X128651000Y-100076000D03*
X132551000Y-100076000D03*
D13*
X140589000Y-97221000D03*
X140589000Y-99121000D03*
D23*
X136839000Y-90028000D03*
X137339000Y-90028000D03*
X137839000Y-90028000D03*
X138339000Y-90028000D03*
X138839000Y-90028000D03*
X139339000Y-90028000D03*
X139839000Y-90028000D03*
X140339000Y-90028000D03*
X140839000Y-90028000D03*
X141339000Y-90028000D03*
X141839000Y-90028000D03*
X142339000Y-90028000D03*
X142839000Y-90028000D03*
X143339000Y-90028000D03*
X143839000Y-90028000D03*
X144339000Y-90028000D03*
D24*
X146289000Y-88078000D03*
X146289000Y-87578000D03*
X146289000Y-87078000D03*
X146289000Y-86578000D03*
X146289000Y-86078000D03*
X146289000Y-85578000D03*
X146289000Y-85078000D03*
X146289000Y-84578000D03*
X146289000Y-84078000D03*
X146289000Y-83578000D03*
X146289000Y-83078000D03*
X146289000Y-82578000D03*
X146289000Y-82078000D03*
X146289000Y-81578000D03*
X146289000Y-81078000D03*
X146289000Y-80578000D03*
D23*
X144339000Y-78628000D03*
X143839000Y-78628000D03*
X143339000Y-78628000D03*
X142839000Y-78628000D03*
X142339000Y-78628000D03*
X141839000Y-78628000D03*
X141339000Y-78628000D03*
X140839000Y-78628000D03*
X140339000Y-78628000D03*
X139839000Y-78628000D03*
X139339000Y-78628000D03*
X138839000Y-78628000D03*
X138339000Y-78628000D03*
X137839000Y-78628000D03*
X137339000Y-78628000D03*
X136839000Y-78628000D03*
D24*
X134889000Y-80578000D03*
X134889000Y-81078000D03*
X134889000Y-81578000D03*
X134889000Y-82078000D03*
X134889000Y-82578000D03*
X134889000Y-83078000D03*
X134889000Y-83578000D03*
X134889000Y-84078000D03*
X134889000Y-84578000D03*
X134889000Y-85078000D03*
X134889000Y-85578000D03*
X134889000Y-86078000D03*
X134889000Y-86578000D03*
X134889000Y-87078000D03*
X134889000Y-87578000D03*
X134889000Y-88078000D03*
D12*
X129667000Y-67932300D03*
X129667000Y-66433700D03*
D16*
X131445000Y-70900000D03*
X131445000Y-73100000D03*
D14*
X144846000Y-76835000D03*
X146746000Y-76835000D03*
D13*
X147955000Y-70805000D03*
X147955000Y-72705000D03*
X128143000Y-108524000D03*
X128143000Y-110424000D03*
D16*
X129794000Y-110701000D03*
X129794000Y-108501000D03*
X131445000Y-108501000D03*
X131445000Y-110701000D03*
D25*
X145872000Y-107133000D03*
X145872000Y-111633000D03*
X137922000Y-111633000D03*
X137922000Y-107133000D03*
D14*
X123251000Y-110363000D03*
X121351000Y-110363000D03*
D26*
X121005000Y-106507000D03*
X121005000Y-107457000D03*
X121005000Y-108407000D03*
X123685000Y-108407000D03*
X123685000Y-107457000D03*
X123685000Y-106507000D03*
D27*
X122770000Y-108107000D03*
X122770000Y-106807000D03*
X121920000Y-108107000D03*
X121920000Y-106807000D03*
D16*
X121285000Y-102405000D03*
X121285000Y-104605000D03*
X123444000Y-102405000D03*
X123444000Y-104605000D03*
D12*
X131191000Y-67932300D03*
X131191000Y-66433700D03*
D16*
X133096000Y-70900000D03*
X133096000Y-73100000D03*
D28*
X127762000Y-77597000D03*
X128712000Y-77597000D03*
X129662000Y-77597000D03*
X129662000Y-75397000D03*
X127762000Y-75397000D03*
M02*
