G04 #@! TF.FileFunction,Other,Fab,Top*
%FSLAX46Y46*%
G04 Gerber Fmt 4.6, Leading zero omitted, Abs format (unit mm)*
G04 Created by KiCad (PCBNEW (2015-05-09 BZR 5648)-product) date man 27 jul 2015 13:03:38 CEST*
%MOMM*%
G01*
G04 APERTURE LIST*
%ADD10C,0.100000*%
%ADD11C,0.150000*%
G04 APERTURE END LIST*
D10*
D11*
X130876381Y-93019428D02*
X130876381Y-93590857D01*
X130876381Y-93305143D02*
X129876381Y-93305143D01*
X130019238Y-93400381D01*
X130114476Y-93495619D01*
X130162095Y-93590857D01*
X129876381Y-92400381D02*
X129876381Y-92305142D01*
X129924000Y-92209904D01*
X129971619Y-92162285D01*
X130066857Y-92114666D01*
X130257333Y-92067047D01*
X130495429Y-92067047D01*
X130685905Y-92114666D01*
X130781143Y-92162285D01*
X130828762Y-92209904D01*
X130876381Y-92305142D01*
X130876381Y-92400381D01*
X130828762Y-92495619D01*
X130781143Y-92543238D01*
X130685905Y-92590857D01*
X130495429Y-92638476D01*
X130257333Y-92638476D01*
X130066857Y-92590857D01*
X129971619Y-92543238D01*
X129924000Y-92495619D01*
X129876381Y-92400381D01*
X130209714Y-91209904D02*
X130876381Y-91209904D01*
X130209714Y-91638476D02*
X130733524Y-91638476D01*
X130828762Y-91590857D01*
X130876381Y-91495619D01*
X130876381Y-91352761D01*
X130828762Y-91257523D01*
X130781143Y-91209904D01*
X130352571Y-90400380D02*
X130352571Y-90733714D01*
X130876381Y-90733714D02*
X129876381Y-90733714D01*
X129876381Y-90257523D01*
X137549619Y-105187381D02*
X137787714Y-106187381D01*
X137978191Y-105473095D01*
X138168667Y-106187381D01*
X138406762Y-105187381D01*
X138740095Y-105282619D02*
X138787714Y-105235000D01*
X138882952Y-105187381D01*
X139121048Y-105187381D01*
X139216286Y-105235000D01*
X139263905Y-105282619D01*
X139311524Y-105377857D01*
X139311524Y-105473095D01*
X139263905Y-105615952D01*
X138692476Y-106187381D01*
X139311524Y-106187381D01*
X140216286Y-105187381D02*
X139740095Y-105187381D01*
X139692476Y-105663571D01*
X139740095Y-105615952D01*
X139835333Y-105568333D01*
X140073429Y-105568333D01*
X140168667Y-105615952D01*
X140216286Y-105663571D01*
X140263905Y-105758810D01*
X140263905Y-105996905D01*
X140216286Y-106092143D01*
X140168667Y-106139762D01*
X140073429Y-106187381D01*
X139835333Y-106187381D01*
X139740095Y-106139762D01*
X139692476Y-106092143D01*
X140597238Y-105187381D02*
X141263905Y-106187381D01*
X141263905Y-105187381D02*
X140597238Y-106187381D01*
X142073429Y-105520714D02*
X142073429Y-106187381D01*
X141835333Y-105139762D02*
X141597238Y-105854048D01*
X142216286Y-105854048D01*
X142787714Y-105187381D02*
X142882953Y-105187381D01*
X142978191Y-105235000D01*
X143025810Y-105282619D01*
X143073429Y-105377857D01*
X143121048Y-105568333D01*
X143121048Y-105806429D01*
X143073429Y-105996905D01*
X143025810Y-106092143D01*
X142978191Y-106139762D01*
X142882953Y-106187381D01*
X142787714Y-106187381D01*
X142692476Y-106139762D01*
X142644857Y-106092143D01*
X142597238Y-105996905D01*
X142549619Y-105806429D01*
X142549619Y-105568333D01*
X142597238Y-105377857D01*
X142644857Y-105282619D01*
X142692476Y-105235000D01*
X142787714Y-105187381D01*
X144121048Y-106092143D02*
X144073429Y-106139762D01*
X143930572Y-106187381D01*
X143835334Y-106187381D01*
X143692476Y-106139762D01*
X143597238Y-106044524D01*
X143549619Y-105949286D01*
X143502000Y-105758810D01*
X143502000Y-105615952D01*
X143549619Y-105425476D01*
X143597238Y-105330238D01*
X143692476Y-105235000D01*
X143835334Y-105187381D01*
X143930572Y-105187381D01*
X144073429Y-105235000D01*
X144121048Y-105282619D01*
X145025810Y-106187381D02*
X144549619Y-106187381D01*
X144549619Y-105187381D01*
X145311524Y-106139762D02*
X145454381Y-106187381D01*
X145692477Y-106187381D01*
X145787715Y-106139762D01*
X145835334Y-106092143D01*
X145882953Y-105996905D01*
X145882953Y-105901667D01*
X145835334Y-105806429D01*
X145787715Y-105758810D01*
X145692477Y-105711190D01*
X145502000Y-105663571D01*
X145406762Y-105615952D01*
X145359143Y-105568333D01*
X145311524Y-105473095D01*
X145311524Y-105377857D01*
X145359143Y-105282619D01*
X145406762Y-105235000D01*
X145502000Y-105187381D01*
X145740096Y-105187381D01*
X145882953Y-105235000D01*
X146311524Y-106187381D02*
X146311524Y-105187381D01*
X146882953Y-106187381D01*
X146882953Y-105187381D01*
X147359143Y-106187381D02*
X147359143Y-105187381D01*
X148359143Y-105235000D02*
X148263905Y-105187381D01*
X148121048Y-105187381D01*
X147978190Y-105235000D01*
X147882952Y-105330238D01*
X147835333Y-105425476D01*
X147787714Y-105615952D01*
X147787714Y-105758810D01*
X147835333Y-105949286D01*
X147882952Y-106044524D01*
X147978190Y-106139762D01*
X148121048Y-106187381D01*
X148216286Y-106187381D01*
X148359143Y-106139762D01*
X148406762Y-106092143D01*
X148406762Y-105758810D01*
X148216286Y-105758810D01*
X161310581Y-95614019D02*
X161310581Y-96185448D01*
X161310581Y-95899734D02*
X160310581Y-95899734D01*
X160453438Y-95994972D01*
X160548676Y-96090210D01*
X160596295Y-96185448D01*
X160310581Y-94994972D02*
X160310581Y-94899733D01*
X160358200Y-94804495D01*
X160405819Y-94756876D01*
X160501057Y-94709257D01*
X160691533Y-94661638D01*
X160929629Y-94661638D01*
X161120105Y-94709257D01*
X161215343Y-94756876D01*
X161262962Y-94804495D01*
X161310581Y-94899733D01*
X161310581Y-94994972D01*
X161262962Y-95090210D01*
X161215343Y-95137829D01*
X161120105Y-95185448D01*
X160929629Y-95233067D01*
X160691533Y-95233067D01*
X160501057Y-95185448D01*
X160405819Y-95137829D01*
X160358200Y-95090210D01*
X160310581Y-94994972D01*
X160310581Y-94042591D02*
X160310581Y-93947352D01*
X160358200Y-93852114D01*
X160405819Y-93804495D01*
X160501057Y-93756876D01*
X160691533Y-93709257D01*
X160929629Y-93709257D01*
X161120105Y-93756876D01*
X161215343Y-93804495D01*
X161262962Y-93852114D01*
X161310581Y-93947352D01*
X161310581Y-94042591D01*
X161262962Y-94137829D01*
X161215343Y-94185448D01*
X161120105Y-94233067D01*
X160929629Y-94280686D01*
X160691533Y-94280686D01*
X160501057Y-94233067D01*
X160405819Y-94185448D01*
X160358200Y-94137829D01*
X160310581Y-94042591D01*
X160643914Y-93280686D02*
X161310581Y-93280686D01*
X160739152Y-93280686D02*
X160691533Y-93233067D01*
X160643914Y-93137829D01*
X160643914Y-92994971D01*
X160691533Y-92899733D01*
X160786771Y-92852114D01*
X161310581Y-92852114D01*
X160786771Y-92042590D02*
X160786771Y-92375924D01*
X161310581Y-92375924D02*
X160310581Y-92375924D01*
X160310581Y-91899733D01*
X130405381Y-82626381D02*
X129833952Y-82626381D01*
X130119666Y-82626381D02*
X130119666Y-81626381D01*
X130024428Y-81769238D01*
X129929190Y-81864476D01*
X129833952Y-81912095D01*
X131024428Y-81626381D02*
X131119667Y-81626381D01*
X131214905Y-81674000D01*
X131262524Y-81721619D01*
X131310143Y-81816857D01*
X131357762Y-82007333D01*
X131357762Y-82245429D01*
X131310143Y-82435905D01*
X131262524Y-82531143D01*
X131214905Y-82578762D01*
X131119667Y-82626381D01*
X131024428Y-82626381D01*
X130929190Y-82578762D01*
X130881571Y-82531143D01*
X130833952Y-82435905D01*
X130786333Y-82245429D01*
X130786333Y-82007333D01*
X130833952Y-81816857D01*
X130881571Y-81721619D01*
X130929190Y-81674000D01*
X131024428Y-81626381D01*
X131976809Y-81626381D02*
X132072048Y-81626381D01*
X132167286Y-81674000D01*
X132214905Y-81721619D01*
X132262524Y-81816857D01*
X132310143Y-82007333D01*
X132310143Y-82245429D01*
X132262524Y-82435905D01*
X132214905Y-82531143D01*
X132167286Y-82578762D01*
X132072048Y-82626381D01*
X131976809Y-82626381D01*
X131881571Y-82578762D01*
X131833952Y-82531143D01*
X131786333Y-82435905D01*
X131738714Y-82245429D01*
X131738714Y-82007333D01*
X131786333Y-81816857D01*
X131833952Y-81721619D01*
X131881571Y-81674000D01*
X131976809Y-81626381D01*
X132738714Y-81959714D02*
X132738714Y-82626381D01*
X132738714Y-82054952D02*
X132786333Y-82007333D01*
X132881571Y-81959714D01*
X133024429Y-81959714D01*
X133119667Y-82007333D01*
X133167286Y-82102571D01*
X133167286Y-82626381D01*
X133976810Y-82102571D02*
X133643476Y-82102571D01*
X133643476Y-82626381D02*
X133643476Y-81626381D01*
X134119667Y-81626381D01*
X139385381Y-77239619D02*
X139385381Y-77811048D01*
X139385381Y-77525334D02*
X138385381Y-77525334D01*
X138528238Y-77620572D01*
X138623476Y-77715810D01*
X138671095Y-77811048D01*
X138385381Y-76620572D02*
X138385381Y-76525333D01*
X138433000Y-76430095D01*
X138480619Y-76382476D01*
X138575857Y-76334857D01*
X138766333Y-76287238D01*
X139004429Y-76287238D01*
X139194905Y-76334857D01*
X139290143Y-76382476D01*
X139337762Y-76430095D01*
X139385381Y-76525333D01*
X139385381Y-76620572D01*
X139337762Y-76715810D01*
X139290143Y-76763429D01*
X139194905Y-76811048D01*
X139004429Y-76858667D01*
X138766333Y-76858667D01*
X138575857Y-76811048D01*
X138480619Y-76763429D01*
X138433000Y-76715810D01*
X138385381Y-76620572D01*
X138385381Y-75668191D02*
X138385381Y-75572952D01*
X138433000Y-75477714D01*
X138480619Y-75430095D01*
X138575857Y-75382476D01*
X138766333Y-75334857D01*
X139004429Y-75334857D01*
X139194905Y-75382476D01*
X139290143Y-75430095D01*
X139337762Y-75477714D01*
X139385381Y-75572952D01*
X139385381Y-75668191D01*
X139337762Y-75763429D01*
X139290143Y-75811048D01*
X139194905Y-75858667D01*
X139004429Y-75906286D01*
X138766333Y-75906286D01*
X138575857Y-75858667D01*
X138480619Y-75811048D01*
X138433000Y-75763429D01*
X138385381Y-75668191D01*
X138718714Y-74906286D02*
X139385381Y-74906286D01*
X138813952Y-74906286D02*
X138766333Y-74858667D01*
X138718714Y-74763429D01*
X138718714Y-74620571D01*
X138766333Y-74525333D01*
X138861571Y-74477714D01*
X139385381Y-74477714D01*
X138861571Y-73668190D02*
X138861571Y-74001524D01*
X139385381Y-74001524D02*
X138385381Y-74001524D01*
X138385381Y-73525333D01*
X151582381Y-87018619D02*
X151582381Y-87590048D01*
X151582381Y-87304334D02*
X150582381Y-87304334D01*
X150725238Y-87399572D01*
X150820476Y-87494810D01*
X150868095Y-87590048D01*
X150582381Y-86399572D02*
X150582381Y-86304333D01*
X150630000Y-86209095D01*
X150677619Y-86161476D01*
X150772857Y-86113857D01*
X150963333Y-86066238D01*
X151201429Y-86066238D01*
X151391905Y-86113857D01*
X151487143Y-86161476D01*
X151534762Y-86209095D01*
X151582381Y-86304333D01*
X151582381Y-86399572D01*
X151534762Y-86494810D01*
X151487143Y-86542429D01*
X151391905Y-86590048D01*
X151201429Y-86637667D01*
X150963333Y-86637667D01*
X150772857Y-86590048D01*
X150677619Y-86542429D01*
X150630000Y-86494810D01*
X150582381Y-86399572D01*
X150582381Y-85447191D02*
X150582381Y-85351952D01*
X150630000Y-85256714D01*
X150677619Y-85209095D01*
X150772857Y-85161476D01*
X150963333Y-85113857D01*
X151201429Y-85113857D01*
X151391905Y-85161476D01*
X151487143Y-85209095D01*
X151534762Y-85256714D01*
X151582381Y-85351952D01*
X151582381Y-85447191D01*
X151534762Y-85542429D01*
X151487143Y-85590048D01*
X151391905Y-85637667D01*
X151201429Y-85685286D01*
X150963333Y-85685286D01*
X150772857Y-85637667D01*
X150677619Y-85590048D01*
X150630000Y-85542429D01*
X150582381Y-85447191D01*
X150915714Y-84685286D02*
X151582381Y-84685286D01*
X151010952Y-84685286D02*
X150963333Y-84637667D01*
X150915714Y-84542429D01*
X150915714Y-84399571D01*
X150963333Y-84304333D01*
X151058571Y-84256714D01*
X151582381Y-84256714D01*
X151058571Y-83447190D02*
X151058571Y-83780524D01*
X151582381Y-83780524D02*
X150582381Y-83780524D01*
X150582381Y-83304333D01*
X138760381Y-95146619D02*
X138760381Y-95718048D01*
X138760381Y-95432334D02*
X137760381Y-95432334D01*
X137903238Y-95527572D01*
X137998476Y-95622810D01*
X138046095Y-95718048D01*
X137760381Y-94527572D02*
X137760381Y-94432333D01*
X137808000Y-94337095D01*
X137855619Y-94289476D01*
X137950857Y-94241857D01*
X138141333Y-94194238D01*
X138379429Y-94194238D01*
X138569905Y-94241857D01*
X138665143Y-94289476D01*
X138712762Y-94337095D01*
X138760381Y-94432333D01*
X138760381Y-94527572D01*
X138712762Y-94622810D01*
X138665143Y-94670429D01*
X138569905Y-94718048D01*
X138379429Y-94765667D01*
X138141333Y-94765667D01*
X137950857Y-94718048D01*
X137855619Y-94670429D01*
X137808000Y-94622810D01*
X137760381Y-94527572D01*
X137760381Y-93575191D02*
X137760381Y-93479952D01*
X137808000Y-93384714D01*
X137855619Y-93337095D01*
X137950857Y-93289476D01*
X138141333Y-93241857D01*
X138379429Y-93241857D01*
X138569905Y-93289476D01*
X138665143Y-93337095D01*
X138712762Y-93384714D01*
X138760381Y-93479952D01*
X138760381Y-93575191D01*
X138712762Y-93670429D01*
X138665143Y-93718048D01*
X138569905Y-93765667D01*
X138379429Y-93813286D01*
X138141333Y-93813286D01*
X137950857Y-93765667D01*
X137855619Y-93718048D01*
X137808000Y-93670429D01*
X137760381Y-93575191D01*
X138093714Y-92813286D02*
X138760381Y-92813286D01*
X138188952Y-92813286D02*
X138141333Y-92765667D01*
X138093714Y-92670429D01*
X138093714Y-92527571D01*
X138141333Y-92432333D01*
X138236571Y-92384714D01*
X138760381Y-92384714D01*
X138236571Y-91575190D02*
X138236571Y-91908524D01*
X138760381Y-91908524D02*
X137760381Y-91908524D01*
X137760381Y-91432333D01*
X151323381Y-105586019D02*
X151323381Y-106157448D01*
X151323381Y-105871734D02*
X150323381Y-105871734D01*
X150466238Y-105966972D01*
X150561476Y-106062210D01*
X150609095Y-106157448D01*
X150323381Y-104966972D02*
X150323381Y-104871733D01*
X150371000Y-104776495D01*
X150418619Y-104728876D01*
X150513857Y-104681257D01*
X150704333Y-104633638D01*
X150942429Y-104633638D01*
X151132905Y-104681257D01*
X151228143Y-104728876D01*
X151275762Y-104776495D01*
X151323381Y-104871733D01*
X151323381Y-104966972D01*
X151275762Y-105062210D01*
X151228143Y-105109829D01*
X151132905Y-105157448D01*
X150942429Y-105205067D01*
X150704333Y-105205067D01*
X150513857Y-105157448D01*
X150418619Y-105109829D01*
X150371000Y-105062210D01*
X150323381Y-104966972D01*
X150323381Y-104014591D02*
X150323381Y-103919352D01*
X150371000Y-103824114D01*
X150418619Y-103776495D01*
X150513857Y-103728876D01*
X150704333Y-103681257D01*
X150942429Y-103681257D01*
X151132905Y-103728876D01*
X151228143Y-103776495D01*
X151275762Y-103824114D01*
X151323381Y-103919352D01*
X151323381Y-104014591D01*
X151275762Y-104109829D01*
X151228143Y-104157448D01*
X151132905Y-104205067D01*
X150942429Y-104252686D01*
X150704333Y-104252686D01*
X150513857Y-104205067D01*
X150418619Y-104157448D01*
X150371000Y-104109829D01*
X150323381Y-104014591D01*
X150656714Y-103252686D02*
X151323381Y-103252686D01*
X150751952Y-103252686D02*
X150704333Y-103205067D01*
X150656714Y-103109829D01*
X150656714Y-102966971D01*
X150704333Y-102871733D01*
X150799571Y-102824114D01*
X151323381Y-102824114D01*
X150799571Y-102014590D02*
X150799571Y-102347924D01*
X151323381Y-102347924D02*
X150323381Y-102347924D01*
X150323381Y-101871733D01*
X139258381Y-105211428D02*
X139258381Y-105782857D01*
X139258381Y-105497143D02*
X138258381Y-105497143D01*
X138401238Y-105592381D01*
X138496476Y-105687619D01*
X138544095Y-105782857D01*
X138258381Y-104592381D02*
X138258381Y-104497142D01*
X138306000Y-104401904D01*
X138353619Y-104354285D01*
X138448857Y-104306666D01*
X138639333Y-104259047D01*
X138877429Y-104259047D01*
X139067905Y-104306666D01*
X139163143Y-104354285D01*
X139210762Y-104401904D01*
X139258381Y-104497142D01*
X139258381Y-104592381D01*
X139210762Y-104687619D01*
X139163143Y-104735238D01*
X139067905Y-104782857D01*
X138877429Y-104830476D01*
X138639333Y-104830476D01*
X138448857Y-104782857D01*
X138353619Y-104735238D01*
X138306000Y-104687619D01*
X138258381Y-104592381D01*
X138591714Y-103401904D02*
X139258381Y-103401904D01*
X138591714Y-103830476D02*
X139115524Y-103830476D01*
X139210762Y-103782857D01*
X139258381Y-103687619D01*
X139258381Y-103544761D01*
X139210762Y-103449523D01*
X139163143Y-103401904D01*
X138734571Y-102592380D02*
X138734571Y-102925714D01*
X139258381Y-102925714D02*
X138258381Y-102925714D01*
X138258381Y-102449523D01*
X166314381Y-103909619D02*
X166314381Y-104481048D01*
X166314381Y-104195334D02*
X165314381Y-104195334D01*
X165457238Y-104290572D01*
X165552476Y-104385810D01*
X165600095Y-104481048D01*
X165314381Y-103290572D02*
X165314381Y-103195333D01*
X165362000Y-103100095D01*
X165409619Y-103052476D01*
X165504857Y-103004857D01*
X165695333Y-102957238D01*
X165933429Y-102957238D01*
X166123905Y-103004857D01*
X166219143Y-103052476D01*
X166266762Y-103100095D01*
X166314381Y-103195333D01*
X166314381Y-103290572D01*
X166266762Y-103385810D01*
X166219143Y-103433429D01*
X166123905Y-103481048D01*
X165933429Y-103528667D01*
X165695333Y-103528667D01*
X165504857Y-103481048D01*
X165409619Y-103433429D01*
X165362000Y-103385810D01*
X165314381Y-103290572D01*
X165314381Y-102338191D02*
X165314381Y-102242952D01*
X165362000Y-102147714D01*
X165409619Y-102100095D01*
X165504857Y-102052476D01*
X165695333Y-102004857D01*
X165933429Y-102004857D01*
X166123905Y-102052476D01*
X166219143Y-102100095D01*
X166266762Y-102147714D01*
X166314381Y-102242952D01*
X166314381Y-102338191D01*
X166266762Y-102433429D01*
X166219143Y-102481048D01*
X166123905Y-102528667D01*
X165933429Y-102576286D01*
X165695333Y-102576286D01*
X165504857Y-102528667D01*
X165409619Y-102481048D01*
X165362000Y-102433429D01*
X165314381Y-102338191D01*
X165647714Y-101576286D02*
X166314381Y-101576286D01*
X165742952Y-101576286D02*
X165695333Y-101528667D01*
X165647714Y-101433429D01*
X165647714Y-101290571D01*
X165695333Y-101195333D01*
X165790571Y-101147714D01*
X166314381Y-101147714D01*
X165790571Y-100338190D02*
X165790571Y-100671524D01*
X166314381Y-100671524D02*
X165314381Y-100671524D01*
X165314381Y-100195333D01*
X142089381Y-100650381D02*
X141517952Y-100650381D01*
X141803666Y-100650381D02*
X141803666Y-99650381D01*
X141708428Y-99793238D01*
X141613190Y-99888476D01*
X141517952Y-99936095D01*
X142708428Y-99650381D02*
X142803667Y-99650381D01*
X142898905Y-99698000D01*
X142946524Y-99745619D01*
X142994143Y-99840857D01*
X143041762Y-100031333D01*
X143041762Y-100269429D01*
X142994143Y-100459905D01*
X142946524Y-100555143D01*
X142898905Y-100602762D01*
X142803667Y-100650381D01*
X142708428Y-100650381D01*
X142613190Y-100602762D01*
X142565571Y-100555143D01*
X142517952Y-100459905D01*
X142470333Y-100269429D01*
X142470333Y-100031333D01*
X142517952Y-99840857D01*
X142565571Y-99745619D01*
X142613190Y-99698000D01*
X142708428Y-99650381D01*
X143660809Y-99650381D02*
X143756048Y-99650381D01*
X143851286Y-99698000D01*
X143898905Y-99745619D01*
X143946524Y-99840857D01*
X143994143Y-100031333D01*
X143994143Y-100269429D01*
X143946524Y-100459905D01*
X143898905Y-100555143D01*
X143851286Y-100602762D01*
X143756048Y-100650381D01*
X143660809Y-100650381D01*
X143565571Y-100602762D01*
X143517952Y-100555143D01*
X143470333Y-100459905D01*
X143422714Y-100269429D01*
X143422714Y-100031333D01*
X143470333Y-99840857D01*
X143517952Y-99745619D01*
X143565571Y-99698000D01*
X143660809Y-99650381D01*
X144422714Y-99983714D02*
X144422714Y-100650381D01*
X144422714Y-100078952D02*
X144470333Y-100031333D01*
X144565571Y-99983714D01*
X144708429Y-99983714D01*
X144803667Y-100031333D01*
X144851286Y-100126571D01*
X144851286Y-100650381D01*
X145660810Y-100126571D02*
X145327476Y-100126571D01*
X145327476Y-100650381D02*
X145327476Y-99650381D01*
X145803667Y-99650381D01*
X162174372Y-89245781D02*
X161602943Y-89245781D01*
X161888657Y-89245781D02*
X161888657Y-88245781D01*
X161793419Y-88388638D01*
X161698181Y-88483876D01*
X161602943Y-88531495D01*
X162793419Y-88245781D02*
X162888658Y-88245781D01*
X162983896Y-88293400D01*
X163031515Y-88341019D01*
X163079134Y-88436257D01*
X163126753Y-88626733D01*
X163126753Y-88864829D01*
X163079134Y-89055305D01*
X163031515Y-89150543D01*
X162983896Y-89198162D01*
X162888658Y-89245781D01*
X162793419Y-89245781D01*
X162698181Y-89198162D01*
X162650562Y-89150543D01*
X162602943Y-89055305D01*
X162555324Y-88864829D01*
X162555324Y-88626733D01*
X162602943Y-88436257D01*
X162650562Y-88341019D01*
X162698181Y-88293400D01*
X162793419Y-88245781D01*
X163983896Y-88579114D02*
X163983896Y-89245781D01*
X163555324Y-88579114D02*
X163555324Y-89102924D01*
X163602943Y-89198162D01*
X163698181Y-89245781D01*
X163841039Y-89245781D01*
X163936277Y-89198162D01*
X163983896Y-89150543D01*
X164793420Y-88721971D02*
X164460086Y-88721971D01*
X164460086Y-89245781D02*
X164460086Y-88245781D01*
X164936277Y-88245781D01*
X161687981Y-87645581D02*
X161116552Y-87645581D01*
X161402266Y-87645581D02*
X161402266Y-86645581D01*
X161307028Y-86788438D01*
X161211790Y-86883676D01*
X161116552Y-86931295D01*
X162307028Y-86645581D02*
X162402267Y-86645581D01*
X162497505Y-86693200D01*
X162545124Y-86740819D01*
X162592743Y-86836057D01*
X162640362Y-87026533D01*
X162640362Y-87264629D01*
X162592743Y-87455105D01*
X162545124Y-87550343D01*
X162497505Y-87597962D01*
X162402267Y-87645581D01*
X162307028Y-87645581D01*
X162211790Y-87597962D01*
X162164171Y-87550343D01*
X162116552Y-87455105D01*
X162068933Y-87264629D01*
X162068933Y-87026533D01*
X162116552Y-86836057D01*
X162164171Y-86740819D01*
X162211790Y-86693200D01*
X162307028Y-86645581D01*
X163259409Y-86645581D02*
X163354648Y-86645581D01*
X163449886Y-86693200D01*
X163497505Y-86740819D01*
X163545124Y-86836057D01*
X163592743Y-87026533D01*
X163592743Y-87264629D01*
X163545124Y-87455105D01*
X163497505Y-87550343D01*
X163449886Y-87597962D01*
X163354648Y-87645581D01*
X163259409Y-87645581D01*
X163164171Y-87597962D01*
X163116552Y-87550343D01*
X163068933Y-87455105D01*
X163021314Y-87264629D01*
X163021314Y-87026533D01*
X163068933Y-86836057D01*
X163116552Y-86740819D01*
X163164171Y-86693200D01*
X163259409Y-86645581D01*
X164021314Y-86978914D02*
X164021314Y-87645581D01*
X164021314Y-87074152D02*
X164068933Y-87026533D01*
X164164171Y-86978914D01*
X164307029Y-86978914D01*
X164402267Y-87026533D01*
X164449886Y-87121771D01*
X164449886Y-87645581D01*
X165259410Y-87121771D02*
X164926076Y-87121771D01*
X164926076Y-87645581D02*
X164926076Y-86645581D01*
X165402267Y-86645581D01*
X144592381Y-72350238D02*
X144592381Y-72921667D01*
X144592381Y-72635953D02*
X143592381Y-72635953D01*
X143735238Y-72731191D01*
X143830476Y-72826429D01*
X143878095Y-72921667D01*
X143925714Y-71921667D02*
X144592381Y-71921667D01*
X144020952Y-71921667D02*
X143973333Y-71874048D01*
X143925714Y-71778810D01*
X143925714Y-71635952D01*
X143973333Y-71540714D01*
X144068571Y-71493095D01*
X144592381Y-71493095D01*
X144068571Y-70683571D02*
X144068571Y-71016905D01*
X144592381Y-71016905D02*
X143592381Y-71016905D01*
X143592381Y-70540714D01*
X162174372Y-90896781D02*
X161602943Y-90896781D01*
X161888657Y-90896781D02*
X161888657Y-89896781D01*
X161793419Y-90039638D01*
X161698181Y-90134876D01*
X161602943Y-90182495D01*
X162793419Y-89896781D02*
X162888658Y-89896781D01*
X162983896Y-89944400D01*
X163031515Y-89992019D01*
X163079134Y-90087257D01*
X163126753Y-90277733D01*
X163126753Y-90515829D01*
X163079134Y-90706305D01*
X163031515Y-90801543D01*
X162983896Y-90849162D01*
X162888658Y-90896781D01*
X162793419Y-90896781D01*
X162698181Y-90849162D01*
X162650562Y-90801543D01*
X162602943Y-90706305D01*
X162555324Y-90515829D01*
X162555324Y-90277733D01*
X162602943Y-90087257D01*
X162650562Y-89992019D01*
X162698181Y-89944400D01*
X162793419Y-89896781D01*
X163983896Y-90230114D02*
X163983896Y-90896781D01*
X163555324Y-90230114D02*
X163555324Y-90753924D01*
X163602943Y-90849162D01*
X163698181Y-90896781D01*
X163841039Y-90896781D01*
X163936277Y-90849162D01*
X163983896Y-90801543D01*
X164793420Y-90372971D02*
X164460086Y-90372971D01*
X164460086Y-90896781D02*
X164460086Y-89896781D01*
X164936277Y-89896781D01*
X142129239Y-68624714D02*
X142129239Y-69291381D01*
X141891143Y-68243762D02*
X141653048Y-68958048D01*
X142272096Y-68958048D01*
X142557810Y-68291381D02*
X143224477Y-68291381D01*
X142795905Y-69291381D01*
X143795905Y-68291381D02*
X143891144Y-68291381D01*
X143986382Y-68339000D01*
X144034001Y-68386619D01*
X144081620Y-68481857D01*
X144129239Y-68672333D01*
X144129239Y-68910429D01*
X144081620Y-69100905D01*
X144034001Y-69196143D01*
X143986382Y-69243762D01*
X143891144Y-69291381D01*
X143795905Y-69291381D01*
X143700667Y-69243762D01*
X143653048Y-69196143D01*
X143605429Y-69100905D01*
X143557810Y-68910429D01*
X143557810Y-68672333D01*
X143605429Y-68481857D01*
X143653048Y-68386619D01*
X143700667Y-68339000D01*
X143795905Y-68291381D01*
X145129239Y-69291381D02*
X144795905Y-68815190D01*
X144557810Y-69291381D02*
X144557810Y-68291381D01*
X144938763Y-68291381D01*
X145034001Y-68339000D01*
X145081620Y-68386619D01*
X145129239Y-68481857D01*
X145129239Y-68624714D01*
X145081620Y-68719952D01*
X145034001Y-68767571D01*
X144938763Y-68815190D01*
X144557810Y-68815190D01*
X146319715Y-68767571D02*
X146653049Y-68767571D01*
X146795906Y-69291381D02*
X146319715Y-69291381D01*
X146319715Y-68291381D01*
X146795906Y-68291381D01*
X147224477Y-69291381D02*
X147224477Y-68291381D01*
X147557811Y-69005667D01*
X147891144Y-68291381D01*
X147891144Y-69291381D01*
X148367334Y-69291381D02*
X148367334Y-68291381D01*
X154503524Y-94659714D02*
X154503524Y-95326381D01*
X154265428Y-94278762D02*
X154027333Y-94993048D01*
X154646381Y-94993048D01*
X155027333Y-95326381D02*
X155027333Y-94326381D01*
X155122571Y-94945429D02*
X155408286Y-95326381D01*
X155408286Y-94659714D02*
X155027333Y-95040667D01*
X155741619Y-94326381D02*
X156408286Y-94326381D01*
X155979714Y-95326381D01*
X147936438Y-95696067D02*
X148412629Y-95696067D01*
X147841200Y-95981781D02*
X148174533Y-94981781D01*
X148507867Y-95981781D01*
X148698343Y-94981781D02*
X149269772Y-94981781D01*
X148984057Y-95981781D02*
X148984057Y-94981781D01*
X149555486Y-95934162D02*
X149698343Y-95981781D01*
X149936439Y-95981781D01*
X150031677Y-95934162D01*
X150079296Y-95886543D01*
X150126915Y-95791305D01*
X150126915Y-95696067D01*
X150079296Y-95600829D01*
X150031677Y-95553210D01*
X149936439Y-95505590D01*
X149745962Y-95457971D01*
X149650724Y-95410352D01*
X149603105Y-95362733D01*
X149555486Y-95267495D01*
X149555486Y-95172257D01*
X149603105Y-95077019D01*
X149650724Y-95029400D01*
X149745962Y-94981781D01*
X149984058Y-94981781D01*
X150126915Y-95029400D01*
X150555486Y-95981781D02*
X150555486Y-94981781D01*
X150555486Y-95457971D02*
X151126915Y-95457971D01*
X151126915Y-95981781D02*
X151126915Y-94981781D01*
X151555486Y-95696067D02*
X152031677Y-95696067D01*
X151460248Y-95981781D02*
X151793581Y-94981781D01*
X152126915Y-95981781D01*
X152412629Y-95077019D02*
X152460248Y-95029400D01*
X152555486Y-94981781D01*
X152793582Y-94981781D01*
X152888820Y-95029400D01*
X152936439Y-95077019D01*
X152984058Y-95172257D01*
X152984058Y-95267495D01*
X152936439Y-95410352D01*
X152365010Y-95981781D01*
X152984058Y-95981781D01*
X153603105Y-94981781D02*
X153698344Y-94981781D01*
X153793582Y-95029400D01*
X153841201Y-95077019D01*
X153888820Y-95172257D01*
X153936439Y-95362733D01*
X153936439Y-95600829D01*
X153888820Y-95791305D01*
X153841201Y-95886543D01*
X153793582Y-95934162D01*
X153698344Y-95981781D01*
X153603105Y-95981781D01*
X153507867Y-95934162D01*
X153460248Y-95886543D01*
X153412629Y-95791305D01*
X153365010Y-95600829D01*
X153365010Y-95362733D01*
X153412629Y-95172257D01*
X153460248Y-95077019D01*
X153507867Y-95029400D01*
X153603105Y-94981781D01*
X154793582Y-95315114D02*
X154793582Y-95981781D01*
X154555486Y-94934162D02*
X154317391Y-95648448D01*
X154936439Y-95648448D01*
X155269772Y-95696067D02*
X155745963Y-95696067D01*
X155174534Y-95981781D02*
X155507867Y-94981781D01*
X155841201Y-95981781D01*
X157570467Y-93290400D02*
X157570467Y-92814209D01*
X157856181Y-93385638D02*
X156856181Y-93052305D01*
X157856181Y-92718971D01*
X157856181Y-92385638D02*
X156856181Y-92385638D01*
X157570467Y-92052304D01*
X156856181Y-91718971D01*
X157856181Y-91718971D01*
X157808562Y-91290400D02*
X157856181Y-91147543D01*
X157856181Y-90909447D01*
X157808562Y-90814209D01*
X157760943Y-90766590D01*
X157665705Y-90718971D01*
X157570467Y-90718971D01*
X157475229Y-90766590D01*
X157427610Y-90814209D01*
X157379990Y-90909447D01*
X157332371Y-91099924D01*
X157284752Y-91195162D01*
X157237133Y-91242781D01*
X157141895Y-91290400D01*
X157046657Y-91290400D01*
X156951419Y-91242781D01*
X156903800Y-91195162D01*
X156856181Y-91099924D01*
X156856181Y-90861828D01*
X156903800Y-90718971D01*
X157856181Y-89766590D02*
X157856181Y-90338019D01*
X157856181Y-90052305D02*
X156856181Y-90052305D01*
X156999038Y-90147543D01*
X157094276Y-90242781D01*
X157141895Y-90338019D01*
X157856181Y-88814209D02*
X157856181Y-89385638D01*
X157856181Y-89099924D02*
X156856181Y-89099924D01*
X156999038Y-89195162D01*
X157094276Y-89290400D01*
X157141895Y-89385638D01*
X157856181Y-87861828D02*
X157856181Y-88433257D01*
X157856181Y-88147543D02*
X156856181Y-88147543D01*
X156999038Y-88242781D01*
X157094276Y-88338019D01*
X157141895Y-88433257D01*
X156856181Y-87528495D02*
X156856181Y-86861828D01*
X157856181Y-87290400D01*
X157475229Y-86480876D02*
X157475229Y-85718971D01*
X156856181Y-85338019D02*
X156856181Y-84718971D01*
X157237133Y-85052305D01*
X157237133Y-84909447D01*
X157284752Y-84814209D01*
X157332371Y-84766590D01*
X157427610Y-84718971D01*
X157665705Y-84718971D01*
X157760943Y-84766590D01*
X157808562Y-84814209D01*
X157856181Y-84909447D01*
X157856181Y-85195162D01*
X157808562Y-85290400D01*
X157760943Y-85338019D01*
X157760943Y-84290400D02*
X157808562Y-84242781D01*
X157856181Y-84290400D01*
X157808562Y-84338019D01*
X157760943Y-84290400D01*
X157856181Y-84290400D01*
X156856181Y-83909448D02*
X156856181Y-83290400D01*
X157237133Y-83623734D01*
X157237133Y-83480876D01*
X157284752Y-83385638D01*
X157332371Y-83338019D01*
X157427610Y-83290400D01*
X157665705Y-83290400D01*
X157760943Y-83338019D01*
X157808562Y-83385638D01*
X157856181Y-83480876D01*
X157856181Y-83766591D01*
X157808562Y-83861829D01*
X157760943Y-83909448D01*
X135874762Y-62606181D02*
X135874762Y-61606181D01*
X136208096Y-62320467D01*
X136541429Y-61606181D01*
X136541429Y-62606181D01*
X137017619Y-62606181D02*
X137017619Y-61606181D01*
X138065238Y-62510943D02*
X138017619Y-62558562D01*
X137874762Y-62606181D01*
X137779524Y-62606181D01*
X137636666Y-62558562D01*
X137541428Y-62463324D01*
X137493809Y-62368086D01*
X137446190Y-62177610D01*
X137446190Y-62034752D01*
X137493809Y-61844276D01*
X137541428Y-61749038D01*
X137636666Y-61653800D01*
X137779524Y-61606181D01*
X137874762Y-61606181D01*
X138017619Y-61653800D01*
X138065238Y-61701419D01*
X139065238Y-62606181D02*
X138731904Y-62129990D01*
X138493809Y-62606181D02*
X138493809Y-61606181D01*
X138874762Y-61606181D01*
X138970000Y-61653800D01*
X139017619Y-61701419D01*
X139065238Y-61796657D01*
X139065238Y-61939514D01*
X139017619Y-62034752D01*
X138970000Y-62082371D01*
X138874762Y-62129990D01*
X138493809Y-62129990D01*
X139684285Y-61606181D02*
X139874762Y-61606181D01*
X139970000Y-61653800D01*
X140065238Y-61749038D01*
X140112857Y-61939514D01*
X140112857Y-62272848D01*
X140065238Y-62463324D01*
X139970000Y-62558562D01*
X139874762Y-62606181D01*
X139684285Y-62606181D01*
X139589047Y-62558562D01*
X139493809Y-62463324D01*
X139446190Y-62272848D01*
X139446190Y-61939514D01*
X139493809Y-61749038D01*
X139589047Y-61653800D01*
X139684285Y-61606181D01*
X140541428Y-62225229D02*
X141303333Y-62225229D01*
X142112857Y-62082371D02*
X142255714Y-62129990D01*
X142303333Y-62177610D01*
X142350952Y-62272848D01*
X142350952Y-62415705D01*
X142303333Y-62510943D01*
X142255714Y-62558562D01*
X142160476Y-62606181D01*
X141779523Y-62606181D01*
X141779523Y-61606181D01*
X142112857Y-61606181D01*
X142208095Y-61653800D01*
X142255714Y-61701419D01*
X142303333Y-61796657D01*
X142303333Y-61891895D01*
X142255714Y-61987133D01*
X142208095Y-62034752D01*
X142112857Y-62082371D01*
X141779523Y-62082371D01*
X142541428Y-62701419D02*
X143303333Y-62701419D01*
X143541428Y-61606181D02*
X143541428Y-62415705D01*
X143589047Y-62510943D01*
X143636666Y-62558562D01*
X143731904Y-62606181D01*
X143922381Y-62606181D01*
X144017619Y-62558562D01*
X144065238Y-62510943D01*
X144112857Y-62415705D01*
X144112857Y-61606181D01*
X144541428Y-62558562D02*
X144684285Y-62606181D01*
X144922381Y-62606181D01*
X145017619Y-62558562D01*
X145065238Y-62510943D01*
X145112857Y-62415705D01*
X145112857Y-62320467D01*
X145065238Y-62225229D01*
X145017619Y-62177610D01*
X144922381Y-62129990D01*
X144731904Y-62082371D01*
X144636666Y-62034752D01*
X144589047Y-61987133D01*
X144541428Y-61891895D01*
X144541428Y-61796657D01*
X144589047Y-61701419D01*
X144636666Y-61653800D01*
X144731904Y-61606181D01*
X144970000Y-61606181D01*
X145112857Y-61653800D01*
X145874762Y-62082371D02*
X146017619Y-62129990D01*
X146065238Y-62177610D01*
X146112857Y-62272848D01*
X146112857Y-62415705D01*
X146065238Y-62510943D01*
X146017619Y-62558562D01*
X145922381Y-62606181D01*
X145541428Y-62606181D01*
X145541428Y-61606181D01*
X145874762Y-61606181D01*
X145970000Y-61653800D01*
X146017619Y-61701419D01*
X146065238Y-61796657D01*
X146065238Y-61891895D01*
X146017619Y-61987133D01*
X145970000Y-62034752D01*
X145874762Y-62082371D01*
X145541428Y-62082371D01*
X130405381Y-84902381D02*
X129833952Y-84902381D01*
X130119666Y-84902381D02*
X130119666Y-83902381D01*
X130024428Y-84045238D01*
X129929190Y-84140476D01*
X129833952Y-84188095D01*
X131024428Y-83902381D02*
X131119667Y-83902381D01*
X131214905Y-83950000D01*
X131262524Y-83997619D01*
X131310143Y-84092857D01*
X131357762Y-84283333D01*
X131357762Y-84521429D01*
X131310143Y-84711905D01*
X131262524Y-84807143D01*
X131214905Y-84854762D01*
X131119667Y-84902381D01*
X131024428Y-84902381D01*
X130929190Y-84854762D01*
X130881571Y-84807143D01*
X130833952Y-84711905D01*
X130786333Y-84521429D01*
X130786333Y-84283333D01*
X130833952Y-84092857D01*
X130881571Y-83997619D01*
X130929190Y-83950000D01*
X131024428Y-83902381D01*
X131976809Y-83902381D02*
X132072048Y-83902381D01*
X132167286Y-83950000D01*
X132214905Y-83997619D01*
X132262524Y-84092857D01*
X132310143Y-84283333D01*
X132310143Y-84521429D01*
X132262524Y-84711905D01*
X132214905Y-84807143D01*
X132167286Y-84854762D01*
X132072048Y-84902381D01*
X131976809Y-84902381D01*
X131881571Y-84854762D01*
X131833952Y-84807143D01*
X131786333Y-84711905D01*
X131738714Y-84521429D01*
X131738714Y-84283333D01*
X131786333Y-84092857D01*
X131833952Y-83997619D01*
X131881571Y-83950000D01*
X131976809Y-83902381D01*
X132738714Y-84235714D02*
X132738714Y-84902381D01*
X132738714Y-84330952D02*
X132786333Y-84283333D01*
X132881571Y-84235714D01*
X133024429Y-84235714D01*
X133119667Y-84283333D01*
X133167286Y-84378571D01*
X133167286Y-84902381D01*
X133976810Y-84378571D02*
X133643476Y-84378571D01*
X133643476Y-84902381D02*
X133643476Y-83902381D01*
X134119667Y-83902381D01*
X134509239Y-96056714D02*
X134509239Y-96723381D01*
X134271143Y-95675762D02*
X134033048Y-96390048D01*
X134652096Y-96390048D01*
X134937810Y-95723381D02*
X135604477Y-95723381D01*
X135175905Y-96723381D01*
X136175905Y-95723381D02*
X136271144Y-95723381D01*
X136366382Y-95771000D01*
X136414001Y-95818619D01*
X136461620Y-95913857D01*
X136509239Y-96104333D01*
X136509239Y-96342429D01*
X136461620Y-96532905D01*
X136414001Y-96628143D01*
X136366382Y-96675762D01*
X136271144Y-96723381D01*
X136175905Y-96723381D01*
X136080667Y-96675762D01*
X136033048Y-96628143D01*
X135985429Y-96532905D01*
X135937810Y-96342429D01*
X135937810Y-96104333D01*
X135985429Y-95913857D01*
X136033048Y-95818619D01*
X136080667Y-95771000D01*
X136175905Y-95723381D01*
X137509239Y-96723381D02*
X137175905Y-96247190D01*
X136937810Y-96723381D02*
X136937810Y-95723381D01*
X137318763Y-95723381D01*
X137414001Y-95771000D01*
X137461620Y-95818619D01*
X137509239Y-95913857D01*
X137509239Y-96056714D01*
X137461620Y-96151952D01*
X137414001Y-96199571D01*
X137318763Y-96247190D01*
X136937810Y-96247190D01*
X138699715Y-96199571D02*
X139033049Y-96199571D01*
X139175906Y-96723381D02*
X138699715Y-96723381D01*
X138699715Y-95723381D01*
X139175906Y-95723381D01*
X139604477Y-96723381D02*
X139604477Y-95723381D01*
X139937811Y-96437667D01*
X140271144Y-95723381D01*
X140271144Y-96723381D01*
X140747334Y-96723381D02*
X140747334Y-95723381D01*
X161698181Y-92420781D02*
X161126752Y-92420781D01*
X161412466Y-92420781D02*
X161412466Y-91420781D01*
X161317228Y-91563638D01*
X161221990Y-91658876D01*
X161126752Y-91706495D01*
X162317228Y-91420781D02*
X162412467Y-91420781D01*
X162507705Y-91468400D01*
X162555324Y-91516019D01*
X162602943Y-91611257D01*
X162650562Y-91801733D01*
X162650562Y-92039829D01*
X162602943Y-92230305D01*
X162555324Y-92325543D01*
X162507705Y-92373162D01*
X162412467Y-92420781D01*
X162317228Y-92420781D01*
X162221990Y-92373162D01*
X162174371Y-92325543D01*
X162126752Y-92230305D01*
X162079133Y-92039829D01*
X162079133Y-91801733D01*
X162126752Y-91611257D01*
X162174371Y-91516019D01*
X162221990Y-91468400D01*
X162317228Y-91420781D01*
X163269609Y-91420781D02*
X163364848Y-91420781D01*
X163460086Y-91468400D01*
X163507705Y-91516019D01*
X163555324Y-91611257D01*
X163602943Y-91801733D01*
X163602943Y-92039829D01*
X163555324Y-92230305D01*
X163507705Y-92325543D01*
X163460086Y-92373162D01*
X163364848Y-92420781D01*
X163269609Y-92420781D01*
X163174371Y-92373162D01*
X163126752Y-92325543D01*
X163079133Y-92230305D01*
X163031514Y-92039829D01*
X163031514Y-91801733D01*
X163079133Y-91611257D01*
X163126752Y-91516019D01*
X163174371Y-91468400D01*
X163269609Y-91420781D01*
X164031514Y-91754114D02*
X164031514Y-92420781D01*
X164031514Y-91849352D02*
X164079133Y-91801733D01*
X164174371Y-91754114D01*
X164317229Y-91754114D01*
X164412467Y-91801733D01*
X164460086Y-91896971D01*
X164460086Y-92420781D01*
X165269610Y-91896971D02*
X164936276Y-91896971D01*
X164936276Y-92420781D02*
X164936276Y-91420781D01*
X165412467Y-91420781D01*
X130357714Y-91522381D02*
X130976762Y-91522381D01*
X130643428Y-91903333D01*
X130786286Y-91903333D01*
X130881524Y-91950952D01*
X130929143Y-91998571D01*
X130976762Y-92093810D01*
X130976762Y-92331905D01*
X130929143Y-92427143D01*
X130881524Y-92474762D01*
X130786286Y-92522381D01*
X130500571Y-92522381D01*
X130405333Y-92474762D01*
X130357714Y-92427143D01*
X131405333Y-91855714D02*
X131405333Y-92855714D01*
X131405333Y-91903333D02*
X131500571Y-91855714D01*
X131691048Y-91855714D01*
X131786286Y-91903333D01*
X131833905Y-91950952D01*
X131881524Y-92046190D01*
X131881524Y-92331905D01*
X131833905Y-92427143D01*
X131786286Y-92474762D01*
X131691048Y-92522381D01*
X131500571Y-92522381D01*
X131405333Y-92474762D01*
X132643429Y-91998571D02*
X132310095Y-91998571D01*
X132310095Y-92522381D02*
X132310095Y-91522381D01*
X132786286Y-91522381D01*
X139147381Y-94813286D02*
X139147381Y-94194238D01*
X139528333Y-94527572D01*
X139528333Y-94384714D01*
X139575952Y-94289476D01*
X139623571Y-94241857D01*
X139718810Y-94194238D01*
X139956905Y-94194238D01*
X140052143Y-94241857D01*
X140099762Y-94289476D01*
X140147381Y-94384714D01*
X140147381Y-94670429D01*
X140099762Y-94765667D01*
X140052143Y-94813286D01*
X139480714Y-93765667D02*
X140480714Y-93765667D01*
X139528333Y-93765667D02*
X139480714Y-93670429D01*
X139480714Y-93479952D01*
X139528333Y-93384714D01*
X139575952Y-93337095D01*
X139671190Y-93289476D01*
X139956905Y-93289476D01*
X140052143Y-93337095D01*
X140099762Y-93384714D01*
X140147381Y-93479952D01*
X140147381Y-93670429D01*
X140099762Y-93765667D01*
X139623571Y-92527571D02*
X139623571Y-92860905D01*
X140147381Y-92860905D02*
X139147381Y-92860905D01*
X139147381Y-92384714D01*
X139141381Y-99242428D02*
X139141381Y-99813857D01*
X139141381Y-99528143D02*
X138141381Y-99528143D01*
X138284238Y-99623381D01*
X138379476Y-99718619D01*
X138427095Y-99813857D01*
X138141381Y-98623381D02*
X138141381Y-98528142D01*
X138189000Y-98432904D01*
X138236619Y-98385285D01*
X138331857Y-98337666D01*
X138522333Y-98290047D01*
X138760429Y-98290047D01*
X138950905Y-98337666D01*
X139046143Y-98385285D01*
X139093762Y-98432904D01*
X139141381Y-98528142D01*
X139141381Y-98623381D01*
X139093762Y-98718619D01*
X139046143Y-98766238D01*
X138950905Y-98813857D01*
X138760429Y-98861476D01*
X138522333Y-98861476D01*
X138331857Y-98813857D01*
X138236619Y-98766238D01*
X138189000Y-98718619D01*
X138141381Y-98623381D01*
X138474714Y-97432904D02*
X139141381Y-97432904D01*
X138474714Y-97861476D02*
X138998524Y-97861476D01*
X139093762Y-97813857D01*
X139141381Y-97718619D01*
X139141381Y-97575761D01*
X139093762Y-97480523D01*
X139046143Y-97432904D01*
X138617571Y-96623380D02*
X138617571Y-96956714D01*
X139141381Y-96956714D02*
X138141381Y-96956714D01*
X138141381Y-96480523D01*
X148205667Y-88256572D02*
X148205667Y-87780381D01*
X148491381Y-88351810D02*
X147491381Y-88018477D01*
X148491381Y-87685143D01*
X147491381Y-87494667D02*
X147491381Y-86923238D01*
X148491381Y-87208953D02*
X147491381Y-87208953D01*
X148443762Y-86637524D02*
X148491381Y-86494667D01*
X148491381Y-86256571D01*
X148443762Y-86161333D01*
X148396143Y-86113714D01*
X148300905Y-86066095D01*
X148205667Y-86066095D01*
X148110429Y-86113714D01*
X148062810Y-86161333D01*
X148015190Y-86256571D01*
X147967571Y-86447048D01*
X147919952Y-86542286D01*
X147872333Y-86589905D01*
X147777095Y-86637524D01*
X147681857Y-86637524D01*
X147586619Y-86589905D01*
X147539000Y-86542286D01*
X147491381Y-86447048D01*
X147491381Y-86208952D01*
X147539000Y-86066095D01*
X148205667Y-85685143D02*
X148205667Y-85208952D01*
X148491381Y-85780381D02*
X147491381Y-85447048D01*
X148491381Y-85113714D01*
X148491381Y-84780381D02*
X147491381Y-84780381D01*
X148205667Y-84447047D01*
X147491381Y-84113714D01*
X148491381Y-84113714D01*
X148491381Y-83637524D02*
X147491381Y-83637524D01*
X147491381Y-83399429D01*
X147539000Y-83256571D01*
X147634238Y-83161333D01*
X147729476Y-83113714D01*
X147919952Y-83066095D01*
X148062810Y-83066095D01*
X148253286Y-83113714D01*
X148348524Y-83161333D01*
X148443762Y-83256571D01*
X148491381Y-83399429D01*
X148491381Y-83637524D01*
X147586619Y-82685143D02*
X147539000Y-82637524D01*
X147491381Y-82542286D01*
X147491381Y-82304190D01*
X147539000Y-82208952D01*
X147586619Y-82161333D01*
X147681857Y-82113714D01*
X147777095Y-82113714D01*
X147919952Y-82161333D01*
X148491381Y-82732762D01*
X148491381Y-82113714D01*
X148491381Y-81161333D02*
X148491381Y-81732762D01*
X148491381Y-81447048D02*
X147491381Y-81447048D01*
X147634238Y-81542286D01*
X147729476Y-81637524D01*
X147777095Y-81732762D01*
X147491381Y-80447047D02*
X148205667Y-80447047D01*
X148348524Y-80494667D01*
X148443762Y-80589905D01*
X148491381Y-80732762D01*
X148491381Y-80828000D01*
X144248381Y-79187381D02*
X143676952Y-79187381D01*
X143962666Y-79187381D02*
X143962666Y-78187381D01*
X143867428Y-78330238D01*
X143772190Y-78425476D01*
X143676952Y-78473095D01*
X144867428Y-78187381D02*
X144962667Y-78187381D01*
X145057905Y-78235000D01*
X145105524Y-78282619D01*
X145153143Y-78377857D01*
X145200762Y-78568333D01*
X145200762Y-78806429D01*
X145153143Y-78996905D01*
X145105524Y-79092143D01*
X145057905Y-79139762D01*
X144962667Y-79187381D01*
X144867428Y-79187381D01*
X144772190Y-79139762D01*
X144724571Y-79092143D01*
X144676952Y-78996905D01*
X144629333Y-78806429D01*
X144629333Y-78568333D01*
X144676952Y-78377857D01*
X144724571Y-78282619D01*
X144772190Y-78235000D01*
X144867428Y-78187381D01*
X145819809Y-78187381D02*
X145915048Y-78187381D01*
X146010286Y-78235000D01*
X146057905Y-78282619D01*
X146105524Y-78377857D01*
X146153143Y-78568333D01*
X146153143Y-78806429D01*
X146105524Y-78996905D01*
X146057905Y-79092143D01*
X146010286Y-79139762D01*
X145915048Y-79187381D01*
X145819809Y-79187381D01*
X145724571Y-79139762D01*
X145676952Y-79092143D01*
X145629333Y-78996905D01*
X145581714Y-78806429D01*
X145581714Y-78568333D01*
X145629333Y-78377857D01*
X145676952Y-78282619D01*
X145724571Y-78235000D01*
X145819809Y-78187381D01*
X146581714Y-78520714D02*
X146581714Y-79187381D01*
X146581714Y-78615952D02*
X146629333Y-78568333D01*
X146724571Y-78520714D01*
X146867429Y-78520714D01*
X146962667Y-78568333D01*
X147010286Y-78663571D01*
X147010286Y-79187381D01*
X147819810Y-78663571D02*
X147486476Y-78663571D01*
X147486476Y-79187381D02*
X147486476Y-78187381D01*
X147962667Y-78187381D01*
X146507381Y-72350238D02*
X146507381Y-72921667D01*
X146507381Y-72635953D02*
X145507381Y-72635953D01*
X145650238Y-72731191D01*
X145745476Y-72826429D01*
X145793095Y-72921667D01*
X145840714Y-71921667D02*
X146507381Y-71921667D01*
X145935952Y-71921667D02*
X145888333Y-71874048D01*
X145840714Y-71778810D01*
X145840714Y-71635952D01*
X145888333Y-71540714D01*
X145983571Y-71493095D01*
X146507381Y-71493095D01*
X145983571Y-70683571D02*
X145983571Y-71016905D01*
X146507381Y-71016905D02*
X145507381Y-71016905D01*
X145507381Y-70540714D01*
X126695381Y-110545428D02*
X126695381Y-111116857D01*
X126695381Y-110831143D02*
X125695381Y-110831143D01*
X125838238Y-110926381D01*
X125933476Y-111021619D01*
X125981095Y-111116857D01*
X125695381Y-109926381D02*
X125695381Y-109831142D01*
X125743000Y-109735904D01*
X125790619Y-109688285D01*
X125885857Y-109640666D01*
X126076333Y-109593047D01*
X126314429Y-109593047D01*
X126504905Y-109640666D01*
X126600143Y-109688285D01*
X126647762Y-109735904D01*
X126695381Y-109831142D01*
X126695381Y-109926381D01*
X126647762Y-110021619D01*
X126600143Y-110069238D01*
X126504905Y-110116857D01*
X126314429Y-110164476D01*
X126076333Y-110164476D01*
X125885857Y-110116857D01*
X125790619Y-110069238D01*
X125743000Y-110021619D01*
X125695381Y-109926381D01*
X126028714Y-109164476D02*
X126695381Y-109164476D01*
X126123952Y-109164476D02*
X126076333Y-109116857D01*
X126028714Y-109021619D01*
X126028714Y-108878761D01*
X126076333Y-108783523D01*
X126171571Y-108735904D01*
X126695381Y-108735904D01*
X126171571Y-107926380D02*
X126171571Y-108259714D01*
X126695381Y-108259714D02*
X125695381Y-108259714D01*
X125695381Y-107783523D01*
X132146381Y-110672428D02*
X132146381Y-111243857D01*
X132146381Y-110958143D02*
X131146381Y-110958143D01*
X131289238Y-111053381D01*
X131384476Y-111148619D01*
X131432095Y-111243857D01*
X131146381Y-110053381D02*
X131146381Y-109958142D01*
X131194000Y-109862904D01*
X131241619Y-109815285D01*
X131336857Y-109767666D01*
X131527333Y-109720047D01*
X131765429Y-109720047D01*
X131955905Y-109767666D01*
X132051143Y-109815285D01*
X132098762Y-109862904D01*
X132146381Y-109958142D01*
X132146381Y-110053381D01*
X132098762Y-110148619D01*
X132051143Y-110196238D01*
X131955905Y-110243857D01*
X131765429Y-110291476D01*
X131527333Y-110291476D01*
X131336857Y-110243857D01*
X131241619Y-110196238D01*
X131194000Y-110148619D01*
X131146381Y-110053381D01*
X131146381Y-109101000D02*
X131146381Y-109005761D01*
X131194000Y-108910523D01*
X131241619Y-108862904D01*
X131336857Y-108815285D01*
X131527333Y-108767666D01*
X131765429Y-108767666D01*
X131955905Y-108815285D01*
X132051143Y-108862904D01*
X132098762Y-108910523D01*
X132146381Y-109005761D01*
X132146381Y-109101000D01*
X132098762Y-109196238D01*
X132051143Y-109243857D01*
X131955905Y-109291476D01*
X131765429Y-109339095D01*
X131527333Y-109339095D01*
X131336857Y-109291476D01*
X131241619Y-109243857D01*
X131194000Y-109196238D01*
X131146381Y-109101000D01*
X132146381Y-108339095D02*
X131146381Y-108339095D01*
X131765429Y-108243857D02*
X132146381Y-107958142D01*
X131479714Y-107958142D02*
X131860667Y-108339095D01*
X128997381Y-110910524D02*
X128997381Y-110291476D01*
X129378333Y-110624810D01*
X129378333Y-110481952D01*
X129425952Y-110386714D01*
X129473571Y-110339095D01*
X129568810Y-110291476D01*
X129806905Y-110291476D01*
X129902143Y-110339095D01*
X129949762Y-110386714D01*
X129997381Y-110481952D01*
X129997381Y-110767667D01*
X129949762Y-110862905D01*
X129902143Y-110910524D01*
X129997381Y-109815286D02*
X129997381Y-109624810D01*
X129949762Y-109529571D01*
X129902143Y-109481952D01*
X129759286Y-109386714D01*
X129568810Y-109339095D01*
X129187857Y-109339095D01*
X129092619Y-109386714D01*
X129045000Y-109434333D01*
X128997381Y-109529571D01*
X128997381Y-109720048D01*
X129045000Y-109815286D01*
X129092619Y-109862905D01*
X129187857Y-109910524D01*
X129425952Y-109910524D01*
X129521190Y-109862905D01*
X129568810Y-109815286D01*
X129616429Y-109720048D01*
X129616429Y-109529571D01*
X129568810Y-109434333D01*
X129521190Y-109386714D01*
X129425952Y-109339095D01*
X129997381Y-108339095D02*
X129521190Y-108672429D01*
X129997381Y-108910524D02*
X128997381Y-108910524D01*
X128997381Y-108529571D01*
X129045000Y-108434333D01*
X129092619Y-108386714D01*
X129187857Y-108339095D01*
X129330714Y-108339095D01*
X129425952Y-108386714D01*
X129473571Y-108434333D01*
X129521190Y-108529571D01*
X129521190Y-108910524D01*
X121286781Y-108788381D02*
X120715352Y-108788381D01*
X121001066Y-108788381D02*
X121001066Y-107788381D01*
X120905828Y-107931238D01*
X120810590Y-108026476D01*
X120715352Y-108074095D01*
X121905828Y-107788381D02*
X122001067Y-107788381D01*
X122096305Y-107836000D01*
X122143924Y-107883619D01*
X122191543Y-107978857D01*
X122239162Y-108169333D01*
X122239162Y-108407429D01*
X122191543Y-108597905D01*
X122143924Y-108693143D01*
X122096305Y-108740762D01*
X122001067Y-108788381D01*
X121905828Y-108788381D01*
X121810590Y-108740762D01*
X121762971Y-108693143D01*
X121715352Y-108597905D01*
X121667733Y-108407429D01*
X121667733Y-108169333D01*
X121715352Y-107978857D01*
X121762971Y-107883619D01*
X121810590Y-107836000D01*
X121905828Y-107788381D01*
X122858209Y-107788381D02*
X122953448Y-107788381D01*
X123048686Y-107836000D01*
X123096305Y-107883619D01*
X123143924Y-107978857D01*
X123191543Y-108169333D01*
X123191543Y-108407429D01*
X123143924Y-108597905D01*
X123096305Y-108693143D01*
X123048686Y-108740762D01*
X122953448Y-108788381D01*
X122858209Y-108788381D01*
X122762971Y-108740762D01*
X122715352Y-108693143D01*
X122667733Y-108597905D01*
X122620114Y-108407429D01*
X122620114Y-108169333D01*
X122667733Y-107978857D01*
X122715352Y-107883619D01*
X122762971Y-107836000D01*
X122858209Y-107788381D01*
X123620114Y-108121714D02*
X123620114Y-108788381D01*
X123620114Y-108216952D02*
X123667733Y-108169333D01*
X123762971Y-108121714D01*
X123905829Y-108121714D01*
X124001067Y-108169333D01*
X124048686Y-108264571D01*
X124048686Y-108788381D01*
X124858210Y-108264571D02*
X124524876Y-108264571D01*
X124524876Y-108788381D02*
X124524876Y-107788381D01*
X125001067Y-107788381D01*
X119916429Y-110436762D02*
X120059286Y-110484381D01*
X120297382Y-110484381D01*
X120392620Y-110436762D01*
X120440239Y-110389143D01*
X120487858Y-110293905D01*
X120487858Y-110198667D01*
X120440239Y-110103429D01*
X120392620Y-110055810D01*
X120297382Y-110008190D01*
X120106905Y-109960571D01*
X120011667Y-109912952D01*
X119964048Y-109865333D01*
X119916429Y-109770095D01*
X119916429Y-109674857D01*
X119964048Y-109579619D01*
X120011667Y-109532000D01*
X120106905Y-109484381D01*
X120345001Y-109484381D01*
X120487858Y-109532000D01*
X120916429Y-110484381D02*
X120916429Y-109817714D01*
X120916429Y-109484381D02*
X120868810Y-109532000D01*
X120916429Y-109579619D01*
X120964048Y-109532000D01*
X120916429Y-109484381D01*
X120916429Y-109579619D01*
X121297381Y-109484381D02*
X121964048Y-109484381D01*
X121535476Y-110484381D01*
X122535476Y-109484381D02*
X122630715Y-109484381D01*
X122725953Y-109532000D01*
X122773572Y-109579619D01*
X122821191Y-109674857D01*
X122868810Y-109865333D01*
X122868810Y-110103429D01*
X122821191Y-110293905D01*
X122773572Y-110389143D01*
X122725953Y-110436762D01*
X122630715Y-110484381D01*
X122535476Y-110484381D01*
X122440238Y-110436762D01*
X122392619Y-110389143D01*
X122345000Y-110293905D01*
X122297381Y-110103429D01*
X122297381Y-109865333D01*
X122345000Y-109674857D01*
X122392619Y-109579619D01*
X122440238Y-109532000D01*
X122535476Y-109484381D01*
X123249762Y-109579619D02*
X123297381Y-109532000D01*
X123392619Y-109484381D01*
X123630715Y-109484381D01*
X123725953Y-109532000D01*
X123773572Y-109579619D01*
X123821191Y-109674857D01*
X123821191Y-109770095D01*
X123773572Y-109912952D01*
X123202143Y-110484381D01*
X123821191Y-110484381D01*
X124773572Y-110484381D02*
X124202143Y-110484381D01*
X124487857Y-110484381D02*
X124487857Y-109484381D01*
X124392619Y-109627238D01*
X124297381Y-109722476D01*
X124202143Y-109770095D01*
X119170714Y-104195476D02*
X119837381Y-104195476D01*
X118789762Y-104433572D02*
X119504048Y-104671667D01*
X119504048Y-104052619D01*
X119837381Y-103671667D02*
X118837381Y-103671667D01*
X119456429Y-103576429D02*
X119837381Y-103290714D01*
X119170714Y-103290714D02*
X119551667Y-103671667D01*
X118837381Y-102957381D02*
X118837381Y-102290714D01*
X119837381Y-102719286D01*
X121329714Y-104195476D02*
X121996381Y-104195476D01*
X120948762Y-104433572D02*
X121663048Y-104671667D01*
X121663048Y-104052619D01*
X121996381Y-103671667D02*
X120996381Y-103671667D01*
X121615429Y-103576429D02*
X121996381Y-103290714D01*
X121329714Y-103290714D02*
X121710667Y-103671667D01*
X120996381Y-102957381D02*
X120996381Y-102290714D01*
X121996381Y-102719286D01*
X150661714Y-69706761D02*
X151328381Y-69706761D01*
X150280762Y-69944857D02*
X150995048Y-70182952D01*
X150995048Y-69563904D01*
X150328381Y-69278190D02*
X150328381Y-68611523D01*
X151328381Y-69040095D01*
X150328381Y-68040095D02*
X150328381Y-67944856D01*
X150376000Y-67849618D01*
X150423619Y-67801999D01*
X150518857Y-67754380D01*
X150709333Y-67706761D01*
X150947429Y-67706761D01*
X151137905Y-67754380D01*
X151233143Y-67801999D01*
X151280762Y-67849618D01*
X151328381Y-67944856D01*
X151328381Y-68040095D01*
X151280762Y-68135333D01*
X151233143Y-68182952D01*
X151137905Y-68230571D01*
X150947429Y-68278190D01*
X150709333Y-68278190D01*
X150518857Y-68230571D01*
X150423619Y-68182952D01*
X150376000Y-68135333D01*
X150328381Y-68040095D01*
X151328381Y-66706761D02*
X150852190Y-67040095D01*
X151328381Y-67278190D02*
X150328381Y-67278190D01*
X150328381Y-66897237D01*
X150376000Y-66801999D01*
X150423619Y-66754380D01*
X150518857Y-66706761D01*
X150661714Y-66706761D01*
X150756952Y-66754380D01*
X150804571Y-66801999D01*
X150852190Y-66897237D01*
X150852190Y-67278190D01*
X150804571Y-65516285D02*
X150804571Y-65182951D01*
X151328381Y-65040094D02*
X151328381Y-65516285D01*
X150328381Y-65516285D01*
X150328381Y-65040094D01*
X151328381Y-64611523D02*
X150328381Y-64611523D01*
X151042667Y-64278189D01*
X150328381Y-63944856D01*
X151328381Y-63944856D01*
X151328381Y-63468666D02*
X150328381Y-63468666D01*
X131178667Y-68579857D02*
X131178667Y-68103666D01*
X131464381Y-68675095D02*
X130464381Y-68341762D01*
X131464381Y-68008428D01*
X131464381Y-67675095D02*
X130464381Y-67675095D01*
X131464381Y-67103666D01*
X130464381Y-67103666D01*
X130464381Y-66770333D02*
X130464381Y-66198904D01*
X131464381Y-66484619D02*
X130464381Y-66484619D01*
X131159667Y-89854381D02*
X131778715Y-89854381D01*
X131445381Y-90235333D01*
X131588239Y-90235333D01*
X131683477Y-90282952D01*
X131731096Y-90330571D01*
X131778715Y-90425810D01*
X131778715Y-90663905D01*
X131731096Y-90759143D01*
X131683477Y-90806762D01*
X131588239Y-90854381D01*
X131302524Y-90854381D01*
X131207286Y-90806762D01*
X131159667Y-90759143D01*
X132159667Y-89949619D02*
X132207286Y-89902000D01*
X132302524Y-89854381D01*
X132540620Y-89854381D01*
X132635858Y-89902000D01*
X132683477Y-89949619D01*
X132731096Y-90044857D01*
X132731096Y-90140095D01*
X132683477Y-90282952D01*
X132112048Y-90854381D01*
X132731096Y-90854381D01*
X133159667Y-90759143D02*
X133207286Y-90806762D01*
X133159667Y-90854381D01*
X133112048Y-90806762D01*
X133159667Y-90759143D01*
X133159667Y-90854381D01*
X133540619Y-89854381D02*
X134207286Y-89854381D01*
X133778714Y-90854381D01*
X135016810Y-89854381D02*
X134826333Y-89854381D01*
X134731095Y-89902000D01*
X134683476Y-89949619D01*
X134588238Y-90092476D01*
X134540619Y-90282952D01*
X134540619Y-90663905D01*
X134588238Y-90759143D01*
X134635857Y-90806762D01*
X134731095Y-90854381D01*
X134921572Y-90854381D01*
X135016810Y-90806762D01*
X135064429Y-90759143D01*
X135112048Y-90663905D01*
X135112048Y-90425810D01*
X135064429Y-90330571D01*
X135016810Y-90282952D01*
X134921572Y-90235333D01*
X134731095Y-90235333D01*
X134635857Y-90282952D01*
X134588238Y-90330571D01*
X134540619Y-90425810D01*
X135683476Y-90282952D02*
X135588238Y-90235333D01*
X135540619Y-90187714D01*
X135493000Y-90092476D01*
X135493000Y-90044857D01*
X135540619Y-89949619D01*
X135588238Y-89902000D01*
X135683476Y-89854381D01*
X135873953Y-89854381D01*
X135969191Y-89902000D01*
X136016810Y-89949619D01*
X136064429Y-90044857D01*
X136064429Y-90092476D01*
X136016810Y-90187714D01*
X135969191Y-90235333D01*
X135873953Y-90282952D01*
X135683476Y-90282952D01*
X135588238Y-90330571D01*
X135540619Y-90378190D01*
X135493000Y-90473429D01*
X135493000Y-90663905D01*
X135540619Y-90759143D01*
X135588238Y-90806762D01*
X135683476Y-90854381D01*
X135873953Y-90854381D01*
X135969191Y-90806762D01*
X136016810Y-90759143D01*
X136064429Y-90663905D01*
X136064429Y-90473429D01*
X136016810Y-90378190D01*
X135969191Y-90330571D01*
X135873953Y-90282952D01*
X136493000Y-90854381D02*
X136493000Y-89854381D01*
X136921572Y-90854381D02*
X136921572Y-90330571D01*
X136873953Y-90235333D01*
X136778715Y-90187714D01*
X136635857Y-90187714D01*
X136540619Y-90235333D01*
X136493000Y-90282952D01*
X137302524Y-90187714D02*
X137826334Y-90187714D01*
X137302524Y-90854381D01*
X137826334Y-90854381D01*
X162774381Y-111223133D02*
X163774381Y-110985038D01*
X163060095Y-110794561D01*
X163774381Y-110604085D01*
X162774381Y-110365990D01*
X162774381Y-109508847D02*
X162774381Y-109985038D01*
X163250571Y-110032657D01*
X163202952Y-109985038D01*
X163155333Y-109889800D01*
X163155333Y-109651704D01*
X163202952Y-109556466D01*
X163250571Y-109508847D01*
X163345810Y-109461228D01*
X163583905Y-109461228D01*
X163679143Y-109508847D01*
X163726762Y-109556466D01*
X163774381Y-109651704D01*
X163774381Y-109889800D01*
X163726762Y-109985038D01*
X163679143Y-110032657D01*
X163774381Y-108508847D02*
X163774381Y-109080276D01*
X163774381Y-108794562D02*
X162774381Y-108794562D01*
X162917238Y-108889800D01*
X163012476Y-108985038D01*
X163060095Y-109080276D01*
X162774381Y-107889800D02*
X162774381Y-107794561D01*
X162822000Y-107699323D01*
X162869619Y-107651704D01*
X162964857Y-107604085D01*
X163155333Y-107556466D01*
X163393429Y-107556466D01*
X163583905Y-107604085D01*
X163679143Y-107651704D01*
X163726762Y-107699323D01*
X163774381Y-107794561D01*
X163774381Y-107889800D01*
X163726762Y-107985038D01*
X163679143Y-108032657D01*
X163583905Y-108080276D01*
X163393429Y-108127895D01*
X163155333Y-108127895D01*
X162964857Y-108080276D01*
X162869619Y-108032657D01*
X162822000Y-107985038D01*
X162774381Y-107889800D01*
X162774381Y-106937419D02*
X162774381Y-106842180D01*
X162822000Y-106746942D01*
X162869619Y-106699323D01*
X162964857Y-106651704D01*
X163155333Y-106604085D01*
X163393429Y-106604085D01*
X163583905Y-106651704D01*
X163679143Y-106699323D01*
X163726762Y-106746942D01*
X163774381Y-106842180D01*
X163774381Y-106937419D01*
X163726762Y-107032657D01*
X163679143Y-107080276D01*
X163583905Y-107127895D01*
X163393429Y-107175514D01*
X163155333Y-107175514D01*
X162964857Y-107127895D01*
X162869619Y-107080276D01*
X162822000Y-107032657D01*
X162774381Y-106937419D01*
X151260562Y-98328171D02*
X151593896Y-98328171D01*
X151736753Y-98851981D02*
X151260562Y-98851981D01*
X151260562Y-97851981D01*
X151736753Y-97851981D01*
X152117705Y-98804362D02*
X152260562Y-98851981D01*
X152498658Y-98851981D01*
X152593896Y-98804362D01*
X152641515Y-98756743D01*
X152689134Y-98661505D01*
X152689134Y-98566267D01*
X152641515Y-98471029D01*
X152593896Y-98423410D01*
X152498658Y-98375790D01*
X152308181Y-98328171D01*
X152212943Y-98280552D01*
X152165324Y-98232933D01*
X152117705Y-98137695D01*
X152117705Y-98042457D01*
X152165324Y-97947219D01*
X152212943Y-97899600D01*
X152308181Y-97851981D01*
X152546277Y-97851981D01*
X152689134Y-97899600D01*
X153117705Y-98851981D02*
X153117705Y-97851981D01*
X153498658Y-97851981D01*
X153593896Y-97899600D01*
X153641515Y-97947219D01*
X153689134Y-98042457D01*
X153689134Y-98185314D01*
X153641515Y-98280552D01*
X153593896Y-98328171D01*
X153498658Y-98375790D01*
X153117705Y-98375790D01*
X154260562Y-98280552D02*
X154165324Y-98232933D01*
X154117705Y-98185314D01*
X154070086Y-98090076D01*
X154070086Y-98042457D01*
X154117705Y-97947219D01*
X154165324Y-97899600D01*
X154260562Y-97851981D01*
X154451039Y-97851981D01*
X154546277Y-97899600D01*
X154593896Y-97947219D01*
X154641515Y-98042457D01*
X154641515Y-98090076D01*
X154593896Y-98185314D01*
X154546277Y-98232933D01*
X154451039Y-98280552D01*
X154260562Y-98280552D01*
X154165324Y-98328171D01*
X154117705Y-98375790D01*
X154070086Y-98471029D01*
X154070086Y-98661505D01*
X154117705Y-98756743D01*
X154165324Y-98804362D01*
X154260562Y-98851981D01*
X154451039Y-98851981D01*
X154546277Y-98804362D01*
X154593896Y-98756743D01*
X154641515Y-98661505D01*
X154641515Y-98471029D01*
X154593896Y-98375790D01*
X154546277Y-98328171D01*
X154451039Y-98280552D01*
X155022467Y-97947219D02*
X155070086Y-97899600D01*
X155165324Y-97851981D01*
X155403420Y-97851981D01*
X155498658Y-97899600D01*
X155546277Y-97947219D01*
X155593896Y-98042457D01*
X155593896Y-98137695D01*
X155546277Y-98280552D01*
X154974848Y-98851981D01*
X155593896Y-98851981D01*
X156451039Y-97851981D02*
X156260562Y-97851981D01*
X156165324Y-97899600D01*
X156117705Y-97947219D01*
X156022467Y-98090076D01*
X155974848Y-98280552D01*
X155974848Y-98661505D01*
X156022467Y-98756743D01*
X156070086Y-98804362D01*
X156165324Y-98851981D01*
X156355801Y-98851981D01*
X156451039Y-98804362D01*
X156498658Y-98756743D01*
X156546277Y-98661505D01*
X156546277Y-98423410D01*
X156498658Y-98328171D01*
X156451039Y-98280552D01*
X156355801Y-98232933D01*
X156165324Y-98232933D01*
X156070086Y-98280552D01*
X156022467Y-98328171D01*
X155974848Y-98423410D01*
X157403420Y-97851981D02*
X157212943Y-97851981D01*
X157117705Y-97899600D01*
X157070086Y-97947219D01*
X156974848Y-98090076D01*
X156927229Y-98280552D01*
X156927229Y-98661505D01*
X156974848Y-98756743D01*
X157022467Y-98804362D01*
X157117705Y-98851981D01*
X157308182Y-98851981D01*
X157403420Y-98804362D01*
X157451039Y-98756743D01*
X157498658Y-98661505D01*
X157498658Y-98423410D01*
X157451039Y-98328171D01*
X157403420Y-98280552D01*
X157308182Y-98232933D01*
X157117705Y-98232933D01*
X157022467Y-98280552D01*
X156974848Y-98328171D01*
X156927229Y-98423410D01*
M02*
