G04 #@! TF.FileFunction,Legend,Bot*
%FSLAX46Y46*%
G04 Gerber Fmt 4.6, Leading zero omitted, Abs format (unit mm)*
G04 Created by KiCad (PCBNEW (2015-05-09 BZR 5648)-product) date tir 01 sep 2015 15:00:45 CEST*
%MOMM*%
G01*
G04 APERTURE LIST*
%ADD10C,0.100000*%
%ADD11C,0.300000*%
%ADD12C,0.160000*%
%ADD13C,0.150000*%
%ADD14R,1.200000X2.200000*%
%ADD15O,1.727200X1.727200*%
%ADD16R,1.727200X1.727200*%
%ADD17R,2.235200X2.235200*%
%ADD18R,2.400000X0.740000*%
%ADD19O,1.050000X1.850000*%
%ADD20C,0.650000*%
%ADD21R,1.524000X0.635000*%
%ADD22O,1.524000X1.270000*%
G04 APERTURE END LIST*
D10*
D11*
X159900214Y-66083571D02*
X160400214Y-65369286D01*
X160757357Y-66083571D02*
X160757357Y-64583571D01*
X160185929Y-64583571D01*
X160043071Y-64655000D01*
X159971643Y-64726429D01*
X159900214Y-64869286D01*
X159900214Y-65083571D01*
X159971643Y-65226429D01*
X160043071Y-65297857D01*
X160185929Y-65369286D01*
X160757357Y-65369286D01*
X158685929Y-66012143D02*
X158828786Y-66083571D01*
X159114500Y-66083571D01*
X159257357Y-66012143D01*
X159328786Y-65869286D01*
X159328786Y-65297857D01*
X159257357Y-65155000D01*
X159114500Y-65083571D01*
X158828786Y-65083571D01*
X158685929Y-65155000D01*
X158614500Y-65297857D01*
X158614500Y-65440714D01*
X159328786Y-65583571D01*
X158114500Y-65083571D02*
X157757357Y-66083571D01*
X157400215Y-65083571D01*
X156828786Y-66083571D02*
X156828786Y-65083571D01*
X156828786Y-64583571D02*
X156900215Y-64655000D01*
X156828786Y-64726429D01*
X156757358Y-64655000D01*
X156828786Y-64583571D01*
X156828786Y-64726429D01*
X156185929Y-66012143D02*
X156043072Y-66083571D01*
X155757357Y-66083571D01*
X155614500Y-66012143D01*
X155543072Y-65869286D01*
X155543072Y-65797857D01*
X155614500Y-65655000D01*
X155757357Y-65583571D01*
X155971643Y-65583571D01*
X156114500Y-65512143D01*
X156185929Y-65369286D01*
X156185929Y-65297857D01*
X156114500Y-65155000D01*
X155971643Y-65083571D01*
X155757357Y-65083571D01*
X155614500Y-65155000D01*
X154900214Y-66083571D02*
X154900214Y-65083571D01*
X154900214Y-64583571D02*
X154971643Y-64655000D01*
X154900214Y-64726429D01*
X154828786Y-64655000D01*
X154900214Y-64583571D01*
X154900214Y-64726429D01*
X153971642Y-66083571D02*
X154114500Y-66012143D01*
X154185928Y-65940714D01*
X154257357Y-65797857D01*
X154257357Y-65369286D01*
X154185928Y-65226429D01*
X154114500Y-65155000D01*
X153971642Y-65083571D01*
X153757357Y-65083571D01*
X153614500Y-65155000D01*
X153543071Y-65226429D01*
X153471642Y-65369286D01*
X153471642Y-65797857D01*
X153543071Y-65940714D01*
X153614500Y-66012143D01*
X153757357Y-66083571D01*
X153971642Y-66083571D01*
X152828785Y-65083571D02*
X152828785Y-66083571D01*
X152828785Y-65226429D02*
X152757357Y-65155000D01*
X152614499Y-65083571D01*
X152400214Y-65083571D01*
X152257357Y-65155000D01*
X152185928Y-65297857D01*
X152185928Y-66083571D01*
X150043071Y-64583571D02*
X149900214Y-64583571D01*
X149757357Y-64655000D01*
X149685928Y-64726429D01*
X149614499Y-64869286D01*
X149543071Y-65155000D01*
X149543071Y-65512143D01*
X149614499Y-65797857D01*
X149685928Y-65940714D01*
X149757357Y-66012143D01*
X149900214Y-66083571D01*
X150043071Y-66083571D01*
X150185928Y-66012143D01*
X150257357Y-65940714D01*
X150328785Y-65797857D01*
X150400214Y-65512143D01*
X150400214Y-65155000D01*
X150328785Y-64869286D01*
X150257357Y-64726429D01*
X150185928Y-64655000D01*
X150043071Y-64583571D01*
X148900214Y-65940714D02*
X148828786Y-66012143D01*
X148900214Y-66083571D01*
X148971643Y-66012143D01*
X148900214Y-65940714D01*
X148900214Y-66083571D01*
X147543071Y-64583571D02*
X147828785Y-64583571D01*
X147971642Y-64655000D01*
X148043071Y-64726429D01*
X148185928Y-64940714D01*
X148257357Y-65226429D01*
X148257357Y-65797857D01*
X148185928Y-65940714D01*
X148114500Y-66012143D01*
X147971642Y-66083571D01*
X147685928Y-66083571D01*
X147543071Y-66012143D01*
X147471642Y-65940714D01*
X147400214Y-65797857D01*
X147400214Y-65440714D01*
X147471642Y-65297857D01*
X147543071Y-65226429D01*
X147685928Y-65155000D01*
X147971642Y-65155000D01*
X148114500Y-65226429D01*
X148185928Y-65297857D01*
X148257357Y-65440714D01*
X159079771Y-77955143D02*
X157579771Y-77955143D01*
X158651200Y-78455143D01*
X157579771Y-78955143D01*
X159079771Y-78955143D01*
X158079771Y-79526572D02*
X159079771Y-79883715D01*
X158079771Y-80240857D02*
X159079771Y-79883715D01*
X159436914Y-79740857D01*
X159508343Y-79669429D01*
X159579771Y-79526572D01*
X159008343Y-80740857D02*
X159079771Y-80955143D01*
X159079771Y-81312286D01*
X159008343Y-81455143D01*
X158936914Y-81526572D01*
X158794057Y-81598000D01*
X158651200Y-81598000D01*
X158508343Y-81526572D01*
X158436914Y-81455143D01*
X158365486Y-81312286D01*
X158294057Y-81026572D01*
X158222629Y-80883714D01*
X158151200Y-80812286D01*
X158008343Y-80740857D01*
X157865486Y-80740857D01*
X157722629Y-80812286D01*
X157651200Y-80883714D01*
X157579771Y-81026572D01*
X157579771Y-81383714D01*
X157651200Y-81598000D01*
X159008343Y-82812285D02*
X159079771Y-82669428D01*
X159079771Y-82383714D01*
X159008343Y-82240857D01*
X158865486Y-82169428D01*
X158294057Y-82169428D01*
X158151200Y-82240857D01*
X158079771Y-82383714D01*
X158079771Y-82669428D01*
X158151200Y-82812285D01*
X158294057Y-82883714D01*
X158436914Y-82883714D01*
X158579771Y-82169428D01*
X158079771Y-83526571D02*
X159079771Y-83526571D01*
X158222629Y-83526571D02*
X158151200Y-83597999D01*
X158079771Y-83740857D01*
X158079771Y-83955142D01*
X158151200Y-84097999D01*
X158294057Y-84169428D01*
X159079771Y-84169428D01*
X159008343Y-84812285D02*
X159079771Y-84955142D01*
X159079771Y-85240857D01*
X159008343Y-85383714D01*
X158865486Y-85455142D01*
X158794057Y-85455142D01*
X158651200Y-85383714D01*
X158579771Y-85240857D01*
X158579771Y-85026571D01*
X158508343Y-84883714D01*
X158365486Y-84812285D01*
X158294057Y-84812285D01*
X158151200Y-84883714D01*
X158079771Y-85026571D01*
X158079771Y-85240857D01*
X158151200Y-85383714D01*
X159079771Y-86312286D02*
X159008343Y-86169428D01*
X158936914Y-86098000D01*
X158794057Y-86026571D01*
X158365486Y-86026571D01*
X158222629Y-86098000D01*
X158151200Y-86169428D01*
X158079771Y-86312286D01*
X158079771Y-86526571D01*
X158151200Y-86669428D01*
X158222629Y-86740857D01*
X158365486Y-86812286D01*
X158794057Y-86812286D01*
X158936914Y-86740857D01*
X159008343Y-86669428D01*
X159079771Y-86526571D01*
X159079771Y-86312286D01*
X159079771Y-87455143D02*
X158079771Y-87455143D01*
X158365486Y-87455143D02*
X158222629Y-87526571D01*
X158151200Y-87598000D01*
X158079771Y-87740857D01*
X158079771Y-87883714D01*
X159008343Y-88312285D02*
X159079771Y-88455142D01*
X159079771Y-88740857D01*
X159008343Y-88883714D01*
X158865486Y-88955142D01*
X158794057Y-88955142D01*
X158651200Y-88883714D01*
X158579771Y-88740857D01*
X158579771Y-88526571D01*
X158508343Y-88383714D01*
X158365486Y-88312285D01*
X158294057Y-88312285D01*
X158151200Y-88383714D01*
X158079771Y-88526571D01*
X158079771Y-88740857D01*
X158151200Y-88883714D01*
X157651200Y-91526571D02*
X157579771Y-91383714D01*
X157579771Y-91169428D01*
X157651200Y-90955143D01*
X157794057Y-90812285D01*
X157936914Y-90740857D01*
X158222629Y-90669428D01*
X158436914Y-90669428D01*
X158722629Y-90740857D01*
X158865486Y-90812285D01*
X159008343Y-90955143D01*
X159079771Y-91169428D01*
X159079771Y-91312285D01*
X159008343Y-91526571D01*
X158936914Y-91598000D01*
X158436914Y-91598000D01*
X158436914Y-91312285D01*
X157579771Y-92098000D02*
X159079771Y-92455143D01*
X158008343Y-92740857D01*
X159079771Y-93026571D01*
X157579771Y-93383714D01*
X161479771Y-75812286D02*
X159979771Y-75812286D01*
X161408343Y-75812286D02*
X161479771Y-75669429D01*
X161479771Y-75383715D01*
X161408343Y-75240857D01*
X161336914Y-75169429D01*
X161194057Y-75098000D01*
X160765486Y-75098000D01*
X160622629Y-75169429D01*
X160551200Y-75240857D01*
X160479771Y-75383715D01*
X160479771Y-75669429D01*
X160551200Y-75812286D01*
X161408343Y-77098000D02*
X161479771Y-76955143D01*
X161479771Y-76669429D01*
X161408343Y-76526572D01*
X161265486Y-76455143D01*
X160694057Y-76455143D01*
X160551200Y-76526572D01*
X160479771Y-76669429D01*
X160479771Y-76955143D01*
X160551200Y-77098000D01*
X160694057Y-77169429D01*
X160836914Y-77169429D01*
X160979771Y-76455143D01*
X160479771Y-77669429D02*
X161479771Y-78026572D01*
X160479771Y-78383714D01*
X161408343Y-79526571D02*
X161479771Y-79383714D01*
X161479771Y-79098000D01*
X161408343Y-78955143D01*
X161265486Y-78883714D01*
X160694057Y-78883714D01*
X160551200Y-78955143D01*
X160479771Y-79098000D01*
X160479771Y-79383714D01*
X160551200Y-79526571D01*
X160694057Y-79598000D01*
X160836914Y-79598000D01*
X160979771Y-78883714D01*
X161479771Y-80455143D02*
X161408343Y-80312285D01*
X161265486Y-80240857D01*
X159979771Y-80240857D01*
X161479771Y-81240857D02*
X161408343Y-81097999D01*
X161336914Y-81026571D01*
X161194057Y-80955142D01*
X160765486Y-80955142D01*
X160622629Y-81026571D01*
X160551200Y-81097999D01*
X160479771Y-81240857D01*
X160479771Y-81455142D01*
X160551200Y-81597999D01*
X160622629Y-81669428D01*
X160765486Y-81740857D01*
X161194057Y-81740857D01*
X161336914Y-81669428D01*
X161408343Y-81597999D01*
X161479771Y-81455142D01*
X161479771Y-81240857D01*
X160479771Y-82383714D02*
X161979771Y-82383714D01*
X160551200Y-82383714D02*
X160479771Y-82526571D01*
X160479771Y-82812285D01*
X160551200Y-82955142D01*
X160622629Y-83026571D01*
X160765486Y-83098000D01*
X161194057Y-83098000D01*
X161336914Y-83026571D01*
X161408343Y-82955142D01*
X161479771Y-82812285D01*
X161479771Y-82526571D01*
X161408343Y-82383714D01*
X161479771Y-83740857D02*
X160479771Y-83740857D01*
X160622629Y-83740857D02*
X160551200Y-83812285D01*
X160479771Y-83955143D01*
X160479771Y-84169428D01*
X160551200Y-84312285D01*
X160694057Y-84383714D01*
X161479771Y-84383714D01*
X160694057Y-84383714D02*
X160551200Y-84455143D01*
X160479771Y-84598000D01*
X160479771Y-84812285D01*
X160551200Y-84955143D01*
X160694057Y-85026571D01*
X161479771Y-85026571D01*
X161408343Y-86312285D02*
X161479771Y-86169428D01*
X161479771Y-85883714D01*
X161408343Y-85740857D01*
X161265486Y-85669428D01*
X160694057Y-85669428D01*
X160551200Y-85740857D01*
X160479771Y-85883714D01*
X160479771Y-86169428D01*
X160551200Y-86312285D01*
X160694057Y-86383714D01*
X160836914Y-86383714D01*
X160979771Y-85669428D01*
X160479771Y-87026571D02*
X161479771Y-87026571D01*
X160622629Y-87026571D02*
X160551200Y-87097999D01*
X160479771Y-87240857D01*
X160479771Y-87455142D01*
X160551200Y-87597999D01*
X160694057Y-87669428D01*
X161479771Y-87669428D01*
X160479771Y-88169428D02*
X160479771Y-88740857D01*
X159979771Y-88383714D02*
X161265486Y-88383714D01*
X161408343Y-88455142D01*
X161479771Y-88598000D01*
X161479771Y-88740857D01*
X161479771Y-90383714D02*
X159979771Y-90383714D01*
X160551200Y-90383714D02*
X160479771Y-90526571D01*
X160479771Y-90812285D01*
X160551200Y-90955142D01*
X160622629Y-91026571D01*
X160765486Y-91098000D01*
X161194057Y-91098000D01*
X161336914Y-91026571D01*
X161408343Y-90955142D01*
X161479771Y-90812285D01*
X161479771Y-90526571D01*
X161408343Y-90383714D01*
X161479771Y-91955143D02*
X161408343Y-91812285D01*
X161336914Y-91740857D01*
X161194057Y-91669428D01*
X160765486Y-91669428D01*
X160622629Y-91740857D01*
X160551200Y-91812285D01*
X160479771Y-91955143D01*
X160479771Y-92169428D01*
X160551200Y-92312285D01*
X160622629Y-92383714D01*
X160765486Y-92455143D01*
X161194057Y-92455143D01*
X161336914Y-92383714D01*
X161408343Y-92312285D01*
X161479771Y-92169428D01*
X161479771Y-91955143D01*
X161479771Y-93740857D02*
X160694057Y-93740857D01*
X160551200Y-93669428D01*
X160479771Y-93526571D01*
X160479771Y-93240857D01*
X160551200Y-93098000D01*
X161408343Y-93740857D02*
X161479771Y-93598000D01*
X161479771Y-93240857D01*
X161408343Y-93098000D01*
X161265486Y-93026571D01*
X161122629Y-93026571D01*
X160979771Y-93098000D01*
X160908343Y-93240857D01*
X160908343Y-93598000D01*
X160836914Y-93740857D01*
X161479771Y-94455143D02*
X160479771Y-94455143D01*
X160765486Y-94455143D02*
X160622629Y-94526571D01*
X160551200Y-94598000D01*
X160479771Y-94740857D01*
X160479771Y-94883714D01*
X161479771Y-96026571D02*
X159979771Y-96026571D01*
X161408343Y-96026571D02*
X161479771Y-95883714D01*
X161479771Y-95598000D01*
X161408343Y-95455142D01*
X161336914Y-95383714D01*
X161194057Y-95312285D01*
X160765486Y-95312285D01*
X160622629Y-95383714D01*
X160551200Y-95455142D01*
X160479771Y-95598000D01*
X160479771Y-95883714D01*
X160551200Y-96026571D01*
X166279771Y-73776571D02*
X164779771Y-73776571D01*
X166279771Y-74419428D02*
X165494057Y-74419428D01*
X165351200Y-74347999D01*
X165279771Y-74205142D01*
X165279771Y-73990857D01*
X165351200Y-73847999D01*
X165422629Y-73776571D01*
X165279771Y-74919428D02*
X165279771Y-75490857D01*
X164779771Y-75133714D02*
X166065486Y-75133714D01*
X166208343Y-75205142D01*
X166279771Y-75348000D01*
X166279771Y-75490857D01*
X165279771Y-75776571D02*
X165279771Y-76348000D01*
X164779771Y-75990857D02*
X166065486Y-75990857D01*
X166208343Y-76062285D01*
X166279771Y-76205143D01*
X166279771Y-76348000D01*
X165279771Y-76848000D02*
X166779771Y-76848000D01*
X165351200Y-76848000D02*
X165279771Y-76990857D01*
X165279771Y-77276571D01*
X165351200Y-77419428D01*
X165422629Y-77490857D01*
X165565486Y-77562286D01*
X165994057Y-77562286D01*
X166136914Y-77490857D01*
X166208343Y-77419428D01*
X166279771Y-77276571D01*
X166279771Y-76990857D01*
X166208343Y-76848000D01*
X166136914Y-78205143D02*
X166208343Y-78276571D01*
X166279771Y-78205143D01*
X166208343Y-78133714D01*
X166136914Y-78205143D01*
X166279771Y-78205143D01*
X165351200Y-78205143D02*
X165422629Y-78276571D01*
X165494057Y-78205143D01*
X165422629Y-78133714D01*
X165351200Y-78205143D01*
X165494057Y-78205143D01*
X164708343Y-79990857D02*
X166636914Y-78705143D01*
X164708343Y-81562286D02*
X166636914Y-80276572D01*
X166279771Y-82062287D02*
X165279771Y-82062287D01*
X165422629Y-82062287D02*
X165351200Y-82133715D01*
X165279771Y-82276573D01*
X165279771Y-82490858D01*
X165351200Y-82633715D01*
X165494057Y-82705144D01*
X166279771Y-82705144D01*
X165494057Y-82705144D02*
X165351200Y-82776573D01*
X165279771Y-82919430D01*
X165279771Y-83133715D01*
X165351200Y-83276573D01*
X165494057Y-83348001D01*
X166279771Y-83348001D01*
X165279771Y-83919430D02*
X166279771Y-84276573D01*
X165279771Y-84633715D02*
X166279771Y-84276573D01*
X166636914Y-84133715D01*
X166708343Y-84062287D01*
X166779771Y-83919430D01*
X166208343Y-85133715D02*
X166279771Y-85276572D01*
X166279771Y-85562287D01*
X166208343Y-85705144D01*
X166065486Y-85776572D01*
X165994057Y-85776572D01*
X165851200Y-85705144D01*
X165779771Y-85562287D01*
X165779771Y-85348001D01*
X165708343Y-85205144D01*
X165565486Y-85133715D01*
X165494057Y-85133715D01*
X165351200Y-85205144D01*
X165279771Y-85348001D01*
X165279771Y-85562287D01*
X165351200Y-85705144D01*
X166208343Y-86990858D02*
X166279771Y-86848001D01*
X166279771Y-86562287D01*
X166208343Y-86419430D01*
X166065486Y-86348001D01*
X165494057Y-86348001D01*
X165351200Y-86419430D01*
X165279771Y-86562287D01*
X165279771Y-86848001D01*
X165351200Y-86990858D01*
X165494057Y-87062287D01*
X165636914Y-87062287D01*
X165779771Y-86348001D01*
X165279771Y-87705144D02*
X166279771Y-87705144D01*
X165422629Y-87705144D02*
X165351200Y-87776572D01*
X165279771Y-87919430D01*
X165279771Y-88133715D01*
X165351200Y-88276572D01*
X165494057Y-88348001D01*
X166279771Y-88348001D01*
X166208343Y-88990858D02*
X166279771Y-89133715D01*
X166279771Y-89419430D01*
X166208343Y-89562287D01*
X166065486Y-89633715D01*
X165994057Y-89633715D01*
X165851200Y-89562287D01*
X165779771Y-89419430D01*
X165779771Y-89205144D01*
X165708343Y-89062287D01*
X165565486Y-88990858D01*
X165494057Y-88990858D01*
X165351200Y-89062287D01*
X165279771Y-89205144D01*
X165279771Y-89419430D01*
X165351200Y-89562287D01*
X166279771Y-90490859D02*
X166208343Y-90348001D01*
X166136914Y-90276573D01*
X165994057Y-90205144D01*
X165565486Y-90205144D01*
X165422629Y-90276573D01*
X165351200Y-90348001D01*
X165279771Y-90490859D01*
X165279771Y-90705144D01*
X165351200Y-90848001D01*
X165422629Y-90919430D01*
X165565486Y-90990859D01*
X165994057Y-90990859D01*
X166136914Y-90919430D01*
X166208343Y-90848001D01*
X166279771Y-90705144D01*
X166279771Y-90490859D01*
X166279771Y-91633716D02*
X165279771Y-91633716D01*
X165565486Y-91633716D02*
X165422629Y-91705144D01*
X165351200Y-91776573D01*
X165279771Y-91919430D01*
X165279771Y-92062287D01*
X166208343Y-92490858D02*
X166279771Y-92633715D01*
X166279771Y-92919430D01*
X166208343Y-93062287D01*
X166065486Y-93133715D01*
X165994057Y-93133715D01*
X165851200Y-93062287D01*
X165779771Y-92919430D01*
X165779771Y-92705144D01*
X165708343Y-92562287D01*
X165565486Y-92490858D01*
X165494057Y-92490858D01*
X165351200Y-92562287D01*
X165279771Y-92705144D01*
X165279771Y-92919430D01*
X165351200Y-93062287D01*
X166136914Y-93776573D02*
X166208343Y-93848001D01*
X166279771Y-93776573D01*
X166208343Y-93705144D01*
X166136914Y-93776573D01*
X166279771Y-93776573D01*
X166279771Y-94705145D02*
X166208343Y-94562287D01*
X166136914Y-94490859D01*
X165994057Y-94419430D01*
X165565486Y-94419430D01*
X165422629Y-94490859D01*
X165351200Y-94562287D01*
X165279771Y-94705145D01*
X165279771Y-94919430D01*
X165351200Y-95062287D01*
X165422629Y-95133716D01*
X165565486Y-95205145D01*
X165994057Y-95205145D01*
X166136914Y-95133716D01*
X166208343Y-95062287D01*
X166279771Y-94919430D01*
X166279771Y-94705145D01*
X166279771Y-95848002D02*
X165279771Y-95848002D01*
X165565486Y-95848002D02*
X165422629Y-95919430D01*
X165351200Y-95990859D01*
X165279771Y-96133716D01*
X165279771Y-96276573D01*
X165279771Y-97419430D02*
X166494057Y-97419430D01*
X166636914Y-97348001D01*
X166708343Y-97276573D01*
X166779771Y-97133716D01*
X166779771Y-96919430D01*
X166708343Y-96776573D01*
X166208343Y-97419430D02*
X166279771Y-97276573D01*
X166279771Y-96990859D01*
X166208343Y-96848001D01*
X166136914Y-96776573D01*
X165994057Y-96705144D01*
X165565486Y-96705144D01*
X165422629Y-96776573D01*
X165351200Y-96848001D01*
X165279771Y-96990859D01*
X165279771Y-97276573D01*
X165351200Y-97419430D01*
X136596628Y-108062171D02*
X136596628Y-109133600D01*
X136668056Y-109347886D01*
X136810913Y-109490743D01*
X137025199Y-109562171D01*
X137168056Y-109562171D01*
X136096628Y-108062171D02*
X135239485Y-108062171D01*
X135668056Y-109562171D02*
X135668056Y-108062171D01*
X134810914Y-109133600D02*
X134096628Y-109133600D01*
X134953771Y-109562171D02*
X134453771Y-108062171D01*
X133953771Y-109562171D01*
X132668057Y-108133600D02*
X132810914Y-108062171D01*
X133025200Y-108062171D01*
X133239485Y-108133600D01*
X133382343Y-108276457D01*
X133453771Y-108419314D01*
X133525200Y-108705029D01*
X133525200Y-108919314D01*
X133453771Y-109205029D01*
X133382343Y-109347886D01*
X133239485Y-109490743D01*
X133025200Y-109562171D01*
X132882343Y-109562171D01*
X132668057Y-109490743D01*
X132596628Y-109419314D01*
X132596628Y-108919314D01*
X132882343Y-108919314D01*
X130810914Y-109562171D02*
X130810914Y-108062171D01*
X129239485Y-109419314D02*
X129310914Y-109490743D01*
X129525200Y-109562171D01*
X129668057Y-109562171D01*
X129882342Y-109490743D01*
X130025200Y-109347886D01*
X130096628Y-109205029D01*
X130168057Y-108919314D01*
X130168057Y-108705029D01*
X130096628Y-108419314D01*
X130025200Y-108276457D01*
X129882342Y-108133600D01*
X129668057Y-108062171D01*
X129525200Y-108062171D01*
X129310914Y-108133600D01*
X129239485Y-108205029D01*
X128596628Y-108776457D02*
X128096628Y-108776457D01*
X127882342Y-109562171D02*
X128596628Y-109562171D01*
X128596628Y-108062171D01*
X127882342Y-108062171D01*
X127382342Y-108062171D02*
X126453771Y-108062171D01*
X126953771Y-108633600D01*
X126739485Y-108633600D01*
X126596628Y-108705029D01*
X126525199Y-108776457D01*
X126453771Y-108919314D01*
X126453771Y-109276457D01*
X126525199Y-109419314D01*
X126596628Y-109490743D01*
X126739485Y-109562171D01*
X127168057Y-109562171D01*
X127310914Y-109490743D01*
X127382342Y-109419314D01*
X137668057Y-111962171D02*
X137668057Y-110462171D01*
X137310914Y-110462171D01*
X137096629Y-110533600D01*
X136953771Y-110676457D01*
X136882343Y-110819314D01*
X136810914Y-111105029D01*
X136810914Y-111319314D01*
X136882343Y-111605029D01*
X136953771Y-111747886D01*
X137096629Y-111890743D01*
X137310914Y-111962171D01*
X137668057Y-111962171D01*
X135596629Y-111890743D02*
X135739486Y-111962171D01*
X136025200Y-111962171D01*
X136168057Y-111890743D01*
X136239486Y-111747886D01*
X136239486Y-111176457D01*
X136168057Y-111033600D01*
X136025200Y-110962171D01*
X135739486Y-110962171D01*
X135596629Y-111033600D01*
X135525200Y-111176457D01*
X135525200Y-111319314D01*
X136239486Y-111462171D01*
X134882343Y-111962171D02*
X134882343Y-110462171D01*
X134882343Y-111033600D02*
X134739486Y-110962171D01*
X134453772Y-110962171D01*
X134310915Y-111033600D01*
X134239486Y-111105029D01*
X134168057Y-111247886D01*
X134168057Y-111676457D01*
X134239486Y-111819314D01*
X134310915Y-111890743D01*
X134453772Y-111962171D01*
X134739486Y-111962171D01*
X134882343Y-111890743D01*
X132882343Y-110962171D02*
X132882343Y-111962171D01*
X133525200Y-110962171D02*
X133525200Y-111747886D01*
X133453772Y-111890743D01*
X133310914Y-111962171D01*
X133096629Y-111962171D01*
X132953772Y-111890743D01*
X132882343Y-111819314D01*
X131525200Y-110962171D02*
X131525200Y-112176457D01*
X131596629Y-112319314D01*
X131668057Y-112390743D01*
X131810914Y-112462171D01*
X132025200Y-112462171D01*
X132168057Y-112390743D01*
X131525200Y-111890743D02*
X131668057Y-111962171D01*
X131953771Y-111962171D01*
X132096629Y-111890743D01*
X132168057Y-111819314D01*
X132239486Y-111676457D01*
X132239486Y-111247886D01*
X132168057Y-111105029D01*
X132096629Y-111033600D01*
X131953771Y-110962171D01*
X131668057Y-110962171D01*
X131525200Y-111033600D01*
X129668057Y-110962171D02*
X129668057Y-112462171D01*
X129668057Y-111033600D02*
X129525200Y-110962171D01*
X129239486Y-110962171D01*
X129096629Y-111033600D01*
X129025200Y-111105029D01*
X128953771Y-111247886D01*
X128953771Y-111676457D01*
X129025200Y-111819314D01*
X129096629Y-111890743D01*
X129239486Y-111962171D01*
X129525200Y-111962171D01*
X129668057Y-111890743D01*
X128096628Y-111962171D02*
X128239486Y-111890743D01*
X128310914Y-111819314D01*
X128382343Y-111676457D01*
X128382343Y-111247886D01*
X128310914Y-111105029D01*
X128239486Y-111033600D01*
X128096628Y-110962171D01*
X127882343Y-110962171D01*
X127739486Y-111033600D01*
X127668057Y-111105029D01*
X127596628Y-111247886D01*
X127596628Y-111676457D01*
X127668057Y-111819314D01*
X127739486Y-111890743D01*
X127882343Y-111962171D01*
X128096628Y-111962171D01*
X126953771Y-111962171D02*
X126953771Y-110962171D01*
X126953771Y-111247886D02*
X126882343Y-111105029D01*
X126810914Y-111033600D01*
X126668057Y-110962171D01*
X126525200Y-110962171D01*
X126239486Y-110962171D02*
X125668057Y-110962171D01*
X126025200Y-110462171D02*
X126025200Y-111747886D01*
X125953772Y-111890743D01*
X125810914Y-111962171D01*
X125668057Y-111962171D01*
D12*
X138404524Y-81476905D02*
X138404524Y-82124524D01*
X138366429Y-82200714D01*
X138328333Y-82238810D01*
X138252143Y-82276905D01*
X138099762Y-82276905D01*
X138023571Y-82238810D01*
X137985476Y-82200714D01*
X137947381Y-82124524D01*
X137947381Y-81476905D01*
X137642619Y-81476905D02*
X137109286Y-81476905D01*
X137452143Y-82276905D01*
X128758905Y-81375524D02*
X128377952Y-81108857D01*
X128758905Y-80918381D02*
X127958905Y-80918381D01*
X127958905Y-81223143D01*
X127997000Y-81299334D01*
X128035095Y-81337429D01*
X128111286Y-81375524D01*
X128225571Y-81375524D01*
X128301762Y-81337429D01*
X128339857Y-81299334D01*
X128377952Y-81223143D01*
X128377952Y-80918381D01*
X128339857Y-81985048D02*
X128339857Y-81718381D01*
X128758905Y-81718381D02*
X127958905Y-81718381D01*
X127958905Y-82099334D01*
X128758905Y-82404095D02*
X127958905Y-82404095D01*
X128530333Y-82670762D01*
X127958905Y-82937429D01*
X128758905Y-82937429D01*
X127958905Y-83661238D02*
X127958905Y-83508857D01*
X127997000Y-83432667D01*
X128035095Y-83394572D01*
X128149381Y-83318381D01*
X128301762Y-83280286D01*
X128606524Y-83280286D01*
X128682714Y-83318381D01*
X128720810Y-83356476D01*
X128758905Y-83432667D01*
X128758905Y-83585048D01*
X128720810Y-83661238D01*
X128682714Y-83699334D01*
X128606524Y-83737429D01*
X128416048Y-83737429D01*
X128339857Y-83699334D01*
X128301762Y-83661238D01*
X128263667Y-83585048D01*
X128263667Y-83432667D01*
X128301762Y-83356476D01*
X128339857Y-83318381D01*
X128416048Y-83280286D01*
X128758905Y-84118381D02*
X128758905Y-84270762D01*
X128720810Y-84346953D01*
X128682714Y-84385048D01*
X128568429Y-84461239D01*
X128416048Y-84499334D01*
X128111286Y-84499334D01*
X128035095Y-84461239D01*
X127997000Y-84423143D01*
X127958905Y-84346953D01*
X127958905Y-84194572D01*
X127997000Y-84118381D01*
X128035095Y-84080286D01*
X128111286Y-84042191D01*
X128301762Y-84042191D01*
X128377952Y-84080286D01*
X128416048Y-84118381D01*
X128454143Y-84194572D01*
X128454143Y-84346953D01*
X128416048Y-84423143D01*
X128377952Y-84461239D01*
X128301762Y-84499334D01*
X128758905Y-84842191D02*
X127958905Y-84842191D01*
X128339857Y-84842191D02*
X128339857Y-85299334D01*
X128758905Y-85299334D02*
X127958905Y-85299334D01*
X127958905Y-85604096D02*
X128758905Y-85794572D01*
X128187476Y-85946953D01*
X128758905Y-86099334D01*
X127958905Y-86289810D01*
D13*
X128519181Y-103198705D02*
X127519181Y-103198705D01*
X127519181Y-103579658D01*
X127566800Y-103674896D01*
X127614419Y-103722515D01*
X127709657Y-103770134D01*
X127852514Y-103770134D01*
X127947752Y-103722515D01*
X127995371Y-103674896D01*
X128042990Y-103579658D01*
X128042990Y-103198705D01*
X127519181Y-104674896D02*
X127519181Y-104198705D01*
X127995371Y-104151086D01*
X127947752Y-104198705D01*
X127900133Y-104293943D01*
X127900133Y-104532039D01*
X127947752Y-104627277D01*
X127995371Y-104674896D01*
X128090610Y-104722515D01*
X128328705Y-104722515D01*
X128423943Y-104674896D01*
X128471562Y-104627277D01*
X128519181Y-104532039D01*
X128519181Y-104293943D01*
X128471562Y-104198705D01*
X128423943Y-104151086D01*
X150718781Y-78281305D02*
X149718781Y-78281305D01*
X149718781Y-78662258D01*
X149766400Y-78757496D01*
X149814019Y-78805115D01*
X149909257Y-78852734D01*
X150052114Y-78852734D01*
X150147352Y-78805115D01*
X150194971Y-78757496D01*
X150242590Y-78662258D01*
X150242590Y-78281305D01*
X149718781Y-79709877D02*
X149718781Y-79519400D01*
X149766400Y-79424162D01*
X149814019Y-79376543D01*
X149956876Y-79281305D01*
X150147352Y-79233686D01*
X150528305Y-79233686D01*
X150623543Y-79281305D01*
X150671162Y-79328924D01*
X150718781Y-79424162D01*
X150718781Y-79614639D01*
X150671162Y-79709877D01*
X150623543Y-79757496D01*
X150528305Y-79805115D01*
X150290210Y-79805115D01*
X150194971Y-79757496D01*
X150147352Y-79709877D01*
X150099733Y-79614639D01*
X150099733Y-79424162D01*
X150147352Y-79328924D01*
X150194971Y-79281305D01*
X150290210Y-79233686D01*
X153258781Y-78281305D02*
X152258781Y-78281305D01*
X152258781Y-78662258D01*
X152306400Y-78757496D01*
X152354019Y-78805115D01*
X152449257Y-78852734D01*
X152592114Y-78852734D01*
X152687352Y-78805115D01*
X152734971Y-78757496D01*
X152782590Y-78662258D01*
X152782590Y-78281305D01*
X152258781Y-79186067D02*
X152258781Y-79805115D01*
X152639733Y-79471781D01*
X152639733Y-79614639D01*
X152687352Y-79709877D01*
X152734971Y-79757496D01*
X152830210Y-79805115D01*
X153068305Y-79805115D01*
X153163543Y-79757496D01*
X153211162Y-79709877D01*
X153258781Y-79614639D01*
X153258781Y-79328924D01*
X153211162Y-79233686D01*
X153163543Y-79186067D01*
X148178781Y-78281305D02*
X147178781Y-78281305D01*
X147178781Y-78662258D01*
X147226400Y-78757496D01*
X147274019Y-78805115D01*
X147369257Y-78852734D01*
X147512114Y-78852734D01*
X147607352Y-78805115D01*
X147654971Y-78757496D01*
X147702590Y-78662258D01*
X147702590Y-78281305D01*
X147178781Y-79186067D02*
X147178781Y-79852734D01*
X148178781Y-79424162D01*
X145638781Y-78281305D02*
X144638781Y-78281305D01*
X144638781Y-78662258D01*
X144686400Y-78757496D01*
X144734019Y-78805115D01*
X144829257Y-78852734D01*
X144972114Y-78852734D01*
X145067352Y-78805115D01*
X145114971Y-78757496D01*
X145162590Y-78662258D01*
X145162590Y-78281305D01*
X145067352Y-79424162D02*
X145019733Y-79328924D01*
X144972114Y-79281305D01*
X144876876Y-79233686D01*
X144829257Y-79233686D01*
X144734019Y-79281305D01*
X144686400Y-79328924D01*
X144638781Y-79424162D01*
X144638781Y-79614639D01*
X144686400Y-79709877D01*
X144734019Y-79757496D01*
X144829257Y-79805115D01*
X144876876Y-79805115D01*
X144972114Y-79757496D01*
X145019733Y-79709877D01*
X145067352Y-79614639D01*
X145067352Y-79424162D01*
X145114971Y-79328924D01*
X145162590Y-79281305D01*
X145257829Y-79233686D01*
X145448305Y-79233686D01*
X145543543Y-79281305D01*
X145591162Y-79328924D01*
X145638781Y-79424162D01*
X145638781Y-79614639D01*
X145591162Y-79709877D01*
X145543543Y-79757496D01*
X145448305Y-79805115D01*
X145257829Y-79805115D01*
X145162590Y-79757496D01*
X145114971Y-79709877D01*
X145067352Y-79614639D01*
%LPC*%
D14*
X144399000Y-89773000D03*
X142399000Y-89773000D03*
X140399000Y-89773000D03*
X138399000Y-89773000D03*
X136399000Y-89773000D03*
X134399000Y-89773000D03*
X132399000Y-89773000D03*
X130399000Y-89773000D03*
X130399000Y-70873000D03*
X132399000Y-70873000D03*
X134399000Y-70873000D03*
X136399000Y-70873000D03*
X138399000Y-70873000D03*
X140399000Y-70873000D03*
X142399000Y-70873000D03*
X144399000Y-70873000D03*
D15*
X126746000Y-103378000D03*
X126746000Y-105918000D03*
X129286000Y-103378000D03*
X129286000Y-105918000D03*
X131826000Y-103378000D03*
X131826000Y-105918000D03*
D16*
X134366000Y-103378000D03*
D15*
X134366000Y-105918000D03*
X124460000Y-97790000D03*
X121920000Y-97790000D03*
X124460000Y-95250000D03*
X121920000Y-95250000D03*
X124460000Y-92710000D03*
X121920000Y-92710000D03*
X124460000Y-90170000D03*
X121920000Y-90170000D03*
X124460000Y-87630000D03*
X121920000Y-87630000D03*
X124460000Y-85090000D03*
X121920000Y-85090000D03*
D16*
X121920000Y-74930000D03*
D15*
X124460000Y-74930000D03*
X121920000Y-77470000D03*
X124460000Y-77470000D03*
X121920000Y-80010000D03*
X124460000Y-80010000D03*
X121920000Y-82550000D03*
X124460000Y-82550000D03*
D17*
X134112000Y-67437000D03*
D18*
X124129800Y-101396800D03*
X120229800Y-101396800D03*
X124129800Y-102666800D03*
X120229800Y-102666800D03*
X124129800Y-103936800D03*
X120229800Y-103936800D03*
X120229800Y-105206800D03*
X124129800Y-106476800D03*
X120229800Y-106476800D03*
D16*
X150622000Y-110490000D03*
D15*
X150622000Y-107950000D03*
X153162000Y-110490000D03*
X153162000Y-107950000D03*
X155702000Y-110490000D03*
X155702000Y-107950000D03*
X158242000Y-110490000D03*
X158242000Y-107950000D03*
X160782000Y-110490000D03*
X160782000Y-107950000D03*
D16*
X152590500Y-103314500D03*
D15*
X152590500Y-100774500D03*
X155130500Y-103314500D03*
X155130500Y-100774500D03*
X157670500Y-103314500D03*
X157670500Y-100774500D03*
X160210500Y-103314500D03*
X160210500Y-100774500D03*
D19*
X144926000Y-64777000D03*
X137776000Y-64777000D03*
X144926000Y-68227000D03*
X137776000Y-68227000D03*
D20*
X143351000Y-66902000D03*
X139351000Y-66902000D03*
D21*
X153314400Y-80098900D03*
X153314400Y-79209900D03*
D22*
X153314400Y-80416400D03*
X153314400Y-78892400D03*
D21*
X155854400Y-80098900D03*
X155854400Y-79209900D03*
D22*
X155854400Y-80416400D03*
X155854400Y-78892400D03*
D21*
X150774400Y-80098900D03*
X150774400Y-79209900D03*
D22*
X150774400Y-80416400D03*
X150774400Y-78892400D03*
D21*
X148234400Y-80098900D03*
X148234400Y-79209900D03*
D22*
X148234400Y-80416400D03*
X148234400Y-78892400D03*
M02*
