G04 #@! TF.GenerationSoftware,KiCad,Pcbnew,no-vcs-found-7406~56~ubuntu16.10.1*
G04 #@! TF.CreationDate,2016-12-23T22:43:09+01:00*
G04 #@! TF.ProjectId,MysensorsGW,4D7973656E736F727347572E6B696361,rev?*
G04 #@! TF.FileFunction,Legend,Top*
G04 #@! TF.FilePolarity,Positive*
%FSLAX46Y46*%
G04 Gerber Fmt 4.6, Leading zero omitted, Abs format (unit mm)*
G04 Created by KiCad (PCBNEW no-vcs-found-7406~56~ubuntu16.10.1) date Fri Dec 23 22:43:09 2016*
%MOMM*%
%LPD*%
G01*
G04 APERTURE LIST*
%ADD10C,0.100000*%
%ADD11C,0.300000*%
%ADD12C,0.150000*%
%ADD13C,0.160000*%
%ADD14R,0.800000X0.750000*%
%ADD15R,0.500000X0.900000*%
%ADD16R,0.750000X1.200000*%
%ADD17R,0.300000X1.500000*%
%ADD18R,1.500000X0.300000*%
%ADD19R,0.650000X1.060000*%
%ADD20R,1.200000X0.750000*%
%ADD21R,0.900000X1.200000*%
%ADD22R,1.500000X1.400000*%
%ADD23R,1.000000X1.150000*%
%ADD24R,2.032000X2.032000*%
%ADD25O,2.032000X2.032000*%
%ADD26R,0.797560X0.797560*%
%ADD27R,0.800100X0.800100*%
%ADD28R,3.657600X2.032000*%
%ADD29R,1.016000X2.032000*%
%ADD30R,1.200000X0.900000*%
%ADD31R,0.740000X2.400000*%
%ADD32R,1.500000X1.800000*%
%ADD33R,0.400000X1.700000*%
%ADD34C,0.400000*%
%ADD35O,1.050000X1.850000*%
%ADD36C,0.650000*%
%ADD37R,1.727200X1.727200*%
%ADD38O,1.727200X1.727200*%
%ADD39R,1.600000X0.700000*%
%ADD40C,1.000000*%
%ADD41R,2.200000X1.200000*%
%ADD42R,1.400000X1.200000*%
%ADD43R,1.400000X1.600000*%
%ADD44R,0.900000X0.500000*%
G04 APERTURE END LIST*
D10*
D11*
X148831371Y-95992142D02*
X149974228Y-95992142D01*
X149402800Y-96563571D02*
X149402800Y-95420714D01*
X148831371Y-88524542D02*
X149974228Y-88524542D01*
X151302257Y-95537742D02*
X151373685Y-95323457D01*
X151445114Y-95252028D01*
X151587971Y-95180600D01*
X151802257Y-95180600D01*
X151945114Y-95252028D01*
X152016542Y-95323457D01*
X152087971Y-95466314D01*
X152087971Y-96037742D01*
X150587971Y-96037742D01*
X150587971Y-95537742D01*
X150659400Y-95394885D01*
X150730828Y-95323457D01*
X150873685Y-95252028D01*
X151016542Y-95252028D01*
X151159400Y-95323457D01*
X151230828Y-95394885D01*
X151302257Y-95537742D01*
X151302257Y-96037742D01*
X152087971Y-93894885D02*
X151302257Y-93894885D01*
X151159400Y-93966314D01*
X151087971Y-94109171D01*
X151087971Y-94394885D01*
X151159400Y-94537742D01*
X152016542Y-93894885D02*
X152087971Y-94037742D01*
X152087971Y-94394885D01*
X152016542Y-94537742D01*
X151873685Y-94609171D01*
X151730828Y-94609171D01*
X151587971Y-94537742D01*
X151516542Y-94394885D01*
X151516542Y-94037742D01*
X151445114Y-93894885D01*
X151087971Y-93394885D02*
X151087971Y-92823457D01*
X150587971Y-93180600D02*
X151873685Y-93180600D01*
X152016542Y-93109171D01*
X152087971Y-92966314D01*
X152087971Y-92823457D01*
X151087971Y-92537742D02*
X151087971Y-91966314D01*
X150587971Y-92323457D02*
X151873685Y-92323457D01*
X152016542Y-92252028D01*
X152087971Y-92109171D01*
X152087971Y-91966314D01*
X152016542Y-90894885D02*
X152087971Y-91037742D01*
X152087971Y-91323457D01*
X152016542Y-91466314D01*
X151873685Y-91537742D01*
X151302257Y-91537742D01*
X151159400Y-91466314D01*
X151087971Y-91323457D01*
X151087971Y-91037742D01*
X151159400Y-90894885D01*
X151302257Y-90823457D01*
X151445114Y-90823457D01*
X151587971Y-91537742D01*
X152087971Y-90180600D02*
X151087971Y-90180600D01*
X151373685Y-90180600D02*
X151230828Y-90109171D01*
X151159400Y-90037742D01*
X151087971Y-89894885D01*
X151087971Y-89752028D01*
X151087971Y-89394885D02*
X152087971Y-89037742D01*
X151087971Y-88680600D02*
X152087971Y-89037742D01*
X152445114Y-89180600D01*
X152516542Y-89252028D01*
X152587971Y-89394885D01*
D12*
X138151080Y-97748800D02*
X138851080Y-97748800D01*
X138851080Y-98948800D02*
X138151080Y-98948800D01*
X138927280Y-97733480D02*
X137927280Y-97733480D01*
X137927280Y-96383480D02*
X138927280Y-96383480D01*
X129428800Y-83302400D02*
X129428800Y-84002400D01*
X128228800Y-84002400D02*
X128228800Y-83302400D01*
X135414000Y-89503000D02*
X136464000Y-89503000D01*
X135414000Y-79153000D02*
X136464000Y-79153000D01*
X145764000Y-79153000D02*
X144714000Y-79153000D01*
X145764000Y-89503000D02*
X144714000Y-89503000D01*
X135414000Y-89503000D02*
X135414000Y-88453000D01*
X145764000Y-89503000D02*
X145764000Y-88453000D01*
X145764000Y-79153000D02*
X145764000Y-80203000D01*
X135414000Y-79153000D02*
X135414000Y-80203000D01*
X136464000Y-89503000D02*
X136464000Y-90778000D01*
X130698400Y-77320600D02*
G75*
G03X130698400Y-77320600I-100000J0D01*
G01*
X130848400Y-76770600D02*
X130848400Y-77270600D01*
X133748400Y-76770600D02*
X130848400Y-76770600D01*
X133748400Y-77270600D02*
X133748400Y-76770600D01*
X130848400Y-77270600D02*
X133748400Y-77270600D01*
X142972000Y-72679000D02*
X143672000Y-72679000D01*
X143672000Y-73879000D02*
X142972000Y-73879000D01*
X120610000Y-104327400D02*
X120610000Y-103327400D01*
X121960000Y-103327400D02*
X121960000Y-104327400D01*
X122692800Y-104327400D02*
X122692800Y-103327400D01*
X124042800Y-103327400D02*
X124042800Y-104327400D01*
X143242514Y-109626400D02*
G75*
G03X143242514Y-109626400I-1750714J0D01*
G01*
X144541800Y-111476400D02*
X138441800Y-111476400D01*
X144541800Y-107776400D02*
X138441800Y-107776400D01*
X147472400Y-92278200D02*
X147472400Y-89738200D01*
X147192400Y-95098200D02*
X147192400Y-93548200D01*
X147472400Y-92278200D02*
X150012400Y-92278200D01*
X150292400Y-93548200D02*
X150292400Y-95098200D01*
X150292400Y-95098200D02*
X147192400Y-95098200D01*
X150012400Y-92278200D02*
X150012400Y-89738200D01*
X150012400Y-89738200D02*
X147472400Y-89738200D01*
X128685200Y-64305000D02*
X128685200Y-66205000D01*
X129785200Y-64305000D02*
X129785200Y-66205000D01*
X129235200Y-65205000D02*
X129235200Y-65655000D01*
X129485200Y-65155000D02*
X128985200Y-65155000D01*
X129235200Y-65155000D02*
X129485200Y-65405000D01*
X129485200Y-65405000D02*
X128985200Y-65405000D01*
X128985200Y-65405000D02*
X129235200Y-65155000D01*
X133193700Y-64305000D02*
X133193700Y-66205000D01*
X134293700Y-64305000D02*
X134293700Y-66205000D01*
X133743700Y-65205000D02*
X133743700Y-65655000D01*
X133993700Y-65155000D02*
X133493700Y-65155000D01*
X133743700Y-65155000D02*
X133993700Y-65405000D01*
X133993700Y-65405000D02*
X133493700Y-65405000D01*
X133493700Y-65405000D02*
X133743700Y-65155000D01*
X130312800Y-72348800D02*
X130312800Y-71348800D01*
X131662800Y-71348800D02*
X131662800Y-72348800D01*
X146775960Y-106680560D02*
X146075960Y-106680560D01*
X146075960Y-105480560D02*
X146775960Y-105480560D01*
X156086760Y-85354160D02*
X156038500Y-85354160D01*
X153287780Y-86055200D02*
X153287780Y-85354160D01*
X153287780Y-85354160D02*
X153536700Y-85354160D01*
X156086760Y-85354160D02*
X156287420Y-85354160D01*
X156287420Y-85354160D02*
X156287420Y-86055200D01*
X143052800Y-102108000D02*
X143052800Y-105156000D01*
X143052800Y-105156000D02*
X150164800Y-105156000D01*
X150164800Y-105156000D02*
X150164800Y-102108000D01*
X143052800Y-99060000D02*
X143052800Y-98298000D01*
X143052800Y-98298000D02*
X144576800Y-96012000D01*
X144576800Y-96012000D02*
X148640800Y-96012000D01*
X148640800Y-96012000D02*
X150164800Y-98298000D01*
X150164800Y-98298000D02*
X150164800Y-99060000D01*
X127720800Y-92282800D02*
X127720800Y-91582800D01*
X128920800Y-91582800D02*
X128920800Y-92282800D01*
X127186600Y-64305000D02*
X127186600Y-66205000D01*
X128286600Y-64305000D02*
X128286600Y-66205000D01*
X127736600Y-65205000D02*
X127736600Y-65655000D01*
X127986600Y-65155000D02*
X127486600Y-65155000D01*
X127736600Y-65155000D02*
X127986600Y-65405000D01*
X127986600Y-65405000D02*
X127486600Y-65405000D01*
X127486600Y-65405000D02*
X127736600Y-65155000D01*
X156651400Y-86303600D02*
X156651400Y-85603600D01*
X157851400Y-85603600D02*
X157851400Y-86303600D01*
X131861000Y-84839100D02*
X131161000Y-84839100D01*
X131161000Y-83639100D02*
X131861000Y-83639100D01*
X136255200Y-77511200D02*
X135555200Y-77511200D01*
X135555200Y-76311200D02*
X136255200Y-76311200D01*
X148117000Y-85506000D02*
X148117000Y-84806000D01*
X149317000Y-84806000D02*
X149317000Y-85506000D01*
X140833400Y-93284600D02*
X140833400Y-93984600D01*
X139633400Y-93984600D02*
X139633400Y-93284600D01*
X147329600Y-109432800D02*
X147329600Y-108732800D01*
X148529600Y-108732800D02*
X148529600Y-109432800D01*
X136306000Y-104490000D02*
X136306000Y-103790000D01*
X137506000Y-103790000D02*
X137506000Y-104490000D01*
X150682400Y-98785200D02*
X150682400Y-98085200D01*
X151882400Y-98085200D02*
X151882400Y-98785200D01*
X150580800Y-104388400D02*
X150580800Y-103688400D01*
X151780800Y-103688400D02*
X151780800Y-104388400D01*
X143667000Y-72418500D02*
X142967000Y-72418500D01*
X142967000Y-71218500D02*
X143667000Y-71218500D01*
X140603720Y-102362560D02*
X139903720Y-102362560D01*
X139903720Y-101162560D02*
X140603720Y-101162560D01*
X142692500Y-69619500D02*
X143692500Y-69619500D01*
X143692500Y-70969500D02*
X142692500Y-70969500D01*
X152922600Y-86190200D02*
X152922600Y-87190200D01*
X151572600Y-87190200D02*
X151572600Y-86190200D01*
X128661800Y-72348800D02*
X128661800Y-71348800D01*
X130011800Y-71348800D02*
X130011800Y-72348800D01*
X131450600Y-81873800D02*
X132150600Y-81873800D01*
X132150600Y-83073800D02*
X131450600Y-83073800D01*
X140603720Y-103906880D02*
X139903720Y-103906880D01*
X139903720Y-102706880D02*
X140603720Y-102706880D01*
X132038800Y-91536000D02*
X132038800Y-90836000D01*
X133238800Y-90836000D02*
X133238800Y-91536000D01*
X136200400Y-93507000D02*
X136900400Y-93507000D01*
X136900400Y-94707000D02*
X136200400Y-94707000D01*
X130183800Y-64305000D02*
X130183800Y-66205000D01*
X131283800Y-64305000D02*
X131283800Y-66205000D01*
X130733800Y-65205000D02*
X130733800Y-65655000D01*
X130983800Y-65155000D02*
X130483800Y-65155000D01*
X130733800Y-65155000D02*
X130983800Y-65405000D01*
X130983800Y-65405000D02*
X130483800Y-65405000D01*
X130483800Y-65405000D02*
X130733800Y-65155000D01*
X131963800Y-72348800D02*
X131963800Y-71348800D01*
X133313800Y-71348800D02*
X133313800Y-72348800D01*
X145852400Y-76311200D02*
X146552400Y-76311200D01*
X146552400Y-77511200D02*
X145852400Y-77511200D01*
X128743000Y-109124000D02*
X128743000Y-109824000D01*
X127543000Y-109824000D02*
X127543000Y-109124000D01*
X130469000Y-109101000D02*
X130469000Y-110101000D01*
X129119000Y-110101000D02*
X129119000Y-109101000D01*
X130770000Y-110101000D02*
X130770000Y-109101000D01*
X132120000Y-109101000D02*
X132120000Y-110101000D01*
X131682400Y-64305000D02*
X131682400Y-66205000D01*
X132782400Y-64305000D02*
X132782400Y-66205000D01*
X132232400Y-65205000D02*
X132232400Y-65655000D01*
X132482400Y-65155000D02*
X131982400Y-65155000D01*
X132232400Y-65155000D02*
X132482400Y-65405000D01*
X132482400Y-65405000D02*
X131982400Y-65405000D01*
X131982400Y-65405000D02*
X132232400Y-65155000D01*
X133614800Y-72348800D02*
X133614800Y-71348800D01*
X134964800Y-71348800D02*
X134964800Y-72348800D01*
X148401400Y-66302000D02*
X148401400Y-67302000D01*
X147051400Y-67302000D02*
X147051400Y-66302000D01*
X136473500Y-92812300D02*
X134973500Y-92812300D01*
X136473500Y-91312300D02*
X134973500Y-91312300D01*
X145652600Y-63645400D02*
X145652600Y-68895400D01*
X145652600Y-68895400D02*
X138052600Y-68895400D01*
X138052600Y-68895400D02*
X138052600Y-63645400D01*
X145652600Y-63645400D02*
X138052600Y-63645400D01*
X143988840Y-94952820D02*
X144037100Y-94952820D01*
X146787820Y-94251780D02*
X146787820Y-94952820D01*
X146787820Y-94952820D02*
X146538900Y-94952820D01*
X143988840Y-94952820D02*
X143788180Y-94952820D01*
X143788180Y-94952820D02*
X143788180Y-94251780D01*
X135316600Y-72348800D02*
X135316600Y-71348800D01*
X136666600Y-71348800D02*
X136666600Y-72348800D01*
X128346200Y-74980200D02*
X129896200Y-74980200D01*
X129896200Y-76530200D02*
X129896200Y-74980200D01*
X127076200Y-75260200D02*
X127076200Y-77800200D01*
X129616200Y-80340200D02*
X129616200Y-77800200D01*
X129616200Y-77800200D02*
X127076200Y-77800200D01*
X127076200Y-77800200D02*
X127076200Y-80340200D01*
X127076200Y-80340200D02*
X129616200Y-80340200D01*
X148158200Y-72466200D02*
X148158200Y-75006200D01*
X148438200Y-69646200D02*
X148438200Y-71196200D01*
X148158200Y-72466200D02*
X145618200Y-72466200D01*
X145338200Y-71196200D02*
X145338200Y-69646200D01*
X145338200Y-69646200D02*
X148438200Y-69646200D01*
X145618200Y-72466200D02*
X145618200Y-75006200D01*
X145618200Y-75006200D02*
X148158200Y-75006200D01*
X153482400Y-104016000D02*
X167982400Y-104016000D01*
X167982400Y-104016000D02*
X167982400Y-88516000D01*
X153482400Y-88516000D02*
X167982400Y-88516000D01*
X153482400Y-104016000D02*
X153482400Y-88516000D01*
X133654800Y-67132200D02*
X136194800Y-67132200D01*
X130834800Y-66852200D02*
X132384800Y-66852200D01*
X133654800Y-67132200D02*
X133654800Y-69672200D01*
X132384800Y-69952200D02*
X130834800Y-69952200D01*
X130834800Y-69952200D02*
X130834800Y-66852200D01*
X133654800Y-69672200D02*
X136194800Y-69672200D01*
X136194800Y-69672200D02*
X136194800Y-67132200D01*
X151892000Y-106680000D02*
X162052000Y-106680000D01*
X162052000Y-106680000D02*
X162052000Y-111760000D01*
X162052000Y-111760000D02*
X149352000Y-111760000D01*
X149352000Y-111760000D02*
X149352000Y-109220000D01*
X150622000Y-106400000D02*
X149072000Y-106400000D01*
X149352000Y-109220000D02*
X151892000Y-109220000D01*
X151892000Y-109220000D02*
X151892000Y-106680000D01*
X149072000Y-106400000D02*
X149072000Y-107950000D01*
X133096000Y-101981000D02*
X135763000Y-101981000D01*
X135763000Y-101981000D02*
X135763000Y-104648000D01*
X128016000Y-102108000D02*
X125476000Y-102108000D01*
X125476000Y-102108000D02*
X125476000Y-104648000D01*
X133096000Y-102108000D02*
X133096000Y-104648000D01*
X133096000Y-104648000D02*
X135636000Y-104648000D01*
X128016000Y-102108000D02*
X135636000Y-102108000D01*
X135636000Y-102108000D02*
X135636000Y-107188000D01*
X135636000Y-107188000D02*
X125476000Y-107188000D01*
X125476000Y-107188000D02*
X125476000Y-104648000D01*
X139172200Y-104632200D02*
X139872200Y-104632200D01*
X139872200Y-105832200D02*
X139172200Y-105832200D01*
X129295600Y-92285300D02*
X129295600Y-91585300D01*
X130495600Y-91585300D02*
X130495600Y-92285300D01*
X141438000Y-97139200D02*
X141438000Y-96139200D01*
X142788000Y-96139200D02*
X142788000Y-97139200D01*
X120650000Y-76200000D02*
X120650000Y-101600000D01*
X120650000Y-101600000D02*
X125730000Y-101600000D01*
X125730000Y-101600000D02*
X125730000Y-73660000D01*
X125730000Y-73660000D02*
X123190000Y-73660000D01*
X121920000Y-73380000D02*
X120370000Y-73380000D01*
X123190000Y-73660000D02*
X123190000Y-76200000D01*
X123190000Y-76200000D02*
X120650000Y-76200000D01*
X120370000Y-73380000D02*
X120370000Y-74930000D01*
X135011800Y-97619440D02*
X135011800Y-96619440D01*
X136361800Y-96619440D02*
X136361800Y-97619440D01*
X138046040Y-99863720D02*
X138012706Y-99897053D01*
X137912706Y-99930386D01*
X137846040Y-99930386D01*
X137746040Y-99897053D01*
X137679373Y-99830386D01*
X137646040Y-99763720D01*
X137612706Y-99630386D01*
X137612706Y-99530386D01*
X137646040Y-99397053D01*
X137679373Y-99330386D01*
X137746040Y-99263720D01*
X137846040Y-99230386D01*
X137912706Y-99230386D01*
X138012706Y-99263720D01*
X138046040Y-99297053D01*
X138312706Y-99297053D02*
X138346040Y-99263720D01*
X138412706Y-99230386D01*
X138579373Y-99230386D01*
X138646040Y-99263720D01*
X138679373Y-99297053D01*
X138712706Y-99363720D01*
X138712706Y-99430386D01*
X138679373Y-99530386D01*
X138279373Y-99930386D01*
X138712706Y-99930386D01*
X139146040Y-99230386D02*
X139212706Y-99230386D01*
X139279373Y-99263720D01*
X139312706Y-99297053D01*
X139346040Y-99363720D01*
X139379373Y-99497053D01*
X139379373Y-99663720D01*
X139346040Y-99797053D01*
X139312706Y-99863720D01*
X139279373Y-99897053D01*
X139212706Y-99930386D01*
X139146040Y-99930386D01*
X139079373Y-99897053D01*
X139046040Y-99863720D01*
X139012706Y-99797053D01*
X138979373Y-99663720D01*
X138979373Y-99497053D01*
X139012706Y-99363720D01*
X139046040Y-99297053D01*
X139079373Y-99263720D01*
X139146040Y-99230386D01*
X137866986Y-95885800D02*
X137633653Y-95885800D01*
X137633653Y-96252466D02*
X137633653Y-95552466D01*
X137966986Y-95552466D01*
X138466986Y-95885800D02*
X138566986Y-95919133D01*
X138600320Y-95952466D01*
X138633653Y-96019133D01*
X138633653Y-96119133D01*
X138600320Y-96185800D01*
X138566986Y-96219133D01*
X138500320Y-96252466D01*
X138233653Y-96252466D01*
X138233653Y-95552466D01*
X138466986Y-95552466D01*
X138533653Y-95585800D01*
X138566986Y-95619133D01*
X138600320Y-95685800D01*
X138600320Y-95752466D01*
X138566986Y-95819133D01*
X138533653Y-95852466D01*
X138466986Y-95885800D01*
X138233653Y-95885800D01*
X138900320Y-95619133D02*
X138933653Y-95585800D01*
X139000320Y-95552466D01*
X139166986Y-95552466D01*
X139233653Y-95585800D01*
X139266986Y-95619133D01*
X139300320Y-95685800D01*
X139300320Y-95752466D01*
X139266986Y-95852466D01*
X138866986Y-96252466D01*
X139300320Y-96252466D01*
X126931000Y-82967640D02*
X126897666Y-83000973D01*
X126797666Y-83034306D01*
X126731000Y-83034306D01*
X126631000Y-83000973D01*
X126564333Y-82934306D01*
X126531000Y-82867640D01*
X126497666Y-82734306D01*
X126497666Y-82634306D01*
X126531000Y-82500973D01*
X126564333Y-82434306D01*
X126631000Y-82367640D01*
X126731000Y-82334306D01*
X126797666Y-82334306D01*
X126897666Y-82367640D01*
X126931000Y-82400973D01*
X127197666Y-82400973D02*
X127231000Y-82367640D01*
X127297666Y-82334306D01*
X127464333Y-82334306D01*
X127531000Y-82367640D01*
X127564333Y-82400973D01*
X127597666Y-82467640D01*
X127597666Y-82534306D01*
X127564333Y-82634306D01*
X127164333Y-83034306D01*
X127597666Y-83034306D01*
X128197666Y-82567640D02*
X128197666Y-83034306D01*
X128031000Y-82300973D02*
X127864333Y-82800973D01*
X128297666Y-82800973D01*
X139654346Y-83777026D02*
X139654346Y-84343693D01*
X139687680Y-84410360D01*
X139721013Y-84443693D01*
X139787680Y-84477026D01*
X139921013Y-84477026D01*
X139987680Y-84443693D01*
X140021013Y-84410360D01*
X140054346Y-84343693D01*
X140054346Y-83777026D01*
X140354346Y-83843693D02*
X140387680Y-83810360D01*
X140454346Y-83777026D01*
X140621013Y-83777026D01*
X140687680Y-83810360D01*
X140721013Y-83843693D01*
X140754346Y-83910360D01*
X140754346Y-83977026D01*
X140721013Y-84077026D01*
X140321013Y-84477026D01*
X140754346Y-84477026D01*
X131744786Y-78915466D02*
X131744786Y-79482133D01*
X131778120Y-79548800D01*
X131811453Y-79582133D01*
X131878120Y-79615466D01*
X132011453Y-79615466D01*
X132078120Y-79582133D01*
X132111453Y-79548800D01*
X132144786Y-79482133D01*
X132144786Y-78915466D01*
X132411453Y-78915466D02*
X132844786Y-78915466D01*
X132611453Y-79182133D01*
X132711453Y-79182133D01*
X132778120Y-79215466D01*
X132811453Y-79248800D01*
X132844786Y-79315466D01*
X132844786Y-79482133D01*
X132811453Y-79548800D01*
X132778120Y-79582133D01*
X132711453Y-79615466D01*
X132511453Y-79615466D01*
X132444786Y-79582133D01*
X132411453Y-79548800D01*
X139631000Y-73529000D02*
X139597666Y-73562333D01*
X139497666Y-73595666D01*
X139431000Y-73595666D01*
X139331000Y-73562333D01*
X139264333Y-73495666D01*
X139231000Y-73429000D01*
X139197666Y-73295666D01*
X139197666Y-73195666D01*
X139231000Y-73062333D01*
X139264333Y-72995666D01*
X139331000Y-72929000D01*
X139431000Y-72895666D01*
X139497666Y-72895666D01*
X139597666Y-72929000D01*
X139631000Y-72962333D01*
X139897666Y-72962333D02*
X139931000Y-72929000D01*
X139997666Y-72895666D01*
X140164333Y-72895666D01*
X140231000Y-72929000D01*
X140264333Y-72962333D01*
X140297666Y-73029000D01*
X140297666Y-73095666D01*
X140264333Y-73195666D01*
X139864333Y-73595666D01*
X140297666Y-73595666D01*
X140564333Y-72962333D02*
X140597666Y-72929000D01*
X140664333Y-72895666D01*
X140831000Y-72895666D01*
X140897666Y-72929000D01*
X140931000Y-72962333D01*
X140964333Y-73029000D01*
X140964333Y-73095666D01*
X140931000Y-73195666D01*
X140531000Y-73595666D01*
X140964333Y-73595666D01*
X120888933Y-106887266D02*
X120655600Y-106553933D01*
X120488933Y-106887266D02*
X120488933Y-106187266D01*
X120755600Y-106187266D01*
X120822266Y-106220600D01*
X120855600Y-106253933D01*
X120888933Y-106320600D01*
X120888933Y-106420600D01*
X120855600Y-106487266D01*
X120822266Y-106520600D01*
X120755600Y-106553933D01*
X120488933Y-106553933D01*
X121222266Y-106887266D02*
X121355600Y-106887266D01*
X121422266Y-106853933D01*
X121455600Y-106820600D01*
X121522266Y-106720600D01*
X121555600Y-106587266D01*
X121555600Y-106320600D01*
X121522266Y-106253933D01*
X121488933Y-106220600D01*
X121422266Y-106187266D01*
X121288933Y-106187266D01*
X121222266Y-106220600D01*
X121188933Y-106253933D01*
X121155600Y-106320600D01*
X121155600Y-106487266D01*
X121188933Y-106553933D01*
X121222266Y-106587266D01*
X121288933Y-106620600D01*
X121422266Y-106620600D01*
X121488933Y-106587266D01*
X121522266Y-106553933D01*
X121555600Y-106487266D01*
X123171800Y-106887266D02*
X122938466Y-106553933D01*
X122771800Y-106887266D02*
X122771800Y-106187266D01*
X123038466Y-106187266D01*
X123105133Y-106220600D01*
X123138466Y-106253933D01*
X123171800Y-106320600D01*
X123171800Y-106420600D01*
X123138466Y-106487266D01*
X123105133Y-106520600D01*
X123038466Y-106553933D01*
X122771800Y-106553933D01*
X123838466Y-106887266D02*
X123438466Y-106887266D01*
X123638466Y-106887266D02*
X123638466Y-106187266D01*
X123571800Y-106287266D01*
X123505133Y-106353933D01*
X123438466Y-106387266D01*
X124271800Y-106187266D02*
X124338466Y-106187266D01*
X124405133Y-106220600D01*
X124438466Y-106253933D01*
X124471800Y-106320600D01*
X124505133Y-106453933D01*
X124505133Y-106620600D01*
X124471800Y-106753933D01*
X124438466Y-106820600D01*
X124405133Y-106853933D01*
X124338466Y-106887266D01*
X124271800Y-106887266D01*
X124205133Y-106853933D01*
X124171800Y-106820600D01*
X124138466Y-106753933D01*
X124105133Y-106620600D01*
X124105133Y-106453933D01*
X124138466Y-106320600D01*
X124171800Y-106253933D01*
X124205133Y-106220600D01*
X124271800Y-106187266D01*
X140527986Y-109848773D02*
X140627986Y-109882106D01*
X140794653Y-109882106D01*
X140861320Y-109848773D01*
X140894653Y-109815440D01*
X140927986Y-109748773D01*
X140927986Y-109682106D01*
X140894653Y-109615440D01*
X140861320Y-109582106D01*
X140794653Y-109548773D01*
X140661320Y-109515440D01*
X140594653Y-109482106D01*
X140561320Y-109448773D01*
X140527986Y-109382106D01*
X140527986Y-109315440D01*
X140561320Y-109248773D01*
X140594653Y-109215440D01*
X140661320Y-109182106D01*
X140827986Y-109182106D01*
X140927986Y-109215440D01*
X141161320Y-109182106D02*
X141327986Y-109882106D01*
X141461320Y-109382106D01*
X141594653Y-109882106D01*
X141761320Y-109182106D01*
X142394653Y-109882106D02*
X141994653Y-109882106D01*
X142194653Y-109882106D02*
X142194653Y-109182106D01*
X142127986Y-109282106D01*
X142061320Y-109348773D01*
X141994653Y-109382106D01*
X139258024Y-112725460D02*
X138924691Y-112249270D01*
X138686596Y-112725460D02*
X138686596Y-111725460D01*
X139067548Y-111725460D01*
X139162786Y-111773080D01*
X139210405Y-111820699D01*
X139258024Y-111915937D01*
X139258024Y-112058794D01*
X139210405Y-112154032D01*
X139162786Y-112201651D01*
X139067548Y-112249270D01*
X138686596Y-112249270D01*
X140067548Y-112677841D02*
X139972310Y-112725460D01*
X139781834Y-112725460D01*
X139686596Y-112677841D01*
X139638977Y-112582603D01*
X139638977Y-112201651D01*
X139686596Y-112106413D01*
X139781834Y-112058794D01*
X139972310Y-112058794D01*
X140067548Y-112106413D01*
X140115167Y-112201651D01*
X140115167Y-112296889D01*
X139638977Y-112392127D01*
X140496120Y-112677841D02*
X140591358Y-112725460D01*
X140781834Y-112725460D01*
X140877072Y-112677841D01*
X140924691Y-112582603D01*
X140924691Y-112534984D01*
X140877072Y-112439746D01*
X140781834Y-112392127D01*
X140638977Y-112392127D01*
X140543739Y-112344508D01*
X140496120Y-112249270D01*
X140496120Y-112201651D01*
X140543739Y-112106413D01*
X140638977Y-112058794D01*
X140781834Y-112058794D01*
X140877072Y-112106413D01*
X141734215Y-112677841D02*
X141638977Y-112725460D01*
X141448500Y-112725460D01*
X141353262Y-112677841D01*
X141305643Y-112582603D01*
X141305643Y-112201651D01*
X141353262Y-112106413D01*
X141448500Y-112058794D01*
X141638977Y-112058794D01*
X141734215Y-112106413D01*
X141781834Y-112201651D01*
X141781834Y-112296889D01*
X141305643Y-112392127D01*
X142067548Y-112058794D02*
X142448500Y-112058794D01*
X142210405Y-111725460D02*
X142210405Y-112582603D01*
X142258024Y-112677841D01*
X142353262Y-112725460D01*
X142448500Y-112725460D01*
X146825500Y-90974000D02*
X146858833Y-90874000D01*
X146892166Y-90840666D01*
X146958833Y-90807333D01*
X147058833Y-90807333D01*
X147125500Y-90840666D01*
X147158833Y-90874000D01*
X147192166Y-90940666D01*
X147192166Y-91207333D01*
X146492166Y-91207333D01*
X146492166Y-90974000D01*
X146525500Y-90907333D01*
X146558833Y-90874000D01*
X146625500Y-90840666D01*
X146692166Y-90840666D01*
X146758833Y-90874000D01*
X146792166Y-90907333D01*
X146825500Y-90974000D01*
X146825500Y-91207333D01*
X146492166Y-90607333D02*
X146492166Y-90207333D01*
X147192166Y-90407333D02*
X146492166Y-90407333D01*
X147192166Y-89607333D02*
X147192166Y-90007333D01*
X147192166Y-89807333D02*
X146492166Y-89807333D01*
X146592166Y-89874000D01*
X146658833Y-89940666D01*
X146692166Y-90007333D01*
X129460426Y-67887626D02*
X128760426Y-67887626D01*
X128760426Y-67720960D01*
X128793760Y-67620960D01*
X128860426Y-67554293D01*
X128927093Y-67520960D01*
X129060426Y-67487626D01*
X129160426Y-67487626D01*
X129293760Y-67520960D01*
X129360426Y-67554293D01*
X129427093Y-67620960D01*
X129460426Y-67720960D01*
X129460426Y-67887626D01*
X128827093Y-67220960D02*
X128793760Y-67187626D01*
X128760426Y-67120960D01*
X128760426Y-66954293D01*
X128793760Y-66887626D01*
X128827093Y-66854293D01*
X128893760Y-66820960D01*
X128960426Y-66820960D01*
X129060426Y-66854293D01*
X129460426Y-67254293D01*
X129460426Y-66820960D01*
X136740066Y-65185066D02*
X136040066Y-65185066D01*
X136040066Y-65018400D01*
X136073400Y-64918400D01*
X136140066Y-64851733D01*
X136206733Y-64818400D01*
X136340066Y-64785066D01*
X136440066Y-64785066D01*
X136573400Y-64818400D01*
X136640066Y-64851733D01*
X136706733Y-64918400D01*
X136740066Y-65018400D01*
X136740066Y-65185066D01*
X136040066Y-64151733D02*
X136040066Y-64485066D01*
X136373400Y-64518400D01*
X136340066Y-64485066D01*
X136306733Y-64418400D01*
X136306733Y-64251733D01*
X136340066Y-64185066D01*
X136373400Y-64151733D01*
X136440066Y-64118400D01*
X136606733Y-64118400D01*
X136673400Y-64151733D01*
X136706733Y-64185066D01*
X136740066Y-64251733D01*
X136740066Y-64418400D01*
X136706733Y-64485066D01*
X136673400Y-64518400D01*
X130845733Y-74738666D02*
X130612400Y-74405333D01*
X130445733Y-74738666D02*
X130445733Y-74038666D01*
X130712400Y-74038666D01*
X130779066Y-74072000D01*
X130812400Y-74105333D01*
X130845733Y-74172000D01*
X130845733Y-74272000D01*
X130812400Y-74338666D01*
X130779066Y-74372000D01*
X130712400Y-74405333D01*
X130445733Y-74405333D01*
X131479066Y-74038666D02*
X131145733Y-74038666D01*
X131112400Y-74372000D01*
X131145733Y-74338666D01*
X131212400Y-74305333D01*
X131379066Y-74305333D01*
X131445733Y-74338666D01*
X131479066Y-74372000D01*
X131512400Y-74438666D01*
X131512400Y-74605333D01*
X131479066Y-74672000D01*
X131445733Y-74705333D01*
X131379066Y-74738666D01*
X131212400Y-74738666D01*
X131145733Y-74705333D01*
X131112400Y-74672000D01*
X144771960Y-107407520D02*
X144738626Y-107440853D01*
X144638626Y-107474186D01*
X144571960Y-107474186D01*
X144471960Y-107440853D01*
X144405293Y-107374186D01*
X144371960Y-107307520D01*
X144338626Y-107174186D01*
X144338626Y-107074186D01*
X144371960Y-106940853D01*
X144405293Y-106874186D01*
X144471960Y-106807520D01*
X144571960Y-106774186D01*
X144638626Y-106774186D01*
X144738626Y-106807520D01*
X144771960Y-106840853D01*
X145438626Y-107474186D02*
X145038626Y-107474186D01*
X145238626Y-107474186D02*
X145238626Y-106774186D01*
X145171960Y-106874186D01*
X145105293Y-106940853D01*
X145038626Y-106974186D01*
X145671960Y-106774186D02*
X146105293Y-106774186D01*
X145871960Y-107040853D01*
X145971960Y-107040853D01*
X146038626Y-107074186D01*
X146071960Y-107107520D01*
X146105293Y-107174186D01*
X146105293Y-107340853D01*
X146071960Y-107407520D01*
X146038626Y-107440853D01*
X145971960Y-107474186D01*
X145771960Y-107474186D01*
X145705293Y-107440853D01*
X145671960Y-107407520D01*
X154213626Y-83467146D02*
X154213626Y-84033813D01*
X154246960Y-84100480D01*
X154280293Y-84133813D01*
X154346960Y-84167146D01*
X154480293Y-84167146D01*
X154546960Y-84133813D01*
X154580293Y-84100480D01*
X154613626Y-84033813D01*
X154613626Y-83467146D01*
X155313626Y-84167146D02*
X154913626Y-84167146D01*
X155113626Y-84167146D02*
X155113626Y-83467146D01*
X155046960Y-83567146D01*
X154980293Y-83633813D01*
X154913626Y-83667146D01*
X145742133Y-99438666D02*
X145742133Y-100005333D01*
X145775466Y-100072000D01*
X145808800Y-100105333D01*
X145875466Y-100138666D01*
X146008800Y-100138666D01*
X146075466Y-100105333D01*
X146108800Y-100072000D01*
X146142133Y-100005333D01*
X146142133Y-99438666D01*
X146842133Y-100138666D02*
X146442133Y-100138666D01*
X146642133Y-100138666D02*
X146642133Y-99438666D01*
X146575466Y-99538666D01*
X146508800Y-99605333D01*
X146442133Y-99638666D01*
X147275466Y-99438666D02*
X147342133Y-99438666D01*
X147408800Y-99472000D01*
X147442133Y-99505333D01*
X147475466Y-99572000D01*
X147508800Y-99705333D01*
X147508800Y-99872000D01*
X147475466Y-100005333D01*
X147442133Y-100072000D01*
X147408800Y-100105333D01*
X147342133Y-100138666D01*
X147275466Y-100138666D01*
X147208800Y-100105333D01*
X147175466Y-100072000D01*
X147142133Y-100005333D01*
X147108800Y-99872000D01*
X147108800Y-99705333D01*
X147142133Y-99572000D01*
X147175466Y-99505333D01*
X147208800Y-99472000D01*
X147275466Y-99438666D01*
X127417640Y-92130706D02*
X127450973Y-92164040D01*
X127484306Y-92264040D01*
X127484306Y-92330706D01*
X127450973Y-92430706D01*
X127384306Y-92497373D01*
X127317640Y-92530706D01*
X127184306Y-92564040D01*
X127084306Y-92564040D01*
X126950973Y-92530706D01*
X126884306Y-92497373D01*
X126817640Y-92430706D01*
X126784306Y-92330706D01*
X126784306Y-92264040D01*
X126817640Y-92164040D01*
X126850973Y-92130706D01*
X127484306Y-91797373D02*
X127484306Y-91664040D01*
X127450973Y-91597373D01*
X127417640Y-91564040D01*
X127317640Y-91497373D01*
X127184306Y-91464040D01*
X126917640Y-91464040D01*
X126850973Y-91497373D01*
X126817640Y-91530706D01*
X126784306Y-91597373D01*
X126784306Y-91730706D01*
X126817640Y-91797373D01*
X126850973Y-91830706D01*
X126917640Y-91864040D01*
X127084306Y-91864040D01*
X127150973Y-91830706D01*
X127184306Y-91797373D01*
X127217640Y-91730706D01*
X127217640Y-91597373D01*
X127184306Y-91530706D01*
X127150973Y-91497373D01*
X127084306Y-91464040D01*
X126808666Y-65896266D02*
X126108666Y-65896266D01*
X126108666Y-65729600D01*
X126142000Y-65629600D01*
X126208666Y-65562933D01*
X126275333Y-65529600D01*
X126408666Y-65496266D01*
X126508666Y-65496266D01*
X126642000Y-65529600D01*
X126708666Y-65562933D01*
X126775333Y-65629600D01*
X126808666Y-65729600D01*
X126808666Y-65896266D01*
X126808666Y-64829600D02*
X126808666Y-65229600D01*
X126808666Y-65029600D02*
X126108666Y-65029600D01*
X126208666Y-65096266D01*
X126275333Y-65162933D01*
X126308666Y-65229600D01*
X158663813Y-86107080D02*
X158630480Y-86140413D01*
X158530480Y-86173746D01*
X158463813Y-86173746D01*
X158363813Y-86140413D01*
X158297146Y-86073746D01*
X158263813Y-86007080D01*
X158230480Y-85873746D01*
X158230480Y-85773746D01*
X158263813Y-85640413D01*
X158297146Y-85573746D01*
X158363813Y-85507080D01*
X158463813Y-85473746D01*
X158530480Y-85473746D01*
X158630480Y-85507080D01*
X158663813Y-85540413D01*
X159330480Y-86173746D02*
X158930480Y-86173746D01*
X159130480Y-86173746D02*
X159130480Y-85473746D01*
X159063813Y-85573746D01*
X158997146Y-85640413D01*
X158930480Y-85673746D01*
X131379133Y-85924200D02*
X131345800Y-85957533D01*
X131245800Y-85990866D01*
X131179133Y-85990866D01*
X131079133Y-85957533D01*
X131012466Y-85890866D01*
X130979133Y-85824200D01*
X130945800Y-85690866D01*
X130945800Y-85590866D01*
X130979133Y-85457533D01*
X131012466Y-85390866D01*
X131079133Y-85324200D01*
X131179133Y-85290866D01*
X131245800Y-85290866D01*
X131345800Y-85324200D01*
X131379133Y-85357533D01*
X131645800Y-85357533D02*
X131679133Y-85324200D01*
X131745800Y-85290866D01*
X131912466Y-85290866D01*
X131979133Y-85324200D01*
X132012466Y-85357533D01*
X132045800Y-85424200D01*
X132045800Y-85490866D01*
X132012466Y-85590866D01*
X131612466Y-85990866D01*
X132045800Y-85990866D01*
X137012853Y-76119800D02*
X136979520Y-76153133D01*
X136879520Y-76186466D01*
X136812853Y-76186466D01*
X136712853Y-76153133D01*
X136646186Y-76086466D01*
X136612853Y-76019800D01*
X136579520Y-75886466D01*
X136579520Y-75786466D01*
X136612853Y-75653133D01*
X136646186Y-75586466D01*
X136712853Y-75519800D01*
X136812853Y-75486466D01*
X136879520Y-75486466D01*
X136979520Y-75519800D01*
X137012853Y-75553133D01*
X137246186Y-75486466D02*
X137679520Y-75486466D01*
X137446186Y-75753133D01*
X137546186Y-75753133D01*
X137612853Y-75786466D01*
X137646186Y-75819800D01*
X137679520Y-75886466D01*
X137679520Y-76053133D01*
X137646186Y-76119800D01*
X137612853Y-76153133D01*
X137546186Y-76186466D01*
X137346186Y-76186466D01*
X137279520Y-76153133D01*
X137246186Y-76119800D01*
X148691773Y-83338480D02*
X148658440Y-83371813D01*
X148558440Y-83405146D01*
X148491773Y-83405146D01*
X148391773Y-83371813D01*
X148325106Y-83305146D01*
X148291773Y-83238480D01*
X148258440Y-83105146D01*
X148258440Y-83005146D01*
X148291773Y-82871813D01*
X148325106Y-82805146D01*
X148391773Y-82738480D01*
X148491773Y-82705146D01*
X148558440Y-82705146D01*
X148658440Y-82738480D01*
X148691773Y-82771813D01*
X149291773Y-82938480D02*
X149291773Y-83405146D01*
X149125106Y-82671813D02*
X148958440Y-83171813D01*
X149391773Y-83171813D01*
X141982000Y-93751266D02*
X142015333Y-93784600D01*
X142048666Y-93884600D01*
X142048666Y-93951266D01*
X142015333Y-94051266D01*
X141948666Y-94117933D01*
X141882000Y-94151266D01*
X141748666Y-94184600D01*
X141648666Y-94184600D01*
X141515333Y-94151266D01*
X141448666Y-94117933D01*
X141382000Y-94051266D01*
X141348666Y-93951266D01*
X141348666Y-93884600D01*
X141382000Y-93784600D01*
X141415333Y-93751266D01*
X141348666Y-93117933D02*
X141348666Y-93451266D01*
X141682000Y-93484600D01*
X141648666Y-93451266D01*
X141615333Y-93384600D01*
X141615333Y-93217933D01*
X141648666Y-93151266D01*
X141682000Y-93117933D01*
X141748666Y-93084600D01*
X141915333Y-93084600D01*
X141982000Y-93117933D01*
X142015333Y-93151266D01*
X142048666Y-93217933D01*
X142048666Y-93384600D01*
X142015333Y-93451266D01*
X141982000Y-93484600D01*
X148255800Y-112054466D02*
X148289133Y-112087800D01*
X148322466Y-112187800D01*
X148322466Y-112254466D01*
X148289133Y-112354466D01*
X148222466Y-112421133D01*
X148155800Y-112454466D01*
X148022466Y-112487800D01*
X147922466Y-112487800D01*
X147789133Y-112454466D01*
X147722466Y-112421133D01*
X147655800Y-112354466D01*
X147622466Y-112254466D01*
X147622466Y-112187800D01*
X147655800Y-112087800D01*
X147689133Y-112054466D01*
X147622466Y-111454466D02*
X147622466Y-111587800D01*
X147655800Y-111654466D01*
X147689133Y-111687800D01*
X147789133Y-111754466D01*
X147922466Y-111787800D01*
X148189133Y-111787800D01*
X148255800Y-111754466D01*
X148289133Y-111721133D01*
X148322466Y-111654466D01*
X148322466Y-111521133D01*
X148289133Y-111454466D01*
X148255800Y-111421133D01*
X148189133Y-111387800D01*
X148022466Y-111387800D01*
X147955800Y-111421133D01*
X147922466Y-111454466D01*
X147889133Y-111521133D01*
X147889133Y-111654466D01*
X147922466Y-111721133D01*
X147955800Y-111754466D01*
X148022466Y-111787800D01*
X137263142Y-101563466D02*
X137310761Y-101611085D01*
X137358380Y-101753942D01*
X137358380Y-101849180D01*
X137310761Y-101992038D01*
X137215523Y-102087276D01*
X137120285Y-102134895D01*
X136929809Y-102182514D01*
X136786952Y-102182514D01*
X136596476Y-102134895D01*
X136501238Y-102087276D01*
X136406000Y-101992038D01*
X136358380Y-101849180D01*
X136358380Y-101753942D01*
X136406000Y-101611085D01*
X136453619Y-101563466D01*
X136786952Y-100992038D02*
X136739333Y-101087276D01*
X136691714Y-101134895D01*
X136596476Y-101182514D01*
X136548857Y-101182514D01*
X136453619Y-101134895D01*
X136406000Y-101087276D01*
X136358380Y-100992038D01*
X136358380Y-100801561D01*
X136406000Y-100706323D01*
X136453619Y-100658704D01*
X136548857Y-100611085D01*
X136596476Y-100611085D01*
X136691714Y-100658704D01*
X136739333Y-100706323D01*
X136786952Y-100801561D01*
X136786952Y-100992038D01*
X136834571Y-101087276D01*
X136882190Y-101134895D01*
X136977428Y-101182514D01*
X137167904Y-101182514D01*
X137263142Y-101134895D01*
X137310761Y-101087276D01*
X137358380Y-100992038D01*
X137358380Y-100801561D01*
X137310761Y-100706323D01*
X137263142Y-100658704D01*
X137167904Y-100611085D01*
X136977428Y-100611085D01*
X136882190Y-100658704D01*
X136834571Y-100706323D01*
X136786952Y-100801561D01*
X150669840Y-101448720D02*
X150636506Y-101482053D01*
X150536506Y-101515386D01*
X150469840Y-101515386D01*
X150369840Y-101482053D01*
X150303173Y-101415386D01*
X150269840Y-101348720D01*
X150236506Y-101215386D01*
X150236506Y-101115386D01*
X150269840Y-100982053D01*
X150303173Y-100915386D01*
X150369840Y-100848720D01*
X150469840Y-100815386D01*
X150536506Y-100815386D01*
X150636506Y-100848720D01*
X150669840Y-100882053D01*
X151336506Y-101515386D02*
X150936506Y-101515386D01*
X151136506Y-101515386D02*
X151136506Y-100815386D01*
X151069840Y-100915386D01*
X151003173Y-100982053D01*
X150936506Y-101015386D01*
X152003173Y-101515386D02*
X151603173Y-101515386D01*
X151803173Y-101515386D02*
X151803173Y-100815386D01*
X151736506Y-100915386D01*
X151669840Y-100982053D01*
X151603173Y-101015386D01*
X153056400Y-105316440D02*
X153089733Y-105349773D01*
X153123066Y-105449773D01*
X153123066Y-105516440D01*
X153089733Y-105616440D01*
X153023066Y-105683106D01*
X152956400Y-105716440D01*
X152823066Y-105749773D01*
X152723066Y-105749773D01*
X152589733Y-105716440D01*
X152523066Y-105683106D01*
X152456400Y-105616440D01*
X152423066Y-105516440D01*
X152423066Y-105449773D01*
X152456400Y-105349773D01*
X152489733Y-105316440D01*
X153123066Y-104649773D02*
X153123066Y-105049773D01*
X153123066Y-104849773D02*
X152423066Y-104849773D01*
X152523066Y-104916440D01*
X152589733Y-104983106D01*
X152623066Y-105049773D01*
X152489733Y-104383106D02*
X152456400Y-104349773D01*
X152423066Y-104283106D01*
X152423066Y-104116440D01*
X152456400Y-104049773D01*
X152489733Y-104016440D01*
X152556400Y-103983106D01*
X152623066Y-103983106D01*
X152723066Y-104016440D01*
X153123066Y-104416440D01*
X153123066Y-103983106D01*
X139580200Y-72055800D02*
X139546866Y-72089133D01*
X139446866Y-72122466D01*
X139380200Y-72122466D01*
X139280200Y-72089133D01*
X139213533Y-72022466D01*
X139180200Y-71955800D01*
X139146866Y-71822466D01*
X139146866Y-71722466D01*
X139180200Y-71589133D01*
X139213533Y-71522466D01*
X139280200Y-71455800D01*
X139380200Y-71422466D01*
X139446866Y-71422466D01*
X139546866Y-71455800D01*
X139580200Y-71489133D01*
X140246866Y-72122466D02*
X139846866Y-72122466D01*
X140046866Y-72122466D02*
X140046866Y-71422466D01*
X139980200Y-71522466D01*
X139913533Y-71589133D01*
X139846866Y-71622466D01*
X140846866Y-71655800D02*
X140846866Y-72122466D01*
X140680200Y-71389133D02*
X140513533Y-71889133D01*
X140946866Y-71889133D01*
X139854520Y-100681600D02*
X139821186Y-100714933D01*
X139721186Y-100748266D01*
X139654520Y-100748266D01*
X139554520Y-100714933D01*
X139487853Y-100648266D01*
X139454520Y-100581600D01*
X139421186Y-100448266D01*
X139421186Y-100348266D01*
X139454520Y-100214933D01*
X139487853Y-100148266D01*
X139554520Y-100081600D01*
X139654520Y-100048266D01*
X139721186Y-100048266D01*
X139821186Y-100081600D01*
X139854520Y-100114933D01*
X140521186Y-100748266D02*
X140121186Y-100748266D01*
X140321186Y-100748266D02*
X140321186Y-100048266D01*
X140254520Y-100148266D01*
X140187853Y-100214933D01*
X140121186Y-100248266D01*
X141121186Y-100048266D02*
X140987853Y-100048266D01*
X140921186Y-100081600D01*
X140887853Y-100114933D01*
X140821186Y-100214933D01*
X140787853Y-100348266D01*
X140787853Y-100614933D01*
X140821186Y-100681600D01*
X140854520Y-100714933D01*
X140921186Y-100748266D01*
X141054520Y-100748266D01*
X141121186Y-100714933D01*
X141154520Y-100681600D01*
X141187853Y-100614933D01*
X141187853Y-100448266D01*
X141154520Y-100381600D01*
X141121186Y-100348266D01*
X141054520Y-100314933D01*
X140921186Y-100314933D01*
X140854520Y-100348266D01*
X140821186Y-100381600D01*
X140787853Y-100448266D01*
X139294466Y-70231800D02*
X139061133Y-70231800D01*
X139061133Y-70598466D02*
X139061133Y-69898466D01*
X139394466Y-69898466D01*
X139894466Y-70231800D02*
X139994466Y-70265133D01*
X140027800Y-70298466D01*
X140061133Y-70365133D01*
X140061133Y-70465133D01*
X140027800Y-70531800D01*
X139994466Y-70565133D01*
X139927800Y-70598466D01*
X139661133Y-70598466D01*
X139661133Y-69898466D01*
X139894466Y-69898466D01*
X139961133Y-69931800D01*
X139994466Y-69965133D01*
X140027800Y-70031800D01*
X140027800Y-70098466D01*
X139994466Y-70165133D01*
X139961133Y-70198466D01*
X139894466Y-70231800D01*
X139661133Y-70231800D01*
X140727800Y-70598466D02*
X140327800Y-70598466D01*
X140527800Y-70598466D02*
X140527800Y-69898466D01*
X140461133Y-69998466D01*
X140394466Y-70065133D01*
X140327800Y-70098466D01*
X152146173Y-84802146D02*
X151912840Y-84468813D01*
X151746173Y-84802146D02*
X151746173Y-84102146D01*
X152012840Y-84102146D01*
X152079506Y-84135480D01*
X152112840Y-84168813D01*
X152146173Y-84235480D01*
X152146173Y-84335480D01*
X152112840Y-84402146D01*
X152079506Y-84435480D01*
X152012840Y-84468813D01*
X151746173Y-84468813D01*
X152812840Y-84802146D02*
X152412840Y-84802146D01*
X152612840Y-84802146D02*
X152612840Y-84102146D01*
X152546173Y-84202146D01*
X152479506Y-84268813D01*
X152412840Y-84302146D01*
X129245533Y-74738666D02*
X129012200Y-74405333D01*
X128845533Y-74738666D02*
X128845533Y-74038666D01*
X129112200Y-74038666D01*
X129178866Y-74072000D01*
X129212200Y-74105333D01*
X129245533Y-74172000D01*
X129245533Y-74272000D01*
X129212200Y-74338666D01*
X129178866Y-74372000D01*
X129112200Y-74405333D01*
X128845533Y-74405333D01*
X129845533Y-74272000D02*
X129845533Y-74738666D01*
X129678866Y-74005333D02*
X129512200Y-74505333D01*
X129945533Y-74505333D01*
X131284560Y-81509680D02*
X131251226Y-81543013D01*
X131151226Y-81576346D01*
X131084560Y-81576346D01*
X130984560Y-81543013D01*
X130917893Y-81476346D01*
X130884560Y-81409680D01*
X130851226Y-81276346D01*
X130851226Y-81176346D01*
X130884560Y-81043013D01*
X130917893Y-80976346D01*
X130984560Y-80909680D01*
X131084560Y-80876346D01*
X131151226Y-80876346D01*
X131251226Y-80909680D01*
X131284560Y-80943013D01*
X131951226Y-81576346D02*
X131551226Y-81576346D01*
X131751226Y-81576346D02*
X131751226Y-80876346D01*
X131684560Y-80976346D01*
X131617893Y-81043013D01*
X131551226Y-81076346D01*
X132184560Y-80876346D02*
X132651226Y-80876346D01*
X132351226Y-81576346D01*
X141028000Y-104504300D02*
X140994666Y-104537633D01*
X140894666Y-104570966D01*
X140828000Y-104570966D01*
X140728000Y-104537633D01*
X140661333Y-104470966D01*
X140628000Y-104404300D01*
X140594666Y-104270966D01*
X140594666Y-104170966D01*
X140628000Y-104037633D01*
X140661333Y-103970966D01*
X140728000Y-103904300D01*
X140828000Y-103870966D01*
X140894666Y-103870966D01*
X140994666Y-103904300D01*
X141028000Y-103937633D01*
X141694666Y-104570966D02*
X141294666Y-104570966D01*
X141494666Y-104570966D02*
X141494666Y-103870966D01*
X141428000Y-103970966D01*
X141361333Y-104037633D01*
X141294666Y-104070966D01*
X142328000Y-103870966D02*
X141994666Y-103870966D01*
X141961333Y-104204300D01*
X141994666Y-104170966D01*
X142061333Y-104137633D01*
X142228000Y-104137633D01*
X142294666Y-104170966D01*
X142328000Y-104204300D01*
X142361333Y-104270966D01*
X142361333Y-104437633D01*
X142328000Y-104504300D01*
X142294666Y-104537633D01*
X142228000Y-104570966D01*
X142061333Y-104570966D01*
X141994666Y-104537633D01*
X141961333Y-104504300D01*
X132914200Y-88435600D02*
X132947533Y-88468933D01*
X132980866Y-88568933D01*
X132980866Y-88635600D01*
X132947533Y-88735600D01*
X132880866Y-88802266D01*
X132814200Y-88835600D01*
X132680866Y-88868933D01*
X132580866Y-88868933D01*
X132447533Y-88835600D01*
X132380866Y-88802266D01*
X132314200Y-88735600D01*
X132280866Y-88635600D01*
X132280866Y-88568933D01*
X132314200Y-88468933D01*
X132347533Y-88435600D01*
X132980866Y-87768933D02*
X132980866Y-88168933D01*
X132980866Y-87968933D02*
X132280866Y-87968933D01*
X132380866Y-88035600D01*
X132447533Y-88102266D01*
X132480866Y-88168933D01*
X132580866Y-87368933D02*
X132547533Y-87435600D01*
X132514200Y-87468933D01*
X132447533Y-87502266D01*
X132414200Y-87502266D01*
X132347533Y-87468933D01*
X132314200Y-87435600D01*
X132280866Y-87368933D01*
X132280866Y-87235600D01*
X132314200Y-87168933D01*
X132347533Y-87135600D01*
X132414200Y-87102266D01*
X132447533Y-87102266D01*
X132514200Y-87135600D01*
X132547533Y-87168933D01*
X132580866Y-87235600D01*
X132580866Y-87368933D01*
X132614200Y-87435600D01*
X132647533Y-87468933D01*
X132714200Y-87502266D01*
X132847533Y-87502266D01*
X132914200Y-87468933D01*
X132947533Y-87435600D01*
X132980866Y-87368933D01*
X132980866Y-87235600D01*
X132947533Y-87168933D01*
X132914200Y-87135600D01*
X132847533Y-87102266D01*
X132714200Y-87102266D01*
X132647533Y-87135600D01*
X132614200Y-87168933D01*
X132580866Y-87235600D01*
X135617800Y-95484760D02*
X135584466Y-95518093D01*
X135484466Y-95551426D01*
X135417800Y-95551426D01*
X135317800Y-95518093D01*
X135251133Y-95451426D01*
X135217800Y-95384760D01*
X135184466Y-95251426D01*
X135184466Y-95151426D01*
X135217800Y-95018093D01*
X135251133Y-94951426D01*
X135317800Y-94884760D01*
X135417800Y-94851426D01*
X135484466Y-94851426D01*
X135584466Y-94884760D01*
X135617800Y-94918093D01*
X136284466Y-95551426D02*
X135884466Y-95551426D01*
X136084466Y-95551426D02*
X136084466Y-94851426D01*
X136017800Y-94951426D01*
X135951133Y-95018093D01*
X135884466Y-95051426D01*
X136617800Y-95551426D02*
X136751133Y-95551426D01*
X136817800Y-95518093D01*
X136851133Y-95484760D01*
X136917800Y-95384760D01*
X136951133Y-95251426D01*
X136951133Y-94984760D01*
X136917800Y-94918093D01*
X136884466Y-94884760D01*
X136817800Y-94851426D01*
X136684466Y-94851426D01*
X136617800Y-94884760D01*
X136584466Y-94918093D01*
X136551133Y-94984760D01*
X136551133Y-95151426D01*
X136584466Y-95218093D01*
X136617800Y-95251426D01*
X136684466Y-95284760D01*
X136817800Y-95284760D01*
X136884466Y-95251426D01*
X136917800Y-95218093D01*
X136951133Y-95151426D01*
X130644066Y-67918106D02*
X129944066Y-67918106D01*
X129944066Y-67751440D01*
X129977400Y-67651440D01*
X130044066Y-67584773D01*
X130110733Y-67551440D01*
X130244066Y-67518106D01*
X130344066Y-67518106D01*
X130477400Y-67551440D01*
X130544066Y-67584773D01*
X130610733Y-67651440D01*
X130644066Y-67751440D01*
X130644066Y-67918106D01*
X129944066Y-67284773D02*
X129944066Y-66851440D01*
X130210733Y-67084773D01*
X130210733Y-66984773D01*
X130244066Y-66918106D01*
X130277400Y-66884773D01*
X130344066Y-66851440D01*
X130510733Y-66851440D01*
X130577400Y-66884773D01*
X130610733Y-66918106D01*
X130644066Y-66984773D01*
X130644066Y-67184773D01*
X130610733Y-67251440D01*
X130577400Y-67284773D01*
X132522133Y-74738666D02*
X132288800Y-74405333D01*
X132122133Y-74738666D02*
X132122133Y-74038666D01*
X132388800Y-74038666D01*
X132455466Y-74072000D01*
X132488800Y-74105333D01*
X132522133Y-74172000D01*
X132522133Y-74272000D01*
X132488800Y-74338666D01*
X132455466Y-74372000D01*
X132388800Y-74405333D01*
X132122133Y-74405333D01*
X132788800Y-74105333D02*
X132822133Y-74072000D01*
X132888800Y-74038666D01*
X133055466Y-74038666D01*
X133122133Y-74072000D01*
X133155466Y-74105333D01*
X133188800Y-74172000D01*
X133188800Y-74238666D01*
X133155466Y-74338666D01*
X132755466Y-74738666D01*
X133188800Y-74738666D01*
X145808280Y-76013120D02*
X145774946Y-76046453D01*
X145674946Y-76079786D01*
X145608280Y-76079786D01*
X145508280Y-76046453D01*
X145441613Y-75979786D01*
X145408280Y-75913120D01*
X145374946Y-75779786D01*
X145374946Y-75679786D01*
X145408280Y-75546453D01*
X145441613Y-75479786D01*
X145508280Y-75413120D01*
X145608280Y-75379786D01*
X145674946Y-75379786D01*
X145774946Y-75413120D01*
X145808280Y-75446453D01*
X146074946Y-75446453D02*
X146108280Y-75413120D01*
X146174946Y-75379786D01*
X146341613Y-75379786D01*
X146408280Y-75413120D01*
X146441613Y-75446453D01*
X146474946Y-75513120D01*
X146474946Y-75579786D01*
X146441613Y-75679786D01*
X146041613Y-76079786D01*
X146474946Y-76079786D01*
X147141613Y-76079786D02*
X146741613Y-76079786D01*
X146941613Y-76079786D02*
X146941613Y-75379786D01*
X146874946Y-75479786D01*
X146808280Y-75546453D01*
X146741613Y-75579786D01*
X126970600Y-111244800D02*
X127003933Y-111278133D01*
X127037266Y-111378133D01*
X127037266Y-111444800D01*
X127003933Y-111544800D01*
X126937266Y-111611466D01*
X126870600Y-111644800D01*
X126737266Y-111678133D01*
X126637266Y-111678133D01*
X126503933Y-111644800D01*
X126437266Y-111611466D01*
X126370600Y-111544800D01*
X126337266Y-111444800D01*
X126337266Y-111378133D01*
X126370600Y-111278133D01*
X126403933Y-111244800D01*
X126403933Y-110978133D02*
X126370600Y-110944800D01*
X126337266Y-110878133D01*
X126337266Y-110711466D01*
X126370600Y-110644800D01*
X126403933Y-110611466D01*
X126470600Y-110578133D01*
X126537266Y-110578133D01*
X126637266Y-110611466D01*
X127037266Y-111011466D01*
X127037266Y-110578133D01*
X126337266Y-110344800D02*
X126337266Y-109911466D01*
X126603933Y-110144800D01*
X126603933Y-110044800D01*
X126637266Y-109978133D01*
X126670600Y-109944800D01*
X126737266Y-109911466D01*
X126903933Y-109911466D01*
X126970600Y-109944800D01*
X127003933Y-109978133D01*
X127037266Y-110044800D01*
X127037266Y-110244800D01*
X127003933Y-110311466D01*
X126970600Y-110344800D01*
X129677333Y-112635466D02*
X129444000Y-112302133D01*
X129277333Y-112635466D02*
X129277333Y-111935466D01*
X129544000Y-111935466D01*
X129610666Y-111968800D01*
X129644000Y-112002133D01*
X129677333Y-112068800D01*
X129677333Y-112168800D01*
X129644000Y-112235466D01*
X129610666Y-112268800D01*
X129544000Y-112302133D01*
X129277333Y-112302133D01*
X129910666Y-111935466D02*
X130344000Y-111935466D01*
X130110666Y-112202133D01*
X130210666Y-112202133D01*
X130277333Y-112235466D01*
X130310666Y-112268800D01*
X130344000Y-112335466D01*
X130344000Y-112502133D01*
X130310666Y-112568800D01*
X130277333Y-112602133D01*
X130210666Y-112635466D01*
X130010666Y-112635466D01*
X129944000Y-112602133D01*
X129910666Y-112568800D01*
X133361866Y-109692266D02*
X133028533Y-109925600D01*
X133361866Y-110092266D02*
X132661866Y-110092266D01*
X132661866Y-109825600D01*
X132695200Y-109758933D01*
X132728533Y-109725600D01*
X132795200Y-109692266D01*
X132895200Y-109692266D01*
X132961866Y-109725600D01*
X132995200Y-109758933D01*
X133028533Y-109825600D01*
X133028533Y-110092266D01*
X132961866Y-109292266D02*
X132928533Y-109358933D01*
X132895200Y-109392266D01*
X132828533Y-109425600D01*
X132795200Y-109425600D01*
X132728533Y-109392266D01*
X132695200Y-109358933D01*
X132661866Y-109292266D01*
X132661866Y-109158933D01*
X132695200Y-109092266D01*
X132728533Y-109058933D01*
X132795200Y-109025600D01*
X132828533Y-109025600D01*
X132895200Y-109058933D01*
X132928533Y-109092266D01*
X132961866Y-109158933D01*
X132961866Y-109292266D01*
X132995200Y-109358933D01*
X133028533Y-109392266D01*
X133095200Y-109425600D01*
X133228533Y-109425600D01*
X133295200Y-109392266D01*
X133328533Y-109358933D01*
X133361866Y-109292266D01*
X133361866Y-109158933D01*
X133328533Y-109092266D01*
X133295200Y-109058933D01*
X133228533Y-109025600D01*
X133095200Y-109025600D01*
X133028533Y-109058933D01*
X132995200Y-109092266D01*
X132961866Y-109158933D01*
X135343066Y-65616866D02*
X134643066Y-65616866D01*
X134643066Y-65450200D01*
X134676400Y-65350200D01*
X134743066Y-65283533D01*
X134809733Y-65250200D01*
X134943066Y-65216866D01*
X135043066Y-65216866D01*
X135176400Y-65250200D01*
X135243066Y-65283533D01*
X135309733Y-65350200D01*
X135343066Y-65450200D01*
X135343066Y-65616866D01*
X134876400Y-64616866D02*
X135343066Y-64616866D01*
X134609733Y-64783533D02*
X135109733Y-64950200D01*
X135109733Y-64516866D01*
X134198533Y-74738666D02*
X133965200Y-74405333D01*
X133798533Y-74738666D02*
X133798533Y-74038666D01*
X134065200Y-74038666D01*
X134131866Y-74072000D01*
X134165200Y-74105333D01*
X134198533Y-74172000D01*
X134198533Y-74272000D01*
X134165200Y-74338666D01*
X134131866Y-74372000D01*
X134065200Y-74405333D01*
X133798533Y-74405333D01*
X134798533Y-74038666D02*
X134665200Y-74038666D01*
X134598533Y-74072000D01*
X134565200Y-74105333D01*
X134498533Y-74205333D01*
X134465200Y-74338666D01*
X134465200Y-74605333D01*
X134498533Y-74672000D01*
X134531866Y-74705333D01*
X134598533Y-74738666D01*
X134731866Y-74738666D01*
X134798533Y-74705333D01*
X134831866Y-74672000D01*
X134865200Y-74605333D01*
X134865200Y-74438666D01*
X134831866Y-74372000D01*
X134798533Y-74338666D01*
X134731866Y-74305333D01*
X134598533Y-74305333D01*
X134531866Y-74338666D01*
X134498533Y-74372000D01*
X134465200Y-74438666D01*
X149225800Y-67309133D02*
X149225800Y-67542466D01*
X149592466Y-67542466D02*
X148892466Y-67542466D01*
X148892466Y-67209133D01*
X149225800Y-66709133D02*
X149259133Y-66609133D01*
X149292466Y-66575800D01*
X149359133Y-66542466D01*
X149459133Y-66542466D01*
X149525800Y-66575800D01*
X149559133Y-66609133D01*
X149592466Y-66675800D01*
X149592466Y-66942466D01*
X148892466Y-66942466D01*
X148892466Y-66709133D01*
X148925800Y-66642466D01*
X148959133Y-66609133D01*
X149025800Y-66575800D01*
X149092466Y-66575800D01*
X149159133Y-66609133D01*
X149192466Y-66642466D01*
X149225800Y-66709133D01*
X149225800Y-66942466D01*
X148892466Y-66309133D02*
X148892466Y-65875800D01*
X149159133Y-66109133D01*
X149159133Y-66009133D01*
X149192466Y-65942466D01*
X149225800Y-65909133D01*
X149292466Y-65875800D01*
X149459133Y-65875800D01*
X149525800Y-65909133D01*
X149559133Y-65942466D01*
X149592466Y-66009133D01*
X149592466Y-66209133D01*
X149559133Y-66275800D01*
X149525800Y-66309133D01*
X131263613Y-97431026D02*
X131263613Y-96731026D01*
X131530280Y-96731026D01*
X131596946Y-96764360D01*
X131630280Y-96797693D01*
X131663613Y-96864360D01*
X131663613Y-96964360D01*
X131630280Y-97031026D01*
X131596946Y-97064360D01*
X131530280Y-97097693D01*
X131263613Y-97097693D01*
X132263613Y-96964360D02*
X132263613Y-97431026D01*
X132096946Y-96697693D02*
X131930280Y-97197693D01*
X132363613Y-97197693D01*
X128112780Y-99075619D02*
X127112780Y-99075619D01*
X127112780Y-98837523D01*
X127160400Y-98694666D01*
X127255638Y-98599428D01*
X127350876Y-98551809D01*
X127541352Y-98504190D01*
X127684209Y-98504190D01*
X127874685Y-98551809D01*
X127969923Y-98599428D01*
X128065161Y-98694666D01*
X128112780Y-98837523D01*
X128112780Y-99075619D01*
X128065161Y-97694666D02*
X128112780Y-97789904D01*
X128112780Y-97980380D01*
X128065161Y-98075619D01*
X127969923Y-98123238D01*
X127588971Y-98123238D01*
X127493733Y-98075619D01*
X127446114Y-97980380D01*
X127446114Y-97789904D01*
X127493733Y-97694666D01*
X127588971Y-97647047D01*
X127684209Y-97647047D01*
X127779447Y-98123238D01*
X128112780Y-97218476D02*
X127112780Y-97218476D01*
X127493733Y-97218476D02*
X127446114Y-97123238D01*
X127446114Y-96932761D01*
X127493733Y-96837523D01*
X127541352Y-96789904D01*
X127636590Y-96742285D01*
X127922304Y-96742285D01*
X128017542Y-96789904D01*
X128065161Y-96837523D01*
X128112780Y-96932761D01*
X128112780Y-97123238D01*
X128065161Y-97218476D01*
X127446114Y-95885142D02*
X128112780Y-95885142D01*
X127446114Y-96313714D02*
X127969923Y-96313714D01*
X128065161Y-96266095D01*
X128112780Y-96170857D01*
X128112780Y-96028000D01*
X128065161Y-95932761D01*
X128017542Y-95885142D01*
X127446114Y-94980380D02*
X128255638Y-94980380D01*
X128350876Y-95028000D01*
X128398495Y-95075619D01*
X128446114Y-95170857D01*
X128446114Y-95313714D01*
X128398495Y-95408952D01*
X128065161Y-94980380D02*
X128112780Y-95075619D01*
X128112780Y-95266095D01*
X128065161Y-95361333D01*
X128017542Y-95408952D01*
X127922304Y-95456571D01*
X127636590Y-95456571D01*
X127541352Y-95408952D01*
X127493733Y-95361333D01*
X127446114Y-95266095D01*
X127446114Y-95075619D01*
X127493733Y-94980380D01*
X138203560Y-92821023D02*
X139203560Y-92154357D01*
X138203560Y-92154357D02*
X139203560Y-92821023D01*
X139203560Y-91249595D02*
X139203560Y-91821023D01*
X139203560Y-91535309D02*
X138203560Y-91535309D01*
X138346418Y-91630547D01*
X138441656Y-91725785D01*
X138489275Y-91821023D01*
X140966933Y-65402666D02*
X140966933Y-65969333D01*
X141000266Y-66036000D01*
X141033600Y-66069333D01*
X141100266Y-66102666D01*
X141233600Y-66102666D01*
X141300266Y-66069333D01*
X141333600Y-66036000D01*
X141366933Y-65969333D01*
X141366933Y-65402666D01*
X142066933Y-66102666D02*
X141666933Y-66102666D01*
X141866933Y-66102666D02*
X141866933Y-65402666D01*
X141800266Y-65502666D01*
X141733600Y-65569333D01*
X141666933Y-65602666D01*
X142733600Y-66102666D02*
X142333600Y-66102666D01*
X142533600Y-66102666D02*
X142533600Y-65402666D01*
X142466933Y-65502666D01*
X142400266Y-65569333D01*
X142333600Y-65602666D01*
X144832293Y-92488186D02*
X144832293Y-91788186D01*
X144998960Y-91788186D01*
X145098960Y-91821520D01*
X145165626Y-91888186D01*
X145198960Y-91954853D01*
X145232293Y-92088186D01*
X145232293Y-92188186D01*
X145198960Y-92321520D01*
X145165626Y-92388186D01*
X145098960Y-92454853D01*
X144998960Y-92488186D01*
X144832293Y-92488186D01*
X145832293Y-91788186D02*
X145698960Y-91788186D01*
X145632293Y-91821520D01*
X145598960Y-91854853D01*
X145532293Y-91954853D01*
X145498960Y-92088186D01*
X145498960Y-92354853D01*
X145532293Y-92421520D01*
X145565626Y-92454853D01*
X145632293Y-92488186D01*
X145765626Y-92488186D01*
X145832293Y-92454853D01*
X145865626Y-92421520D01*
X145898960Y-92354853D01*
X145898960Y-92188186D01*
X145865626Y-92121520D01*
X145832293Y-92088186D01*
X145765626Y-92054853D01*
X145632293Y-92054853D01*
X145565626Y-92088186D01*
X145532293Y-92121520D01*
X145498960Y-92188186D01*
X135874933Y-74764066D02*
X135641600Y-74430733D01*
X135474933Y-74764066D02*
X135474933Y-74064066D01*
X135741600Y-74064066D01*
X135808266Y-74097400D01*
X135841600Y-74130733D01*
X135874933Y-74197400D01*
X135874933Y-74297400D01*
X135841600Y-74364066D01*
X135808266Y-74397400D01*
X135741600Y-74430733D01*
X135474933Y-74430733D01*
X136108266Y-74064066D02*
X136574933Y-74064066D01*
X136274933Y-74764066D01*
X126744853Y-78576053D02*
X126778186Y-78476053D01*
X126778186Y-78309386D01*
X126744853Y-78242720D01*
X126711520Y-78209386D01*
X126644853Y-78176053D01*
X126578186Y-78176053D01*
X126511520Y-78209386D01*
X126478186Y-78242720D01*
X126444853Y-78309386D01*
X126411520Y-78442720D01*
X126378186Y-78509386D01*
X126344853Y-78542720D01*
X126278186Y-78576053D01*
X126211520Y-78576053D01*
X126144853Y-78542720D01*
X126111520Y-78509386D01*
X126078186Y-78442720D01*
X126078186Y-78276053D01*
X126111520Y-78176053D01*
X126078186Y-77942720D02*
X126778186Y-77776053D01*
X126278186Y-77642720D01*
X126778186Y-77509386D01*
X126078186Y-77342720D01*
X126144853Y-77109386D02*
X126111520Y-77076053D01*
X126078186Y-77009386D01*
X126078186Y-76842720D01*
X126111520Y-76776053D01*
X126144853Y-76742720D01*
X126211520Y-76709386D01*
X126278186Y-76709386D01*
X126378186Y-76742720D01*
X126778186Y-77142720D01*
X126778186Y-76709386D01*
X164923742Y-97658085D02*
X164971361Y-97705704D01*
X165018980Y-97848561D01*
X165018980Y-97943800D01*
X164971361Y-98086657D01*
X164876123Y-98181895D01*
X164780885Y-98229514D01*
X164590409Y-98277133D01*
X164447552Y-98277133D01*
X164257076Y-98229514D01*
X164161838Y-98181895D01*
X164066600Y-98086657D01*
X164018980Y-97943800D01*
X164018980Y-97848561D01*
X164066600Y-97705704D01*
X164114219Y-97658085D01*
X164018980Y-97039038D02*
X164018980Y-96848561D01*
X164066600Y-96753323D01*
X164161838Y-96658085D01*
X164352314Y-96610466D01*
X164685647Y-96610466D01*
X164876123Y-96658085D01*
X164971361Y-96753323D01*
X165018980Y-96848561D01*
X165018980Y-97039038D01*
X164971361Y-97134276D01*
X164876123Y-97229514D01*
X164685647Y-97277133D01*
X164352314Y-97277133D01*
X164161838Y-97229514D01*
X164066600Y-97134276D01*
X164018980Y-97039038D01*
X165018980Y-96181895D02*
X164018980Y-96181895D01*
X165018980Y-95610466D01*
X164018980Y-95610466D01*
X165018980Y-94610466D02*
X165018980Y-95181895D01*
X165018980Y-94896180D02*
X164018980Y-94896180D01*
X164161838Y-94991419D01*
X164257076Y-95086657D01*
X164304695Y-95181895D01*
X137309026Y-68934106D02*
X136609026Y-68934106D01*
X136609026Y-68667440D01*
X136642360Y-68600773D01*
X136675693Y-68567440D01*
X136742360Y-68534106D01*
X136842360Y-68534106D01*
X136909026Y-68567440D01*
X136942360Y-68600773D01*
X136975693Y-68667440D01*
X136975693Y-68934106D01*
X137309026Y-67867440D02*
X137309026Y-68267440D01*
X137309026Y-68067440D02*
X136609026Y-68067440D01*
X136709026Y-68134106D01*
X136775693Y-68200773D01*
X136809026Y-68267440D01*
X154343166Y-111935466D02*
X154343166Y-112502133D01*
X154376500Y-112568800D01*
X154409833Y-112602133D01*
X154476500Y-112635466D01*
X154609833Y-112635466D01*
X154676500Y-112602133D01*
X154709833Y-112568800D01*
X154743166Y-112502133D01*
X154743166Y-111935466D01*
X155376500Y-112168800D02*
X155376500Y-112635466D01*
X155209833Y-111902133D02*
X155043166Y-112402133D01*
X155476500Y-112402133D01*
D13*
X134264476Y-100679304D02*
X134264476Y-101326923D01*
X134302571Y-101403114D01*
X134340666Y-101441209D01*
X134416857Y-101479304D01*
X134569238Y-101479304D01*
X134645428Y-101441209D01*
X134683523Y-101403114D01*
X134721619Y-101326923D01*
X134721619Y-100679304D01*
X135216857Y-101022161D02*
X135140666Y-100984066D01*
X135102571Y-100945971D01*
X135064476Y-100869780D01*
X135064476Y-100831685D01*
X135102571Y-100755495D01*
X135140666Y-100717400D01*
X135216857Y-100679304D01*
X135369238Y-100679304D01*
X135445428Y-100717400D01*
X135483523Y-100755495D01*
X135521619Y-100831685D01*
X135521619Y-100869780D01*
X135483523Y-100945971D01*
X135445428Y-100984066D01*
X135369238Y-101022161D01*
X135216857Y-101022161D01*
X135140666Y-101060257D01*
X135102571Y-101098352D01*
X135064476Y-101174542D01*
X135064476Y-101326923D01*
X135102571Y-101403114D01*
X135140666Y-101441209D01*
X135216857Y-101479304D01*
X135369238Y-101479304D01*
X135445428Y-101441209D01*
X135483523Y-101403114D01*
X135521619Y-101326923D01*
X135521619Y-101174542D01*
X135483523Y-101098352D01*
X135445428Y-101060257D01*
X135369238Y-101022161D01*
D12*
X138199033Y-106968100D02*
X138165700Y-107001433D01*
X138065700Y-107034766D01*
X137999033Y-107034766D01*
X137899033Y-107001433D01*
X137832366Y-106934766D01*
X137799033Y-106868100D01*
X137765700Y-106734766D01*
X137765700Y-106634766D01*
X137799033Y-106501433D01*
X137832366Y-106434766D01*
X137899033Y-106368100D01*
X137999033Y-106334766D01*
X138065700Y-106334766D01*
X138165700Y-106368100D01*
X138199033Y-106401433D01*
X138432366Y-106334766D02*
X138899033Y-106334766D01*
X138599033Y-107034766D01*
X130158300Y-89197600D02*
X130191633Y-89230933D01*
X130224966Y-89330933D01*
X130224966Y-89397600D01*
X130191633Y-89497600D01*
X130124966Y-89564266D01*
X130058300Y-89597600D01*
X129924966Y-89630933D01*
X129824966Y-89630933D01*
X129691633Y-89597600D01*
X129624966Y-89564266D01*
X129558300Y-89497600D01*
X129524966Y-89397600D01*
X129524966Y-89330933D01*
X129558300Y-89230933D01*
X129591633Y-89197600D01*
X130224966Y-88530933D02*
X130224966Y-88930933D01*
X130224966Y-88730933D02*
X129524966Y-88730933D01*
X129624966Y-88797600D01*
X129691633Y-88864266D01*
X129724966Y-88930933D01*
X129524966Y-88097600D02*
X129524966Y-88030933D01*
X129558300Y-87964266D01*
X129591633Y-87930933D01*
X129658300Y-87897600D01*
X129791633Y-87864266D01*
X129958300Y-87864266D01*
X130091633Y-87897600D01*
X130158300Y-87930933D01*
X130191633Y-87964266D01*
X130224966Y-88030933D01*
X130224966Y-88097600D01*
X130191633Y-88164266D01*
X130158300Y-88197600D01*
X130091633Y-88230933D01*
X129958300Y-88264266D01*
X129791633Y-88264266D01*
X129658300Y-88230933D01*
X129591633Y-88197600D01*
X129558300Y-88164266D01*
X129524966Y-88097600D01*
X143684426Y-96395960D02*
X143351093Y-96629293D01*
X143684426Y-96795960D02*
X142984426Y-96795960D01*
X142984426Y-96529293D01*
X143017760Y-96462626D01*
X143051093Y-96429293D01*
X143117760Y-96395960D01*
X143217760Y-96395960D01*
X143284426Y-96429293D01*
X143317760Y-96462626D01*
X143351093Y-96529293D01*
X143351093Y-96795960D01*
X143684426Y-95729293D02*
X143684426Y-96129293D01*
X143684426Y-95929293D02*
X142984426Y-95929293D01*
X143084426Y-95995960D01*
X143151093Y-96062626D01*
X143184426Y-96129293D01*
X143684426Y-95062626D02*
X143684426Y-95462626D01*
X143684426Y-95262626D02*
X142984426Y-95262626D01*
X143084426Y-95329293D01*
X143151093Y-95395960D01*
X143184426Y-95462626D01*
X121403333Y-71944666D02*
X121403333Y-71244666D01*
X121670000Y-71244666D01*
X121736666Y-71278000D01*
X121770000Y-71311333D01*
X121803333Y-71378000D01*
X121803333Y-71478000D01*
X121770000Y-71544666D01*
X121736666Y-71578000D01*
X121670000Y-71611333D01*
X121403333Y-71611333D01*
X122070000Y-71311333D02*
X122103333Y-71278000D01*
X122170000Y-71244666D01*
X122336666Y-71244666D01*
X122403333Y-71278000D01*
X122436666Y-71311333D01*
X122470000Y-71378000D01*
X122470000Y-71444666D01*
X122436666Y-71544666D01*
X122036666Y-71944666D01*
X122470000Y-71944666D01*
X120391180Y-90788714D02*
X119391180Y-90788714D01*
X120105466Y-90455380D01*
X119391180Y-90122047D01*
X120391180Y-90122047D01*
X119914990Y-89455380D02*
X120391180Y-89455380D01*
X119391180Y-89788714D02*
X119914990Y-89455380D01*
X119391180Y-89122047D01*
X120343561Y-88836333D02*
X120391180Y-88693476D01*
X120391180Y-88455380D01*
X120343561Y-88360142D01*
X120295942Y-88312523D01*
X120200704Y-88264904D01*
X120105466Y-88264904D01*
X120010228Y-88312523D01*
X119962609Y-88360142D01*
X119914990Y-88455380D01*
X119867371Y-88645857D01*
X119819752Y-88741095D01*
X119772133Y-88788714D01*
X119676895Y-88836333D01*
X119581657Y-88836333D01*
X119486419Y-88788714D01*
X119438800Y-88741095D01*
X119391180Y-88645857D01*
X119391180Y-88407761D01*
X119438800Y-88264904D01*
X119391180Y-87931571D02*
X120391180Y-87264904D01*
X119391180Y-87264904D02*
X120391180Y-87931571D01*
X119486419Y-86169666D02*
X119438800Y-86122047D01*
X119391180Y-86026809D01*
X119391180Y-85788714D01*
X119438800Y-85693476D01*
X119486419Y-85645857D01*
X119581657Y-85598238D01*
X119676895Y-85598238D01*
X119819752Y-85645857D01*
X120391180Y-86217285D01*
X120391180Y-85598238D01*
X120295942Y-85169666D02*
X120343561Y-85122047D01*
X120391180Y-85169666D01*
X120343561Y-85217285D01*
X120295942Y-85169666D01*
X120391180Y-85169666D01*
X119391180Y-84264904D02*
X119391180Y-84455380D01*
X119438800Y-84550619D01*
X119486419Y-84598238D01*
X119629276Y-84693476D01*
X119819752Y-84741095D01*
X120200704Y-84741095D01*
X120295942Y-84693476D01*
X120343561Y-84645857D01*
X120391180Y-84550619D01*
X120391180Y-84360142D01*
X120343561Y-84264904D01*
X120295942Y-84217285D01*
X120200704Y-84169666D01*
X119962609Y-84169666D01*
X119867371Y-84217285D01*
X119819752Y-84264904D01*
X119772133Y-84360142D01*
X119772133Y-84550619D01*
X119819752Y-84645857D01*
X119867371Y-84693476D01*
X119962609Y-84741095D01*
X135348560Y-98965186D02*
X135115226Y-98631853D01*
X134948560Y-98965186D02*
X134948560Y-98265186D01*
X135215226Y-98265186D01*
X135281893Y-98298520D01*
X135315226Y-98331853D01*
X135348560Y-98398520D01*
X135348560Y-98498520D01*
X135315226Y-98565186D01*
X135281893Y-98598520D01*
X135215226Y-98631853D01*
X134948560Y-98631853D01*
X136015226Y-98965186D02*
X135615226Y-98965186D01*
X135815226Y-98965186D02*
X135815226Y-98265186D01*
X135748560Y-98365186D01*
X135681893Y-98431853D01*
X135615226Y-98465186D01*
X136281893Y-98331853D02*
X136315226Y-98298520D01*
X136381893Y-98265186D01*
X136548560Y-98265186D01*
X136615226Y-98298520D01*
X136648560Y-98331853D01*
X136681893Y-98398520D01*
X136681893Y-98465186D01*
X136648560Y-98565186D01*
X136248560Y-98965186D01*
X136681893Y-98965186D01*
%LPC*%
D14*
X137751080Y-98348800D03*
X139251080Y-98348800D03*
D15*
X137677280Y-97058480D03*
X139177280Y-97058480D03*
D16*
X128828800Y-82702400D03*
X128828800Y-84602400D03*
D17*
X136839000Y-90028000D03*
X137339000Y-90028000D03*
X137839000Y-90028000D03*
X138339000Y-90028000D03*
X138839000Y-90028000D03*
X139339000Y-90028000D03*
X139839000Y-90028000D03*
X140339000Y-90028000D03*
X140839000Y-90028000D03*
X141339000Y-90028000D03*
X141839000Y-90028000D03*
X142339000Y-90028000D03*
X142839000Y-90028000D03*
X143339000Y-90028000D03*
X143839000Y-90028000D03*
X144339000Y-90028000D03*
D18*
X146289000Y-88078000D03*
X146289000Y-87578000D03*
X146289000Y-87078000D03*
X146289000Y-86578000D03*
X146289000Y-86078000D03*
X146289000Y-85578000D03*
X146289000Y-85078000D03*
X146289000Y-84578000D03*
X146289000Y-84078000D03*
X146289000Y-83578000D03*
X146289000Y-83078000D03*
X146289000Y-82578000D03*
X146289000Y-82078000D03*
X146289000Y-81578000D03*
X146289000Y-81078000D03*
X146289000Y-80578000D03*
D17*
X144339000Y-78628000D03*
X143839000Y-78628000D03*
X143339000Y-78628000D03*
X142839000Y-78628000D03*
X142339000Y-78628000D03*
X141839000Y-78628000D03*
X141339000Y-78628000D03*
X140839000Y-78628000D03*
X140339000Y-78628000D03*
X139839000Y-78628000D03*
X139339000Y-78628000D03*
X138839000Y-78628000D03*
X138339000Y-78628000D03*
X137839000Y-78628000D03*
X137339000Y-78628000D03*
X136839000Y-78628000D03*
D18*
X134889000Y-80578000D03*
X134889000Y-81078000D03*
X134889000Y-81578000D03*
X134889000Y-82078000D03*
X134889000Y-82578000D03*
X134889000Y-83078000D03*
X134889000Y-83578000D03*
X134889000Y-84078000D03*
X134889000Y-84578000D03*
X134889000Y-85078000D03*
X134889000Y-85578000D03*
X134889000Y-86078000D03*
X134889000Y-86578000D03*
X134889000Y-87078000D03*
X134889000Y-87578000D03*
X134889000Y-88078000D03*
D19*
X131348400Y-78120600D03*
X132298400Y-78120600D03*
X133248400Y-78120600D03*
X133248400Y-75920600D03*
X131348400Y-75920600D03*
D20*
X142372000Y-73279000D03*
X144272000Y-73279000D03*
D21*
X121285000Y-102727400D03*
X121285000Y-104927400D03*
X123367800Y-102727400D03*
X123367800Y-104927400D03*
D22*
X145391800Y-109626400D03*
X137591800Y-109626400D03*
D23*
X143341800Y-111701400D03*
X139641800Y-107551400D03*
D24*
X148742400Y-93548200D03*
D25*
X148742400Y-91008200D03*
D26*
X129235200Y-66154300D03*
X129235200Y-64655700D03*
X133743700Y-66154300D03*
X133743700Y-64655700D03*
D21*
X130987800Y-70748800D03*
X130987800Y-72948800D03*
D20*
X147375960Y-106080560D03*
X145475960Y-106080560D03*
D27*
X153837600Y-87005160D03*
X155737600Y-87005160D03*
X154787600Y-85006180D03*
D28*
X146608800Y-97282000D03*
D29*
X146608800Y-103886000D03*
X148894800Y-103886000D03*
X144322800Y-103886000D03*
D16*
X128320800Y-92882800D03*
X128320800Y-90982800D03*
D26*
X127736600Y-66154300D03*
X127736600Y-64655700D03*
D16*
X157251400Y-86903600D03*
X157251400Y-85003600D03*
D20*
X132461000Y-84239100D03*
X130561000Y-84239100D03*
X136855200Y-76911200D03*
X134955200Y-76911200D03*
D16*
X148717000Y-86106000D03*
X148717000Y-84206000D03*
X140233400Y-92684600D03*
X140233400Y-94584600D03*
X147929600Y-110032800D03*
X147929600Y-108132800D03*
X136906000Y-105090000D03*
X136906000Y-103190000D03*
X151282400Y-99385200D03*
X151282400Y-97485200D03*
X151180800Y-104988400D03*
X151180800Y-103088400D03*
D20*
X144267000Y-71818500D03*
X142367000Y-71818500D03*
X141203720Y-101762560D03*
X139303720Y-101762560D03*
D30*
X144292500Y-70294500D03*
X142092500Y-70294500D03*
D21*
X152247600Y-87790200D03*
X152247600Y-85590200D03*
X129336800Y-70748800D03*
X129336800Y-72948800D03*
D20*
X130850600Y-82473800D03*
X132750600Y-82473800D03*
X141203720Y-103306880D03*
X139303720Y-103306880D03*
D16*
X132638800Y-92136000D03*
X132638800Y-90236000D03*
D20*
X135600400Y-94107000D03*
X137500400Y-94107000D03*
D26*
X130733800Y-66154300D03*
X130733800Y-64655700D03*
D21*
X132638800Y-70748800D03*
X132638800Y-72948800D03*
D20*
X145252400Y-76911200D03*
X147152400Y-76911200D03*
D16*
X128143000Y-108524000D03*
X128143000Y-110424000D03*
D21*
X129794000Y-110701000D03*
X129794000Y-108501000D03*
X131445000Y-108501000D03*
X131445000Y-110701000D03*
D26*
X132232400Y-66154300D03*
X132232400Y-64655700D03*
D21*
X134289800Y-70748800D03*
X134289800Y-72948800D03*
X147726400Y-67902000D03*
X147726400Y-65702000D03*
D31*
X134086600Y-95072200D03*
X134086600Y-98972200D03*
X132816600Y-95072200D03*
X132816600Y-98972200D03*
X131546600Y-95072200D03*
X131546600Y-98972200D03*
X130276600Y-98972200D03*
X129006600Y-95072200D03*
X129006600Y-98972200D03*
D32*
X137223500Y-92062300D03*
X134223500Y-92062300D03*
D33*
X141852600Y-67895400D03*
X141202600Y-67895400D03*
X142502600Y-67895400D03*
D34*
X143152600Y-67895400D03*
D10*
G36*
X143352600Y-67045400D02*
X143352600Y-68745400D01*
X142952600Y-68745400D01*
X142952600Y-67045400D01*
X143352600Y-67045400D01*
X143352600Y-67045400D01*
G37*
D33*
X140552600Y-67895400D03*
D35*
X145427600Y-64795400D03*
X138277600Y-64795400D03*
X145427600Y-68245400D03*
X138277600Y-68245400D03*
D36*
X143852600Y-66920400D03*
X139852600Y-66920400D03*
D27*
X146238000Y-93301820D03*
X144338000Y-93301820D03*
X145288000Y-95300800D03*
D21*
X135991600Y-70748800D03*
X135991600Y-72948800D03*
D37*
X128346200Y-76530200D03*
D38*
X128346200Y-79070200D03*
D24*
X146888200Y-71196200D03*
D25*
X146888200Y-73736200D03*
D39*
X153482400Y-94066000D03*
X153482400Y-95166000D03*
X153482400Y-96266000D03*
X153482400Y-97366000D03*
X153482400Y-98466000D03*
X153482400Y-99566000D03*
X153482400Y-100666000D03*
X153482400Y-101766000D03*
X153482400Y-102866000D03*
D40*
X163982400Y-93216000D03*
X163982400Y-101196000D03*
D41*
X163582400Y-88516000D03*
D42*
X153982400Y-104016000D03*
D43*
X153982400Y-89416000D03*
D41*
X163582400Y-104016000D03*
D24*
X132384800Y-68402200D03*
D25*
X134924800Y-68402200D03*
D37*
X150622000Y-107950000D03*
D38*
X150622000Y-110490000D03*
X153162000Y-107950000D03*
X153162000Y-110490000D03*
X155702000Y-107950000D03*
X155702000Y-110490000D03*
X158242000Y-107950000D03*
X158242000Y-110490000D03*
X160782000Y-107950000D03*
X160782000Y-110490000D03*
X126746000Y-103378000D03*
X126746000Y-105918000D03*
X129286000Y-103378000D03*
X129286000Y-105918000D03*
X131826000Y-103378000D03*
X131826000Y-105918000D03*
D37*
X134366000Y-103378000D03*
D38*
X134366000Y-105918000D03*
D20*
X138572200Y-105232200D03*
X140472200Y-105232200D03*
D16*
X129895600Y-92885300D03*
X129895600Y-90985300D03*
D21*
X142113000Y-95539200D03*
X142113000Y-97739200D03*
D38*
X124460000Y-97790000D03*
X121920000Y-97790000D03*
X124460000Y-95250000D03*
X121920000Y-95250000D03*
X124460000Y-92710000D03*
X121920000Y-92710000D03*
X124460000Y-90170000D03*
X121920000Y-90170000D03*
X124460000Y-87630000D03*
X121920000Y-87630000D03*
X124460000Y-85090000D03*
X121920000Y-85090000D03*
D37*
X121920000Y-74930000D03*
D38*
X124460000Y-74930000D03*
X121920000Y-77470000D03*
X124460000Y-77470000D03*
X121920000Y-80010000D03*
X124460000Y-80010000D03*
X121920000Y-82550000D03*
X124460000Y-82550000D03*
X121920000Y-100330000D03*
X124460000Y-100330000D03*
D44*
X135686800Y-96369440D03*
X135686800Y-97869440D03*
M02*
