G04 #@! TF.FileFunction,Legend,Bot*
%FSLAX46Y46*%
G04 Gerber Fmt 4.6, Leading zero omitted, Abs format (unit mm)*
G04 Created by KiCad (PCBNEW 0.201603171416+6624~43~ubuntu15.10.1-product) date man 21 mar 2016 21:16:12 CET*
%MOMM*%
G01*
G04 APERTURE LIST*
%ADD10C,0.100000*%
%ADD11C,0.150000*%
%ADD12C,0.300000*%
%ADD13C,0.160000*%
%ADD14R,2.032000X2.032000*%
%ADD15O,2.032000X2.032000*%
%ADD16R,1.200000X2.200000*%
%ADD17C,1.000000*%
%ADD18R,1.727200X1.727200*%
%ADD19O,1.727200X1.727200*%
%ADD20R,2.235200X2.235200*%
%ADD21O,1.050000X1.850000*%
%ADD22C,0.650000*%
%ADD23R,1.524000X0.635000*%
%ADD24O,1.524000X1.270000*%
%ADD25C,1.524000*%
G04 APERTURE END LIST*
D10*
D11*
X163819553Y-72760343D02*
X163867172Y-72807962D01*
X164010029Y-72855581D01*
X164105267Y-72855581D01*
X164248125Y-72807962D01*
X164343363Y-72712724D01*
X164390982Y-72617486D01*
X164438601Y-72427010D01*
X164438601Y-72284152D01*
X164390982Y-72093676D01*
X164343363Y-71998438D01*
X164248125Y-71903200D01*
X164105267Y-71855581D01*
X164010029Y-71855581D01*
X163867172Y-71903200D01*
X163819553Y-71950819D01*
X162962410Y-72188914D02*
X162962410Y-72855581D01*
X163390982Y-72188914D02*
X163390982Y-72712724D01*
X163343363Y-72807962D01*
X163248125Y-72855581D01*
X163105267Y-72855581D01*
X163010029Y-72807962D01*
X162962410Y-72760343D01*
X162629077Y-72188914D02*
X162248125Y-72188914D01*
X162486220Y-71855581D02*
X162486220Y-72712724D01*
X162438601Y-72807962D01*
X162343363Y-72855581D01*
X162248125Y-72855581D01*
X161295743Y-72188914D02*
X160914791Y-72188914D01*
X161152886Y-71855581D02*
X161152886Y-72712724D01*
X161105267Y-72807962D01*
X161010029Y-72855581D01*
X160914791Y-72855581D01*
X160438600Y-72855581D02*
X160533838Y-72807962D01*
X160581457Y-72760343D01*
X160629076Y-72665105D01*
X160629076Y-72379390D01*
X160581457Y-72284152D01*
X160533838Y-72236533D01*
X160438600Y-72188914D01*
X160295742Y-72188914D01*
X160200504Y-72236533D01*
X160152885Y-72284152D01*
X160105266Y-72379390D01*
X160105266Y-72665105D01*
X160152885Y-72760343D01*
X160200504Y-72807962D01*
X160295742Y-72855581D01*
X160438600Y-72855581D01*
X158486218Y-72855581D02*
X158486218Y-71855581D01*
X158486218Y-72807962D02*
X158581456Y-72855581D01*
X158771933Y-72855581D01*
X158867171Y-72807962D01*
X158914790Y-72760343D01*
X158962409Y-72665105D01*
X158962409Y-72379390D01*
X158914790Y-72284152D01*
X158867171Y-72236533D01*
X158771933Y-72188914D01*
X158581456Y-72188914D01*
X158486218Y-72236533D01*
X158010028Y-72855581D02*
X158010028Y-72188914D01*
X158010028Y-71855581D02*
X158057647Y-71903200D01*
X158010028Y-71950819D01*
X157962409Y-71903200D01*
X158010028Y-71855581D01*
X158010028Y-71950819D01*
X157581457Y-72807962D02*
X157486219Y-72855581D01*
X157295743Y-72855581D01*
X157200504Y-72807962D01*
X157152885Y-72712724D01*
X157152885Y-72665105D01*
X157200504Y-72569867D01*
X157295743Y-72522248D01*
X157438600Y-72522248D01*
X157533838Y-72474629D01*
X157581457Y-72379390D01*
X157581457Y-72331771D01*
X157533838Y-72236533D01*
X157438600Y-72188914D01*
X157295743Y-72188914D01*
X157200504Y-72236533D01*
X156295742Y-72855581D02*
X156295742Y-72331771D01*
X156343361Y-72236533D01*
X156438599Y-72188914D01*
X156629076Y-72188914D01*
X156724314Y-72236533D01*
X156295742Y-72807962D02*
X156390980Y-72855581D01*
X156629076Y-72855581D01*
X156724314Y-72807962D01*
X156771933Y-72712724D01*
X156771933Y-72617486D01*
X156724314Y-72522248D01*
X156629076Y-72474629D01*
X156390980Y-72474629D01*
X156295742Y-72427010D01*
X155819552Y-72855581D02*
X155819552Y-71855581D01*
X155819552Y-72236533D02*
X155724314Y-72188914D01*
X155533837Y-72188914D01*
X155438599Y-72236533D01*
X155390980Y-72284152D01*
X155343361Y-72379390D01*
X155343361Y-72665105D01*
X155390980Y-72760343D01*
X155438599Y-72807962D01*
X155533837Y-72855581D01*
X155724314Y-72855581D01*
X155819552Y-72807962D01*
X154771933Y-72855581D02*
X154867171Y-72807962D01*
X154914790Y-72712724D01*
X154914790Y-71855581D01*
X154010027Y-72807962D02*
X154105265Y-72855581D01*
X154295742Y-72855581D01*
X154390980Y-72807962D01*
X154438599Y-72712724D01*
X154438599Y-72331771D01*
X154390980Y-72236533D01*
X154295742Y-72188914D01*
X154105265Y-72188914D01*
X154010027Y-72236533D01*
X153962408Y-72331771D01*
X153962408Y-72427010D01*
X154438599Y-72522248D01*
X150486217Y-72474629D02*
X149724312Y-72474629D01*
X149248122Y-72188914D02*
X148486217Y-72474629D01*
X149248122Y-72760343D01*
X162200506Y-73838914D02*
X162200506Y-74838914D01*
X162200506Y-73886533D02*
X162105268Y-73838914D01*
X161914791Y-73838914D01*
X161819553Y-73886533D01*
X161771934Y-73934152D01*
X161724315Y-74029390D01*
X161724315Y-74315105D01*
X161771934Y-74410343D01*
X161819553Y-74457962D01*
X161914791Y-74505581D01*
X162105268Y-74505581D01*
X162200506Y-74457962D01*
X161152887Y-74505581D02*
X161248125Y-74457962D01*
X161295744Y-74410343D01*
X161343363Y-74315105D01*
X161343363Y-74029390D01*
X161295744Y-73934152D01*
X161248125Y-73886533D01*
X161152887Y-73838914D01*
X161010029Y-73838914D01*
X160914791Y-73886533D01*
X160867172Y-73934152D01*
X160819553Y-74029390D01*
X160819553Y-74315105D01*
X160867172Y-74410343D01*
X160914791Y-74457962D01*
X161010029Y-74505581D01*
X161152887Y-74505581D01*
X160486220Y-73838914D02*
X160295744Y-74505581D01*
X160105267Y-74029390D01*
X159914791Y-74505581D01*
X159724315Y-73838914D01*
X158962410Y-74457962D02*
X159057648Y-74505581D01*
X159248125Y-74505581D01*
X159343363Y-74457962D01*
X159390982Y-74362724D01*
X159390982Y-73981771D01*
X159343363Y-73886533D01*
X159248125Y-73838914D01*
X159057648Y-73838914D01*
X158962410Y-73886533D01*
X158914791Y-73981771D01*
X158914791Y-74077010D01*
X159390982Y-74172248D01*
X158486220Y-74505581D02*
X158486220Y-73838914D01*
X158486220Y-74029390D02*
X158438601Y-73934152D01*
X158390982Y-73886533D01*
X158295744Y-73838914D01*
X158200505Y-73838914D01*
X156962410Y-74505581D02*
X157057648Y-74457962D01*
X157105267Y-74410343D01*
X157152886Y-74315105D01*
X157152886Y-74029390D01*
X157105267Y-73934152D01*
X157057648Y-73886533D01*
X156962410Y-73838914D01*
X156819552Y-73838914D01*
X156724314Y-73886533D01*
X156676695Y-73934152D01*
X156629076Y-74029390D01*
X156629076Y-74315105D01*
X156676695Y-74410343D01*
X156724314Y-74457962D01*
X156819552Y-74505581D01*
X156962410Y-74505581D01*
X156295743Y-73838914D02*
X156057648Y-74505581D01*
X155819552Y-73838914D01*
X155057647Y-74457962D02*
X155152885Y-74505581D01*
X155343362Y-74505581D01*
X155438600Y-74457962D01*
X155486219Y-74362724D01*
X155486219Y-73981771D01*
X155438600Y-73886533D01*
X155343362Y-73838914D01*
X155152885Y-73838914D01*
X155057647Y-73886533D01*
X155010028Y-73981771D01*
X155010028Y-74077010D01*
X155486219Y-74172248D01*
X154581457Y-74505581D02*
X154581457Y-73838914D01*
X154581457Y-74029390D02*
X154533838Y-73934152D01*
X154486219Y-73886533D01*
X154390981Y-73838914D01*
X154295742Y-73838914D01*
X153200504Y-73505581D02*
X153200504Y-74315105D01*
X153152885Y-74410343D01*
X153105266Y-74457962D01*
X153010028Y-74505581D01*
X152819551Y-74505581D01*
X152724313Y-74457962D01*
X152676694Y-74410343D01*
X152629075Y-74315105D01*
X152629075Y-73505581D01*
X152200504Y-74457962D02*
X152057647Y-74505581D01*
X151819551Y-74505581D01*
X151724313Y-74457962D01*
X151676694Y-74410343D01*
X151629075Y-74315105D01*
X151629075Y-74219867D01*
X151676694Y-74124629D01*
X151724313Y-74077010D01*
X151819551Y-74029390D01*
X152010028Y-73981771D01*
X152105266Y-73934152D01*
X152152885Y-73886533D01*
X152200504Y-73791295D01*
X152200504Y-73696057D01*
X152152885Y-73600819D01*
X152105266Y-73553200D01*
X152010028Y-73505581D01*
X151771932Y-73505581D01*
X151629075Y-73553200D01*
X150867170Y-73981771D02*
X150724313Y-74029390D01*
X150676694Y-74077010D01*
X150629075Y-74172248D01*
X150629075Y-74315105D01*
X150676694Y-74410343D01*
X150724313Y-74457962D01*
X150819551Y-74505581D01*
X151200504Y-74505581D01*
X151200504Y-73505581D01*
X150867170Y-73505581D01*
X150771932Y-73553200D01*
X150724313Y-73600819D01*
X150676694Y-73696057D01*
X150676694Y-73791295D01*
X150724313Y-73886533D01*
X150771932Y-73934152D01*
X150867170Y-73981771D01*
X151200504Y-73981771D01*
D12*
X159057971Y-80215743D02*
X157557971Y-80215743D01*
X158629400Y-80715743D01*
X157557971Y-81215743D01*
X159057971Y-81215743D01*
X158057971Y-81787172D02*
X159057971Y-82144315D01*
X158057971Y-82501457D02*
X159057971Y-82144315D01*
X159415114Y-82001457D01*
X159486543Y-81930029D01*
X159557971Y-81787172D01*
X158986543Y-83001457D02*
X159057971Y-83215743D01*
X159057971Y-83572886D01*
X158986543Y-83715743D01*
X158915114Y-83787172D01*
X158772257Y-83858600D01*
X158629400Y-83858600D01*
X158486543Y-83787172D01*
X158415114Y-83715743D01*
X158343686Y-83572886D01*
X158272257Y-83287172D01*
X158200829Y-83144314D01*
X158129400Y-83072886D01*
X157986543Y-83001457D01*
X157843686Y-83001457D01*
X157700829Y-83072886D01*
X157629400Y-83144314D01*
X157557971Y-83287172D01*
X157557971Y-83644314D01*
X157629400Y-83858600D01*
X158986543Y-85072885D02*
X159057971Y-84930028D01*
X159057971Y-84644314D01*
X158986543Y-84501457D01*
X158843686Y-84430028D01*
X158272257Y-84430028D01*
X158129400Y-84501457D01*
X158057971Y-84644314D01*
X158057971Y-84930028D01*
X158129400Y-85072885D01*
X158272257Y-85144314D01*
X158415114Y-85144314D01*
X158557971Y-84430028D01*
X158057971Y-85787171D02*
X159057971Y-85787171D01*
X158200829Y-85787171D02*
X158129400Y-85858599D01*
X158057971Y-86001457D01*
X158057971Y-86215742D01*
X158129400Y-86358599D01*
X158272257Y-86430028D01*
X159057971Y-86430028D01*
X158986543Y-87072885D02*
X159057971Y-87215742D01*
X159057971Y-87501457D01*
X158986543Y-87644314D01*
X158843686Y-87715742D01*
X158772257Y-87715742D01*
X158629400Y-87644314D01*
X158557971Y-87501457D01*
X158557971Y-87287171D01*
X158486543Y-87144314D01*
X158343686Y-87072885D01*
X158272257Y-87072885D01*
X158129400Y-87144314D01*
X158057971Y-87287171D01*
X158057971Y-87501457D01*
X158129400Y-87644314D01*
X159057971Y-88572886D02*
X158986543Y-88430028D01*
X158915114Y-88358600D01*
X158772257Y-88287171D01*
X158343686Y-88287171D01*
X158200829Y-88358600D01*
X158129400Y-88430028D01*
X158057971Y-88572886D01*
X158057971Y-88787171D01*
X158129400Y-88930028D01*
X158200829Y-89001457D01*
X158343686Y-89072886D01*
X158772257Y-89072886D01*
X158915114Y-89001457D01*
X158986543Y-88930028D01*
X159057971Y-88787171D01*
X159057971Y-88572886D01*
X159057971Y-89715743D02*
X158057971Y-89715743D01*
X158343686Y-89715743D02*
X158200829Y-89787171D01*
X158129400Y-89858600D01*
X158057971Y-90001457D01*
X158057971Y-90144314D01*
X158986543Y-90572885D02*
X159057971Y-90715742D01*
X159057971Y-91001457D01*
X158986543Y-91144314D01*
X158843686Y-91215742D01*
X158772257Y-91215742D01*
X158629400Y-91144314D01*
X158557971Y-91001457D01*
X158557971Y-90787171D01*
X158486543Y-90644314D01*
X158343686Y-90572885D01*
X158272257Y-90572885D01*
X158129400Y-90644314D01*
X158057971Y-90787171D01*
X158057971Y-91001457D01*
X158129400Y-91144314D01*
X157629400Y-93787171D02*
X157557971Y-93644314D01*
X157557971Y-93430028D01*
X157629400Y-93215743D01*
X157772257Y-93072885D01*
X157915114Y-93001457D01*
X158200829Y-92930028D01*
X158415114Y-92930028D01*
X158700829Y-93001457D01*
X158843686Y-93072885D01*
X158986543Y-93215743D01*
X159057971Y-93430028D01*
X159057971Y-93572885D01*
X158986543Y-93787171D01*
X158915114Y-93858600D01*
X158415114Y-93858600D01*
X158415114Y-93572885D01*
X157557971Y-94358600D02*
X159057971Y-94715743D01*
X157986543Y-95001457D01*
X159057971Y-95287171D01*
X157557971Y-95644314D01*
X161607971Y-78072886D02*
X160107971Y-78072886D01*
X161536543Y-78072886D02*
X161607971Y-77930029D01*
X161607971Y-77644315D01*
X161536543Y-77501457D01*
X161465114Y-77430029D01*
X161322257Y-77358600D01*
X160893686Y-77358600D01*
X160750829Y-77430029D01*
X160679400Y-77501457D01*
X160607971Y-77644315D01*
X160607971Y-77930029D01*
X160679400Y-78072886D01*
X161536543Y-79358600D02*
X161607971Y-79215743D01*
X161607971Y-78930029D01*
X161536543Y-78787172D01*
X161393686Y-78715743D01*
X160822257Y-78715743D01*
X160679400Y-78787172D01*
X160607971Y-78930029D01*
X160607971Y-79215743D01*
X160679400Y-79358600D01*
X160822257Y-79430029D01*
X160965114Y-79430029D01*
X161107971Y-78715743D01*
X160607971Y-79930029D02*
X161607971Y-80287172D01*
X160607971Y-80644314D01*
X161536543Y-81787171D02*
X161607971Y-81644314D01*
X161607971Y-81358600D01*
X161536543Y-81215743D01*
X161393686Y-81144314D01*
X160822257Y-81144314D01*
X160679400Y-81215743D01*
X160607971Y-81358600D01*
X160607971Y-81644314D01*
X160679400Y-81787171D01*
X160822257Y-81858600D01*
X160965114Y-81858600D01*
X161107971Y-81144314D01*
X161607971Y-82715743D02*
X161536543Y-82572885D01*
X161393686Y-82501457D01*
X160107971Y-82501457D01*
X161607971Y-83501457D02*
X161536543Y-83358599D01*
X161465114Y-83287171D01*
X161322257Y-83215742D01*
X160893686Y-83215742D01*
X160750829Y-83287171D01*
X160679400Y-83358599D01*
X160607971Y-83501457D01*
X160607971Y-83715742D01*
X160679400Y-83858599D01*
X160750829Y-83930028D01*
X160893686Y-84001457D01*
X161322257Y-84001457D01*
X161465114Y-83930028D01*
X161536543Y-83858599D01*
X161607971Y-83715742D01*
X161607971Y-83501457D01*
X160607971Y-84644314D02*
X162107971Y-84644314D01*
X160679400Y-84644314D02*
X160607971Y-84787171D01*
X160607971Y-85072885D01*
X160679400Y-85215742D01*
X160750829Y-85287171D01*
X160893686Y-85358600D01*
X161322257Y-85358600D01*
X161465114Y-85287171D01*
X161536543Y-85215742D01*
X161607971Y-85072885D01*
X161607971Y-84787171D01*
X161536543Y-84644314D01*
X161607971Y-86001457D02*
X160607971Y-86001457D01*
X160750829Y-86001457D02*
X160679400Y-86072885D01*
X160607971Y-86215743D01*
X160607971Y-86430028D01*
X160679400Y-86572885D01*
X160822257Y-86644314D01*
X161607971Y-86644314D01*
X160822257Y-86644314D02*
X160679400Y-86715743D01*
X160607971Y-86858600D01*
X160607971Y-87072885D01*
X160679400Y-87215743D01*
X160822257Y-87287171D01*
X161607971Y-87287171D01*
X161536543Y-88572885D02*
X161607971Y-88430028D01*
X161607971Y-88144314D01*
X161536543Y-88001457D01*
X161393686Y-87930028D01*
X160822257Y-87930028D01*
X160679400Y-88001457D01*
X160607971Y-88144314D01*
X160607971Y-88430028D01*
X160679400Y-88572885D01*
X160822257Y-88644314D01*
X160965114Y-88644314D01*
X161107971Y-87930028D01*
X160607971Y-89287171D02*
X161607971Y-89287171D01*
X160750829Y-89287171D02*
X160679400Y-89358599D01*
X160607971Y-89501457D01*
X160607971Y-89715742D01*
X160679400Y-89858599D01*
X160822257Y-89930028D01*
X161607971Y-89930028D01*
X160607971Y-90430028D02*
X160607971Y-91001457D01*
X160107971Y-90644314D02*
X161393686Y-90644314D01*
X161536543Y-90715742D01*
X161607971Y-90858600D01*
X161607971Y-91001457D01*
X161607971Y-92644314D02*
X160107971Y-92644314D01*
X160679400Y-92644314D02*
X160607971Y-92787171D01*
X160607971Y-93072885D01*
X160679400Y-93215742D01*
X160750829Y-93287171D01*
X160893686Y-93358600D01*
X161322257Y-93358600D01*
X161465114Y-93287171D01*
X161536543Y-93215742D01*
X161607971Y-93072885D01*
X161607971Y-92787171D01*
X161536543Y-92644314D01*
X161607971Y-94215743D02*
X161536543Y-94072885D01*
X161465114Y-94001457D01*
X161322257Y-93930028D01*
X160893686Y-93930028D01*
X160750829Y-94001457D01*
X160679400Y-94072885D01*
X160607971Y-94215743D01*
X160607971Y-94430028D01*
X160679400Y-94572885D01*
X160750829Y-94644314D01*
X160893686Y-94715743D01*
X161322257Y-94715743D01*
X161465114Y-94644314D01*
X161536543Y-94572885D01*
X161607971Y-94430028D01*
X161607971Y-94215743D01*
X161607971Y-96001457D02*
X160822257Y-96001457D01*
X160679400Y-95930028D01*
X160607971Y-95787171D01*
X160607971Y-95501457D01*
X160679400Y-95358600D01*
X161536543Y-96001457D02*
X161607971Y-95858600D01*
X161607971Y-95501457D01*
X161536543Y-95358600D01*
X161393686Y-95287171D01*
X161250829Y-95287171D01*
X161107971Y-95358600D01*
X161036543Y-95501457D01*
X161036543Y-95858600D01*
X160965114Y-96001457D01*
X161607971Y-96715743D02*
X160607971Y-96715743D01*
X160893686Y-96715743D02*
X160750829Y-96787171D01*
X160679400Y-96858600D01*
X160607971Y-97001457D01*
X160607971Y-97144314D01*
X161607971Y-98287171D02*
X160107971Y-98287171D01*
X161536543Y-98287171D02*
X161607971Y-98144314D01*
X161607971Y-97858600D01*
X161536543Y-97715742D01*
X161465114Y-97644314D01*
X161322257Y-97572885D01*
X160893686Y-97572885D01*
X160750829Y-97644314D01*
X160679400Y-97715742D01*
X160607971Y-97858600D01*
X160607971Y-98144314D01*
X160679400Y-98287171D01*
X166707971Y-76037171D02*
X165207971Y-76037171D01*
X166707971Y-76680028D02*
X165922257Y-76680028D01*
X165779400Y-76608599D01*
X165707971Y-76465742D01*
X165707971Y-76251457D01*
X165779400Y-76108599D01*
X165850829Y-76037171D01*
X165707971Y-77180028D02*
X165707971Y-77751457D01*
X165207971Y-77394314D02*
X166493686Y-77394314D01*
X166636543Y-77465742D01*
X166707971Y-77608600D01*
X166707971Y-77751457D01*
X165707971Y-78037171D02*
X165707971Y-78608600D01*
X165207971Y-78251457D02*
X166493686Y-78251457D01*
X166636543Y-78322885D01*
X166707971Y-78465743D01*
X166707971Y-78608600D01*
X165707971Y-79108600D02*
X167207971Y-79108600D01*
X165779400Y-79108600D02*
X165707971Y-79251457D01*
X165707971Y-79537171D01*
X165779400Y-79680028D01*
X165850829Y-79751457D01*
X165993686Y-79822886D01*
X166422257Y-79822886D01*
X166565114Y-79751457D01*
X166636543Y-79680028D01*
X166707971Y-79537171D01*
X166707971Y-79251457D01*
X166636543Y-79108600D01*
X166565114Y-80465743D02*
X166636543Y-80537171D01*
X166707971Y-80465743D01*
X166636543Y-80394314D01*
X166565114Y-80465743D01*
X166707971Y-80465743D01*
X165779400Y-80465743D02*
X165850829Y-80537171D01*
X165922257Y-80465743D01*
X165850829Y-80394314D01*
X165779400Y-80465743D01*
X165922257Y-80465743D01*
X165136543Y-82251457D02*
X167065114Y-80965743D01*
X165136543Y-83822886D02*
X167065114Y-82537172D01*
X166707971Y-84322887D02*
X165707971Y-84322887D01*
X165850829Y-84322887D02*
X165779400Y-84394315D01*
X165707971Y-84537173D01*
X165707971Y-84751458D01*
X165779400Y-84894315D01*
X165922257Y-84965744D01*
X166707971Y-84965744D01*
X165922257Y-84965744D02*
X165779400Y-85037173D01*
X165707971Y-85180030D01*
X165707971Y-85394315D01*
X165779400Y-85537173D01*
X165922257Y-85608601D01*
X166707971Y-85608601D01*
X165707971Y-86180030D02*
X166707971Y-86537173D01*
X165707971Y-86894315D02*
X166707971Y-86537173D01*
X167065114Y-86394315D01*
X167136543Y-86322887D01*
X167207971Y-86180030D01*
X166636543Y-87394315D02*
X166707971Y-87537172D01*
X166707971Y-87822887D01*
X166636543Y-87965744D01*
X166493686Y-88037172D01*
X166422257Y-88037172D01*
X166279400Y-87965744D01*
X166207971Y-87822887D01*
X166207971Y-87608601D01*
X166136543Y-87465744D01*
X165993686Y-87394315D01*
X165922257Y-87394315D01*
X165779400Y-87465744D01*
X165707971Y-87608601D01*
X165707971Y-87822887D01*
X165779400Y-87965744D01*
X166636543Y-89251458D02*
X166707971Y-89108601D01*
X166707971Y-88822887D01*
X166636543Y-88680030D01*
X166493686Y-88608601D01*
X165922257Y-88608601D01*
X165779400Y-88680030D01*
X165707971Y-88822887D01*
X165707971Y-89108601D01*
X165779400Y-89251458D01*
X165922257Y-89322887D01*
X166065114Y-89322887D01*
X166207971Y-88608601D01*
X165707971Y-89965744D02*
X166707971Y-89965744D01*
X165850829Y-89965744D02*
X165779400Y-90037172D01*
X165707971Y-90180030D01*
X165707971Y-90394315D01*
X165779400Y-90537172D01*
X165922257Y-90608601D01*
X166707971Y-90608601D01*
X166636543Y-91251458D02*
X166707971Y-91394315D01*
X166707971Y-91680030D01*
X166636543Y-91822887D01*
X166493686Y-91894315D01*
X166422257Y-91894315D01*
X166279400Y-91822887D01*
X166207971Y-91680030D01*
X166207971Y-91465744D01*
X166136543Y-91322887D01*
X165993686Y-91251458D01*
X165922257Y-91251458D01*
X165779400Y-91322887D01*
X165707971Y-91465744D01*
X165707971Y-91680030D01*
X165779400Y-91822887D01*
X166707971Y-92751459D02*
X166636543Y-92608601D01*
X166565114Y-92537173D01*
X166422257Y-92465744D01*
X165993686Y-92465744D01*
X165850829Y-92537173D01*
X165779400Y-92608601D01*
X165707971Y-92751459D01*
X165707971Y-92965744D01*
X165779400Y-93108601D01*
X165850829Y-93180030D01*
X165993686Y-93251459D01*
X166422257Y-93251459D01*
X166565114Y-93180030D01*
X166636543Y-93108601D01*
X166707971Y-92965744D01*
X166707971Y-92751459D01*
X166707971Y-93894316D02*
X165707971Y-93894316D01*
X165993686Y-93894316D02*
X165850829Y-93965744D01*
X165779400Y-94037173D01*
X165707971Y-94180030D01*
X165707971Y-94322887D01*
X166636543Y-94751458D02*
X166707971Y-94894315D01*
X166707971Y-95180030D01*
X166636543Y-95322887D01*
X166493686Y-95394315D01*
X166422257Y-95394315D01*
X166279400Y-95322887D01*
X166207971Y-95180030D01*
X166207971Y-94965744D01*
X166136543Y-94822887D01*
X165993686Y-94751458D01*
X165922257Y-94751458D01*
X165779400Y-94822887D01*
X165707971Y-94965744D01*
X165707971Y-95180030D01*
X165779400Y-95322887D01*
X166565114Y-96037173D02*
X166636543Y-96108601D01*
X166707971Y-96037173D01*
X166636543Y-95965744D01*
X166565114Y-96037173D01*
X166707971Y-96037173D01*
X166707971Y-96965745D02*
X166636543Y-96822887D01*
X166565114Y-96751459D01*
X166422257Y-96680030D01*
X165993686Y-96680030D01*
X165850829Y-96751459D01*
X165779400Y-96822887D01*
X165707971Y-96965745D01*
X165707971Y-97180030D01*
X165779400Y-97322887D01*
X165850829Y-97394316D01*
X165993686Y-97465745D01*
X166422257Y-97465745D01*
X166565114Y-97394316D01*
X166636543Y-97322887D01*
X166707971Y-97180030D01*
X166707971Y-96965745D01*
X166707971Y-98108602D02*
X165707971Y-98108602D01*
X165993686Y-98108602D02*
X165850829Y-98180030D01*
X165779400Y-98251459D01*
X165707971Y-98394316D01*
X165707971Y-98537173D01*
X165707971Y-99680030D02*
X166922257Y-99680030D01*
X167065114Y-99608601D01*
X167136543Y-99537173D01*
X167207971Y-99394316D01*
X167207971Y-99180030D01*
X167136543Y-99037173D01*
X166636543Y-99680030D02*
X166707971Y-99537173D01*
X166707971Y-99251459D01*
X166636543Y-99108601D01*
X166565114Y-99037173D01*
X166422257Y-98965744D01*
X165993686Y-98965744D01*
X165850829Y-99037173D01*
X165779400Y-99108601D01*
X165707971Y-99251459D01*
X165707971Y-99537173D01*
X165779400Y-99680030D01*
X159900214Y-66083571D02*
X160400214Y-65369286D01*
X160757357Y-66083571D02*
X160757357Y-64583571D01*
X160185929Y-64583571D01*
X160043071Y-64655000D01*
X159971643Y-64726429D01*
X159900214Y-64869286D01*
X159900214Y-65083571D01*
X159971643Y-65226429D01*
X160043071Y-65297857D01*
X160185929Y-65369286D01*
X160757357Y-65369286D01*
X158685929Y-66012143D02*
X158828786Y-66083571D01*
X159114500Y-66083571D01*
X159257357Y-66012143D01*
X159328786Y-65869286D01*
X159328786Y-65297857D01*
X159257357Y-65155000D01*
X159114500Y-65083571D01*
X158828786Y-65083571D01*
X158685929Y-65155000D01*
X158614500Y-65297857D01*
X158614500Y-65440714D01*
X159328786Y-65583571D01*
X158114500Y-65083571D02*
X157757357Y-66083571D01*
X157400215Y-65083571D01*
X156828786Y-66083571D02*
X156828786Y-65083571D01*
X156828786Y-64583571D02*
X156900215Y-64655000D01*
X156828786Y-64726429D01*
X156757358Y-64655000D01*
X156828786Y-64583571D01*
X156828786Y-64726429D01*
X156185929Y-66012143D02*
X156043072Y-66083571D01*
X155757357Y-66083571D01*
X155614500Y-66012143D01*
X155543072Y-65869286D01*
X155543072Y-65797857D01*
X155614500Y-65655000D01*
X155757357Y-65583571D01*
X155971643Y-65583571D01*
X156114500Y-65512143D01*
X156185929Y-65369286D01*
X156185929Y-65297857D01*
X156114500Y-65155000D01*
X155971643Y-65083571D01*
X155757357Y-65083571D01*
X155614500Y-65155000D01*
X154900214Y-66083571D02*
X154900214Y-65083571D01*
X154900214Y-64583571D02*
X154971643Y-64655000D01*
X154900214Y-64726429D01*
X154828786Y-64655000D01*
X154900214Y-64583571D01*
X154900214Y-64726429D01*
X153971642Y-66083571D02*
X154114500Y-66012143D01*
X154185928Y-65940714D01*
X154257357Y-65797857D01*
X154257357Y-65369286D01*
X154185928Y-65226429D01*
X154114500Y-65155000D01*
X153971642Y-65083571D01*
X153757357Y-65083571D01*
X153614500Y-65155000D01*
X153543071Y-65226429D01*
X153471642Y-65369286D01*
X153471642Y-65797857D01*
X153543071Y-65940714D01*
X153614500Y-66012143D01*
X153757357Y-66083571D01*
X153971642Y-66083571D01*
X152828785Y-65083571D02*
X152828785Y-66083571D01*
X152828785Y-65226429D02*
X152757357Y-65155000D01*
X152614499Y-65083571D01*
X152400214Y-65083571D01*
X152257357Y-65155000D01*
X152185928Y-65297857D01*
X152185928Y-66083571D01*
X150043071Y-64583571D02*
X149900214Y-64583571D01*
X149757357Y-64655000D01*
X149685928Y-64726429D01*
X149614499Y-64869286D01*
X149543071Y-65155000D01*
X149543071Y-65512143D01*
X149614499Y-65797857D01*
X149685928Y-65940714D01*
X149757357Y-66012143D01*
X149900214Y-66083571D01*
X150043071Y-66083571D01*
X150185928Y-66012143D01*
X150257357Y-65940714D01*
X150328785Y-65797857D01*
X150400214Y-65512143D01*
X150400214Y-65155000D01*
X150328785Y-64869286D01*
X150257357Y-64726429D01*
X150185928Y-64655000D01*
X150043071Y-64583571D01*
X148900214Y-65940714D02*
X148828786Y-66012143D01*
X148900214Y-66083571D01*
X148971643Y-66012143D01*
X148900214Y-65940714D01*
X148900214Y-66083571D01*
X147971642Y-65226429D02*
X148114500Y-65155000D01*
X148185928Y-65083571D01*
X148257357Y-64940714D01*
X148257357Y-64869286D01*
X148185928Y-64726429D01*
X148114500Y-64655000D01*
X147971642Y-64583571D01*
X147685928Y-64583571D01*
X147543071Y-64655000D01*
X147471642Y-64726429D01*
X147400214Y-64869286D01*
X147400214Y-64940714D01*
X147471642Y-65083571D01*
X147543071Y-65155000D01*
X147685928Y-65226429D01*
X147971642Y-65226429D01*
X148114500Y-65297857D01*
X148185928Y-65369286D01*
X148257357Y-65512143D01*
X148257357Y-65797857D01*
X148185928Y-65940714D01*
X148114500Y-66012143D01*
X147971642Y-66083571D01*
X147685928Y-66083571D01*
X147543071Y-66012143D01*
X147471642Y-65940714D01*
X147400214Y-65797857D01*
X147400214Y-65512143D01*
X147471642Y-65369286D01*
X147543071Y-65297857D01*
X147685928Y-65226429D01*
D13*
X145738905Y-87909476D02*
X146386524Y-87909476D01*
X146462714Y-87947571D01*
X146500810Y-87985667D01*
X146538905Y-88061857D01*
X146538905Y-88214238D01*
X146500810Y-88290429D01*
X146462714Y-88328524D01*
X146386524Y-88366619D01*
X145738905Y-88366619D01*
X145738905Y-88671381D02*
X145738905Y-89204714D01*
X146538905Y-88861857D01*
D11*
X152868381Y-81726543D02*
X152868381Y-82297972D01*
X153868381Y-82012257D02*
X152868381Y-82012257D01*
X153344571Y-82631305D02*
X153344571Y-82964639D01*
X153868381Y-83107496D02*
X153868381Y-82631305D01*
X152868381Y-82631305D01*
X152868381Y-83107496D01*
X153820762Y-83488448D02*
X153868381Y-83631305D01*
X153868381Y-83869401D01*
X153820762Y-83964639D01*
X153773143Y-84012258D01*
X153677905Y-84059877D01*
X153582667Y-84059877D01*
X153487429Y-84012258D01*
X153439810Y-83964639D01*
X153392190Y-83869401D01*
X153344571Y-83678924D01*
X153296952Y-83583686D01*
X153249333Y-83536067D01*
X153154095Y-83488448D01*
X153058857Y-83488448D01*
X152963619Y-83536067D01*
X152916000Y-83583686D01*
X152868381Y-83678924D01*
X152868381Y-83917020D01*
X152916000Y-84059877D01*
X152868381Y-84345591D02*
X152868381Y-84917020D01*
X153868381Y-84631305D02*
X152868381Y-84631305D01*
X153868381Y-85250353D02*
X152868381Y-85250353D01*
X153582667Y-85583687D01*
X152868381Y-85917020D01*
X153868381Y-85917020D01*
X152868381Y-86583686D02*
X152868381Y-86774163D01*
X152916000Y-86869401D01*
X153011238Y-86964639D01*
X153201714Y-87012258D01*
X153535048Y-87012258D01*
X153725524Y-86964639D01*
X153820762Y-86869401D01*
X153868381Y-86774163D01*
X153868381Y-86583686D01*
X153820762Y-86488448D01*
X153725524Y-86393210D01*
X153535048Y-86345591D01*
X153201714Y-86345591D01*
X153011238Y-86393210D01*
X152916000Y-86488448D01*
X152868381Y-86583686D01*
X153868381Y-87440829D02*
X152868381Y-87440829D01*
X152868381Y-87678924D01*
X152916000Y-87821782D01*
X153011238Y-87917020D01*
X153106476Y-87964639D01*
X153296952Y-88012258D01*
X153439810Y-88012258D01*
X153630286Y-87964639D01*
X153725524Y-87917020D01*
X153820762Y-87821782D01*
X153868381Y-87678924D01*
X153868381Y-87440829D01*
X153344571Y-88440829D02*
X153344571Y-88774163D01*
X153868381Y-88917020D02*
X153868381Y-88440829D01*
X152868381Y-88440829D01*
X152868381Y-88917020D01*
X155818531Y-82166059D02*
X155818531Y-81832725D01*
X156342341Y-81832725D02*
X155342341Y-81832725D01*
X155342341Y-82308916D01*
X155342341Y-82880344D02*
X155342341Y-83070821D01*
X155389960Y-83166059D01*
X155485198Y-83261297D01*
X155675674Y-83308916D01*
X156009008Y-83308916D01*
X156199484Y-83261297D01*
X156294722Y-83166059D01*
X156342341Y-83070821D01*
X156342341Y-82880344D01*
X156294722Y-82785106D01*
X156199484Y-82689868D01*
X156009008Y-82642249D01*
X155675674Y-82642249D01*
X155485198Y-82689868D01*
X155389960Y-82785106D01*
X155342341Y-82880344D01*
X156342341Y-84308916D02*
X155866150Y-83975582D01*
X156342341Y-83737487D02*
X155342341Y-83737487D01*
X155342341Y-84118440D01*
X155389960Y-84213678D01*
X155437579Y-84261297D01*
X155532817Y-84308916D01*
X155675674Y-84308916D01*
X155770912Y-84261297D01*
X155818531Y-84213678D01*
X155866150Y-84118440D01*
X155866150Y-83737487D01*
X156247103Y-85308916D02*
X156294722Y-85261297D01*
X156342341Y-85118440D01*
X156342341Y-85023202D01*
X156294722Y-84880344D01*
X156199484Y-84785106D01*
X156104246Y-84737487D01*
X155913770Y-84689868D01*
X155770912Y-84689868D01*
X155580436Y-84737487D01*
X155485198Y-84785106D01*
X155389960Y-84880344D01*
X155342341Y-85023202D01*
X155342341Y-85118440D01*
X155389960Y-85261297D01*
X155437579Y-85308916D01*
X155818531Y-85737487D02*
X155818531Y-86070821D01*
X156342341Y-86213678D02*
X156342341Y-85737487D01*
X155342341Y-85737487D01*
X155342341Y-86213678D01*
X156437579Y-86404154D02*
X156437579Y-87166059D01*
X155818531Y-87737488D02*
X155866150Y-87880345D01*
X155913770Y-87927964D01*
X156009008Y-87975583D01*
X156151865Y-87975583D01*
X156247103Y-87927964D01*
X156294722Y-87880345D01*
X156342341Y-87785107D01*
X156342341Y-87404154D01*
X155342341Y-87404154D01*
X155342341Y-87737488D01*
X155389960Y-87832726D01*
X155437579Y-87880345D01*
X155532817Y-87927964D01*
X155628055Y-87927964D01*
X155723293Y-87880345D01*
X155770912Y-87832726D01*
X155818531Y-87737488D01*
X155818531Y-87404154D01*
X155342341Y-88594630D02*
X155342341Y-88785107D01*
X155389960Y-88880345D01*
X155485198Y-88975583D01*
X155675674Y-89023202D01*
X156009008Y-89023202D01*
X156199484Y-88975583D01*
X156294722Y-88880345D01*
X156342341Y-88785107D01*
X156342341Y-88594630D01*
X156294722Y-88499392D01*
X156199484Y-88404154D01*
X156009008Y-88356535D01*
X155675674Y-88356535D01*
X155485198Y-88404154D01*
X155389960Y-88499392D01*
X155342341Y-88594630D01*
X155342341Y-89642249D02*
X155342341Y-89832726D01*
X155389960Y-89927964D01*
X155485198Y-90023202D01*
X155675674Y-90070821D01*
X156009008Y-90070821D01*
X156199484Y-90023202D01*
X156294722Y-89927964D01*
X156342341Y-89832726D01*
X156342341Y-89642249D01*
X156294722Y-89547011D01*
X156199484Y-89451773D01*
X156009008Y-89404154D01*
X155675674Y-89404154D01*
X155485198Y-89451773D01*
X155389960Y-89547011D01*
X155342341Y-89642249D01*
X155342341Y-90356535D02*
X155342341Y-90927964D01*
X156342341Y-90642249D02*
X155342341Y-90642249D01*
X156342341Y-91737488D02*
X156342341Y-91261297D01*
X155342341Y-91261297D01*
X155342341Y-92261297D02*
X155342341Y-92451774D01*
X155389960Y-92547012D01*
X155485198Y-92642250D01*
X155675674Y-92689869D01*
X156009008Y-92689869D01*
X156199484Y-92642250D01*
X156294722Y-92547012D01*
X156342341Y-92451774D01*
X156342341Y-92261297D01*
X156294722Y-92166059D01*
X156199484Y-92070821D01*
X156009008Y-92023202D01*
X155675674Y-92023202D01*
X155485198Y-92070821D01*
X155389960Y-92166059D01*
X155342341Y-92261297D01*
X156056627Y-93070821D02*
X156056627Y-93547012D01*
X156342341Y-92975583D02*
X155342341Y-93308916D01*
X156342341Y-93642250D01*
X156342341Y-93975583D02*
X155342341Y-93975583D01*
X155342341Y-94213678D01*
X155389960Y-94356536D01*
X155485198Y-94451774D01*
X155580436Y-94499393D01*
X155770912Y-94547012D01*
X155913770Y-94547012D01*
X156104246Y-94499393D01*
X156199484Y-94451774D01*
X156294722Y-94356536D01*
X156342341Y-94213678D01*
X156342341Y-93975583D01*
X155818531Y-94975583D02*
X155818531Y-95308917D01*
X156342341Y-95451774D02*
X156342341Y-94975583D01*
X155342341Y-94975583D01*
X155342341Y-95451774D01*
X156342341Y-96451774D02*
X155866150Y-96118440D01*
X156342341Y-95880345D02*
X155342341Y-95880345D01*
X155342341Y-96261298D01*
X155389960Y-96356536D01*
X155437579Y-96404155D01*
X155532817Y-96451774D01*
X155675674Y-96451774D01*
X155770912Y-96404155D01*
X155818531Y-96356536D01*
X155866150Y-96261298D01*
X155866150Y-95880345D01*
X151204562Y-81808867D02*
X151252181Y-81951724D01*
X151252181Y-82189820D01*
X151204562Y-82285058D01*
X151156943Y-82332677D01*
X151061705Y-82380296D01*
X150966467Y-82380296D01*
X150871229Y-82332677D01*
X150823610Y-82285058D01*
X150775990Y-82189820D01*
X150728371Y-81999343D01*
X150680752Y-81904105D01*
X150633133Y-81856486D01*
X150537895Y-81808867D01*
X150442657Y-81808867D01*
X150347419Y-81856486D01*
X150299800Y-81904105D01*
X150252181Y-81999343D01*
X150252181Y-82237439D01*
X150299800Y-82380296D01*
X150252181Y-82713629D02*
X151252181Y-82951724D01*
X150537895Y-83142201D01*
X151252181Y-83332677D01*
X150252181Y-83570772D01*
X151156943Y-84523153D02*
X151204562Y-84475534D01*
X151252181Y-84332677D01*
X151252181Y-84237439D01*
X151204562Y-84094581D01*
X151109324Y-83999343D01*
X151014086Y-83951724D01*
X150823610Y-83904105D01*
X150680752Y-83904105D01*
X150490276Y-83951724D01*
X150395038Y-83999343D01*
X150299800Y-84094581D01*
X150252181Y-84237439D01*
X150252181Y-84332677D01*
X150299800Y-84475534D01*
X150347419Y-84523153D01*
X151252181Y-85475534D02*
X151252181Y-84904105D01*
X151252181Y-85189819D02*
X150252181Y-85189819D01*
X150395038Y-85094581D01*
X150490276Y-84999343D01*
X150537895Y-84904105D01*
X148613762Y-81783467D02*
X148661381Y-81926324D01*
X148661381Y-82164420D01*
X148613762Y-82259658D01*
X148566143Y-82307277D01*
X148470905Y-82354896D01*
X148375667Y-82354896D01*
X148280429Y-82307277D01*
X148232810Y-82259658D01*
X148185190Y-82164420D01*
X148137571Y-81973943D01*
X148089952Y-81878705D01*
X148042333Y-81831086D01*
X147947095Y-81783467D01*
X147851857Y-81783467D01*
X147756619Y-81831086D01*
X147709000Y-81878705D01*
X147661381Y-81973943D01*
X147661381Y-82212039D01*
X147709000Y-82354896D01*
X147661381Y-82688229D02*
X148661381Y-82926324D01*
X147947095Y-83116801D01*
X148661381Y-83307277D01*
X147661381Y-83545372D01*
X148566143Y-84497753D02*
X148613762Y-84450134D01*
X148661381Y-84307277D01*
X148661381Y-84212039D01*
X148613762Y-84069181D01*
X148518524Y-83973943D01*
X148423286Y-83926324D01*
X148232810Y-83878705D01*
X148089952Y-83878705D01*
X147899476Y-83926324D01*
X147804238Y-83973943D01*
X147709000Y-84069181D01*
X147661381Y-84212039D01*
X147661381Y-84307277D01*
X147709000Y-84450134D01*
X147756619Y-84497753D01*
X147756619Y-84878705D02*
X147709000Y-84926324D01*
X147661381Y-85021562D01*
X147661381Y-85259658D01*
X147709000Y-85354896D01*
X147756619Y-85402515D01*
X147851857Y-85450134D01*
X147947095Y-85450134D01*
X148089952Y-85402515D01*
X148661381Y-84831086D01*
X148661381Y-85450134D01*
X132573447Y-94100282D02*
X132430590Y-94147901D01*
X132192494Y-94147901D01*
X132097256Y-94100282D01*
X132049637Y-94052663D01*
X132002018Y-93957425D01*
X132002018Y-93862187D01*
X132049637Y-93766949D01*
X132097256Y-93719330D01*
X132192494Y-93671710D01*
X132382971Y-93624091D01*
X132478209Y-93576472D01*
X132525828Y-93528853D01*
X132573447Y-93433615D01*
X132573447Y-93338377D01*
X132525828Y-93243139D01*
X132478209Y-93195520D01*
X132382971Y-93147901D01*
X132144875Y-93147901D01*
X132002018Y-93195520D01*
X131668685Y-93147901D02*
X131430590Y-94147901D01*
X131240113Y-93433615D01*
X131049637Y-94147901D01*
X130811542Y-93147901D01*
X130430590Y-94147901D02*
X130430590Y-93147901D01*
X130192495Y-93147901D01*
X130049637Y-93195520D01*
X129954399Y-93290758D01*
X129906780Y-93385996D01*
X129859161Y-93576472D01*
X129859161Y-93719330D01*
X129906780Y-93909806D01*
X129954399Y-94005044D01*
X130049637Y-94100282D01*
X130192495Y-94147901D01*
X130430590Y-94147901D01*
X129430590Y-94147901D02*
X129430590Y-93147901D01*
X128763924Y-93147901D02*
X128573447Y-93147901D01*
X128478209Y-93195520D01*
X128382971Y-93290758D01*
X128335352Y-93481234D01*
X128335352Y-93814568D01*
X128382971Y-94005044D01*
X128478209Y-94100282D01*
X128573447Y-94147901D01*
X128763924Y-94147901D01*
X128859162Y-94100282D01*
X128954400Y-94005044D01*
X129002019Y-93814568D01*
X129002019Y-93481234D01*
X128954400Y-93290758D01*
X128859162Y-93195520D01*
X128763924Y-93147901D01*
X126985021Y-96312219D02*
X126508830Y-95978885D01*
X126985021Y-95740790D02*
X125985021Y-95740790D01*
X125985021Y-96121743D01*
X126032640Y-96216981D01*
X126080259Y-96264600D01*
X126175497Y-96312219D01*
X126318354Y-96312219D01*
X126413592Y-96264600D01*
X126461211Y-96216981D01*
X126508830Y-96121743D01*
X126508830Y-95740790D01*
X126461211Y-96740790D02*
X126461211Y-97074124D01*
X126985021Y-97216981D02*
X126985021Y-96740790D01*
X125985021Y-96740790D01*
X125985021Y-97216981D01*
X126937402Y-97597933D02*
X126985021Y-97740790D01*
X126985021Y-97978886D01*
X126937402Y-98074124D01*
X126889783Y-98121743D01*
X126794545Y-98169362D01*
X126699307Y-98169362D01*
X126604069Y-98121743D01*
X126556450Y-98074124D01*
X126508830Y-97978886D01*
X126461211Y-97788409D01*
X126413592Y-97693171D01*
X126365973Y-97645552D01*
X126270735Y-97597933D01*
X126175497Y-97597933D01*
X126080259Y-97645552D01*
X126032640Y-97693171D01*
X125985021Y-97788409D01*
X125985021Y-98026505D01*
X126032640Y-98169362D01*
X126461211Y-98597933D02*
X126461211Y-98931267D01*
X126985021Y-99074124D02*
X126985021Y-98597933D01*
X125985021Y-98597933D01*
X125985021Y-99074124D01*
X125985021Y-99359838D02*
X125985021Y-99931267D01*
X126985021Y-99645552D02*
X125985021Y-99645552D01*
X132711225Y-102228282D02*
X132568368Y-102275901D01*
X132330272Y-102275901D01*
X132235034Y-102228282D01*
X132187415Y-102180663D01*
X132139796Y-102085425D01*
X132139796Y-101990187D01*
X132187415Y-101894949D01*
X132235034Y-101847330D01*
X132330272Y-101799710D01*
X132520749Y-101752091D01*
X132615987Y-101704472D01*
X132663606Y-101656853D01*
X132711225Y-101561615D01*
X132711225Y-101466377D01*
X132663606Y-101371139D01*
X132615987Y-101323520D01*
X132520749Y-101275901D01*
X132282653Y-101275901D01*
X132139796Y-101323520D01*
X131806463Y-101275901D02*
X131568368Y-102275901D01*
X131377891Y-101561615D01*
X131187415Y-102275901D01*
X130949320Y-101275901D01*
X129996939Y-102180663D02*
X130044558Y-102228282D01*
X130187415Y-102275901D01*
X130282653Y-102275901D01*
X130425511Y-102228282D01*
X130520749Y-102133044D01*
X130568368Y-102037806D01*
X130615987Y-101847330D01*
X130615987Y-101704472D01*
X130568368Y-101513996D01*
X130520749Y-101418758D01*
X130425511Y-101323520D01*
X130282653Y-101275901D01*
X130187415Y-101275901D01*
X130044558Y-101323520D01*
X129996939Y-101371139D01*
X129092177Y-102275901D02*
X129568368Y-102275901D01*
X129568368Y-101275901D01*
X128758844Y-102275901D02*
X128758844Y-101275901D01*
X128187415Y-102275901D02*
X128615987Y-101704472D01*
X128187415Y-101275901D02*
X128758844Y-101847330D01*
X133334664Y-95659320D02*
X133429902Y-95611701D01*
X133572759Y-95611701D01*
X133715617Y-95659320D01*
X133810855Y-95754558D01*
X133858474Y-95849796D01*
X133906093Y-96040272D01*
X133906093Y-96183130D01*
X133858474Y-96373606D01*
X133810855Y-96468844D01*
X133715617Y-96564082D01*
X133572759Y-96611701D01*
X133477521Y-96611701D01*
X133334664Y-96564082D01*
X133287045Y-96516463D01*
X133287045Y-96183130D01*
X133477521Y-96183130D01*
X132858474Y-96611701D02*
X132858474Y-95611701D01*
X132287045Y-96611701D01*
X132287045Y-95611701D01*
X131810855Y-96611701D02*
X131810855Y-95611701D01*
X131572760Y-95611701D01*
X131429902Y-95659320D01*
X131334664Y-95754558D01*
X131287045Y-95849796D01*
X131239426Y-96040272D01*
X131239426Y-96183130D01*
X131287045Y-96373606D01*
X131334664Y-96468844D01*
X131429902Y-96564082D01*
X131572760Y-96611701D01*
X131810855Y-96611701D01*
X134153661Y-94869998D02*
X134153661Y-95489046D01*
X134534613Y-95155712D01*
X134534613Y-95298570D01*
X134582232Y-95393808D01*
X134629851Y-95441427D01*
X134725090Y-95489046D01*
X134963185Y-95489046D01*
X135058423Y-95441427D01*
X135106042Y-95393808D01*
X135153661Y-95298570D01*
X135153661Y-95012855D01*
X135106042Y-94917617D01*
X135058423Y-94869998D01*
X134486994Y-95822379D02*
X135153661Y-96060474D01*
X134486994Y-96298570D01*
X134153661Y-96584284D02*
X134153661Y-97203332D01*
X134534613Y-96869998D01*
X134534613Y-97012856D01*
X134582232Y-97108094D01*
X134629851Y-97155713D01*
X134725090Y-97203332D01*
X134963185Y-97203332D01*
X135058423Y-97155713D01*
X135106042Y-97108094D01*
X135153661Y-97012856D01*
X135153661Y-96727141D01*
X135106042Y-96631903D01*
X135058423Y-96584284D01*
X135106042Y-98822380D02*
X135153661Y-98727142D01*
X135153661Y-98536665D01*
X135106042Y-98441427D01*
X135058423Y-98393808D01*
X134963185Y-98346189D01*
X134677470Y-98346189D01*
X134582232Y-98393808D01*
X134534613Y-98441427D01*
X134486994Y-98536665D01*
X134486994Y-98727142D01*
X134534613Y-98822380D01*
X134486994Y-99250951D02*
X135486994Y-99250951D01*
X134534613Y-99250951D02*
X134486994Y-99346189D01*
X134486994Y-99536666D01*
X134534613Y-99631904D01*
X134582232Y-99679523D01*
X134677470Y-99727142D01*
X134963185Y-99727142D01*
X135058423Y-99679523D01*
X135106042Y-99631904D01*
X135153661Y-99536666D01*
X135153661Y-99346189D01*
X135106042Y-99250951D01*
X134486994Y-100584285D02*
X135153661Y-100584285D01*
X134486994Y-100155713D02*
X135010804Y-100155713D01*
X135106042Y-100203332D01*
X135153661Y-100298570D01*
X135153661Y-100441428D01*
X135106042Y-100536666D01*
X135058423Y-100584285D01*
%LPC*%
D14*
X148742400Y-93548200D03*
D15*
X148742400Y-91008200D03*
D16*
X144399000Y-89773000D03*
X142399000Y-89773000D03*
X140399000Y-89773000D03*
X138399000Y-89773000D03*
X136399000Y-89773000D03*
X134399000Y-89773000D03*
X132399000Y-89773000D03*
X130399000Y-89773000D03*
X130399000Y-70873000D03*
X132399000Y-70873000D03*
X134399000Y-70873000D03*
X136399000Y-70873000D03*
X138399000Y-70873000D03*
X140399000Y-70873000D03*
X142399000Y-70873000D03*
D17*
X163982400Y-93216000D03*
X163982400Y-101196000D03*
D18*
X150622000Y-107950000D03*
D19*
X150622000Y-110490000D03*
X153162000Y-107950000D03*
X153162000Y-110490000D03*
X155702000Y-107950000D03*
X155702000Y-110490000D03*
X158242000Y-107950000D03*
X158242000Y-110490000D03*
X160782000Y-107950000D03*
X160782000Y-110490000D03*
X124460000Y-97790000D03*
X121920000Y-97790000D03*
X124460000Y-95250000D03*
X121920000Y-95250000D03*
X124460000Y-92710000D03*
X121920000Y-92710000D03*
X124460000Y-90170000D03*
X121920000Y-90170000D03*
X124460000Y-87630000D03*
X121920000Y-87630000D03*
X124460000Y-85090000D03*
X121920000Y-85090000D03*
D18*
X121920000Y-74930000D03*
D19*
X124460000Y-74930000D03*
X121920000Y-77470000D03*
X124460000Y-77470000D03*
X121920000Y-80010000D03*
X124460000Y-80010000D03*
X121920000Y-82550000D03*
X124460000Y-82550000D03*
X126746000Y-103378000D03*
X126746000Y-105918000D03*
X129286000Y-103378000D03*
X129286000Y-105918000D03*
X131826000Y-103378000D03*
X131826000Y-105918000D03*
D18*
X134366000Y-103378000D03*
D19*
X134366000Y-105918000D03*
D20*
X127127000Y-65786000D03*
D21*
X145427600Y-64795400D03*
X138277600Y-64795400D03*
X145427600Y-68245400D03*
X138277600Y-68245400D03*
D22*
X143852600Y-66920400D03*
X139852600Y-66920400D03*
D23*
X153314400Y-80098900D03*
X153314400Y-79209900D03*
D24*
X153314400Y-80416400D03*
X153314400Y-78892400D03*
D23*
X155854400Y-80098900D03*
X155854400Y-79209900D03*
D24*
X155854400Y-80416400D03*
X155854400Y-78892400D03*
D23*
X150774400Y-80098900D03*
X150774400Y-79209900D03*
D24*
X150774400Y-80416400D03*
X150774400Y-78892400D03*
D23*
X148234400Y-80098900D03*
X148234400Y-79209900D03*
D24*
X148234400Y-80416400D03*
X148234400Y-78892400D03*
D25*
X130434080Y-95234760D03*
D18*
X128435100Y-76504800D03*
D19*
X128435100Y-79044800D03*
D25*
X127894080Y-97769680D03*
X130434080Y-100309680D03*
X130434080Y-97769680D03*
X132974080Y-97769680D03*
D14*
X146888200Y-71272400D03*
D15*
X146888200Y-73812400D03*
M02*
