G04 #@! TF.FileFunction,Copper,L2,Bot,Plane*
%FSLAX46Y46*%
G04 Gerber Fmt 4.6, Leading zero omitted, Abs format (unit mm)*
G04 Created by KiCad (PCBNEW 4.1.0-alpha+201605272346+6836~44~ubuntu16.04.1-product) date Tue May 31 07:58:38 2016*
%MOMM*%
%LPD*%
G01*
G04 APERTURE LIST*
%ADD10C,0.100000*%
%ADD11R,2.032000X2.032000*%
%ADD12O,2.032000X2.032000*%
%ADD13O,1.727200X1.727200*%
%ADD14R,1.727200X1.727200*%
%ADD15O,1.050000X1.850000*%
%ADD16R,1.524000X0.635000*%
%ADD17O,1.524000X1.270000*%
%ADD18C,1.524000*%
%ADD19R,1.200000X2.200000*%
%ADD20C,0.800000*%
%ADD21C,0.600000*%
%ADD22C,0.700000*%
%ADD23C,0.381000*%
%ADD24C,0.635000*%
%ADD25C,0.254000*%
G04 APERTURE END LIST*
D10*
D11*
X148742400Y-93548200D03*
D12*
X148742400Y-91008200D03*
D13*
X124460000Y-97790000D03*
X121920000Y-97790000D03*
X124460000Y-95250000D03*
X121920000Y-95250000D03*
X124460000Y-92710000D03*
X121920000Y-92710000D03*
X124460000Y-90170000D03*
X121920000Y-90170000D03*
X124460000Y-87630000D03*
X121920000Y-87630000D03*
X124460000Y-85090000D03*
X121920000Y-85090000D03*
D14*
X121920000Y-74930000D03*
D13*
X124460000Y-74930000D03*
X121920000Y-77470000D03*
X124460000Y-77470000D03*
X121920000Y-80010000D03*
X124460000Y-80010000D03*
X121920000Y-82550000D03*
X124460000Y-82550000D03*
D15*
X145427600Y-64795400D03*
X138277600Y-64795400D03*
X145427600Y-68245400D03*
X138277600Y-68245400D03*
D16*
X153314400Y-80098900D03*
X153314400Y-79209900D03*
D17*
X153314400Y-80416400D03*
X153314400Y-78892400D03*
D16*
X155854400Y-80098900D03*
X155854400Y-79209900D03*
D17*
X155854400Y-80416400D03*
X155854400Y-78892400D03*
D16*
X150774400Y-80098900D03*
X150774400Y-79209900D03*
D17*
X150774400Y-80416400D03*
X150774400Y-78892400D03*
D16*
X148234400Y-80098900D03*
X148234400Y-79209900D03*
D17*
X148234400Y-80416400D03*
X148234400Y-78892400D03*
D18*
X130434080Y-95234760D03*
D14*
X128435100Y-76504800D03*
D13*
X128435100Y-79044800D03*
D18*
X127894080Y-97769680D03*
X130434080Y-100309680D03*
X130434080Y-97769680D03*
X132974080Y-97769680D03*
D11*
X146888200Y-71272400D03*
D12*
X146888200Y-73812400D03*
D11*
X127127000Y-65786000D03*
D12*
X127127000Y-68326000D03*
D19*
X142399000Y-89773000D03*
X130399000Y-89773000D03*
X130399000Y-70873000D03*
X132399000Y-70873000D03*
X134399000Y-70873000D03*
X136399000Y-70873000D03*
X138399000Y-70873000D03*
X140399000Y-70873000D03*
X142399000Y-70873000D03*
D14*
X150622000Y-107950000D03*
D13*
X150622000Y-110490000D03*
X153162000Y-107950000D03*
X153162000Y-110490000D03*
X155702000Y-107950000D03*
X155702000Y-110490000D03*
X158242000Y-107950000D03*
X158242000Y-110490000D03*
X160782000Y-107950000D03*
X160782000Y-110490000D03*
X126746000Y-103378000D03*
X126746000Y-105918000D03*
X129286000Y-103378000D03*
X129286000Y-105918000D03*
X131826000Y-103378000D03*
X131826000Y-105918000D03*
D14*
X134366000Y-103378000D03*
D13*
X134366000Y-105918000D03*
D20*
X140487400Y-106311700D03*
X133897226Y-76944403D03*
D21*
X132274449Y-78938355D03*
D20*
X144272000Y-72580500D03*
D21*
X144942428Y-78648428D03*
X137491001Y-79960001D03*
X147726400Y-68834000D03*
X149402800Y-84226400D03*
X128124596Y-93933570D03*
X139973646Y-96089615D03*
X151818475Y-100858610D03*
X139303760Y-102529640D03*
X136639003Y-99123203D03*
X149976840Y-102682040D03*
X145992773Y-108448532D03*
X144485360Y-106055160D03*
X154000200Y-90576400D03*
X139941300Y-68237100D03*
X133654800Y-65976500D03*
X139956520Y-87866893D03*
X155194000Y-103886000D03*
X163322000Y-102997000D03*
X163449000Y-89662000D03*
X131368800Y-74980800D03*
X156133800Y-85006180D03*
X143068000Y-104978200D03*
X127654344Y-109602819D03*
X136398000Y-83439000D03*
X130937000Y-83312000D03*
X146812000Y-77597000D03*
X136154160Y-90622120D03*
X135032954Y-90638828D03*
X135636000Y-93345000D03*
X131973716Y-89240471D03*
X132080000Y-93345000D03*
D20*
X140182600Y-73609200D03*
D22*
X128168400Y-72999600D03*
D21*
X147523200Y-105156000D03*
X159664400Y-97840800D03*
X130621402Y-91414600D03*
X132176944Y-100520384D03*
X136066002Y-85983657D03*
X130686088Y-94277790D03*
X129037873Y-88964990D03*
X132813463Y-85485316D03*
X157178201Y-90352045D03*
X143394022Y-75929727D03*
X147976774Y-88904780D03*
X143850749Y-79868512D03*
X144527796Y-85180322D03*
X157865352Y-89116358D03*
X145136154Y-84782269D03*
X142840012Y-76659726D03*
X147127260Y-89458800D03*
X155270200Y-89763600D03*
X143520751Y-86243751D03*
X154940000Y-93776800D03*
X143154571Y-80077993D03*
X144244423Y-86313358D03*
X143798036Y-94343690D03*
X158610150Y-88506150D03*
X150100601Y-84695319D03*
X157139971Y-89244034D03*
X144634813Y-84255230D03*
X154389263Y-107420764D03*
X149618389Y-87173111D03*
X144816273Y-83551229D03*
X151955500Y-106680000D03*
X150745874Y-84099437D03*
X151053800Y-86207600D03*
X148841649Y-81523990D03*
X148933835Y-76842922D03*
X135229600Y-99938507D03*
X136364413Y-94951000D03*
X144737889Y-87382101D03*
X147908990Y-87244144D03*
X150941788Y-87558229D03*
X143395150Y-84594150D03*
X131679934Y-101077713D03*
X139537646Y-91492251D03*
X144780000Y-82804000D03*
X135603158Y-99314807D03*
X138734433Y-91492251D03*
X138206170Y-87917766D03*
X129021840Y-97363280D03*
X142653529Y-88155480D03*
X140933539Y-91705905D03*
X141776487Y-77301740D03*
X132189149Y-74912149D03*
X140394415Y-75826921D03*
X133807200Y-74726800D03*
X139748219Y-76160055D03*
X132994400Y-74853800D03*
X137160000Y-72680589D03*
X141732000Y-76454000D03*
X126474140Y-82538562D03*
X120550215Y-78710534D03*
X130354265Y-86958769D03*
X127943232Y-89792432D03*
X127845602Y-88684411D03*
X129184177Y-87341919D03*
X129159000Y-85725000D03*
X127277624Y-87481919D03*
X129861857Y-86423904D03*
X127272839Y-88236651D03*
X127034957Y-86760782D03*
X131080530Y-86991730D03*
X133253190Y-81628499D03*
X139393010Y-77343000D03*
X133985000Y-77952600D03*
X127989483Y-84635581D03*
X125909427Y-88085574D03*
X123190000Y-94361000D03*
X121793000Y-100076000D03*
X138849381Y-76836544D03*
X134759485Y-78028800D03*
X122174000Y-99314000D03*
X120900935Y-94358318D03*
X143891000Y-91506040D03*
X142375955Y-92502860D03*
X145011820Y-91543914D03*
X142954069Y-92062032D03*
X125920130Y-80518000D03*
X149407590Y-80772000D03*
X140208000Y-86487000D03*
X142367000Y-83566000D03*
X142881075Y-84080075D03*
X140839000Y-87503000D03*
X148234400Y-80543400D03*
X149961600Y-81330800D03*
X141737203Y-83052797D03*
X139700000Y-85852000D03*
D22*
X135864600Y-79113900D03*
D21*
X134101840Y-96946720D03*
X148097011Y-95664320D03*
X137419080Y-95697040D03*
X134917233Y-95572633D03*
X143764000Y-76809600D03*
X132892800Y-83415502D03*
X152700031Y-93288988D03*
X150190200Y-93391020D03*
X141884400Y-96472330D03*
X157326741Y-95050040D03*
D20*
X136902442Y-74421991D03*
X152091898Y-98281640D03*
X139420600Y-74422000D03*
D21*
X128740742Y-89958453D03*
X154940000Y-98937790D03*
X145785840Y-90200480D03*
X145171430Y-93105818D03*
X145719801Y-102489001D03*
X128742961Y-89955811D03*
X142030145Y-94469674D03*
X145313400Y-94056200D03*
X140995400Y-76454000D03*
X135432800Y-74371200D03*
X131586715Y-86419255D03*
D23*
X135636000Y-93345000D02*
X132080000Y-93345000D01*
D24*
X139274599Y-73488599D02*
X140061999Y-73488599D01*
X140061999Y-73488599D02*
X140182600Y-73609200D01*
X128168400Y-72999600D02*
X128657399Y-73488599D01*
X128657399Y-73488599D02*
X139274599Y-73488599D01*
X150774400Y-100050600D02*
X147523200Y-103301800D01*
X147523200Y-103301800D02*
X147523200Y-105156000D01*
X157480000Y-100050600D02*
X150774400Y-100050600D01*
X159364401Y-98166199D02*
X157480000Y-100050600D01*
X159664400Y-97840800D02*
X159364401Y-98140799D01*
X159364401Y-98140799D02*
X159364401Y-98166199D01*
D23*
X146888200Y-71272400D02*
X146888200Y-73812400D01*
D25*
X132399000Y-70873000D02*
X132399000Y-69519000D01*
X132399000Y-69519000D02*
X128666000Y-65786000D01*
X128666000Y-65786000D02*
X128498600Y-65786000D01*
X128498600Y-65786000D02*
X127127000Y-65786000D01*
X130972362Y-91414600D02*
X131316501Y-91070461D01*
X130621402Y-91414600D02*
X130972362Y-91414600D01*
X130434080Y-100309680D02*
X131966240Y-100309680D01*
X131966240Y-100309680D02*
X132176944Y-100520384D01*
X131881599Y-87955401D02*
X131316501Y-88520499D01*
X131316501Y-88520499D02*
X131316501Y-91070461D01*
X136066002Y-85983657D02*
X134094258Y-87955401D01*
X131316501Y-91070461D02*
X131196461Y-91190501D01*
X134094258Y-87955401D02*
X131881599Y-87955401D01*
X130434080Y-95234760D02*
X130686088Y-94982752D01*
X130686088Y-94982752D02*
X130686088Y-94702054D01*
X130686088Y-94702054D02*
X130686088Y-94277790D01*
X132813463Y-85485316D02*
X132813463Y-86078721D01*
X129337872Y-88664991D02*
X129037873Y-88964990D01*
X131346452Y-87545732D02*
X130457131Y-87545732D01*
X132813463Y-86078721D02*
X131346452Y-87545732D01*
X130457131Y-87545732D02*
X129337872Y-88664991D01*
X156753937Y-90352045D02*
X157178201Y-90352045D01*
X155386439Y-88984547D02*
X156753937Y-90352045D01*
X148056541Y-88984547D02*
X155386439Y-88984547D01*
X147976774Y-88904780D02*
X148056541Y-88984547D01*
X144399010Y-77240896D02*
X144399010Y-76510451D01*
X142544800Y-80416400D02*
X142544800Y-79095106D01*
X142900400Y-80772000D02*
X142544800Y-80416400D01*
X143850749Y-79868512D02*
X143850749Y-80292776D01*
X143371525Y-80772000D02*
X142900400Y-80772000D01*
X143850749Y-80292776D02*
X143371525Y-80772000D01*
X142544800Y-79095106D02*
X144399010Y-77240896D01*
X143818286Y-75929727D02*
X143394022Y-75929727D01*
X144399010Y-76510451D02*
X143818286Y-75929727D01*
X143850749Y-79868512D02*
X143850749Y-78866814D01*
X139253001Y-69518999D02*
X138399000Y-70373000D01*
X143850749Y-78866814D02*
X145245123Y-77472440D01*
X138399000Y-70373000D02*
X138399000Y-70873000D01*
X145245123Y-77472440D02*
X145245123Y-76005662D01*
X141253001Y-69569799D02*
X141202201Y-69518999D01*
X141202201Y-69518999D02*
X139253001Y-69518999D01*
X145245123Y-76005662D02*
X141253001Y-72013541D01*
X141253001Y-72013541D02*
X141253001Y-69569799D01*
X147552510Y-88904780D02*
X147976774Y-88904780D01*
X144527796Y-85180322D02*
X146592967Y-87245493D01*
X146592967Y-87245493D02*
X146592967Y-87945237D01*
X146592967Y-87945237D02*
X147552510Y-88904780D01*
X146973978Y-86620093D02*
X146973978Y-87667884D01*
X157607939Y-89798035D02*
X157865352Y-89540622D01*
X156874050Y-89798035D02*
X157607939Y-89798035D01*
X155671193Y-88595178D02*
X156874050Y-89798035D01*
X148495500Y-88595178D02*
X155671193Y-88595178D01*
X146973978Y-87667884D02*
X147485250Y-88179156D01*
X145136154Y-84782269D02*
X146973978Y-86620093D01*
X147485250Y-88179156D02*
X148079478Y-88179156D01*
X148079478Y-88179156D02*
X148495500Y-88595178D01*
X157865352Y-89540622D02*
X157865352Y-89116358D01*
X142840012Y-74711782D02*
X142840012Y-76235462D01*
X140427808Y-72299578D02*
X142840012Y-74711782D01*
X137757331Y-72299578D02*
X140427808Y-72299578D01*
X137230753Y-71773000D02*
X137757331Y-72299578D01*
X136399000Y-71773000D02*
X137230753Y-71773000D01*
X142840012Y-76235462D02*
X142840012Y-76659726D01*
X144032005Y-85732497D02*
X144447039Y-85732497D01*
X144447039Y-85732497D02*
X146211956Y-87497414D01*
X143520751Y-86243751D02*
X144032005Y-85732497D01*
X146211956Y-87497414D02*
X146211956Y-88119232D01*
X146211956Y-88119232D02*
X147127260Y-89034536D01*
X147127260Y-89034536D02*
X147127260Y-89458800D01*
X154965400Y-89458800D02*
X147551524Y-89458800D01*
X147551524Y-89458800D02*
X147127260Y-89458800D01*
X155270200Y-89763600D02*
X154965400Y-89458800D01*
X154790412Y-94070212D02*
X154790412Y-93926388D01*
X154790412Y-93926388D02*
X154940000Y-93776800D01*
X143798036Y-94343690D02*
X144149308Y-94694962D01*
X144149308Y-94694962D02*
X145843040Y-94694962D01*
X145843040Y-94694962D02*
X146621500Y-93916502D01*
X146621500Y-93726000D02*
X146621500Y-93535500D01*
X146621500Y-93535500D02*
X146621500Y-90030300D01*
X147674026Y-94969028D02*
X146621500Y-93916502D01*
X146621500Y-93916502D02*
X146621500Y-93535500D01*
X146048740Y-89457540D02*
X146621500Y-90030300D01*
X153891596Y-94969028D02*
X154790412Y-94070212D01*
X147674026Y-94969028D02*
X153891596Y-94969028D01*
X144244423Y-86313358D02*
X144544422Y-86613357D01*
X146048740Y-88566251D02*
X146048740Y-89457540D01*
X145291891Y-87809402D02*
X146048740Y-88566251D01*
X144544422Y-86613357D02*
X144789069Y-86613357D01*
X144789069Y-86613357D02*
X145291891Y-87116179D01*
X145291891Y-87116179D02*
X145291891Y-87809402D01*
X140399000Y-71773000D02*
X140473632Y-71773000D01*
X143154571Y-79024163D02*
X143154571Y-79653729D01*
X140473632Y-71773000D02*
X144864113Y-76163481D01*
X143154571Y-79653729D02*
X143154571Y-80077993D01*
X144864113Y-76163481D02*
X144864113Y-77314621D01*
X144864113Y-77314621D02*
X143154571Y-79024163D01*
X158610150Y-88506150D02*
X157238550Y-88506150D01*
X150100601Y-86346601D02*
X150100601Y-84695319D01*
X157238550Y-88506150D02*
X156514800Y-87782400D01*
X156514800Y-87782400D02*
X152095200Y-87782400D01*
X152095200Y-87782400D02*
X151180800Y-86868000D01*
X151180800Y-86868000D02*
X150622000Y-86868000D01*
X150622000Y-86868000D02*
X150100601Y-86346601D01*
X157091531Y-89067718D02*
X157139971Y-89116158D01*
X147354989Y-86184106D02*
X147354989Y-87510065D01*
X157139971Y-89116158D02*
X157139971Y-89244034D01*
X148262697Y-87798145D02*
X148678719Y-88214167D01*
X145398670Y-84227787D02*
X147354989Y-86184106D01*
X148678719Y-88214167D02*
X156237980Y-88214167D01*
X156237980Y-88214167D02*
X157091531Y-89067718D01*
X147354989Y-87510065D02*
X147643069Y-87798145D01*
X144634813Y-84255230D02*
X144662256Y-84227787D01*
X144662256Y-84227787D02*
X145398670Y-84227787D01*
X147643069Y-87798145D02*
X148262697Y-87798145D01*
X154389263Y-107845028D02*
X154389263Y-107420764D01*
X155702000Y-110490000D02*
X154389263Y-109177263D01*
X154389263Y-109177263D02*
X154389263Y-107845028D01*
X149318390Y-86873112D02*
X149618389Y-87173111D01*
X145605677Y-83693000D02*
X146138278Y-83693000D01*
X146138278Y-83693000D02*
X149318390Y-86873112D01*
X145240537Y-83551229D02*
X144816273Y-83551229D01*
X145463906Y-83551229D02*
X145240537Y-83551229D01*
X145605677Y-83693000D02*
X145463906Y-83551229D01*
X145483467Y-83570790D02*
X145605677Y-83693000D01*
X151955500Y-106680000D02*
X154432000Y-106680000D01*
X154432000Y-106680000D02*
X155702000Y-107950000D01*
X150745874Y-84099437D02*
X150745874Y-85899674D01*
X150745874Y-85899674D02*
X151053800Y-86207600D01*
X149141648Y-81823989D02*
X148841649Y-81523990D01*
X152831807Y-81565531D02*
X152512537Y-81884801D01*
X155854400Y-80543400D02*
X155854400Y-81432400D01*
X155721269Y-81565531D02*
X152831807Y-81565531D01*
X152512537Y-81884801D02*
X149202460Y-81884801D01*
X155854400Y-81432400D02*
X155721269Y-81565531D01*
X149202460Y-81884801D02*
X149141648Y-81823989D01*
X148509571Y-76842922D02*
X148933835Y-76842922D01*
X142399000Y-70873000D02*
X142399000Y-72227000D01*
X142399000Y-72227000D02*
X147014922Y-76842922D01*
X147014922Y-76842922D02*
X148509571Y-76842922D01*
X145641328Y-91697909D02*
X144045048Y-93294189D01*
X136664412Y-94651001D02*
X136364413Y-94951000D01*
X141757070Y-93922827D02*
X137392586Y-93922827D01*
X137392586Y-93922827D02*
X136664412Y-94651001D01*
X142842231Y-93915673D02*
X141764224Y-93915673D01*
X145068970Y-90813031D02*
X145641328Y-91385389D01*
X144045048Y-93294189D02*
X143463715Y-93294189D01*
X145641328Y-91385389D02*
X145641328Y-91697909D01*
X145068970Y-89814400D02*
X145068970Y-90813031D01*
X141764224Y-93915673D02*
X141757070Y-93922827D01*
X143463715Y-93294189D02*
X142842231Y-93915673D01*
X134929601Y-100238506D02*
X135229600Y-99938507D01*
X133019801Y-102148306D02*
X134929601Y-100238506D01*
X131826000Y-105918000D02*
X133019801Y-104724199D01*
X133019801Y-104724199D02*
X133019801Y-102148306D01*
X145068970Y-89497490D02*
X145068970Y-89814400D01*
X144932400Y-88163400D02*
X144737889Y-87968889D01*
X145068970Y-89814400D02*
X145068970Y-88299970D01*
X145068970Y-88299970D02*
X144932400Y-88163400D01*
X144737889Y-87806365D02*
X144737889Y-87382101D01*
X144737889Y-87968889D02*
X144737889Y-87806365D01*
X147908990Y-87244144D02*
X148505326Y-87244144D01*
X149094338Y-87833156D02*
X150242597Y-87833156D01*
X148505326Y-87244144D02*
X149094338Y-87833156D01*
X150242597Y-87833156D02*
X150517524Y-87558229D01*
X150517524Y-87558229D02*
X150941788Y-87558229D01*
X139537646Y-91492251D02*
X139902896Y-91127001D01*
X141253001Y-87908923D02*
X141393002Y-87768922D01*
X139902896Y-91127001D02*
X141202201Y-91127001D01*
X141253001Y-91076201D02*
X141253001Y-87908923D01*
X141393002Y-87768922D02*
X141393002Y-86596298D01*
X141202201Y-91127001D02*
X141253001Y-91076201D01*
X141393002Y-86596298D02*
X143095151Y-84894149D01*
X143095151Y-84894149D02*
X143395150Y-84594150D01*
X131379935Y-101377712D02*
X131679934Y-101077713D01*
X130647439Y-102110208D02*
X131379935Y-101377712D01*
X130647439Y-103943710D02*
X130647439Y-102110208D01*
X130034588Y-104556561D02*
X130647439Y-103943710D01*
X128107439Y-104556561D02*
X130034588Y-104556561D01*
X126746000Y-105918000D02*
X128107439Y-104556561D01*
X142399000Y-89773000D02*
X142090378Y-89464378D01*
X142090378Y-89464378D02*
X142090378Y-86890622D01*
X142090378Y-86890622D02*
X143973795Y-85007205D01*
X144193407Y-83390593D02*
X144780000Y-82804000D01*
X143973795Y-85007205D02*
X143973795Y-84096326D01*
X143973795Y-84096326D02*
X144193407Y-83876714D01*
X144193407Y-83876714D02*
X144193407Y-83390593D01*
X135178894Y-99314807D02*
X135603158Y-99314807D01*
X134630088Y-99352598D02*
X135156260Y-99352598D01*
X135156260Y-99352598D02*
X135156260Y-99337441D01*
X135135536Y-99373322D02*
X135156260Y-99352598D01*
X135156260Y-99337441D02*
X135178894Y-99314807D01*
X131826000Y-102156686D02*
X134630088Y-99352598D01*
X135135536Y-99390200D02*
X135135536Y-99373322D01*
X131826000Y-103378000D02*
X131826000Y-102156686D01*
X132334000Y-102870000D02*
X131826000Y-103378000D01*
X138734433Y-91492251D02*
X137954329Y-91492251D01*
X137954329Y-91492251D02*
X137468799Y-91006721D01*
X137781906Y-87917766D02*
X138206170Y-87917766D01*
X137468799Y-88230873D02*
X137781906Y-87917766D01*
X137468799Y-91006721D02*
X137468799Y-88230873D01*
X127894080Y-97769680D02*
X128615440Y-97769680D01*
X128615440Y-97769680D02*
X129021840Y-97363280D01*
X143253001Y-88330688D02*
X143077793Y-88155480D01*
X141326541Y-91705905D02*
X141905445Y-91127001D01*
X143077793Y-88155480D02*
X142653529Y-88155480D01*
X143202201Y-91127001D02*
X143253001Y-91076201D01*
X143253001Y-91076201D02*
X143253001Y-88330688D01*
X141905445Y-91127001D02*
X143202201Y-91127001D01*
X140933539Y-91705905D02*
X141326541Y-91705905D01*
X133385597Y-76108597D02*
X135553707Y-76108597D01*
X139084162Y-76282534D02*
X139504035Y-76702407D01*
X141352223Y-77301740D02*
X141776487Y-77301740D01*
X140140940Y-77301740D02*
X141352223Y-77301740D01*
X135727644Y-76282534D02*
X139084162Y-76282534D01*
X132189149Y-74912149D02*
X133385597Y-76108597D01*
X139541607Y-76702407D02*
X140140940Y-77301740D01*
X135553707Y-76108597D02*
X135727644Y-76282534D01*
X139504035Y-76702407D02*
X139541607Y-76702407D01*
X136043282Y-75520512D02*
X135549569Y-75026799D01*
X134107199Y-75026799D02*
X133807200Y-74726800D01*
X140394415Y-75826921D02*
X140088006Y-75520512D01*
X135549569Y-75026799D02*
X134107199Y-75026799D01*
X140088006Y-75520512D02*
X136043282Y-75520512D01*
X139489687Y-75901523D02*
X139748219Y-76160055D01*
X135711526Y-75727586D02*
X135885463Y-75901523D01*
X133299200Y-75158600D02*
X133868186Y-75727586D01*
X135885463Y-75901523D02*
X139489687Y-75901523D01*
X133868186Y-75727586D02*
X135711526Y-75727586D01*
X133477032Y-75336432D02*
X133299200Y-75158600D01*
X133299200Y-75158600D02*
X132994400Y-74853800D01*
X142031999Y-76154001D02*
X142031999Y-75971400D01*
X142031999Y-75971400D02*
X142031999Y-75172077D01*
X140269989Y-72680589D02*
X142031999Y-74442599D01*
X142031999Y-74442599D02*
X142031999Y-75971400D01*
X137160000Y-72680589D02*
X140269989Y-72680589D01*
X137584264Y-72680589D02*
X137160000Y-72680589D01*
X141732000Y-76454000D02*
X142031999Y-76154001D01*
X126474140Y-82114298D02*
X126474140Y-82538562D01*
X120550215Y-78710534D02*
X124927360Y-78710534D01*
X126474140Y-80257314D02*
X126474140Y-82114298D01*
X124927360Y-78710534D02*
X126474140Y-80257314D01*
X130054266Y-87258768D02*
X130354265Y-86958769D01*
X128483872Y-88699069D02*
X128771952Y-88410989D01*
X128902045Y-88410989D02*
X130054266Y-87258768D01*
X128483872Y-89251792D02*
X128483872Y-88699069D01*
X127943232Y-89792432D02*
X128483872Y-89251792D01*
X128771952Y-88410989D02*
X128902045Y-88410989D01*
X129184177Y-87341919D02*
X127845602Y-88680494D01*
X127845602Y-88680494D02*
X127845602Y-88684411D01*
X129159000Y-85725000D02*
X127402081Y-87481919D01*
X127402081Y-87481919D02*
X127277624Y-87481919D01*
X129297737Y-86423904D02*
X129437593Y-86423904D01*
X127272839Y-88236651D02*
X127484990Y-88236651D01*
X127484990Y-88236651D02*
X129297737Y-86423904D01*
X129437593Y-86423904D02*
X129861857Y-86423904D01*
X131080530Y-86644453D02*
X131080530Y-86991730D01*
X129607075Y-85170998D02*
X131080530Y-86644453D01*
X128624741Y-85170998D02*
X129607075Y-85170998D01*
X127034957Y-86760782D02*
X128624741Y-85170998D01*
X133253190Y-81204235D02*
X133253190Y-81628499D01*
X133253190Y-80570220D02*
X133253190Y-81204235D01*
X134950200Y-78873210D02*
X133253190Y-80570220D01*
X138765912Y-77970098D02*
X139093011Y-77642999D01*
X135853312Y-77970098D02*
X138765912Y-77970098D01*
X134950200Y-78873210D02*
X135853312Y-77970098D01*
X139093011Y-77642999D02*
X139393010Y-77343000D01*
X134481346Y-78873210D02*
X134950200Y-78873210D01*
X133985000Y-78376864D02*
X134481346Y-78873210D01*
X133985000Y-77952600D02*
X133985000Y-78376864D01*
X134010400Y-77978000D02*
X133985000Y-77952600D01*
X125909427Y-86052563D02*
X127326409Y-84635581D01*
X125909427Y-88085574D02*
X125909427Y-86052563D01*
X127326409Y-84635581D02*
X127989483Y-84635581D01*
X125641101Y-98497832D02*
X125247055Y-98891878D01*
X124849131Y-96431101D02*
X125641101Y-97223071D01*
X123190000Y-95728030D02*
X123893071Y-96431101D01*
X125641101Y-97223071D02*
X125641101Y-98497832D01*
X123893071Y-96431101D02*
X124849131Y-96431101D01*
X123190000Y-94361000D02*
X123190000Y-95728030D01*
X124062933Y-100076000D02*
X121793000Y-100076000D01*
X125247055Y-98891878D02*
X124062933Y-100076000D01*
X134759485Y-78028800D02*
X135951741Y-76836544D01*
X138425117Y-76836544D02*
X138849381Y-76836544D01*
X135951741Y-76836544D02*
X138425117Y-76836544D01*
X123101101Y-98386899D02*
X122174000Y-99314000D01*
X122486929Y-96608899D02*
X123101101Y-97223071D01*
X121530869Y-96608899D02*
X122486929Y-96608899D01*
X120600936Y-95678966D02*
X121530869Y-96608899D01*
X120600936Y-94658317D02*
X120600936Y-95678966D01*
X123101101Y-97223071D02*
X123101101Y-98386899D01*
X120900935Y-94358318D02*
X120600936Y-94658317D01*
X124460000Y-87630000D02*
X128798601Y-91968601D01*
X128798601Y-91968601D02*
X130957191Y-91968601D01*
X142088664Y-91508012D02*
X143545560Y-91508012D01*
X141197894Y-92398782D02*
X142088664Y-91508012D01*
X138235821Y-92398782D02*
X141197894Y-92398782D01*
X137421504Y-91584465D02*
X138235821Y-92398782D01*
X131341327Y-91584465D02*
X137421504Y-91584465D01*
X130957191Y-91968601D02*
X131341327Y-91584465D01*
X143545560Y-91508012D02*
X143688982Y-91508012D01*
X143891000Y-91506040D02*
X143889028Y-91508012D01*
X143889028Y-91508012D02*
X143545560Y-91508012D01*
X137263685Y-91965476D02*
X131499146Y-91965476D01*
X122783599Y-88493599D02*
X121920000Y-87630000D01*
X131499146Y-91965476D02*
X131115010Y-92349612D01*
X123113801Y-88823801D02*
X122783599Y-88493599D01*
X124880627Y-88823801D02*
X123113801Y-88823801D01*
X128406438Y-92349612D02*
X124880627Y-88823801D01*
X131115010Y-92349612D02*
X128406438Y-92349612D01*
X138078002Y-92779793D02*
X137263685Y-91965476D01*
X141355713Y-92779793D02*
X138078002Y-92779793D01*
X142367025Y-92771649D02*
X141363857Y-92771649D01*
X141363857Y-92771649D02*
X141355713Y-92779793D01*
X142367025Y-92771649D02*
X142375955Y-92762719D01*
X142375955Y-92762719D02*
X142375955Y-92502860D01*
X142367025Y-92771649D02*
X142369766Y-92771649D01*
X144711821Y-91843913D02*
X145011820Y-91543914D01*
X144375161Y-91843913D02*
X144711821Y-91843913D01*
X131430648Y-93111634D02*
X131814784Y-92727498D01*
X123646703Y-93903801D02*
X127177648Y-93903801D01*
X142684412Y-93534662D02*
X144375161Y-91843913D01*
X124460000Y-85090000D02*
X123266199Y-83896199D01*
X122733297Y-93903801D02*
X122893599Y-93743499D01*
X141678504Y-93534662D02*
X142684412Y-93534662D01*
X127969815Y-93111634D02*
X131430648Y-93111634D01*
X123486401Y-93743499D02*
X123646703Y-93903801D01*
X122893599Y-93743499D02*
X123486401Y-93743499D01*
X121346975Y-93903801D02*
X122733297Y-93903801D01*
X120268989Y-92825815D02*
X121346975Y-93903801D01*
X123266199Y-83896199D02*
X121346975Y-83896199D01*
X121346975Y-83896199D02*
X120268989Y-84974185D01*
X131814784Y-92727498D02*
X136313400Y-92727498D01*
X141671351Y-93541815D02*
X141678504Y-93534662D01*
X127177648Y-93903801D02*
X127969815Y-93111634D01*
X120268989Y-84974185D02*
X120268989Y-92825815D01*
X137127717Y-93541815D02*
X141671351Y-93541815D01*
X136313400Y-92727498D02*
X137127717Y-93541815D01*
X142954069Y-92062032D02*
X142954069Y-92726175D01*
X121346975Y-91516199D02*
X120726199Y-90895423D01*
X137285536Y-93160804D02*
X136471219Y-92346487D01*
X121056401Y-85953599D02*
X121920000Y-85090000D01*
X141513532Y-93160804D02*
X137285536Y-93160804D01*
X126432239Y-91516199D02*
X121346975Y-91516199D01*
X136471219Y-92346487D02*
X131656965Y-92346487D01*
X142526593Y-93153651D02*
X141520685Y-93153651D01*
X131272829Y-92730623D02*
X127646663Y-92730623D01*
X142954069Y-92726175D02*
X142526593Y-93153651D01*
X141520685Y-93153651D02*
X141513532Y-93160804D01*
X120726199Y-86283801D02*
X121056401Y-85953599D01*
X120726199Y-90895423D02*
X120726199Y-86283801D01*
X131656965Y-92346487D02*
X131272829Y-92730623D01*
X127646663Y-92730623D02*
X126432239Y-91516199D01*
X125920130Y-80518000D02*
X125310529Y-81127601D01*
X125310529Y-81127601D02*
X123037601Y-81127601D01*
X123037601Y-81127601D02*
X122783599Y-80873599D01*
X122783599Y-80873599D02*
X121920000Y-80010000D01*
X149407590Y-80767210D02*
X149407590Y-80772000D01*
X149758400Y-80416400D02*
X149407590Y-80767210D01*
X150774400Y-80416400D02*
X149758400Y-80416400D01*
X140381010Y-86313990D02*
X140208000Y-86487000D01*
X140381010Y-85551990D02*
X140381010Y-86313990D01*
X142367000Y-83566000D02*
X140381010Y-85551990D01*
X140839000Y-86122150D02*
X142581076Y-84380074D01*
X140839000Y-87503000D02*
X140839000Y-86122150D01*
X142581076Y-84380074D02*
X142881075Y-84080075D01*
X149961600Y-81330800D02*
X152527708Y-81330800D01*
X152527708Y-81330800D02*
X153206631Y-80651877D01*
X139700000Y-85852000D02*
X139999999Y-85552001D01*
X139999999Y-85552001D02*
X139999999Y-85298001D01*
X139999999Y-85298001D02*
X141737203Y-83560797D01*
X141737203Y-83477061D02*
X141737203Y-83052797D01*
X141737203Y-83560797D02*
X141737203Y-83477061D01*
X141732000Y-83566000D02*
X141737203Y-83560797D01*
D24*
X137419080Y-95697040D02*
X136814215Y-95697040D01*
X136814215Y-95697040D02*
X136752254Y-95759001D01*
X136752254Y-95759001D02*
X135103601Y-95759001D01*
X135103601Y-95759001D02*
X134917233Y-95572633D01*
X148097011Y-95664320D02*
X141251115Y-95664320D01*
X141251115Y-95664320D02*
X140868400Y-95281605D01*
X140868400Y-95281605D02*
X137834515Y-95281605D01*
X137834515Y-95281605D02*
X137419080Y-95697040D01*
X137194402Y-79113900D02*
X137415902Y-78892400D01*
X137415902Y-78892400D02*
X137681701Y-78626601D01*
X135864600Y-79113900D02*
X137194402Y-79113900D01*
X134061200Y-82247102D02*
X134061200Y-80917300D01*
X134061200Y-82247102D02*
X132892800Y-83415502D01*
X134061200Y-80917300D02*
X135864600Y-79113900D01*
X137681701Y-78626601D02*
X142022828Y-78626601D01*
X142022828Y-78626601D02*
X143764000Y-76885429D01*
X143764000Y-76885429D02*
X143764000Y-76809600D01*
D23*
X132974080Y-97769680D02*
X133278880Y-97769680D01*
X133278880Y-97769680D02*
X134101840Y-96946720D01*
D25*
X150190200Y-93391020D02*
X152597999Y-93391020D01*
X152597999Y-93391020D02*
X152700031Y-93288988D01*
X157326741Y-95050040D02*
X155904451Y-96472330D01*
X155904451Y-96472330D02*
X142308664Y-96472330D01*
X142308664Y-96472330D02*
X141884400Y-96472330D01*
X145471429Y-92805819D02*
X145171430Y-93105818D01*
X146085839Y-92191409D02*
X145471429Y-92805819D01*
X146085839Y-90500479D02*
X146085839Y-92191409D01*
X145785840Y-90200480D02*
X146085839Y-90500479D01*
D24*
X139420600Y-74422000D02*
X136902451Y-74422000D01*
X136902451Y-74422000D02*
X136902442Y-74421991D01*
X154291926Y-99161600D02*
X152298400Y-99161600D01*
X152298400Y-99161600D02*
X150190200Y-99161600D01*
X152091898Y-98281640D02*
X152091898Y-98955098D01*
X152091898Y-98955098D02*
X152298400Y-99161600D01*
X150190200Y-99161600D02*
X146862799Y-102489001D01*
X154940000Y-98937790D02*
X154515736Y-98937790D01*
X154515736Y-98937790D02*
X154291926Y-99161600D01*
X128740742Y-89958453D02*
X130213547Y-89958453D01*
X130213547Y-89958453D02*
X130399000Y-89773000D01*
X145719801Y-102489001D02*
X146862799Y-102489001D01*
D25*
X145313400Y-94056200D02*
X145013401Y-93756201D01*
X142827060Y-94469674D02*
X142454409Y-94469674D01*
X143540533Y-93756201D02*
X142827060Y-94469674D01*
X145013401Y-93756201D02*
X143540533Y-93756201D01*
X142454409Y-94469674D02*
X142030145Y-94469674D01*
X140995400Y-76454000D02*
X140995400Y-75300476D01*
X136201101Y-75139501D02*
X135432800Y-74371200D01*
X140834425Y-75139501D02*
X136201101Y-75139501D01*
X140995400Y-75300476D02*
X140834425Y-75139501D01*
X135636010Y-74574410D02*
X135432800Y-74371200D01*
X128803400Y-83635940D02*
X131286716Y-86119256D01*
X128803400Y-78968600D02*
X128803400Y-83635940D01*
X131286716Y-86119256D02*
X131586715Y-86419255D01*
G36*
X137371600Y-64369814D02*
X137371600Y-65220986D01*
X137440565Y-65567697D01*
X137636961Y-65861625D01*
X137930889Y-66058021D01*
X138277600Y-66126986D01*
X138624311Y-66058021D01*
X138918239Y-65861625D01*
X139114635Y-65567697D01*
X139183600Y-65220986D01*
X139183600Y-64369814D01*
X139135301Y-64127000D01*
X144569899Y-64127000D01*
X144521600Y-64369814D01*
X144521600Y-65220986D01*
X144590565Y-65567697D01*
X144786961Y-65861625D01*
X145080889Y-66058021D01*
X145427600Y-66126986D01*
X145774311Y-66058021D01*
X146068239Y-65861625D01*
X146264635Y-65567697D01*
X146333600Y-65220986D01*
X146333600Y-64369814D01*
X146285301Y-64127000D01*
X163942909Y-64127000D01*
X164936591Y-64324656D01*
X166578353Y-65421647D01*
X167675344Y-67063409D01*
X167873000Y-68057091D01*
X167873000Y-108942909D01*
X167675344Y-109936591D01*
X166578353Y-111578353D01*
X164936591Y-112675344D01*
X163942909Y-112873000D01*
X123057091Y-112873000D01*
X122063409Y-112675344D01*
X120421647Y-111578353D01*
X119386411Y-110029013D01*
X120327674Y-110029013D01*
X120613436Y-110720609D01*
X121142108Y-111250204D01*
X121833204Y-111537173D01*
X122581513Y-111537826D01*
X123273109Y-111252064D01*
X123802704Y-110723392D01*
X124089673Y-110032296D01*
X124090326Y-109283987D01*
X123804564Y-108592391D01*
X123448545Y-108235750D01*
X149123400Y-108235750D01*
X149123400Y-108939910D01*
X149220073Y-109173299D01*
X149398702Y-109351927D01*
X149632091Y-109448600D01*
X149959007Y-109448600D01*
X149717552Y-109609935D01*
X149447757Y-110013712D01*
X149353017Y-110490000D01*
X149447757Y-110966288D01*
X149717552Y-111370065D01*
X150121329Y-111639860D01*
X150597617Y-111734600D01*
X150646383Y-111734600D01*
X151122671Y-111639860D01*
X151526448Y-111370065D01*
X151796243Y-110966288D01*
X151890983Y-110490000D01*
X151893017Y-110490000D01*
X151987757Y-110966288D01*
X152257552Y-111370065D01*
X152661329Y-111639860D01*
X153137617Y-111734600D01*
X153186383Y-111734600D01*
X153662671Y-111639860D01*
X154066448Y-111370065D01*
X154336243Y-110966288D01*
X154430983Y-110490000D01*
X154336243Y-110013712D01*
X154066448Y-109609935D01*
X153662671Y-109340140D01*
X153186383Y-109245400D01*
X153137617Y-109245400D01*
X152661329Y-109340140D01*
X152257552Y-109609935D01*
X151987757Y-110013712D01*
X151893017Y-110490000D01*
X151890983Y-110490000D01*
X151796243Y-110013712D01*
X151526448Y-109609935D01*
X151284993Y-109448600D01*
X151611909Y-109448600D01*
X151845298Y-109351927D01*
X152023927Y-109173299D01*
X152120600Y-108939910D01*
X152120600Y-108625102D01*
X152257552Y-108830065D01*
X152661329Y-109099860D01*
X153137617Y-109194600D01*
X153186383Y-109194600D01*
X153662671Y-109099860D01*
X153881263Y-108953802D01*
X153881263Y-109177263D01*
X153919932Y-109371666D01*
X154030053Y-109536473D01*
X154524362Y-110030782D01*
X154433017Y-110490000D01*
X154527757Y-110966288D01*
X154797552Y-111370065D01*
X155201329Y-111639860D01*
X155677617Y-111734600D01*
X155726383Y-111734600D01*
X156202671Y-111639860D01*
X156606448Y-111370065D01*
X156876243Y-110966288D01*
X156970983Y-110490000D01*
X156973017Y-110490000D01*
X157067757Y-110966288D01*
X157337552Y-111370065D01*
X157741329Y-111639860D01*
X158217617Y-111734600D01*
X158266383Y-111734600D01*
X158742671Y-111639860D01*
X159146448Y-111370065D01*
X159416243Y-110966288D01*
X159510983Y-110490000D01*
X159513017Y-110490000D01*
X159607757Y-110966288D01*
X159877552Y-111370065D01*
X160281329Y-111639860D01*
X160757617Y-111734600D01*
X160806383Y-111734600D01*
X161282671Y-111639860D01*
X161686448Y-111370065D01*
X161956243Y-110966288D01*
X162050983Y-110490000D01*
X161959287Y-110029013D01*
X162829674Y-110029013D01*
X163115436Y-110720609D01*
X163644108Y-111250204D01*
X164335204Y-111537173D01*
X165083513Y-111537826D01*
X165775109Y-111252064D01*
X166304704Y-110723392D01*
X166591673Y-110032296D01*
X166592326Y-109283987D01*
X166306564Y-108592391D01*
X165777892Y-108062796D01*
X165086796Y-107775827D01*
X164338487Y-107775174D01*
X163646891Y-108060936D01*
X163117296Y-108589608D01*
X162830327Y-109280704D01*
X162829674Y-110029013D01*
X161959287Y-110029013D01*
X161956243Y-110013712D01*
X161686448Y-109609935D01*
X161282671Y-109340140D01*
X160806383Y-109245400D01*
X160757617Y-109245400D01*
X160281329Y-109340140D01*
X159877552Y-109609935D01*
X159607757Y-110013712D01*
X159513017Y-110490000D01*
X159510983Y-110490000D01*
X159416243Y-110013712D01*
X159146448Y-109609935D01*
X158742671Y-109340140D01*
X158266383Y-109245400D01*
X158217617Y-109245400D01*
X157741329Y-109340140D01*
X157337552Y-109609935D01*
X157067757Y-110013712D01*
X156973017Y-110490000D01*
X156970983Y-110490000D01*
X156876243Y-110013712D01*
X156606448Y-109609935D01*
X156202671Y-109340140D01*
X155726383Y-109245400D01*
X155677617Y-109245400D01*
X155259074Y-109328654D01*
X154897263Y-108966843D01*
X154897263Y-108896690D01*
X155201329Y-109099860D01*
X155677617Y-109194600D01*
X155726383Y-109194600D01*
X156202671Y-109099860D01*
X156606448Y-108830065D01*
X156876243Y-108426288D01*
X156970983Y-107950000D01*
X156973017Y-107950000D01*
X157067757Y-108426288D01*
X157337552Y-108830065D01*
X157741329Y-109099860D01*
X158217617Y-109194600D01*
X158266383Y-109194600D01*
X158742671Y-109099860D01*
X159146448Y-108830065D01*
X159416243Y-108426288D01*
X159510983Y-107950000D01*
X159513017Y-107950000D01*
X159607757Y-108426288D01*
X159877552Y-108830065D01*
X160281329Y-109099860D01*
X160757617Y-109194600D01*
X160806383Y-109194600D01*
X161282671Y-109099860D01*
X161686448Y-108830065D01*
X161956243Y-108426288D01*
X162050983Y-107950000D01*
X161956243Y-107473712D01*
X161686448Y-107069935D01*
X161282671Y-106800140D01*
X160806383Y-106705400D01*
X160757617Y-106705400D01*
X160281329Y-106800140D01*
X159877552Y-107069935D01*
X159607757Y-107473712D01*
X159513017Y-107950000D01*
X159510983Y-107950000D01*
X159416243Y-107473712D01*
X159146448Y-107069935D01*
X158742671Y-106800140D01*
X158266383Y-106705400D01*
X158217617Y-106705400D01*
X157741329Y-106800140D01*
X157337552Y-107069935D01*
X157067757Y-107473712D01*
X156973017Y-107950000D01*
X156970983Y-107950000D01*
X156876243Y-107473712D01*
X156606448Y-107069935D01*
X156202671Y-106800140D01*
X155726383Y-106705400D01*
X155677617Y-106705400D01*
X155259074Y-106788654D01*
X154791210Y-106320790D01*
X154626403Y-106210669D01*
X154432000Y-106172000D01*
X152410626Y-106172000D01*
X152341759Y-106103013D01*
X152091554Y-105999118D01*
X151820635Y-105998882D01*
X151570248Y-106102339D01*
X151378513Y-106293741D01*
X151313047Y-106451400D01*
X150907750Y-106451400D01*
X150749000Y-106610150D01*
X150749000Y-107823000D01*
X150769000Y-107823000D01*
X150769000Y-108077000D01*
X150749000Y-108077000D01*
X150749000Y-108097000D01*
X150495000Y-108097000D01*
X150495000Y-108077000D01*
X149282150Y-108077000D01*
X149123400Y-108235750D01*
X123448545Y-108235750D01*
X123275892Y-108062796D01*
X122584796Y-107775827D01*
X121836487Y-107775174D01*
X121144891Y-108060936D01*
X120615296Y-108589608D01*
X120328327Y-109280704D01*
X120327674Y-110029013D01*
X119386411Y-110029013D01*
X119324656Y-109936591D01*
X119127000Y-108942909D01*
X119127000Y-105918000D01*
X125477017Y-105918000D01*
X125571757Y-106394288D01*
X125841552Y-106798065D01*
X126245329Y-107067860D01*
X126721617Y-107162600D01*
X126770383Y-107162600D01*
X127246671Y-107067860D01*
X127650448Y-106798065D01*
X127920243Y-106394288D01*
X128014983Y-105918000D01*
X127923638Y-105458782D01*
X128317860Y-105064561D01*
X128363761Y-105064561D01*
X128111757Y-105441712D01*
X128017017Y-105918000D01*
X128111757Y-106394288D01*
X128381552Y-106798065D01*
X128785329Y-107067860D01*
X129261617Y-107162600D01*
X129310383Y-107162600D01*
X129786671Y-107067860D01*
X130190448Y-106798065D01*
X130460243Y-106394288D01*
X130554983Y-105918000D01*
X130460243Y-105441712D01*
X130190448Y-105037935D01*
X130185401Y-105034563D01*
X130228991Y-105025892D01*
X130393798Y-104915771D01*
X130999453Y-104310116D01*
X131325329Y-104527860D01*
X131801617Y-104622600D01*
X131850383Y-104622600D01*
X132326671Y-104527860D01*
X132511801Y-104404160D01*
X132511801Y-104513778D01*
X132268926Y-104756654D01*
X131850383Y-104673400D01*
X131801617Y-104673400D01*
X131325329Y-104768140D01*
X130921552Y-105037935D01*
X130651757Y-105441712D01*
X130557017Y-105918000D01*
X130651757Y-106394288D01*
X130921552Y-106798065D01*
X131325329Y-107067860D01*
X131801617Y-107162600D01*
X131850383Y-107162600D01*
X132326671Y-107067860D01*
X132730448Y-106798065D01*
X133000243Y-106394288D01*
X133094983Y-105918000D01*
X133003638Y-105458782D01*
X133379012Y-105083409D01*
X133489132Y-104918602D01*
X133497487Y-104876600D01*
X133703007Y-104876600D01*
X133461552Y-105037935D01*
X133191757Y-105441712D01*
X133097017Y-105918000D01*
X133191757Y-106394288D01*
X133461552Y-106798065D01*
X133865329Y-107067860D01*
X134341617Y-107162600D01*
X134390383Y-107162600D01*
X134866671Y-107067860D01*
X135027960Y-106960090D01*
X149123400Y-106960090D01*
X149123400Y-107664250D01*
X149282150Y-107823000D01*
X150495000Y-107823000D01*
X150495000Y-106610150D01*
X150336250Y-106451400D01*
X149632091Y-106451400D01*
X149398702Y-106548073D01*
X149220073Y-106726701D01*
X149123400Y-106960090D01*
X135027960Y-106960090D01*
X135270448Y-106798065D01*
X135540243Y-106394288D01*
X135634983Y-105918000D01*
X135540243Y-105441712D01*
X135270448Y-105037935D01*
X135028993Y-104876600D01*
X135355909Y-104876600D01*
X135589298Y-104779927D01*
X135767927Y-104601299D01*
X135864600Y-104367910D01*
X135864600Y-103663750D01*
X135705850Y-103505000D01*
X134493000Y-103505000D01*
X134493000Y-103525000D01*
X134239000Y-103525000D01*
X134239000Y-103505000D01*
X134219000Y-103505000D01*
X134219000Y-103251000D01*
X134239000Y-103251000D01*
X134239000Y-102038150D01*
X134493000Y-102038150D01*
X134493000Y-103251000D01*
X135705850Y-103251000D01*
X135864600Y-103092250D01*
X135864600Y-102489001D01*
X145021301Y-102489001D01*
X145038724Y-102576593D01*
X145038683Y-102623866D01*
X145056894Y-102667941D01*
X145074471Y-102756305D01*
X145124086Y-102830560D01*
X145142140Y-102874253D01*
X145175834Y-102908006D01*
X145225887Y-102982915D01*
X145300144Y-103032532D01*
X145333542Y-103065988D01*
X145377585Y-103084276D01*
X145452497Y-103134331D01*
X145540087Y-103151754D01*
X145583747Y-103169883D01*
X145631438Y-103169925D01*
X145719801Y-103187501D01*
X146847435Y-103187501D01*
X146824700Y-103301800D01*
X146824700Y-105156000D01*
X146842123Y-105243592D01*
X146842082Y-105290865D01*
X146860293Y-105334940D01*
X146877870Y-105423304D01*
X146927485Y-105497559D01*
X146945539Y-105541252D01*
X146979233Y-105575005D01*
X147029286Y-105649914D01*
X147103543Y-105699531D01*
X147136941Y-105732987D01*
X147180984Y-105751275D01*
X147255896Y-105801330D01*
X147343486Y-105818753D01*
X147387146Y-105836882D01*
X147434837Y-105836924D01*
X147523200Y-105854500D01*
X147610792Y-105837077D01*
X147658065Y-105837118D01*
X147702140Y-105818907D01*
X147790504Y-105801330D01*
X147864759Y-105751715D01*
X147908452Y-105733661D01*
X147942205Y-105699967D01*
X148017114Y-105649914D01*
X148066731Y-105575657D01*
X148100187Y-105542259D01*
X148118475Y-105498216D01*
X148168530Y-105423304D01*
X148185953Y-105335714D01*
X148204082Y-105292054D01*
X148204124Y-105244363D01*
X148221700Y-105156000D01*
X148221700Y-103591128D01*
X150442355Y-101370473D01*
X163101247Y-101370473D01*
X163235089Y-101694395D01*
X163482702Y-101942440D01*
X163806389Y-102076847D01*
X164156873Y-102077153D01*
X164480795Y-101943311D01*
X164728840Y-101695698D01*
X164863247Y-101372011D01*
X164863553Y-101021527D01*
X164729711Y-100697605D01*
X164482098Y-100449560D01*
X164158411Y-100315153D01*
X163807927Y-100314847D01*
X163484005Y-100448689D01*
X163235960Y-100696302D01*
X163101553Y-101019989D01*
X163101247Y-101370473D01*
X150442355Y-101370473D01*
X151063728Y-100749100D01*
X157480000Y-100749100D01*
X157747305Y-100695930D01*
X157973914Y-100544514D01*
X159858315Y-98660113D01*
X159909462Y-98583566D01*
X160158314Y-98334714D01*
X160207932Y-98260456D01*
X160241387Y-98227059D01*
X160259675Y-98183018D01*
X160309730Y-98108105D01*
X160327153Y-98020513D01*
X160345282Y-97976854D01*
X160345324Y-97929163D01*
X160362900Y-97840800D01*
X160345477Y-97753207D01*
X160345518Y-97705935D01*
X160327307Y-97661860D01*
X160309730Y-97573495D01*
X160260114Y-97499239D01*
X160242061Y-97455548D01*
X160208367Y-97421796D01*
X160158314Y-97346886D01*
X160084056Y-97297268D01*
X160050659Y-97263813D01*
X160006618Y-97245525D01*
X159931705Y-97195470D01*
X159844113Y-97178047D01*
X159800454Y-97159918D01*
X159752763Y-97159876D01*
X159664400Y-97142300D01*
X159576807Y-97159723D01*
X159529535Y-97159682D01*
X159485460Y-97177893D01*
X159397095Y-97195470D01*
X159322839Y-97245086D01*
X159279148Y-97263139D01*
X159245396Y-97296833D01*
X159170486Y-97346886D01*
X158870487Y-97646885D01*
X158819339Y-97723433D01*
X157190672Y-99352100D01*
X155488887Y-99352100D01*
X155516987Y-99324049D01*
X155535275Y-99280006D01*
X155585330Y-99205094D01*
X155602753Y-99117504D01*
X155620882Y-99073844D01*
X155620924Y-99026153D01*
X155638500Y-98937790D01*
X155621077Y-98850198D01*
X155621118Y-98802925D01*
X155602907Y-98758850D01*
X155585330Y-98670486D01*
X155535715Y-98596231D01*
X155517661Y-98552538D01*
X155483967Y-98518785D01*
X155433914Y-98443876D01*
X155359657Y-98394259D01*
X155326259Y-98360803D01*
X155282216Y-98342515D01*
X155207304Y-98292460D01*
X155119714Y-98275037D01*
X155076054Y-98256908D01*
X155028363Y-98256866D01*
X154940000Y-98239290D01*
X154515736Y-98239290D01*
X154248431Y-98292460D01*
X154021822Y-98443876D01*
X154002598Y-98463100D01*
X152862203Y-98463100D01*
X152872762Y-98437672D01*
X152873034Y-98126971D01*
X152754384Y-97839817D01*
X152534877Y-97619926D01*
X152247930Y-97500776D01*
X151937229Y-97500504D01*
X151650075Y-97619154D01*
X151430184Y-97838661D01*
X151311034Y-98125608D01*
X151310762Y-98436309D01*
X151321832Y-98463100D01*
X150190200Y-98463100D01*
X149922896Y-98516270D01*
X149696286Y-98667686D01*
X146573471Y-101790501D01*
X145719801Y-101790501D01*
X145632209Y-101807924D01*
X145584936Y-101807883D01*
X145540861Y-101826094D01*
X145452497Y-101843671D01*
X145378242Y-101893286D01*
X145334549Y-101911340D01*
X145300796Y-101945034D01*
X145225887Y-101995087D01*
X145176270Y-102069344D01*
X145142814Y-102102742D01*
X145124526Y-102146785D01*
X145074471Y-102221697D01*
X145057048Y-102309287D01*
X145038919Y-102352947D01*
X145038877Y-102400638D01*
X145021301Y-102489001D01*
X135864600Y-102489001D01*
X135864600Y-102388090D01*
X135767927Y-102154701D01*
X135589298Y-101976073D01*
X135355909Y-101879400D01*
X134651750Y-101879400D01*
X134493000Y-102038150D01*
X134239000Y-102038150D01*
X134080250Y-101879400D01*
X134007127Y-101879400D01*
X135266987Y-100619540D01*
X135364465Y-100619625D01*
X135614852Y-100516168D01*
X135806587Y-100324766D01*
X135910482Y-100074561D01*
X135910613Y-99924613D01*
X135988410Y-99892468D01*
X136180145Y-99701066D01*
X136284040Y-99450861D01*
X136284276Y-99179942D01*
X136180819Y-98929555D01*
X135989417Y-98737820D01*
X135739212Y-98633925D01*
X135468293Y-98633689D01*
X135217906Y-98737146D01*
X135140467Y-98814451D01*
X135016744Y-98839061D01*
X134988904Y-98844598D01*
X134630088Y-98844598D01*
X134467938Y-98876852D01*
X134435684Y-98883267D01*
X134270878Y-98993388D01*
X132858044Y-100406222D01*
X132858062Y-100385519D01*
X132754605Y-100135132D01*
X132563203Y-99943397D01*
X132312998Y-99839502D01*
X132155696Y-99839365D01*
X131966240Y-99801680D01*
X131460907Y-99801680D01*
X131403634Y-99663068D01*
X131082383Y-99341257D01*
X130662434Y-99166879D01*
X130468420Y-99166710D01*
X130781448Y-99151042D01*
X131165223Y-98992077D01*
X131234688Y-98749893D01*
X130434080Y-97949285D01*
X129633472Y-98749893D01*
X129702937Y-98992077D01*
X130200338Y-99169532D01*
X129787468Y-99340126D01*
X129465657Y-99661377D01*
X129291279Y-100081326D01*
X129290882Y-100536039D01*
X129464526Y-100956292D01*
X129785777Y-101278103D01*
X130205726Y-101452481D01*
X130586414Y-101452813D01*
X130288229Y-101750998D01*
X130178108Y-101915805D01*
X130139439Y-102110208D01*
X130139439Y-102463852D01*
X129786671Y-102228140D01*
X129310383Y-102133400D01*
X129261617Y-102133400D01*
X128785329Y-102228140D01*
X128381552Y-102497935D01*
X128111757Y-102901712D01*
X128017017Y-103378000D01*
X128111757Y-103854288D01*
X128241566Y-104048561D01*
X128107439Y-104048561D01*
X127913036Y-104087230D01*
X127913034Y-104087231D01*
X127913035Y-104087231D01*
X127748228Y-104197351D01*
X127188926Y-104756654D01*
X126770383Y-104673400D01*
X126721617Y-104673400D01*
X126245329Y-104768140D01*
X125841552Y-105037935D01*
X125571757Y-105441712D01*
X125477017Y-105918000D01*
X119127000Y-105918000D01*
X119127000Y-103378000D01*
X125477017Y-103378000D01*
X125571757Y-103854288D01*
X125841552Y-104258065D01*
X126245329Y-104527860D01*
X126721617Y-104622600D01*
X126770383Y-104622600D01*
X127246671Y-104527860D01*
X127650448Y-104258065D01*
X127920243Y-103854288D01*
X128014983Y-103378000D01*
X127920243Y-102901712D01*
X127650448Y-102497935D01*
X127246671Y-102228140D01*
X126770383Y-102133400D01*
X126721617Y-102133400D01*
X126245329Y-102228140D01*
X125841552Y-102497935D01*
X125571757Y-102901712D01*
X125477017Y-103378000D01*
X119127000Y-103378000D01*
X119127000Y-84974185D01*
X119760989Y-84974185D01*
X119760989Y-92825815D01*
X119799658Y-93020218D01*
X119909779Y-93185025D01*
X120510542Y-93785789D01*
X120323948Y-93972059D01*
X120220053Y-94222264D01*
X120219958Y-94331685D01*
X120131605Y-94463914D01*
X120092936Y-94658317D01*
X120092936Y-95678966D01*
X120131605Y-95873369D01*
X120241726Y-96038176D01*
X121074259Y-96870709D01*
X121015552Y-96909935D01*
X120745757Y-97313712D01*
X120651017Y-97790000D01*
X120745757Y-98266288D01*
X121015552Y-98670065D01*
X121419329Y-98939860D01*
X121578808Y-98971583D01*
X121493118Y-99177946D01*
X121492882Y-99448865D01*
X121497928Y-99461078D01*
X121407748Y-99498339D01*
X121216013Y-99689741D01*
X121112118Y-99939946D01*
X121111882Y-100210865D01*
X121215339Y-100461252D01*
X121406741Y-100652987D01*
X121656946Y-100756882D01*
X121927865Y-100757118D01*
X122178252Y-100653661D01*
X122248034Y-100584000D01*
X124062933Y-100584000D01*
X124257336Y-100545331D01*
X124422143Y-100435210D01*
X125606265Y-99251089D01*
X125606267Y-99251086D01*
X126000311Y-98857042D01*
X126110432Y-98692236D01*
X126149101Y-98497832D01*
X126149101Y-97996039D01*
X126750882Y-97996039D01*
X126924526Y-98416292D01*
X127245777Y-98738103D01*
X127665726Y-98912481D01*
X128120439Y-98912878D01*
X128540692Y-98739234D01*
X128862503Y-98417983D01*
X128988151Y-98115389D01*
X129049561Y-98053979D01*
X129052718Y-98117048D01*
X129211683Y-98500823D01*
X129453867Y-98570288D01*
X130254475Y-97769680D01*
X130613685Y-97769680D01*
X131414293Y-98570288D01*
X131656477Y-98500823D01*
X131833932Y-98003422D01*
X132004526Y-98416292D01*
X132325777Y-98738103D01*
X132745726Y-98912481D01*
X133200439Y-98912878D01*
X133620692Y-98739234D01*
X133942503Y-98417983D01*
X134116881Y-97998034D01*
X134117107Y-97739677D01*
X134228952Y-97627831D01*
X134236705Y-97627838D01*
X134487092Y-97524381D01*
X134678827Y-97332979D01*
X134782722Y-97082774D01*
X134782958Y-96811855D01*
X134679501Y-96561468D01*
X134488099Y-96369733D01*
X134237894Y-96265838D01*
X133966975Y-96265602D01*
X133716588Y-96369059D01*
X133524853Y-96560461D01*
X133453913Y-96731302D01*
X133202434Y-96626879D01*
X132747721Y-96626482D01*
X132327468Y-96800126D01*
X132005657Y-97121377D01*
X131831279Y-97541326D01*
X131831110Y-97735340D01*
X131815442Y-97422312D01*
X131656477Y-97038537D01*
X131414293Y-96969072D01*
X130613685Y-97769680D01*
X130254475Y-97769680D01*
X129695739Y-97210944D01*
X129599501Y-96978028D01*
X129408099Y-96786293D01*
X129157894Y-96682398D01*
X128886975Y-96682162D01*
X128636588Y-96785619D01*
X128581585Y-96840527D01*
X128542383Y-96801257D01*
X128122434Y-96626879D01*
X127667721Y-96626482D01*
X127247468Y-96800126D01*
X126925657Y-97121377D01*
X126751279Y-97541326D01*
X126750882Y-97996039D01*
X126149101Y-97996039D01*
X126149101Y-97223071D01*
X126110432Y-97028668D01*
X126000311Y-96863861D01*
X125305741Y-96169291D01*
X125364448Y-96130065D01*
X125634243Y-95726288D01*
X125728983Y-95250000D01*
X125634243Y-94773712D01*
X125392422Y-94411801D01*
X127177648Y-94411801D01*
X127372051Y-94373132D01*
X127536858Y-94263011D01*
X128180235Y-93619634D01*
X130495650Y-93619634D01*
X130300836Y-93700129D01*
X130109101Y-93891531D01*
X130005206Y-94141736D01*
X130005177Y-94175251D01*
X129787468Y-94265206D01*
X129465657Y-94586457D01*
X129291279Y-95006406D01*
X129290882Y-95461119D01*
X129464526Y-95881372D01*
X129785777Y-96203183D01*
X130205726Y-96377561D01*
X130299986Y-96377643D01*
X130086712Y-96388318D01*
X129702937Y-96547283D01*
X129633472Y-96789467D01*
X130434080Y-97590075D01*
X131234688Y-96789467D01*
X131165223Y-96547283D01*
X130674420Y-96372181D01*
X131080692Y-96204314D01*
X131402503Y-95883063D01*
X131576881Y-95463114D01*
X131577278Y-95008401D01*
X131403634Y-94588148D01*
X131326625Y-94511005D01*
X131366970Y-94413844D01*
X131367206Y-94142925D01*
X131263749Y-93892538D01*
X131072347Y-93700803D01*
X130876872Y-93619634D01*
X131430648Y-93619634D01*
X131625051Y-93580965D01*
X131789858Y-93470844D01*
X132025204Y-93235498D01*
X136102980Y-93235498D01*
X136732237Y-93864755D01*
X136327026Y-94269967D01*
X136229548Y-94269882D01*
X135979161Y-94373339D01*
X135787426Y-94564741D01*
X135683531Y-94814946D01*
X135683317Y-95060501D01*
X135383882Y-95060501D01*
X135336889Y-95029101D01*
X135303492Y-94995646D01*
X135259451Y-94977358D01*
X135184538Y-94927303D01*
X135096946Y-94909880D01*
X135053287Y-94891751D01*
X135005596Y-94891709D01*
X134917233Y-94874133D01*
X134829640Y-94891556D01*
X134782368Y-94891515D01*
X134738293Y-94909726D01*
X134649928Y-94927303D01*
X134575672Y-94976919D01*
X134531981Y-94994972D01*
X134498229Y-95028666D01*
X134423319Y-95078719D01*
X134373701Y-95152977D01*
X134340246Y-95186374D01*
X134321958Y-95230415D01*
X134271903Y-95305328D01*
X134254480Y-95392920D01*
X134236351Y-95436579D01*
X134236309Y-95484270D01*
X134218733Y-95572633D01*
X134236156Y-95660226D01*
X134236115Y-95707498D01*
X134254326Y-95751573D01*
X134271903Y-95839938D01*
X134321519Y-95914194D01*
X134339572Y-95957885D01*
X134373266Y-95991637D01*
X134423319Y-96066547D01*
X134609687Y-96252915D01*
X134836296Y-96404331D01*
X135103601Y-96457501D01*
X136752254Y-96457501D01*
X137019559Y-96404331D01*
X137032716Y-96395540D01*
X137419080Y-96395540D01*
X137506673Y-96378117D01*
X137553945Y-96378158D01*
X137598020Y-96359947D01*
X137686385Y-96342370D01*
X137760641Y-96292754D01*
X137804332Y-96274701D01*
X137838084Y-96241007D01*
X137912994Y-96190954D01*
X138123843Y-95980105D01*
X140579072Y-95980105D01*
X140757201Y-96158234D01*
X140983810Y-96309650D01*
X141203503Y-96353349D01*
X141203282Y-96607195D01*
X141306739Y-96857582D01*
X141498141Y-97049317D01*
X141748346Y-97153212D01*
X142019265Y-97153448D01*
X142269652Y-97049991D01*
X142339434Y-96980330D01*
X155904451Y-96980330D01*
X156098854Y-96941661D01*
X156263661Y-96831540D01*
X157364128Y-95731073D01*
X157461606Y-95731158D01*
X157711993Y-95627701D01*
X157903728Y-95436299D01*
X158007623Y-95186094D01*
X158007859Y-94915175D01*
X157904402Y-94664788D01*
X157713000Y-94473053D01*
X157462795Y-94369158D01*
X157191876Y-94368922D01*
X156941489Y-94472379D01*
X156749754Y-94663781D01*
X156645859Y-94913986D01*
X156645773Y-95012588D01*
X155694031Y-95964330D01*
X148720488Y-95964330D01*
X148742341Y-95931624D01*
X148759764Y-95844034D01*
X148777893Y-95800374D01*
X148777935Y-95752683D01*
X148795511Y-95664320D01*
X148778088Y-95576728D01*
X148778129Y-95529455D01*
X148759918Y-95485380D01*
X148758256Y-95477028D01*
X153891596Y-95477028D01*
X154085999Y-95438359D01*
X154250806Y-95328238D01*
X155149622Y-94429422D01*
X155151831Y-94426117D01*
X155325252Y-94354461D01*
X155516987Y-94163059D01*
X155620882Y-93912854D01*
X155621118Y-93641935D01*
X155517661Y-93391548D01*
X155516588Y-93390473D01*
X163101247Y-93390473D01*
X163235089Y-93714395D01*
X163482702Y-93962440D01*
X163806389Y-94096847D01*
X164156873Y-94097153D01*
X164480795Y-93963311D01*
X164728840Y-93715698D01*
X164863247Y-93392011D01*
X164863553Y-93041527D01*
X164729711Y-92717605D01*
X164482098Y-92469560D01*
X164158411Y-92335153D01*
X163807927Y-92334847D01*
X163484005Y-92468689D01*
X163235960Y-92716302D01*
X163101553Y-93039989D01*
X163101247Y-93390473D01*
X155516588Y-93390473D01*
X155326259Y-93199813D01*
X155076054Y-93095918D01*
X154805135Y-93095682D01*
X154554748Y-93199139D01*
X154363013Y-93390541D01*
X154259118Y-93640746D01*
X154258907Y-93883297D01*
X153681176Y-94461028D01*
X150146864Y-94461028D01*
X150146864Y-94071983D01*
X150325065Y-94072138D01*
X150575452Y-93968681D01*
X150645234Y-93899020D01*
X152393353Y-93899020D01*
X152563977Y-93969870D01*
X152834896Y-93970106D01*
X153085283Y-93866649D01*
X153277018Y-93675247D01*
X153380913Y-93425042D01*
X153381149Y-93154123D01*
X153277692Y-92903736D01*
X153086290Y-92712001D01*
X152836085Y-92608106D01*
X152565166Y-92607870D01*
X152314779Y-92711327D01*
X152142787Y-92883020D01*
X150645326Y-92883020D01*
X150576459Y-92814033D01*
X150326254Y-92710138D01*
X150146864Y-92709982D01*
X150146864Y-92532200D01*
X150117294Y-92383541D01*
X150033086Y-92257514D01*
X149907059Y-92173306D01*
X149876060Y-92167140D01*
X150148785Y-91873018D01*
X150348375Y-91391144D01*
X150229236Y-91135200D01*
X148869400Y-91135200D01*
X148869400Y-91155200D01*
X148615400Y-91155200D01*
X148615400Y-91135200D01*
X148595400Y-91135200D01*
X148595400Y-90881200D01*
X148615400Y-90881200D01*
X148615400Y-90861200D01*
X148869400Y-90861200D01*
X148869400Y-90881200D01*
X150229236Y-90881200D01*
X150348375Y-90625256D01*
X150148785Y-90143382D01*
X149985049Y-89966800D01*
X154617317Y-89966800D01*
X154692539Y-90148852D01*
X154883941Y-90340587D01*
X155134146Y-90444482D01*
X155405065Y-90444718D01*
X155655452Y-90341261D01*
X155840253Y-90156781D01*
X156394727Y-90711255D01*
X156559533Y-90821376D01*
X156577361Y-90824922D01*
X156715428Y-90852385D01*
X156791942Y-90929032D01*
X157042147Y-91032927D01*
X157313066Y-91033163D01*
X157563453Y-90929706D01*
X157755188Y-90738304D01*
X157859083Y-90488099D01*
X157859308Y-90229302D01*
X157967149Y-90157245D01*
X158224562Y-89899832D01*
X158334683Y-89735025D01*
X158365692Y-89579131D01*
X158442339Y-89502617D01*
X158546234Y-89252412D01*
X158546291Y-89187095D01*
X158745015Y-89187268D01*
X158995402Y-89083811D01*
X159187137Y-88892409D01*
X159291032Y-88642204D01*
X159291268Y-88371285D01*
X159187811Y-88120898D01*
X158996409Y-87929163D01*
X158746204Y-87825268D01*
X158475285Y-87825032D01*
X158224898Y-87928489D01*
X158155116Y-87998150D01*
X157448970Y-87998150D01*
X156874010Y-87423190D01*
X156709203Y-87313069D01*
X156514800Y-87274400D01*
X152305620Y-87274400D01*
X151627931Y-86596711D01*
X151630787Y-86593859D01*
X151734682Y-86343654D01*
X151734918Y-86072735D01*
X151631461Y-85822348D01*
X151440059Y-85630613D01*
X151253874Y-85553302D01*
X151253874Y-84554563D01*
X151322861Y-84485696D01*
X151426756Y-84235491D01*
X151426992Y-83964572D01*
X151323535Y-83714185D01*
X151132133Y-83522450D01*
X150881928Y-83418555D01*
X150611009Y-83418319D01*
X150360622Y-83521776D01*
X150168887Y-83713178D01*
X150064992Y-83963383D01*
X150064948Y-84014287D01*
X149965736Y-84014201D01*
X149715349Y-84117658D01*
X149523614Y-84309060D01*
X149419719Y-84559265D01*
X149419483Y-84830184D01*
X149522940Y-85080571D01*
X149592601Y-85150353D01*
X149592601Y-86346601D01*
X149613036Y-86449337D01*
X146497488Y-83333790D01*
X146332681Y-83223669D01*
X146138278Y-83185000D01*
X145812611Y-83185000D01*
X145658309Y-83081898D01*
X145463906Y-83043229D01*
X145418040Y-83043229D01*
X145460882Y-82940054D01*
X145461118Y-82669135D01*
X145357661Y-82418748D01*
X145166259Y-82227013D01*
X144916054Y-82123118D01*
X144645135Y-82122882D01*
X144394748Y-82226339D01*
X144203013Y-82417741D01*
X144099118Y-82667946D01*
X144099032Y-82766548D01*
X143834197Y-83031383D01*
X143724076Y-83196190D01*
X143685407Y-83390593D01*
X143685407Y-83666294D01*
X143614585Y-83737116D01*
X143529083Y-83865078D01*
X143458736Y-83694823D01*
X143267334Y-83503088D01*
X143038605Y-83408110D01*
X142944661Y-83180748D01*
X142753259Y-82989013D01*
X142503054Y-82885118D01*
X142404727Y-82885032D01*
X142314864Y-82667545D01*
X142123462Y-82475810D01*
X141873257Y-82371915D01*
X141602338Y-82371679D01*
X141351951Y-82475136D01*
X141160216Y-82666538D01*
X141056321Y-82916743D01*
X141056085Y-83187662D01*
X141154276Y-83425303D01*
X139640789Y-84938791D01*
X139530668Y-85103598D01*
X139513000Y-85192424D01*
X139314748Y-85274339D01*
X139123013Y-85465741D01*
X139019118Y-85715946D01*
X139018882Y-85986865D01*
X139122339Y-86237252D01*
X139313741Y-86428987D01*
X139526973Y-86517529D01*
X139526882Y-86621865D01*
X139630339Y-86872252D01*
X139821741Y-87063987D01*
X140071946Y-87167882D01*
X140240716Y-87168029D01*
X140158118Y-87366946D01*
X140157882Y-87637865D01*
X140261339Y-87888252D01*
X140452741Y-88079987D01*
X140702946Y-88183882D01*
X140745001Y-88183919D01*
X140745001Y-90619001D01*
X139902896Y-90619001D01*
X139708493Y-90657670D01*
X139543686Y-90767790D01*
X139500258Y-90811218D01*
X139402781Y-90811133D01*
X139152394Y-90914590D01*
X139136178Y-90930777D01*
X139120692Y-90915264D01*
X138870487Y-90811369D01*
X138599568Y-90811133D01*
X138349181Y-90914590D01*
X138279399Y-90984251D01*
X138164749Y-90984251D01*
X137976799Y-90796301D01*
X137976799Y-88559899D01*
X138070116Y-88598648D01*
X138341035Y-88598884D01*
X138591422Y-88495427D01*
X138783157Y-88304025D01*
X138887052Y-88053820D01*
X138887288Y-87782901D01*
X138783831Y-87532514D01*
X138592429Y-87340779D01*
X138342224Y-87236884D01*
X138071305Y-87236648D01*
X137820918Y-87340105D01*
X137743479Y-87417410D01*
X137587502Y-87448435D01*
X137422696Y-87558556D01*
X137109589Y-87871663D01*
X136999468Y-88036470D01*
X136960799Y-88230873D01*
X136960799Y-91006721D01*
X136974672Y-91076465D01*
X131823307Y-91076465D01*
X131824501Y-91070461D01*
X131824501Y-88730919D01*
X132092019Y-88463401D01*
X134094258Y-88463401D01*
X134288661Y-88424732D01*
X134453468Y-88314611D01*
X136103389Y-86664690D01*
X136200867Y-86664775D01*
X136451254Y-86561318D01*
X136642989Y-86369916D01*
X136746884Y-86119711D01*
X136747120Y-85848792D01*
X136643663Y-85598405D01*
X136452261Y-85406670D01*
X136202056Y-85302775D01*
X135931137Y-85302539D01*
X135680750Y-85405996D01*
X135489015Y-85597398D01*
X135385120Y-85847603D01*
X135385034Y-85946205D01*
X133883838Y-87447401D01*
X132163203Y-87447401D01*
X133172673Y-86437931D01*
X133282794Y-86273124D01*
X133321463Y-86078721D01*
X133321463Y-85940442D01*
X133390450Y-85871575D01*
X133494345Y-85621370D01*
X133494581Y-85350451D01*
X133391124Y-85100064D01*
X133199722Y-84908329D01*
X132949517Y-84804434D01*
X132678598Y-84804198D01*
X132428211Y-84907655D01*
X132236476Y-85099057D01*
X132132581Y-85349262D01*
X132132345Y-85620181D01*
X132235802Y-85870568D01*
X132269470Y-85904294D01*
X132152079Y-86021685D01*
X131972974Y-85842268D01*
X131722769Y-85738373D01*
X131624167Y-85738287D01*
X129311400Y-83425520D01*
X129311400Y-79951764D01*
X129315165Y-79949248D01*
X129584960Y-79545471D01*
X129679700Y-79069183D01*
X129679700Y-79020417D01*
X129584960Y-78544129D01*
X129315165Y-78140352D01*
X129110202Y-78003400D01*
X129425010Y-78003400D01*
X129658399Y-77906727D01*
X129837027Y-77728098D01*
X129933700Y-77494709D01*
X129933700Y-76790550D01*
X129774950Y-76631800D01*
X128562100Y-76631800D01*
X128562100Y-76651800D01*
X128308100Y-76651800D01*
X128308100Y-76631800D01*
X127095250Y-76631800D01*
X126936500Y-76790550D01*
X126936500Y-77494709D01*
X127033173Y-77728098D01*
X127211801Y-77906727D01*
X127445190Y-78003400D01*
X127759998Y-78003400D01*
X127555035Y-78140352D01*
X127285240Y-78544129D01*
X127190500Y-79020417D01*
X127190500Y-79069183D01*
X127285240Y-79545471D01*
X127555035Y-79949248D01*
X127958812Y-80219043D01*
X128295400Y-80285995D01*
X128295400Y-83635940D01*
X128334069Y-83830343D01*
X128444190Y-83995150D01*
X129112038Y-84662998D01*
X128670460Y-84662998D01*
X128670601Y-84500716D01*
X128567144Y-84250329D01*
X128375742Y-84058594D01*
X128125537Y-83954699D01*
X127854618Y-83954463D01*
X127604231Y-84057920D01*
X127534449Y-84127581D01*
X127326409Y-84127581D01*
X127132005Y-84166250D01*
X126967199Y-84276371D01*
X125550217Y-85693353D01*
X125440096Y-85858160D01*
X125401427Y-86052563D01*
X125401427Y-86805278D01*
X125364448Y-86749935D01*
X124960671Y-86480140D01*
X124484383Y-86385400D01*
X124435617Y-86385400D01*
X123959329Y-86480140D01*
X123555552Y-86749935D01*
X123285757Y-87153712D01*
X123191017Y-87630000D01*
X123285757Y-88106288D01*
X123425749Y-88315801D01*
X123324221Y-88315801D01*
X123142811Y-88134391D01*
X123142809Y-88134388D01*
X123097639Y-88089218D01*
X123188983Y-87630000D01*
X123094243Y-87153712D01*
X122824448Y-86749935D01*
X122420671Y-86480140D01*
X121944383Y-86385400D01*
X121895617Y-86385400D01*
X121419329Y-86480140D01*
X121234199Y-86603840D01*
X121234199Y-86494221D01*
X121477074Y-86251346D01*
X121895617Y-86334600D01*
X121944383Y-86334600D01*
X122420671Y-86239860D01*
X122824448Y-85970065D01*
X123094243Y-85566288D01*
X123188983Y-85090000D01*
X123094243Y-84613712D01*
X122954251Y-84404199D01*
X123055779Y-84404199D01*
X123282362Y-84630782D01*
X123191017Y-85090000D01*
X123285757Y-85566288D01*
X123555552Y-85970065D01*
X123959329Y-86239860D01*
X124435617Y-86334600D01*
X124484383Y-86334600D01*
X124960671Y-86239860D01*
X125364448Y-85970065D01*
X125634243Y-85566288D01*
X125728983Y-85090000D01*
X125634243Y-84613712D01*
X125364448Y-84209935D01*
X124960671Y-83940140D01*
X124484383Y-83845400D01*
X124435617Y-83845400D01*
X124017074Y-83928654D01*
X123625409Y-83536989D01*
X123460602Y-83426868D01*
X123266199Y-83388199D01*
X122852422Y-83388199D01*
X123094243Y-83026288D01*
X123188983Y-82550000D01*
X123094243Y-82073712D01*
X122824448Y-81669935D01*
X122420671Y-81400140D01*
X121944383Y-81305400D01*
X121895617Y-81305400D01*
X121419329Y-81400140D01*
X121015552Y-81669935D01*
X120745757Y-82073712D01*
X120651017Y-82550000D01*
X120745757Y-83026288D01*
X121015552Y-83430065D01*
X121081669Y-83474243D01*
X120987764Y-83536989D01*
X119909779Y-84614975D01*
X119799658Y-84779782D01*
X119760989Y-84974185D01*
X119127000Y-84974185D01*
X119127000Y-78845399D01*
X119869097Y-78845399D01*
X119972554Y-79095786D01*
X120163956Y-79287521D01*
X120414161Y-79391416D01*
X120685080Y-79391652D01*
X120900020Y-79302841D01*
X120745757Y-79533712D01*
X120651017Y-80010000D01*
X120745757Y-80486288D01*
X121015552Y-80890065D01*
X121419329Y-81159860D01*
X121895617Y-81254600D01*
X121944383Y-81254600D01*
X122362925Y-81171346D01*
X122424388Y-81232809D01*
X122424391Y-81232811D01*
X122678391Y-81486811D01*
X122843197Y-81596932D01*
X123037601Y-81635601D01*
X123606936Y-81635601D01*
X123555552Y-81669935D01*
X123285757Y-82073712D01*
X123191017Y-82550000D01*
X123285757Y-83026288D01*
X123555552Y-83430065D01*
X123959329Y-83699860D01*
X124435617Y-83794600D01*
X124484383Y-83794600D01*
X124960671Y-83699860D01*
X125364448Y-83430065D01*
X125634243Y-83026288D01*
X125728983Y-82550000D01*
X125634243Y-82073712D01*
X125364448Y-81669935D01*
X125312482Y-81635213D01*
X125504932Y-81596932D01*
X125669739Y-81486811D01*
X125957517Y-81199033D01*
X125966140Y-81199041D01*
X125966140Y-82083436D01*
X125897153Y-82152303D01*
X125793258Y-82402508D01*
X125793022Y-82673427D01*
X125896479Y-82923814D01*
X126087881Y-83115549D01*
X126338086Y-83219444D01*
X126609005Y-83219680D01*
X126859392Y-83116223D01*
X127051127Y-82924821D01*
X127155022Y-82674616D01*
X127155258Y-82403697D01*
X127051801Y-82153310D01*
X126982140Y-82083528D01*
X126982140Y-80257314D01*
X126946471Y-80077993D01*
X126943471Y-80062910D01*
X126833350Y-79898104D01*
X125474268Y-78539022D01*
X125742688Y-78244947D01*
X125914958Y-77829026D01*
X125793817Y-77597000D01*
X124587000Y-77597000D01*
X124587000Y-77617000D01*
X124333000Y-77617000D01*
X124333000Y-77597000D01*
X124313000Y-77597000D01*
X124313000Y-77343000D01*
X124333000Y-77343000D01*
X124333000Y-77323000D01*
X124587000Y-77323000D01*
X124587000Y-77343000D01*
X125793817Y-77343000D01*
X125914958Y-77110974D01*
X125742688Y-76695053D01*
X125348490Y-76263179D01*
X124958338Y-76080324D01*
X124960671Y-76079860D01*
X125364448Y-75810065D01*
X125561676Y-75514891D01*
X126936500Y-75514891D01*
X126936500Y-76219050D01*
X127095250Y-76377800D01*
X128308100Y-76377800D01*
X128308100Y-75164950D01*
X128562100Y-75164950D01*
X128562100Y-76377800D01*
X129774950Y-76377800D01*
X129933700Y-76219050D01*
X129933700Y-75514891D01*
X129837027Y-75281502D01*
X129658399Y-75102873D01*
X129425010Y-75006200D01*
X128720850Y-75006200D01*
X128562100Y-75164950D01*
X128308100Y-75164950D01*
X128149350Y-75006200D01*
X127445190Y-75006200D01*
X127211801Y-75102873D01*
X127033173Y-75281502D01*
X126936500Y-75514891D01*
X125561676Y-75514891D01*
X125634243Y-75406288D01*
X125728983Y-74930000D01*
X125634243Y-74453712D01*
X125364448Y-74049935D01*
X124960671Y-73780140D01*
X124484383Y-73685400D01*
X124435617Y-73685400D01*
X123959329Y-73780140D01*
X123555552Y-74049935D01*
X123285757Y-74453712D01*
X123191017Y-74930000D01*
X123285757Y-75406288D01*
X123555552Y-75810065D01*
X123959329Y-76079860D01*
X123961662Y-76080324D01*
X123571510Y-76263179D01*
X123177312Y-76695053D01*
X123069159Y-76956172D01*
X122824448Y-76589935D01*
X122420671Y-76320140D01*
X121944383Y-76225400D01*
X121895617Y-76225400D01*
X121419329Y-76320140D01*
X121015552Y-76589935D01*
X120745757Y-76993712D01*
X120651017Y-77470000D01*
X120745757Y-77946288D01*
X120845691Y-78095850D01*
X120686269Y-78029652D01*
X120415350Y-78029416D01*
X120164963Y-78132873D01*
X119973228Y-78324275D01*
X119869333Y-78574480D01*
X119869097Y-78845399D01*
X119127000Y-78845399D01*
X119127000Y-74066400D01*
X120667936Y-74066400D01*
X120667936Y-75793600D01*
X120697506Y-75942259D01*
X120781714Y-76068286D01*
X120907741Y-76152494D01*
X121056400Y-76182064D01*
X122783600Y-76182064D01*
X122932259Y-76152494D01*
X123058286Y-76068286D01*
X123142494Y-75942259D01*
X123172064Y-75793600D01*
X123172064Y-74066400D01*
X123142494Y-73917741D01*
X123058286Y-73791714D01*
X122932259Y-73707506D01*
X122783600Y-73677936D01*
X121056400Y-73677936D01*
X120907741Y-73707506D01*
X120781714Y-73791714D01*
X120697506Y-73917741D01*
X120667936Y-74066400D01*
X119127000Y-74066400D01*
X119127000Y-73144367D01*
X127437274Y-73144367D01*
X127548327Y-73413137D01*
X127753781Y-73618950D01*
X127832687Y-73651715D01*
X128163485Y-73982513D01*
X128390094Y-74133929D01*
X128657399Y-74187099D01*
X132824643Y-74187099D01*
X132609148Y-74276139D01*
X132557480Y-74327717D01*
X132325203Y-74231267D01*
X132054284Y-74231031D01*
X131803897Y-74334488D01*
X131612162Y-74525890D01*
X131508267Y-74776095D01*
X131508031Y-75047014D01*
X131611488Y-75297401D01*
X131802890Y-75489136D01*
X132053095Y-75593031D01*
X132151697Y-75593117D01*
X133026387Y-76467807D01*
X133191194Y-76577928D01*
X133385597Y-76616597D01*
X135343287Y-76616597D01*
X135368434Y-76641744D01*
X135404213Y-76665651D01*
X134722098Y-77347767D01*
X134624620Y-77347682D01*
X134425505Y-77429954D01*
X134371259Y-77375613D01*
X134121054Y-77271718D01*
X133850135Y-77271482D01*
X133599748Y-77374939D01*
X133408013Y-77566341D01*
X133304118Y-77816546D01*
X133303882Y-78087465D01*
X133407339Y-78337852D01*
X133484644Y-78415291D01*
X133515669Y-78571267D01*
X133625790Y-78736074D01*
X133997353Y-79107637D01*
X132893980Y-80211010D01*
X132783859Y-80375817D01*
X132745190Y-80570220D01*
X132745190Y-81173373D01*
X132676203Y-81242240D01*
X132572308Y-81492445D01*
X132572072Y-81763364D01*
X132675529Y-82013751D01*
X132866931Y-82205486D01*
X133042207Y-82278267D01*
X132398886Y-82921588D01*
X132349268Y-82995846D01*
X132315813Y-83029243D01*
X132297525Y-83073284D01*
X132247470Y-83148197D01*
X132230047Y-83235789D01*
X132211918Y-83279448D01*
X132211876Y-83327139D01*
X132194300Y-83415502D01*
X132211723Y-83503095D01*
X132211682Y-83550367D01*
X132229893Y-83594442D01*
X132247470Y-83682807D01*
X132297086Y-83757063D01*
X132315139Y-83800754D01*
X132348833Y-83834506D01*
X132398886Y-83909416D01*
X132473144Y-83959034D01*
X132506541Y-83992489D01*
X132550582Y-84010777D01*
X132625495Y-84060832D01*
X132713087Y-84078255D01*
X132756746Y-84096384D01*
X132804437Y-84096426D01*
X132892800Y-84114002D01*
X132980393Y-84096579D01*
X133027665Y-84096620D01*
X133071740Y-84078409D01*
X133160105Y-84060832D01*
X133234361Y-84011216D01*
X133278052Y-83993163D01*
X133311804Y-83959469D01*
X133386714Y-83909416D01*
X134555114Y-82741016D01*
X134706530Y-82514407D01*
X134759700Y-82247102D01*
X134759700Y-81206628D01*
X136153928Y-79812400D01*
X137194402Y-79812400D01*
X137461707Y-79759230D01*
X137688316Y-79607814D01*
X137971029Y-79325101D01*
X142022828Y-79325101D01*
X142036800Y-79322322D01*
X142036800Y-80416400D01*
X142075469Y-80610803D01*
X142185590Y-80775610D01*
X142541190Y-81131210D01*
X142705996Y-81241331D01*
X142715629Y-81243247D01*
X142900400Y-81280000D01*
X143371525Y-81280000D01*
X143565928Y-81241331D01*
X143730735Y-81131210D01*
X144209959Y-80651986D01*
X144320080Y-80487180D01*
X144351089Y-80331285D01*
X144427736Y-80254771D01*
X144531631Y-80004566D01*
X144531867Y-79733647D01*
X144428410Y-79483260D01*
X144358749Y-79413478D01*
X144358749Y-79077234D01*
X144669892Y-78766091D01*
X146837400Y-78766091D01*
X146837400Y-78924150D01*
X146975980Y-79062730D01*
X146879191Y-79215512D01*
X146955857Y-79377193D01*
X146837400Y-79495650D01*
X146837400Y-79653709D01*
X146934073Y-79887098D01*
X147083936Y-80036962D01*
X147083936Y-80341347D01*
X147069007Y-80416400D01*
X147146345Y-80805206D01*
X147366587Y-81134820D01*
X147696201Y-81355062D01*
X148085007Y-81432400D01*
X148160728Y-81432400D01*
X148160531Y-81658855D01*
X148263988Y-81909242D01*
X148455390Y-82100977D01*
X148705595Y-82204872D01*
X148804197Y-82204958D01*
X148843250Y-82244011D01*
X149008056Y-82354132D01*
X149202460Y-82392801D01*
X152512537Y-82392801D01*
X152706940Y-82354132D01*
X152871747Y-82244011D01*
X153042227Y-82073531D01*
X155721269Y-82073531D01*
X155915672Y-82034862D01*
X156080479Y-81924741D01*
X156213610Y-81791610D01*
X156323731Y-81626803D01*
X156362400Y-81432400D01*
X156362400Y-81361069D01*
X156392599Y-81355062D01*
X156722213Y-81134820D01*
X156942455Y-80805206D01*
X157019793Y-80416400D01*
X157004864Y-80341347D01*
X157004864Y-80036962D01*
X157154727Y-79887098D01*
X157251400Y-79653709D01*
X157251400Y-79495650D01*
X157132943Y-79377193D01*
X157209609Y-79215512D01*
X157112820Y-79062730D01*
X157251400Y-78924150D01*
X157251400Y-78766091D01*
X157185588Y-78607206D01*
X157209609Y-78569288D01*
X157008851Y-78145913D01*
X156644973Y-77809547D01*
X156180072Y-77638036D01*
X155981400Y-77781150D01*
X155981400Y-79039400D01*
X155727400Y-79039400D01*
X155727400Y-77781150D01*
X155528728Y-77638036D01*
X155063827Y-77809547D01*
X154699949Y-78145913D01*
X154584400Y-78389592D01*
X154468851Y-78145913D01*
X154104973Y-77809547D01*
X153640072Y-77638036D01*
X153441400Y-77781150D01*
X153441400Y-79039400D01*
X153187400Y-79039400D01*
X153187400Y-77781150D01*
X152988728Y-77638036D01*
X152523827Y-77809547D01*
X152159949Y-78145913D01*
X152044400Y-78389592D01*
X151928851Y-78145913D01*
X151564973Y-77809547D01*
X151100072Y-77638036D01*
X150901400Y-77781150D01*
X150901400Y-79039400D01*
X150647400Y-79039400D01*
X150647400Y-77781150D01*
X150448728Y-77638036D01*
X149983827Y-77809547D01*
X149619949Y-78145913D01*
X149504400Y-78389592D01*
X149388851Y-78145913D01*
X149024973Y-77809547D01*
X148560072Y-77638036D01*
X148361400Y-77781150D01*
X148361400Y-79039400D01*
X148107400Y-79039400D01*
X148107400Y-77781150D01*
X147908728Y-77638036D01*
X147443827Y-77809547D01*
X147079949Y-78145913D01*
X146879191Y-78569288D01*
X146903212Y-78607206D01*
X146837400Y-78766091D01*
X144669892Y-78766091D01*
X145604334Y-77831650D01*
X145714454Y-77666843D01*
X145753123Y-77472440D01*
X145753123Y-76299544D01*
X146655711Y-77202132D01*
X146713726Y-77240896D01*
X146820519Y-77312253D01*
X147014922Y-77350922D01*
X148478709Y-77350922D01*
X148547576Y-77419909D01*
X148797781Y-77523804D01*
X149068700Y-77524040D01*
X149319087Y-77420583D01*
X149510822Y-77229181D01*
X149614717Y-76978976D01*
X149614953Y-76708057D01*
X149511496Y-76457670D01*
X149320094Y-76265935D01*
X149069889Y-76162040D01*
X148798970Y-76161804D01*
X148548583Y-76265261D01*
X148478801Y-76334922D01*
X147225343Y-76334922D01*
X144702821Y-73812400D01*
X145463831Y-73812400D01*
X145570171Y-74347009D01*
X145873003Y-74800228D01*
X146326222Y-75103060D01*
X146860831Y-75209400D01*
X146915569Y-75209400D01*
X147450178Y-75103060D01*
X147903397Y-74800228D01*
X148206229Y-74347009D01*
X148312569Y-73812400D01*
X148206229Y-73277791D01*
X147903397Y-72824572D01*
X147682337Y-72676864D01*
X147904200Y-72676864D01*
X148052859Y-72647294D01*
X148178886Y-72563086D01*
X148263094Y-72437059D01*
X148292664Y-72288400D01*
X148292664Y-70256400D01*
X148263094Y-70107741D01*
X148178886Y-69981714D01*
X148052859Y-69897506D01*
X147904200Y-69867936D01*
X145872200Y-69867936D01*
X145723541Y-69897506D01*
X145597514Y-69981714D01*
X145513306Y-70107741D01*
X145483736Y-70256400D01*
X145483736Y-72288400D01*
X145513306Y-72437059D01*
X145597514Y-72563086D01*
X145723541Y-72647294D01*
X145872200Y-72676864D01*
X146094063Y-72676864D01*
X145873003Y-72824572D01*
X145570171Y-73277791D01*
X145463831Y-73812400D01*
X144702821Y-73812400D01*
X143192412Y-72301991D01*
X143273686Y-72247686D01*
X143357894Y-72121659D01*
X143387464Y-71973000D01*
X143387464Y-69773000D01*
X143357894Y-69624341D01*
X143273686Y-69498314D01*
X143147659Y-69414106D01*
X142999000Y-69384536D01*
X141799000Y-69384536D01*
X141726999Y-69398858D01*
X141722332Y-69375396D01*
X141612211Y-69210589D01*
X141561411Y-69159789D01*
X141396604Y-69049668D01*
X141202201Y-69010999D01*
X139253001Y-69010999D01*
X139098588Y-69041714D01*
X139114635Y-69017697D01*
X139183600Y-68670986D01*
X139183600Y-67819814D01*
X144521600Y-67819814D01*
X144521600Y-68670986D01*
X144590565Y-69017697D01*
X144786961Y-69311625D01*
X145080889Y-69508021D01*
X145427600Y-69576986D01*
X145774311Y-69508021D01*
X146068239Y-69311625D01*
X146264635Y-69017697D01*
X146333600Y-68670986D01*
X146333600Y-67819814D01*
X146307881Y-67690513D01*
X162829674Y-67690513D01*
X163115436Y-68382109D01*
X163644108Y-68911704D01*
X164335204Y-69198673D01*
X165083513Y-69199326D01*
X165775109Y-68913564D01*
X166304704Y-68384892D01*
X166591673Y-67693796D01*
X166592326Y-66945487D01*
X166306564Y-66253891D01*
X165777892Y-65724296D01*
X165086796Y-65437327D01*
X164338487Y-65436674D01*
X163646891Y-65722436D01*
X163117296Y-66251108D01*
X162830327Y-66942204D01*
X162829674Y-67690513D01*
X146307881Y-67690513D01*
X146264635Y-67473103D01*
X146068239Y-67179175D01*
X145774311Y-66982779D01*
X145427600Y-66913814D01*
X145080889Y-66982779D01*
X144786961Y-67179175D01*
X144590565Y-67473103D01*
X144521600Y-67819814D01*
X139183600Y-67819814D01*
X139114635Y-67473103D01*
X138918239Y-67179175D01*
X138740204Y-67060216D01*
X139146478Y-67060216D01*
X139253734Y-67319794D01*
X139452161Y-67518568D01*
X139711552Y-67626277D01*
X139992416Y-67626522D01*
X140251994Y-67519266D01*
X140450768Y-67320839D01*
X140558477Y-67061448D01*
X140558478Y-67060216D01*
X143146478Y-67060216D01*
X143253734Y-67319794D01*
X143452161Y-67518568D01*
X143711552Y-67626277D01*
X143992416Y-67626522D01*
X144251994Y-67519266D01*
X144450768Y-67320839D01*
X144558477Y-67061448D01*
X144558722Y-66780584D01*
X144451466Y-66521006D01*
X144253039Y-66322232D01*
X143993648Y-66214523D01*
X143712784Y-66214278D01*
X143453206Y-66321534D01*
X143254432Y-66519961D01*
X143146723Y-66779352D01*
X143146478Y-67060216D01*
X140558478Y-67060216D01*
X140558722Y-66780584D01*
X140451466Y-66521006D01*
X140253039Y-66322232D01*
X139993648Y-66214523D01*
X139712784Y-66214278D01*
X139453206Y-66321534D01*
X139254432Y-66519961D01*
X139146723Y-66779352D01*
X139146478Y-67060216D01*
X138740204Y-67060216D01*
X138624311Y-66982779D01*
X138277600Y-66913814D01*
X137930889Y-66982779D01*
X137636961Y-67179175D01*
X137440565Y-67473103D01*
X137371600Y-67819814D01*
X137371600Y-68670986D01*
X137440565Y-69017697D01*
X137636961Y-69311625D01*
X137758220Y-69392648D01*
X137650341Y-69414106D01*
X137524314Y-69498314D01*
X137440106Y-69624341D01*
X137410536Y-69773000D01*
X137410536Y-71300761D01*
X137387464Y-71296172D01*
X137387464Y-69773000D01*
X137357894Y-69624341D01*
X137273686Y-69498314D01*
X137147659Y-69414106D01*
X136999000Y-69384536D01*
X135799000Y-69384536D01*
X135650341Y-69414106D01*
X135562086Y-69473076D01*
X135537327Y-69413302D01*
X135358699Y-69234673D01*
X135125310Y-69138000D01*
X134684750Y-69138000D01*
X134526000Y-69296750D01*
X134526000Y-70746000D01*
X134546000Y-70746000D01*
X134546000Y-71000000D01*
X134526000Y-71000000D01*
X134526000Y-72449250D01*
X134684750Y-72608000D01*
X135125310Y-72608000D01*
X135358699Y-72511327D01*
X135537327Y-72332698D01*
X135562086Y-72272924D01*
X135650341Y-72331894D01*
X135799000Y-72361464D01*
X136555136Y-72361464D01*
X136479118Y-72544535D01*
X136478904Y-72790099D01*
X128946727Y-72790099D01*
X128820709Y-72664081D01*
X128788473Y-72586063D01*
X128583019Y-72380250D01*
X128314443Y-72268727D01*
X128023633Y-72268474D01*
X127754863Y-72379527D01*
X127549050Y-72584981D01*
X127437527Y-72853557D01*
X127437274Y-73144367D01*
X119127000Y-73144367D01*
X119127000Y-71158750D01*
X129164000Y-71158750D01*
X129164000Y-72099309D01*
X129260673Y-72332698D01*
X129439301Y-72511327D01*
X129672690Y-72608000D01*
X130113250Y-72608000D01*
X130272000Y-72449250D01*
X130272000Y-71000000D01*
X129322750Y-71000000D01*
X129164000Y-71158750D01*
X119127000Y-71158750D01*
X119127000Y-68057091D01*
X119219808Y-67590513D01*
X120327674Y-67590513D01*
X120613436Y-68282109D01*
X121142108Y-68811704D01*
X121833204Y-69098673D01*
X122581513Y-69099326D01*
X123273109Y-68813564D01*
X123377911Y-68708944D01*
X125521025Y-68708944D01*
X125720615Y-69190818D01*
X126158621Y-69663188D01*
X126744054Y-69931983D01*
X127000000Y-69813367D01*
X127000000Y-68453000D01*
X127254000Y-68453000D01*
X127254000Y-69813367D01*
X127509946Y-69931983D01*
X128095379Y-69663188D01*
X128110675Y-69646691D01*
X129164000Y-69646691D01*
X129164000Y-70587250D01*
X129322750Y-70746000D01*
X130272000Y-70746000D01*
X130272000Y-69296750D01*
X130113250Y-69138000D01*
X129672690Y-69138000D01*
X129439301Y-69234673D01*
X129260673Y-69413302D01*
X129164000Y-69646691D01*
X128110675Y-69646691D01*
X128533385Y-69190818D01*
X128732975Y-68708944D01*
X128613836Y-68453000D01*
X127254000Y-68453000D01*
X127000000Y-68453000D01*
X125640164Y-68453000D01*
X125521025Y-68708944D01*
X123377911Y-68708944D01*
X123802704Y-68284892D01*
X123944647Y-67943056D01*
X125521025Y-67943056D01*
X125640164Y-68199000D01*
X127000000Y-68199000D01*
X127000000Y-68179000D01*
X127254000Y-68179000D01*
X127254000Y-68199000D01*
X128613836Y-68199000D01*
X128732975Y-67943056D01*
X128533385Y-67461182D01*
X128260660Y-67167060D01*
X128291659Y-67160894D01*
X128417686Y-67076686D01*
X128501894Y-66950659D01*
X128531464Y-66802000D01*
X128531464Y-66369884D01*
X131605588Y-69444008D01*
X131562086Y-69473076D01*
X131537327Y-69413302D01*
X131358699Y-69234673D01*
X131125310Y-69138000D01*
X130684750Y-69138000D01*
X130526000Y-69296750D01*
X130526000Y-70746000D01*
X130546000Y-70746000D01*
X130546000Y-71000000D01*
X130526000Y-71000000D01*
X130526000Y-72449250D01*
X130684750Y-72608000D01*
X131125310Y-72608000D01*
X131358699Y-72511327D01*
X131537327Y-72332698D01*
X131562086Y-72272924D01*
X131650341Y-72331894D01*
X131799000Y-72361464D01*
X132999000Y-72361464D01*
X133147659Y-72331894D01*
X133235914Y-72272924D01*
X133260673Y-72332698D01*
X133439301Y-72511327D01*
X133672690Y-72608000D01*
X134113250Y-72608000D01*
X134272000Y-72449250D01*
X134272000Y-71000000D01*
X134252000Y-71000000D01*
X134252000Y-70746000D01*
X134272000Y-70746000D01*
X134272000Y-69296750D01*
X134113250Y-69138000D01*
X133672690Y-69138000D01*
X133439301Y-69234673D01*
X133260673Y-69413302D01*
X133235914Y-69473076D01*
X133147659Y-69414106D01*
X132999000Y-69384536D01*
X132880254Y-69384536D01*
X132868331Y-69324597D01*
X132868331Y-69324596D01*
X132758210Y-69159790D01*
X129025210Y-65426790D01*
X128860403Y-65316669D01*
X128666000Y-65278000D01*
X128531464Y-65278000D01*
X128531464Y-64770000D01*
X128501894Y-64621341D01*
X128417686Y-64495314D01*
X128291659Y-64411106D01*
X128143000Y-64381536D01*
X126111000Y-64381536D01*
X125962341Y-64411106D01*
X125836314Y-64495314D01*
X125752106Y-64621341D01*
X125722536Y-64770000D01*
X125722536Y-66802000D01*
X125752106Y-66950659D01*
X125836314Y-67076686D01*
X125962341Y-67160894D01*
X125993340Y-67167060D01*
X125720615Y-67461182D01*
X125521025Y-67943056D01*
X123944647Y-67943056D01*
X124089673Y-67593796D01*
X124090326Y-66845487D01*
X123804564Y-66153891D01*
X123275892Y-65624296D01*
X122584796Y-65337327D01*
X121836487Y-65336674D01*
X121144891Y-65622436D01*
X120615296Y-66151108D01*
X120328327Y-66842204D01*
X120327674Y-67590513D01*
X119219808Y-67590513D01*
X119324656Y-67063409D01*
X120421647Y-65421647D01*
X122063409Y-64324656D01*
X123057091Y-64127000D01*
X137419899Y-64127000D01*
X137371600Y-64369814D01*
X137371600Y-64369814D01*
G37*
X137371600Y-64369814D02*
X137371600Y-65220986D01*
X137440565Y-65567697D01*
X137636961Y-65861625D01*
X137930889Y-66058021D01*
X138277600Y-66126986D01*
X138624311Y-66058021D01*
X138918239Y-65861625D01*
X139114635Y-65567697D01*
X139183600Y-65220986D01*
X139183600Y-64369814D01*
X139135301Y-64127000D01*
X144569899Y-64127000D01*
X144521600Y-64369814D01*
X144521600Y-65220986D01*
X144590565Y-65567697D01*
X144786961Y-65861625D01*
X145080889Y-66058021D01*
X145427600Y-66126986D01*
X145774311Y-66058021D01*
X146068239Y-65861625D01*
X146264635Y-65567697D01*
X146333600Y-65220986D01*
X146333600Y-64369814D01*
X146285301Y-64127000D01*
X163942909Y-64127000D01*
X164936591Y-64324656D01*
X166578353Y-65421647D01*
X167675344Y-67063409D01*
X167873000Y-68057091D01*
X167873000Y-108942909D01*
X167675344Y-109936591D01*
X166578353Y-111578353D01*
X164936591Y-112675344D01*
X163942909Y-112873000D01*
X123057091Y-112873000D01*
X122063409Y-112675344D01*
X120421647Y-111578353D01*
X119386411Y-110029013D01*
X120327674Y-110029013D01*
X120613436Y-110720609D01*
X121142108Y-111250204D01*
X121833204Y-111537173D01*
X122581513Y-111537826D01*
X123273109Y-111252064D01*
X123802704Y-110723392D01*
X124089673Y-110032296D01*
X124090326Y-109283987D01*
X123804564Y-108592391D01*
X123448545Y-108235750D01*
X149123400Y-108235750D01*
X149123400Y-108939910D01*
X149220073Y-109173299D01*
X149398702Y-109351927D01*
X149632091Y-109448600D01*
X149959007Y-109448600D01*
X149717552Y-109609935D01*
X149447757Y-110013712D01*
X149353017Y-110490000D01*
X149447757Y-110966288D01*
X149717552Y-111370065D01*
X150121329Y-111639860D01*
X150597617Y-111734600D01*
X150646383Y-111734600D01*
X151122671Y-111639860D01*
X151526448Y-111370065D01*
X151796243Y-110966288D01*
X151890983Y-110490000D01*
X151893017Y-110490000D01*
X151987757Y-110966288D01*
X152257552Y-111370065D01*
X152661329Y-111639860D01*
X153137617Y-111734600D01*
X153186383Y-111734600D01*
X153662671Y-111639860D01*
X154066448Y-111370065D01*
X154336243Y-110966288D01*
X154430983Y-110490000D01*
X154336243Y-110013712D01*
X154066448Y-109609935D01*
X153662671Y-109340140D01*
X153186383Y-109245400D01*
X153137617Y-109245400D01*
X152661329Y-109340140D01*
X152257552Y-109609935D01*
X151987757Y-110013712D01*
X151893017Y-110490000D01*
X151890983Y-110490000D01*
X151796243Y-110013712D01*
X151526448Y-109609935D01*
X151284993Y-109448600D01*
X151611909Y-109448600D01*
X151845298Y-109351927D01*
X152023927Y-109173299D01*
X152120600Y-108939910D01*
X152120600Y-108625102D01*
X152257552Y-108830065D01*
X152661329Y-109099860D01*
X153137617Y-109194600D01*
X153186383Y-109194600D01*
X153662671Y-109099860D01*
X153881263Y-108953802D01*
X153881263Y-109177263D01*
X153919932Y-109371666D01*
X154030053Y-109536473D01*
X154524362Y-110030782D01*
X154433017Y-110490000D01*
X154527757Y-110966288D01*
X154797552Y-111370065D01*
X155201329Y-111639860D01*
X155677617Y-111734600D01*
X155726383Y-111734600D01*
X156202671Y-111639860D01*
X156606448Y-111370065D01*
X156876243Y-110966288D01*
X156970983Y-110490000D01*
X156973017Y-110490000D01*
X157067757Y-110966288D01*
X157337552Y-111370065D01*
X157741329Y-111639860D01*
X158217617Y-111734600D01*
X158266383Y-111734600D01*
X158742671Y-111639860D01*
X159146448Y-111370065D01*
X159416243Y-110966288D01*
X159510983Y-110490000D01*
X159513017Y-110490000D01*
X159607757Y-110966288D01*
X159877552Y-111370065D01*
X160281329Y-111639860D01*
X160757617Y-111734600D01*
X160806383Y-111734600D01*
X161282671Y-111639860D01*
X161686448Y-111370065D01*
X161956243Y-110966288D01*
X162050983Y-110490000D01*
X161959287Y-110029013D01*
X162829674Y-110029013D01*
X163115436Y-110720609D01*
X163644108Y-111250204D01*
X164335204Y-111537173D01*
X165083513Y-111537826D01*
X165775109Y-111252064D01*
X166304704Y-110723392D01*
X166591673Y-110032296D01*
X166592326Y-109283987D01*
X166306564Y-108592391D01*
X165777892Y-108062796D01*
X165086796Y-107775827D01*
X164338487Y-107775174D01*
X163646891Y-108060936D01*
X163117296Y-108589608D01*
X162830327Y-109280704D01*
X162829674Y-110029013D01*
X161959287Y-110029013D01*
X161956243Y-110013712D01*
X161686448Y-109609935D01*
X161282671Y-109340140D01*
X160806383Y-109245400D01*
X160757617Y-109245400D01*
X160281329Y-109340140D01*
X159877552Y-109609935D01*
X159607757Y-110013712D01*
X159513017Y-110490000D01*
X159510983Y-110490000D01*
X159416243Y-110013712D01*
X159146448Y-109609935D01*
X158742671Y-109340140D01*
X158266383Y-109245400D01*
X158217617Y-109245400D01*
X157741329Y-109340140D01*
X157337552Y-109609935D01*
X157067757Y-110013712D01*
X156973017Y-110490000D01*
X156970983Y-110490000D01*
X156876243Y-110013712D01*
X156606448Y-109609935D01*
X156202671Y-109340140D01*
X155726383Y-109245400D01*
X155677617Y-109245400D01*
X155259074Y-109328654D01*
X154897263Y-108966843D01*
X154897263Y-108896690D01*
X155201329Y-109099860D01*
X155677617Y-109194600D01*
X155726383Y-109194600D01*
X156202671Y-109099860D01*
X156606448Y-108830065D01*
X156876243Y-108426288D01*
X156970983Y-107950000D01*
X156973017Y-107950000D01*
X157067757Y-108426288D01*
X157337552Y-108830065D01*
X157741329Y-109099860D01*
X158217617Y-109194600D01*
X158266383Y-109194600D01*
X158742671Y-109099860D01*
X159146448Y-108830065D01*
X159416243Y-108426288D01*
X159510983Y-107950000D01*
X159513017Y-107950000D01*
X159607757Y-108426288D01*
X159877552Y-108830065D01*
X160281329Y-109099860D01*
X160757617Y-109194600D01*
X160806383Y-109194600D01*
X161282671Y-109099860D01*
X161686448Y-108830065D01*
X161956243Y-108426288D01*
X162050983Y-107950000D01*
X161956243Y-107473712D01*
X161686448Y-107069935D01*
X161282671Y-106800140D01*
X160806383Y-106705400D01*
X160757617Y-106705400D01*
X160281329Y-106800140D01*
X159877552Y-107069935D01*
X159607757Y-107473712D01*
X159513017Y-107950000D01*
X159510983Y-107950000D01*
X159416243Y-107473712D01*
X159146448Y-107069935D01*
X158742671Y-106800140D01*
X158266383Y-106705400D01*
X158217617Y-106705400D01*
X157741329Y-106800140D01*
X157337552Y-107069935D01*
X157067757Y-107473712D01*
X156973017Y-107950000D01*
X156970983Y-107950000D01*
X156876243Y-107473712D01*
X156606448Y-107069935D01*
X156202671Y-106800140D01*
X155726383Y-106705400D01*
X155677617Y-106705400D01*
X155259074Y-106788654D01*
X154791210Y-106320790D01*
X154626403Y-106210669D01*
X154432000Y-106172000D01*
X152410626Y-106172000D01*
X152341759Y-106103013D01*
X152091554Y-105999118D01*
X151820635Y-105998882D01*
X151570248Y-106102339D01*
X151378513Y-106293741D01*
X151313047Y-106451400D01*
X150907750Y-106451400D01*
X150749000Y-106610150D01*
X150749000Y-107823000D01*
X150769000Y-107823000D01*
X150769000Y-108077000D01*
X150749000Y-108077000D01*
X150749000Y-108097000D01*
X150495000Y-108097000D01*
X150495000Y-108077000D01*
X149282150Y-108077000D01*
X149123400Y-108235750D01*
X123448545Y-108235750D01*
X123275892Y-108062796D01*
X122584796Y-107775827D01*
X121836487Y-107775174D01*
X121144891Y-108060936D01*
X120615296Y-108589608D01*
X120328327Y-109280704D01*
X120327674Y-110029013D01*
X119386411Y-110029013D01*
X119324656Y-109936591D01*
X119127000Y-108942909D01*
X119127000Y-105918000D01*
X125477017Y-105918000D01*
X125571757Y-106394288D01*
X125841552Y-106798065D01*
X126245329Y-107067860D01*
X126721617Y-107162600D01*
X126770383Y-107162600D01*
X127246671Y-107067860D01*
X127650448Y-106798065D01*
X127920243Y-106394288D01*
X128014983Y-105918000D01*
X127923638Y-105458782D01*
X128317860Y-105064561D01*
X128363761Y-105064561D01*
X128111757Y-105441712D01*
X128017017Y-105918000D01*
X128111757Y-106394288D01*
X128381552Y-106798065D01*
X128785329Y-107067860D01*
X129261617Y-107162600D01*
X129310383Y-107162600D01*
X129786671Y-107067860D01*
X130190448Y-106798065D01*
X130460243Y-106394288D01*
X130554983Y-105918000D01*
X130460243Y-105441712D01*
X130190448Y-105037935D01*
X130185401Y-105034563D01*
X130228991Y-105025892D01*
X130393798Y-104915771D01*
X130999453Y-104310116D01*
X131325329Y-104527860D01*
X131801617Y-104622600D01*
X131850383Y-104622600D01*
X132326671Y-104527860D01*
X132511801Y-104404160D01*
X132511801Y-104513778D01*
X132268926Y-104756654D01*
X131850383Y-104673400D01*
X131801617Y-104673400D01*
X131325329Y-104768140D01*
X130921552Y-105037935D01*
X130651757Y-105441712D01*
X130557017Y-105918000D01*
X130651757Y-106394288D01*
X130921552Y-106798065D01*
X131325329Y-107067860D01*
X131801617Y-107162600D01*
X131850383Y-107162600D01*
X132326671Y-107067860D01*
X132730448Y-106798065D01*
X133000243Y-106394288D01*
X133094983Y-105918000D01*
X133003638Y-105458782D01*
X133379012Y-105083409D01*
X133489132Y-104918602D01*
X133497487Y-104876600D01*
X133703007Y-104876600D01*
X133461552Y-105037935D01*
X133191757Y-105441712D01*
X133097017Y-105918000D01*
X133191757Y-106394288D01*
X133461552Y-106798065D01*
X133865329Y-107067860D01*
X134341617Y-107162600D01*
X134390383Y-107162600D01*
X134866671Y-107067860D01*
X135027960Y-106960090D01*
X149123400Y-106960090D01*
X149123400Y-107664250D01*
X149282150Y-107823000D01*
X150495000Y-107823000D01*
X150495000Y-106610150D01*
X150336250Y-106451400D01*
X149632091Y-106451400D01*
X149398702Y-106548073D01*
X149220073Y-106726701D01*
X149123400Y-106960090D01*
X135027960Y-106960090D01*
X135270448Y-106798065D01*
X135540243Y-106394288D01*
X135634983Y-105918000D01*
X135540243Y-105441712D01*
X135270448Y-105037935D01*
X135028993Y-104876600D01*
X135355909Y-104876600D01*
X135589298Y-104779927D01*
X135767927Y-104601299D01*
X135864600Y-104367910D01*
X135864600Y-103663750D01*
X135705850Y-103505000D01*
X134493000Y-103505000D01*
X134493000Y-103525000D01*
X134239000Y-103525000D01*
X134239000Y-103505000D01*
X134219000Y-103505000D01*
X134219000Y-103251000D01*
X134239000Y-103251000D01*
X134239000Y-102038150D01*
X134493000Y-102038150D01*
X134493000Y-103251000D01*
X135705850Y-103251000D01*
X135864600Y-103092250D01*
X135864600Y-102489001D01*
X145021301Y-102489001D01*
X145038724Y-102576593D01*
X145038683Y-102623866D01*
X145056894Y-102667941D01*
X145074471Y-102756305D01*
X145124086Y-102830560D01*
X145142140Y-102874253D01*
X145175834Y-102908006D01*
X145225887Y-102982915D01*
X145300144Y-103032532D01*
X145333542Y-103065988D01*
X145377585Y-103084276D01*
X145452497Y-103134331D01*
X145540087Y-103151754D01*
X145583747Y-103169883D01*
X145631438Y-103169925D01*
X145719801Y-103187501D01*
X146847435Y-103187501D01*
X146824700Y-103301800D01*
X146824700Y-105156000D01*
X146842123Y-105243592D01*
X146842082Y-105290865D01*
X146860293Y-105334940D01*
X146877870Y-105423304D01*
X146927485Y-105497559D01*
X146945539Y-105541252D01*
X146979233Y-105575005D01*
X147029286Y-105649914D01*
X147103543Y-105699531D01*
X147136941Y-105732987D01*
X147180984Y-105751275D01*
X147255896Y-105801330D01*
X147343486Y-105818753D01*
X147387146Y-105836882D01*
X147434837Y-105836924D01*
X147523200Y-105854500D01*
X147610792Y-105837077D01*
X147658065Y-105837118D01*
X147702140Y-105818907D01*
X147790504Y-105801330D01*
X147864759Y-105751715D01*
X147908452Y-105733661D01*
X147942205Y-105699967D01*
X148017114Y-105649914D01*
X148066731Y-105575657D01*
X148100187Y-105542259D01*
X148118475Y-105498216D01*
X148168530Y-105423304D01*
X148185953Y-105335714D01*
X148204082Y-105292054D01*
X148204124Y-105244363D01*
X148221700Y-105156000D01*
X148221700Y-103591128D01*
X150442355Y-101370473D01*
X163101247Y-101370473D01*
X163235089Y-101694395D01*
X163482702Y-101942440D01*
X163806389Y-102076847D01*
X164156873Y-102077153D01*
X164480795Y-101943311D01*
X164728840Y-101695698D01*
X164863247Y-101372011D01*
X164863553Y-101021527D01*
X164729711Y-100697605D01*
X164482098Y-100449560D01*
X164158411Y-100315153D01*
X163807927Y-100314847D01*
X163484005Y-100448689D01*
X163235960Y-100696302D01*
X163101553Y-101019989D01*
X163101247Y-101370473D01*
X150442355Y-101370473D01*
X151063728Y-100749100D01*
X157480000Y-100749100D01*
X157747305Y-100695930D01*
X157973914Y-100544514D01*
X159858315Y-98660113D01*
X159909462Y-98583566D01*
X160158314Y-98334714D01*
X160207932Y-98260456D01*
X160241387Y-98227059D01*
X160259675Y-98183018D01*
X160309730Y-98108105D01*
X160327153Y-98020513D01*
X160345282Y-97976854D01*
X160345324Y-97929163D01*
X160362900Y-97840800D01*
X160345477Y-97753207D01*
X160345518Y-97705935D01*
X160327307Y-97661860D01*
X160309730Y-97573495D01*
X160260114Y-97499239D01*
X160242061Y-97455548D01*
X160208367Y-97421796D01*
X160158314Y-97346886D01*
X160084056Y-97297268D01*
X160050659Y-97263813D01*
X160006618Y-97245525D01*
X159931705Y-97195470D01*
X159844113Y-97178047D01*
X159800454Y-97159918D01*
X159752763Y-97159876D01*
X159664400Y-97142300D01*
X159576807Y-97159723D01*
X159529535Y-97159682D01*
X159485460Y-97177893D01*
X159397095Y-97195470D01*
X159322839Y-97245086D01*
X159279148Y-97263139D01*
X159245396Y-97296833D01*
X159170486Y-97346886D01*
X158870487Y-97646885D01*
X158819339Y-97723433D01*
X157190672Y-99352100D01*
X155488887Y-99352100D01*
X155516987Y-99324049D01*
X155535275Y-99280006D01*
X155585330Y-99205094D01*
X155602753Y-99117504D01*
X155620882Y-99073844D01*
X155620924Y-99026153D01*
X155638500Y-98937790D01*
X155621077Y-98850198D01*
X155621118Y-98802925D01*
X155602907Y-98758850D01*
X155585330Y-98670486D01*
X155535715Y-98596231D01*
X155517661Y-98552538D01*
X155483967Y-98518785D01*
X155433914Y-98443876D01*
X155359657Y-98394259D01*
X155326259Y-98360803D01*
X155282216Y-98342515D01*
X155207304Y-98292460D01*
X155119714Y-98275037D01*
X155076054Y-98256908D01*
X155028363Y-98256866D01*
X154940000Y-98239290D01*
X154515736Y-98239290D01*
X154248431Y-98292460D01*
X154021822Y-98443876D01*
X154002598Y-98463100D01*
X152862203Y-98463100D01*
X152872762Y-98437672D01*
X152873034Y-98126971D01*
X152754384Y-97839817D01*
X152534877Y-97619926D01*
X152247930Y-97500776D01*
X151937229Y-97500504D01*
X151650075Y-97619154D01*
X151430184Y-97838661D01*
X151311034Y-98125608D01*
X151310762Y-98436309D01*
X151321832Y-98463100D01*
X150190200Y-98463100D01*
X149922896Y-98516270D01*
X149696286Y-98667686D01*
X146573471Y-101790501D01*
X145719801Y-101790501D01*
X145632209Y-101807924D01*
X145584936Y-101807883D01*
X145540861Y-101826094D01*
X145452497Y-101843671D01*
X145378242Y-101893286D01*
X145334549Y-101911340D01*
X145300796Y-101945034D01*
X145225887Y-101995087D01*
X145176270Y-102069344D01*
X145142814Y-102102742D01*
X145124526Y-102146785D01*
X145074471Y-102221697D01*
X145057048Y-102309287D01*
X145038919Y-102352947D01*
X145038877Y-102400638D01*
X145021301Y-102489001D01*
X135864600Y-102489001D01*
X135864600Y-102388090D01*
X135767927Y-102154701D01*
X135589298Y-101976073D01*
X135355909Y-101879400D01*
X134651750Y-101879400D01*
X134493000Y-102038150D01*
X134239000Y-102038150D01*
X134080250Y-101879400D01*
X134007127Y-101879400D01*
X135266987Y-100619540D01*
X135364465Y-100619625D01*
X135614852Y-100516168D01*
X135806587Y-100324766D01*
X135910482Y-100074561D01*
X135910613Y-99924613D01*
X135988410Y-99892468D01*
X136180145Y-99701066D01*
X136284040Y-99450861D01*
X136284276Y-99179942D01*
X136180819Y-98929555D01*
X135989417Y-98737820D01*
X135739212Y-98633925D01*
X135468293Y-98633689D01*
X135217906Y-98737146D01*
X135140467Y-98814451D01*
X135016744Y-98839061D01*
X134988904Y-98844598D01*
X134630088Y-98844598D01*
X134467938Y-98876852D01*
X134435684Y-98883267D01*
X134270878Y-98993388D01*
X132858044Y-100406222D01*
X132858062Y-100385519D01*
X132754605Y-100135132D01*
X132563203Y-99943397D01*
X132312998Y-99839502D01*
X132155696Y-99839365D01*
X131966240Y-99801680D01*
X131460907Y-99801680D01*
X131403634Y-99663068D01*
X131082383Y-99341257D01*
X130662434Y-99166879D01*
X130468420Y-99166710D01*
X130781448Y-99151042D01*
X131165223Y-98992077D01*
X131234688Y-98749893D01*
X130434080Y-97949285D01*
X129633472Y-98749893D01*
X129702937Y-98992077D01*
X130200338Y-99169532D01*
X129787468Y-99340126D01*
X129465657Y-99661377D01*
X129291279Y-100081326D01*
X129290882Y-100536039D01*
X129464526Y-100956292D01*
X129785777Y-101278103D01*
X130205726Y-101452481D01*
X130586414Y-101452813D01*
X130288229Y-101750998D01*
X130178108Y-101915805D01*
X130139439Y-102110208D01*
X130139439Y-102463852D01*
X129786671Y-102228140D01*
X129310383Y-102133400D01*
X129261617Y-102133400D01*
X128785329Y-102228140D01*
X128381552Y-102497935D01*
X128111757Y-102901712D01*
X128017017Y-103378000D01*
X128111757Y-103854288D01*
X128241566Y-104048561D01*
X128107439Y-104048561D01*
X127913036Y-104087230D01*
X127913034Y-104087231D01*
X127913035Y-104087231D01*
X127748228Y-104197351D01*
X127188926Y-104756654D01*
X126770383Y-104673400D01*
X126721617Y-104673400D01*
X126245329Y-104768140D01*
X125841552Y-105037935D01*
X125571757Y-105441712D01*
X125477017Y-105918000D01*
X119127000Y-105918000D01*
X119127000Y-103378000D01*
X125477017Y-103378000D01*
X125571757Y-103854288D01*
X125841552Y-104258065D01*
X126245329Y-104527860D01*
X126721617Y-104622600D01*
X126770383Y-104622600D01*
X127246671Y-104527860D01*
X127650448Y-104258065D01*
X127920243Y-103854288D01*
X128014983Y-103378000D01*
X127920243Y-102901712D01*
X127650448Y-102497935D01*
X127246671Y-102228140D01*
X126770383Y-102133400D01*
X126721617Y-102133400D01*
X126245329Y-102228140D01*
X125841552Y-102497935D01*
X125571757Y-102901712D01*
X125477017Y-103378000D01*
X119127000Y-103378000D01*
X119127000Y-84974185D01*
X119760989Y-84974185D01*
X119760989Y-92825815D01*
X119799658Y-93020218D01*
X119909779Y-93185025D01*
X120510542Y-93785789D01*
X120323948Y-93972059D01*
X120220053Y-94222264D01*
X120219958Y-94331685D01*
X120131605Y-94463914D01*
X120092936Y-94658317D01*
X120092936Y-95678966D01*
X120131605Y-95873369D01*
X120241726Y-96038176D01*
X121074259Y-96870709D01*
X121015552Y-96909935D01*
X120745757Y-97313712D01*
X120651017Y-97790000D01*
X120745757Y-98266288D01*
X121015552Y-98670065D01*
X121419329Y-98939860D01*
X121578808Y-98971583D01*
X121493118Y-99177946D01*
X121492882Y-99448865D01*
X121497928Y-99461078D01*
X121407748Y-99498339D01*
X121216013Y-99689741D01*
X121112118Y-99939946D01*
X121111882Y-100210865D01*
X121215339Y-100461252D01*
X121406741Y-100652987D01*
X121656946Y-100756882D01*
X121927865Y-100757118D01*
X122178252Y-100653661D01*
X122248034Y-100584000D01*
X124062933Y-100584000D01*
X124257336Y-100545331D01*
X124422143Y-100435210D01*
X125606265Y-99251089D01*
X125606267Y-99251086D01*
X126000311Y-98857042D01*
X126110432Y-98692236D01*
X126149101Y-98497832D01*
X126149101Y-97996039D01*
X126750882Y-97996039D01*
X126924526Y-98416292D01*
X127245777Y-98738103D01*
X127665726Y-98912481D01*
X128120439Y-98912878D01*
X128540692Y-98739234D01*
X128862503Y-98417983D01*
X128988151Y-98115389D01*
X129049561Y-98053979D01*
X129052718Y-98117048D01*
X129211683Y-98500823D01*
X129453867Y-98570288D01*
X130254475Y-97769680D01*
X130613685Y-97769680D01*
X131414293Y-98570288D01*
X131656477Y-98500823D01*
X131833932Y-98003422D01*
X132004526Y-98416292D01*
X132325777Y-98738103D01*
X132745726Y-98912481D01*
X133200439Y-98912878D01*
X133620692Y-98739234D01*
X133942503Y-98417983D01*
X134116881Y-97998034D01*
X134117107Y-97739677D01*
X134228952Y-97627831D01*
X134236705Y-97627838D01*
X134487092Y-97524381D01*
X134678827Y-97332979D01*
X134782722Y-97082774D01*
X134782958Y-96811855D01*
X134679501Y-96561468D01*
X134488099Y-96369733D01*
X134237894Y-96265838D01*
X133966975Y-96265602D01*
X133716588Y-96369059D01*
X133524853Y-96560461D01*
X133453913Y-96731302D01*
X133202434Y-96626879D01*
X132747721Y-96626482D01*
X132327468Y-96800126D01*
X132005657Y-97121377D01*
X131831279Y-97541326D01*
X131831110Y-97735340D01*
X131815442Y-97422312D01*
X131656477Y-97038537D01*
X131414293Y-96969072D01*
X130613685Y-97769680D01*
X130254475Y-97769680D01*
X129695739Y-97210944D01*
X129599501Y-96978028D01*
X129408099Y-96786293D01*
X129157894Y-96682398D01*
X128886975Y-96682162D01*
X128636588Y-96785619D01*
X128581585Y-96840527D01*
X128542383Y-96801257D01*
X128122434Y-96626879D01*
X127667721Y-96626482D01*
X127247468Y-96800126D01*
X126925657Y-97121377D01*
X126751279Y-97541326D01*
X126750882Y-97996039D01*
X126149101Y-97996039D01*
X126149101Y-97223071D01*
X126110432Y-97028668D01*
X126000311Y-96863861D01*
X125305741Y-96169291D01*
X125364448Y-96130065D01*
X125634243Y-95726288D01*
X125728983Y-95250000D01*
X125634243Y-94773712D01*
X125392422Y-94411801D01*
X127177648Y-94411801D01*
X127372051Y-94373132D01*
X127536858Y-94263011D01*
X128180235Y-93619634D01*
X130495650Y-93619634D01*
X130300836Y-93700129D01*
X130109101Y-93891531D01*
X130005206Y-94141736D01*
X130005177Y-94175251D01*
X129787468Y-94265206D01*
X129465657Y-94586457D01*
X129291279Y-95006406D01*
X129290882Y-95461119D01*
X129464526Y-95881372D01*
X129785777Y-96203183D01*
X130205726Y-96377561D01*
X130299986Y-96377643D01*
X130086712Y-96388318D01*
X129702937Y-96547283D01*
X129633472Y-96789467D01*
X130434080Y-97590075D01*
X131234688Y-96789467D01*
X131165223Y-96547283D01*
X130674420Y-96372181D01*
X131080692Y-96204314D01*
X131402503Y-95883063D01*
X131576881Y-95463114D01*
X131577278Y-95008401D01*
X131403634Y-94588148D01*
X131326625Y-94511005D01*
X131366970Y-94413844D01*
X131367206Y-94142925D01*
X131263749Y-93892538D01*
X131072347Y-93700803D01*
X130876872Y-93619634D01*
X131430648Y-93619634D01*
X131625051Y-93580965D01*
X131789858Y-93470844D01*
X132025204Y-93235498D01*
X136102980Y-93235498D01*
X136732237Y-93864755D01*
X136327026Y-94269967D01*
X136229548Y-94269882D01*
X135979161Y-94373339D01*
X135787426Y-94564741D01*
X135683531Y-94814946D01*
X135683317Y-95060501D01*
X135383882Y-95060501D01*
X135336889Y-95029101D01*
X135303492Y-94995646D01*
X135259451Y-94977358D01*
X135184538Y-94927303D01*
X135096946Y-94909880D01*
X135053287Y-94891751D01*
X135005596Y-94891709D01*
X134917233Y-94874133D01*
X134829640Y-94891556D01*
X134782368Y-94891515D01*
X134738293Y-94909726D01*
X134649928Y-94927303D01*
X134575672Y-94976919D01*
X134531981Y-94994972D01*
X134498229Y-95028666D01*
X134423319Y-95078719D01*
X134373701Y-95152977D01*
X134340246Y-95186374D01*
X134321958Y-95230415D01*
X134271903Y-95305328D01*
X134254480Y-95392920D01*
X134236351Y-95436579D01*
X134236309Y-95484270D01*
X134218733Y-95572633D01*
X134236156Y-95660226D01*
X134236115Y-95707498D01*
X134254326Y-95751573D01*
X134271903Y-95839938D01*
X134321519Y-95914194D01*
X134339572Y-95957885D01*
X134373266Y-95991637D01*
X134423319Y-96066547D01*
X134609687Y-96252915D01*
X134836296Y-96404331D01*
X135103601Y-96457501D01*
X136752254Y-96457501D01*
X137019559Y-96404331D01*
X137032716Y-96395540D01*
X137419080Y-96395540D01*
X137506673Y-96378117D01*
X137553945Y-96378158D01*
X137598020Y-96359947D01*
X137686385Y-96342370D01*
X137760641Y-96292754D01*
X137804332Y-96274701D01*
X137838084Y-96241007D01*
X137912994Y-96190954D01*
X138123843Y-95980105D01*
X140579072Y-95980105D01*
X140757201Y-96158234D01*
X140983810Y-96309650D01*
X141203503Y-96353349D01*
X141203282Y-96607195D01*
X141306739Y-96857582D01*
X141498141Y-97049317D01*
X141748346Y-97153212D01*
X142019265Y-97153448D01*
X142269652Y-97049991D01*
X142339434Y-96980330D01*
X155904451Y-96980330D01*
X156098854Y-96941661D01*
X156263661Y-96831540D01*
X157364128Y-95731073D01*
X157461606Y-95731158D01*
X157711993Y-95627701D01*
X157903728Y-95436299D01*
X158007623Y-95186094D01*
X158007859Y-94915175D01*
X157904402Y-94664788D01*
X157713000Y-94473053D01*
X157462795Y-94369158D01*
X157191876Y-94368922D01*
X156941489Y-94472379D01*
X156749754Y-94663781D01*
X156645859Y-94913986D01*
X156645773Y-95012588D01*
X155694031Y-95964330D01*
X148720488Y-95964330D01*
X148742341Y-95931624D01*
X148759764Y-95844034D01*
X148777893Y-95800374D01*
X148777935Y-95752683D01*
X148795511Y-95664320D01*
X148778088Y-95576728D01*
X148778129Y-95529455D01*
X148759918Y-95485380D01*
X148758256Y-95477028D01*
X153891596Y-95477028D01*
X154085999Y-95438359D01*
X154250806Y-95328238D01*
X155149622Y-94429422D01*
X155151831Y-94426117D01*
X155325252Y-94354461D01*
X155516987Y-94163059D01*
X155620882Y-93912854D01*
X155621118Y-93641935D01*
X155517661Y-93391548D01*
X155516588Y-93390473D01*
X163101247Y-93390473D01*
X163235089Y-93714395D01*
X163482702Y-93962440D01*
X163806389Y-94096847D01*
X164156873Y-94097153D01*
X164480795Y-93963311D01*
X164728840Y-93715698D01*
X164863247Y-93392011D01*
X164863553Y-93041527D01*
X164729711Y-92717605D01*
X164482098Y-92469560D01*
X164158411Y-92335153D01*
X163807927Y-92334847D01*
X163484005Y-92468689D01*
X163235960Y-92716302D01*
X163101553Y-93039989D01*
X163101247Y-93390473D01*
X155516588Y-93390473D01*
X155326259Y-93199813D01*
X155076054Y-93095918D01*
X154805135Y-93095682D01*
X154554748Y-93199139D01*
X154363013Y-93390541D01*
X154259118Y-93640746D01*
X154258907Y-93883297D01*
X153681176Y-94461028D01*
X150146864Y-94461028D01*
X150146864Y-94071983D01*
X150325065Y-94072138D01*
X150575452Y-93968681D01*
X150645234Y-93899020D01*
X152393353Y-93899020D01*
X152563977Y-93969870D01*
X152834896Y-93970106D01*
X153085283Y-93866649D01*
X153277018Y-93675247D01*
X153380913Y-93425042D01*
X153381149Y-93154123D01*
X153277692Y-92903736D01*
X153086290Y-92712001D01*
X152836085Y-92608106D01*
X152565166Y-92607870D01*
X152314779Y-92711327D01*
X152142787Y-92883020D01*
X150645326Y-92883020D01*
X150576459Y-92814033D01*
X150326254Y-92710138D01*
X150146864Y-92709982D01*
X150146864Y-92532200D01*
X150117294Y-92383541D01*
X150033086Y-92257514D01*
X149907059Y-92173306D01*
X149876060Y-92167140D01*
X150148785Y-91873018D01*
X150348375Y-91391144D01*
X150229236Y-91135200D01*
X148869400Y-91135200D01*
X148869400Y-91155200D01*
X148615400Y-91155200D01*
X148615400Y-91135200D01*
X148595400Y-91135200D01*
X148595400Y-90881200D01*
X148615400Y-90881200D01*
X148615400Y-90861200D01*
X148869400Y-90861200D01*
X148869400Y-90881200D01*
X150229236Y-90881200D01*
X150348375Y-90625256D01*
X150148785Y-90143382D01*
X149985049Y-89966800D01*
X154617317Y-89966800D01*
X154692539Y-90148852D01*
X154883941Y-90340587D01*
X155134146Y-90444482D01*
X155405065Y-90444718D01*
X155655452Y-90341261D01*
X155840253Y-90156781D01*
X156394727Y-90711255D01*
X156559533Y-90821376D01*
X156577361Y-90824922D01*
X156715428Y-90852385D01*
X156791942Y-90929032D01*
X157042147Y-91032927D01*
X157313066Y-91033163D01*
X157563453Y-90929706D01*
X157755188Y-90738304D01*
X157859083Y-90488099D01*
X157859308Y-90229302D01*
X157967149Y-90157245D01*
X158224562Y-89899832D01*
X158334683Y-89735025D01*
X158365692Y-89579131D01*
X158442339Y-89502617D01*
X158546234Y-89252412D01*
X158546291Y-89187095D01*
X158745015Y-89187268D01*
X158995402Y-89083811D01*
X159187137Y-88892409D01*
X159291032Y-88642204D01*
X159291268Y-88371285D01*
X159187811Y-88120898D01*
X158996409Y-87929163D01*
X158746204Y-87825268D01*
X158475285Y-87825032D01*
X158224898Y-87928489D01*
X158155116Y-87998150D01*
X157448970Y-87998150D01*
X156874010Y-87423190D01*
X156709203Y-87313069D01*
X156514800Y-87274400D01*
X152305620Y-87274400D01*
X151627931Y-86596711D01*
X151630787Y-86593859D01*
X151734682Y-86343654D01*
X151734918Y-86072735D01*
X151631461Y-85822348D01*
X151440059Y-85630613D01*
X151253874Y-85553302D01*
X151253874Y-84554563D01*
X151322861Y-84485696D01*
X151426756Y-84235491D01*
X151426992Y-83964572D01*
X151323535Y-83714185D01*
X151132133Y-83522450D01*
X150881928Y-83418555D01*
X150611009Y-83418319D01*
X150360622Y-83521776D01*
X150168887Y-83713178D01*
X150064992Y-83963383D01*
X150064948Y-84014287D01*
X149965736Y-84014201D01*
X149715349Y-84117658D01*
X149523614Y-84309060D01*
X149419719Y-84559265D01*
X149419483Y-84830184D01*
X149522940Y-85080571D01*
X149592601Y-85150353D01*
X149592601Y-86346601D01*
X149613036Y-86449337D01*
X146497488Y-83333790D01*
X146332681Y-83223669D01*
X146138278Y-83185000D01*
X145812611Y-83185000D01*
X145658309Y-83081898D01*
X145463906Y-83043229D01*
X145418040Y-83043229D01*
X145460882Y-82940054D01*
X145461118Y-82669135D01*
X145357661Y-82418748D01*
X145166259Y-82227013D01*
X144916054Y-82123118D01*
X144645135Y-82122882D01*
X144394748Y-82226339D01*
X144203013Y-82417741D01*
X144099118Y-82667946D01*
X144099032Y-82766548D01*
X143834197Y-83031383D01*
X143724076Y-83196190D01*
X143685407Y-83390593D01*
X143685407Y-83666294D01*
X143614585Y-83737116D01*
X143529083Y-83865078D01*
X143458736Y-83694823D01*
X143267334Y-83503088D01*
X143038605Y-83408110D01*
X142944661Y-83180748D01*
X142753259Y-82989013D01*
X142503054Y-82885118D01*
X142404727Y-82885032D01*
X142314864Y-82667545D01*
X142123462Y-82475810D01*
X141873257Y-82371915D01*
X141602338Y-82371679D01*
X141351951Y-82475136D01*
X141160216Y-82666538D01*
X141056321Y-82916743D01*
X141056085Y-83187662D01*
X141154276Y-83425303D01*
X139640789Y-84938791D01*
X139530668Y-85103598D01*
X139513000Y-85192424D01*
X139314748Y-85274339D01*
X139123013Y-85465741D01*
X139019118Y-85715946D01*
X139018882Y-85986865D01*
X139122339Y-86237252D01*
X139313741Y-86428987D01*
X139526973Y-86517529D01*
X139526882Y-86621865D01*
X139630339Y-86872252D01*
X139821741Y-87063987D01*
X140071946Y-87167882D01*
X140240716Y-87168029D01*
X140158118Y-87366946D01*
X140157882Y-87637865D01*
X140261339Y-87888252D01*
X140452741Y-88079987D01*
X140702946Y-88183882D01*
X140745001Y-88183919D01*
X140745001Y-90619001D01*
X139902896Y-90619001D01*
X139708493Y-90657670D01*
X139543686Y-90767790D01*
X139500258Y-90811218D01*
X139402781Y-90811133D01*
X139152394Y-90914590D01*
X139136178Y-90930777D01*
X139120692Y-90915264D01*
X138870487Y-90811369D01*
X138599568Y-90811133D01*
X138349181Y-90914590D01*
X138279399Y-90984251D01*
X138164749Y-90984251D01*
X137976799Y-90796301D01*
X137976799Y-88559899D01*
X138070116Y-88598648D01*
X138341035Y-88598884D01*
X138591422Y-88495427D01*
X138783157Y-88304025D01*
X138887052Y-88053820D01*
X138887288Y-87782901D01*
X138783831Y-87532514D01*
X138592429Y-87340779D01*
X138342224Y-87236884D01*
X138071305Y-87236648D01*
X137820918Y-87340105D01*
X137743479Y-87417410D01*
X137587502Y-87448435D01*
X137422696Y-87558556D01*
X137109589Y-87871663D01*
X136999468Y-88036470D01*
X136960799Y-88230873D01*
X136960799Y-91006721D01*
X136974672Y-91076465D01*
X131823307Y-91076465D01*
X131824501Y-91070461D01*
X131824501Y-88730919D01*
X132092019Y-88463401D01*
X134094258Y-88463401D01*
X134288661Y-88424732D01*
X134453468Y-88314611D01*
X136103389Y-86664690D01*
X136200867Y-86664775D01*
X136451254Y-86561318D01*
X136642989Y-86369916D01*
X136746884Y-86119711D01*
X136747120Y-85848792D01*
X136643663Y-85598405D01*
X136452261Y-85406670D01*
X136202056Y-85302775D01*
X135931137Y-85302539D01*
X135680750Y-85405996D01*
X135489015Y-85597398D01*
X135385120Y-85847603D01*
X135385034Y-85946205D01*
X133883838Y-87447401D01*
X132163203Y-87447401D01*
X133172673Y-86437931D01*
X133282794Y-86273124D01*
X133321463Y-86078721D01*
X133321463Y-85940442D01*
X133390450Y-85871575D01*
X133494345Y-85621370D01*
X133494581Y-85350451D01*
X133391124Y-85100064D01*
X133199722Y-84908329D01*
X132949517Y-84804434D01*
X132678598Y-84804198D01*
X132428211Y-84907655D01*
X132236476Y-85099057D01*
X132132581Y-85349262D01*
X132132345Y-85620181D01*
X132235802Y-85870568D01*
X132269470Y-85904294D01*
X132152079Y-86021685D01*
X131972974Y-85842268D01*
X131722769Y-85738373D01*
X131624167Y-85738287D01*
X129311400Y-83425520D01*
X129311400Y-79951764D01*
X129315165Y-79949248D01*
X129584960Y-79545471D01*
X129679700Y-79069183D01*
X129679700Y-79020417D01*
X129584960Y-78544129D01*
X129315165Y-78140352D01*
X129110202Y-78003400D01*
X129425010Y-78003400D01*
X129658399Y-77906727D01*
X129837027Y-77728098D01*
X129933700Y-77494709D01*
X129933700Y-76790550D01*
X129774950Y-76631800D01*
X128562100Y-76631800D01*
X128562100Y-76651800D01*
X128308100Y-76651800D01*
X128308100Y-76631800D01*
X127095250Y-76631800D01*
X126936500Y-76790550D01*
X126936500Y-77494709D01*
X127033173Y-77728098D01*
X127211801Y-77906727D01*
X127445190Y-78003400D01*
X127759998Y-78003400D01*
X127555035Y-78140352D01*
X127285240Y-78544129D01*
X127190500Y-79020417D01*
X127190500Y-79069183D01*
X127285240Y-79545471D01*
X127555035Y-79949248D01*
X127958812Y-80219043D01*
X128295400Y-80285995D01*
X128295400Y-83635940D01*
X128334069Y-83830343D01*
X128444190Y-83995150D01*
X129112038Y-84662998D01*
X128670460Y-84662998D01*
X128670601Y-84500716D01*
X128567144Y-84250329D01*
X128375742Y-84058594D01*
X128125537Y-83954699D01*
X127854618Y-83954463D01*
X127604231Y-84057920D01*
X127534449Y-84127581D01*
X127326409Y-84127581D01*
X127132005Y-84166250D01*
X126967199Y-84276371D01*
X125550217Y-85693353D01*
X125440096Y-85858160D01*
X125401427Y-86052563D01*
X125401427Y-86805278D01*
X125364448Y-86749935D01*
X124960671Y-86480140D01*
X124484383Y-86385400D01*
X124435617Y-86385400D01*
X123959329Y-86480140D01*
X123555552Y-86749935D01*
X123285757Y-87153712D01*
X123191017Y-87630000D01*
X123285757Y-88106288D01*
X123425749Y-88315801D01*
X123324221Y-88315801D01*
X123142811Y-88134391D01*
X123142809Y-88134388D01*
X123097639Y-88089218D01*
X123188983Y-87630000D01*
X123094243Y-87153712D01*
X122824448Y-86749935D01*
X122420671Y-86480140D01*
X121944383Y-86385400D01*
X121895617Y-86385400D01*
X121419329Y-86480140D01*
X121234199Y-86603840D01*
X121234199Y-86494221D01*
X121477074Y-86251346D01*
X121895617Y-86334600D01*
X121944383Y-86334600D01*
X122420671Y-86239860D01*
X122824448Y-85970065D01*
X123094243Y-85566288D01*
X123188983Y-85090000D01*
X123094243Y-84613712D01*
X122954251Y-84404199D01*
X123055779Y-84404199D01*
X123282362Y-84630782D01*
X123191017Y-85090000D01*
X123285757Y-85566288D01*
X123555552Y-85970065D01*
X123959329Y-86239860D01*
X124435617Y-86334600D01*
X124484383Y-86334600D01*
X124960671Y-86239860D01*
X125364448Y-85970065D01*
X125634243Y-85566288D01*
X125728983Y-85090000D01*
X125634243Y-84613712D01*
X125364448Y-84209935D01*
X124960671Y-83940140D01*
X124484383Y-83845400D01*
X124435617Y-83845400D01*
X124017074Y-83928654D01*
X123625409Y-83536989D01*
X123460602Y-83426868D01*
X123266199Y-83388199D01*
X122852422Y-83388199D01*
X123094243Y-83026288D01*
X123188983Y-82550000D01*
X123094243Y-82073712D01*
X122824448Y-81669935D01*
X122420671Y-81400140D01*
X121944383Y-81305400D01*
X121895617Y-81305400D01*
X121419329Y-81400140D01*
X121015552Y-81669935D01*
X120745757Y-82073712D01*
X120651017Y-82550000D01*
X120745757Y-83026288D01*
X121015552Y-83430065D01*
X121081669Y-83474243D01*
X120987764Y-83536989D01*
X119909779Y-84614975D01*
X119799658Y-84779782D01*
X119760989Y-84974185D01*
X119127000Y-84974185D01*
X119127000Y-78845399D01*
X119869097Y-78845399D01*
X119972554Y-79095786D01*
X120163956Y-79287521D01*
X120414161Y-79391416D01*
X120685080Y-79391652D01*
X120900020Y-79302841D01*
X120745757Y-79533712D01*
X120651017Y-80010000D01*
X120745757Y-80486288D01*
X121015552Y-80890065D01*
X121419329Y-81159860D01*
X121895617Y-81254600D01*
X121944383Y-81254600D01*
X122362925Y-81171346D01*
X122424388Y-81232809D01*
X122424391Y-81232811D01*
X122678391Y-81486811D01*
X122843197Y-81596932D01*
X123037601Y-81635601D01*
X123606936Y-81635601D01*
X123555552Y-81669935D01*
X123285757Y-82073712D01*
X123191017Y-82550000D01*
X123285757Y-83026288D01*
X123555552Y-83430065D01*
X123959329Y-83699860D01*
X124435617Y-83794600D01*
X124484383Y-83794600D01*
X124960671Y-83699860D01*
X125364448Y-83430065D01*
X125634243Y-83026288D01*
X125728983Y-82550000D01*
X125634243Y-82073712D01*
X125364448Y-81669935D01*
X125312482Y-81635213D01*
X125504932Y-81596932D01*
X125669739Y-81486811D01*
X125957517Y-81199033D01*
X125966140Y-81199041D01*
X125966140Y-82083436D01*
X125897153Y-82152303D01*
X125793258Y-82402508D01*
X125793022Y-82673427D01*
X125896479Y-82923814D01*
X126087881Y-83115549D01*
X126338086Y-83219444D01*
X126609005Y-83219680D01*
X126859392Y-83116223D01*
X127051127Y-82924821D01*
X127155022Y-82674616D01*
X127155258Y-82403697D01*
X127051801Y-82153310D01*
X126982140Y-82083528D01*
X126982140Y-80257314D01*
X126946471Y-80077993D01*
X126943471Y-80062910D01*
X126833350Y-79898104D01*
X125474268Y-78539022D01*
X125742688Y-78244947D01*
X125914958Y-77829026D01*
X125793817Y-77597000D01*
X124587000Y-77597000D01*
X124587000Y-77617000D01*
X124333000Y-77617000D01*
X124333000Y-77597000D01*
X124313000Y-77597000D01*
X124313000Y-77343000D01*
X124333000Y-77343000D01*
X124333000Y-77323000D01*
X124587000Y-77323000D01*
X124587000Y-77343000D01*
X125793817Y-77343000D01*
X125914958Y-77110974D01*
X125742688Y-76695053D01*
X125348490Y-76263179D01*
X124958338Y-76080324D01*
X124960671Y-76079860D01*
X125364448Y-75810065D01*
X125561676Y-75514891D01*
X126936500Y-75514891D01*
X126936500Y-76219050D01*
X127095250Y-76377800D01*
X128308100Y-76377800D01*
X128308100Y-75164950D01*
X128562100Y-75164950D01*
X128562100Y-76377800D01*
X129774950Y-76377800D01*
X129933700Y-76219050D01*
X129933700Y-75514891D01*
X129837027Y-75281502D01*
X129658399Y-75102873D01*
X129425010Y-75006200D01*
X128720850Y-75006200D01*
X128562100Y-75164950D01*
X128308100Y-75164950D01*
X128149350Y-75006200D01*
X127445190Y-75006200D01*
X127211801Y-75102873D01*
X127033173Y-75281502D01*
X126936500Y-75514891D01*
X125561676Y-75514891D01*
X125634243Y-75406288D01*
X125728983Y-74930000D01*
X125634243Y-74453712D01*
X125364448Y-74049935D01*
X124960671Y-73780140D01*
X124484383Y-73685400D01*
X124435617Y-73685400D01*
X123959329Y-73780140D01*
X123555552Y-74049935D01*
X123285757Y-74453712D01*
X123191017Y-74930000D01*
X123285757Y-75406288D01*
X123555552Y-75810065D01*
X123959329Y-76079860D01*
X123961662Y-76080324D01*
X123571510Y-76263179D01*
X123177312Y-76695053D01*
X123069159Y-76956172D01*
X122824448Y-76589935D01*
X122420671Y-76320140D01*
X121944383Y-76225400D01*
X121895617Y-76225400D01*
X121419329Y-76320140D01*
X121015552Y-76589935D01*
X120745757Y-76993712D01*
X120651017Y-77470000D01*
X120745757Y-77946288D01*
X120845691Y-78095850D01*
X120686269Y-78029652D01*
X120415350Y-78029416D01*
X120164963Y-78132873D01*
X119973228Y-78324275D01*
X119869333Y-78574480D01*
X119869097Y-78845399D01*
X119127000Y-78845399D01*
X119127000Y-74066400D01*
X120667936Y-74066400D01*
X120667936Y-75793600D01*
X120697506Y-75942259D01*
X120781714Y-76068286D01*
X120907741Y-76152494D01*
X121056400Y-76182064D01*
X122783600Y-76182064D01*
X122932259Y-76152494D01*
X123058286Y-76068286D01*
X123142494Y-75942259D01*
X123172064Y-75793600D01*
X123172064Y-74066400D01*
X123142494Y-73917741D01*
X123058286Y-73791714D01*
X122932259Y-73707506D01*
X122783600Y-73677936D01*
X121056400Y-73677936D01*
X120907741Y-73707506D01*
X120781714Y-73791714D01*
X120697506Y-73917741D01*
X120667936Y-74066400D01*
X119127000Y-74066400D01*
X119127000Y-73144367D01*
X127437274Y-73144367D01*
X127548327Y-73413137D01*
X127753781Y-73618950D01*
X127832687Y-73651715D01*
X128163485Y-73982513D01*
X128390094Y-74133929D01*
X128657399Y-74187099D01*
X132824643Y-74187099D01*
X132609148Y-74276139D01*
X132557480Y-74327717D01*
X132325203Y-74231267D01*
X132054284Y-74231031D01*
X131803897Y-74334488D01*
X131612162Y-74525890D01*
X131508267Y-74776095D01*
X131508031Y-75047014D01*
X131611488Y-75297401D01*
X131802890Y-75489136D01*
X132053095Y-75593031D01*
X132151697Y-75593117D01*
X133026387Y-76467807D01*
X133191194Y-76577928D01*
X133385597Y-76616597D01*
X135343287Y-76616597D01*
X135368434Y-76641744D01*
X135404213Y-76665651D01*
X134722098Y-77347767D01*
X134624620Y-77347682D01*
X134425505Y-77429954D01*
X134371259Y-77375613D01*
X134121054Y-77271718D01*
X133850135Y-77271482D01*
X133599748Y-77374939D01*
X133408013Y-77566341D01*
X133304118Y-77816546D01*
X133303882Y-78087465D01*
X133407339Y-78337852D01*
X133484644Y-78415291D01*
X133515669Y-78571267D01*
X133625790Y-78736074D01*
X133997353Y-79107637D01*
X132893980Y-80211010D01*
X132783859Y-80375817D01*
X132745190Y-80570220D01*
X132745190Y-81173373D01*
X132676203Y-81242240D01*
X132572308Y-81492445D01*
X132572072Y-81763364D01*
X132675529Y-82013751D01*
X132866931Y-82205486D01*
X133042207Y-82278267D01*
X132398886Y-82921588D01*
X132349268Y-82995846D01*
X132315813Y-83029243D01*
X132297525Y-83073284D01*
X132247470Y-83148197D01*
X132230047Y-83235789D01*
X132211918Y-83279448D01*
X132211876Y-83327139D01*
X132194300Y-83415502D01*
X132211723Y-83503095D01*
X132211682Y-83550367D01*
X132229893Y-83594442D01*
X132247470Y-83682807D01*
X132297086Y-83757063D01*
X132315139Y-83800754D01*
X132348833Y-83834506D01*
X132398886Y-83909416D01*
X132473144Y-83959034D01*
X132506541Y-83992489D01*
X132550582Y-84010777D01*
X132625495Y-84060832D01*
X132713087Y-84078255D01*
X132756746Y-84096384D01*
X132804437Y-84096426D01*
X132892800Y-84114002D01*
X132980393Y-84096579D01*
X133027665Y-84096620D01*
X133071740Y-84078409D01*
X133160105Y-84060832D01*
X133234361Y-84011216D01*
X133278052Y-83993163D01*
X133311804Y-83959469D01*
X133386714Y-83909416D01*
X134555114Y-82741016D01*
X134706530Y-82514407D01*
X134759700Y-82247102D01*
X134759700Y-81206628D01*
X136153928Y-79812400D01*
X137194402Y-79812400D01*
X137461707Y-79759230D01*
X137688316Y-79607814D01*
X137971029Y-79325101D01*
X142022828Y-79325101D01*
X142036800Y-79322322D01*
X142036800Y-80416400D01*
X142075469Y-80610803D01*
X142185590Y-80775610D01*
X142541190Y-81131210D01*
X142705996Y-81241331D01*
X142715629Y-81243247D01*
X142900400Y-81280000D01*
X143371525Y-81280000D01*
X143565928Y-81241331D01*
X143730735Y-81131210D01*
X144209959Y-80651986D01*
X144320080Y-80487180D01*
X144351089Y-80331285D01*
X144427736Y-80254771D01*
X144531631Y-80004566D01*
X144531867Y-79733647D01*
X144428410Y-79483260D01*
X144358749Y-79413478D01*
X144358749Y-79077234D01*
X144669892Y-78766091D01*
X146837400Y-78766091D01*
X146837400Y-78924150D01*
X146975980Y-79062730D01*
X146879191Y-79215512D01*
X146955857Y-79377193D01*
X146837400Y-79495650D01*
X146837400Y-79653709D01*
X146934073Y-79887098D01*
X147083936Y-80036962D01*
X147083936Y-80341347D01*
X147069007Y-80416400D01*
X147146345Y-80805206D01*
X147366587Y-81134820D01*
X147696201Y-81355062D01*
X148085007Y-81432400D01*
X148160728Y-81432400D01*
X148160531Y-81658855D01*
X148263988Y-81909242D01*
X148455390Y-82100977D01*
X148705595Y-82204872D01*
X148804197Y-82204958D01*
X148843250Y-82244011D01*
X149008056Y-82354132D01*
X149202460Y-82392801D01*
X152512537Y-82392801D01*
X152706940Y-82354132D01*
X152871747Y-82244011D01*
X153042227Y-82073531D01*
X155721269Y-82073531D01*
X155915672Y-82034862D01*
X156080479Y-81924741D01*
X156213610Y-81791610D01*
X156323731Y-81626803D01*
X156362400Y-81432400D01*
X156362400Y-81361069D01*
X156392599Y-81355062D01*
X156722213Y-81134820D01*
X156942455Y-80805206D01*
X157019793Y-80416400D01*
X157004864Y-80341347D01*
X157004864Y-80036962D01*
X157154727Y-79887098D01*
X157251400Y-79653709D01*
X157251400Y-79495650D01*
X157132943Y-79377193D01*
X157209609Y-79215512D01*
X157112820Y-79062730D01*
X157251400Y-78924150D01*
X157251400Y-78766091D01*
X157185588Y-78607206D01*
X157209609Y-78569288D01*
X157008851Y-78145913D01*
X156644973Y-77809547D01*
X156180072Y-77638036D01*
X155981400Y-77781150D01*
X155981400Y-79039400D01*
X155727400Y-79039400D01*
X155727400Y-77781150D01*
X155528728Y-77638036D01*
X155063827Y-77809547D01*
X154699949Y-78145913D01*
X154584400Y-78389592D01*
X154468851Y-78145913D01*
X154104973Y-77809547D01*
X153640072Y-77638036D01*
X153441400Y-77781150D01*
X153441400Y-79039400D01*
X153187400Y-79039400D01*
X153187400Y-77781150D01*
X152988728Y-77638036D01*
X152523827Y-77809547D01*
X152159949Y-78145913D01*
X152044400Y-78389592D01*
X151928851Y-78145913D01*
X151564973Y-77809547D01*
X151100072Y-77638036D01*
X150901400Y-77781150D01*
X150901400Y-79039400D01*
X150647400Y-79039400D01*
X150647400Y-77781150D01*
X150448728Y-77638036D01*
X149983827Y-77809547D01*
X149619949Y-78145913D01*
X149504400Y-78389592D01*
X149388851Y-78145913D01*
X149024973Y-77809547D01*
X148560072Y-77638036D01*
X148361400Y-77781150D01*
X148361400Y-79039400D01*
X148107400Y-79039400D01*
X148107400Y-77781150D01*
X147908728Y-77638036D01*
X147443827Y-77809547D01*
X147079949Y-78145913D01*
X146879191Y-78569288D01*
X146903212Y-78607206D01*
X146837400Y-78766091D01*
X144669892Y-78766091D01*
X145604334Y-77831650D01*
X145714454Y-77666843D01*
X145753123Y-77472440D01*
X145753123Y-76299544D01*
X146655711Y-77202132D01*
X146713726Y-77240896D01*
X146820519Y-77312253D01*
X147014922Y-77350922D01*
X148478709Y-77350922D01*
X148547576Y-77419909D01*
X148797781Y-77523804D01*
X149068700Y-77524040D01*
X149319087Y-77420583D01*
X149510822Y-77229181D01*
X149614717Y-76978976D01*
X149614953Y-76708057D01*
X149511496Y-76457670D01*
X149320094Y-76265935D01*
X149069889Y-76162040D01*
X148798970Y-76161804D01*
X148548583Y-76265261D01*
X148478801Y-76334922D01*
X147225343Y-76334922D01*
X144702821Y-73812400D01*
X145463831Y-73812400D01*
X145570171Y-74347009D01*
X145873003Y-74800228D01*
X146326222Y-75103060D01*
X146860831Y-75209400D01*
X146915569Y-75209400D01*
X147450178Y-75103060D01*
X147903397Y-74800228D01*
X148206229Y-74347009D01*
X148312569Y-73812400D01*
X148206229Y-73277791D01*
X147903397Y-72824572D01*
X147682337Y-72676864D01*
X147904200Y-72676864D01*
X148052859Y-72647294D01*
X148178886Y-72563086D01*
X148263094Y-72437059D01*
X148292664Y-72288400D01*
X148292664Y-70256400D01*
X148263094Y-70107741D01*
X148178886Y-69981714D01*
X148052859Y-69897506D01*
X147904200Y-69867936D01*
X145872200Y-69867936D01*
X145723541Y-69897506D01*
X145597514Y-69981714D01*
X145513306Y-70107741D01*
X145483736Y-70256400D01*
X145483736Y-72288400D01*
X145513306Y-72437059D01*
X145597514Y-72563086D01*
X145723541Y-72647294D01*
X145872200Y-72676864D01*
X146094063Y-72676864D01*
X145873003Y-72824572D01*
X145570171Y-73277791D01*
X145463831Y-73812400D01*
X144702821Y-73812400D01*
X143192412Y-72301991D01*
X143273686Y-72247686D01*
X143357894Y-72121659D01*
X143387464Y-71973000D01*
X143387464Y-69773000D01*
X143357894Y-69624341D01*
X143273686Y-69498314D01*
X143147659Y-69414106D01*
X142999000Y-69384536D01*
X141799000Y-69384536D01*
X141726999Y-69398858D01*
X141722332Y-69375396D01*
X141612211Y-69210589D01*
X141561411Y-69159789D01*
X141396604Y-69049668D01*
X141202201Y-69010999D01*
X139253001Y-69010999D01*
X139098588Y-69041714D01*
X139114635Y-69017697D01*
X139183600Y-68670986D01*
X139183600Y-67819814D01*
X144521600Y-67819814D01*
X144521600Y-68670986D01*
X144590565Y-69017697D01*
X144786961Y-69311625D01*
X145080889Y-69508021D01*
X145427600Y-69576986D01*
X145774311Y-69508021D01*
X146068239Y-69311625D01*
X146264635Y-69017697D01*
X146333600Y-68670986D01*
X146333600Y-67819814D01*
X146307881Y-67690513D01*
X162829674Y-67690513D01*
X163115436Y-68382109D01*
X163644108Y-68911704D01*
X164335204Y-69198673D01*
X165083513Y-69199326D01*
X165775109Y-68913564D01*
X166304704Y-68384892D01*
X166591673Y-67693796D01*
X166592326Y-66945487D01*
X166306564Y-66253891D01*
X165777892Y-65724296D01*
X165086796Y-65437327D01*
X164338487Y-65436674D01*
X163646891Y-65722436D01*
X163117296Y-66251108D01*
X162830327Y-66942204D01*
X162829674Y-67690513D01*
X146307881Y-67690513D01*
X146264635Y-67473103D01*
X146068239Y-67179175D01*
X145774311Y-66982779D01*
X145427600Y-66913814D01*
X145080889Y-66982779D01*
X144786961Y-67179175D01*
X144590565Y-67473103D01*
X144521600Y-67819814D01*
X139183600Y-67819814D01*
X139114635Y-67473103D01*
X138918239Y-67179175D01*
X138740204Y-67060216D01*
X139146478Y-67060216D01*
X139253734Y-67319794D01*
X139452161Y-67518568D01*
X139711552Y-67626277D01*
X139992416Y-67626522D01*
X140251994Y-67519266D01*
X140450768Y-67320839D01*
X140558477Y-67061448D01*
X140558478Y-67060216D01*
X143146478Y-67060216D01*
X143253734Y-67319794D01*
X143452161Y-67518568D01*
X143711552Y-67626277D01*
X143992416Y-67626522D01*
X144251994Y-67519266D01*
X144450768Y-67320839D01*
X144558477Y-67061448D01*
X144558722Y-66780584D01*
X144451466Y-66521006D01*
X144253039Y-66322232D01*
X143993648Y-66214523D01*
X143712784Y-66214278D01*
X143453206Y-66321534D01*
X143254432Y-66519961D01*
X143146723Y-66779352D01*
X143146478Y-67060216D01*
X140558478Y-67060216D01*
X140558722Y-66780584D01*
X140451466Y-66521006D01*
X140253039Y-66322232D01*
X139993648Y-66214523D01*
X139712784Y-66214278D01*
X139453206Y-66321534D01*
X139254432Y-66519961D01*
X139146723Y-66779352D01*
X139146478Y-67060216D01*
X138740204Y-67060216D01*
X138624311Y-66982779D01*
X138277600Y-66913814D01*
X137930889Y-66982779D01*
X137636961Y-67179175D01*
X137440565Y-67473103D01*
X137371600Y-67819814D01*
X137371600Y-68670986D01*
X137440565Y-69017697D01*
X137636961Y-69311625D01*
X137758220Y-69392648D01*
X137650341Y-69414106D01*
X137524314Y-69498314D01*
X137440106Y-69624341D01*
X137410536Y-69773000D01*
X137410536Y-71300761D01*
X137387464Y-71296172D01*
X137387464Y-69773000D01*
X137357894Y-69624341D01*
X137273686Y-69498314D01*
X137147659Y-69414106D01*
X136999000Y-69384536D01*
X135799000Y-69384536D01*
X135650341Y-69414106D01*
X135562086Y-69473076D01*
X135537327Y-69413302D01*
X135358699Y-69234673D01*
X135125310Y-69138000D01*
X134684750Y-69138000D01*
X134526000Y-69296750D01*
X134526000Y-70746000D01*
X134546000Y-70746000D01*
X134546000Y-71000000D01*
X134526000Y-71000000D01*
X134526000Y-72449250D01*
X134684750Y-72608000D01*
X135125310Y-72608000D01*
X135358699Y-72511327D01*
X135537327Y-72332698D01*
X135562086Y-72272924D01*
X135650341Y-72331894D01*
X135799000Y-72361464D01*
X136555136Y-72361464D01*
X136479118Y-72544535D01*
X136478904Y-72790099D01*
X128946727Y-72790099D01*
X128820709Y-72664081D01*
X128788473Y-72586063D01*
X128583019Y-72380250D01*
X128314443Y-72268727D01*
X128023633Y-72268474D01*
X127754863Y-72379527D01*
X127549050Y-72584981D01*
X127437527Y-72853557D01*
X127437274Y-73144367D01*
X119127000Y-73144367D01*
X119127000Y-71158750D01*
X129164000Y-71158750D01*
X129164000Y-72099309D01*
X129260673Y-72332698D01*
X129439301Y-72511327D01*
X129672690Y-72608000D01*
X130113250Y-72608000D01*
X130272000Y-72449250D01*
X130272000Y-71000000D01*
X129322750Y-71000000D01*
X129164000Y-71158750D01*
X119127000Y-71158750D01*
X119127000Y-68057091D01*
X119219808Y-67590513D01*
X120327674Y-67590513D01*
X120613436Y-68282109D01*
X121142108Y-68811704D01*
X121833204Y-69098673D01*
X122581513Y-69099326D01*
X123273109Y-68813564D01*
X123377911Y-68708944D01*
X125521025Y-68708944D01*
X125720615Y-69190818D01*
X126158621Y-69663188D01*
X126744054Y-69931983D01*
X127000000Y-69813367D01*
X127000000Y-68453000D01*
X127254000Y-68453000D01*
X127254000Y-69813367D01*
X127509946Y-69931983D01*
X128095379Y-69663188D01*
X128110675Y-69646691D01*
X129164000Y-69646691D01*
X129164000Y-70587250D01*
X129322750Y-70746000D01*
X130272000Y-70746000D01*
X130272000Y-69296750D01*
X130113250Y-69138000D01*
X129672690Y-69138000D01*
X129439301Y-69234673D01*
X129260673Y-69413302D01*
X129164000Y-69646691D01*
X128110675Y-69646691D01*
X128533385Y-69190818D01*
X128732975Y-68708944D01*
X128613836Y-68453000D01*
X127254000Y-68453000D01*
X127000000Y-68453000D01*
X125640164Y-68453000D01*
X125521025Y-68708944D01*
X123377911Y-68708944D01*
X123802704Y-68284892D01*
X123944647Y-67943056D01*
X125521025Y-67943056D01*
X125640164Y-68199000D01*
X127000000Y-68199000D01*
X127000000Y-68179000D01*
X127254000Y-68179000D01*
X127254000Y-68199000D01*
X128613836Y-68199000D01*
X128732975Y-67943056D01*
X128533385Y-67461182D01*
X128260660Y-67167060D01*
X128291659Y-67160894D01*
X128417686Y-67076686D01*
X128501894Y-66950659D01*
X128531464Y-66802000D01*
X128531464Y-66369884D01*
X131605588Y-69444008D01*
X131562086Y-69473076D01*
X131537327Y-69413302D01*
X131358699Y-69234673D01*
X131125310Y-69138000D01*
X130684750Y-69138000D01*
X130526000Y-69296750D01*
X130526000Y-70746000D01*
X130546000Y-70746000D01*
X130546000Y-71000000D01*
X130526000Y-71000000D01*
X130526000Y-72449250D01*
X130684750Y-72608000D01*
X131125310Y-72608000D01*
X131358699Y-72511327D01*
X131537327Y-72332698D01*
X131562086Y-72272924D01*
X131650341Y-72331894D01*
X131799000Y-72361464D01*
X132999000Y-72361464D01*
X133147659Y-72331894D01*
X133235914Y-72272924D01*
X133260673Y-72332698D01*
X133439301Y-72511327D01*
X133672690Y-72608000D01*
X134113250Y-72608000D01*
X134272000Y-72449250D01*
X134272000Y-71000000D01*
X134252000Y-71000000D01*
X134252000Y-70746000D01*
X134272000Y-70746000D01*
X134272000Y-69296750D01*
X134113250Y-69138000D01*
X133672690Y-69138000D01*
X133439301Y-69234673D01*
X133260673Y-69413302D01*
X133235914Y-69473076D01*
X133147659Y-69414106D01*
X132999000Y-69384536D01*
X132880254Y-69384536D01*
X132868331Y-69324597D01*
X132868331Y-69324596D01*
X132758210Y-69159790D01*
X129025210Y-65426790D01*
X128860403Y-65316669D01*
X128666000Y-65278000D01*
X128531464Y-65278000D01*
X128531464Y-64770000D01*
X128501894Y-64621341D01*
X128417686Y-64495314D01*
X128291659Y-64411106D01*
X128143000Y-64381536D01*
X126111000Y-64381536D01*
X125962341Y-64411106D01*
X125836314Y-64495314D01*
X125752106Y-64621341D01*
X125722536Y-64770000D01*
X125722536Y-66802000D01*
X125752106Y-66950659D01*
X125836314Y-67076686D01*
X125962341Y-67160894D01*
X125993340Y-67167060D01*
X125720615Y-67461182D01*
X125521025Y-67943056D01*
X123944647Y-67943056D01*
X124089673Y-67593796D01*
X124090326Y-66845487D01*
X123804564Y-66153891D01*
X123275892Y-65624296D01*
X122584796Y-65337327D01*
X121836487Y-65336674D01*
X121144891Y-65622436D01*
X120615296Y-66151108D01*
X120328327Y-66842204D01*
X120327674Y-67590513D01*
X119219808Y-67590513D01*
X119324656Y-67063409D01*
X120421647Y-65421647D01*
X122063409Y-64324656D01*
X123057091Y-64127000D01*
X137419899Y-64127000D01*
X137371600Y-64369814D01*
M02*
