M48
;DRILL file {KiCad no-vcs-found-7406~56~ubuntu16.10.1} date Fri Dec 23 22:43:12 2016
;FORMAT={-:-/ absolute / metric / decimal}
FMAT,2
METRIC,TZ
T1C0.300
T2C0.400
T3C0.450
T4C0.500
T5C0.600
T6C1.016
T7C3.000
T8C0.650
T9C1.000
%
G90
G05
M71
T1
X133.7Y-89.6
X136.2Y-89.4
T2
X120.193Y-96.266
X120.55Y-78.711
X120.739Y-94.196
X120.828Y-96.749
X123.139Y-94.488
X125.667Y-87.07
X125.92Y-80.518
X126.188Y-99.386
X126.418Y-87.117
X126.543Y-86.011
X126.688Y-87.832
X126.873Y-83.541
X126.898Y-82.539
X126.986Y-86.624
X127.019Y-88.936
X127.646Y-85.692
X127.989Y-84.017
X128.253Y-93.934
X128.354Y-74.274
X128.741Y-89.958
X128.743Y-89.956
X128.916Y-89.108
X129.022Y-97.363
X129.235Y-85.877
X129.387Y-87.136
X130.019Y-86.144
X130.495Y-87.228
X130.686Y-94.278
X130.835Y-91.364
X131.206Y-86.98
X131.483Y-101.295
X131.521Y-64.643
X131.712Y-93.512
X131.863Y-85.918
X132.073Y-100.597
X132.461Y-86.436
X132.867Y-93.455
X133.006Y-74.852
X133.096Y-80.95
X133.686Y-84.946
X133.831Y-74.811
X133.983Y-77.95
X134.102Y-96.947
X134.782Y-78.031
X134.849Y-74.905
X134.917Y-95.573
X135.033Y-90.639
X135.265Y-99.939
X135.636Y-93.455
X136.019Y-99.491
X136.154Y-90.622
X136.309Y-85.941
X136.322Y-83.515
X136.364Y-94.951
X137.173Y-72.669
X137.419Y-95.697
X138.206Y-87.494
X138.426Y-91.23
X138.448Y-91.982
X138.823Y-76.863
X139.304Y-102.53
X139.4Y-77.349
X139.576Y-91.732
X139.729Y-76.17
X139.941Y-68.237
X139.957Y-87.867
X140.Y-86.4
X140.095Y-96.046
X140.394Y-75.819
X140.839Y-87.503
X140.934Y-91.706
X140.995Y-76.454
X141.067Y-96.675
X141.748Y-76.454
X141.776Y-77.302
X142.03Y-94.47
X142.356Y-92.518
X142.621Y-88.185
X142.815Y-83.399
X142.856Y-76.658
X142.954Y-92.062
X143.068Y-104.978
X143.099Y-80.124
X143.394Y-75.93
X143.428Y-84.453
X143.525Y-86.211
X143.587Y-83.375
X143.764Y-76.81
X143.851Y-79.869
X143.861Y-94.342
X143.891Y-91.506
X144.27Y-86.313
X144.397Y-87.555
X144.485Y-106.055
X144.494Y-85.193
X144.535Y-84.152
X144.759Y-82.614
X144.806Y-83.45
X145.012Y-91.544
X145.066Y-84.685
X145.077Y-86.631
X145.171Y-93.106
X145.313Y-94.056
X145.993Y-108.449
X146.054Y-90.218
X146.812Y-77.597
X147.127Y-89.459
X147.523Y-105.156
X147.726Y-68.834
X147.977Y-88.905
X148.097Y-95.664
X148.476Y-87.254
X148.5Y-80.5
X148.5Y-81.4
X148.755Y-76.987
X149.403Y-84.226
X149.7Y-81.
X149.977Y-102.682
X150.016Y-87.173
X150.101Y-84.695
X150.165Y-92.088
X150.746Y-84.099
X151.054Y-86.208
X151.155Y-87.478
X151.818Y-100.843
X151.956Y-106.68
X154.Y-90.576
X154.058Y-93.245
X154.389Y-107.421
X154.94Y-98.938
X155.105Y-92.939
X155.194Y-103.886
X155.27Y-89.764
X156.134Y-85.006
X157.14Y-89.244
X157.409Y-95.091
X157.518Y-90.449
X158.14Y-89.332
X158.61Y-88.506
X159.664Y-97.841
X163.322Y-102.997
X163.449Y-89.662
T4
X128.168Y-73.
T5
X127.368Y-110.274
X129.591Y-96.545
X130.6Y-83.4
X132.221Y-76.921
X132.524Y-83.452
X135.865Y-79.114
X136.965Y-74.484
X137.247Y-99.183
X137.87Y-79.981
X139.421Y-74.422
X140.183Y-73.609
X140.487Y-106.312
X141.199Y-98.12
X142.692Y-102.189
X144.272Y-72.581
X145.367Y-78.641
X152.092Y-98.282
T6
X121.92Y-74.93
X121.92Y-77.47
X121.92Y-80.01
X121.92Y-82.55
X121.92Y-85.09
X121.92Y-87.63
X121.92Y-90.17
X121.92Y-92.71
X121.92Y-95.25
X121.92Y-97.79
X121.92Y-100.33
X124.46Y-74.93
X124.46Y-77.47
X124.46Y-80.01
X124.46Y-82.55
X124.46Y-85.09
X124.46Y-87.63
X124.46Y-90.17
X124.46Y-92.71
X124.46Y-95.25
X124.46Y-97.79
X124.46Y-100.33
X126.746Y-103.378
X126.746Y-105.918
X128.346Y-76.53
X128.346Y-79.07
X129.286Y-103.378
X129.286Y-105.918
X131.826Y-103.378
X131.826Y-105.918
X132.385Y-68.402
X134.366Y-103.378
X134.366Y-105.918
X134.925Y-68.402
X146.888Y-71.196
X146.888Y-73.736
X148.742Y-91.008
X148.742Y-93.548
X150.622Y-107.95
X150.622Y-110.49
X153.162Y-107.95
X153.162Y-110.49
X155.702Y-107.95
X155.702Y-110.49
X158.242Y-107.95
X158.242Y-110.49
X160.782Y-107.95
X160.782Y-110.49
T7
X122.209Y-67.218
X122.209Y-109.656
X164.711Y-67.318
X164.711Y-109.656
T8
X139.853Y-66.92
X143.853Y-66.92
T9
X163.982Y-93.216
X163.982Y-101.196
T3
X138.278Y-65.195G85X138.278Y-64.395
G05
X138.278Y-68.645G85X138.278Y-67.845
G05
X145.428Y-65.195G85X145.428Y-64.395
G05
X145.428Y-68.645G85X145.428Y-67.845
G05
T0
M30
