G04 #@! TF.FileFunction,Legend,Bot*
%FSLAX46Y46*%
G04 Gerber Fmt 4.6, Leading zero omitted, Abs format (unit mm)*
G04 Created by KiCad (PCBNEW 4.1.0-alpha+201606220817+6945~45~ubuntu16.04.1-product) date Mon Jul  4 22:35:37 2016*
%MOMM*%
%LPD*%
G01*
G04 APERTURE LIST*
%ADD10C,0.100000*%
%ADD11C,0.150000*%
%ADD12C,0.010000*%
%ADD13C,0.160000*%
%ADD14R,1.200000X2.200000*%
%ADD15R,2.032000X2.032000*%
%ADD16O,2.032000X2.032000*%
%ADD17O,1.727200X1.727200*%
%ADD18R,1.727200X1.727200*%
%ADD19O,1.050000X1.850000*%
%ADD20C,0.650000*%
%ADD21C,1.524000*%
%ADD22C,1.000000*%
%ADD23R,1.270000X0.600000*%
%ADD24O,1.270000X1.270000*%
G04 APERTURE END LIST*
D10*
D11*
X163819552Y-72760342D02*
X163867171Y-72807961D01*
X164010028Y-72855580D01*
X164105266Y-72855580D01*
X164248123Y-72807961D01*
X164343361Y-72712723D01*
X164390980Y-72617485D01*
X164438600Y-72427009D01*
X164438600Y-72284152D01*
X164390980Y-72093676D01*
X164343361Y-71998438D01*
X164248123Y-71903200D01*
X164105266Y-71855580D01*
X164010028Y-71855580D01*
X163867171Y-71903200D01*
X163819552Y-71950819D01*
X162962409Y-72188914D02*
X162962409Y-72855580D01*
X163390980Y-72188914D02*
X163390980Y-72712723D01*
X163343361Y-72807961D01*
X163248123Y-72855580D01*
X163105266Y-72855580D01*
X163010028Y-72807961D01*
X162962409Y-72760342D01*
X162629076Y-72188914D02*
X162248123Y-72188914D01*
X162486219Y-71855580D02*
X162486219Y-72712723D01*
X162438600Y-72807961D01*
X162343361Y-72855580D01*
X162248123Y-72855580D01*
X161295742Y-72188914D02*
X160914790Y-72188914D01*
X161152885Y-71855580D02*
X161152885Y-72712723D01*
X161105266Y-72807961D01*
X161010028Y-72855580D01*
X160914790Y-72855580D01*
X160438600Y-72855580D02*
X160533838Y-72807961D01*
X160581457Y-72760342D01*
X160629076Y-72665104D01*
X160629076Y-72379390D01*
X160581457Y-72284152D01*
X160533838Y-72236533D01*
X160438600Y-72188914D01*
X160295742Y-72188914D01*
X160200504Y-72236533D01*
X160152885Y-72284152D01*
X160105266Y-72379390D01*
X160105266Y-72665104D01*
X160152885Y-72760342D01*
X160200504Y-72807961D01*
X160295742Y-72855580D01*
X160438600Y-72855580D01*
X158486219Y-72855580D02*
X158486219Y-71855580D01*
X158486219Y-72807961D02*
X158581457Y-72855580D01*
X158771933Y-72855580D01*
X158867171Y-72807961D01*
X158914790Y-72760342D01*
X158962409Y-72665104D01*
X158962409Y-72379390D01*
X158914790Y-72284152D01*
X158867171Y-72236533D01*
X158771933Y-72188914D01*
X158581457Y-72188914D01*
X158486219Y-72236533D01*
X158010028Y-72855580D02*
X158010028Y-72188914D01*
X158010028Y-71855580D02*
X158057647Y-71903200D01*
X158010028Y-71950819D01*
X157962409Y-71903200D01*
X158010028Y-71855580D01*
X158010028Y-71950819D01*
X157581457Y-72807961D02*
X157486219Y-72855580D01*
X157295742Y-72855580D01*
X157200504Y-72807961D01*
X157152885Y-72712723D01*
X157152885Y-72665104D01*
X157200504Y-72569866D01*
X157295742Y-72522247D01*
X157438600Y-72522247D01*
X157533838Y-72474628D01*
X157581457Y-72379390D01*
X157581457Y-72331771D01*
X157533838Y-72236533D01*
X157438600Y-72188914D01*
X157295742Y-72188914D01*
X157200504Y-72236533D01*
X156295742Y-72855580D02*
X156295742Y-72331771D01*
X156343361Y-72236533D01*
X156438600Y-72188914D01*
X156629076Y-72188914D01*
X156724314Y-72236533D01*
X156295742Y-72807961D02*
X156390980Y-72855580D01*
X156629076Y-72855580D01*
X156724314Y-72807961D01*
X156771933Y-72712723D01*
X156771933Y-72617485D01*
X156724314Y-72522247D01*
X156629076Y-72474628D01*
X156390980Y-72474628D01*
X156295742Y-72427009D01*
X155819552Y-72855580D02*
X155819552Y-71855580D01*
X155819552Y-72236533D02*
X155724314Y-72188914D01*
X155533838Y-72188914D01*
X155438600Y-72236533D01*
X155390980Y-72284152D01*
X155343361Y-72379390D01*
X155343361Y-72665104D01*
X155390980Y-72760342D01*
X155438600Y-72807961D01*
X155533838Y-72855580D01*
X155724314Y-72855580D01*
X155819552Y-72807961D01*
X154771933Y-72855580D02*
X154867171Y-72807961D01*
X154914790Y-72712723D01*
X154914790Y-71855580D01*
X154010028Y-72807961D02*
X154105266Y-72855580D01*
X154295742Y-72855580D01*
X154390980Y-72807961D01*
X154438600Y-72712723D01*
X154438600Y-72331771D01*
X154390980Y-72236533D01*
X154295742Y-72188914D01*
X154105266Y-72188914D01*
X154010028Y-72236533D01*
X153962409Y-72331771D01*
X153962409Y-72427009D01*
X154438600Y-72522247D01*
X150486219Y-72474628D02*
X149724314Y-72474628D01*
X149248123Y-72188914D02*
X148486219Y-72474628D01*
X149248123Y-72760342D01*
X162200504Y-73838914D02*
X162200504Y-74838914D01*
X162200504Y-73886533D02*
X162105266Y-73838914D01*
X161914790Y-73838914D01*
X161819552Y-73886533D01*
X161771933Y-73934152D01*
X161724314Y-74029390D01*
X161724314Y-74315104D01*
X161771933Y-74410342D01*
X161819552Y-74457961D01*
X161914790Y-74505580D01*
X162105266Y-74505580D01*
X162200504Y-74457961D01*
X161152885Y-74505580D02*
X161248123Y-74457961D01*
X161295742Y-74410342D01*
X161343361Y-74315104D01*
X161343361Y-74029390D01*
X161295742Y-73934152D01*
X161248123Y-73886533D01*
X161152885Y-73838914D01*
X161010028Y-73838914D01*
X160914790Y-73886533D01*
X160867171Y-73934152D01*
X160819552Y-74029390D01*
X160819552Y-74315104D01*
X160867171Y-74410342D01*
X160914790Y-74457961D01*
X161010028Y-74505580D01*
X161152885Y-74505580D01*
X160486219Y-73838914D02*
X160295742Y-74505580D01*
X160105266Y-74029390D01*
X159914790Y-74505580D01*
X159724314Y-73838914D01*
X158962409Y-74457961D02*
X159057647Y-74505580D01*
X159248123Y-74505580D01*
X159343361Y-74457961D01*
X159390980Y-74362723D01*
X159390980Y-73981771D01*
X159343361Y-73886533D01*
X159248123Y-73838914D01*
X159057647Y-73838914D01*
X158962409Y-73886533D01*
X158914790Y-73981771D01*
X158914790Y-74077009D01*
X159390980Y-74172247D01*
X158486219Y-74505580D02*
X158486219Y-73838914D01*
X158486219Y-74029390D02*
X158438600Y-73934152D01*
X158390980Y-73886533D01*
X158295742Y-73838914D01*
X158200504Y-73838914D01*
X156962409Y-74505580D02*
X157057647Y-74457961D01*
X157105266Y-74410342D01*
X157152885Y-74315104D01*
X157152885Y-74029390D01*
X157105266Y-73934152D01*
X157057647Y-73886533D01*
X156962409Y-73838914D01*
X156819552Y-73838914D01*
X156724314Y-73886533D01*
X156676695Y-73934152D01*
X156629076Y-74029390D01*
X156629076Y-74315104D01*
X156676695Y-74410342D01*
X156724314Y-74457961D01*
X156819552Y-74505580D01*
X156962409Y-74505580D01*
X156295742Y-73838914D02*
X156057647Y-74505580D01*
X155819552Y-73838914D01*
X155057647Y-74457961D02*
X155152885Y-74505580D01*
X155343361Y-74505580D01*
X155438600Y-74457961D01*
X155486219Y-74362723D01*
X155486219Y-73981771D01*
X155438600Y-73886533D01*
X155343361Y-73838914D01*
X155152885Y-73838914D01*
X155057647Y-73886533D01*
X155010028Y-73981771D01*
X155010028Y-74077009D01*
X155486219Y-74172247D01*
X154581457Y-74505580D02*
X154581457Y-73838914D01*
X154581457Y-74029390D02*
X154533838Y-73934152D01*
X154486219Y-73886533D01*
X154390980Y-73838914D01*
X154295742Y-73838914D01*
X153200504Y-73505580D02*
X153200504Y-74315104D01*
X153152885Y-74410342D01*
X153105266Y-74457961D01*
X153010028Y-74505580D01*
X152819552Y-74505580D01*
X152724314Y-74457961D01*
X152676695Y-74410342D01*
X152629076Y-74315104D01*
X152629076Y-73505580D01*
X152200504Y-74457961D02*
X152057647Y-74505580D01*
X151819552Y-74505580D01*
X151724314Y-74457961D01*
X151676695Y-74410342D01*
X151629076Y-74315104D01*
X151629076Y-74219866D01*
X151676695Y-74124628D01*
X151724314Y-74077009D01*
X151819552Y-74029390D01*
X152010028Y-73981771D01*
X152105266Y-73934152D01*
X152152885Y-73886533D01*
X152200504Y-73791295D01*
X152200504Y-73696057D01*
X152152885Y-73600819D01*
X152105266Y-73553200D01*
X152010028Y-73505580D01*
X151771933Y-73505580D01*
X151629076Y-73553200D01*
X150867171Y-73981771D02*
X150724314Y-74029390D01*
X150676695Y-74077009D01*
X150629076Y-74172247D01*
X150629076Y-74315104D01*
X150676695Y-74410342D01*
X150724314Y-74457961D01*
X150819552Y-74505580D01*
X151200504Y-74505580D01*
X151200504Y-73505580D01*
X150867171Y-73505580D01*
X150771933Y-73553200D01*
X150724314Y-73600819D01*
X150676695Y-73696057D01*
X150676695Y-73791295D01*
X150724314Y-73886533D01*
X150771933Y-73934152D01*
X150867171Y-73981771D01*
X151200504Y-73981771D01*
X129399000Y-91173000D02*
X145399000Y-91173000D01*
X129399000Y-69473000D02*
X129399000Y-91173000D01*
X145399000Y-69473000D02*
X129399000Y-69473000D01*
X145399000Y-91173000D02*
X145399000Y-69473000D01*
D12*
G36*
X146840719Y-106335049D02*
X146613033Y-106348983D01*
X146600935Y-106758510D01*
X146600910Y-106993230D01*
X146621818Y-107156520D01*
X146670811Y-107260484D01*
X146755039Y-107317231D01*
X146881653Y-107338865D01*
X146944645Y-107340400D01*
X147063121Y-107334648D01*
X147142248Y-107320205D01*
X147155160Y-107313328D01*
X147168937Y-107263991D01*
X147110354Y-107228445D01*
X146991430Y-107213501D01*
X146978835Y-107213400D01*
X146823318Y-107189447D01*
X146737428Y-107117725D01*
X146718867Y-107035600D01*
X146743103Y-106968953D01*
X146795365Y-106969565D01*
X146824700Y-107001733D01*
X146892916Y-107041713D01*
X146994798Y-107031881D01*
X147099881Y-106977703D01*
X147134821Y-106946088D01*
X147203125Y-106834691D01*
X147226600Y-106680127D01*
X147226867Y-106656316D01*
X147224414Y-106634271D01*
X147092015Y-106634271D01*
X147083061Y-106778570D01*
X147035938Y-106879284D01*
X146959828Y-106917066D01*
X146899843Y-106890401D01*
X146818055Y-106826154D01*
X146816845Y-106825020D01*
X146747385Y-106738799D01*
X146718867Y-106662248D01*
X146755727Y-106566689D01*
X146844877Y-106489956D01*
X146954172Y-106457124D01*
X146979959Y-106458581D01*
X147047914Y-106484159D01*
X147081142Y-106551958D01*
X147092015Y-106634271D01*
X147224414Y-106634271D01*
X147208601Y-106492166D01*
X147146399Y-106390016D01*
X147029153Y-106340624D01*
X146845756Y-106334749D01*
X146840719Y-106335049D01*
X146840719Y-106335049D01*
G37*
X146840719Y-106335049D02*
X146613033Y-106348983D01*
X146600935Y-106758510D01*
X146600910Y-106993230D01*
X146621818Y-107156520D01*
X146670811Y-107260484D01*
X146755039Y-107317231D01*
X146881653Y-107338865D01*
X146944645Y-107340400D01*
X147063121Y-107334648D01*
X147142248Y-107320205D01*
X147155160Y-107313328D01*
X147168937Y-107263991D01*
X147110354Y-107228445D01*
X146991430Y-107213501D01*
X146978835Y-107213400D01*
X146823318Y-107189447D01*
X146737428Y-107117725D01*
X146718867Y-107035600D01*
X146743103Y-106968953D01*
X146795365Y-106969565D01*
X146824700Y-107001733D01*
X146892916Y-107041713D01*
X146994798Y-107031881D01*
X147099881Y-106977703D01*
X147134821Y-106946088D01*
X147203125Y-106834691D01*
X147226600Y-106680127D01*
X147226867Y-106656316D01*
X147224414Y-106634271D01*
X147092015Y-106634271D01*
X147083061Y-106778570D01*
X147035938Y-106879284D01*
X146959828Y-106917066D01*
X146899843Y-106890401D01*
X146818055Y-106826154D01*
X146816845Y-106825020D01*
X146747385Y-106738799D01*
X146718867Y-106662248D01*
X146755727Y-106566689D01*
X146844877Y-106489956D01*
X146954172Y-106457124D01*
X146979959Y-106458581D01*
X147047914Y-106484159D01*
X147081142Y-106551958D01*
X147092015Y-106634271D01*
X147224414Y-106634271D01*
X147208601Y-106492166D01*
X147146399Y-106390016D01*
X147029153Y-106340624D01*
X146845756Y-106334749D01*
X146840719Y-106335049D01*
G36*
X141945125Y-106359017D02*
X141935410Y-106398483D01*
X141922091Y-106483179D01*
X141888435Y-106599903D01*
X141844398Y-106721702D01*
X141799936Y-106821626D01*
X141765004Y-106872720D01*
X141759485Y-106874733D01*
X141723584Y-106838766D01*
X141673755Y-106748534D01*
X141621466Y-106630543D01*
X141578181Y-106511298D01*
X141555365Y-106417304D01*
X141554200Y-106400157D01*
X141530956Y-106342401D01*
X141482591Y-106342744D01*
X141441156Y-106396838D01*
X141436021Y-106416192D01*
X141447664Y-106479039D01*
X141488768Y-106599625D01*
X141552447Y-106759221D01*
X141613712Y-106899517D01*
X141699613Y-107085459D01*
X141762681Y-107207532D01*
X141813258Y-107279762D01*
X141861687Y-107316177D01*
X141918311Y-107330803D01*
X141932974Y-107332498D01*
X142028908Y-107329407D01*
X142061750Y-107288642D01*
X142062200Y-107279582D01*
X142026927Y-107224886D01*
X141979023Y-107213400D01*
X141882824Y-107185920D01*
X141846894Y-107102549D01*
X141871095Y-106961890D01*
X141937832Y-106798352D01*
X142019731Y-106601665D01*
X142057568Y-106451853D01*
X142050331Y-106356807D01*
X141998700Y-106324400D01*
X141945125Y-106359017D01*
X141945125Y-106359017D01*
G37*
X141945125Y-106359017D02*
X141935410Y-106398483D01*
X141922091Y-106483179D01*
X141888435Y-106599903D01*
X141844398Y-106721702D01*
X141799936Y-106821626D01*
X141765004Y-106872720D01*
X141759485Y-106874733D01*
X141723584Y-106838766D01*
X141673755Y-106748534D01*
X141621466Y-106630543D01*
X141578181Y-106511298D01*
X141555365Y-106417304D01*
X141554200Y-106400157D01*
X141530956Y-106342401D01*
X141482591Y-106342744D01*
X141441156Y-106396838D01*
X141436021Y-106416192D01*
X141447664Y-106479039D01*
X141488768Y-106599625D01*
X141552447Y-106759221D01*
X141613712Y-106899517D01*
X141699613Y-107085459D01*
X141762681Y-107207532D01*
X141813258Y-107279762D01*
X141861687Y-107316177D01*
X141918311Y-107330803D01*
X141932974Y-107332498D01*
X142028908Y-107329407D01*
X142061750Y-107288642D01*
X142062200Y-107279582D01*
X142026927Y-107224886D01*
X141979023Y-107213400D01*
X141882824Y-107185920D01*
X141846894Y-107102549D01*
X141871095Y-106961890D01*
X141937832Y-106798352D01*
X142019731Y-106601665D01*
X142057568Y-106451853D01*
X142050331Y-106356807D01*
X141998700Y-106324400D01*
X141945125Y-106359017D01*
G36*
X145864435Y-106340579D02*
X145796000Y-106375200D01*
X145768325Y-106445574D01*
X145750466Y-106579809D01*
X145745200Y-106729576D01*
X145745200Y-107033152D01*
X146011581Y-107038928D01*
X146175524Y-107034000D01*
X146290869Y-107013424D01*
X146329081Y-106993585D01*
X146376150Y-106891285D01*
X146369667Y-106834834D01*
X146253200Y-106834834D01*
X146242529Y-106889154D01*
X146195542Y-106911135D01*
X146089782Y-106910044D01*
X146073649Y-106908917D01*
X145947428Y-106888263D01*
X145888292Y-106845378D01*
X145880045Y-106821816D01*
X145884974Y-106775815D01*
X145935307Y-106753720D01*
X146049904Y-106747748D01*
X146059596Y-106747733D01*
X146179541Y-106752919D01*
X146236779Y-106774973D01*
X146252971Y-106823639D01*
X146253200Y-106834834D01*
X146369667Y-106834834D01*
X146360982Y-106759212D01*
X146336377Y-106702616D01*
X146287611Y-106650379D01*
X146198705Y-106625763D01*
X146082377Y-106620733D01*
X145955965Y-106616210D01*
X145893132Y-106597042D01*
X145873021Y-106554826D01*
X145872200Y-106536066D01*
X145886400Y-106480674D01*
X145943795Y-106456193D01*
X146041533Y-106451400D01*
X146159276Y-106440914D01*
X146207794Y-106406155D01*
X146210867Y-106387900D01*
X146174343Y-106348440D01*
X146084600Y-106326793D01*
X145971383Y-106323869D01*
X145864435Y-106340579D01*
X145864435Y-106340579D01*
G37*
X145864435Y-106340579D02*
X145796000Y-106375200D01*
X145768325Y-106445574D01*
X145750466Y-106579809D01*
X145745200Y-106729576D01*
X145745200Y-107033152D01*
X146011581Y-107038928D01*
X146175524Y-107034000D01*
X146290869Y-107013424D01*
X146329081Y-106993585D01*
X146376150Y-106891285D01*
X146369667Y-106834834D01*
X146253200Y-106834834D01*
X146242529Y-106889154D01*
X146195542Y-106911135D01*
X146089782Y-106910044D01*
X146073649Y-106908917D01*
X145947428Y-106888263D01*
X145888292Y-106845378D01*
X145880045Y-106821816D01*
X145884974Y-106775815D01*
X145935307Y-106753720D01*
X146049904Y-106747748D01*
X146059596Y-106747733D01*
X146179541Y-106752919D01*
X146236779Y-106774973D01*
X146252971Y-106823639D01*
X146253200Y-106834834D01*
X146369667Y-106834834D01*
X146360982Y-106759212D01*
X146336377Y-106702616D01*
X146287611Y-106650379D01*
X146198705Y-106625763D01*
X146082377Y-106620733D01*
X145955965Y-106616210D01*
X145893132Y-106597042D01*
X145873021Y-106554826D01*
X145872200Y-106536066D01*
X145886400Y-106480674D01*
X145943795Y-106456193D01*
X146041533Y-106451400D01*
X146159276Y-106440914D01*
X146207794Y-106406155D01*
X146210867Y-106387900D01*
X146174343Y-106348440D01*
X146084600Y-106326793D01*
X145971383Y-106323869D01*
X145864435Y-106340579D01*
G36*
X145262916Y-106184746D02*
X145258367Y-106218566D01*
X145240498Y-106277262D01*
X145172708Y-106307013D01*
X145096993Y-106316528D01*
X144985837Y-106341397D01*
X144953179Y-106381141D01*
X144998324Y-106420700D01*
X145102877Y-106443498D01*
X145185998Y-106457519D01*
X145225018Y-106494295D01*
X145236550Y-106578697D01*
X145237200Y-106644582D01*
X145237475Y-106765765D01*
X145238167Y-106848954D01*
X145238516Y-106864150D01*
X145205016Y-106895802D01*
X145126260Y-106909012D01*
X145039898Y-106902527D01*
X144983577Y-106875090D01*
X144981943Y-106872699D01*
X144933238Y-106835464D01*
X144894228Y-106859524D01*
X144885718Y-106922238D01*
X144899908Y-106961969D01*
X144953856Y-107017260D01*
X145052929Y-107041181D01*
X145133904Y-107044066D01*
X145256385Y-107037389D01*
X145322948Y-107008508D01*
X145361872Y-106944150D01*
X145365248Y-106935477D01*
X145391768Y-106822647D01*
X145405845Y-106678786D01*
X145406533Y-106643673D01*
X145417637Y-106513401D01*
X145455493Y-106445907D01*
X145480617Y-106431739D01*
X145531251Y-106403831D01*
X145507906Y-106369072D01*
X145485556Y-106352071D01*
X145418796Y-106268393D01*
X145400309Y-106217511D01*
X145361336Y-106149432D01*
X145304257Y-106138594D01*
X145262916Y-106184746D01*
X145262916Y-106184746D01*
G37*
X145262916Y-106184746D02*
X145258367Y-106218566D01*
X145240498Y-106277262D01*
X145172708Y-106307013D01*
X145096993Y-106316528D01*
X144985837Y-106341397D01*
X144953179Y-106381141D01*
X144998324Y-106420700D01*
X145102877Y-106443498D01*
X145185998Y-106457519D01*
X145225018Y-106494295D01*
X145236550Y-106578697D01*
X145237200Y-106644582D01*
X145237475Y-106765765D01*
X145238167Y-106848954D01*
X145238516Y-106864150D01*
X145205016Y-106895802D01*
X145126260Y-106909012D01*
X145039898Y-106902527D01*
X144983577Y-106875090D01*
X144981943Y-106872699D01*
X144933238Y-106835464D01*
X144894228Y-106859524D01*
X144885718Y-106922238D01*
X144899908Y-106961969D01*
X144953856Y-107017260D01*
X145052929Y-107041181D01*
X145133904Y-107044066D01*
X145256385Y-107037389D01*
X145322948Y-107008508D01*
X145361872Y-106944150D01*
X145365248Y-106935477D01*
X145391768Y-106822647D01*
X145405845Y-106678786D01*
X145406533Y-106643673D01*
X145417637Y-106513401D01*
X145455493Y-106445907D01*
X145480617Y-106431739D01*
X145531251Y-106403831D01*
X145507906Y-106369072D01*
X145485556Y-106352071D01*
X145418796Y-106268393D01*
X145400309Y-106217511D01*
X145361336Y-106149432D01*
X145304257Y-106138594D01*
X145262916Y-106184746D01*
G36*
X144190688Y-106355528D02*
X144092430Y-106448398D01*
X144052738Y-106602242D01*
X144051867Y-106634650D01*
X144051867Y-106790066D01*
X144304538Y-106790066D01*
X144446518Y-106793924D01*
X144519128Y-106808190D01*
X144537426Y-106836900D01*
X144533642Y-106851483D01*
X144472591Y-106896532D01*
X144335173Y-106922566D01*
X144294881Y-106925567D01*
X144137723Y-106945809D01*
X144062381Y-106977028D01*
X144068459Y-107009959D01*
X144155563Y-107035337D01*
X144299939Y-107044066D01*
X144450283Y-107039125D01*
X144541722Y-107019331D01*
X144599693Y-106977229D01*
X144620966Y-106949980D01*
X144663315Y-106847296D01*
X144685776Y-106710517D01*
X144686867Y-106676463D01*
X144671152Y-106588045D01*
X144548040Y-106588045D01*
X144503416Y-106639329D01*
X144383271Y-106662125D01*
X144342757Y-106663066D01*
X144234506Y-106657748D01*
X144189216Y-106633066D01*
X144185415Y-106575932D01*
X144186506Y-106567816D01*
X144233179Y-106495085D01*
X144325755Y-106457557D01*
X144430735Y-106461051D01*
X144514200Y-106510883D01*
X144548040Y-106588045D01*
X144671152Y-106588045D01*
X144655694Y-106501082D01*
X144564097Y-106384179D01*
X144414960Y-106328738D01*
X144346779Y-106324400D01*
X144190688Y-106355528D01*
X144190688Y-106355528D01*
G37*
X144190688Y-106355528D02*
X144092430Y-106448398D01*
X144052738Y-106602242D01*
X144051867Y-106634650D01*
X144051867Y-106790066D01*
X144304538Y-106790066D01*
X144446518Y-106793924D01*
X144519128Y-106808190D01*
X144537426Y-106836900D01*
X144533642Y-106851483D01*
X144472591Y-106896532D01*
X144335173Y-106922566D01*
X144294881Y-106925567D01*
X144137723Y-106945809D01*
X144062381Y-106977028D01*
X144068459Y-107009959D01*
X144155563Y-107035337D01*
X144299939Y-107044066D01*
X144450283Y-107039125D01*
X144541722Y-107019331D01*
X144599693Y-106977229D01*
X144620966Y-106949980D01*
X144663315Y-106847296D01*
X144685776Y-106710517D01*
X144686867Y-106676463D01*
X144671152Y-106588045D01*
X144548040Y-106588045D01*
X144503416Y-106639329D01*
X144383271Y-106662125D01*
X144342757Y-106663066D01*
X144234506Y-106657748D01*
X144189216Y-106633066D01*
X144185415Y-106575932D01*
X144186506Y-106567816D01*
X144233179Y-106495085D01*
X144325755Y-106457557D01*
X144430735Y-106461051D01*
X144514200Y-106510883D01*
X144548040Y-106588045D01*
X144671152Y-106588045D01*
X144655694Y-106501082D01*
X144564097Y-106384179D01*
X144414960Y-106328738D01*
X144346779Y-106324400D01*
X144190688Y-106355528D01*
G36*
X143186069Y-106362154D02*
X143165033Y-106461288D01*
X143163808Y-106600607D01*
X143182946Y-106758918D01*
X143211901Y-106880405D01*
X143270929Y-107002754D01*
X143348479Y-107044717D01*
X143440843Y-107004611D01*
X143456025Y-106991150D01*
X143506263Y-106959462D01*
X143531520Y-106991150D01*
X143582054Y-107044210D01*
X143653575Y-107034182D01*
X143722220Y-106969791D01*
X143751392Y-106910749D01*
X143780309Y-106790731D01*
X143795720Y-106650956D01*
X143797881Y-106514146D01*
X143787044Y-106403025D01*
X143763464Y-106340318D01*
X143744950Y-106334764D01*
X143710557Y-106385151D01*
X143686167Y-106495471D01*
X143680199Y-106560542D01*
X143668877Y-106695892D01*
X143653665Y-106801449D01*
X143646172Y-106831213D01*
X143622090Y-106872293D01*
X143588642Y-106837589D01*
X143584571Y-106831213D01*
X143551500Y-106737945D01*
X143544515Y-106676148D01*
X143526540Y-106590636D01*
X143501235Y-106557048D01*
X143469794Y-106549885D01*
X143444306Y-106584833D01*
X143416802Y-106677816D01*
X143396327Y-106766692D01*
X143368162Y-106843464D01*
X143338770Y-106845691D01*
X143312916Y-106783282D01*
X143295367Y-106666148D01*
X143290515Y-106546650D01*
X143283854Y-106409729D01*
X143261862Y-106341002D01*
X143226367Y-106324400D01*
X143186069Y-106362154D01*
X143186069Y-106362154D01*
G37*
X143186069Y-106362154D02*
X143165033Y-106461288D01*
X143163808Y-106600607D01*
X143182946Y-106758918D01*
X143211901Y-106880405D01*
X143270929Y-107002754D01*
X143348479Y-107044717D01*
X143440843Y-107004611D01*
X143456025Y-106991150D01*
X143506263Y-106959462D01*
X143531520Y-106991150D01*
X143582054Y-107044210D01*
X143653575Y-107034182D01*
X143722220Y-106969791D01*
X143751392Y-106910749D01*
X143780309Y-106790731D01*
X143795720Y-106650956D01*
X143797881Y-106514146D01*
X143787044Y-106403025D01*
X143763464Y-106340318D01*
X143744950Y-106334764D01*
X143710557Y-106385151D01*
X143686167Y-106495471D01*
X143680199Y-106560542D01*
X143668877Y-106695892D01*
X143653665Y-106801449D01*
X143646172Y-106831213D01*
X143622090Y-106872293D01*
X143588642Y-106837589D01*
X143584571Y-106831213D01*
X143551500Y-106737945D01*
X143544515Y-106676148D01*
X143526540Y-106590636D01*
X143501235Y-106557048D01*
X143469794Y-106549885D01*
X143444306Y-106584833D01*
X143416802Y-106677816D01*
X143396327Y-106766692D01*
X143368162Y-106843464D01*
X143338770Y-106845691D01*
X143312916Y-106783282D01*
X143295367Y-106666148D01*
X143290515Y-106546650D01*
X143283854Y-106409729D01*
X143261862Y-106341002D01*
X143226367Y-106324400D01*
X143186069Y-106362154D01*
G36*
X142435435Y-106340579D02*
X142367000Y-106375200D01*
X142339325Y-106445574D01*
X142321466Y-106579809D01*
X142316200Y-106729576D01*
X142316200Y-107033152D01*
X142592036Y-107039133D01*
X142742517Y-107039754D01*
X142831197Y-107028730D01*
X142880815Y-106999022D01*
X142914110Y-106943593D01*
X142916331Y-106938757D01*
X142937469Y-106845593D01*
X142816858Y-106845593D01*
X142814439Y-106892863D01*
X142769772Y-106911895D01*
X142663110Y-106910129D01*
X142648255Y-106909093D01*
X142522513Y-106889660D01*
X142462036Y-106849461D01*
X142450542Y-106819206D01*
X142452962Y-106771936D01*
X142497628Y-106752904D01*
X142604290Y-106754670D01*
X142619145Y-106755706D01*
X142744887Y-106775139D01*
X142805364Y-106815338D01*
X142816858Y-106845593D01*
X142937469Y-106845593D01*
X142943206Y-106820313D01*
X142916570Y-106726566D01*
X142876222Y-106662416D01*
X142813784Y-106630930D01*
X142702134Y-106621103D01*
X142655774Y-106620733D01*
X142528484Y-106616314D01*
X142464870Y-106597542D01*
X142444160Y-106556143D01*
X142443200Y-106536066D01*
X142457400Y-106480674D01*
X142514795Y-106456193D01*
X142612533Y-106451400D01*
X142730276Y-106440914D01*
X142778794Y-106406155D01*
X142781867Y-106387900D01*
X142745343Y-106348440D01*
X142655600Y-106326793D01*
X142542383Y-106323869D01*
X142435435Y-106340579D01*
X142435435Y-106340579D01*
G37*
X142435435Y-106340579D02*
X142367000Y-106375200D01*
X142339325Y-106445574D01*
X142321466Y-106579809D01*
X142316200Y-106729576D01*
X142316200Y-107033152D01*
X142592036Y-107039133D01*
X142742517Y-107039754D01*
X142831197Y-107028730D01*
X142880815Y-106999022D01*
X142914110Y-106943593D01*
X142916331Y-106938757D01*
X142937469Y-106845593D01*
X142816858Y-106845593D01*
X142814439Y-106892863D01*
X142769772Y-106911895D01*
X142663110Y-106910129D01*
X142648255Y-106909093D01*
X142522513Y-106889660D01*
X142462036Y-106849461D01*
X142450542Y-106819206D01*
X142452962Y-106771936D01*
X142497628Y-106752904D01*
X142604290Y-106754670D01*
X142619145Y-106755706D01*
X142744887Y-106775139D01*
X142805364Y-106815338D01*
X142816858Y-106845593D01*
X142937469Y-106845593D01*
X142943206Y-106820313D01*
X142916570Y-106726566D01*
X142876222Y-106662416D01*
X142813784Y-106630930D01*
X142702134Y-106621103D01*
X142655774Y-106620733D01*
X142528484Y-106616314D01*
X142464870Y-106597542D01*
X142444160Y-106556143D01*
X142443200Y-106536066D01*
X142457400Y-106480674D01*
X142514795Y-106456193D01*
X142612533Y-106451400D01*
X142730276Y-106440914D01*
X142778794Y-106406155D01*
X142781867Y-106387900D01*
X142745343Y-106348440D01*
X142655600Y-106326793D01*
X142542383Y-106323869D01*
X142435435Y-106340579D01*
G36*
X139987867Y-106449080D02*
X139985897Y-106659629D01*
X139978866Y-106798512D01*
X139965088Y-106878661D01*
X139942880Y-106913009D01*
X139926922Y-106917066D01*
X139878245Y-106876829D01*
X139852902Y-106759078D01*
X139852839Y-106758316D01*
X139832971Y-106646672D01*
X139803825Y-106612688D01*
X139773295Y-106651119D01*
X139749271Y-106756717D01*
X139742238Y-106831844D01*
X139729442Y-107044066D01*
X140046656Y-107044066D01*
X140202376Y-107039349D01*
X140322548Y-107026885D01*
X140384393Y-107009210D01*
X140387292Y-107006169D01*
X140375878Y-106963502D01*
X140303353Y-106930147D01*
X140196071Y-106917066D01*
X140158165Y-106910128D01*
X140134279Y-106878865D01*
X140121227Y-106807604D01*
X140115825Y-106680670D01*
X140114867Y-106517582D01*
X140114867Y-106118097D01*
X140252450Y-106104832D01*
X140358100Y-106083054D01*
X140386269Y-106051906D01*
X140342124Y-106020407D01*
X140230830Y-105997571D01*
X140188950Y-105993997D01*
X139987867Y-105981094D01*
X139987867Y-106449080D01*
X139987867Y-106449080D01*
G37*
X139987867Y-106449080D02*
X139985897Y-106659629D01*
X139978866Y-106798512D01*
X139965088Y-106878661D01*
X139942880Y-106913009D01*
X139926922Y-106917066D01*
X139878245Y-106876829D01*
X139852902Y-106759078D01*
X139852839Y-106758316D01*
X139832971Y-106646672D01*
X139803825Y-106612688D01*
X139773295Y-106651119D01*
X139749271Y-106756717D01*
X139742238Y-106831844D01*
X139729442Y-107044066D01*
X140046656Y-107044066D01*
X140202376Y-107039349D01*
X140322548Y-107026885D01*
X140384393Y-107009210D01*
X140387292Y-107006169D01*
X140375878Y-106963502D01*
X140303353Y-106930147D01*
X140196071Y-106917066D01*
X140158165Y-106910128D01*
X140134279Y-106878865D01*
X140121227Y-106807604D01*
X140115825Y-106680670D01*
X140114867Y-106517582D01*
X140114867Y-106118097D01*
X140252450Y-106104832D01*
X140358100Y-106083054D01*
X140386269Y-106051906D01*
X140342124Y-106020407D01*
X140230830Y-105997571D01*
X140188950Y-105993997D01*
X139987867Y-105981094D01*
X139987867Y-106449080D01*
G36*
X138144935Y-106003268D02*
X138056470Y-106034027D01*
X138044239Y-106044767D01*
X138019465Y-106123323D01*
X138006770Y-106283214D01*
X138006331Y-106521949D01*
X138007306Y-106563351D01*
X138019367Y-107022900D01*
X138317550Y-107035161D01*
X138469432Y-107037279D01*
X138586549Y-107031245D01*
X138644672Y-107018360D01*
X138645633Y-107017522D01*
X138662866Y-106958186D01*
X138673196Y-106836567D01*
X138677095Y-106674727D01*
X138675031Y-106494727D01*
X138667476Y-106318630D01*
X138654899Y-106168497D01*
X138645544Y-106112733D01*
X138548533Y-106112733D01*
X138548533Y-106917066D01*
X138125200Y-106917066D01*
X138125200Y-106112733D01*
X138548533Y-106112733D01*
X138645544Y-106112733D01*
X138637769Y-106066390D01*
X138624733Y-106036533D01*
X138548344Y-106003886D01*
X138422097Y-105987755D01*
X138277219Y-105987697D01*
X138144935Y-106003268D01*
X138144935Y-106003268D01*
G37*
X138144935Y-106003268D02*
X138056470Y-106034027D01*
X138044239Y-106044767D01*
X138019465Y-106123323D01*
X138006770Y-106283214D01*
X138006331Y-106521949D01*
X138007306Y-106563351D01*
X138019367Y-107022900D01*
X138317550Y-107035161D01*
X138469432Y-107037279D01*
X138586549Y-107031245D01*
X138644672Y-107018360D01*
X138645633Y-107017522D01*
X138662866Y-106958186D01*
X138673196Y-106836567D01*
X138677095Y-106674727D01*
X138675031Y-106494727D01*
X138667476Y-106318630D01*
X138654899Y-106168497D01*
X138645544Y-106112733D01*
X138548533Y-106112733D01*
X138548533Y-106917066D01*
X138125200Y-106917066D01*
X138125200Y-106112733D01*
X138548533Y-106112733D01*
X138645544Y-106112733D01*
X138637769Y-106066390D01*
X138624733Y-106036533D01*
X138548344Y-106003886D01*
X138422097Y-105987755D01*
X138277219Y-105987697D01*
X138144935Y-106003268D01*
G36*
X139092770Y-106674457D02*
X139059566Y-106722877D01*
X139056533Y-106768900D01*
X139070202Y-106844536D01*
X139128306Y-106872205D01*
X139183533Y-106874733D01*
X139274297Y-106863342D01*
X139307501Y-106814922D01*
X139310533Y-106768900D01*
X139296865Y-106693263D01*
X139238761Y-106665594D01*
X139183533Y-106663066D01*
X139092770Y-106674457D01*
X139092770Y-106674457D01*
G37*
X139092770Y-106674457D02*
X139059566Y-106722877D01*
X139056533Y-106768900D01*
X139070202Y-106844536D01*
X139128306Y-106872205D01*
X139183533Y-106874733D01*
X139274297Y-106863342D01*
X139307501Y-106814922D01*
X139310533Y-106768900D01*
X139296865Y-106693263D01*
X139238761Y-106665594D01*
X139183533Y-106663066D01*
X139092770Y-106674457D01*
G36*
X157788552Y-103828561D02*
X157628970Y-103835682D01*
X157517075Y-103850556D01*
X157434402Y-103875638D01*
X157362485Y-103913387D01*
X157362299Y-103913501D01*
X157234435Y-104019567D01*
X157189769Y-104127196D01*
X157228918Y-104234353D01*
X157255624Y-104264638D01*
X157344911Y-104353925D01*
X157524639Y-104256939D01*
X157624583Y-104209284D01*
X157723149Y-104181695D01*
X157846338Y-104170292D01*
X158020155Y-104171194D01*
X158085367Y-104173260D01*
X158266948Y-104181272D01*
X158379828Y-104192515D01*
X158439970Y-104210978D01*
X158463337Y-104240653D01*
X158466367Y-104268507D01*
X158448691Y-104311661D01*
X158388950Y-104363151D01*
X158277073Y-104429207D01*
X158102990Y-104516056D01*
X157953019Y-104586007D01*
X157698774Y-104704173D01*
X157510771Y-104796868D01*
X157377542Y-104872236D01*
X157287623Y-104938423D01*
X157229546Y-105003573D01*
X157191846Y-105075831D01*
X157169051Y-105142896D01*
X157147573Y-105345660D01*
X157196166Y-105541560D01*
X157306776Y-105704779D01*
X157358186Y-105749065D01*
X157420735Y-105787654D01*
X157497190Y-105814258D01*
X157605114Y-105831679D01*
X157762071Y-105842718D01*
X157985625Y-105850179D01*
X157993186Y-105850368D01*
X158218302Y-105854357D01*
X158378653Y-105851716D01*
X158494030Y-105840208D01*
X158584221Y-105817595D01*
X158669015Y-105781639D01*
X158688964Y-105771689D01*
X158825813Y-105676068D01*
X158897094Y-105568011D01*
X158896134Y-105460855D01*
X158868077Y-105413683D01*
X158774999Y-105359213D01*
X158661143Y-105360823D01*
X158571098Y-105415561D01*
X158500794Y-105448431D01*
X158369841Y-105468749D01*
X158200126Y-105477215D01*
X158013536Y-105474533D01*
X157831958Y-105461402D01*
X157677278Y-105438527D01*
X157571384Y-105406608D01*
X157539765Y-105382483D01*
X157515643Y-105319184D01*
X157532068Y-105257490D01*
X157597082Y-105190900D01*
X157718728Y-105112909D01*
X157905051Y-105017015D01*
X158110573Y-104920993D01*
X158379152Y-104794683D01*
X158577959Y-104690062D01*
X158716633Y-104599443D01*
X158804808Y-104515139D01*
X158852122Y-104429462D01*
X158868210Y-104334725D01*
X158868533Y-104316340D01*
X158838011Y-104122851D01*
X158753576Y-103968173D01*
X158636883Y-103877308D01*
X158541972Y-103854627D01*
X158378690Y-103837886D01*
X158163205Y-103828398D01*
X158014288Y-103826733D01*
X157788552Y-103828561D01*
X157788552Y-103828561D01*
G37*
X157788552Y-103828561D02*
X157628970Y-103835682D01*
X157517075Y-103850556D01*
X157434402Y-103875638D01*
X157362485Y-103913387D01*
X157362299Y-103913501D01*
X157234435Y-104019567D01*
X157189769Y-104127196D01*
X157228918Y-104234353D01*
X157255624Y-104264638D01*
X157344911Y-104353925D01*
X157524639Y-104256939D01*
X157624583Y-104209284D01*
X157723149Y-104181695D01*
X157846338Y-104170292D01*
X158020155Y-104171194D01*
X158085367Y-104173260D01*
X158266948Y-104181272D01*
X158379828Y-104192515D01*
X158439970Y-104210978D01*
X158463337Y-104240653D01*
X158466367Y-104268507D01*
X158448691Y-104311661D01*
X158388950Y-104363151D01*
X158277073Y-104429207D01*
X158102990Y-104516056D01*
X157953019Y-104586007D01*
X157698774Y-104704173D01*
X157510771Y-104796868D01*
X157377542Y-104872236D01*
X157287623Y-104938423D01*
X157229546Y-105003573D01*
X157191846Y-105075831D01*
X157169051Y-105142896D01*
X157147573Y-105345660D01*
X157196166Y-105541560D01*
X157306776Y-105704779D01*
X157358186Y-105749065D01*
X157420735Y-105787654D01*
X157497190Y-105814258D01*
X157605114Y-105831679D01*
X157762071Y-105842718D01*
X157985625Y-105850179D01*
X157993186Y-105850368D01*
X158218302Y-105854357D01*
X158378653Y-105851716D01*
X158494030Y-105840208D01*
X158584221Y-105817595D01*
X158669015Y-105781639D01*
X158688964Y-105771689D01*
X158825813Y-105676068D01*
X158897094Y-105568011D01*
X158896134Y-105460855D01*
X158868077Y-105413683D01*
X158774999Y-105359213D01*
X158661143Y-105360823D01*
X158571098Y-105415561D01*
X158500794Y-105448431D01*
X158369841Y-105468749D01*
X158200126Y-105477215D01*
X158013536Y-105474533D01*
X157831958Y-105461402D01*
X157677278Y-105438527D01*
X157571384Y-105406608D01*
X157539765Y-105382483D01*
X157515643Y-105319184D01*
X157532068Y-105257490D01*
X157597082Y-105190900D01*
X157718728Y-105112909D01*
X157905051Y-105017015D01*
X158110573Y-104920993D01*
X158379152Y-104794683D01*
X158577959Y-104690062D01*
X158716633Y-104599443D01*
X158804808Y-104515139D01*
X158852122Y-104429462D01*
X158868210Y-104334725D01*
X158868533Y-104316340D01*
X158838011Y-104122851D01*
X158753576Y-103968173D01*
X158636883Y-103877308D01*
X158541972Y-103854627D01*
X158378690Y-103837886D01*
X158163205Y-103828398D01*
X158014288Y-103826733D01*
X157788552Y-103828561D01*
G36*
X155938235Y-103828107D02*
X155809770Y-103836228D01*
X155717308Y-103857097D01*
X155636519Y-103896714D01*
X155543074Y-103961080D01*
X155523165Y-103975659D01*
X155390407Y-104091691D01*
X155297176Y-104209425D01*
X155274076Y-104257143D01*
X155247684Y-104376980D01*
X155232667Y-104535345D01*
X155228879Y-104707020D01*
X155236173Y-104866787D01*
X155254403Y-104989429D01*
X155278667Y-105045933D01*
X155338455Y-105068421D01*
X155468897Y-105084163D01*
X155674518Y-105093488D01*
X155959845Y-105096725D01*
X155977167Y-105096733D01*
X156224458Y-105097388D01*
X156399474Y-105100362D01*
X156514600Y-105107163D01*
X156582224Y-105119302D01*
X156614733Y-105138289D01*
X156624513Y-105165634D01*
X156624867Y-105175690D01*
X156599679Y-105262944D01*
X156538908Y-105363911D01*
X156537128Y-105366190D01*
X156497759Y-105412463D01*
X156454978Y-105443760D01*
X156392603Y-105463009D01*
X156294453Y-105473136D01*
X156144349Y-105477068D01*
X155926109Y-105477733D01*
X155920511Y-105477733D01*
X155710496Y-105481132D01*
X155525899Y-105490395D01*
X155386233Y-105504122D01*
X155311006Y-105520914D01*
X155309750Y-105521556D01*
X155238591Y-105598351D01*
X155230210Y-105696635D01*
X155281721Y-105784450D01*
X155336456Y-105817447D01*
X155424947Y-105834173D01*
X155575284Y-105846029D01*
X155765914Y-105853002D01*
X155975283Y-105855077D01*
X156181840Y-105852242D01*
X156364031Y-105844482D01*
X156500303Y-105831783D01*
X156561367Y-105818230D01*
X156638637Y-105770527D01*
X156747489Y-105685120D01*
X156825950Y-105615750D01*
X157005867Y-105448405D01*
X157005867Y-104867619D01*
X157002824Y-104648144D01*
X156997515Y-104524611D01*
X156624867Y-104524611D01*
X156624867Y-104715733D01*
X155608867Y-104715733D01*
X155608867Y-104550163D01*
X155625095Y-104419746D01*
X155687973Y-104321975D01*
X155739115Y-104274996D01*
X155892873Y-104194411D01*
X156086726Y-104161062D01*
X156289807Y-104175996D01*
X156471254Y-104240262D01*
X156487283Y-104249602D01*
X156574248Y-104312981D01*
X156614209Y-104384686D01*
X156624739Y-104499838D01*
X156624867Y-104524611D01*
X156997515Y-104524611D01*
X156994490Y-104454225D01*
X156982054Y-104304118D01*
X156966706Y-104216080D01*
X156962770Y-104206306D01*
X156906094Y-104136709D01*
X156805857Y-104042878D01*
X156723849Y-103976255D01*
X156629196Y-103906639D01*
X156550724Y-103862882D01*
X156464480Y-103838982D01*
X156346512Y-103828941D01*
X156172867Y-103826755D01*
X156127034Y-103826733D01*
X155938235Y-103828107D01*
X155938235Y-103828107D01*
G37*
X155938235Y-103828107D02*
X155809770Y-103836228D01*
X155717308Y-103857097D01*
X155636519Y-103896714D01*
X155543074Y-103961080D01*
X155523165Y-103975659D01*
X155390407Y-104091691D01*
X155297176Y-104209425D01*
X155274076Y-104257143D01*
X155247684Y-104376980D01*
X155232667Y-104535345D01*
X155228879Y-104707020D01*
X155236173Y-104866787D01*
X155254403Y-104989429D01*
X155278667Y-105045933D01*
X155338455Y-105068421D01*
X155468897Y-105084163D01*
X155674518Y-105093488D01*
X155959845Y-105096725D01*
X155977167Y-105096733D01*
X156224458Y-105097388D01*
X156399474Y-105100362D01*
X156514600Y-105107163D01*
X156582224Y-105119302D01*
X156614733Y-105138289D01*
X156624513Y-105165634D01*
X156624867Y-105175690D01*
X156599679Y-105262944D01*
X156538908Y-105363911D01*
X156537128Y-105366190D01*
X156497759Y-105412463D01*
X156454978Y-105443760D01*
X156392603Y-105463009D01*
X156294453Y-105473136D01*
X156144349Y-105477068D01*
X155926109Y-105477733D01*
X155920511Y-105477733D01*
X155710496Y-105481132D01*
X155525899Y-105490395D01*
X155386233Y-105504122D01*
X155311006Y-105520914D01*
X155309750Y-105521556D01*
X155238591Y-105598351D01*
X155230210Y-105696635D01*
X155281721Y-105784450D01*
X155336456Y-105817447D01*
X155424947Y-105834173D01*
X155575284Y-105846029D01*
X155765914Y-105853002D01*
X155975283Y-105855077D01*
X156181840Y-105852242D01*
X156364031Y-105844482D01*
X156500303Y-105831783D01*
X156561367Y-105818230D01*
X156638637Y-105770527D01*
X156747489Y-105685120D01*
X156825950Y-105615750D01*
X157005867Y-105448405D01*
X157005867Y-104867619D01*
X157002824Y-104648144D01*
X156997515Y-104524611D01*
X156624867Y-104524611D01*
X156624867Y-104715733D01*
X155608867Y-104715733D01*
X155608867Y-104550163D01*
X155625095Y-104419746D01*
X155687973Y-104321975D01*
X155739115Y-104274996D01*
X155892873Y-104194411D01*
X156086726Y-104161062D01*
X156289807Y-104175996D01*
X156471254Y-104240262D01*
X156487283Y-104249602D01*
X156574248Y-104312981D01*
X156614209Y-104384686D01*
X156624739Y-104499838D01*
X156624867Y-104524611D01*
X156997515Y-104524611D01*
X156994490Y-104454225D01*
X156982054Y-104304118D01*
X156966706Y-104216080D01*
X156962770Y-104206306D01*
X156906094Y-104136709D01*
X156805857Y-104042878D01*
X156723849Y-103976255D01*
X156629196Y-103906639D01*
X156550724Y-103862882D01*
X156464480Y-103838982D01*
X156346512Y-103828941D01*
X156172867Y-103826755D01*
X156127034Y-103826733D01*
X155938235Y-103828107D01*
G36*
X153796959Y-103829348D02*
X153691647Y-103842887D01*
X153616230Y-103875889D01*
X153543339Y-103936893D01*
X153514086Y-103965714D01*
X153375105Y-104104695D01*
X153343525Y-104904825D01*
X153332815Y-105208246D01*
X153328844Y-105437757D01*
X153333132Y-105603951D01*
X153347198Y-105717424D01*
X153372560Y-105788771D01*
X153410737Y-105828585D01*
X153463249Y-105847463D01*
X153479061Y-105850192D01*
X153546920Y-105850529D01*
X153598630Y-105821925D01*
X153636822Y-105754576D01*
X153664125Y-105638680D01*
X153683169Y-105464432D01*
X153696584Y-105222028D01*
X153703867Y-105012146D01*
X153714985Y-104718329D01*
X153728844Y-104500958D01*
X153746281Y-104351830D01*
X153768133Y-104262746D01*
X153783134Y-104235389D01*
X153889658Y-104170426D01*
X154042450Y-104175521D01*
X154240509Y-104250488D01*
X154419940Y-104353596D01*
X154713545Y-104541792D01*
X154727289Y-105159555D01*
X154734600Y-105412140D01*
X154744439Y-105592099D01*
X154758220Y-105711464D01*
X154777356Y-105782269D01*
X154803259Y-105816547D01*
X154804533Y-105817377D01*
X154913660Y-105855513D01*
X155010936Y-105813740D01*
X155034343Y-105792209D01*
X155057115Y-105758069D01*
X155074168Y-105700075D01*
X155086277Y-105607204D01*
X155094212Y-105468430D01*
X155098748Y-105272728D01*
X155100656Y-105009076D01*
X155100867Y-104843171D01*
X155099675Y-104574930D01*
X155096346Y-104332991D01*
X155091252Y-104131054D01*
X155084762Y-103982819D01*
X155077248Y-103901984D01*
X155075171Y-103893695D01*
X155014524Y-103841946D01*
X154926097Y-103826733D01*
X154821806Y-103849380D01*
X154757560Y-103932249D01*
X154752721Y-103943150D01*
X154714799Y-104029789D01*
X154694739Y-104072595D01*
X154657755Y-104059418D01*
X154570016Y-104011942D01*
X154476378Y-103956178D01*
X154349844Y-103885437D01*
X154237427Y-103846193D01*
X154103859Y-103829614D01*
X153959535Y-103826733D01*
X153796959Y-103829348D01*
X153796959Y-103829348D01*
G37*
X153796959Y-103829348D02*
X153691647Y-103842887D01*
X153616230Y-103875889D01*
X153543339Y-103936893D01*
X153514086Y-103965714D01*
X153375105Y-104104695D01*
X153343525Y-104904825D01*
X153332815Y-105208246D01*
X153328844Y-105437757D01*
X153333132Y-105603951D01*
X153347198Y-105717424D01*
X153372560Y-105788771D01*
X153410737Y-105828585D01*
X153463249Y-105847463D01*
X153479061Y-105850192D01*
X153546920Y-105850529D01*
X153598630Y-105821925D01*
X153636822Y-105754576D01*
X153664125Y-105638680D01*
X153683169Y-105464432D01*
X153696584Y-105222028D01*
X153703867Y-105012146D01*
X153714985Y-104718329D01*
X153728844Y-104500958D01*
X153746281Y-104351830D01*
X153768133Y-104262746D01*
X153783134Y-104235389D01*
X153889658Y-104170426D01*
X154042450Y-104175521D01*
X154240509Y-104250488D01*
X154419940Y-104353596D01*
X154713545Y-104541792D01*
X154727289Y-105159555D01*
X154734600Y-105412140D01*
X154744439Y-105592099D01*
X154758220Y-105711464D01*
X154777356Y-105782269D01*
X154803259Y-105816547D01*
X154804533Y-105817377D01*
X154913660Y-105855513D01*
X155010936Y-105813740D01*
X155034343Y-105792209D01*
X155057115Y-105758069D01*
X155074168Y-105700075D01*
X155086277Y-105607204D01*
X155094212Y-105468430D01*
X155098748Y-105272728D01*
X155100656Y-105009076D01*
X155100867Y-104843171D01*
X155099675Y-104574930D01*
X155096346Y-104332991D01*
X155091252Y-104131054D01*
X155084762Y-103982819D01*
X155077248Y-103901984D01*
X155075171Y-103893695D01*
X155014524Y-103841946D01*
X154926097Y-103826733D01*
X154821806Y-103849380D01*
X154757560Y-103932249D01*
X154752721Y-103943150D01*
X154714799Y-104029789D01*
X154694739Y-104072595D01*
X154657755Y-104059418D01*
X154570016Y-104011942D01*
X154476378Y-103956178D01*
X154349844Y-103885437D01*
X154237427Y-103846193D01*
X154103859Y-103829614D01*
X153959535Y-103826733D01*
X153796959Y-103829348D01*
G36*
X152061165Y-103827444D02*
X151898290Y-103831297D01*
X151787077Y-103840868D01*
X151711026Y-103858734D01*
X151653636Y-103887472D01*
X151598405Y-103929660D01*
X151590448Y-103936329D01*
X151490813Y-104052202D01*
X151460770Y-104164192D01*
X151501532Y-104257183D01*
X151561408Y-104297995D01*
X151645967Y-104320192D01*
X151728512Y-104291953D01*
X151785686Y-104253117D01*
X151851766Y-104210978D01*
X151924948Y-104185216D01*
X152025910Y-104172840D01*
X152175330Y-104170858D01*
X152330062Y-104174347D01*
X152522890Y-104181379D01*
X152646242Y-104191199D01*
X152715306Y-104207139D01*
X152745272Y-104232525D01*
X152751367Y-104266693D01*
X152733090Y-104308344D01*
X152671886Y-104359275D01*
X152558197Y-104425193D01*
X152382463Y-104511804D01*
X152201033Y-104595200D01*
X151927668Y-104723379D01*
X151724496Y-104832416D01*
X151581791Y-104931108D01*
X151489821Y-105028254D01*
X151438857Y-105132650D01*
X151419171Y-105253094D01*
X151417867Y-105303358D01*
X151452582Y-105516034D01*
X151556648Y-105680170D01*
X151729950Y-105795587D01*
X151741115Y-105800363D01*
X151850078Y-105826136D01*
X152018859Y-105844010D01*
X152222950Y-105853670D01*
X152437843Y-105854801D01*
X152639029Y-105847085D01*
X152802001Y-105830208D01*
X152873316Y-105814942D01*
X152999505Y-105755434D01*
X153110712Y-105667021D01*
X153182252Y-105572190D01*
X153195867Y-105521154D01*
X153161938Y-105420158D01*
X153075749Y-105364081D01*
X152960700Y-105359834D01*
X152840188Y-105414330D01*
X152838526Y-105415579D01*
X152765614Y-105447686D01*
X152640903Y-105467377D01*
X152451371Y-105476228D01*
X152330526Y-105477085D01*
X152116345Y-105474561D01*
X151971162Y-105465214D01*
X151879360Y-105445219D01*
X151825323Y-105410753D01*
X151793434Y-105357991D01*
X151788103Y-105344264D01*
X151779613Y-105288801D01*
X151803358Y-105234912D01*
X151868605Y-105175973D01*
X151984624Y-105105359D01*
X152160681Y-105016445D01*
X152405912Y-104902668D01*
X152620221Y-104800669D01*
X152805197Y-104703649D01*
X152945269Y-104620324D01*
X153024866Y-104559410D01*
X153030328Y-104553127D01*
X153095328Y-104408549D01*
X153111200Y-104262267D01*
X153097314Y-104119440D01*
X153043659Y-104013086D01*
X152987457Y-103950476D01*
X152863713Y-103826733D01*
X152292205Y-103826733D01*
X152061165Y-103827444D01*
X152061165Y-103827444D01*
G37*
X152061165Y-103827444D02*
X151898290Y-103831297D01*
X151787077Y-103840868D01*
X151711026Y-103858734D01*
X151653636Y-103887472D01*
X151598405Y-103929660D01*
X151590448Y-103936329D01*
X151490813Y-104052202D01*
X151460770Y-104164192D01*
X151501532Y-104257183D01*
X151561408Y-104297995D01*
X151645967Y-104320192D01*
X151728512Y-104291953D01*
X151785686Y-104253117D01*
X151851766Y-104210978D01*
X151924948Y-104185216D01*
X152025910Y-104172840D01*
X152175330Y-104170858D01*
X152330062Y-104174347D01*
X152522890Y-104181379D01*
X152646242Y-104191199D01*
X152715306Y-104207139D01*
X152745272Y-104232525D01*
X152751367Y-104266693D01*
X152733090Y-104308344D01*
X152671886Y-104359275D01*
X152558197Y-104425193D01*
X152382463Y-104511804D01*
X152201033Y-104595200D01*
X151927668Y-104723379D01*
X151724496Y-104832416D01*
X151581791Y-104931108D01*
X151489821Y-105028254D01*
X151438857Y-105132650D01*
X151419171Y-105253094D01*
X151417867Y-105303358D01*
X151452582Y-105516034D01*
X151556648Y-105680170D01*
X151729950Y-105795587D01*
X151741115Y-105800363D01*
X151850078Y-105826136D01*
X152018859Y-105844010D01*
X152222950Y-105853670D01*
X152437843Y-105854801D01*
X152639029Y-105847085D01*
X152802001Y-105830208D01*
X152873316Y-105814942D01*
X152999505Y-105755434D01*
X153110712Y-105667021D01*
X153182252Y-105572190D01*
X153195867Y-105521154D01*
X153161938Y-105420158D01*
X153075749Y-105364081D01*
X152960700Y-105359834D01*
X152840188Y-105414330D01*
X152838526Y-105415579D01*
X152765614Y-105447686D01*
X152640903Y-105467377D01*
X152451371Y-105476228D01*
X152330526Y-105477085D01*
X152116345Y-105474561D01*
X151971162Y-105465214D01*
X151879360Y-105445219D01*
X151825323Y-105410753D01*
X151793434Y-105357991D01*
X151788103Y-105344264D01*
X151779613Y-105288801D01*
X151803358Y-105234912D01*
X151868605Y-105175973D01*
X151984624Y-105105359D01*
X152160681Y-105016445D01*
X152405912Y-104902668D01*
X152620221Y-104800669D01*
X152805197Y-104703649D01*
X152945269Y-104620324D01*
X153024866Y-104559410D01*
X153030328Y-104553127D01*
X153095328Y-104408549D01*
X153111200Y-104262267D01*
X153097314Y-104119440D01*
X153043659Y-104013086D01*
X152987457Y-103950476D01*
X152863713Y-103826733D01*
X152292205Y-103826733D01*
X152061165Y-103827444D01*
G36*
X150211232Y-103828331D02*
X150078916Y-103836404D01*
X149985382Y-103855871D01*
X149907696Y-103891652D01*
X149822922Y-103948667D01*
X149817078Y-103952893D01*
X149668630Y-104072516D01*
X149572878Y-104188733D01*
X149518920Y-104325333D01*
X149495855Y-104506102D01*
X149492258Y-104661611D01*
X149496067Y-104850952D01*
X149509829Y-104971110D01*
X149535968Y-105037235D01*
X149555200Y-105055260D01*
X149618131Y-105069319D01*
X149749245Y-105081319D01*
X149932067Y-105090311D01*
X150150120Y-105095348D01*
X150264283Y-105096085D01*
X150511755Y-105097110D01*
X150686842Y-105100556D01*
X150801824Y-105107847D01*
X150868977Y-105120405D01*
X150900578Y-105139655D01*
X150908906Y-105167018D01*
X150908926Y-105170816D01*
X150883522Y-105256172D01*
X150826809Y-105350733D01*
X150790281Y-105393232D01*
X150746874Y-105423231D01*
X150681440Y-105443638D01*
X150578832Y-105457367D01*
X150423902Y-105467327D01*
X150201504Y-105476430D01*
X150166006Y-105477733D01*
X149932441Y-105487189D01*
X149768883Y-105497311D01*
X149660694Y-105510688D01*
X149593235Y-105529910D01*
X149551869Y-105557566D01*
X149525353Y-105591046D01*
X149488737Y-105664404D01*
X149508249Y-105722999D01*
X149552097Y-105770963D01*
X149594927Y-105806895D01*
X149649229Y-105831468D01*
X149730670Y-105846796D01*
X149854919Y-105854998D01*
X150037644Y-105858187D01*
X150200783Y-105858575D01*
X150439802Y-105856782D01*
X150610814Y-105850283D01*
X150730435Y-105837163D01*
X150815280Y-105815506D01*
X150881963Y-105783398D01*
X150888700Y-105779272D01*
X151002427Y-105694769D01*
X151121392Y-105586976D01*
X151142700Y-105564984D01*
X151269700Y-105429840D01*
X151269700Y-104550163D01*
X150909867Y-104550163D01*
X150909867Y-104715733D01*
X149851533Y-104715733D01*
X149851533Y-104550163D01*
X149867761Y-104419746D01*
X149930639Y-104321975D01*
X149981782Y-104274996D01*
X150070868Y-104211875D01*
X150166914Y-104178560D01*
X150301629Y-104166339D01*
X150380700Y-104165400D01*
X150542260Y-104171140D01*
X150651298Y-104194168D01*
X150739524Y-104243197D01*
X150779619Y-104274996D01*
X150871471Y-104372913D01*
X150906762Y-104482539D01*
X150909867Y-104550163D01*
X151269700Y-104550163D01*
X151269700Y-104240882D01*
X151044497Y-104033807D01*
X150819295Y-103826733D01*
X150405266Y-103826733D01*
X150211232Y-103828331D01*
X150211232Y-103828331D01*
G37*
X150211232Y-103828331D02*
X150078916Y-103836404D01*
X149985382Y-103855871D01*
X149907696Y-103891652D01*
X149822922Y-103948667D01*
X149817078Y-103952893D01*
X149668630Y-104072516D01*
X149572878Y-104188733D01*
X149518920Y-104325333D01*
X149495855Y-104506102D01*
X149492258Y-104661611D01*
X149496067Y-104850952D01*
X149509829Y-104971110D01*
X149535968Y-105037235D01*
X149555200Y-105055260D01*
X149618131Y-105069319D01*
X149749245Y-105081319D01*
X149932067Y-105090311D01*
X150150120Y-105095348D01*
X150264283Y-105096085D01*
X150511755Y-105097110D01*
X150686842Y-105100556D01*
X150801824Y-105107847D01*
X150868977Y-105120405D01*
X150900578Y-105139655D01*
X150908906Y-105167018D01*
X150908926Y-105170816D01*
X150883522Y-105256172D01*
X150826809Y-105350733D01*
X150790281Y-105393232D01*
X150746874Y-105423231D01*
X150681440Y-105443638D01*
X150578832Y-105457367D01*
X150423902Y-105467327D01*
X150201504Y-105476430D01*
X150166006Y-105477733D01*
X149932441Y-105487189D01*
X149768883Y-105497311D01*
X149660694Y-105510688D01*
X149593235Y-105529910D01*
X149551869Y-105557566D01*
X149525353Y-105591046D01*
X149488737Y-105664404D01*
X149508249Y-105722999D01*
X149552097Y-105770963D01*
X149594927Y-105806895D01*
X149649229Y-105831468D01*
X149730670Y-105846796D01*
X149854919Y-105854998D01*
X150037644Y-105858187D01*
X150200783Y-105858575D01*
X150439802Y-105856782D01*
X150610814Y-105850283D01*
X150730435Y-105837163D01*
X150815280Y-105815506D01*
X150881963Y-105783398D01*
X150888700Y-105779272D01*
X151002427Y-105694769D01*
X151121392Y-105586976D01*
X151142700Y-105564984D01*
X151269700Y-105429840D01*
X151269700Y-104550163D01*
X150909867Y-104550163D01*
X150909867Y-104715733D01*
X149851533Y-104715733D01*
X149851533Y-104550163D01*
X149867761Y-104419746D01*
X149930639Y-104321975D01*
X149981782Y-104274996D01*
X150070868Y-104211875D01*
X150166914Y-104178560D01*
X150301629Y-104166339D01*
X150380700Y-104165400D01*
X150542260Y-104171140D01*
X150651298Y-104194168D01*
X150739524Y-104243197D01*
X150779619Y-104274996D01*
X150871471Y-104372913D01*
X150906762Y-104482539D01*
X150909867Y-104550163D01*
X151269700Y-104550163D01*
X151269700Y-104240882D01*
X151044497Y-104033807D01*
X150819295Y-103826733D01*
X150405266Y-103826733D01*
X150211232Y-103828331D01*
G36*
X149112477Y-103083889D02*
X149055731Y-103117954D01*
X149034246Y-103183332D01*
X149015245Y-103313213D01*
X149001166Y-103487433D01*
X148995854Y-103613238D01*
X148983700Y-104051020D01*
X148850589Y-103938876D01*
X148774136Y-103881747D01*
X148696082Y-103848062D01*
X148591049Y-103831787D01*
X148433658Y-103826888D01*
X148378917Y-103826733D01*
X148205350Y-103829150D01*
X148089182Y-103841297D01*
X148003179Y-103870522D01*
X147920107Y-103924168D01*
X147868826Y-103964316D01*
X147744445Y-104075791D01*
X147658764Y-104188760D01*
X147604997Y-104322340D01*
X147576358Y-104495647D01*
X147566062Y-104727796D01*
X147565533Y-104818740D01*
X147571531Y-105081259D01*
X147593653Y-105277870D01*
X147638093Y-105426749D01*
X147711046Y-105546069D01*
X147818707Y-105654005D01*
X147862426Y-105689843D01*
X147995966Y-105781291D01*
X148126719Y-105829604D01*
X148289667Y-105850859D01*
X148497531Y-105856905D01*
X148650884Y-105835184D01*
X148777234Y-105778922D01*
X148874604Y-105706815D01*
X148957371Y-105641326D01*
X148995006Y-105629174D01*
X149004745Y-105666437D01*
X149004867Y-105677170D01*
X149037058Y-105782125D01*
X149115246Y-105844939D01*
X149211857Y-105853933D01*
X149296628Y-105800743D01*
X149311342Y-105752180D01*
X149322519Y-105643219D01*
X149330282Y-105469216D01*
X149334754Y-105225527D01*
X149336059Y-104907508D01*
X149335693Y-104823723D01*
X149004219Y-104823723D01*
X149001093Y-104976449D01*
X148983442Y-105079161D01*
X148937406Y-105159984D01*
X148849126Y-105247045D01*
X148757445Y-105324535D01*
X148631128Y-105418581D01*
X148522580Y-105464493D01*
X148393558Y-105477629D01*
X148376012Y-105477733D01*
X148223554Y-105463377D01*
X148111697Y-105411030D01*
X148062518Y-105370186D01*
X148010427Y-105317774D01*
X147976848Y-105264068D01*
X147957725Y-105189953D01*
X147949000Y-105076317D01*
X147946619Y-104904043D01*
X147946533Y-104823616D01*
X147947306Y-104626608D01*
X147952629Y-104495285D01*
X147967007Y-104410668D01*
X147994947Y-104353775D01*
X148040956Y-104305626D01*
X148076782Y-104274996D01*
X148214543Y-104191379D01*
X148378246Y-104165468D01*
X148389470Y-104165400D01*
X148496572Y-104172869D01*
X148585393Y-104204344D01*
X148682623Y-104273422D01*
X148788388Y-104368640D01*
X148901685Y-104478144D01*
X148966340Y-104558831D01*
X148995923Y-104639315D01*
X149004004Y-104748209D01*
X149004219Y-104823723D01*
X149335693Y-104823723D01*
X149334321Y-104510515D01*
X149333561Y-104414326D01*
X149322367Y-103085900D01*
X149212910Y-103073176D01*
X149112477Y-103083889D01*
X149112477Y-103083889D01*
G37*
X149112477Y-103083889D02*
X149055731Y-103117954D01*
X149034246Y-103183332D01*
X149015245Y-103313213D01*
X149001166Y-103487433D01*
X148995854Y-103613238D01*
X148983700Y-104051020D01*
X148850589Y-103938876D01*
X148774136Y-103881747D01*
X148696082Y-103848062D01*
X148591049Y-103831787D01*
X148433658Y-103826888D01*
X148378917Y-103826733D01*
X148205350Y-103829150D01*
X148089182Y-103841297D01*
X148003179Y-103870522D01*
X147920107Y-103924168D01*
X147868826Y-103964316D01*
X147744445Y-104075791D01*
X147658764Y-104188760D01*
X147604997Y-104322340D01*
X147576358Y-104495647D01*
X147566062Y-104727796D01*
X147565533Y-104818740D01*
X147571531Y-105081259D01*
X147593653Y-105277870D01*
X147638093Y-105426749D01*
X147711046Y-105546069D01*
X147818707Y-105654005D01*
X147862426Y-105689843D01*
X147995966Y-105781291D01*
X148126719Y-105829604D01*
X148289667Y-105850859D01*
X148497531Y-105856905D01*
X148650884Y-105835184D01*
X148777234Y-105778922D01*
X148874604Y-105706815D01*
X148957371Y-105641326D01*
X148995006Y-105629174D01*
X149004745Y-105666437D01*
X149004867Y-105677170D01*
X149037058Y-105782125D01*
X149115246Y-105844939D01*
X149211857Y-105853933D01*
X149296628Y-105800743D01*
X149311342Y-105752180D01*
X149322519Y-105643219D01*
X149330282Y-105469216D01*
X149334754Y-105225527D01*
X149336059Y-104907508D01*
X149335693Y-104823723D01*
X149004219Y-104823723D01*
X149001093Y-104976449D01*
X148983442Y-105079161D01*
X148937406Y-105159984D01*
X148849126Y-105247045D01*
X148757445Y-105324535D01*
X148631128Y-105418581D01*
X148522580Y-105464493D01*
X148393558Y-105477629D01*
X148376012Y-105477733D01*
X148223554Y-105463377D01*
X148111697Y-105411030D01*
X148062518Y-105370186D01*
X148010427Y-105317774D01*
X147976848Y-105264068D01*
X147957725Y-105189953D01*
X147949000Y-105076317D01*
X147946619Y-104904043D01*
X147946533Y-104823616D01*
X147947306Y-104626608D01*
X147952629Y-104495285D01*
X147967007Y-104410668D01*
X147994947Y-104353775D01*
X148040956Y-104305626D01*
X148076782Y-104274996D01*
X148214543Y-104191379D01*
X148378246Y-104165468D01*
X148389470Y-104165400D01*
X148496572Y-104172869D01*
X148585393Y-104204344D01*
X148682623Y-104273422D01*
X148788388Y-104368640D01*
X148901685Y-104478144D01*
X148966340Y-104558831D01*
X148995923Y-104639315D01*
X149004004Y-104748209D01*
X149004219Y-104823723D01*
X149335693Y-104823723D01*
X149334321Y-104510515D01*
X149333561Y-104414326D01*
X149322367Y-103085900D01*
X149212910Y-103073176D01*
X149112477Y-103083889D01*
G36*
X146575196Y-103826891D02*
X146346595Y-103833934D01*
X146176981Y-103860821D01*
X146041378Y-103916518D01*
X145914808Y-104009989D01*
X145824455Y-104096356D01*
X145741502Y-104205319D01*
X145690284Y-104342008D01*
X145665323Y-104526686D01*
X145660533Y-104702641D01*
X145661708Y-104842533D01*
X145672901Y-104944662D01*
X145705616Y-105014968D01*
X145771359Y-105059387D01*
X145881633Y-105083858D01*
X146047943Y-105094319D01*
X146281793Y-105096709D01*
X146424023Y-105096733D01*
X146695780Y-105097867D01*
X146891036Y-105103680D01*
X147017954Y-105117785D01*
X147084691Y-105143794D01*
X147099409Y-105185323D01*
X147070268Y-105245984D01*
X147005428Y-105329391D01*
X146990270Y-105347485D01*
X146880674Y-105477733D01*
X146337127Y-105477733D01*
X146100961Y-105479709D01*
X145935242Y-105486664D01*
X145825821Y-105500143D01*
X145758551Y-105521687D01*
X145727057Y-105544257D01*
X145666268Y-105641979D01*
X145685958Y-105746340D01*
X145701889Y-105774066D01*
X145735261Y-105800544D01*
X145805051Y-105820055D01*
X145923390Y-105834046D01*
X146102408Y-105843965D01*
X146347444Y-105851109D01*
X146952939Y-105864652D01*
X147152639Y-105712170D01*
X147269106Y-105615410D01*
X147359924Y-105525865D01*
X147395436Y-105479160D01*
X147413349Y-105402332D01*
X147426366Y-105261660D01*
X147434431Y-105077827D01*
X147437491Y-104871517D01*
X147435492Y-104663413D01*
X147431731Y-104563384D01*
X147099867Y-104563384D01*
X147099867Y-104715733D01*
X146041533Y-104715733D01*
X146041533Y-104550163D01*
X146057761Y-104419746D01*
X146120639Y-104321975D01*
X146171782Y-104274996D01*
X146261198Y-104211710D01*
X146357688Y-104178399D01*
X146493115Y-104166281D01*
X146569471Y-104165400D01*
X146725313Y-104170134D01*
X146828119Y-104190782D01*
X146909288Y-104237010D01*
X146968390Y-104288217D01*
X147063365Y-104401470D01*
X147098311Y-104522048D01*
X147099867Y-104563384D01*
X147431731Y-104563384D01*
X147428377Y-104474200D01*
X147416094Y-104324561D01*
X147398715Y-104235515D01*
X147343599Y-104152477D01*
X147243668Y-104049178D01*
X147159794Y-103978759D01*
X147061842Y-103906786D01*
X146981261Y-103862099D01*
X146893077Y-103838212D01*
X146772321Y-103828637D01*
X146594019Y-103826887D01*
X146575196Y-103826891D01*
X146575196Y-103826891D01*
G37*
X146575196Y-103826891D02*
X146346595Y-103833934D01*
X146176981Y-103860821D01*
X146041378Y-103916518D01*
X145914808Y-104009989D01*
X145824455Y-104096356D01*
X145741502Y-104205319D01*
X145690284Y-104342008D01*
X145665323Y-104526686D01*
X145660533Y-104702641D01*
X145661708Y-104842533D01*
X145672901Y-104944662D01*
X145705616Y-105014968D01*
X145771359Y-105059387D01*
X145881633Y-105083858D01*
X146047943Y-105094319D01*
X146281793Y-105096709D01*
X146424023Y-105096733D01*
X146695780Y-105097867D01*
X146891036Y-105103680D01*
X147017954Y-105117785D01*
X147084691Y-105143794D01*
X147099409Y-105185323D01*
X147070268Y-105245984D01*
X147005428Y-105329391D01*
X146990270Y-105347485D01*
X146880674Y-105477733D01*
X146337127Y-105477733D01*
X146100961Y-105479709D01*
X145935242Y-105486664D01*
X145825821Y-105500143D01*
X145758551Y-105521687D01*
X145727057Y-105544257D01*
X145666268Y-105641979D01*
X145685958Y-105746340D01*
X145701889Y-105774066D01*
X145735261Y-105800544D01*
X145805051Y-105820055D01*
X145923390Y-105834046D01*
X146102408Y-105843965D01*
X146347444Y-105851109D01*
X146952939Y-105864652D01*
X147152639Y-105712170D01*
X147269106Y-105615410D01*
X147359924Y-105525865D01*
X147395436Y-105479160D01*
X147413349Y-105402332D01*
X147426366Y-105261660D01*
X147434431Y-105077827D01*
X147437491Y-104871517D01*
X147435492Y-104663413D01*
X147431731Y-104563384D01*
X147099867Y-104563384D01*
X147099867Y-104715733D01*
X146041533Y-104715733D01*
X146041533Y-104550163D01*
X146057761Y-104419746D01*
X146120639Y-104321975D01*
X146171782Y-104274996D01*
X146261198Y-104211710D01*
X146357688Y-104178399D01*
X146493115Y-104166281D01*
X146569471Y-104165400D01*
X146725313Y-104170134D01*
X146828119Y-104190782D01*
X146909288Y-104237010D01*
X146968390Y-104288217D01*
X147063365Y-104401470D01*
X147098311Y-104522048D01*
X147099867Y-104563384D01*
X147431731Y-104563384D01*
X147428377Y-104474200D01*
X147416094Y-104324561D01*
X147398715Y-104235515D01*
X147343599Y-104152477D01*
X147243668Y-104049178D01*
X147159794Y-103978759D01*
X147061842Y-103906786D01*
X146981261Y-103862099D01*
X146893077Y-103838212D01*
X146772321Y-103828637D01*
X146594019Y-103826887D01*
X146575196Y-103826891D01*
G36*
X144234708Y-103829187D02*
X144128188Y-103841981D01*
X144052931Y-103873266D01*
X143982249Y-103931189D01*
X143948608Y-103964316D01*
X143811483Y-104101900D01*
X143782974Y-104897435D01*
X143773462Y-105209891D01*
X143771196Y-105447662D01*
X143777626Y-105620532D01*
X143794200Y-105738284D01*
X143822368Y-105810701D01*
X143863580Y-105847566D01*
X143919284Y-105858664D01*
X143925380Y-105858733D01*
X143992714Y-105845817D01*
X144044437Y-105800584D01*
X144083022Y-105713305D01*
X144110942Y-105574249D01*
X144130669Y-105373689D01*
X144144676Y-105101894D01*
X144148984Y-104978808D01*
X144161918Y-104675711D01*
X144178831Y-104446990D01*
X144199387Y-104296095D01*
X144222452Y-104227391D01*
X144324968Y-104167961D01*
X144476806Y-104174245D01*
X144674717Y-104245587D01*
X144882192Y-104360281D01*
X145194867Y-104555163D01*
X145194867Y-105156148D01*
X145197071Y-105417583D01*
X145205531Y-105605932D01*
X145223022Y-105732706D01*
X145252318Y-105809413D01*
X145296193Y-105847563D01*
X145357420Y-105858667D01*
X145364200Y-105858733D01*
X145453089Y-105830490D01*
X145482733Y-105807933D01*
X145497797Y-105751907D01*
X145510436Y-105626431D01*
X145520542Y-105446689D01*
X145528008Y-105227867D01*
X145532723Y-104985148D01*
X145534581Y-104733718D01*
X145533471Y-104488762D01*
X145529286Y-104265463D01*
X145521917Y-104079008D01*
X145511256Y-103944579D01*
X145497194Y-103877363D01*
X145496542Y-103876260D01*
X145430529Y-103838749D01*
X145338440Y-103833926D01*
X145245370Y-103862048D01*
X145207087Y-103934713D01*
X145202638Y-103964316D01*
X145186977Y-104041710D01*
X145153084Y-104072090D01*
X145085829Y-104054905D01*
X144970080Y-103989600D01*
X144912882Y-103953733D01*
X144794256Y-103885402D01*
X144687449Y-103846946D01*
X144559197Y-103830142D01*
X144399179Y-103826733D01*
X144234708Y-103829187D01*
X144234708Y-103829187D01*
G37*
X144234708Y-103829187D02*
X144128188Y-103841981D01*
X144052931Y-103873266D01*
X143982249Y-103931189D01*
X143948608Y-103964316D01*
X143811483Y-104101900D01*
X143782974Y-104897435D01*
X143773462Y-105209891D01*
X143771196Y-105447662D01*
X143777626Y-105620532D01*
X143794200Y-105738284D01*
X143822368Y-105810701D01*
X143863580Y-105847566D01*
X143919284Y-105858664D01*
X143925380Y-105858733D01*
X143992714Y-105845817D01*
X144044437Y-105800584D01*
X144083022Y-105713305D01*
X144110942Y-105574249D01*
X144130669Y-105373689D01*
X144144676Y-105101894D01*
X144148984Y-104978808D01*
X144161918Y-104675711D01*
X144178831Y-104446990D01*
X144199387Y-104296095D01*
X144222452Y-104227391D01*
X144324968Y-104167961D01*
X144476806Y-104174245D01*
X144674717Y-104245587D01*
X144882192Y-104360281D01*
X145194867Y-104555163D01*
X145194867Y-105156148D01*
X145197071Y-105417583D01*
X145205531Y-105605932D01*
X145223022Y-105732706D01*
X145252318Y-105809413D01*
X145296193Y-105847563D01*
X145357420Y-105858667D01*
X145364200Y-105858733D01*
X145453089Y-105830490D01*
X145482733Y-105807933D01*
X145497797Y-105751907D01*
X145510436Y-105626431D01*
X145520542Y-105446689D01*
X145528008Y-105227867D01*
X145532723Y-104985148D01*
X145534581Y-104733718D01*
X145533471Y-104488762D01*
X145529286Y-104265463D01*
X145521917Y-104079008D01*
X145511256Y-103944579D01*
X145497194Y-103877363D01*
X145496542Y-103876260D01*
X145430529Y-103838749D01*
X145338440Y-103833926D01*
X145245370Y-103862048D01*
X145207087Y-103934713D01*
X145202638Y-103964316D01*
X145186977Y-104041710D01*
X145153084Y-104072090D01*
X145085829Y-104054905D01*
X144970080Y-103989600D01*
X144912882Y-103953733D01*
X144794256Y-103885402D01*
X144687449Y-103846946D01*
X144559197Y-103830142D01*
X144399179Y-103826733D01*
X144234708Y-103829187D01*
G36*
X141962541Y-103070479D02*
X141925709Y-103094978D01*
X141897988Y-103147331D01*
X141878085Y-103235779D01*
X141864705Y-103368566D01*
X141856554Y-103553935D01*
X141852338Y-103800129D01*
X141850763Y-104115391D01*
X141850533Y-104461733D01*
X141851097Y-104837709D01*
X141853048Y-105137576D01*
X141856774Y-105369886D01*
X141862664Y-105543190D01*
X141871106Y-105666041D01*
X141882489Y-105746989D01*
X141897201Y-105794587D01*
X141912000Y-105814712D01*
X142003471Y-105858975D01*
X142090058Y-105829113D01*
X142179238Y-105721184D01*
X142218513Y-105653031D01*
X142254158Y-105665314D01*
X142333440Y-105714432D01*
X142365732Y-105736859D01*
X142522477Y-105808745D01*
X142724177Y-105847841D01*
X142936825Y-105851907D01*
X143126414Y-105818704D01*
X143194352Y-105791414D01*
X143306028Y-105716801D01*
X143430007Y-105608881D01*
X143480102Y-105557118D01*
X143628533Y-105392822D01*
X143628533Y-104861675D01*
X143625090Y-104599215D01*
X143610990Y-104404443D01*
X143606796Y-104384592D01*
X143247533Y-104384592D01*
X143247533Y-104842965D01*
X143246717Y-105045291D01*
X143241740Y-105180701D01*
X143228813Y-105266942D01*
X143204147Y-105321764D01*
X143163951Y-105362915D01*
X143131117Y-105388194D01*
X142963920Y-105461269D01*
X142819577Y-105476392D01*
X142697831Y-105469080D01*
X142600370Y-105435590D01*
X142494450Y-105361573D01*
X142427994Y-105304802D01*
X142231533Y-105131871D01*
X142231533Y-104506035D01*
X142447002Y-104335717D01*
X142645769Y-104208870D01*
X142824472Y-104161648D01*
X142990027Y-104193426D01*
X143117285Y-104274996D01*
X143247533Y-104384592D01*
X143606796Y-104384592D01*
X143580582Y-104260527D01*
X143528212Y-104150636D01*
X143448229Y-104057938D01*
X143334980Y-103965604D01*
X143325162Y-103958352D01*
X143225029Y-103890384D01*
X143135599Y-103850877D01*
X143027693Y-103832241D01*
X142872129Y-103826886D01*
X142819108Y-103826733D01*
X142645451Y-103829970D01*
X142530286Y-103843844D01*
X142447554Y-103874600D01*
X142371194Y-103928484D01*
X142361782Y-103936329D01*
X142231533Y-104045926D01*
X142227314Y-103671746D01*
X142220738Y-103432316D01*
X142205141Y-103265016D01*
X142177259Y-103157507D01*
X142133828Y-103097448D01*
X142071586Y-103072500D01*
X142068718Y-103072066D01*
X142009780Y-103065589D01*
X141962541Y-103070479D01*
X141962541Y-103070479D01*
G37*
X141962541Y-103070479D02*
X141925709Y-103094978D01*
X141897988Y-103147331D01*
X141878085Y-103235779D01*
X141864705Y-103368566D01*
X141856554Y-103553935D01*
X141852338Y-103800129D01*
X141850763Y-104115391D01*
X141850533Y-104461733D01*
X141851097Y-104837709D01*
X141853048Y-105137576D01*
X141856774Y-105369886D01*
X141862664Y-105543190D01*
X141871106Y-105666041D01*
X141882489Y-105746989D01*
X141897201Y-105794587D01*
X141912000Y-105814712D01*
X142003471Y-105858975D01*
X142090058Y-105829113D01*
X142179238Y-105721184D01*
X142218513Y-105653031D01*
X142254158Y-105665314D01*
X142333440Y-105714432D01*
X142365732Y-105736859D01*
X142522477Y-105808745D01*
X142724177Y-105847841D01*
X142936825Y-105851907D01*
X143126414Y-105818704D01*
X143194352Y-105791414D01*
X143306028Y-105716801D01*
X143430007Y-105608881D01*
X143480102Y-105557118D01*
X143628533Y-105392822D01*
X143628533Y-104861675D01*
X143625090Y-104599215D01*
X143610990Y-104404443D01*
X143606796Y-104384592D01*
X143247533Y-104384592D01*
X143247533Y-104842965D01*
X143246717Y-105045291D01*
X143241740Y-105180701D01*
X143228813Y-105266942D01*
X143204147Y-105321764D01*
X143163951Y-105362915D01*
X143131117Y-105388194D01*
X142963920Y-105461269D01*
X142819577Y-105476392D01*
X142697831Y-105469080D01*
X142600370Y-105435590D01*
X142494450Y-105361573D01*
X142427994Y-105304802D01*
X142231533Y-105131871D01*
X142231533Y-104506035D01*
X142447002Y-104335717D01*
X142645769Y-104208870D01*
X142824472Y-104161648D01*
X142990027Y-104193426D01*
X143117285Y-104274996D01*
X143247533Y-104384592D01*
X143606796Y-104384592D01*
X143580582Y-104260527D01*
X143528212Y-104150636D01*
X143448229Y-104057938D01*
X143334980Y-103965604D01*
X143325162Y-103958352D01*
X143225029Y-103890384D01*
X143135599Y-103850877D01*
X143027693Y-103832241D01*
X142872129Y-103826886D01*
X142819108Y-103826733D01*
X142645451Y-103829970D01*
X142530286Y-103843844D01*
X142447554Y-103874600D01*
X142371194Y-103928484D01*
X142361782Y-103936329D01*
X142231533Y-104045926D01*
X142227314Y-103671746D01*
X142220738Y-103432316D01*
X142205141Y-103265016D01*
X142177259Y-103157507D01*
X142133828Y-103097448D01*
X142071586Y-103072500D01*
X142068718Y-103072066D01*
X142009780Y-103065589D01*
X141962541Y-103070479D01*
G36*
X140646020Y-103827882D02*
X140515818Y-103835125D01*
X140423840Y-103854151D01*
X140346868Y-103890652D01*
X140261679Y-103950318D01*
X140227552Y-103976255D01*
X140112082Y-104072412D01*
X140022349Y-104161498D01*
X139988631Y-104206306D01*
X139965171Y-104293323D01*
X139950963Y-104432666D01*
X139945780Y-104599638D01*
X139949395Y-104769536D01*
X139961583Y-104917662D01*
X139982116Y-105019316D01*
X139996333Y-105045933D01*
X140056122Y-105068421D01*
X140186563Y-105084163D01*
X140392184Y-105093488D01*
X140677512Y-105096725D01*
X140694833Y-105096733D01*
X140941585Y-105097231D01*
X141116141Y-105099838D01*
X141230969Y-105106220D01*
X141298538Y-105118044D01*
X141331318Y-105136977D01*
X141341777Y-105164687D01*
X141342533Y-105183324D01*
X141313831Y-105271626D01*
X141244184Y-105368141D01*
X141238624Y-105373824D01*
X141191603Y-105416587D01*
X141140569Y-105445662D01*
X141069114Y-105463682D01*
X140960827Y-105473278D01*
X140799299Y-105477083D01*
X140590924Y-105477733D01*
X140319147Y-105481801D01*
X140129833Y-105494109D01*
X140021167Y-105514811D01*
X139996333Y-105528533D01*
X139949898Y-105623842D01*
X139959580Y-105731356D01*
X140021059Y-105811258D01*
X140027417Y-105814910D01*
X140101971Y-105831768D01*
X140240601Y-105844108D01*
X140422835Y-105851881D01*
X140628200Y-105855040D01*
X140836223Y-105853536D01*
X141026432Y-105847322D01*
X141178354Y-105836350D01*
X141271517Y-105820571D01*
X141279033Y-105817839D01*
X141354824Y-105768308D01*
X141459484Y-105678800D01*
X141533033Y-105606816D01*
X141702367Y-105431320D01*
X141702367Y-104550163D01*
X141342533Y-104550163D01*
X141342533Y-104715733D01*
X140284200Y-104715733D01*
X140284200Y-104548554D01*
X140297022Y-104426321D01*
X140349598Y-104339056D01*
X140425779Y-104273387D01*
X140528952Y-104208365D01*
X140640783Y-104175574D01*
X140796307Y-104165530D01*
X140824698Y-104165400D01*
X140984467Y-104171959D01*
X141093371Y-104197898D01*
X141184619Y-104252606D01*
X141212285Y-104274996D01*
X141304138Y-104372913D01*
X141339429Y-104482539D01*
X141342533Y-104550163D01*
X141702367Y-104550163D01*
X141702367Y-104240882D01*
X141477164Y-104033807D01*
X141251961Y-103826733D01*
X140837668Y-103826733D01*
X140646020Y-103827882D01*
X140646020Y-103827882D01*
G37*
X140646020Y-103827882D02*
X140515818Y-103835125D01*
X140423840Y-103854151D01*
X140346868Y-103890652D01*
X140261679Y-103950318D01*
X140227552Y-103976255D01*
X140112082Y-104072412D01*
X140022349Y-104161498D01*
X139988631Y-104206306D01*
X139965171Y-104293323D01*
X139950963Y-104432666D01*
X139945780Y-104599638D01*
X139949395Y-104769536D01*
X139961583Y-104917662D01*
X139982116Y-105019316D01*
X139996333Y-105045933D01*
X140056122Y-105068421D01*
X140186563Y-105084163D01*
X140392184Y-105093488D01*
X140677512Y-105096725D01*
X140694833Y-105096733D01*
X140941585Y-105097231D01*
X141116141Y-105099838D01*
X141230969Y-105106220D01*
X141298538Y-105118044D01*
X141331318Y-105136977D01*
X141341777Y-105164687D01*
X141342533Y-105183324D01*
X141313831Y-105271626D01*
X141244184Y-105368141D01*
X141238624Y-105373824D01*
X141191603Y-105416587D01*
X141140569Y-105445662D01*
X141069114Y-105463682D01*
X140960827Y-105473278D01*
X140799299Y-105477083D01*
X140590924Y-105477733D01*
X140319147Y-105481801D01*
X140129833Y-105494109D01*
X140021167Y-105514811D01*
X139996333Y-105528533D01*
X139949898Y-105623842D01*
X139959580Y-105731356D01*
X140021059Y-105811258D01*
X140027417Y-105814910D01*
X140101971Y-105831768D01*
X140240601Y-105844108D01*
X140422835Y-105851881D01*
X140628200Y-105855040D01*
X140836223Y-105853536D01*
X141026432Y-105847322D01*
X141178354Y-105836350D01*
X141271517Y-105820571D01*
X141279033Y-105817839D01*
X141354824Y-105768308D01*
X141459484Y-105678800D01*
X141533033Y-105606816D01*
X141702367Y-105431320D01*
X141702367Y-104550163D01*
X141342533Y-104550163D01*
X141342533Y-104715733D01*
X140284200Y-104715733D01*
X140284200Y-104548554D01*
X140297022Y-104426321D01*
X140349598Y-104339056D01*
X140425779Y-104273387D01*
X140528952Y-104208365D01*
X140640783Y-104175574D01*
X140796307Y-104165530D01*
X140824698Y-104165400D01*
X140984467Y-104171959D01*
X141093371Y-104197898D01*
X141184619Y-104252606D01*
X141212285Y-104274996D01*
X141304138Y-104372913D01*
X141339429Y-104482539D01*
X141342533Y-104550163D01*
X141702367Y-104550163D01*
X141702367Y-104240882D01*
X141477164Y-104033807D01*
X141251961Y-103826733D01*
X140837668Y-103826733D01*
X140646020Y-103827882D01*
G36*
X138330479Y-103860443D02*
X138197703Y-103946045D01*
X138132193Y-104017958D01*
X138067321Y-104141773D01*
X138038418Y-104285904D01*
X138043247Y-104428225D01*
X138079573Y-104546610D01*
X138145161Y-104618932D01*
X138194143Y-104631066D01*
X138280029Y-104594402D01*
X138350258Y-104505910D01*
X138379200Y-104398233D01*
X138415757Y-104272056D01*
X138517105Y-104191022D01*
X138654879Y-104165400D01*
X138743022Y-104178588D01*
X138844168Y-104224405D01*
X138975172Y-104312231D01*
X139117522Y-104422835D01*
X139437533Y-104680271D01*
X139437533Y-105218702D01*
X139440252Y-105467075D01*
X139450552Y-105642825D01*
X139471650Y-105757880D01*
X139506766Y-105824173D01*
X139559116Y-105853631D01*
X139610150Y-105858733D01*
X139693927Y-105828337D01*
X139739267Y-105788846D01*
X139761156Y-105740220D01*
X139778271Y-105647180D01*
X139791339Y-105500503D01*
X139801086Y-105290964D01*
X139808241Y-105009340D01*
X139810335Y-104887707D01*
X139813711Y-104556551D01*
X139811214Y-104300710D01*
X139801311Y-104110943D01*
X139782468Y-103978011D01*
X139753152Y-103892673D01*
X139711828Y-103845690D01*
X139656965Y-103827819D01*
X139634265Y-103826733D01*
X139520297Y-103856435D01*
X139452965Y-103950557D01*
X139430696Y-104052256D01*
X139416367Y-104171946D01*
X139209589Y-104010406D01*
X139075152Y-103915082D01*
X138955355Y-103861441D01*
X138809178Y-103833702D01*
X138730237Y-103825995D01*
X138501539Y-103822496D01*
X138330479Y-103860443D01*
X138330479Y-103860443D01*
G37*
X138330479Y-103860443D02*
X138197703Y-103946045D01*
X138132193Y-104017958D01*
X138067321Y-104141773D01*
X138038418Y-104285904D01*
X138043247Y-104428225D01*
X138079573Y-104546610D01*
X138145161Y-104618932D01*
X138194143Y-104631066D01*
X138280029Y-104594402D01*
X138350258Y-104505910D01*
X138379200Y-104398233D01*
X138415757Y-104272056D01*
X138517105Y-104191022D01*
X138654879Y-104165400D01*
X138743022Y-104178588D01*
X138844168Y-104224405D01*
X138975172Y-104312231D01*
X139117522Y-104422835D01*
X139437533Y-104680271D01*
X139437533Y-105218702D01*
X139440252Y-105467075D01*
X139450552Y-105642825D01*
X139471650Y-105757880D01*
X139506766Y-105824173D01*
X139559116Y-105853631D01*
X139610150Y-105858733D01*
X139693927Y-105828337D01*
X139739267Y-105788846D01*
X139761156Y-105740220D01*
X139778271Y-105647180D01*
X139791339Y-105500503D01*
X139801086Y-105290964D01*
X139808241Y-105009340D01*
X139810335Y-104887707D01*
X139813711Y-104556551D01*
X139811214Y-104300710D01*
X139801311Y-104110943D01*
X139782468Y-103978011D01*
X139753152Y-103892673D01*
X139711828Y-103845690D01*
X139656965Y-103827819D01*
X139634265Y-103826733D01*
X139520297Y-103856435D01*
X139452965Y-103950557D01*
X139430696Y-104052256D01*
X139416367Y-104171946D01*
X139209589Y-104010406D01*
X139075152Y-103915082D01*
X138955355Y-103861441D01*
X138809178Y-103833702D01*
X138730237Y-103825995D01*
X138501539Y-103822496D01*
X138330479Y-103860443D01*
G36*
X142993533Y-96534033D02*
X142986339Y-96645612D01*
X142951187Y-96703760D01*
X142867724Y-96739375D01*
X142855950Y-96742882D01*
X142778370Y-96769682D01*
X142738228Y-96807351D01*
X142724504Y-96879861D01*
X142726176Y-97011181D01*
X142726618Y-97024173D01*
X142727856Y-97154134D01*
X142722537Y-97241597D01*
X142714669Y-97265066D01*
X142668655Y-97250834D01*
X142563170Y-97212845D01*
X142417605Y-97158158D01*
X142353278Y-97133489D01*
X142164724Y-97068472D01*
X142033609Y-97038757D01*
X141964735Y-97042827D01*
X141962903Y-97079167D01*
X142032913Y-97146262D01*
X142121037Y-97206801D01*
X142228202Y-97278494D01*
X142298611Y-97332784D01*
X142314654Y-97351591D01*
X142277974Y-97373945D01*
X142178484Y-97414396D01*
X142034219Y-97465887D01*
X141956367Y-97491800D01*
X141757395Y-97563416D01*
X141640612Y-97623504D01*
X141604767Y-97674877D01*
X141648606Y-97720346D01*
X141770875Y-97762724D01*
X141829367Y-97776767D01*
X141955876Y-97809638D01*
X142040437Y-97840342D01*
X142062200Y-97857090D01*
X142034026Y-97901787D01*
X141964821Y-97974889D01*
X141950911Y-97987937D01*
X141871922Y-98080970D01*
X141795375Y-98201812D01*
X141740002Y-98317705D01*
X141723533Y-98385540D01*
X141761611Y-98398448D01*
X141858869Y-98406598D01*
X141933097Y-98408066D01*
X142079394Y-98397754D01*
X142163057Y-98362952D01*
X142187988Y-98333983D01*
X142214127Y-98306744D01*
X142225843Y-98343296D01*
X142225732Y-98453271D01*
X142225058Y-98471566D01*
X142224418Y-98591320D01*
X142242220Y-98653554D01*
X142290609Y-98659750D01*
X142381731Y-98611390D01*
X142527731Y-98509956D01*
X142529479Y-98508700D01*
X142643343Y-98431557D01*
X142727675Y-98383115D01*
X142761574Y-98373662D01*
X142765054Y-98421895D01*
X142755390Y-98528447D01*
X142738858Y-98643506D01*
X142701412Y-99034902D01*
X142721484Y-99388558D01*
X142797556Y-99695781D01*
X142928111Y-99947880D01*
X142977485Y-100011239D01*
X143058635Y-100111709D01*
X143110472Y-100186771D01*
X143120533Y-100210241D01*
X143097153Y-100250700D01*
X143034702Y-100343012D01*
X142944719Y-100471156D01*
X142838743Y-100619109D01*
X142728311Y-100770847D01*
X142624962Y-100910348D01*
X142540232Y-101021589D01*
X142500506Y-101071274D01*
X142457242Y-101065271D01*
X142355828Y-101033619D01*
X142216464Y-100982761D01*
X142186355Y-100971064D01*
X141808678Y-100791736D01*
X141508416Y-100580658D01*
X141286090Y-100338303D01*
X141142220Y-100065142D01*
X141122467Y-100005389D01*
X141094884Y-99895026D01*
X141101039Y-99835462D01*
X141143855Y-99798639D01*
X141144011Y-99798552D01*
X141204078Y-99726832D01*
X141202114Y-99627399D01*
X141149638Y-99514479D01*
X141058168Y-99402296D01*
X140939224Y-99305076D01*
X140804324Y-99237045D01*
X140669386Y-99212400D01*
X140599718Y-99222654D01*
X140593501Y-99257651D01*
X140653908Y-99323738D01*
X140772342Y-99418427D01*
X140902735Y-99530731D01*
X140956111Y-99614638D01*
X140933949Y-99673477D01*
X140894967Y-99694552D01*
X140787590Y-99692169D01*
X140666396Y-99614422D01*
X140583817Y-99524458D01*
X140495867Y-99412648D01*
X140495867Y-99523758D01*
X140511932Y-99597707D01*
X140569967Y-99670763D01*
X140684728Y-99759668D01*
X140731985Y-99791642D01*
X140881602Y-99903137D01*
X140983961Y-100017975D01*
X141069891Y-100172233D01*
X141085014Y-100204824D01*
X141232719Y-100454152D01*
X141436756Y-100669077D01*
X141707199Y-100858619D01*
X141963273Y-100991210D01*
X142123720Y-101066263D01*
X142252846Y-101128411D01*
X142332916Y-101169023D01*
X142349868Y-101179289D01*
X142337363Y-101220807D01*
X142290508Y-101321451D01*
X142216527Y-101466592D01*
X142122646Y-101641600D01*
X142111980Y-101661019D01*
X141935646Y-102003740D01*
X141806874Y-102312696D01*
X141716251Y-102616747D01*
X141654362Y-102944755D01*
X141629918Y-103138854D01*
X141608494Y-103373263D01*
X141604547Y-103528460D01*
X141618335Y-103608129D01*
X141650113Y-103615955D01*
X141662431Y-103605613D01*
X141677766Y-103556297D01*
X141700545Y-103441763D01*
X141727310Y-103280755D01*
X141747040Y-103147060D01*
X141774196Y-102964735D01*
X141799324Y-102815881D01*
X141819115Y-102719048D01*
X141828214Y-102691941D01*
X141871689Y-102701482D01*
X141977763Y-102741279D01*
X142132391Y-102805612D01*
X142321529Y-102888761D01*
X142410355Y-102929052D01*
X142633297Y-103028851D01*
X142850433Y-103122090D01*
X143039935Y-103199653D01*
X143179981Y-103252428D01*
X143204047Y-103260470D01*
X143312817Y-103293224D01*
X143401994Y-103310171D01*
X143495209Y-103310791D01*
X143616097Y-103294564D01*
X143788290Y-103260969D01*
X143860214Y-103246021D01*
X144038121Y-103210316D01*
X144182121Y-103184135D01*
X144274185Y-103170595D01*
X144298130Y-103170355D01*
X144287949Y-103211749D01*
X144247730Y-103305447D01*
X144202167Y-103399190D01*
X144092774Y-103615066D01*
X144306482Y-103615066D01*
X144449356Y-103604678D01*
X144529395Y-103575837D01*
X144539675Y-103562150D01*
X144570379Y-103447919D01*
X144605418Y-103268085D01*
X144642215Y-103041429D01*
X144678198Y-102786733D01*
X144703917Y-102578434D01*
X144599909Y-102578434D01*
X144591255Y-102695918D01*
X144571998Y-102780442D01*
X144541967Y-102842235D01*
X144510154Y-102882088D01*
X144464179Y-102924759D01*
X144410287Y-102952870D01*
X144330923Y-102969432D01*
X144208532Y-102977453D01*
X144025561Y-102979944D01*
X143938654Y-102980066D01*
X143731750Y-102979395D01*
X143595003Y-102975458D01*
X143513906Y-102965373D01*
X143473948Y-102946255D01*
X143460623Y-102915223D01*
X143459372Y-102884816D01*
X143467241Y-102810991D01*
X143488797Y-102671334D01*
X143521148Y-102483038D01*
X143561403Y-102263300D01*
X143582132Y-102154566D01*
X143627479Y-101918536D01*
X143669296Y-101698802D01*
X143703882Y-101514965D01*
X143727534Y-101386625D01*
X143733199Y-101354667D01*
X143746758Y-101276150D01*
X143670477Y-101276150D01*
X143661234Y-101363331D01*
X143636492Y-101510111D01*
X143599911Y-101699924D01*
X143555155Y-101916199D01*
X143505884Y-102142371D01*
X143455760Y-102361870D01*
X143408446Y-102558129D01*
X143367602Y-102714581D01*
X143336890Y-102814656D01*
X143324620Y-102841033D01*
X143250392Y-102873112D01*
X143109526Y-102883308D01*
X142916948Y-102872451D01*
X142687581Y-102841373D01*
X142440119Y-102791781D01*
X142210691Y-102724951D01*
X142058216Y-102643905D01*
X141975146Y-102539682D01*
X141953933Y-102403323D01*
X141981131Y-102247039D01*
X142042006Y-102073790D01*
X142139217Y-101856642D01*
X142260095Y-101620736D01*
X142391970Y-101391216D01*
X142486365Y-101244400D01*
X142610332Y-101072002D01*
X142736350Y-100912922D01*
X142853371Y-100779335D01*
X142950345Y-100683417D01*
X143016225Y-100637344D01*
X143036116Y-100638560D01*
X143062957Y-100692351D01*
X143107470Y-100805544D01*
X143161473Y-100956918D01*
X143179959Y-101011566D01*
X143234314Y-101174180D01*
X143279631Y-101309264D01*
X143308241Y-101393973D01*
X143312530Y-101406465D01*
X143347473Y-101420150D01*
X143418233Y-101359357D01*
X143441740Y-101332381D01*
X143538884Y-101239150D01*
X143616981Y-101204949D01*
X143663241Y-101232925D01*
X143670477Y-101276150D01*
X143746758Y-101276150D01*
X143761677Y-101189768D01*
X143847329Y-101330613D01*
X143932982Y-101471457D01*
X144066508Y-101252976D01*
X144153229Y-101109393D01*
X144233266Y-100974102D01*
X144271878Y-100907083D01*
X144326492Y-100823538D01*
X144371547Y-100790046D01*
X144409286Y-100812364D01*
X144441952Y-100896247D01*
X144471787Y-101047449D01*
X144501035Y-101271727D01*
X144531890Y-101574326D01*
X144563949Y-101925936D01*
X144586086Y-102203672D01*
X144598129Y-102417762D01*
X144599909Y-102578434D01*
X144703917Y-102578434D01*
X144710790Y-102522778D01*
X144737417Y-102268344D01*
X144755503Y-102042215D01*
X144760221Y-101953483D01*
X144782771Y-101413733D01*
X145009097Y-101413733D01*
X145297562Y-101386264D01*
X145574217Y-101299644D01*
X145853705Y-101147556D01*
X146150672Y-100923683D01*
X146156501Y-100918759D01*
X146331790Y-100775353D01*
X146510004Y-100637842D01*
X146666595Y-100524774D01*
X146750617Y-100469849D01*
X146898053Y-100363540D01*
X146966597Y-100261660D01*
X146961841Y-100183657D01*
X146803533Y-100183657D01*
X146799471Y-100280930D01*
X146771099Y-100321732D01*
X146694144Y-100325654D01*
X146634200Y-100320322D01*
X146528166Y-100303649D01*
X146469186Y-100281635D01*
X146464867Y-100274591D01*
X146492760Y-100224215D01*
X146560813Y-100150934D01*
X146645586Y-100075388D01*
X146723639Y-100018217D01*
X146771534Y-100000063D01*
X146774567Y-100001877D01*
X146793814Y-100059981D01*
X146803319Y-100164874D01*
X146803533Y-100183657D01*
X146961841Y-100183657D01*
X146959731Y-100149067D01*
X146880936Y-100010618D01*
X146862043Y-99985260D01*
X146751219Y-99839963D01*
X146586876Y-100000439D01*
X146479187Y-100130242D01*
X146425920Y-100249095D01*
X146432134Y-100341406D01*
X146464867Y-100376566D01*
X146495143Y-100404966D01*
X146495146Y-100443417D01*
X146457472Y-100501419D01*
X146374718Y-100588472D01*
X146239480Y-100714077D01*
X146115617Y-100824712D01*
X145888251Y-101018636D01*
X145701424Y-101157512D01*
X145539363Y-101249518D01*
X145386296Y-101302834D01*
X145226450Y-101325635D01*
X145144706Y-101328136D01*
X144968110Y-101324809D01*
X144842633Y-101304437D01*
X144753275Y-101253841D01*
X144685039Y-101159841D01*
X144622927Y-101009254D01*
X144559739Y-100814040D01*
X144484524Y-100568456D01*
X144446107Y-100430329D01*
X144381063Y-100430329D01*
X144376639Y-100502220D01*
X144347534Y-100590200D01*
X144287851Y-100708563D01*
X144191691Y-100871605D01*
X144084947Y-101043161D01*
X143958573Y-101244090D01*
X143833185Y-101170161D01*
X143757504Y-101106849D01*
X143742462Y-101090999D01*
X143522087Y-101090999D01*
X143491509Y-101126510D01*
X143475922Y-101138648D01*
X143393917Y-101187978D01*
X143334860Y-101182986D01*
X143288110Y-101114532D01*
X143243024Y-100973480D01*
X143231513Y-100928783D01*
X143191758Y-100768677D01*
X143170944Y-100673674D01*
X143167295Y-100626785D01*
X143179039Y-100611020D01*
X143198164Y-100609400D01*
X143238274Y-100641737D01*
X143309318Y-100726461D01*
X143394802Y-100843661D01*
X143479102Y-100969099D01*
X143519741Y-101045036D01*
X143522087Y-101090999D01*
X143742462Y-101090999D01*
X143648318Y-100991800D01*
X143521182Y-100842283D01*
X143410684Y-100701076D01*
X143295635Y-100545339D01*
X143203904Y-100415928D01*
X143144988Y-100326614D01*
X143128161Y-100291328D01*
X143172734Y-100292399D01*
X143278426Y-100306577D01*
X143423381Y-100330120D01*
X143585744Y-100359283D01*
X143743661Y-100390326D01*
X143871950Y-100418700D01*
X143948370Y-100463362D01*
X143958831Y-100548411D01*
X143903472Y-100679653D01*
X143879081Y-100720819D01*
X143820049Y-100822485D01*
X143809815Y-100856906D01*
X143847168Y-100825154D01*
X143930899Y-100728305D01*
X144059797Y-100567434D01*
X144077782Y-100544467D01*
X144327033Y-100225534D01*
X144366704Y-100360230D01*
X144381063Y-100430329D01*
X144446107Y-100430329D01*
X144434404Y-100388252D01*
X144408575Y-100258200D01*
X144406235Y-100163070D01*
X144426579Y-100087635D01*
X144468806Y-100016665D01*
X144514530Y-99956984D01*
X144622962Y-99794484D01*
X144698734Y-99613217D01*
X144745161Y-99397457D01*
X144765563Y-99131476D01*
X144763257Y-98799548D01*
X144762610Y-98781065D01*
X144756276Y-98578019D01*
X144752922Y-98409585D01*
X144752722Y-98291578D01*
X144755849Y-98239812D01*
X144756672Y-98238733D01*
X144797846Y-98257105D01*
X144894235Y-98305678D01*
X145026444Y-98374639D01*
X145051273Y-98387783D01*
X145207746Y-98466166D01*
X145316753Y-98501696D01*
X145386847Y-98486280D01*
X145426583Y-98411829D01*
X145444513Y-98270251D01*
X145449190Y-98053456D01*
X145449280Y-98011299D01*
X145452506Y-97799145D01*
X145464523Y-97645321D01*
X145470352Y-97616992D01*
X145209142Y-97616992D01*
X145094016Y-97716018D01*
X144997789Y-97828521D01*
X144928129Y-97959907D01*
X144877367Y-98104769D01*
X144644533Y-98002250D01*
X144532313Y-97956871D01*
X144428041Y-97927805D01*
X144308788Y-97912079D01*
X144151620Y-97906718D01*
X143933606Y-97908749D01*
X143924867Y-97908912D01*
X143687116Y-97910084D01*
X143519744Y-97902304D01*
X143408815Y-97884332D01*
X143343840Y-97857223D01*
X143246515Y-97822985D01*
X143187347Y-97853541D01*
X143183422Y-97934167D01*
X143202256Y-97979231D01*
X143296115Y-98069088D01*
X143447159Y-98110301D01*
X143641491Y-98100225D01*
X143732334Y-98080153D01*
X143968532Y-98044315D01*
X144164693Y-98048837D01*
X144298598Y-98070481D01*
X144376981Y-98106328D01*
X144428941Y-98173312D01*
X144449878Y-98214788D01*
X144490647Y-98347451D01*
X144522128Y-98539516D01*
X144542842Y-98766080D01*
X144551308Y-99002240D01*
X144546048Y-99223091D01*
X144525580Y-99403732D01*
X144521685Y-99423151D01*
X144431515Y-99687495D01*
X144286524Y-99930454D01*
X144103482Y-100126621D01*
X144013962Y-100192357D01*
X143807675Y-100289050D01*
X143610105Y-100305784D01*
X143405121Y-100243540D01*
X143379422Y-100230894D01*
X143158002Y-100072396D01*
X142983505Y-99854271D01*
X142859337Y-99589516D01*
X142788903Y-99291130D01*
X142775611Y-98972114D01*
X142822865Y-98645464D01*
X142900356Y-98402623D01*
X142954604Y-98255714D01*
X142987652Y-98142329D01*
X142994114Y-98081914D01*
X142990503Y-98077168D01*
X142943129Y-98095097D01*
X142847371Y-98154516D01*
X142720991Y-98244064D01*
X142673079Y-98280215D01*
X142543205Y-98377090D01*
X142441320Y-98448065D01*
X142383734Y-98481978D01*
X142376947Y-98482924D01*
X142376716Y-98437134D01*
X142392873Y-98339532D01*
X142400867Y-98302233D01*
X142421186Y-98194146D01*
X142426012Y-98127820D01*
X142423664Y-98120419D01*
X142377037Y-98121672D01*
X142279707Y-98143485D01*
X142160817Y-98178252D01*
X142051617Y-98217504D01*
X141989044Y-98221725D01*
X141977533Y-98189999D01*
X142009086Y-98144016D01*
X142095701Y-98057536D01*
X142225315Y-97941663D01*
X142385865Y-97807499D01*
X142443200Y-97761405D01*
X142630975Y-97609833D01*
X142761115Y-97498224D01*
X142843741Y-97415774D01*
X142888975Y-97351678D01*
X142906941Y-97295131D01*
X142908867Y-97264335D01*
X142917666Y-97170943D01*
X142953083Y-97145764D01*
X143028644Y-97185475D01*
X143078200Y-97222733D01*
X143163339Y-97281064D01*
X143221242Y-97306435D01*
X143221814Y-97306458D01*
X143237808Y-97268785D01*
X143241042Y-97169468D01*
X143233047Y-97053400D01*
X143220504Y-96912903D01*
X143223606Y-96836798D01*
X143247252Y-96805494D01*
X143296342Y-96799400D01*
X143296564Y-96799400D01*
X143373702Y-96831268D01*
X143486424Y-96917788D01*
X143620253Y-97045328D01*
X143760712Y-97200257D01*
X143875170Y-97344197D01*
X143949506Y-97429384D01*
X144010452Y-97474549D01*
X144020554Y-97476733D01*
X144084066Y-97494051D01*
X144191610Y-97537962D01*
X144251127Y-97565640D01*
X144365571Y-97617210D01*
X144437659Y-97631427D01*
X144500000Y-97610295D01*
X144543079Y-97583590D01*
X144653574Y-97536950D01*
X144735738Y-97550003D01*
X144771251Y-97619164D01*
X144771533Y-97628261D01*
X144780917Y-97666415D01*
X144817909Y-97639377D01*
X144845617Y-97606737D01*
X144904677Y-97548665D01*
X144969214Y-97538943D01*
X145064421Y-97566343D01*
X145209142Y-97616992D01*
X145470352Y-97616992D01*
X145489567Y-97523615D01*
X145531870Y-97407815D01*
X145555114Y-97356113D01*
X145611476Y-97232337D01*
X145649729Y-97143158D01*
X145660533Y-97112326D01*
X145622560Y-97107311D01*
X145524575Y-97112531D01*
X145428818Y-97122227D01*
X145295207Y-97135339D01*
X145220750Y-97129063D01*
X145180711Y-97095430D01*
X145152958Y-97033349D01*
X145116184Y-96958818D01*
X145063852Y-96934205D01*
X144964490Y-96946403D01*
X144950756Y-96949142D01*
X144789455Y-96978271D01*
X144690800Y-96980976D01*
X144635170Y-96950845D01*
X144602945Y-96881463D01*
X144589742Y-96831149D01*
X144546666Y-96713780D01*
X144497309Y-96679128D01*
X144446338Y-96725953D01*
X144398416Y-96853015D01*
X144390533Y-96884066D01*
X144357567Y-97003707D01*
X144328228Y-97080446D01*
X144315554Y-97095733D01*
X144275829Y-97067536D01*
X144196782Y-96994185D01*
X144111207Y-96907721D01*
X143854334Y-96673883D01*
X143596767Y-96504596D01*
X143349157Y-96406142D01*
X143224462Y-96384732D01*
X142993533Y-96365582D01*
X142993533Y-96534033D01*
X142993533Y-96534033D01*
G37*
X142993533Y-96534033D02*
X142986339Y-96645612D01*
X142951187Y-96703760D01*
X142867724Y-96739375D01*
X142855950Y-96742882D01*
X142778370Y-96769682D01*
X142738228Y-96807351D01*
X142724504Y-96879861D01*
X142726176Y-97011181D01*
X142726618Y-97024173D01*
X142727856Y-97154134D01*
X142722537Y-97241597D01*
X142714669Y-97265066D01*
X142668655Y-97250834D01*
X142563170Y-97212845D01*
X142417605Y-97158158D01*
X142353278Y-97133489D01*
X142164724Y-97068472D01*
X142033609Y-97038757D01*
X141964735Y-97042827D01*
X141962903Y-97079167D01*
X142032913Y-97146262D01*
X142121037Y-97206801D01*
X142228202Y-97278494D01*
X142298611Y-97332784D01*
X142314654Y-97351591D01*
X142277974Y-97373945D01*
X142178484Y-97414396D01*
X142034219Y-97465887D01*
X141956367Y-97491800D01*
X141757395Y-97563416D01*
X141640612Y-97623504D01*
X141604767Y-97674877D01*
X141648606Y-97720346D01*
X141770875Y-97762724D01*
X141829367Y-97776767D01*
X141955876Y-97809638D01*
X142040437Y-97840342D01*
X142062200Y-97857090D01*
X142034026Y-97901787D01*
X141964821Y-97974889D01*
X141950911Y-97987937D01*
X141871922Y-98080970D01*
X141795375Y-98201812D01*
X141740002Y-98317705D01*
X141723533Y-98385540D01*
X141761611Y-98398448D01*
X141858869Y-98406598D01*
X141933097Y-98408066D01*
X142079394Y-98397754D01*
X142163057Y-98362952D01*
X142187988Y-98333983D01*
X142214127Y-98306744D01*
X142225843Y-98343296D01*
X142225732Y-98453271D01*
X142225058Y-98471566D01*
X142224418Y-98591320D01*
X142242220Y-98653554D01*
X142290609Y-98659750D01*
X142381731Y-98611390D01*
X142527731Y-98509956D01*
X142529479Y-98508700D01*
X142643343Y-98431557D01*
X142727675Y-98383115D01*
X142761574Y-98373662D01*
X142765054Y-98421895D01*
X142755390Y-98528447D01*
X142738858Y-98643506D01*
X142701412Y-99034902D01*
X142721484Y-99388558D01*
X142797556Y-99695781D01*
X142928111Y-99947880D01*
X142977485Y-100011239D01*
X143058635Y-100111709D01*
X143110472Y-100186771D01*
X143120533Y-100210241D01*
X143097153Y-100250700D01*
X143034702Y-100343012D01*
X142944719Y-100471156D01*
X142838743Y-100619109D01*
X142728311Y-100770847D01*
X142624962Y-100910348D01*
X142540232Y-101021589D01*
X142500506Y-101071274D01*
X142457242Y-101065271D01*
X142355828Y-101033619D01*
X142216464Y-100982761D01*
X142186355Y-100971064D01*
X141808678Y-100791736D01*
X141508416Y-100580658D01*
X141286090Y-100338303D01*
X141142220Y-100065142D01*
X141122467Y-100005389D01*
X141094884Y-99895026D01*
X141101039Y-99835462D01*
X141143855Y-99798639D01*
X141144011Y-99798552D01*
X141204078Y-99726832D01*
X141202114Y-99627399D01*
X141149638Y-99514479D01*
X141058168Y-99402296D01*
X140939224Y-99305076D01*
X140804324Y-99237045D01*
X140669386Y-99212400D01*
X140599718Y-99222654D01*
X140593501Y-99257651D01*
X140653908Y-99323738D01*
X140772342Y-99418427D01*
X140902735Y-99530731D01*
X140956111Y-99614638D01*
X140933949Y-99673477D01*
X140894967Y-99694552D01*
X140787590Y-99692169D01*
X140666396Y-99614422D01*
X140583817Y-99524458D01*
X140495867Y-99412648D01*
X140495867Y-99523758D01*
X140511932Y-99597707D01*
X140569967Y-99670763D01*
X140684728Y-99759668D01*
X140731985Y-99791642D01*
X140881602Y-99903137D01*
X140983961Y-100017975D01*
X141069891Y-100172233D01*
X141085014Y-100204824D01*
X141232719Y-100454152D01*
X141436756Y-100669077D01*
X141707199Y-100858619D01*
X141963273Y-100991210D01*
X142123720Y-101066263D01*
X142252846Y-101128411D01*
X142332916Y-101169023D01*
X142349868Y-101179289D01*
X142337363Y-101220807D01*
X142290508Y-101321451D01*
X142216527Y-101466592D01*
X142122646Y-101641600D01*
X142111980Y-101661019D01*
X141935646Y-102003740D01*
X141806874Y-102312696D01*
X141716251Y-102616747D01*
X141654362Y-102944755D01*
X141629918Y-103138854D01*
X141608494Y-103373263D01*
X141604547Y-103528460D01*
X141618335Y-103608129D01*
X141650113Y-103615955D01*
X141662431Y-103605613D01*
X141677766Y-103556297D01*
X141700545Y-103441763D01*
X141727310Y-103280755D01*
X141747040Y-103147060D01*
X141774196Y-102964735D01*
X141799324Y-102815881D01*
X141819115Y-102719048D01*
X141828214Y-102691941D01*
X141871689Y-102701482D01*
X141977763Y-102741279D01*
X142132391Y-102805612D01*
X142321529Y-102888761D01*
X142410355Y-102929052D01*
X142633297Y-103028851D01*
X142850433Y-103122090D01*
X143039935Y-103199653D01*
X143179981Y-103252428D01*
X143204047Y-103260470D01*
X143312817Y-103293224D01*
X143401994Y-103310171D01*
X143495209Y-103310791D01*
X143616097Y-103294564D01*
X143788290Y-103260969D01*
X143860214Y-103246021D01*
X144038121Y-103210316D01*
X144182121Y-103184135D01*
X144274185Y-103170595D01*
X144298130Y-103170355D01*
X144287949Y-103211749D01*
X144247730Y-103305447D01*
X144202167Y-103399190D01*
X144092774Y-103615066D01*
X144306482Y-103615066D01*
X144449356Y-103604678D01*
X144529395Y-103575837D01*
X144539675Y-103562150D01*
X144570379Y-103447919D01*
X144605418Y-103268085D01*
X144642215Y-103041429D01*
X144678198Y-102786733D01*
X144703917Y-102578434D01*
X144599909Y-102578434D01*
X144591255Y-102695918D01*
X144571998Y-102780442D01*
X144541967Y-102842235D01*
X144510154Y-102882088D01*
X144464179Y-102924759D01*
X144410287Y-102952870D01*
X144330923Y-102969432D01*
X144208532Y-102977453D01*
X144025561Y-102979944D01*
X143938654Y-102980066D01*
X143731750Y-102979395D01*
X143595003Y-102975458D01*
X143513906Y-102965373D01*
X143473948Y-102946255D01*
X143460623Y-102915223D01*
X143459372Y-102884816D01*
X143467241Y-102810991D01*
X143488797Y-102671334D01*
X143521148Y-102483038D01*
X143561403Y-102263300D01*
X143582132Y-102154566D01*
X143627479Y-101918536D01*
X143669296Y-101698802D01*
X143703882Y-101514965D01*
X143727534Y-101386625D01*
X143733199Y-101354667D01*
X143746758Y-101276150D01*
X143670477Y-101276150D01*
X143661234Y-101363331D01*
X143636492Y-101510111D01*
X143599911Y-101699924D01*
X143555155Y-101916199D01*
X143505884Y-102142371D01*
X143455760Y-102361870D01*
X143408446Y-102558129D01*
X143367602Y-102714581D01*
X143336890Y-102814656D01*
X143324620Y-102841033D01*
X143250392Y-102873112D01*
X143109526Y-102883308D01*
X142916948Y-102872451D01*
X142687581Y-102841373D01*
X142440119Y-102791781D01*
X142210691Y-102724951D01*
X142058216Y-102643905D01*
X141975146Y-102539682D01*
X141953933Y-102403323D01*
X141981131Y-102247039D01*
X142042006Y-102073790D01*
X142139217Y-101856642D01*
X142260095Y-101620736D01*
X142391970Y-101391216D01*
X142486365Y-101244400D01*
X142610332Y-101072002D01*
X142736350Y-100912922D01*
X142853371Y-100779335D01*
X142950345Y-100683417D01*
X143016225Y-100637344D01*
X143036116Y-100638560D01*
X143062957Y-100692351D01*
X143107470Y-100805544D01*
X143161473Y-100956918D01*
X143179959Y-101011566D01*
X143234314Y-101174180D01*
X143279631Y-101309264D01*
X143308241Y-101393973D01*
X143312530Y-101406465D01*
X143347473Y-101420150D01*
X143418233Y-101359357D01*
X143441740Y-101332381D01*
X143538884Y-101239150D01*
X143616981Y-101204949D01*
X143663241Y-101232925D01*
X143670477Y-101276150D01*
X143746758Y-101276150D01*
X143761677Y-101189768D01*
X143847329Y-101330613D01*
X143932982Y-101471457D01*
X144066508Y-101252976D01*
X144153229Y-101109393D01*
X144233266Y-100974102D01*
X144271878Y-100907083D01*
X144326492Y-100823538D01*
X144371547Y-100790046D01*
X144409286Y-100812364D01*
X144441952Y-100896247D01*
X144471787Y-101047449D01*
X144501035Y-101271727D01*
X144531890Y-101574326D01*
X144563949Y-101925936D01*
X144586086Y-102203672D01*
X144598129Y-102417762D01*
X144599909Y-102578434D01*
X144703917Y-102578434D01*
X144710790Y-102522778D01*
X144737417Y-102268344D01*
X144755503Y-102042215D01*
X144760221Y-101953483D01*
X144782771Y-101413733D01*
X145009097Y-101413733D01*
X145297562Y-101386264D01*
X145574217Y-101299644D01*
X145853705Y-101147556D01*
X146150672Y-100923683D01*
X146156501Y-100918759D01*
X146331790Y-100775353D01*
X146510004Y-100637842D01*
X146666595Y-100524774D01*
X146750617Y-100469849D01*
X146898053Y-100363540D01*
X146966597Y-100261660D01*
X146961841Y-100183657D01*
X146803533Y-100183657D01*
X146799471Y-100280930D01*
X146771099Y-100321732D01*
X146694144Y-100325654D01*
X146634200Y-100320322D01*
X146528166Y-100303649D01*
X146469186Y-100281635D01*
X146464867Y-100274591D01*
X146492760Y-100224215D01*
X146560813Y-100150934D01*
X146645586Y-100075388D01*
X146723639Y-100018217D01*
X146771534Y-100000063D01*
X146774567Y-100001877D01*
X146793814Y-100059981D01*
X146803319Y-100164874D01*
X146803533Y-100183657D01*
X146961841Y-100183657D01*
X146959731Y-100149067D01*
X146880936Y-100010618D01*
X146862043Y-99985260D01*
X146751219Y-99839963D01*
X146586876Y-100000439D01*
X146479187Y-100130242D01*
X146425920Y-100249095D01*
X146432134Y-100341406D01*
X146464867Y-100376566D01*
X146495143Y-100404966D01*
X146495146Y-100443417D01*
X146457472Y-100501419D01*
X146374718Y-100588472D01*
X146239480Y-100714077D01*
X146115617Y-100824712D01*
X145888251Y-101018636D01*
X145701424Y-101157512D01*
X145539363Y-101249518D01*
X145386296Y-101302834D01*
X145226450Y-101325635D01*
X145144706Y-101328136D01*
X144968110Y-101324809D01*
X144842633Y-101304437D01*
X144753275Y-101253841D01*
X144685039Y-101159841D01*
X144622927Y-101009254D01*
X144559739Y-100814040D01*
X144484524Y-100568456D01*
X144446107Y-100430329D01*
X144381063Y-100430329D01*
X144376639Y-100502220D01*
X144347534Y-100590200D01*
X144287851Y-100708563D01*
X144191691Y-100871605D01*
X144084947Y-101043161D01*
X143958573Y-101244090D01*
X143833185Y-101170161D01*
X143757504Y-101106849D01*
X143742462Y-101090999D01*
X143522087Y-101090999D01*
X143491509Y-101126510D01*
X143475922Y-101138648D01*
X143393917Y-101187978D01*
X143334860Y-101182986D01*
X143288110Y-101114532D01*
X143243024Y-100973480D01*
X143231513Y-100928783D01*
X143191758Y-100768677D01*
X143170944Y-100673674D01*
X143167295Y-100626785D01*
X143179039Y-100611020D01*
X143198164Y-100609400D01*
X143238274Y-100641737D01*
X143309318Y-100726461D01*
X143394802Y-100843661D01*
X143479102Y-100969099D01*
X143519741Y-101045036D01*
X143522087Y-101090999D01*
X143742462Y-101090999D01*
X143648318Y-100991800D01*
X143521182Y-100842283D01*
X143410684Y-100701076D01*
X143295635Y-100545339D01*
X143203904Y-100415928D01*
X143144988Y-100326614D01*
X143128161Y-100291328D01*
X143172734Y-100292399D01*
X143278426Y-100306577D01*
X143423381Y-100330120D01*
X143585744Y-100359283D01*
X143743661Y-100390326D01*
X143871950Y-100418700D01*
X143948370Y-100463362D01*
X143958831Y-100548411D01*
X143903472Y-100679653D01*
X143879081Y-100720819D01*
X143820049Y-100822485D01*
X143809815Y-100856906D01*
X143847168Y-100825154D01*
X143930899Y-100728305D01*
X144059797Y-100567434D01*
X144077782Y-100544467D01*
X144327033Y-100225534D01*
X144366704Y-100360230D01*
X144381063Y-100430329D01*
X144446107Y-100430329D01*
X144434404Y-100388252D01*
X144408575Y-100258200D01*
X144406235Y-100163070D01*
X144426579Y-100087635D01*
X144468806Y-100016665D01*
X144514530Y-99956984D01*
X144622962Y-99794484D01*
X144698734Y-99613217D01*
X144745161Y-99397457D01*
X144765563Y-99131476D01*
X144763257Y-98799548D01*
X144762610Y-98781065D01*
X144756276Y-98578019D01*
X144752922Y-98409585D01*
X144752722Y-98291578D01*
X144755849Y-98239812D01*
X144756672Y-98238733D01*
X144797846Y-98257105D01*
X144894235Y-98305678D01*
X145026444Y-98374639D01*
X145051273Y-98387783D01*
X145207746Y-98466166D01*
X145316753Y-98501696D01*
X145386847Y-98486280D01*
X145426583Y-98411829D01*
X145444513Y-98270251D01*
X145449190Y-98053456D01*
X145449280Y-98011299D01*
X145452506Y-97799145D01*
X145464523Y-97645321D01*
X145470352Y-97616992D01*
X145209142Y-97616992D01*
X145094016Y-97716018D01*
X144997789Y-97828521D01*
X144928129Y-97959907D01*
X144877367Y-98104769D01*
X144644533Y-98002250D01*
X144532313Y-97956871D01*
X144428041Y-97927805D01*
X144308788Y-97912079D01*
X144151620Y-97906718D01*
X143933606Y-97908749D01*
X143924867Y-97908912D01*
X143687116Y-97910084D01*
X143519744Y-97902304D01*
X143408815Y-97884332D01*
X143343840Y-97857223D01*
X143246515Y-97822985D01*
X143187347Y-97853541D01*
X143183422Y-97934167D01*
X143202256Y-97979231D01*
X143296115Y-98069088D01*
X143447159Y-98110301D01*
X143641491Y-98100225D01*
X143732334Y-98080153D01*
X143968532Y-98044315D01*
X144164693Y-98048837D01*
X144298598Y-98070481D01*
X144376981Y-98106328D01*
X144428941Y-98173312D01*
X144449878Y-98214788D01*
X144490647Y-98347451D01*
X144522128Y-98539516D01*
X144542842Y-98766080D01*
X144551308Y-99002240D01*
X144546048Y-99223091D01*
X144525580Y-99403732D01*
X144521685Y-99423151D01*
X144431515Y-99687495D01*
X144286524Y-99930454D01*
X144103482Y-100126621D01*
X144013962Y-100192357D01*
X143807675Y-100289050D01*
X143610105Y-100305784D01*
X143405121Y-100243540D01*
X143379422Y-100230894D01*
X143158002Y-100072396D01*
X142983505Y-99854271D01*
X142859337Y-99589516D01*
X142788903Y-99291130D01*
X142775611Y-98972114D01*
X142822865Y-98645464D01*
X142900356Y-98402623D01*
X142954604Y-98255714D01*
X142987652Y-98142329D01*
X142994114Y-98081914D01*
X142990503Y-98077168D01*
X142943129Y-98095097D01*
X142847371Y-98154516D01*
X142720991Y-98244064D01*
X142673079Y-98280215D01*
X142543205Y-98377090D01*
X142441320Y-98448065D01*
X142383734Y-98481978D01*
X142376947Y-98482924D01*
X142376716Y-98437134D01*
X142392873Y-98339532D01*
X142400867Y-98302233D01*
X142421186Y-98194146D01*
X142426012Y-98127820D01*
X142423664Y-98120419D01*
X142377037Y-98121672D01*
X142279707Y-98143485D01*
X142160817Y-98178252D01*
X142051617Y-98217504D01*
X141989044Y-98221725D01*
X141977533Y-98189999D01*
X142009086Y-98144016D01*
X142095701Y-98057536D01*
X142225315Y-97941663D01*
X142385865Y-97807499D01*
X142443200Y-97761405D01*
X142630975Y-97609833D01*
X142761115Y-97498224D01*
X142843741Y-97415774D01*
X142888975Y-97351678D01*
X142906941Y-97295131D01*
X142908867Y-97264335D01*
X142917666Y-97170943D01*
X142953083Y-97145764D01*
X143028644Y-97185475D01*
X143078200Y-97222733D01*
X143163339Y-97281064D01*
X143221242Y-97306435D01*
X143221814Y-97306458D01*
X143237808Y-97268785D01*
X143241042Y-97169468D01*
X143233047Y-97053400D01*
X143220504Y-96912903D01*
X143223606Y-96836798D01*
X143247252Y-96805494D01*
X143296342Y-96799400D01*
X143296564Y-96799400D01*
X143373702Y-96831268D01*
X143486424Y-96917788D01*
X143620253Y-97045328D01*
X143760712Y-97200257D01*
X143875170Y-97344197D01*
X143949506Y-97429384D01*
X144010452Y-97474549D01*
X144020554Y-97476733D01*
X144084066Y-97494051D01*
X144191610Y-97537962D01*
X144251127Y-97565640D01*
X144365571Y-97617210D01*
X144437659Y-97631427D01*
X144500000Y-97610295D01*
X144543079Y-97583590D01*
X144653574Y-97536950D01*
X144735738Y-97550003D01*
X144771251Y-97619164D01*
X144771533Y-97628261D01*
X144780917Y-97666415D01*
X144817909Y-97639377D01*
X144845617Y-97606737D01*
X144904677Y-97548665D01*
X144969214Y-97538943D01*
X145064421Y-97566343D01*
X145209142Y-97616992D01*
X145470352Y-97616992D01*
X145489567Y-97523615D01*
X145531870Y-97407815D01*
X145555114Y-97356113D01*
X145611476Y-97232337D01*
X145649729Y-97143158D01*
X145660533Y-97112326D01*
X145622560Y-97107311D01*
X145524575Y-97112531D01*
X145428818Y-97122227D01*
X145295207Y-97135339D01*
X145220750Y-97129063D01*
X145180711Y-97095430D01*
X145152958Y-97033349D01*
X145116184Y-96958818D01*
X145063852Y-96934205D01*
X144964490Y-96946403D01*
X144950756Y-96949142D01*
X144789455Y-96978271D01*
X144690800Y-96980976D01*
X144635170Y-96950845D01*
X144602945Y-96881463D01*
X144589742Y-96831149D01*
X144546666Y-96713780D01*
X144497309Y-96679128D01*
X144446338Y-96725953D01*
X144398416Y-96853015D01*
X144390533Y-96884066D01*
X144357567Y-97003707D01*
X144328228Y-97080446D01*
X144315554Y-97095733D01*
X144275829Y-97067536D01*
X144196782Y-96994185D01*
X144111207Y-96907721D01*
X143854334Y-96673883D01*
X143596767Y-96504596D01*
X143349157Y-96406142D01*
X143224462Y-96384732D01*
X142993533Y-96365582D01*
X142993533Y-96534033D01*
G36*
X156642757Y-95862645D02*
X156618453Y-96013878D01*
X156582997Y-96107634D01*
X156517394Y-96170742D01*
X156402648Y-96230027D01*
X156373222Y-96243297D01*
X156187425Y-96326481D01*
X155973410Y-96182355D01*
X155759394Y-96038228D01*
X155578297Y-96215961D01*
X155481893Y-96315562D01*
X155416206Y-96392970D01*
X155397200Y-96425976D01*
X155419805Y-96475925D01*
X155477978Y-96570178D01*
X155531333Y-96648553D01*
X155607661Y-96763472D01*
X155640323Y-96844363D01*
X155637181Y-96924375D01*
X155615805Y-97004602D01*
X155570136Y-97128832D01*
X155509768Y-97207291D01*
X155412060Y-97257912D01*
X155254369Y-97298625D01*
X155240930Y-97301476D01*
X155080838Y-97319223D01*
X154896180Y-97316164D01*
X154715073Y-97295346D01*
X154565638Y-97259814D01*
X154483426Y-97219427D01*
X154441634Y-97157321D01*
X154394617Y-97049720D01*
X154382937Y-97016330D01*
X154354755Y-96916211D01*
X154356488Y-96840916D01*
X154395286Y-96757549D01*
X154460628Y-96658847D01*
X154533914Y-96546174D01*
X154581935Y-96460540D01*
X154592867Y-96430170D01*
X154564818Y-96383203D01*
X154492061Y-96298566D01*
X154411770Y-96215961D01*
X154230673Y-96038228D01*
X154016657Y-96182355D01*
X153802642Y-96326481D01*
X153617227Y-96243468D01*
X153505427Y-96191726D01*
X153430951Y-96154093D01*
X153415834Y-96144478D01*
X153398534Y-96097587D01*
X153370997Y-95993909D01*
X153349788Y-95903033D01*
X153299720Y-95677566D01*
X152752163Y-95677566D01*
X152716378Y-95902381D01*
X152685172Y-96046152D01*
X152641329Y-96129419D01*
X152578396Y-96173759D01*
X152502950Y-96223885D01*
X152478254Y-96266445D01*
X152494746Y-96323282D01*
X152537409Y-96438443D01*
X152598855Y-96592518D01*
X152640822Y-96693566D01*
X152801337Y-97074566D01*
X153009185Y-97075666D01*
X153234294Y-97111495D01*
X153407429Y-97212432D01*
X153522782Y-97372608D01*
X153574542Y-97586158D01*
X153576867Y-97648944D01*
X153566277Y-97767337D01*
X153523519Y-97862931D01*
X153432110Y-97969904D01*
X153412514Y-97989713D01*
X153300715Y-98090145D01*
X153205595Y-98139368D01*
X153092978Y-98153867D01*
X153071745Y-98154066D01*
X152849288Y-98118971D01*
X152676806Y-98017517D01*
X152559903Y-97855453D01*
X152504182Y-97638530D01*
X152500290Y-97567699D01*
X152497367Y-97383499D01*
X152100878Y-97218449D01*
X151930774Y-97149060D01*
X151789427Y-97094052D01*
X151695261Y-97060446D01*
X151667768Y-97053399D01*
X151630899Y-97089145D01*
X151605800Y-97154389D01*
X151577265Y-97215139D01*
X151514898Y-97256725D01*
X151397736Y-97290564D01*
X151329827Y-97304686D01*
X151079200Y-97353993D01*
X151079200Y-97896230D01*
X151237950Y-97922781D01*
X151413901Y-97956934D01*
X151527256Y-97996967D01*
X151599696Y-98056860D01*
X151652903Y-98150593D01*
X151675248Y-98204731D01*
X151751852Y-98399748D01*
X151606631Y-98604004D01*
X151461410Y-98808261D01*
X151638952Y-98989163D01*
X151739270Y-99085618D01*
X151818346Y-99151244D01*
X151852970Y-99170066D01*
X151905619Y-99147750D01*
X152002323Y-99090329D01*
X152081647Y-99037828D01*
X152196627Y-98962898D01*
X152276277Y-98930958D01*
X152353490Y-98934857D01*
X152439131Y-98960137D01*
X152558731Y-99005983D01*
X152632814Y-99061150D01*
X152679562Y-99149026D01*
X152717155Y-99293001D01*
X152724464Y-99327210D01*
X152744100Y-99499232D01*
X152739366Y-99684799D01*
X152713630Y-99857243D01*
X152670260Y-99989898D01*
X152634179Y-100042181D01*
X152559848Y-100087851D01*
X152448777Y-100134548D01*
X152437770Y-100138299D01*
X152346330Y-100161562D01*
X152268910Y-100153888D01*
X152173803Y-100107951D01*
X152095397Y-100059193D01*
X151979029Y-99988896D01*
X151889523Y-99942728D01*
X151856669Y-99932066D01*
X151803074Y-99961459D01*
X151719031Y-100034425D01*
X151626628Y-100128141D01*
X151547956Y-100219788D01*
X151505106Y-100286544D01*
X151502533Y-100297916D01*
X151525739Y-100355364D01*
X151585138Y-100453589D01*
X151633004Y-100522805D01*
X151763474Y-100702914D01*
X151682883Y-100899573D01*
X151632797Y-101010108D01*
X151579466Y-101076359D01*
X151496759Y-101118847D01*
X151358546Y-101158090D01*
X151351329Y-101159924D01*
X151100367Y-101223615D01*
X151075565Y-101736783D01*
X151341966Y-101797508D01*
X151491279Y-101836287D01*
X151575608Y-101873882D01*
X151613824Y-101920807D01*
X151621894Y-101953483D01*
X151633019Y-102009612D01*
X151656983Y-102037463D01*
X151709457Y-102035924D01*
X151806109Y-102003886D01*
X151962608Y-101940236D01*
X151994128Y-101927095D01*
X152204763Y-101839091D01*
X152349887Y-101775094D01*
X152441670Y-101725440D01*
X152492283Y-101680465D01*
X152513897Y-101630503D01*
X152518682Y-101565890D01*
X152518533Y-101510669D01*
X152550966Y-101283831D01*
X152646397Y-101113049D01*
X152802026Y-101001097D01*
X153015052Y-100950748D01*
X153086520Y-100948066D01*
X153221601Y-100959250D01*
X153322940Y-101005089D01*
X153421027Y-101091382D01*
X153553186Y-101271753D01*
X153602206Y-101460344D01*
X153568081Y-101649551D01*
X153450807Y-101831772D01*
X153421521Y-101862590D01*
X153324356Y-101949173D01*
X153234219Y-101991900D01*
X153112717Y-102005665D01*
X153050818Y-102006400D01*
X152900891Y-102016313D01*
X152815132Y-102044085D01*
X152801996Y-102059316D01*
X152729343Y-102235847D01*
X152654840Y-102418903D01*
X152585384Y-102591274D01*
X152527873Y-102735756D01*
X152489205Y-102835140D01*
X152476200Y-102872017D01*
X152511754Y-102891564D01*
X152581389Y-102912622D01*
X152677263Y-102974684D01*
X152710514Y-103054794D01*
X152747173Y-103229976D01*
X152778642Y-103339179D01*
X152819644Y-103398714D01*
X152884907Y-103424893D01*
X152989157Y-103434028D01*
X153055623Y-103437064D01*
X153314701Y-103449561D01*
X153371701Y-103190353D01*
X153406476Y-103046775D01*
X153444072Y-102960359D01*
X153503662Y-102905195D01*
X153604424Y-102855372D01*
X153626783Y-102845675D01*
X153824866Y-102760203D01*
X154015410Y-102891301D01*
X154127622Y-102964234D01*
X154212762Y-103011831D01*
X154242430Y-103022400D01*
X154289397Y-102994351D01*
X154374034Y-102921594D01*
X154456638Y-102841303D01*
X154634372Y-102660206D01*
X154487101Y-102441521D01*
X154339831Y-102222837D01*
X154420703Y-102034170D01*
X154475929Y-101920732D01*
X154536402Y-101856993D01*
X154632392Y-101819057D01*
X154718638Y-101798951D01*
X154859297Y-101771995D01*
X154975802Y-101755190D01*
X155016200Y-101752400D01*
X155103178Y-101761056D01*
X155235090Y-101783114D01*
X155313762Y-101798951D01*
X155445189Y-101832874D01*
X155523114Y-101878401D01*
X155577808Y-101959430D01*
X155611698Y-102034170D01*
X155692570Y-102222837D01*
X155545299Y-102441521D01*
X155398029Y-102660206D01*
X155575762Y-102841303D01*
X155676130Y-102937814D01*
X155755259Y-103003509D01*
X155789970Y-103022400D01*
X155842690Y-103000089D01*
X155939304Y-102942728D01*
X156016990Y-102891301D01*
X156207534Y-102760203D01*
X156405262Y-102845794D01*
X156527725Y-102906740D01*
X156593795Y-102969742D01*
X156628117Y-103061364D01*
X156634913Y-103093309D01*
X156668655Y-103263862D01*
X156697565Y-103368272D01*
X156736782Y-103422672D01*
X156801450Y-103443196D01*
X156906709Y-103445976D01*
X156965669Y-103445733D01*
X157131803Y-103436679D01*
X157224393Y-103410371D01*
X157240461Y-103392816D01*
X157259602Y-103320789D01*
X157283843Y-103202002D01*
X157293219Y-103149409D01*
X157328574Y-103014813D01*
X157387347Y-102936045D01*
X157439668Y-102904299D01*
X157553629Y-102849678D01*
X157473679Y-102650289D01*
X157407915Y-102488538D01*
X157332703Y-102306694D01*
X157299987Y-102228650D01*
X157206245Y-102006400D01*
X157006483Y-102006400D01*
X156796947Y-101971974D01*
X156628845Y-101878819D01*
X156508216Y-101742120D01*
X156441099Y-101577061D01*
X156433534Y-101398827D01*
X156491560Y-101222601D01*
X156621217Y-101063568D01*
X156628879Y-101057019D01*
X156735135Y-100986011D01*
X156854888Y-100954488D01*
X156977365Y-100949413D01*
X157195266Y-100984833D01*
X157360136Y-101084944D01*
X157467388Y-101245000D01*
X157512439Y-101460255D01*
X157513588Y-101504386D01*
X157512548Y-101580157D01*
X157516733Y-101635883D01*
X157537478Y-101679851D01*
X157586120Y-101720346D01*
X157673993Y-101765655D01*
X157812432Y-101824066D01*
X158012773Y-101903863D01*
X158116441Y-101945086D01*
X158359183Y-102041912D01*
X158412922Y-101929789D01*
X158463358Y-101858223D01*
X158546524Y-101811507D01*
X158687535Y-101775952D01*
X158699347Y-101773693D01*
X158932033Y-101729720D01*
X158944603Y-101467198D01*
X158950977Y-101338331D01*
X158944808Y-101256711D01*
X158910776Y-101207429D01*
X158833563Y-101175576D01*
X158697848Y-101146245D01*
X158594060Y-101126050D01*
X158487154Y-101096114D01*
X158419425Y-101043136D01*
X158363490Y-100941978D01*
X158344152Y-100896638D01*
X158262883Y-100700545D01*
X158402982Y-100482220D01*
X158543081Y-100263894D01*
X158160618Y-99881431D01*
X157948583Y-100033763D01*
X157736549Y-100186095D01*
X157541736Y-100113892D01*
X157428007Y-100066485D01*
X157356203Y-100013271D01*
X157314212Y-99933509D01*
X157289918Y-99806456D01*
X157275136Y-99657421D01*
X157271911Y-99553253D01*
X156654174Y-99553253D01*
X156650113Y-99735347D01*
X156636736Y-99846395D01*
X156608240Y-99963676D01*
X156561599Y-100034637D01*
X156471766Y-100088573D01*
X156405027Y-100117399D01*
X156208354Y-100198908D01*
X155987402Y-100040170D01*
X155766449Y-99881431D01*
X155575350Y-100072530D01*
X155384252Y-100263629D01*
X155540986Y-100499759D01*
X155697721Y-100735890D01*
X155616373Y-100919789D01*
X155562325Y-101028068D01*
X155503596Y-101089633D01*
X155411079Y-101126053D01*
X155307363Y-101148784D01*
X155185837Y-101170082D01*
X155080543Y-101178608D01*
X154964735Y-101173642D01*
X154811668Y-101154467D01*
X154663504Y-101131479D01*
X154555116Y-101103057D01*
X154483051Y-101044982D01*
X154417217Y-100932354D01*
X154413385Y-100924505D01*
X154325462Y-100743535D01*
X154459164Y-100535178D01*
X154531663Y-100414269D01*
X154580219Y-100318106D01*
X154592867Y-100277529D01*
X154564097Y-100223483D01*
X154489856Y-100135650D01*
X154417191Y-100062764D01*
X154241516Y-99897290D01*
X154017408Y-100046089D01*
X153793299Y-100194889D01*
X153605148Y-100123033D01*
X153499657Y-100078463D01*
X153438081Y-100029824D01*
X153401527Y-99951496D01*
X153371104Y-99817856D01*
X153367802Y-99801122D01*
X153340741Y-99594139D01*
X153351223Y-99398849D01*
X153368949Y-99295178D01*
X153401577Y-99150429D01*
X153437969Y-99064656D01*
X153493623Y-99012987D01*
X153566749Y-98977678D01*
X153695678Y-98931220D01*
X153794155Y-98924515D01*
X153894778Y-98962251D01*
X154021367Y-99043066D01*
X154131958Y-99114722D01*
X154215407Y-99160775D01*
X154242653Y-99170066D01*
X154290141Y-99141995D01*
X154374193Y-99069569D01*
X154446442Y-98998949D01*
X154613533Y-98827832D01*
X154539700Y-98702616D01*
X154462434Y-98571604D01*
X154393769Y-98455208D01*
X154351520Y-98373017D01*
X154345313Y-98305061D01*
X154375830Y-98213979D01*
X154399136Y-98161231D01*
X154456096Y-98054388D01*
X154523451Y-97994130D01*
X154632728Y-97956581D01*
X154684984Y-97944757D01*
X154937441Y-97907748D01*
X155165723Y-97917454D01*
X155351239Y-97956390D01*
X155476781Y-98000308D01*
X155552559Y-98066098D01*
X155612148Y-98181253D01*
X155686186Y-98356607D01*
X155541693Y-98571166D01*
X155465692Y-98686444D01*
X155413353Y-98770466D01*
X155397200Y-98801826D01*
X155425162Y-98841977D01*
X155495025Y-98918002D01*
X155585756Y-99009211D01*
X155676320Y-99094913D01*
X155745685Y-99154415D01*
X155770876Y-99169419D01*
X155818566Y-99147014D01*
X155913036Y-99089598D01*
X156007393Y-99027385D01*
X156125713Y-98949689D01*
X156204274Y-98913918D01*
X156273009Y-98913920D01*
X156361854Y-98943544D01*
X156380276Y-98950756D01*
X156494440Y-99009284D01*
X156574199Y-99074646D01*
X156585444Y-99090838D01*
X156619796Y-99200896D01*
X156643387Y-99365068D01*
X156654174Y-99553253D01*
X157271911Y-99553253D01*
X157267136Y-99399045D01*
X157296173Y-99208308D01*
X157365183Y-99075351D01*
X157473260Y-98992183D01*
X157608063Y-98936274D01*
X157716044Y-98926936D01*
X157827780Y-98967940D01*
X157958230Y-99051991D01*
X158151069Y-99187917D01*
X158346970Y-98992015D01*
X158542872Y-98796114D01*
X158392409Y-98586680D01*
X158241947Y-98377247D01*
X158324550Y-98192747D01*
X158387259Y-98065511D01*
X158450106Y-97990889D01*
X158539906Y-97949870D01*
X158683475Y-97923448D01*
X158709597Y-97919803D01*
X158914543Y-97891616D01*
X158902121Y-97610860D01*
X158889700Y-97330105D01*
X158660308Y-97286743D01*
X158521233Y-97254047D01*
X158442785Y-97213783D01*
X158401155Y-97152136D01*
X158393821Y-97132094D01*
X158356725Y-97020807D01*
X157924712Y-97199245D01*
X157492700Y-97377684D01*
X157506337Y-97530792D01*
X157487023Y-97721607D01*
X157406695Y-97904457D01*
X157280970Y-98047228D01*
X157242088Y-98074239D01*
X157055625Y-98145642D01*
X156871059Y-98144091D01*
X156702032Y-98080483D01*
X156562183Y-97965711D01*
X156465153Y-97810671D01*
X156424582Y-97626258D01*
X156448696Y-97440527D01*
X156542744Y-97258862D01*
X156695341Y-97136308D01*
X156900847Y-97076768D01*
X156982149Y-97071566D01*
X157191264Y-97068460D01*
X157350512Y-96690513D01*
X157419400Y-96522189D01*
X157473747Y-96380227D01*
X157506089Y-96284616D01*
X157511813Y-96258602D01*
X157478297Y-96204890D01*
X157410311Y-96165265D01*
X157328877Y-96105795D01*
X157284531Y-95991523D01*
X157279614Y-95965230D01*
X157251388Y-95807569D01*
X157220179Y-95715423D01*
X157166718Y-95671223D01*
X157071740Y-95657395D01*
X156940972Y-95656400D01*
X156670116Y-95656400D01*
X156642757Y-95862645D01*
X156642757Y-95862645D01*
G37*
X156642757Y-95862645D02*
X156618453Y-96013878D01*
X156582997Y-96107634D01*
X156517394Y-96170742D01*
X156402648Y-96230027D01*
X156373222Y-96243297D01*
X156187425Y-96326481D01*
X155973410Y-96182355D01*
X155759394Y-96038228D01*
X155578297Y-96215961D01*
X155481893Y-96315562D01*
X155416206Y-96392970D01*
X155397200Y-96425976D01*
X155419805Y-96475925D01*
X155477978Y-96570178D01*
X155531333Y-96648553D01*
X155607661Y-96763472D01*
X155640323Y-96844363D01*
X155637181Y-96924375D01*
X155615805Y-97004602D01*
X155570136Y-97128832D01*
X155509768Y-97207291D01*
X155412060Y-97257912D01*
X155254369Y-97298625D01*
X155240930Y-97301476D01*
X155080838Y-97319223D01*
X154896180Y-97316164D01*
X154715073Y-97295346D01*
X154565638Y-97259814D01*
X154483426Y-97219427D01*
X154441634Y-97157321D01*
X154394617Y-97049720D01*
X154382937Y-97016330D01*
X154354755Y-96916211D01*
X154356488Y-96840916D01*
X154395286Y-96757549D01*
X154460628Y-96658847D01*
X154533914Y-96546174D01*
X154581935Y-96460540D01*
X154592867Y-96430170D01*
X154564818Y-96383203D01*
X154492061Y-96298566D01*
X154411770Y-96215961D01*
X154230673Y-96038228D01*
X154016657Y-96182355D01*
X153802642Y-96326481D01*
X153617227Y-96243468D01*
X153505427Y-96191726D01*
X153430951Y-96154093D01*
X153415834Y-96144478D01*
X153398534Y-96097587D01*
X153370997Y-95993909D01*
X153349788Y-95903033D01*
X153299720Y-95677566D01*
X152752163Y-95677566D01*
X152716378Y-95902381D01*
X152685172Y-96046152D01*
X152641329Y-96129419D01*
X152578396Y-96173759D01*
X152502950Y-96223885D01*
X152478254Y-96266445D01*
X152494746Y-96323282D01*
X152537409Y-96438443D01*
X152598855Y-96592518D01*
X152640822Y-96693566D01*
X152801337Y-97074566D01*
X153009185Y-97075666D01*
X153234294Y-97111495D01*
X153407429Y-97212432D01*
X153522782Y-97372608D01*
X153574542Y-97586158D01*
X153576867Y-97648944D01*
X153566277Y-97767337D01*
X153523519Y-97862931D01*
X153432110Y-97969904D01*
X153412514Y-97989713D01*
X153300715Y-98090145D01*
X153205595Y-98139368D01*
X153092978Y-98153867D01*
X153071745Y-98154066D01*
X152849288Y-98118971D01*
X152676806Y-98017517D01*
X152559903Y-97855453D01*
X152504182Y-97638530D01*
X152500290Y-97567699D01*
X152497367Y-97383499D01*
X152100878Y-97218449D01*
X151930774Y-97149060D01*
X151789427Y-97094052D01*
X151695261Y-97060446D01*
X151667768Y-97053399D01*
X151630899Y-97089145D01*
X151605800Y-97154389D01*
X151577265Y-97215139D01*
X151514898Y-97256725D01*
X151397736Y-97290564D01*
X151329827Y-97304686D01*
X151079200Y-97353993D01*
X151079200Y-97896230D01*
X151237950Y-97922781D01*
X151413901Y-97956934D01*
X151527256Y-97996967D01*
X151599696Y-98056860D01*
X151652903Y-98150593D01*
X151675248Y-98204731D01*
X151751852Y-98399748D01*
X151606631Y-98604004D01*
X151461410Y-98808261D01*
X151638952Y-98989163D01*
X151739270Y-99085618D01*
X151818346Y-99151244D01*
X151852970Y-99170066D01*
X151905619Y-99147750D01*
X152002323Y-99090329D01*
X152081647Y-99037828D01*
X152196627Y-98962898D01*
X152276277Y-98930958D01*
X152353490Y-98934857D01*
X152439131Y-98960137D01*
X152558731Y-99005983D01*
X152632814Y-99061150D01*
X152679562Y-99149026D01*
X152717155Y-99293001D01*
X152724464Y-99327210D01*
X152744100Y-99499232D01*
X152739366Y-99684799D01*
X152713630Y-99857243D01*
X152670260Y-99989898D01*
X152634179Y-100042181D01*
X152559848Y-100087851D01*
X152448777Y-100134548D01*
X152437770Y-100138299D01*
X152346330Y-100161562D01*
X152268910Y-100153888D01*
X152173803Y-100107951D01*
X152095397Y-100059193D01*
X151979029Y-99988896D01*
X151889523Y-99942728D01*
X151856669Y-99932066D01*
X151803074Y-99961459D01*
X151719031Y-100034425D01*
X151626628Y-100128141D01*
X151547956Y-100219788D01*
X151505106Y-100286544D01*
X151502533Y-100297916D01*
X151525739Y-100355364D01*
X151585138Y-100453589D01*
X151633004Y-100522805D01*
X151763474Y-100702914D01*
X151682883Y-100899573D01*
X151632797Y-101010108D01*
X151579466Y-101076359D01*
X151496759Y-101118847D01*
X151358546Y-101158090D01*
X151351329Y-101159924D01*
X151100367Y-101223615D01*
X151075565Y-101736783D01*
X151341966Y-101797508D01*
X151491279Y-101836287D01*
X151575608Y-101873882D01*
X151613824Y-101920807D01*
X151621894Y-101953483D01*
X151633019Y-102009612D01*
X151656983Y-102037463D01*
X151709457Y-102035924D01*
X151806109Y-102003886D01*
X151962608Y-101940236D01*
X151994128Y-101927095D01*
X152204763Y-101839091D01*
X152349887Y-101775094D01*
X152441670Y-101725440D01*
X152492283Y-101680465D01*
X152513897Y-101630503D01*
X152518682Y-101565890D01*
X152518533Y-101510669D01*
X152550966Y-101283831D01*
X152646397Y-101113049D01*
X152802026Y-101001097D01*
X153015052Y-100950748D01*
X153086520Y-100948066D01*
X153221601Y-100959250D01*
X153322940Y-101005089D01*
X153421027Y-101091382D01*
X153553186Y-101271753D01*
X153602206Y-101460344D01*
X153568081Y-101649551D01*
X153450807Y-101831772D01*
X153421521Y-101862590D01*
X153324356Y-101949173D01*
X153234219Y-101991900D01*
X153112717Y-102005665D01*
X153050818Y-102006400D01*
X152900891Y-102016313D01*
X152815132Y-102044085D01*
X152801996Y-102059316D01*
X152729343Y-102235847D01*
X152654840Y-102418903D01*
X152585384Y-102591274D01*
X152527873Y-102735756D01*
X152489205Y-102835140D01*
X152476200Y-102872017D01*
X152511754Y-102891564D01*
X152581389Y-102912622D01*
X152677263Y-102974684D01*
X152710514Y-103054794D01*
X152747173Y-103229976D01*
X152778642Y-103339179D01*
X152819644Y-103398714D01*
X152884907Y-103424893D01*
X152989157Y-103434028D01*
X153055623Y-103437064D01*
X153314701Y-103449561D01*
X153371701Y-103190353D01*
X153406476Y-103046775D01*
X153444072Y-102960359D01*
X153503662Y-102905195D01*
X153604424Y-102855372D01*
X153626783Y-102845675D01*
X153824866Y-102760203D01*
X154015410Y-102891301D01*
X154127622Y-102964234D01*
X154212762Y-103011831D01*
X154242430Y-103022400D01*
X154289397Y-102994351D01*
X154374034Y-102921594D01*
X154456638Y-102841303D01*
X154634372Y-102660206D01*
X154487101Y-102441521D01*
X154339831Y-102222837D01*
X154420703Y-102034170D01*
X154475929Y-101920732D01*
X154536402Y-101856993D01*
X154632392Y-101819057D01*
X154718638Y-101798951D01*
X154859297Y-101771995D01*
X154975802Y-101755190D01*
X155016200Y-101752400D01*
X155103178Y-101761056D01*
X155235090Y-101783114D01*
X155313762Y-101798951D01*
X155445189Y-101832874D01*
X155523114Y-101878401D01*
X155577808Y-101959430D01*
X155611698Y-102034170D01*
X155692570Y-102222837D01*
X155545299Y-102441521D01*
X155398029Y-102660206D01*
X155575762Y-102841303D01*
X155676130Y-102937814D01*
X155755259Y-103003509D01*
X155789970Y-103022400D01*
X155842690Y-103000089D01*
X155939304Y-102942728D01*
X156016990Y-102891301D01*
X156207534Y-102760203D01*
X156405262Y-102845794D01*
X156527725Y-102906740D01*
X156593795Y-102969742D01*
X156628117Y-103061364D01*
X156634913Y-103093309D01*
X156668655Y-103263862D01*
X156697565Y-103368272D01*
X156736782Y-103422672D01*
X156801450Y-103443196D01*
X156906709Y-103445976D01*
X156965669Y-103445733D01*
X157131803Y-103436679D01*
X157224393Y-103410371D01*
X157240461Y-103392816D01*
X157259602Y-103320789D01*
X157283843Y-103202002D01*
X157293219Y-103149409D01*
X157328574Y-103014813D01*
X157387347Y-102936045D01*
X157439668Y-102904299D01*
X157553629Y-102849678D01*
X157473679Y-102650289D01*
X157407915Y-102488538D01*
X157332703Y-102306694D01*
X157299987Y-102228650D01*
X157206245Y-102006400D01*
X157006483Y-102006400D01*
X156796947Y-101971974D01*
X156628845Y-101878819D01*
X156508216Y-101742120D01*
X156441099Y-101577061D01*
X156433534Y-101398827D01*
X156491560Y-101222601D01*
X156621217Y-101063568D01*
X156628879Y-101057019D01*
X156735135Y-100986011D01*
X156854888Y-100954488D01*
X156977365Y-100949413D01*
X157195266Y-100984833D01*
X157360136Y-101084944D01*
X157467388Y-101245000D01*
X157512439Y-101460255D01*
X157513588Y-101504386D01*
X157512548Y-101580157D01*
X157516733Y-101635883D01*
X157537478Y-101679851D01*
X157586120Y-101720346D01*
X157673993Y-101765655D01*
X157812432Y-101824066D01*
X158012773Y-101903863D01*
X158116441Y-101945086D01*
X158359183Y-102041912D01*
X158412922Y-101929789D01*
X158463358Y-101858223D01*
X158546524Y-101811507D01*
X158687535Y-101775952D01*
X158699347Y-101773693D01*
X158932033Y-101729720D01*
X158944603Y-101467198D01*
X158950977Y-101338331D01*
X158944808Y-101256711D01*
X158910776Y-101207429D01*
X158833563Y-101175576D01*
X158697848Y-101146245D01*
X158594060Y-101126050D01*
X158487154Y-101096114D01*
X158419425Y-101043136D01*
X158363490Y-100941978D01*
X158344152Y-100896638D01*
X158262883Y-100700545D01*
X158402982Y-100482220D01*
X158543081Y-100263894D01*
X158160618Y-99881431D01*
X157948583Y-100033763D01*
X157736549Y-100186095D01*
X157541736Y-100113892D01*
X157428007Y-100066485D01*
X157356203Y-100013271D01*
X157314212Y-99933509D01*
X157289918Y-99806456D01*
X157275136Y-99657421D01*
X157271911Y-99553253D01*
X156654174Y-99553253D01*
X156650113Y-99735347D01*
X156636736Y-99846395D01*
X156608240Y-99963676D01*
X156561599Y-100034637D01*
X156471766Y-100088573D01*
X156405027Y-100117399D01*
X156208354Y-100198908D01*
X155987402Y-100040170D01*
X155766449Y-99881431D01*
X155575350Y-100072530D01*
X155384252Y-100263629D01*
X155540986Y-100499759D01*
X155697721Y-100735890D01*
X155616373Y-100919789D01*
X155562325Y-101028068D01*
X155503596Y-101089633D01*
X155411079Y-101126053D01*
X155307363Y-101148784D01*
X155185837Y-101170082D01*
X155080543Y-101178608D01*
X154964735Y-101173642D01*
X154811668Y-101154467D01*
X154663504Y-101131479D01*
X154555116Y-101103057D01*
X154483051Y-101044982D01*
X154417217Y-100932354D01*
X154413385Y-100924505D01*
X154325462Y-100743535D01*
X154459164Y-100535178D01*
X154531663Y-100414269D01*
X154580219Y-100318106D01*
X154592867Y-100277529D01*
X154564097Y-100223483D01*
X154489856Y-100135650D01*
X154417191Y-100062764D01*
X154241516Y-99897290D01*
X154017408Y-100046089D01*
X153793299Y-100194889D01*
X153605148Y-100123033D01*
X153499657Y-100078463D01*
X153438081Y-100029824D01*
X153401527Y-99951496D01*
X153371104Y-99817856D01*
X153367802Y-99801122D01*
X153340741Y-99594139D01*
X153351223Y-99398849D01*
X153368949Y-99295178D01*
X153401577Y-99150429D01*
X153437969Y-99064656D01*
X153493623Y-99012987D01*
X153566749Y-98977678D01*
X153695678Y-98931220D01*
X153794155Y-98924515D01*
X153894778Y-98962251D01*
X154021367Y-99043066D01*
X154131958Y-99114722D01*
X154215407Y-99160775D01*
X154242653Y-99170066D01*
X154290141Y-99141995D01*
X154374193Y-99069569D01*
X154446442Y-98998949D01*
X154613533Y-98827832D01*
X154539700Y-98702616D01*
X154462434Y-98571604D01*
X154393769Y-98455208D01*
X154351520Y-98373017D01*
X154345313Y-98305061D01*
X154375830Y-98213979D01*
X154399136Y-98161231D01*
X154456096Y-98054388D01*
X154523451Y-97994130D01*
X154632728Y-97956581D01*
X154684984Y-97944757D01*
X154937441Y-97907748D01*
X155165723Y-97917454D01*
X155351239Y-97956390D01*
X155476781Y-98000308D01*
X155552559Y-98066098D01*
X155612148Y-98181253D01*
X155686186Y-98356607D01*
X155541693Y-98571166D01*
X155465692Y-98686444D01*
X155413353Y-98770466D01*
X155397200Y-98801826D01*
X155425162Y-98841977D01*
X155495025Y-98918002D01*
X155585756Y-99009211D01*
X155676320Y-99094913D01*
X155745685Y-99154415D01*
X155770876Y-99169419D01*
X155818566Y-99147014D01*
X155913036Y-99089598D01*
X156007393Y-99027385D01*
X156125713Y-98949689D01*
X156204274Y-98913918D01*
X156273009Y-98913920D01*
X156361854Y-98943544D01*
X156380276Y-98950756D01*
X156494440Y-99009284D01*
X156574199Y-99074646D01*
X156585444Y-99090838D01*
X156619796Y-99200896D01*
X156643387Y-99365068D01*
X156654174Y-99553253D01*
X157271911Y-99553253D01*
X157267136Y-99399045D01*
X157296173Y-99208308D01*
X157365183Y-99075351D01*
X157473260Y-98992183D01*
X157608063Y-98936274D01*
X157716044Y-98926936D01*
X157827780Y-98967940D01*
X157958230Y-99051991D01*
X158151069Y-99187917D01*
X158346970Y-98992015D01*
X158542872Y-98796114D01*
X158392409Y-98586680D01*
X158241947Y-98377247D01*
X158324550Y-98192747D01*
X158387259Y-98065511D01*
X158450106Y-97990889D01*
X158539906Y-97949870D01*
X158683475Y-97923448D01*
X158709597Y-97919803D01*
X158914543Y-97891616D01*
X158902121Y-97610860D01*
X158889700Y-97330105D01*
X158660308Y-97286743D01*
X158521233Y-97254047D01*
X158442785Y-97213783D01*
X158401155Y-97152136D01*
X158393821Y-97132094D01*
X158356725Y-97020807D01*
X157924712Y-97199245D01*
X157492700Y-97377684D01*
X157506337Y-97530792D01*
X157487023Y-97721607D01*
X157406695Y-97904457D01*
X157280970Y-98047228D01*
X157242088Y-98074239D01*
X157055625Y-98145642D01*
X156871059Y-98144091D01*
X156702032Y-98080483D01*
X156562183Y-97965711D01*
X156465153Y-97810671D01*
X156424582Y-97626258D01*
X156448696Y-97440527D01*
X156542744Y-97258862D01*
X156695341Y-97136308D01*
X156900847Y-97076768D01*
X156982149Y-97071566D01*
X157191264Y-97068460D01*
X157350512Y-96690513D01*
X157419400Y-96522189D01*
X157473747Y-96380227D01*
X157506089Y-96284616D01*
X157511813Y-96258602D01*
X157478297Y-96204890D01*
X157410311Y-96165265D01*
X157328877Y-96105795D01*
X157284531Y-95991523D01*
X157279614Y-95965230D01*
X157251388Y-95807569D01*
X157220179Y-95715423D01*
X157166718Y-95671223D01*
X157071740Y-95657395D01*
X156940972Y-95656400D01*
X156670116Y-95656400D01*
X156642757Y-95862645D01*
G36*
X144025760Y-99503399D02*
X143856373Y-99601321D01*
X143736477Y-99651728D01*
X143645536Y-99654695D01*
X143563015Y-99610298D01*
X143468380Y-99518613D01*
X143456208Y-99505491D01*
X143355185Y-99410151D01*
X143298002Y-99386285D01*
X143287863Y-99431093D01*
X143327976Y-99541771D01*
X143354083Y-99594785D01*
X143459653Y-99722743D01*
X143608131Y-99808856D01*
X143775500Y-99848028D01*
X143937744Y-99835164D01*
X144070847Y-99765167D01*
X144086170Y-99750114D01*
X144161364Y-99635924D01*
X144205026Y-99515521D01*
X144232487Y-99378213D01*
X144025760Y-99503399D01*
X144025760Y-99503399D01*
G37*
X144025760Y-99503399D02*
X143856373Y-99601321D01*
X143736477Y-99651728D01*
X143645536Y-99654695D01*
X143563015Y-99610298D01*
X143468380Y-99518613D01*
X143456208Y-99505491D01*
X143355185Y-99410151D01*
X143298002Y-99386285D01*
X143287863Y-99431093D01*
X143327976Y-99541771D01*
X143354083Y-99594785D01*
X143459653Y-99722743D01*
X143608131Y-99808856D01*
X143775500Y-99848028D01*
X143937744Y-99835164D01*
X144070847Y-99765167D01*
X144086170Y-99750114D01*
X144161364Y-99635924D01*
X144205026Y-99515521D01*
X144232487Y-99378213D01*
X144025760Y-99503399D01*
G36*
X143993955Y-98593579D02*
X144008132Y-98688708D01*
X144020108Y-98716778D01*
X144066680Y-98803971D01*
X144109654Y-98822338D01*
X144177730Y-98781316D01*
X144189450Y-98772470D01*
X144256003Y-98694429D01*
X144238628Y-98626365D01*
X144150807Y-98574779D01*
X144042772Y-98554235D01*
X143993955Y-98593579D01*
X143993955Y-98593579D01*
G37*
X143993955Y-98593579D02*
X144008132Y-98688708D01*
X144020108Y-98716778D01*
X144066680Y-98803971D01*
X144109654Y-98822338D01*
X144177730Y-98781316D01*
X144189450Y-98772470D01*
X144256003Y-98694429D01*
X144238628Y-98626365D01*
X144150807Y-98574779D01*
X144042772Y-98554235D01*
X143993955Y-98593579D01*
G36*
X143360897Y-98551235D02*
X143306948Y-98594246D01*
X143327803Y-98655858D01*
X143359711Y-98684703D01*
X143462725Y-98739998D01*
X143544733Y-98723511D01*
X143577733Y-98695933D01*
X143628693Y-98614635D01*
X143601196Y-98558715D01*
X143499468Y-98535343D01*
X143482865Y-98535066D01*
X143360897Y-98551235D01*
X143360897Y-98551235D01*
G37*
X143360897Y-98551235D02*
X143306948Y-98594246D01*
X143327803Y-98655858D01*
X143359711Y-98684703D01*
X143462725Y-98739998D01*
X143544733Y-98723511D01*
X143577733Y-98695933D01*
X143628693Y-98614635D01*
X143601196Y-98558715D01*
X143499468Y-98535343D01*
X143482865Y-98535066D01*
X143360897Y-98551235D01*
D13*
X145738904Y-87909476D02*
X146386523Y-87909476D01*
X146462714Y-87947571D01*
X146500809Y-87985666D01*
X146538904Y-88061857D01*
X146538904Y-88214238D01*
X146500809Y-88290428D01*
X146462714Y-88328523D01*
X146386523Y-88366619D01*
X145738904Y-88366619D01*
X145738904Y-88671380D02*
X145738904Y-89204714D01*
X146538904Y-88861857D01*
D11*
X132361542Y-94059805D02*
X132232971Y-94102662D01*
X132018685Y-94102662D01*
X131932971Y-94059805D01*
X131890114Y-94016948D01*
X131847257Y-93931234D01*
X131847257Y-93845520D01*
X131890114Y-93759805D01*
X131932971Y-93716948D01*
X132018685Y-93674091D01*
X132190114Y-93631234D01*
X132275828Y-93588377D01*
X132318685Y-93545520D01*
X132361542Y-93459805D01*
X132361542Y-93374091D01*
X132318685Y-93288377D01*
X132275828Y-93245520D01*
X132190114Y-93202662D01*
X131975828Y-93202662D01*
X131847257Y-93245520D01*
X131547257Y-93202662D02*
X131332971Y-94102662D01*
X131161542Y-93459805D01*
X130990114Y-94102662D01*
X130775828Y-93202662D01*
X130432971Y-94102662D02*
X130432971Y-93202662D01*
X130218685Y-93202662D01*
X130090114Y-93245520D01*
X130004400Y-93331234D01*
X129961542Y-93416948D01*
X129918685Y-93588377D01*
X129918685Y-93716948D01*
X129961542Y-93888377D01*
X130004400Y-93974091D01*
X130090114Y-94059805D01*
X130218685Y-94102662D01*
X130432971Y-94102662D01*
X129532971Y-94102662D02*
X129532971Y-93202662D01*
X128932971Y-93202662D02*
X128761542Y-93202662D01*
X128675828Y-93245520D01*
X128590114Y-93331234D01*
X128547257Y-93502662D01*
X128547257Y-93802662D01*
X128590114Y-93974091D01*
X128675828Y-94059805D01*
X128761542Y-94102662D01*
X128932971Y-94102662D01*
X129018685Y-94059805D01*
X129104400Y-93974091D01*
X129147257Y-93802662D01*
X129147257Y-93502662D01*
X129104400Y-93331234D01*
X129018685Y-93245520D01*
X128932971Y-93202662D01*
X126939782Y-96457457D02*
X126511211Y-96157457D01*
X126939782Y-95943171D02*
X126039782Y-95943171D01*
X126039782Y-96286028D01*
X126082640Y-96371742D01*
X126125497Y-96414600D01*
X126211211Y-96457457D01*
X126339782Y-96457457D01*
X126425497Y-96414600D01*
X126468354Y-96371742D01*
X126511211Y-96286028D01*
X126511211Y-95943171D01*
X126468354Y-96843171D02*
X126468354Y-97143171D01*
X126939782Y-97271742D02*
X126939782Y-96843171D01*
X126039782Y-96843171D01*
X126039782Y-97271742D01*
X126896925Y-97614600D02*
X126939782Y-97743171D01*
X126939782Y-97957457D01*
X126896925Y-98043171D01*
X126854068Y-98086028D01*
X126768354Y-98128885D01*
X126682640Y-98128885D01*
X126596925Y-98086028D01*
X126554068Y-98043171D01*
X126511211Y-97957457D01*
X126468354Y-97786028D01*
X126425497Y-97700314D01*
X126382640Y-97657457D01*
X126296925Y-97614600D01*
X126211211Y-97614600D01*
X126125497Y-97657457D01*
X126082640Y-97700314D01*
X126039782Y-97786028D01*
X126039782Y-98000314D01*
X126082640Y-98128885D01*
X126468354Y-98514600D02*
X126468354Y-98814600D01*
X126939782Y-98943171D02*
X126939782Y-98514600D01*
X126039782Y-98514600D01*
X126039782Y-98943171D01*
X126039782Y-99200314D02*
X126039782Y-99714600D01*
X126939782Y-99457457D02*
X126039782Y-99457457D01*
X132485034Y-102187805D02*
X132356462Y-102230662D01*
X132142177Y-102230662D01*
X132056462Y-102187805D01*
X132013605Y-102144948D01*
X131970748Y-102059234D01*
X131970748Y-101973520D01*
X132013605Y-101887805D01*
X132056462Y-101844948D01*
X132142177Y-101802091D01*
X132313605Y-101759234D01*
X132399320Y-101716377D01*
X132442177Y-101673520D01*
X132485034Y-101587805D01*
X132485034Y-101502091D01*
X132442177Y-101416377D01*
X132399320Y-101373520D01*
X132313605Y-101330662D01*
X132099320Y-101330662D01*
X131970748Y-101373520D01*
X131670748Y-101330662D02*
X131456462Y-102230662D01*
X131285034Y-101587805D01*
X131113605Y-102230662D01*
X130899320Y-101330662D01*
X130042177Y-102144948D02*
X130085034Y-102187805D01*
X130213605Y-102230662D01*
X130299320Y-102230662D01*
X130427891Y-102187805D01*
X130513605Y-102102091D01*
X130556462Y-102016377D01*
X130599320Y-101844948D01*
X130599320Y-101716377D01*
X130556462Y-101544948D01*
X130513605Y-101459234D01*
X130427891Y-101373520D01*
X130299320Y-101330662D01*
X130213605Y-101330662D01*
X130085034Y-101373520D01*
X130042177Y-101416377D01*
X129227891Y-102230662D02*
X129656462Y-102230662D01*
X129656462Y-101330662D01*
X128927891Y-102230662D02*
X128927891Y-101330662D01*
X128413605Y-102230662D02*
X128799320Y-101716377D01*
X128413605Y-101330662D02*
X128927891Y-101844948D01*
X133258474Y-95709320D02*
X133344188Y-95666462D01*
X133472760Y-95666462D01*
X133601331Y-95709320D01*
X133687045Y-95795034D01*
X133729902Y-95880748D01*
X133772760Y-96052177D01*
X133772760Y-96180748D01*
X133729902Y-96352177D01*
X133687045Y-96437891D01*
X133601331Y-96523605D01*
X133472760Y-96566462D01*
X133387045Y-96566462D01*
X133258474Y-96523605D01*
X133215617Y-96480748D01*
X133215617Y-96180748D01*
X133387045Y-96180748D01*
X132829902Y-96566462D02*
X132829902Y-95666462D01*
X132315617Y-96566462D01*
X132315617Y-95666462D01*
X131887045Y-96566462D02*
X131887045Y-95666462D01*
X131672760Y-95666462D01*
X131544188Y-95709320D01*
X131458474Y-95795034D01*
X131415617Y-95880748D01*
X131372760Y-96052177D01*
X131372760Y-96180748D01*
X131415617Y-96352177D01*
X131458474Y-96437891D01*
X131544188Y-96523605D01*
X131672760Y-96566462D01*
X131887045Y-96566462D01*
X134208422Y-95160474D02*
X134208422Y-95717617D01*
X134551280Y-95417617D01*
X134551280Y-95546188D01*
X134594137Y-95631902D01*
X134636994Y-95674760D01*
X134722708Y-95717617D01*
X134936994Y-95717617D01*
X135022708Y-95674760D01*
X135065565Y-95631902D01*
X135108422Y-95546188D01*
X135108422Y-95289045D01*
X135065565Y-95203331D01*
X135022708Y-95160474D01*
X134508422Y-96017617D02*
X135108422Y-96231902D01*
X134508422Y-96446188D01*
X134208422Y-96703331D02*
X134208422Y-97260474D01*
X134551280Y-96960474D01*
X134551280Y-97089045D01*
X134594137Y-97174760D01*
X134636994Y-97217617D01*
X134722708Y-97260474D01*
X134936994Y-97260474D01*
X135022708Y-97217617D01*
X135065565Y-97174760D01*
X135108422Y-97089045D01*
X135108422Y-96831902D01*
X135065565Y-96746188D01*
X135022708Y-96703331D01*
X135065565Y-98717617D02*
X135108422Y-98631902D01*
X135108422Y-98460474D01*
X135065565Y-98374760D01*
X135022708Y-98331902D01*
X134936994Y-98289045D01*
X134679851Y-98289045D01*
X134594137Y-98331902D01*
X134551280Y-98374760D01*
X134508422Y-98460474D01*
X134508422Y-98631902D01*
X134551280Y-98717617D01*
X134508422Y-99103331D02*
X135408422Y-99103331D01*
X134551280Y-99103331D02*
X134508422Y-99189045D01*
X134508422Y-99360474D01*
X134551280Y-99446188D01*
X134594137Y-99489045D01*
X134679851Y-99531902D01*
X134936994Y-99531902D01*
X135022708Y-99489045D01*
X135065565Y-99446188D01*
X135108422Y-99360474D01*
X135108422Y-99189045D01*
X135065565Y-99103331D01*
X134508422Y-100303331D02*
X135108422Y-100303331D01*
X134508422Y-99917617D02*
X134979851Y-99917617D01*
X135065565Y-99960474D01*
X135108422Y-100046188D01*
X135108422Y-100174760D01*
X135065565Y-100260474D01*
X135022708Y-100303331D01*
X151364285Y-81550000D02*
X151407142Y-81678571D01*
X151407142Y-81892857D01*
X151364285Y-81978571D01*
X151321428Y-82021428D01*
X151235714Y-82064285D01*
X151150000Y-82064285D01*
X151064285Y-82021428D01*
X151021428Y-81978571D01*
X150978571Y-81892857D01*
X150935714Y-81721428D01*
X150892857Y-81635714D01*
X150850000Y-81592857D01*
X150764285Y-81550000D01*
X150678571Y-81550000D01*
X150592857Y-81592857D01*
X150550000Y-81635714D01*
X150507142Y-81721428D01*
X150507142Y-81935714D01*
X150550000Y-82064285D01*
X150507142Y-82364285D02*
X151407142Y-82578571D01*
X150764285Y-82750000D01*
X151407142Y-82921428D01*
X150507142Y-83135714D01*
X151321428Y-83992857D02*
X151364285Y-83950000D01*
X151407142Y-83821428D01*
X151407142Y-83735714D01*
X151364285Y-83607142D01*
X151278571Y-83521428D01*
X151192857Y-83478571D01*
X151021428Y-83435714D01*
X150892857Y-83435714D01*
X150721428Y-83478571D01*
X150635714Y-83521428D01*
X150550000Y-83607142D01*
X150507142Y-83735714D01*
X150507142Y-83821428D01*
X150550000Y-83950000D01*
X150592857Y-83992857D01*
X151407142Y-84850000D02*
X151407142Y-84335714D01*
X151407142Y-84592857D02*
X150507142Y-84592857D01*
X150635714Y-84507142D01*
X150721428Y-84421428D01*
X150764285Y-84335714D01*
X155355085Y-81535000D02*
X155397942Y-81663571D01*
X155397942Y-81877857D01*
X155355085Y-81963571D01*
X155312228Y-82006428D01*
X155226514Y-82049285D01*
X155140800Y-82049285D01*
X155055085Y-82006428D01*
X155012228Y-81963571D01*
X154969371Y-81877857D01*
X154926514Y-81706428D01*
X154883657Y-81620714D01*
X154840800Y-81577857D01*
X154755085Y-81535000D01*
X154669371Y-81535000D01*
X154583657Y-81577857D01*
X154540800Y-81620714D01*
X154497942Y-81706428D01*
X154497942Y-81920714D01*
X154540800Y-82049285D01*
X154497942Y-82349285D02*
X155397942Y-82563571D01*
X154755085Y-82735000D01*
X155397942Y-82906428D01*
X154497942Y-83120714D01*
X155312228Y-83977857D02*
X155355085Y-83935000D01*
X155397942Y-83806428D01*
X155397942Y-83720714D01*
X155355085Y-83592142D01*
X155269371Y-83506428D01*
X155183657Y-83463571D01*
X155012228Y-83420714D01*
X154883657Y-83420714D01*
X154712228Y-83463571D01*
X154626514Y-83506428D01*
X154540800Y-83592142D01*
X154497942Y-83720714D01*
X154497942Y-83806428D01*
X154540800Y-83935000D01*
X154583657Y-83977857D01*
X154497942Y-84277857D02*
X154497942Y-84835000D01*
X154840800Y-84535000D01*
X154840800Y-84663571D01*
X154883657Y-84749285D01*
X154926514Y-84792142D01*
X155012228Y-84835000D01*
X155226514Y-84835000D01*
X155312228Y-84792142D01*
X155355085Y-84749285D01*
X155397942Y-84663571D01*
X155397942Y-84406428D01*
X155355085Y-84320714D01*
X155312228Y-84277857D01*
X153373885Y-81560400D02*
X153416742Y-81688971D01*
X153416742Y-81903257D01*
X153373885Y-81988971D01*
X153331028Y-82031828D01*
X153245314Y-82074685D01*
X153159600Y-82074685D01*
X153073885Y-82031828D01*
X153031028Y-81988971D01*
X152988171Y-81903257D01*
X152945314Y-81731828D01*
X152902457Y-81646114D01*
X152859600Y-81603257D01*
X152773885Y-81560400D01*
X152688171Y-81560400D01*
X152602457Y-81603257D01*
X152559600Y-81646114D01*
X152516742Y-81731828D01*
X152516742Y-81946114D01*
X152559600Y-82074685D01*
X152516742Y-82374685D02*
X153416742Y-82588971D01*
X152773885Y-82760400D01*
X153416742Y-82931828D01*
X152516742Y-83146114D01*
X153331028Y-84003257D02*
X153373885Y-83960400D01*
X153416742Y-83831828D01*
X153416742Y-83746114D01*
X153373885Y-83617542D01*
X153288171Y-83531828D01*
X153202457Y-83488971D01*
X153031028Y-83446114D01*
X152902457Y-83446114D01*
X152731028Y-83488971D01*
X152645314Y-83531828D01*
X152559600Y-83617542D01*
X152516742Y-83746114D01*
X152516742Y-83831828D01*
X152559600Y-83960400D01*
X152602457Y-84003257D01*
X152602457Y-84346114D02*
X152559600Y-84388971D01*
X152516742Y-84474685D01*
X152516742Y-84688971D01*
X152559600Y-84774685D01*
X152602457Y-84817542D01*
X152688171Y-84860400D01*
X152773885Y-84860400D01*
X152902457Y-84817542D01*
X153416742Y-84303257D01*
X153416742Y-84860400D01*
%LPC*%
D14*
X144399000Y-89773000D03*
X142399000Y-89773000D03*
X132399000Y-89773000D03*
X130399000Y-89773000D03*
X130399000Y-70873000D03*
X132399000Y-70873000D03*
X134399000Y-70873000D03*
X136399000Y-70873000D03*
X138399000Y-70873000D03*
X140399000Y-70873000D03*
X142399000Y-70873000D03*
D15*
X148742400Y-93548200D03*
D16*
X148742400Y-91008200D03*
D17*
X124460000Y-97790000D03*
X121920000Y-97790000D03*
X124460000Y-95250000D03*
X121920000Y-95250000D03*
X124460000Y-92710000D03*
X121920000Y-92710000D03*
X124460000Y-90170000D03*
X121920000Y-90170000D03*
X124460000Y-87630000D03*
X121920000Y-87630000D03*
X124460000Y-85090000D03*
X121920000Y-85090000D03*
D18*
X121920000Y-74930000D03*
D17*
X124460000Y-74930000D03*
X121920000Y-77470000D03*
X124460000Y-77470000D03*
X121920000Y-80010000D03*
X124460000Y-80010000D03*
X121920000Y-82550000D03*
X124460000Y-82550000D03*
D19*
X145427600Y-64795400D03*
X138277600Y-64795400D03*
X145427600Y-68245400D03*
X138277600Y-68245400D03*
D20*
X143852600Y-66920400D03*
X139852600Y-66920400D03*
D21*
X130434080Y-95234760D03*
D18*
X128346200Y-76530200D03*
D17*
X128346200Y-79070200D03*
D21*
X127894080Y-97769680D03*
X130434080Y-100309680D03*
X130434080Y-97769680D03*
X132974080Y-97769680D03*
D15*
X146888200Y-71196200D03*
D16*
X146888200Y-73736200D03*
D22*
X163982400Y-93216000D03*
X163982400Y-101196000D03*
D15*
X127127000Y-65786000D03*
D16*
X127127000Y-68326000D03*
D18*
X150622000Y-107950000D03*
D17*
X150622000Y-110490000D03*
X153162000Y-107950000D03*
X153162000Y-110490000D03*
X155702000Y-107950000D03*
X155702000Y-110490000D03*
X158242000Y-107950000D03*
X158242000Y-110490000D03*
X160782000Y-107950000D03*
X160782000Y-110490000D03*
X126746000Y-103378000D03*
X126746000Y-105918000D03*
X129286000Y-103378000D03*
X129286000Y-105918000D03*
X131826000Y-103378000D03*
X131826000Y-105918000D03*
D18*
X134366000Y-103378000D03*
D17*
X134366000Y-105918000D03*
D23*
X151000000Y-79944500D03*
X151000000Y-79055500D03*
D24*
X151000000Y-80262000D03*
X151000000Y-78738000D03*
D23*
X155000000Y-79944500D03*
X155000000Y-79055500D03*
D24*
X155000000Y-80262000D03*
X155000000Y-78738000D03*
D23*
X153000000Y-79055500D03*
X153000000Y-79944500D03*
D24*
X153000000Y-78738000D03*
X153000000Y-80262000D03*
M02*
