G04 #@! TF.GenerationSoftware,KiCad,Pcbnew,no-vcs-found-7406~56~ubuntu16.10.1*
G04 #@! TF.CreationDate,2016-12-23T22:43:09+01:00*
G04 #@! TF.ProjectId,MysensorsGW,4D7973656E736F727347572E6B696361,rev?*
G04 #@! TF.FileFunction,Soldermask,Bot*
G04 #@! TF.FilePolarity,Negative*
%FSLAX46Y46*%
G04 Gerber Fmt 4.6, Leading zero omitted, Abs format (unit mm)*
G04 Created by KiCad (PCBNEW no-vcs-found-7406~56~ubuntu16.10.1) date Fri Dec 23 22:43:09 2016*
%MOMM*%
%LPD*%
G01*
G04 APERTURE LIST*
%ADD10C,0.100000*%
%ADD11R,1.200000X2.200000*%
%ADD12R,2.032000X2.032000*%
%ADD13O,2.032000X2.032000*%
%ADD14O,1.050000X1.850000*%
%ADD15C,0.650000*%
%ADD16C,1.524000*%
%ADD17R,1.727200X1.727200*%
%ADD18O,1.727200X1.727200*%
%ADD19C,1.000000*%
%ADD20R,1.270000X0.600000*%
%ADD21O,1.270000X1.270000*%
G04 APERTURE END LIST*
D10*
D11*
X144399000Y-89773000D03*
X142399000Y-89773000D03*
X132399000Y-89773000D03*
X130399000Y-89773000D03*
X130399000Y-70873000D03*
X132399000Y-70873000D03*
X134399000Y-70873000D03*
X136399000Y-70873000D03*
X138399000Y-70873000D03*
X140399000Y-70873000D03*
X142399000Y-70873000D03*
D12*
X148742400Y-93548200D03*
D13*
X148742400Y-91008200D03*
D14*
X145427600Y-64795400D03*
X138277600Y-64795400D03*
X145427600Y-68245400D03*
X138277600Y-68245400D03*
D15*
X143852600Y-66920400D03*
X139852600Y-66920400D03*
D16*
X130434080Y-95234760D03*
D17*
X128346200Y-76530200D03*
D18*
X128346200Y-79070200D03*
D16*
X127894080Y-97769680D03*
X130434080Y-100309680D03*
X130434080Y-97769680D03*
X132974080Y-97769680D03*
D12*
X146888200Y-71196200D03*
D13*
X146888200Y-73736200D03*
D19*
X163982400Y-93216000D03*
X163982400Y-101196000D03*
D12*
X132384800Y-68402200D03*
D13*
X134924800Y-68402200D03*
D17*
X150622000Y-107950000D03*
D18*
X150622000Y-110490000D03*
X153162000Y-107950000D03*
X153162000Y-110490000D03*
X155702000Y-107950000D03*
X155702000Y-110490000D03*
X158242000Y-107950000D03*
X158242000Y-110490000D03*
X160782000Y-107950000D03*
X160782000Y-110490000D03*
X126746000Y-103378000D03*
X126746000Y-105918000D03*
X129286000Y-103378000D03*
X129286000Y-105918000D03*
X131826000Y-103378000D03*
X131826000Y-105918000D03*
D17*
X134366000Y-103378000D03*
D18*
X134366000Y-105918000D03*
D20*
X151000000Y-79944500D03*
X151000000Y-79055500D03*
D21*
X151000000Y-80262000D03*
X151000000Y-78738000D03*
D20*
X155000000Y-79944500D03*
X155000000Y-79055500D03*
D21*
X155000000Y-80262000D03*
X155000000Y-78738000D03*
D20*
X153000000Y-79055500D03*
X153000000Y-79944500D03*
D21*
X153000000Y-78738000D03*
X153000000Y-80262000D03*
D18*
X124460000Y-97790000D03*
X121920000Y-97790000D03*
X124460000Y-95250000D03*
X121920000Y-95250000D03*
X124460000Y-92710000D03*
X121920000Y-92710000D03*
X124460000Y-90170000D03*
X121920000Y-90170000D03*
X124460000Y-87630000D03*
X121920000Y-87630000D03*
X124460000Y-85090000D03*
X121920000Y-85090000D03*
D17*
X121920000Y-74930000D03*
D18*
X124460000Y-74930000D03*
X121920000Y-77470000D03*
X124460000Y-77470000D03*
X121920000Y-80010000D03*
X124460000Y-80010000D03*
X121920000Y-82550000D03*
X124460000Y-82550000D03*
X121920000Y-100330000D03*
X124460000Y-100330000D03*
M02*
