G04 #@! TF.FileFunction,Other,Fab,Top*
%FSLAX46Y46*%
G04 Gerber Fmt 4.6, Leading zero omitted, Abs format (unit mm)*
G04 Created by KiCad (PCBNEW 0.201603171416+6624~43~ubuntu15.10.1-product) date man 21 mar 2016 21:16:12 CET*
%MOMM*%
G01*
G04 APERTURE LIST*
%ADD10C,0.100000*%
%ADD11C,0.150000*%
G04 APERTURE END LIST*
D10*
D11*
X119165634Y-103606196D02*
X119832301Y-103606196D01*
X118784682Y-103844292D02*
X119498968Y-104082387D01*
X119498968Y-103463339D01*
X119832301Y-103082387D02*
X118832301Y-103082387D01*
X119451349Y-102987149D02*
X119832301Y-102701434D01*
X119165634Y-102701434D02*
X119546587Y-103082387D01*
X118832301Y-102368101D02*
X118832301Y-101701434D01*
X119832301Y-102130006D01*
X121268754Y-103606196D02*
X121935421Y-103606196D01*
X120887802Y-103844292D02*
X121602088Y-104082387D01*
X121602088Y-103463339D01*
X121935421Y-103082387D02*
X120935421Y-103082387D01*
X121554469Y-102987149D02*
X121935421Y-102701434D01*
X121268754Y-102701434D02*
X121649707Y-103082387D01*
X120935421Y-102368101D02*
X120935421Y-101701434D01*
X121935421Y-102130006D01*
X146670971Y-96576771D02*
X146813828Y-96624390D01*
X146861447Y-96672010D01*
X146909066Y-96767248D01*
X146909066Y-96910105D01*
X146861447Y-97005343D01*
X146813828Y-97052962D01*
X146718590Y-97100581D01*
X146337637Y-97100581D01*
X146337637Y-96100581D01*
X146670971Y-96100581D01*
X146766209Y-96148200D01*
X146813828Y-96195819D01*
X146861447Y-96291057D01*
X146861447Y-96386295D01*
X146813828Y-96481533D01*
X146766209Y-96529152D01*
X146670971Y-96576771D01*
X146337637Y-96576771D01*
X147766209Y-97100581D02*
X147766209Y-96576771D01*
X147718590Y-96481533D01*
X147623352Y-96433914D01*
X147432875Y-96433914D01*
X147337637Y-96481533D01*
X147766209Y-97052962D02*
X147670971Y-97100581D01*
X147432875Y-97100581D01*
X147337637Y-97052962D01*
X147290018Y-96957724D01*
X147290018Y-96862486D01*
X147337637Y-96767248D01*
X147432875Y-96719629D01*
X147670971Y-96719629D01*
X147766209Y-96672010D01*
X148099542Y-96433914D02*
X148480494Y-96433914D01*
X148242399Y-96100581D02*
X148242399Y-96957724D01*
X148290018Y-97052962D01*
X148385256Y-97100581D01*
X148480494Y-97100581D01*
X148670971Y-96433914D02*
X149051923Y-96433914D01*
X148813828Y-96100581D02*
X148813828Y-96957724D01*
X148861447Y-97052962D01*
X148956685Y-97100581D01*
X149051923Y-97100581D01*
X149766210Y-97052962D02*
X149670972Y-97100581D01*
X149480495Y-97100581D01*
X149385257Y-97052962D01*
X149337638Y-96957724D01*
X149337638Y-96576771D01*
X149385257Y-96481533D01*
X149480495Y-96433914D01*
X149670972Y-96433914D01*
X149766210Y-96481533D01*
X149813829Y-96576771D01*
X149813829Y-96672010D01*
X149337638Y-96767248D01*
X150242400Y-97100581D02*
X150242400Y-96433914D01*
X150242400Y-96624390D02*
X150290019Y-96529152D01*
X150337638Y-96481533D01*
X150432876Y-96433914D01*
X150528115Y-96433914D01*
X150766210Y-96433914D02*
X151004305Y-97100581D01*
X151242401Y-96433914D02*
X151004305Y-97100581D01*
X150909067Y-97338676D01*
X150861448Y-97386295D01*
X150766210Y-97433914D01*
X130308481Y-69189290D02*
X130308481Y-69665481D01*
X129308481Y-69665481D01*
X129784671Y-68855957D02*
X129784671Y-68522623D01*
X130308481Y-68379766D02*
X130308481Y-68855957D01*
X129308481Y-68855957D01*
X129308481Y-68379766D01*
X130308481Y-67951195D02*
X129308481Y-67951195D01*
X129308481Y-67713100D01*
X129356100Y-67570242D01*
X129451338Y-67475004D01*
X129546576Y-67427385D01*
X129737052Y-67379766D01*
X129879910Y-67379766D01*
X130070386Y-67427385D01*
X130165624Y-67475004D01*
X130260862Y-67570242D01*
X130308481Y-67713100D01*
X130308481Y-67951195D01*
X130403719Y-67189290D02*
X130403719Y-66427385D01*
X130308481Y-65617861D02*
X129832290Y-65951195D01*
X130308481Y-66189290D02*
X129308481Y-66189290D01*
X129308481Y-65808337D01*
X129356100Y-65713099D01*
X129403719Y-65665480D01*
X129498957Y-65617861D01*
X129641814Y-65617861D01*
X129737052Y-65665480D01*
X129784671Y-65713099D01*
X129832290Y-65808337D01*
X129832290Y-66189290D01*
X129784671Y-65189290D02*
X129784671Y-64855956D01*
X130308481Y-64713099D02*
X130308481Y-65189290D01*
X129308481Y-65189290D01*
X129308481Y-64713099D01*
X130308481Y-64284528D02*
X129308481Y-64284528D01*
X129308481Y-64046433D01*
X129356100Y-63903575D01*
X129451338Y-63808337D01*
X129546576Y-63760718D01*
X129737052Y-63713099D01*
X129879910Y-63713099D01*
X130070386Y-63760718D01*
X130165624Y-63808337D01*
X130260862Y-63903575D01*
X130308481Y-64046433D01*
X130308481Y-64284528D01*
X134956681Y-70509924D02*
X134956681Y-70986115D01*
X133956681Y-70986115D01*
X134432871Y-70176591D02*
X134432871Y-69843257D01*
X134956681Y-69700400D02*
X134956681Y-70176591D01*
X133956681Y-70176591D01*
X133956681Y-69700400D01*
X134956681Y-69271829D02*
X133956681Y-69271829D01*
X133956681Y-69033734D01*
X134004300Y-68890876D01*
X134099538Y-68795638D01*
X134194776Y-68748019D01*
X134385252Y-68700400D01*
X134528110Y-68700400D01*
X134718586Y-68748019D01*
X134813824Y-68795638D01*
X134909062Y-68890876D01*
X134956681Y-69033734D01*
X134956681Y-69271829D01*
X135051919Y-68509924D02*
X135051919Y-67748019D01*
X134480490Y-67319448D02*
X134956681Y-67319448D01*
X133956681Y-67652781D02*
X134480490Y-67319448D01*
X133956681Y-66986114D01*
X134432871Y-66652781D02*
X134432871Y-66319447D01*
X134956681Y-66176590D02*
X134956681Y-66652781D01*
X133956681Y-66652781D01*
X133956681Y-66176590D01*
X134956681Y-65271828D02*
X134956681Y-65748019D01*
X133956681Y-65748019D01*
X134956681Y-64462304D02*
X134956681Y-64938495D01*
X133956681Y-64938495D01*
X133956681Y-63938495D02*
X133956681Y-63748018D01*
X134004300Y-63652780D01*
X134099538Y-63557542D01*
X134290014Y-63509923D01*
X134623348Y-63509923D01*
X134813824Y-63557542D01*
X134909062Y-63652780D01*
X134956681Y-63748018D01*
X134956681Y-63938495D01*
X134909062Y-64033733D01*
X134813824Y-64128971D01*
X134623348Y-64176590D01*
X134290014Y-64176590D01*
X134099538Y-64128971D01*
X134004300Y-64033733D01*
X133956681Y-63938495D01*
X133956681Y-63176590D02*
X134956681Y-62938495D01*
X134242395Y-62748018D01*
X134956681Y-62557542D01*
X133956681Y-62319447D01*
X159075381Y-103170762D02*
X158408714Y-103170762D01*
X158503952Y-103170762D02*
X158456333Y-103123143D01*
X158408714Y-103027905D01*
X158408714Y-102885047D01*
X158456333Y-102789809D01*
X158551571Y-102742190D01*
X159075381Y-102742190D01*
X158551571Y-102742190D02*
X158456333Y-102694571D01*
X158408714Y-102599333D01*
X158408714Y-102456476D01*
X158456333Y-102361238D01*
X158551571Y-102313619D01*
X159075381Y-102313619D01*
X159075381Y-101837429D02*
X158408714Y-101837429D01*
X158075381Y-101837429D02*
X158123000Y-101885048D01*
X158170619Y-101837429D01*
X158123000Y-101789810D01*
X158075381Y-101837429D01*
X158170619Y-101837429D01*
X159027762Y-100932667D02*
X159075381Y-101027905D01*
X159075381Y-101218382D01*
X159027762Y-101313620D01*
X158980143Y-101361239D01*
X158884905Y-101408858D01*
X158599190Y-101408858D01*
X158503952Y-101361239D01*
X158456333Y-101313620D01*
X158408714Y-101218382D01*
X158408714Y-101027905D01*
X158456333Y-100932667D01*
X159075381Y-100504096D02*
X158408714Y-100504096D01*
X158599190Y-100504096D02*
X158503952Y-100456477D01*
X158456333Y-100408858D01*
X158408714Y-100313620D01*
X158408714Y-100218381D01*
X159075381Y-99742191D02*
X159027762Y-99837429D01*
X158980143Y-99885048D01*
X158884905Y-99932667D01*
X158599190Y-99932667D01*
X158503952Y-99885048D01*
X158456333Y-99837429D01*
X158408714Y-99742191D01*
X158408714Y-99599333D01*
X158456333Y-99504095D01*
X158503952Y-99456476D01*
X158599190Y-99408857D01*
X158884905Y-99408857D01*
X158980143Y-99456476D01*
X159027762Y-99504095D01*
X159075381Y-99599333D01*
X159075381Y-99742191D01*
X159170619Y-99218381D02*
X159170619Y-98456476D01*
X159027762Y-98266000D02*
X159075381Y-98123143D01*
X159075381Y-97885047D01*
X159027762Y-97789809D01*
X158980143Y-97742190D01*
X158884905Y-97694571D01*
X158789667Y-97694571D01*
X158694429Y-97742190D01*
X158646810Y-97789809D01*
X158599190Y-97885047D01*
X158551571Y-98075524D01*
X158503952Y-98170762D01*
X158456333Y-98218381D01*
X158361095Y-98266000D01*
X158265857Y-98266000D01*
X158170619Y-98218381D01*
X158123000Y-98170762D01*
X158075381Y-98075524D01*
X158075381Y-97837428D01*
X158123000Y-97694571D01*
X159075381Y-97266000D02*
X158075381Y-97266000D01*
X158075381Y-97027905D01*
X158123000Y-96885047D01*
X158218238Y-96789809D01*
X158313476Y-96742190D01*
X158503952Y-96694571D01*
X158646810Y-96694571D01*
X158837286Y-96742190D01*
X158932524Y-96789809D01*
X159027762Y-96885047D01*
X159075381Y-97027905D01*
X159075381Y-97266000D01*
X159170619Y-96504095D02*
X159170619Y-95742190D01*
X158980143Y-94932666D02*
X159027762Y-94980285D01*
X159075381Y-95123142D01*
X159075381Y-95218380D01*
X159027762Y-95361238D01*
X158932524Y-95456476D01*
X158837286Y-95504095D01*
X158646810Y-95551714D01*
X158503952Y-95551714D01*
X158313476Y-95504095D01*
X158218238Y-95456476D01*
X158123000Y-95361238D01*
X158075381Y-95218380D01*
X158075381Y-95123142D01*
X158123000Y-94980285D01*
X158170619Y-94932666D01*
X159075381Y-94075523D02*
X158551571Y-94075523D01*
X158456333Y-94123142D01*
X158408714Y-94218380D01*
X158408714Y-94408857D01*
X158456333Y-94504095D01*
X159027762Y-94075523D02*
X159075381Y-94170761D01*
X159075381Y-94408857D01*
X159027762Y-94504095D01*
X158932524Y-94551714D01*
X158837286Y-94551714D01*
X158742048Y-94504095D01*
X158694429Y-94408857D01*
X158694429Y-94170761D01*
X158646810Y-94075523D01*
X159075381Y-93599333D02*
X158408714Y-93599333D01*
X158599190Y-93599333D02*
X158503952Y-93551714D01*
X158456333Y-93504095D01*
X158408714Y-93408857D01*
X158408714Y-93313618D01*
X159075381Y-92551713D02*
X158075381Y-92551713D01*
X159027762Y-92551713D02*
X159075381Y-92646951D01*
X159075381Y-92837428D01*
X159027762Y-92932666D01*
X158980143Y-92980285D01*
X158884905Y-93027904D01*
X158599190Y-93027904D01*
X158503952Y-92980285D01*
X158456333Y-92932666D01*
X158408714Y-92837428D01*
X158408714Y-92646951D01*
X158456333Y-92551713D01*
X159170619Y-92313618D02*
X159170619Y-91551713D01*
X159027762Y-91361237D02*
X159075381Y-91218380D01*
X159075381Y-90980284D01*
X159027762Y-90885046D01*
X158980143Y-90837427D01*
X158884905Y-90789808D01*
X158789667Y-90789808D01*
X158694429Y-90837427D01*
X158646810Y-90885046D01*
X158599190Y-90980284D01*
X158551571Y-91170761D01*
X158503952Y-91265999D01*
X158456333Y-91313618D01*
X158361095Y-91361237D01*
X158265857Y-91361237D01*
X158170619Y-91313618D01*
X158123000Y-91265999D01*
X158075381Y-91170761D01*
X158075381Y-90932665D01*
X158123000Y-90789808D01*
X159075381Y-90361237D02*
X158075381Y-90361237D01*
X158075381Y-89980284D01*
X158123000Y-89885046D01*
X158170619Y-89837427D01*
X158265857Y-89789808D01*
X158408714Y-89789808D01*
X158503952Y-89837427D01*
X158551571Y-89885046D01*
X158599190Y-89980284D01*
X158599190Y-90361237D01*
X159075381Y-89361237D02*
X158075381Y-89361237D01*
X127162219Y-73094695D02*
X127114600Y-73047076D01*
X127066981Y-72951838D01*
X127066981Y-72713742D01*
X127114600Y-72618504D01*
X127162219Y-72570885D01*
X127257457Y-72523266D01*
X127352695Y-72523266D01*
X127495552Y-72570885D01*
X128066981Y-73142314D01*
X128066981Y-72523266D01*
X127066981Y-72189933D02*
X127066981Y-71523266D01*
X128066981Y-71951838D01*
X127066981Y-70951838D02*
X127066981Y-70856599D01*
X127114600Y-70761361D01*
X127162219Y-70713742D01*
X127257457Y-70666123D01*
X127447933Y-70618504D01*
X127686029Y-70618504D01*
X127876505Y-70666123D01*
X127971743Y-70713742D01*
X128019362Y-70761361D01*
X128066981Y-70856599D01*
X128066981Y-70951838D01*
X128019362Y-71047076D01*
X127971743Y-71094695D01*
X127876505Y-71142314D01*
X127686029Y-71189933D01*
X127447933Y-71189933D01*
X127257457Y-71142314D01*
X127162219Y-71094695D01*
X127114600Y-71047076D01*
X127066981Y-70951838D01*
X134839439Y-94746074D02*
X134839439Y-95412741D01*
X134601343Y-94365122D02*
X134363248Y-95079408D01*
X134982296Y-95079408D01*
X135268010Y-94412741D02*
X135934677Y-94412741D01*
X135506105Y-95412741D01*
X136506105Y-94412741D02*
X136601344Y-94412741D01*
X136696582Y-94460360D01*
X136744201Y-94507979D01*
X136791820Y-94603217D01*
X136839439Y-94793693D01*
X136839439Y-95031789D01*
X136791820Y-95222265D01*
X136744201Y-95317503D01*
X136696582Y-95365122D01*
X136601344Y-95412741D01*
X136506105Y-95412741D01*
X136410867Y-95365122D01*
X136363248Y-95317503D01*
X136315629Y-95222265D01*
X136268010Y-95031789D01*
X136268010Y-94793693D01*
X136315629Y-94603217D01*
X136363248Y-94507979D01*
X136410867Y-94460360D01*
X136506105Y-94412741D01*
X137839439Y-95412741D02*
X137506105Y-94936550D01*
X137268010Y-95412741D02*
X137268010Y-94412741D01*
X137648963Y-94412741D01*
X137744201Y-94460360D01*
X137791820Y-94507979D01*
X137839439Y-94603217D01*
X137839439Y-94746074D01*
X137791820Y-94841312D01*
X137744201Y-94888931D01*
X137648963Y-94936550D01*
X137268010Y-94936550D01*
X139029915Y-94888931D02*
X139363249Y-94888931D01*
X139506106Y-95412741D02*
X139029915Y-95412741D01*
X139029915Y-94412741D01*
X139506106Y-94412741D01*
X139934677Y-95412741D02*
X139934677Y-94412741D01*
X140268011Y-95127027D01*
X140601344Y-94412741D01*
X140601344Y-95412741D01*
X141077534Y-95412741D02*
X141077534Y-94412741D01*
X148542667Y-113042381D02*
X148780762Y-114042381D01*
X148971239Y-113328095D01*
X149161715Y-114042381D01*
X149399810Y-113042381D01*
X150256953Y-113042381D02*
X149780762Y-113042381D01*
X149733143Y-113518571D01*
X149780762Y-113470952D01*
X149876000Y-113423333D01*
X150114096Y-113423333D01*
X150209334Y-113470952D01*
X150256953Y-113518571D01*
X150304572Y-113613810D01*
X150304572Y-113851905D01*
X150256953Y-113947143D01*
X150209334Y-113994762D01*
X150114096Y-114042381D01*
X149876000Y-114042381D01*
X149780762Y-113994762D01*
X149733143Y-113947143D01*
X151256953Y-114042381D02*
X150685524Y-114042381D01*
X150971238Y-114042381D02*
X150971238Y-113042381D01*
X150876000Y-113185238D01*
X150780762Y-113280476D01*
X150685524Y-113328095D01*
X151876000Y-113042381D02*
X151971239Y-113042381D01*
X152066477Y-113090000D01*
X152114096Y-113137619D01*
X152161715Y-113232857D01*
X152209334Y-113423333D01*
X152209334Y-113661429D01*
X152161715Y-113851905D01*
X152114096Y-113947143D01*
X152066477Y-113994762D01*
X151971239Y-114042381D01*
X151876000Y-114042381D01*
X151780762Y-113994762D01*
X151733143Y-113947143D01*
X151685524Y-113851905D01*
X151637905Y-113661429D01*
X151637905Y-113423333D01*
X151685524Y-113232857D01*
X151733143Y-113137619D01*
X151780762Y-113090000D01*
X151876000Y-113042381D01*
X152828381Y-113042381D02*
X152923620Y-113042381D01*
X153018858Y-113090000D01*
X153066477Y-113137619D01*
X153114096Y-113232857D01*
X153161715Y-113423333D01*
X153161715Y-113661429D01*
X153114096Y-113851905D01*
X153066477Y-113947143D01*
X153018858Y-113994762D01*
X152923620Y-114042381D01*
X152828381Y-114042381D01*
X152733143Y-113994762D01*
X152685524Y-113947143D01*
X152637905Y-113851905D01*
X152590286Y-113661429D01*
X152590286Y-113423333D01*
X152637905Y-113232857D01*
X152685524Y-113137619D01*
X152733143Y-113090000D01*
X152828381Y-113042381D01*
X144878341Y-104632941D02*
X144306912Y-104632941D01*
X144592626Y-104632941D02*
X144592626Y-103632941D01*
X144497388Y-103775798D01*
X144402150Y-103871036D01*
X144306912Y-103918655D01*
X145497388Y-103632941D02*
X145592627Y-103632941D01*
X145687865Y-103680560D01*
X145735484Y-103728179D01*
X145783103Y-103823417D01*
X145830722Y-104013893D01*
X145830722Y-104251989D01*
X145783103Y-104442465D01*
X145735484Y-104537703D01*
X145687865Y-104585322D01*
X145592627Y-104632941D01*
X145497388Y-104632941D01*
X145402150Y-104585322D01*
X145354531Y-104537703D01*
X145306912Y-104442465D01*
X145259293Y-104251989D01*
X145259293Y-104013893D01*
X145306912Y-103823417D01*
X145354531Y-103728179D01*
X145402150Y-103680560D01*
X145497388Y-103632941D01*
X146449769Y-103632941D02*
X146545008Y-103632941D01*
X146640246Y-103680560D01*
X146687865Y-103728179D01*
X146735484Y-103823417D01*
X146783103Y-104013893D01*
X146783103Y-104251989D01*
X146735484Y-104442465D01*
X146687865Y-104537703D01*
X146640246Y-104585322D01*
X146545008Y-104632941D01*
X146449769Y-104632941D01*
X146354531Y-104585322D01*
X146306912Y-104537703D01*
X146259293Y-104442465D01*
X146211674Y-104251989D01*
X146211674Y-104013893D01*
X146259293Y-103823417D01*
X146306912Y-103728179D01*
X146354531Y-103680560D01*
X146449769Y-103632941D01*
X147211674Y-103966274D02*
X147211674Y-104632941D01*
X147211674Y-104061512D02*
X147259293Y-104013893D01*
X147354531Y-103966274D01*
X147497389Y-103966274D01*
X147592627Y-104013893D01*
X147640246Y-104109131D01*
X147640246Y-104632941D01*
X148449770Y-104109131D02*
X148116436Y-104109131D01*
X148116436Y-104632941D02*
X148116436Y-103632941D01*
X148592627Y-103632941D01*
X147606238Y-87618867D02*
X148082429Y-87618867D01*
X147511000Y-87904581D02*
X147844333Y-86904581D01*
X148177667Y-87904581D01*
X148368143Y-86904581D02*
X148939572Y-86904581D01*
X148653857Y-87904581D02*
X148653857Y-86904581D01*
X149225286Y-87856962D02*
X149368143Y-87904581D01*
X149606239Y-87904581D01*
X149701477Y-87856962D01*
X149749096Y-87809343D01*
X149796715Y-87714105D01*
X149796715Y-87618867D01*
X149749096Y-87523629D01*
X149701477Y-87476010D01*
X149606239Y-87428390D01*
X149415762Y-87380771D01*
X149320524Y-87333152D01*
X149272905Y-87285533D01*
X149225286Y-87190295D01*
X149225286Y-87095057D01*
X149272905Y-86999819D01*
X149320524Y-86952200D01*
X149415762Y-86904581D01*
X149653858Y-86904581D01*
X149796715Y-86952200D01*
X150225286Y-87904581D02*
X150225286Y-86904581D01*
X150225286Y-87380771D02*
X150796715Y-87380771D01*
X150796715Y-87904581D02*
X150796715Y-86904581D01*
X151225286Y-87618867D02*
X151701477Y-87618867D01*
X151130048Y-87904581D02*
X151463381Y-86904581D01*
X151796715Y-87904581D01*
X152082429Y-86999819D02*
X152130048Y-86952200D01*
X152225286Y-86904581D01*
X152463382Y-86904581D01*
X152558620Y-86952200D01*
X152606239Y-86999819D01*
X152653858Y-87095057D01*
X152653858Y-87190295D01*
X152606239Y-87333152D01*
X152034810Y-87904581D01*
X152653858Y-87904581D01*
X153272905Y-86904581D02*
X153368144Y-86904581D01*
X153463382Y-86952200D01*
X153511001Y-86999819D01*
X153558620Y-87095057D01*
X153606239Y-87285533D01*
X153606239Y-87523629D01*
X153558620Y-87714105D01*
X153511001Y-87809343D01*
X153463382Y-87856962D01*
X153368144Y-87904581D01*
X153272905Y-87904581D01*
X153177667Y-87856962D01*
X153130048Y-87809343D01*
X153082429Y-87714105D01*
X153034810Y-87523629D01*
X153034810Y-87285533D01*
X153082429Y-87095057D01*
X153130048Y-86999819D01*
X153177667Y-86952200D01*
X153272905Y-86904581D01*
X154463382Y-87237914D02*
X154463382Y-87904581D01*
X154225286Y-86856962D02*
X153987191Y-87571248D01*
X154606239Y-87571248D01*
X154939572Y-87618867D02*
X155415763Y-87618867D01*
X154844334Y-87904581D02*
X155177667Y-86904581D01*
X155511001Y-87904581D01*
X141354800Y-101538067D02*
X141830991Y-101538067D01*
X141259562Y-101823781D02*
X141592895Y-100823781D01*
X141926229Y-101823781D01*
X142259562Y-101823781D02*
X142259562Y-100823781D01*
X142592896Y-101538067D01*
X142926229Y-100823781D01*
X142926229Y-101823781D01*
X143354800Y-101776162D02*
X143497657Y-101823781D01*
X143735753Y-101823781D01*
X143830991Y-101776162D01*
X143878610Y-101728543D01*
X143926229Y-101633305D01*
X143926229Y-101538067D01*
X143878610Y-101442829D01*
X143830991Y-101395210D01*
X143735753Y-101347590D01*
X143545276Y-101299971D01*
X143450038Y-101252352D01*
X143402419Y-101204733D01*
X143354800Y-101109495D01*
X143354800Y-101014257D01*
X143402419Y-100919019D01*
X143450038Y-100871400D01*
X143545276Y-100823781D01*
X143783372Y-100823781D01*
X143926229Y-100871400D01*
X144878610Y-101823781D02*
X144307181Y-101823781D01*
X144592895Y-101823781D02*
X144592895Y-100823781D01*
X144497657Y-100966638D01*
X144402419Y-101061876D01*
X144307181Y-101109495D01*
X145830991Y-101823781D02*
X145259562Y-101823781D01*
X145545276Y-101823781D02*
X145545276Y-100823781D01*
X145450038Y-100966638D01*
X145354800Y-101061876D01*
X145259562Y-101109495D01*
X146783372Y-101823781D02*
X146211943Y-101823781D01*
X146497657Y-101823781D02*
X146497657Y-100823781D01*
X146402419Y-100966638D01*
X146307181Y-101061876D01*
X146211943Y-101109495D01*
X147116705Y-100823781D02*
X147783372Y-100823781D01*
X147354800Y-101823781D01*
X148164324Y-101442829D02*
X148926229Y-101442829D01*
X149307181Y-100823781D02*
X149926229Y-100823781D01*
X149592895Y-101204733D01*
X149735753Y-101204733D01*
X149830991Y-101252352D01*
X149878610Y-101299971D01*
X149926229Y-101395210D01*
X149926229Y-101633305D01*
X149878610Y-101728543D01*
X149830991Y-101776162D01*
X149735753Y-101823781D01*
X149450038Y-101823781D01*
X149354800Y-101776162D01*
X149307181Y-101728543D01*
X150354800Y-101728543D02*
X150402419Y-101776162D01*
X150354800Y-101823781D01*
X150307181Y-101776162D01*
X150354800Y-101728543D01*
X150354800Y-101823781D01*
X150735752Y-100823781D02*
X151354800Y-100823781D01*
X151021466Y-101204733D01*
X151164324Y-101204733D01*
X151259562Y-101252352D01*
X151307181Y-101299971D01*
X151354800Y-101395210D01*
X151354800Y-101633305D01*
X151307181Y-101728543D01*
X151259562Y-101776162D01*
X151164324Y-101823781D01*
X150878609Y-101823781D01*
X150783371Y-101776162D01*
X150735752Y-101728543D01*
X121181905Y-72080381D02*
X121181905Y-71080381D01*
X121562858Y-71080381D01*
X121658096Y-71128000D01*
X121705715Y-71175619D01*
X121753334Y-71270857D01*
X121753334Y-71413714D01*
X121705715Y-71508952D01*
X121658096Y-71556571D01*
X121562858Y-71604190D01*
X121181905Y-71604190D01*
X122134286Y-71175619D02*
X122181905Y-71128000D01*
X122277143Y-71080381D01*
X122515239Y-71080381D01*
X122610477Y-71128000D01*
X122658096Y-71175619D01*
X122705715Y-71270857D01*
X122705715Y-71366095D01*
X122658096Y-71508952D01*
X122086667Y-72080381D01*
X122705715Y-72080381D01*
X120875667Y-63669881D02*
X120542333Y-63193690D01*
X120304238Y-63669881D02*
X120304238Y-62669881D01*
X120685191Y-62669881D01*
X120780429Y-62717500D01*
X120828048Y-62765119D01*
X120875667Y-62860357D01*
X120875667Y-63003214D01*
X120828048Y-63098452D01*
X120780429Y-63146071D01*
X120685191Y-63193690D01*
X120304238Y-63193690D01*
X121304238Y-63146071D02*
X121637572Y-63146071D01*
X121780429Y-63669881D02*
X121304238Y-63669881D01*
X121304238Y-62669881D01*
X121780429Y-62669881D01*
X122542334Y-63146071D02*
X122209000Y-63146071D01*
X122209000Y-63669881D02*
X122209000Y-62669881D01*
X122685191Y-62669881D01*
X123209000Y-62669881D02*
X123209000Y-62907976D01*
X122970905Y-62812738D02*
X123209000Y-62907976D01*
X123447096Y-62812738D01*
X123066143Y-63098452D02*
X123209000Y-62907976D01*
X123351858Y-63098452D01*
X123970905Y-62669881D02*
X123970905Y-62907976D01*
X123732810Y-62812738D02*
X123970905Y-62907976D01*
X124209001Y-62812738D01*
X123828048Y-63098452D02*
X123970905Y-62907976D01*
X124113763Y-63098452D01*
X116233569Y-72671641D02*
X116233569Y-71671641D01*
X116566903Y-72385927D01*
X116900236Y-71671641D01*
X116900236Y-72671641D01*
X117519283Y-72671641D02*
X117424045Y-72624022D01*
X117376426Y-72576403D01*
X117328807Y-72481165D01*
X117328807Y-72195450D01*
X117376426Y-72100212D01*
X117424045Y-72052593D01*
X117519283Y-72004974D01*
X117662141Y-72004974D01*
X117757379Y-72052593D01*
X117804998Y-72100212D01*
X117852617Y-72195450D01*
X117852617Y-72481165D01*
X117804998Y-72576403D01*
X117757379Y-72624022D01*
X117662141Y-72671641D01*
X117519283Y-72671641D01*
X118709760Y-72004974D02*
X118709760Y-72671641D01*
X118281188Y-72004974D02*
X118281188Y-72528784D01*
X118328807Y-72624022D01*
X118424045Y-72671641D01*
X118566903Y-72671641D01*
X118662141Y-72624022D01*
X118709760Y-72576403D01*
X119185950Y-72004974D02*
X119185950Y-72671641D01*
X119185950Y-72100212D02*
X119233569Y-72052593D01*
X119328807Y-72004974D01*
X119471665Y-72004974D01*
X119566903Y-72052593D01*
X119614522Y-72147831D01*
X119614522Y-72671641D01*
X119947855Y-72004974D02*
X120328807Y-72004974D01*
X120090712Y-71671641D02*
X120090712Y-72528784D01*
X120138331Y-72624022D01*
X120233569Y-72671641D01*
X120328807Y-72671641D01*
X120662141Y-72671641D02*
X120662141Y-72004974D01*
X120662141Y-71671641D02*
X120614522Y-71719260D01*
X120662141Y-71766879D01*
X120709760Y-71719260D01*
X120662141Y-71671641D01*
X120662141Y-71766879D01*
X121138331Y-72004974D02*
X121138331Y-72671641D01*
X121138331Y-72100212D02*
X121185950Y-72052593D01*
X121281188Y-72004974D01*
X121424046Y-72004974D01*
X121519284Y-72052593D01*
X121566903Y-72147831D01*
X121566903Y-72671641D01*
X122471665Y-72004974D02*
X122471665Y-72814498D01*
X122424046Y-72909736D01*
X122376427Y-72957355D01*
X122281188Y-73004974D01*
X122138331Y-73004974D01*
X122043093Y-72957355D01*
X122471665Y-72624022D02*
X122376427Y-72671641D01*
X122185950Y-72671641D01*
X122090712Y-72624022D01*
X122043093Y-72576403D01*
X121995474Y-72481165D01*
X121995474Y-72195450D01*
X122043093Y-72100212D01*
X122090712Y-72052593D01*
X122185950Y-72004974D01*
X122376427Y-72004974D01*
X122471665Y-72052593D01*
X122947855Y-72671641D02*
X122947855Y-71671641D01*
X122947855Y-72147831D02*
X123519284Y-72147831D01*
X123519284Y-72671641D02*
X123519284Y-71671641D01*
X124138331Y-72671641D02*
X124043093Y-72624022D01*
X123995474Y-72576403D01*
X123947855Y-72481165D01*
X123947855Y-72195450D01*
X123995474Y-72100212D01*
X124043093Y-72052593D01*
X124138331Y-72004974D01*
X124281189Y-72004974D01*
X124376427Y-72052593D01*
X124424046Y-72100212D01*
X124471665Y-72195450D01*
X124471665Y-72481165D01*
X124424046Y-72576403D01*
X124376427Y-72624022D01*
X124281189Y-72671641D01*
X124138331Y-72671641D01*
X125043093Y-72671641D02*
X124947855Y-72624022D01*
X124900236Y-72528784D01*
X124900236Y-71671641D01*
X125804999Y-72624022D02*
X125709761Y-72671641D01*
X125519284Y-72671641D01*
X125424046Y-72624022D01*
X125376427Y-72528784D01*
X125376427Y-72147831D01*
X125424046Y-72052593D01*
X125519284Y-72004974D01*
X125709761Y-72004974D01*
X125804999Y-72052593D01*
X125852618Y-72147831D01*
X125852618Y-72243070D01*
X125376427Y-72338308D01*
X126043094Y-72766879D02*
X126804999Y-72766879D01*
X126947856Y-71671641D02*
X127566904Y-71671641D01*
X127233570Y-72052593D01*
X127376428Y-72052593D01*
X127471666Y-72100212D01*
X127519285Y-72147831D01*
X127566904Y-72243070D01*
X127566904Y-72481165D01*
X127519285Y-72576403D01*
X127471666Y-72624022D01*
X127376428Y-72671641D01*
X127090713Y-72671641D01*
X126995475Y-72624022D01*
X126947856Y-72576403D01*
X127995475Y-72671641D02*
X127995475Y-72004974D01*
X127995475Y-72100212D02*
X128043094Y-72052593D01*
X128138332Y-72004974D01*
X128281190Y-72004974D01*
X128376428Y-72052593D01*
X128424047Y-72147831D01*
X128424047Y-72671641D01*
X128424047Y-72147831D02*
X128471666Y-72052593D01*
X128566904Y-72004974D01*
X128709761Y-72004974D01*
X128804999Y-72052593D01*
X128852618Y-72147831D01*
X128852618Y-72671641D01*
X129328808Y-72671641D02*
X129328808Y-72004974D01*
X129328808Y-72100212D02*
X129376427Y-72052593D01*
X129471665Y-72004974D01*
X129614523Y-72004974D01*
X129709761Y-72052593D01*
X129757380Y-72147831D01*
X129757380Y-72671641D01*
X129757380Y-72147831D02*
X129804999Y-72052593D01*
X129900237Y-72004974D01*
X130043094Y-72004974D01*
X130138332Y-72052593D01*
X130185951Y-72147831D01*
X130185951Y-72671641D01*
X163377667Y-106108381D02*
X163044333Y-105632190D01*
X162806238Y-106108381D02*
X162806238Y-105108381D01*
X163187191Y-105108381D01*
X163282429Y-105156000D01*
X163330048Y-105203619D01*
X163377667Y-105298857D01*
X163377667Y-105441714D01*
X163330048Y-105536952D01*
X163282429Y-105584571D01*
X163187191Y-105632190D01*
X162806238Y-105632190D01*
X163806238Y-105584571D02*
X164139572Y-105584571D01*
X164282429Y-106108381D02*
X163806238Y-106108381D01*
X163806238Y-105108381D01*
X164282429Y-105108381D01*
X165044334Y-105584571D02*
X164711000Y-105584571D01*
X164711000Y-106108381D02*
X164711000Y-105108381D01*
X165187191Y-105108381D01*
X165711000Y-105108381D02*
X165711000Y-105346476D01*
X165472905Y-105251238D02*
X165711000Y-105346476D01*
X165949096Y-105251238D01*
X165568143Y-105536952D02*
X165711000Y-105346476D01*
X165853858Y-105536952D01*
X166472905Y-105108381D02*
X166472905Y-105346476D01*
X166234810Y-105251238D02*
X166472905Y-105346476D01*
X166711001Y-105251238D01*
X166330048Y-105536952D02*
X166472905Y-105346476D01*
X166615763Y-105536952D01*
X158735569Y-115110141D02*
X158735569Y-114110141D01*
X159068903Y-114824427D01*
X159402236Y-114110141D01*
X159402236Y-115110141D01*
X160021283Y-115110141D02*
X159926045Y-115062522D01*
X159878426Y-115014903D01*
X159830807Y-114919665D01*
X159830807Y-114633950D01*
X159878426Y-114538712D01*
X159926045Y-114491093D01*
X160021283Y-114443474D01*
X160164141Y-114443474D01*
X160259379Y-114491093D01*
X160306998Y-114538712D01*
X160354617Y-114633950D01*
X160354617Y-114919665D01*
X160306998Y-115014903D01*
X160259379Y-115062522D01*
X160164141Y-115110141D01*
X160021283Y-115110141D01*
X161211760Y-114443474D02*
X161211760Y-115110141D01*
X160783188Y-114443474D02*
X160783188Y-114967284D01*
X160830807Y-115062522D01*
X160926045Y-115110141D01*
X161068903Y-115110141D01*
X161164141Y-115062522D01*
X161211760Y-115014903D01*
X161687950Y-114443474D02*
X161687950Y-115110141D01*
X161687950Y-114538712D02*
X161735569Y-114491093D01*
X161830807Y-114443474D01*
X161973665Y-114443474D01*
X162068903Y-114491093D01*
X162116522Y-114586331D01*
X162116522Y-115110141D01*
X162449855Y-114443474D02*
X162830807Y-114443474D01*
X162592712Y-114110141D02*
X162592712Y-114967284D01*
X162640331Y-115062522D01*
X162735569Y-115110141D01*
X162830807Y-115110141D01*
X163164141Y-115110141D02*
X163164141Y-114443474D01*
X163164141Y-114110141D02*
X163116522Y-114157760D01*
X163164141Y-114205379D01*
X163211760Y-114157760D01*
X163164141Y-114110141D01*
X163164141Y-114205379D01*
X163640331Y-114443474D02*
X163640331Y-115110141D01*
X163640331Y-114538712D02*
X163687950Y-114491093D01*
X163783188Y-114443474D01*
X163926046Y-114443474D01*
X164021284Y-114491093D01*
X164068903Y-114586331D01*
X164068903Y-115110141D01*
X164973665Y-114443474D02*
X164973665Y-115252998D01*
X164926046Y-115348236D01*
X164878427Y-115395855D01*
X164783188Y-115443474D01*
X164640331Y-115443474D01*
X164545093Y-115395855D01*
X164973665Y-115062522D02*
X164878427Y-115110141D01*
X164687950Y-115110141D01*
X164592712Y-115062522D01*
X164545093Y-115014903D01*
X164497474Y-114919665D01*
X164497474Y-114633950D01*
X164545093Y-114538712D01*
X164592712Y-114491093D01*
X164687950Y-114443474D01*
X164878427Y-114443474D01*
X164973665Y-114491093D01*
X165449855Y-115110141D02*
X165449855Y-114110141D01*
X165449855Y-114586331D02*
X166021284Y-114586331D01*
X166021284Y-115110141D02*
X166021284Y-114110141D01*
X166640331Y-115110141D02*
X166545093Y-115062522D01*
X166497474Y-115014903D01*
X166449855Y-114919665D01*
X166449855Y-114633950D01*
X166497474Y-114538712D01*
X166545093Y-114491093D01*
X166640331Y-114443474D01*
X166783189Y-114443474D01*
X166878427Y-114491093D01*
X166926046Y-114538712D01*
X166973665Y-114633950D01*
X166973665Y-114919665D01*
X166926046Y-115014903D01*
X166878427Y-115062522D01*
X166783189Y-115110141D01*
X166640331Y-115110141D01*
X167545093Y-115110141D02*
X167449855Y-115062522D01*
X167402236Y-114967284D01*
X167402236Y-114110141D01*
X168306999Y-115062522D02*
X168211761Y-115110141D01*
X168021284Y-115110141D01*
X167926046Y-115062522D01*
X167878427Y-114967284D01*
X167878427Y-114586331D01*
X167926046Y-114491093D01*
X168021284Y-114443474D01*
X168211761Y-114443474D01*
X168306999Y-114491093D01*
X168354618Y-114586331D01*
X168354618Y-114681570D01*
X167878427Y-114776808D01*
X168545094Y-115205379D02*
X169306999Y-115205379D01*
X169449856Y-114110141D02*
X170068904Y-114110141D01*
X169735570Y-114491093D01*
X169878428Y-114491093D01*
X169973666Y-114538712D01*
X170021285Y-114586331D01*
X170068904Y-114681570D01*
X170068904Y-114919665D01*
X170021285Y-115014903D01*
X169973666Y-115062522D01*
X169878428Y-115110141D01*
X169592713Y-115110141D01*
X169497475Y-115062522D01*
X169449856Y-115014903D01*
X170497475Y-115110141D02*
X170497475Y-114443474D01*
X170497475Y-114538712D02*
X170545094Y-114491093D01*
X170640332Y-114443474D01*
X170783190Y-114443474D01*
X170878428Y-114491093D01*
X170926047Y-114586331D01*
X170926047Y-115110141D01*
X170926047Y-114586331D02*
X170973666Y-114491093D01*
X171068904Y-114443474D01*
X171211761Y-114443474D01*
X171306999Y-114491093D01*
X171354618Y-114586331D01*
X171354618Y-115110141D01*
X171830808Y-115110141D02*
X171830808Y-114443474D01*
X171830808Y-114538712D02*
X171878427Y-114491093D01*
X171973665Y-114443474D01*
X172116523Y-114443474D01*
X172211761Y-114491093D01*
X172259380Y-114586331D01*
X172259380Y-115110141D01*
X172259380Y-114586331D02*
X172306999Y-114491093D01*
X172402237Y-114443474D01*
X172545094Y-114443474D01*
X172640332Y-114491093D01*
X172687951Y-114586331D01*
X172687951Y-115110141D01*
X120875667Y-106108381D02*
X120542333Y-105632190D01*
X120304238Y-106108381D02*
X120304238Y-105108381D01*
X120685191Y-105108381D01*
X120780429Y-105156000D01*
X120828048Y-105203619D01*
X120875667Y-105298857D01*
X120875667Y-105441714D01*
X120828048Y-105536952D01*
X120780429Y-105584571D01*
X120685191Y-105632190D01*
X120304238Y-105632190D01*
X121304238Y-105584571D02*
X121637572Y-105584571D01*
X121780429Y-106108381D02*
X121304238Y-106108381D01*
X121304238Y-105108381D01*
X121780429Y-105108381D01*
X122542334Y-105584571D02*
X122209000Y-105584571D01*
X122209000Y-106108381D02*
X122209000Y-105108381D01*
X122685191Y-105108381D01*
X123209000Y-105108381D02*
X123209000Y-105346476D01*
X122970905Y-105251238D02*
X123209000Y-105346476D01*
X123447096Y-105251238D01*
X123066143Y-105536952D02*
X123209000Y-105346476D01*
X123351858Y-105536952D01*
X123970905Y-105108381D02*
X123970905Y-105346476D01*
X123732810Y-105251238D02*
X123970905Y-105346476D01*
X124209001Y-105251238D01*
X123828048Y-105536952D02*
X123970905Y-105346476D01*
X124113763Y-105536952D01*
X116233569Y-115110141D02*
X116233569Y-114110141D01*
X116566903Y-114824427D01*
X116900236Y-114110141D01*
X116900236Y-115110141D01*
X117519283Y-115110141D02*
X117424045Y-115062522D01*
X117376426Y-115014903D01*
X117328807Y-114919665D01*
X117328807Y-114633950D01*
X117376426Y-114538712D01*
X117424045Y-114491093D01*
X117519283Y-114443474D01*
X117662141Y-114443474D01*
X117757379Y-114491093D01*
X117804998Y-114538712D01*
X117852617Y-114633950D01*
X117852617Y-114919665D01*
X117804998Y-115014903D01*
X117757379Y-115062522D01*
X117662141Y-115110141D01*
X117519283Y-115110141D01*
X118709760Y-114443474D02*
X118709760Y-115110141D01*
X118281188Y-114443474D02*
X118281188Y-114967284D01*
X118328807Y-115062522D01*
X118424045Y-115110141D01*
X118566903Y-115110141D01*
X118662141Y-115062522D01*
X118709760Y-115014903D01*
X119185950Y-114443474D02*
X119185950Y-115110141D01*
X119185950Y-114538712D02*
X119233569Y-114491093D01*
X119328807Y-114443474D01*
X119471665Y-114443474D01*
X119566903Y-114491093D01*
X119614522Y-114586331D01*
X119614522Y-115110141D01*
X119947855Y-114443474D02*
X120328807Y-114443474D01*
X120090712Y-114110141D02*
X120090712Y-114967284D01*
X120138331Y-115062522D01*
X120233569Y-115110141D01*
X120328807Y-115110141D01*
X120662141Y-115110141D02*
X120662141Y-114443474D01*
X120662141Y-114110141D02*
X120614522Y-114157760D01*
X120662141Y-114205379D01*
X120709760Y-114157760D01*
X120662141Y-114110141D01*
X120662141Y-114205379D01*
X121138331Y-114443474D02*
X121138331Y-115110141D01*
X121138331Y-114538712D02*
X121185950Y-114491093D01*
X121281188Y-114443474D01*
X121424046Y-114443474D01*
X121519284Y-114491093D01*
X121566903Y-114586331D01*
X121566903Y-115110141D01*
X122471665Y-114443474D02*
X122471665Y-115252998D01*
X122424046Y-115348236D01*
X122376427Y-115395855D01*
X122281188Y-115443474D01*
X122138331Y-115443474D01*
X122043093Y-115395855D01*
X122471665Y-115062522D02*
X122376427Y-115110141D01*
X122185950Y-115110141D01*
X122090712Y-115062522D01*
X122043093Y-115014903D01*
X121995474Y-114919665D01*
X121995474Y-114633950D01*
X122043093Y-114538712D01*
X122090712Y-114491093D01*
X122185950Y-114443474D01*
X122376427Y-114443474D01*
X122471665Y-114491093D01*
X122947855Y-115110141D02*
X122947855Y-114110141D01*
X122947855Y-114586331D02*
X123519284Y-114586331D01*
X123519284Y-115110141D02*
X123519284Y-114110141D01*
X124138331Y-115110141D02*
X124043093Y-115062522D01*
X123995474Y-115014903D01*
X123947855Y-114919665D01*
X123947855Y-114633950D01*
X123995474Y-114538712D01*
X124043093Y-114491093D01*
X124138331Y-114443474D01*
X124281189Y-114443474D01*
X124376427Y-114491093D01*
X124424046Y-114538712D01*
X124471665Y-114633950D01*
X124471665Y-114919665D01*
X124424046Y-115014903D01*
X124376427Y-115062522D01*
X124281189Y-115110141D01*
X124138331Y-115110141D01*
X125043093Y-115110141D02*
X124947855Y-115062522D01*
X124900236Y-114967284D01*
X124900236Y-114110141D01*
X125804999Y-115062522D02*
X125709761Y-115110141D01*
X125519284Y-115110141D01*
X125424046Y-115062522D01*
X125376427Y-114967284D01*
X125376427Y-114586331D01*
X125424046Y-114491093D01*
X125519284Y-114443474D01*
X125709761Y-114443474D01*
X125804999Y-114491093D01*
X125852618Y-114586331D01*
X125852618Y-114681570D01*
X125376427Y-114776808D01*
X126043094Y-115205379D02*
X126804999Y-115205379D01*
X126947856Y-114110141D02*
X127566904Y-114110141D01*
X127233570Y-114491093D01*
X127376428Y-114491093D01*
X127471666Y-114538712D01*
X127519285Y-114586331D01*
X127566904Y-114681570D01*
X127566904Y-114919665D01*
X127519285Y-115014903D01*
X127471666Y-115062522D01*
X127376428Y-115110141D01*
X127090713Y-115110141D01*
X126995475Y-115062522D01*
X126947856Y-115014903D01*
X127995475Y-115110141D02*
X127995475Y-114443474D01*
X127995475Y-114538712D02*
X128043094Y-114491093D01*
X128138332Y-114443474D01*
X128281190Y-114443474D01*
X128376428Y-114491093D01*
X128424047Y-114586331D01*
X128424047Y-115110141D01*
X128424047Y-114586331D02*
X128471666Y-114491093D01*
X128566904Y-114443474D01*
X128709761Y-114443474D01*
X128804999Y-114491093D01*
X128852618Y-114586331D01*
X128852618Y-115110141D01*
X129328808Y-115110141D02*
X129328808Y-114443474D01*
X129328808Y-114538712D02*
X129376427Y-114491093D01*
X129471665Y-114443474D01*
X129614523Y-114443474D01*
X129709761Y-114491093D01*
X129757380Y-114586331D01*
X129757380Y-115110141D01*
X129757380Y-114586331D02*
X129804999Y-114491093D01*
X129900237Y-114443474D01*
X130043094Y-114443474D01*
X130138332Y-114491093D01*
X130185951Y-114586331D01*
X130185951Y-115110141D01*
X130546181Y-93004228D02*
X130546181Y-93575657D01*
X130546181Y-93289943D02*
X129546181Y-93289943D01*
X129689038Y-93385181D01*
X129784276Y-93480419D01*
X129831895Y-93575657D01*
X129546181Y-92385181D02*
X129546181Y-92289942D01*
X129593800Y-92194704D01*
X129641419Y-92147085D01*
X129736657Y-92099466D01*
X129927133Y-92051847D01*
X130165229Y-92051847D01*
X130355705Y-92099466D01*
X130450943Y-92147085D01*
X130498562Y-92194704D01*
X130546181Y-92289942D01*
X130546181Y-92385181D01*
X130498562Y-92480419D01*
X130450943Y-92528038D01*
X130355705Y-92575657D01*
X130165229Y-92623276D01*
X129927133Y-92623276D01*
X129736657Y-92575657D01*
X129641419Y-92528038D01*
X129593800Y-92480419D01*
X129546181Y-92385181D01*
X129879514Y-91194704D02*
X130546181Y-91194704D01*
X129879514Y-91623276D02*
X130403324Y-91623276D01*
X130498562Y-91575657D01*
X130546181Y-91480419D01*
X130546181Y-91337561D01*
X130498562Y-91242323D01*
X130450943Y-91194704D01*
X130022371Y-90385180D02*
X130022371Y-90718514D01*
X130546181Y-90718514D02*
X129546181Y-90718514D01*
X129546181Y-90242323D01*
X128784481Y-69605162D02*
X128784481Y-70081353D01*
X127784481Y-70081353D01*
X128260671Y-69271829D02*
X128260671Y-68938495D01*
X128784481Y-68795638D02*
X128784481Y-69271829D01*
X127784481Y-69271829D01*
X127784481Y-68795638D01*
X128784481Y-68367067D02*
X127784481Y-68367067D01*
X127784481Y-68128972D01*
X127832100Y-67986114D01*
X127927338Y-67890876D01*
X128022576Y-67843257D01*
X128213052Y-67795638D01*
X128355910Y-67795638D01*
X128546386Y-67843257D01*
X128641624Y-67890876D01*
X128736862Y-67986114D01*
X128784481Y-68128972D01*
X128784481Y-68367067D01*
X128879719Y-67605162D02*
X128879719Y-66843257D01*
X128260671Y-66271828D02*
X128308290Y-66128971D01*
X128355910Y-66081352D01*
X128451148Y-66033733D01*
X128594005Y-66033733D01*
X128689243Y-66081352D01*
X128736862Y-66128971D01*
X128784481Y-66224209D01*
X128784481Y-66605162D01*
X127784481Y-66605162D01*
X127784481Y-66271828D01*
X127832100Y-66176590D01*
X127879719Y-66128971D01*
X127974957Y-66081352D01*
X128070195Y-66081352D01*
X128165433Y-66128971D01*
X128213052Y-66176590D01*
X128260671Y-66271828D01*
X128260671Y-66605162D01*
X128784481Y-65128971D02*
X128784481Y-65605162D01*
X127784481Y-65605162D01*
X127784481Y-64795638D02*
X128594005Y-64795638D01*
X128689243Y-64748019D01*
X128736862Y-64700400D01*
X128784481Y-64605162D01*
X128784481Y-64414685D01*
X128736862Y-64319447D01*
X128689243Y-64271828D01*
X128594005Y-64224209D01*
X127784481Y-64224209D01*
X128260671Y-63748019D02*
X128260671Y-63414685D01*
X128784481Y-63271828D02*
X128784481Y-63748019D01*
X127784481Y-63748019D01*
X127784481Y-63271828D01*
X159603781Y-87501219D02*
X159603781Y-88072648D01*
X159603781Y-87786934D02*
X158603781Y-87786934D01*
X158746638Y-87882172D01*
X158841876Y-87977410D01*
X158889495Y-88072648D01*
X158603781Y-86882172D02*
X158603781Y-86786933D01*
X158651400Y-86691695D01*
X158699019Y-86644076D01*
X158794257Y-86596457D01*
X158984733Y-86548838D01*
X159222829Y-86548838D01*
X159413305Y-86596457D01*
X159508543Y-86644076D01*
X159556162Y-86691695D01*
X159603781Y-86786933D01*
X159603781Y-86882172D01*
X159556162Y-86977410D01*
X159508543Y-87025029D01*
X159413305Y-87072648D01*
X159222829Y-87120267D01*
X158984733Y-87120267D01*
X158794257Y-87072648D01*
X158699019Y-87025029D01*
X158651400Y-86977410D01*
X158603781Y-86882172D01*
X158603781Y-85929791D02*
X158603781Y-85834552D01*
X158651400Y-85739314D01*
X158699019Y-85691695D01*
X158794257Y-85644076D01*
X158984733Y-85596457D01*
X159222829Y-85596457D01*
X159413305Y-85644076D01*
X159508543Y-85691695D01*
X159556162Y-85739314D01*
X159603781Y-85834552D01*
X159603781Y-85929791D01*
X159556162Y-86025029D01*
X159508543Y-86072648D01*
X159413305Y-86120267D01*
X159222829Y-86167886D01*
X158984733Y-86167886D01*
X158794257Y-86120267D01*
X158699019Y-86072648D01*
X158651400Y-86025029D01*
X158603781Y-85929791D01*
X158937114Y-85167886D02*
X159603781Y-85167886D01*
X159032352Y-85167886D02*
X158984733Y-85120267D01*
X158937114Y-85025029D01*
X158937114Y-84882171D01*
X158984733Y-84786933D01*
X159079971Y-84739314D01*
X159603781Y-84739314D01*
X159079971Y-83929790D02*
X159079971Y-84263124D01*
X159603781Y-84263124D02*
X158603781Y-84263124D01*
X158603781Y-83786933D01*
X130405381Y-82626381D02*
X129833952Y-82626381D01*
X130119666Y-82626381D02*
X130119666Y-81626381D01*
X130024428Y-81769238D01*
X129929190Y-81864476D01*
X129833952Y-81912095D01*
X131024428Y-81626381D02*
X131119667Y-81626381D01*
X131214905Y-81674000D01*
X131262524Y-81721619D01*
X131310143Y-81816857D01*
X131357762Y-82007333D01*
X131357762Y-82245429D01*
X131310143Y-82435905D01*
X131262524Y-82531143D01*
X131214905Y-82578762D01*
X131119667Y-82626381D01*
X131024428Y-82626381D01*
X130929190Y-82578762D01*
X130881571Y-82531143D01*
X130833952Y-82435905D01*
X130786333Y-82245429D01*
X130786333Y-82007333D01*
X130833952Y-81816857D01*
X130881571Y-81721619D01*
X130929190Y-81674000D01*
X131024428Y-81626381D01*
X131976809Y-81626381D02*
X132072048Y-81626381D01*
X132167286Y-81674000D01*
X132214905Y-81721619D01*
X132262524Y-81816857D01*
X132310143Y-82007333D01*
X132310143Y-82245429D01*
X132262524Y-82435905D01*
X132214905Y-82531143D01*
X132167286Y-82578762D01*
X132072048Y-82626381D01*
X131976809Y-82626381D01*
X131881571Y-82578762D01*
X131833952Y-82531143D01*
X131786333Y-82435905D01*
X131738714Y-82245429D01*
X131738714Y-82007333D01*
X131786333Y-81816857D01*
X131833952Y-81721619D01*
X131881571Y-81674000D01*
X131976809Y-81626381D01*
X132738714Y-81959714D02*
X132738714Y-82626381D01*
X132738714Y-82054952D02*
X132786333Y-82007333D01*
X132881571Y-81959714D01*
X133024429Y-81959714D01*
X133119667Y-82007333D01*
X133167286Y-82102571D01*
X133167286Y-82626381D01*
X133976810Y-82102571D02*
X133643476Y-82102571D01*
X133643476Y-82626381D02*
X133643476Y-81626381D01*
X134119667Y-81626381D01*
X139385381Y-77239619D02*
X139385381Y-77811048D01*
X139385381Y-77525334D02*
X138385381Y-77525334D01*
X138528238Y-77620572D01*
X138623476Y-77715810D01*
X138671095Y-77811048D01*
X138385381Y-76620572D02*
X138385381Y-76525333D01*
X138433000Y-76430095D01*
X138480619Y-76382476D01*
X138575857Y-76334857D01*
X138766333Y-76287238D01*
X139004429Y-76287238D01*
X139194905Y-76334857D01*
X139290143Y-76382476D01*
X139337762Y-76430095D01*
X139385381Y-76525333D01*
X139385381Y-76620572D01*
X139337762Y-76715810D01*
X139290143Y-76763429D01*
X139194905Y-76811048D01*
X139004429Y-76858667D01*
X138766333Y-76858667D01*
X138575857Y-76811048D01*
X138480619Y-76763429D01*
X138433000Y-76715810D01*
X138385381Y-76620572D01*
X138385381Y-75668191D02*
X138385381Y-75572952D01*
X138433000Y-75477714D01*
X138480619Y-75430095D01*
X138575857Y-75382476D01*
X138766333Y-75334857D01*
X139004429Y-75334857D01*
X139194905Y-75382476D01*
X139290143Y-75430095D01*
X139337762Y-75477714D01*
X139385381Y-75572952D01*
X139385381Y-75668191D01*
X139337762Y-75763429D01*
X139290143Y-75811048D01*
X139194905Y-75858667D01*
X139004429Y-75906286D01*
X138766333Y-75906286D01*
X138575857Y-75858667D01*
X138480619Y-75811048D01*
X138433000Y-75763429D01*
X138385381Y-75668191D01*
X138718714Y-74906286D02*
X139385381Y-74906286D01*
X138813952Y-74906286D02*
X138766333Y-74858667D01*
X138718714Y-74763429D01*
X138718714Y-74620571D01*
X138766333Y-74525333D01*
X138861571Y-74477714D01*
X139385381Y-74477714D01*
X138861571Y-73668190D02*
X138861571Y-74001524D01*
X139385381Y-74001524D02*
X138385381Y-74001524D01*
X138385381Y-73525333D01*
X151069381Y-86703619D02*
X151069381Y-87275048D01*
X151069381Y-86989334D02*
X150069381Y-86989334D01*
X150212238Y-87084572D01*
X150307476Y-87179810D01*
X150355095Y-87275048D01*
X150069381Y-86084572D02*
X150069381Y-85989333D01*
X150117000Y-85894095D01*
X150164619Y-85846476D01*
X150259857Y-85798857D01*
X150450333Y-85751238D01*
X150688429Y-85751238D01*
X150878905Y-85798857D01*
X150974143Y-85846476D01*
X151021762Y-85894095D01*
X151069381Y-85989333D01*
X151069381Y-86084572D01*
X151021762Y-86179810D01*
X150974143Y-86227429D01*
X150878905Y-86275048D01*
X150688429Y-86322667D01*
X150450333Y-86322667D01*
X150259857Y-86275048D01*
X150164619Y-86227429D01*
X150117000Y-86179810D01*
X150069381Y-86084572D01*
X150069381Y-85132191D02*
X150069381Y-85036952D01*
X150117000Y-84941714D01*
X150164619Y-84894095D01*
X150259857Y-84846476D01*
X150450333Y-84798857D01*
X150688429Y-84798857D01*
X150878905Y-84846476D01*
X150974143Y-84894095D01*
X151021762Y-84941714D01*
X151069381Y-85036952D01*
X151069381Y-85132191D01*
X151021762Y-85227429D01*
X150974143Y-85275048D01*
X150878905Y-85322667D01*
X150688429Y-85370286D01*
X150450333Y-85370286D01*
X150259857Y-85322667D01*
X150164619Y-85275048D01*
X150117000Y-85227429D01*
X150069381Y-85132191D01*
X150402714Y-84370286D02*
X151069381Y-84370286D01*
X150497952Y-84370286D02*
X150450333Y-84322667D01*
X150402714Y-84227429D01*
X150402714Y-84084571D01*
X150450333Y-83989333D01*
X150545571Y-83941714D01*
X151069381Y-83941714D01*
X150545571Y-83132190D02*
X150545571Y-83465524D01*
X151069381Y-83465524D02*
X150069381Y-83465524D01*
X150069381Y-82989333D01*
X138760381Y-95146619D02*
X138760381Y-95718048D01*
X138760381Y-95432334D02*
X137760381Y-95432334D01*
X137903238Y-95527572D01*
X137998476Y-95622810D01*
X138046095Y-95718048D01*
X137760381Y-94527572D02*
X137760381Y-94432333D01*
X137808000Y-94337095D01*
X137855619Y-94289476D01*
X137950857Y-94241857D01*
X138141333Y-94194238D01*
X138379429Y-94194238D01*
X138569905Y-94241857D01*
X138665143Y-94289476D01*
X138712762Y-94337095D01*
X138760381Y-94432333D01*
X138760381Y-94527572D01*
X138712762Y-94622810D01*
X138665143Y-94670429D01*
X138569905Y-94718048D01*
X138379429Y-94765667D01*
X138141333Y-94765667D01*
X137950857Y-94718048D01*
X137855619Y-94670429D01*
X137808000Y-94622810D01*
X137760381Y-94527572D01*
X137760381Y-93575191D02*
X137760381Y-93479952D01*
X137808000Y-93384714D01*
X137855619Y-93337095D01*
X137950857Y-93289476D01*
X138141333Y-93241857D01*
X138379429Y-93241857D01*
X138569905Y-93289476D01*
X138665143Y-93337095D01*
X138712762Y-93384714D01*
X138760381Y-93479952D01*
X138760381Y-93575191D01*
X138712762Y-93670429D01*
X138665143Y-93718048D01*
X138569905Y-93765667D01*
X138379429Y-93813286D01*
X138141333Y-93813286D01*
X137950857Y-93765667D01*
X137855619Y-93718048D01*
X137808000Y-93670429D01*
X137760381Y-93575191D01*
X138093714Y-92813286D02*
X138760381Y-92813286D01*
X138188952Y-92813286D02*
X138141333Y-92765667D01*
X138093714Y-92670429D01*
X138093714Y-92527571D01*
X138141333Y-92432333D01*
X138236571Y-92384714D01*
X138760381Y-92384714D01*
X138236571Y-91575190D02*
X138236571Y-91908524D01*
X138760381Y-91908524D02*
X137760381Y-91908524D01*
X137760381Y-91432333D01*
X150281981Y-110630419D02*
X150281981Y-111201848D01*
X150281981Y-110916134D02*
X149281981Y-110916134D01*
X149424838Y-111011372D01*
X149520076Y-111106610D01*
X149567695Y-111201848D01*
X149281981Y-110011372D02*
X149281981Y-109916133D01*
X149329600Y-109820895D01*
X149377219Y-109773276D01*
X149472457Y-109725657D01*
X149662933Y-109678038D01*
X149901029Y-109678038D01*
X150091505Y-109725657D01*
X150186743Y-109773276D01*
X150234362Y-109820895D01*
X150281981Y-109916133D01*
X150281981Y-110011372D01*
X150234362Y-110106610D01*
X150186743Y-110154229D01*
X150091505Y-110201848D01*
X149901029Y-110249467D01*
X149662933Y-110249467D01*
X149472457Y-110201848D01*
X149377219Y-110154229D01*
X149329600Y-110106610D01*
X149281981Y-110011372D01*
X149281981Y-109058991D02*
X149281981Y-108963752D01*
X149329600Y-108868514D01*
X149377219Y-108820895D01*
X149472457Y-108773276D01*
X149662933Y-108725657D01*
X149901029Y-108725657D01*
X150091505Y-108773276D01*
X150186743Y-108820895D01*
X150234362Y-108868514D01*
X150281981Y-108963752D01*
X150281981Y-109058991D01*
X150234362Y-109154229D01*
X150186743Y-109201848D01*
X150091505Y-109249467D01*
X149901029Y-109297086D01*
X149662933Y-109297086D01*
X149472457Y-109249467D01*
X149377219Y-109201848D01*
X149329600Y-109154229D01*
X149281981Y-109058991D01*
X149615314Y-108297086D02*
X150281981Y-108297086D01*
X149710552Y-108297086D02*
X149662933Y-108249467D01*
X149615314Y-108154229D01*
X149615314Y-108011371D01*
X149662933Y-107916133D01*
X149758171Y-107868514D01*
X150281981Y-107868514D01*
X149758171Y-107058990D02*
X149758171Y-107392324D01*
X150281981Y-107392324D02*
X149281981Y-107392324D01*
X149281981Y-106916133D01*
X139258381Y-105211428D02*
X139258381Y-105782857D01*
X139258381Y-105497143D02*
X138258381Y-105497143D01*
X138401238Y-105592381D01*
X138496476Y-105687619D01*
X138544095Y-105782857D01*
X138258381Y-104592381D02*
X138258381Y-104497142D01*
X138306000Y-104401904D01*
X138353619Y-104354285D01*
X138448857Y-104306666D01*
X138639333Y-104259047D01*
X138877429Y-104259047D01*
X139067905Y-104306666D01*
X139163143Y-104354285D01*
X139210762Y-104401904D01*
X139258381Y-104497142D01*
X139258381Y-104592381D01*
X139210762Y-104687619D01*
X139163143Y-104735238D01*
X139067905Y-104782857D01*
X138877429Y-104830476D01*
X138639333Y-104830476D01*
X138448857Y-104782857D01*
X138353619Y-104735238D01*
X138306000Y-104687619D01*
X138258381Y-104592381D01*
X138591714Y-103401904D02*
X139258381Y-103401904D01*
X138591714Y-103830476D02*
X139115524Y-103830476D01*
X139210762Y-103782857D01*
X139258381Y-103687619D01*
X139258381Y-103544761D01*
X139210762Y-103449523D01*
X139163143Y-103401904D01*
X138734571Y-102592380D02*
X138734571Y-102925714D01*
X139258381Y-102925714D02*
X138258381Y-102925714D01*
X138258381Y-102449523D01*
X153787181Y-99998019D02*
X153787181Y-100569448D01*
X153787181Y-100283734D02*
X152787181Y-100283734D01*
X152930038Y-100378972D01*
X153025276Y-100474210D01*
X153072895Y-100569448D01*
X152787181Y-99378972D02*
X152787181Y-99283733D01*
X152834800Y-99188495D01*
X152882419Y-99140876D01*
X152977657Y-99093257D01*
X153168133Y-99045638D01*
X153406229Y-99045638D01*
X153596705Y-99093257D01*
X153691943Y-99140876D01*
X153739562Y-99188495D01*
X153787181Y-99283733D01*
X153787181Y-99378972D01*
X153739562Y-99474210D01*
X153691943Y-99521829D01*
X153596705Y-99569448D01*
X153406229Y-99617067D01*
X153168133Y-99617067D01*
X152977657Y-99569448D01*
X152882419Y-99521829D01*
X152834800Y-99474210D01*
X152787181Y-99378972D01*
X152787181Y-98426591D02*
X152787181Y-98331352D01*
X152834800Y-98236114D01*
X152882419Y-98188495D01*
X152977657Y-98140876D01*
X153168133Y-98093257D01*
X153406229Y-98093257D01*
X153596705Y-98140876D01*
X153691943Y-98188495D01*
X153739562Y-98236114D01*
X153787181Y-98331352D01*
X153787181Y-98426591D01*
X153739562Y-98521829D01*
X153691943Y-98569448D01*
X153596705Y-98617067D01*
X153406229Y-98664686D01*
X153168133Y-98664686D01*
X152977657Y-98617067D01*
X152882419Y-98569448D01*
X152834800Y-98521829D01*
X152787181Y-98426591D01*
X153120514Y-97664686D02*
X153787181Y-97664686D01*
X153215752Y-97664686D02*
X153168133Y-97617067D01*
X153120514Y-97521829D01*
X153120514Y-97378971D01*
X153168133Y-97283733D01*
X153263371Y-97236114D01*
X153787181Y-97236114D01*
X153263371Y-96426590D02*
X153263371Y-96759924D01*
X153787181Y-96759924D02*
X152787181Y-96759924D01*
X152787181Y-96283733D01*
X153187741Y-105130148D02*
X153187741Y-105701577D01*
X153187741Y-105415863D02*
X152187741Y-105415863D01*
X152330598Y-105511101D01*
X152425836Y-105606339D01*
X152473455Y-105701577D01*
X152187741Y-104511101D02*
X152187741Y-104415862D01*
X152235360Y-104320624D01*
X152282979Y-104273005D01*
X152378217Y-104225386D01*
X152568693Y-104177767D01*
X152806789Y-104177767D01*
X152997265Y-104225386D01*
X153092503Y-104273005D01*
X153140122Y-104320624D01*
X153187741Y-104415862D01*
X153187741Y-104511101D01*
X153140122Y-104606339D01*
X153092503Y-104653958D01*
X152997265Y-104701577D01*
X152806789Y-104749196D01*
X152568693Y-104749196D01*
X152378217Y-104701577D01*
X152282979Y-104653958D01*
X152235360Y-104606339D01*
X152187741Y-104511101D01*
X152521074Y-103320624D02*
X153187741Y-103320624D01*
X152521074Y-103749196D02*
X153044884Y-103749196D01*
X153140122Y-103701577D01*
X153187741Y-103606339D01*
X153187741Y-103463481D01*
X153140122Y-103368243D01*
X153092503Y-103320624D01*
X152663931Y-102511100D02*
X152663931Y-102844434D01*
X153187741Y-102844434D02*
X152187741Y-102844434D01*
X152187741Y-102368243D01*
X142467762Y-71755181D02*
X141896333Y-71755181D01*
X142182047Y-71755181D02*
X142182047Y-70755181D01*
X142086809Y-70898038D01*
X141991571Y-70993276D01*
X141896333Y-71040895D01*
X142896333Y-71088514D02*
X142896333Y-71755181D01*
X142896333Y-71183752D02*
X142943952Y-71136133D01*
X143039190Y-71088514D01*
X143182048Y-71088514D01*
X143277286Y-71136133D01*
X143324905Y-71231371D01*
X143324905Y-71755181D01*
X144134429Y-71231371D02*
X143801095Y-71231371D01*
X143801095Y-71755181D02*
X143801095Y-70755181D01*
X144277286Y-70755181D01*
X139182292Y-100314941D02*
X138610863Y-100314941D01*
X138896577Y-100314941D02*
X138896577Y-99314941D01*
X138801339Y-99457798D01*
X138706101Y-99553036D01*
X138610863Y-99600655D01*
X139801339Y-99314941D02*
X139896578Y-99314941D01*
X139991816Y-99362560D01*
X140039435Y-99410179D01*
X140087054Y-99505417D01*
X140134673Y-99695893D01*
X140134673Y-99933989D01*
X140087054Y-100124465D01*
X140039435Y-100219703D01*
X139991816Y-100267322D01*
X139896578Y-100314941D01*
X139801339Y-100314941D01*
X139706101Y-100267322D01*
X139658482Y-100219703D01*
X139610863Y-100124465D01*
X139563244Y-99933989D01*
X139563244Y-99695893D01*
X139610863Y-99505417D01*
X139658482Y-99410179D01*
X139706101Y-99362560D01*
X139801339Y-99314941D01*
X140991816Y-99648274D02*
X140991816Y-100314941D01*
X140563244Y-99648274D02*
X140563244Y-100172084D01*
X140610863Y-100267322D01*
X140706101Y-100314941D01*
X140848959Y-100314941D01*
X140944197Y-100267322D01*
X140991816Y-100219703D01*
X141801340Y-99791131D02*
X141468006Y-99791131D01*
X141468006Y-100314941D02*
X141468006Y-99314941D01*
X141944197Y-99314941D01*
X140318039Y-69158114D02*
X140318039Y-69824781D01*
X140079943Y-68777162D02*
X139841848Y-69491448D01*
X140460896Y-69491448D01*
X140746610Y-68824781D02*
X141413277Y-68824781D01*
X140984705Y-69824781D01*
X141984705Y-68824781D02*
X142079944Y-68824781D01*
X142175182Y-68872400D01*
X142222801Y-68920019D01*
X142270420Y-69015257D01*
X142318039Y-69205733D01*
X142318039Y-69443829D01*
X142270420Y-69634305D01*
X142222801Y-69729543D01*
X142175182Y-69777162D01*
X142079944Y-69824781D01*
X141984705Y-69824781D01*
X141889467Y-69777162D01*
X141841848Y-69729543D01*
X141794229Y-69634305D01*
X141746610Y-69443829D01*
X141746610Y-69205733D01*
X141794229Y-69015257D01*
X141841848Y-68920019D01*
X141889467Y-68872400D01*
X141984705Y-68824781D01*
X143318039Y-69824781D02*
X142984705Y-69348590D01*
X142746610Y-69824781D02*
X142746610Y-68824781D01*
X143127563Y-68824781D01*
X143222801Y-68872400D01*
X143270420Y-68920019D01*
X143318039Y-69015257D01*
X143318039Y-69158114D01*
X143270420Y-69253352D01*
X143222801Y-69300971D01*
X143127563Y-69348590D01*
X142746610Y-69348590D01*
X144508515Y-69300971D02*
X144841849Y-69300971D01*
X144984706Y-69824781D02*
X144508515Y-69824781D01*
X144508515Y-68824781D01*
X144984706Y-68824781D01*
X145413277Y-69824781D02*
X145413277Y-68824781D01*
X145746611Y-69539067D01*
X146079944Y-68824781D01*
X146079944Y-69824781D01*
X146556134Y-69824781D02*
X146556134Y-68824781D01*
X153933314Y-87380676D02*
X154599981Y-87380676D01*
X153552362Y-87618772D02*
X154266648Y-87856867D01*
X154266648Y-87237819D01*
X154599981Y-86856867D02*
X153599981Y-86856867D01*
X154219029Y-86761629D02*
X154599981Y-86475914D01*
X153933314Y-86475914D02*
X154314267Y-86856867D01*
X153599981Y-86142581D02*
X153599981Y-85475914D01*
X154599981Y-85904486D01*
X126415981Y-72523267D02*
X126415981Y-72332791D01*
X126368362Y-72237552D01*
X126320743Y-72189933D01*
X126177886Y-72094695D01*
X125987410Y-72047076D01*
X125606457Y-72047076D01*
X125511219Y-72094695D01*
X125463600Y-72142314D01*
X125415981Y-72237552D01*
X125415981Y-72428029D01*
X125463600Y-72523267D01*
X125511219Y-72570886D01*
X125606457Y-72618505D01*
X125844552Y-72618505D01*
X125939790Y-72570886D01*
X125987410Y-72523267D01*
X126035029Y-72428029D01*
X126035029Y-72237552D01*
X125987410Y-72142314D01*
X125939790Y-72094695D01*
X125844552Y-72047076D01*
X126415981Y-71094695D02*
X126415981Y-71666124D01*
X126415981Y-71380410D02*
X125415981Y-71380410D01*
X125558838Y-71475648D01*
X125654076Y-71570886D01*
X125701695Y-71666124D01*
X130405381Y-84902381D02*
X129833952Y-84902381D01*
X130119666Y-84902381D02*
X130119666Y-83902381D01*
X130024428Y-84045238D01*
X129929190Y-84140476D01*
X129833952Y-84188095D01*
X131024428Y-83902381D02*
X131119667Y-83902381D01*
X131214905Y-83950000D01*
X131262524Y-83997619D01*
X131310143Y-84092857D01*
X131357762Y-84283333D01*
X131357762Y-84521429D01*
X131310143Y-84711905D01*
X131262524Y-84807143D01*
X131214905Y-84854762D01*
X131119667Y-84902381D01*
X131024428Y-84902381D01*
X130929190Y-84854762D01*
X130881571Y-84807143D01*
X130833952Y-84711905D01*
X130786333Y-84521429D01*
X130786333Y-84283333D01*
X130833952Y-84092857D01*
X130881571Y-83997619D01*
X130929190Y-83950000D01*
X131024428Y-83902381D01*
X131976809Y-83902381D02*
X132072048Y-83902381D01*
X132167286Y-83950000D01*
X132214905Y-83997619D01*
X132262524Y-84092857D01*
X132310143Y-84283333D01*
X132310143Y-84521429D01*
X132262524Y-84711905D01*
X132214905Y-84807143D01*
X132167286Y-84854762D01*
X132072048Y-84902381D01*
X131976809Y-84902381D01*
X131881571Y-84854762D01*
X131833952Y-84807143D01*
X131786333Y-84711905D01*
X131738714Y-84521429D01*
X131738714Y-84283333D01*
X131786333Y-84092857D01*
X131833952Y-83997619D01*
X131881571Y-83950000D01*
X131976809Y-83902381D01*
X132738714Y-84235714D02*
X132738714Y-84902381D01*
X132738714Y-84330952D02*
X132786333Y-84283333D01*
X132881571Y-84235714D01*
X133024429Y-84235714D01*
X133119667Y-84283333D01*
X133167286Y-84378571D01*
X133167286Y-84902381D01*
X133976810Y-84378571D02*
X133643476Y-84378571D01*
X133643476Y-84902381D02*
X133643476Y-83902381D01*
X134119667Y-83902381D01*
X138706101Y-101859261D02*
X138134672Y-101859261D01*
X138420386Y-101859261D02*
X138420386Y-100859261D01*
X138325148Y-101002118D01*
X138229910Y-101097356D01*
X138134672Y-101144975D01*
X139325148Y-100859261D02*
X139420387Y-100859261D01*
X139515625Y-100906880D01*
X139563244Y-100954499D01*
X139610863Y-101049737D01*
X139658482Y-101240213D01*
X139658482Y-101478309D01*
X139610863Y-101668785D01*
X139563244Y-101764023D01*
X139515625Y-101811642D01*
X139420387Y-101859261D01*
X139325148Y-101859261D01*
X139229910Y-101811642D01*
X139182291Y-101764023D01*
X139134672Y-101668785D01*
X139087053Y-101478309D01*
X139087053Y-101240213D01*
X139134672Y-101049737D01*
X139182291Y-100954499D01*
X139229910Y-100906880D01*
X139325148Y-100859261D01*
X140277529Y-100859261D02*
X140372768Y-100859261D01*
X140468006Y-100906880D01*
X140515625Y-100954499D01*
X140563244Y-101049737D01*
X140610863Y-101240213D01*
X140610863Y-101478309D01*
X140563244Y-101668785D01*
X140515625Y-101764023D01*
X140468006Y-101811642D01*
X140372768Y-101859261D01*
X140277529Y-101859261D01*
X140182291Y-101811642D01*
X140134672Y-101764023D01*
X140087053Y-101668785D01*
X140039434Y-101478309D01*
X140039434Y-101240213D01*
X140087053Y-101049737D01*
X140134672Y-100954499D01*
X140182291Y-100906880D01*
X140277529Y-100859261D01*
X141039434Y-101192594D02*
X141039434Y-101859261D01*
X141039434Y-101287832D02*
X141087053Y-101240213D01*
X141182291Y-101192594D01*
X141325149Y-101192594D01*
X141420387Y-101240213D01*
X141468006Y-101335451D01*
X141468006Y-101859261D01*
X142277530Y-101335451D02*
X141944196Y-101335451D01*
X141944196Y-101859261D02*
X141944196Y-100859261D01*
X142420387Y-100859261D01*
X134324514Y-92590761D02*
X134991181Y-92590761D01*
X133943562Y-92828857D02*
X134657848Y-93066952D01*
X134657848Y-92447904D01*
X134895943Y-92066952D02*
X134943562Y-92019333D01*
X134991181Y-92066952D01*
X134943562Y-92114571D01*
X134895943Y-92066952D01*
X134991181Y-92066952D01*
X133991181Y-91686000D02*
X133991181Y-91019333D01*
X134991181Y-91447905D01*
X134324514Y-90638381D02*
X135324514Y-90638381D01*
X134372133Y-90638381D02*
X134324514Y-90543143D01*
X134324514Y-90352666D01*
X134372133Y-90257428D01*
X134419752Y-90209809D01*
X134514990Y-90162190D01*
X134800705Y-90162190D01*
X134895943Y-90209809D01*
X134943562Y-90257428D01*
X134991181Y-90352666D01*
X134991181Y-90543143D01*
X134943562Y-90638381D01*
X134467371Y-89400285D02*
X134467371Y-89733619D01*
X134991181Y-89733619D02*
X133991181Y-89733619D01*
X133991181Y-89257428D01*
X135145639Y-95792714D02*
X135145639Y-96459381D01*
X134907543Y-95411762D02*
X134669448Y-96126048D01*
X135288496Y-96126048D01*
X135669448Y-96364143D02*
X135717067Y-96411762D01*
X135669448Y-96459381D01*
X135621829Y-96411762D01*
X135669448Y-96364143D01*
X135669448Y-96459381D01*
X136050400Y-95459381D02*
X136717067Y-95459381D01*
X136288495Y-96459381D01*
X137098019Y-95792714D02*
X137098019Y-96792714D01*
X137098019Y-95840333D02*
X137193257Y-95792714D01*
X137383734Y-95792714D01*
X137478972Y-95840333D01*
X137526591Y-95887952D01*
X137574210Y-95983190D01*
X137574210Y-96268905D01*
X137526591Y-96364143D01*
X137478972Y-96411762D01*
X137383734Y-96459381D01*
X137193257Y-96459381D01*
X137098019Y-96411762D01*
X138336115Y-95935571D02*
X138002781Y-95935571D01*
X138002781Y-96459381D02*
X138002781Y-95459381D01*
X138478972Y-95459381D01*
X136657532Y-96982461D02*
X136086103Y-96982461D01*
X136371817Y-96982461D02*
X136371817Y-95982461D01*
X136276579Y-96125318D01*
X136181341Y-96220556D01*
X136086103Y-96268175D01*
X137276579Y-95982461D02*
X137371818Y-95982461D01*
X137467056Y-96030080D01*
X137514675Y-96077699D01*
X137562294Y-96172937D01*
X137609913Y-96363413D01*
X137609913Y-96601509D01*
X137562294Y-96791985D01*
X137514675Y-96887223D01*
X137467056Y-96934842D01*
X137371818Y-96982461D01*
X137276579Y-96982461D01*
X137181341Y-96934842D01*
X137133722Y-96887223D01*
X137086103Y-96791985D01*
X137038484Y-96601509D01*
X137038484Y-96363413D01*
X137086103Y-96172937D01*
X137133722Y-96077699D01*
X137181341Y-96030080D01*
X137276579Y-95982461D01*
X138467056Y-96315794D02*
X138467056Y-96982461D01*
X138038484Y-96315794D02*
X138038484Y-96839604D01*
X138086103Y-96934842D01*
X138181341Y-96982461D01*
X138324199Y-96982461D01*
X138419437Y-96934842D01*
X138467056Y-96887223D01*
X139276580Y-96458651D02*
X138943246Y-96458651D01*
X138943246Y-96982461D02*
X138943246Y-95982461D01*
X139419437Y-95982461D01*
X148205667Y-88256572D02*
X148205667Y-87780381D01*
X148491381Y-88351810D02*
X147491381Y-88018477D01*
X148491381Y-87685143D01*
X147491381Y-87494667D02*
X147491381Y-86923238D01*
X148491381Y-87208953D02*
X147491381Y-87208953D01*
X148443762Y-86637524D02*
X148491381Y-86494667D01*
X148491381Y-86256571D01*
X148443762Y-86161333D01*
X148396143Y-86113714D01*
X148300905Y-86066095D01*
X148205667Y-86066095D01*
X148110429Y-86113714D01*
X148062810Y-86161333D01*
X148015190Y-86256571D01*
X147967571Y-86447048D01*
X147919952Y-86542286D01*
X147872333Y-86589905D01*
X147777095Y-86637524D01*
X147681857Y-86637524D01*
X147586619Y-86589905D01*
X147539000Y-86542286D01*
X147491381Y-86447048D01*
X147491381Y-86208952D01*
X147539000Y-86066095D01*
X148205667Y-85685143D02*
X148205667Y-85208952D01*
X148491381Y-85780381D02*
X147491381Y-85447048D01*
X148491381Y-85113714D01*
X148491381Y-84780381D02*
X147491381Y-84780381D01*
X148205667Y-84447047D01*
X147491381Y-84113714D01*
X148491381Y-84113714D01*
X148491381Y-83637524D02*
X147491381Y-83637524D01*
X147491381Y-83399429D01*
X147539000Y-83256571D01*
X147634238Y-83161333D01*
X147729476Y-83113714D01*
X147919952Y-83066095D01*
X148062810Y-83066095D01*
X148253286Y-83113714D01*
X148348524Y-83161333D01*
X148443762Y-83256571D01*
X148491381Y-83399429D01*
X148491381Y-83637524D01*
X147586619Y-82685143D02*
X147539000Y-82637524D01*
X147491381Y-82542286D01*
X147491381Y-82304190D01*
X147539000Y-82208952D01*
X147586619Y-82161333D01*
X147681857Y-82113714D01*
X147777095Y-82113714D01*
X147919952Y-82161333D01*
X148491381Y-82732762D01*
X148491381Y-82113714D01*
X148491381Y-81161333D02*
X148491381Y-81732762D01*
X148491381Y-81447048D02*
X147491381Y-81447048D01*
X147634238Y-81542286D01*
X147729476Y-81637524D01*
X147777095Y-81732762D01*
X147491381Y-80447047D02*
X148205667Y-80447047D01*
X148348524Y-80494667D01*
X148443762Y-80589905D01*
X148491381Y-80732762D01*
X148491381Y-80828000D01*
X131857881Y-70152781D02*
X131857881Y-70628972D01*
X130857881Y-70628972D01*
X131334071Y-69819448D02*
X131334071Y-69486114D01*
X131857881Y-69343257D02*
X131857881Y-69819448D01*
X130857881Y-69819448D01*
X130857881Y-69343257D01*
X131857881Y-68914686D02*
X130857881Y-68914686D01*
X130857881Y-68676591D01*
X130905500Y-68533733D01*
X131000738Y-68438495D01*
X131095976Y-68390876D01*
X131286452Y-68343257D01*
X131429310Y-68343257D01*
X131619786Y-68390876D01*
X131715024Y-68438495D01*
X131810262Y-68533733D01*
X131857881Y-68676591D01*
X131857881Y-68914686D01*
X131953119Y-68152781D02*
X131953119Y-67390876D01*
X130905500Y-66628971D02*
X130857881Y-66724209D01*
X130857881Y-66867066D01*
X130905500Y-67009924D01*
X131000738Y-67105162D01*
X131095976Y-67152781D01*
X131286452Y-67200400D01*
X131429310Y-67200400D01*
X131619786Y-67152781D01*
X131715024Y-67105162D01*
X131810262Y-67009924D01*
X131857881Y-66867066D01*
X131857881Y-66771828D01*
X131810262Y-66628971D01*
X131762643Y-66581352D01*
X131429310Y-66581352D01*
X131429310Y-66771828D01*
X131857881Y-65581352D02*
X131381690Y-65914686D01*
X131857881Y-66152781D02*
X130857881Y-66152781D01*
X130857881Y-65771828D01*
X130905500Y-65676590D01*
X130953119Y-65628971D01*
X131048357Y-65581352D01*
X131191214Y-65581352D01*
X131286452Y-65628971D01*
X131334071Y-65676590D01*
X131381690Y-65771828D01*
X131381690Y-66152781D01*
X131334071Y-65152781D02*
X131334071Y-64819447D01*
X131857881Y-64676590D02*
X131857881Y-65152781D01*
X130857881Y-65152781D01*
X130857881Y-64676590D01*
X131334071Y-64248019D02*
X131334071Y-63914685D01*
X131857881Y-63771828D02*
X131857881Y-64248019D01*
X130857881Y-64248019D01*
X130857881Y-63771828D01*
X131857881Y-63343257D02*
X130857881Y-63343257D01*
X131857881Y-62771828D01*
X130857881Y-62771828D01*
X128813219Y-73094695D02*
X128765600Y-73047076D01*
X128717981Y-72951838D01*
X128717981Y-72713742D01*
X128765600Y-72618504D01*
X128813219Y-72570885D01*
X128908457Y-72523266D01*
X129003695Y-72523266D01*
X129146552Y-72570885D01*
X129717981Y-73142314D01*
X129717981Y-72523266D01*
X128717981Y-72189933D02*
X128717981Y-71523266D01*
X129717981Y-71951838D01*
X128717981Y-70951838D02*
X128717981Y-70856599D01*
X128765600Y-70761361D01*
X128813219Y-70713742D01*
X128908457Y-70666123D01*
X129098933Y-70618504D01*
X129337029Y-70618504D01*
X129527505Y-70666123D01*
X129622743Y-70713742D01*
X129670362Y-70761361D01*
X129717981Y-70856599D01*
X129717981Y-70951838D01*
X129670362Y-71047076D01*
X129622743Y-71094695D01*
X129527505Y-71142314D01*
X129337029Y-71189933D01*
X129098933Y-71189933D01*
X128908457Y-71142314D01*
X128813219Y-71094695D01*
X128765600Y-71047076D01*
X128717981Y-70951838D01*
X144238181Y-79288981D02*
X143666752Y-79288981D01*
X143952466Y-79288981D02*
X143952466Y-78288981D01*
X143857228Y-78431838D01*
X143761990Y-78527076D01*
X143666752Y-78574695D01*
X144857228Y-78288981D02*
X144952467Y-78288981D01*
X145047705Y-78336600D01*
X145095324Y-78384219D01*
X145142943Y-78479457D01*
X145190562Y-78669933D01*
X145190562Y-78908029D01*
X145142943Y-79098505D01*
X145095324Y-79193743D01*
X145047705Y-79241362D01*
X144952467Y-79288981D01*
X144857228Y-79288981D01*
X144761990Y-79241362D01*
X144714371Y-79193743D01*
X144666752Y-79098505D01*
X144619133Y-78908029D01*
X144619133Y-78669933D01*
X144666752Y-78479457D01*
X144714371Y-78384219D01*
X144761990Y-78336600D01*
X144857228Y-78288981D01*
X145809609Y-78288981D02*
X145904848Y-78288981D01*
X146000086Y-78336600D01*
X146047705Y-78384219D01*
X146095324Y-78479457D01*
X146142943Y-78669933D01*
X146142943Y-78908029D01*
X146095324Y-79098505D01*
X146047705Y-79193743D01*
X146000086Y-79241362D01*
X145904848Y-79288981D01*
X145809609Y-79288981D01*
X145714371Y-79241362D01*
X145666752Y-79193743D01*
X145619133Y-79098505D01*
X145571514Y-78908029D01*
X145571514Y-78669933D01*
X145619133Y-78479457D01*
X145666752Y-78384219D01*
X145714371Y-78336600D01*
X145809609Y-78288981D01*
X146571514Y-78622314D02*
X146571514Y-79288981D01*
X146571514Y-78717552D02*
X146619133Y-78669933D01*
X146714371Y-78622314D01*
X146857229Y-78622314D01*
X146952467Y-78669933D01*
X147000086Y-78765171D01*
X147000086Y-79288981D01*
X147809610Y-78765171D02*
X147476276Y-78765171D01*
X147476276Y-79288981D02*
X147476276Y-78288981D01*
X147952467Y-78288981D01*
X147218581Y-73442438D02*
X147218581Y-74013867D01*
X147218581Y-73728153D02*
X146218581Y-73728153D01*
X146361438Y-73823391D01*
X146456676Y-73918629D01*
X146504295Y-74013867D01*
X146551914Y-73013867D02*
X147218581Y-73013867D01*
X146647152Y-73013867D02*
X146599533Y-72966248D01*
X146551914Y-72871010D01*
X146551914Y-72728152D01*
X146599533Y-72632914D01*
X146694771Y-72585295D01*
X147218581Y-72585295D01*
X146694771Y-71775771D02*
X146694771Y-72109105D01*
X147218581Y-72109105D02*
X146218581Y-72109105D01*
X146218581Y-71632914D01*
X126695381Y-110545428D02*
X126695381Y-111116857D01*
X126695381Y-110831143D02*
X125695381Y-110831143D01*
X125838238Y-110926381D01*
X125933476Y-111021619D01*
X125981095Y-111116857D01*
X125695381Y-109926381D02*
X125695381Y-109831142D01*
X125743000Y-109735904D01*
X125790619Y-109688285D01*
X125885857Y-109640666D01*
X126076333Y-109593047D01*
X126314429Y-109593047D01*
X126504905Y-109640666D01*
X126600143Y-109688285D01*
X126647762Y-109735904D01*
X126695381Y-109831142D01*
X126695381Y-109926381D01*
X126647762Y-110021619D01*
X126600143Y-110069238D01*
X126504905Y-110116857D01*
X126314429Y-110164476D01*
X126076333Y-110164476D01*
X125885857Y-110116857D01*
X125790619Y-110069238D01*
X125743000Y-110021619D01*
X125695381Y-109926381D01*
X126028714Y-109164476D02*
X126695381Y-109164476D01*
X126123952Y-109164476D02*
X126076333Y-109116857D01*
X126028714Y-109021619D01*
X126028714Y-108878761D01*
X126076333Y-108783523D01*
X126171571Y-108735904D01*
X126695381Y-108735904D01*
X126171571Y-107926380D02*
X126171571Y-108259714D01*
X126695381Y-108259714D02*
X125695381Y-108259714D01*
X125695381Y-107783523D01*
X132146381Y-110672428D02*
X132146381Y-111243857D01*
X132146381Y-110958143D02*
X131146381Y-110958143D01*
X131289238Y-111053381D01*
X131384476Y-111148619D01*
X131432095Y-111243857D01*
X131146381Y-110053381D02*
X131146381Y-109958142D01*
X131194000Y-109862904D01*
X131241619Y-109815285D01*
X131336857Y-109767666D01*
X131527333Y-109720047D01*
X131765429Y-109720047D01*
X131955905Y-109767666D01*
X132051143Y-109815285D01*
X132098762Y-109862904D01*
X132146381Y-109958142D01*
X132146381Y-110053381D01*
X132098762Y-110148619D01*
X132051143Y-110196238D01*
X131955905Y-110243857D01*
X131765429Y-110291476D01*
X131527333Y-110291476D01*
X131336857Y-110243857D01*
X131241619Y-110196238D01*
X131194000Y-110148619D01*
X131146381Y-110053381D01*
X131146381Y-109101000D02*
X131146381Y-109005761D01*
X131194000Y-108910523D01*
X131241619Y-108862904D01*
X131336857Y-108815285D01*
X131527333Y-108767666D01*
X131765429Y-108767666D01*
X131955905Y-108815285D01*
X132051143Y-108862904D01*
X132098762Y-108910523D01*
X132146381Y-109005761D01*
X132146381Y-109101000D01*
X132098762Y-109196238D01*
X132051143Y-109243857D01*
X131955905Y-109291476D01*
X131765429Y-109339095D01*
X131527333Y-109339095D01*
X131336857Y-109291476D01*
X131241619Y-109243857D01*
X131194000Y-109196238D01*
X131146381Y-109101000D01*
X132146381Y-108339095D02*
X131146381Y-108339095D01*
X131765429Y-108243857D02*
X132146381Y-107958142D01*
X131479714Y-107958142D02*
X131860667Y-108339095D01*
X128997381Y-110910524D02*
X128997381Y-110291476D01*
X129378333Y-110624810D01*
X129378333Y-110481952D01*
X129425952Y-110386714D01*
X129473571Y-110339095D01*
X129568810Y-110291476D01*
X129806905Y-110291476D01*
X129902143Y-110339095D01*
X129949762Y-110386714D01*
X129997381Y-110481952D01*
X129997381Y-110767667D01*
X129949762Y-110862905D01*
X129902143Y-110910524D01*
X129997381Y-109815286D02*
X129997381Y-109624810D01*
X129949762Y-109529571D01*
X129902143Y-109481952D01*
X129759286Y-109386714D01*
X129568810Y-109339095D01*
X129187857Y-109339095D01*
X129092619Y-109386714D01*
X129045000Y-109434333D01*
X128997381Y-109529571D01*
X128997381Y-109720048D01*
X129045000Y-109815286D01*
X129092619Y-109862905D01*
X129187857Y-109910524D01*
X129425952Y-109910524D01*
X129521190Y-109862905D01*
X129568810Y-109815286D01*
X129616429Y-109720048D01*
X129616429Y-109529571D01*
X129568810Y-109434333D01*
X129521190Y-109386714D01*
X129425952Y-109339095D01*
X129997381Y-108339095D02*
X129521190Y-108672429D01*
X129997381Y-108910524D02*
X128997381Y-108910524D01*
X128997381Y-108529571D01*
X129045000Y-108434333D01*
X129092619Y-108386714D01*
X129187857Y-108339095D01*
X129330714Y-108339095D01*
X129425952Y-108386714D01*
X129473571Y-108434333D01*
X129521190Y-108529571D01*
X129521190Y-108910524D01*
X133407281Y-70509924D02*
X133407281Y-70986115D01*
X132407281Y-70986115D01*
X132883471Y-70176591D02*
X132883471Y-69843257D01*
X133407281Y-69700400D02*
X133407281Y-70176591D01*
X132407281Y-70176591D01*
X132407281Y-69700400D01*
X133407281Y-69271829D02*
X132407281Y-69271829D01*
X132407281Y-69033734D01*
X132454900Y-68890876D01*
X132550138Y-68795638D01*
X132645376Y-68748019D01*
X132835852Y-68700400D01*
X132978710Y-68700400D01*
X133169186Y-68748019D01*
X133264424Y-68795638D01*
X133359662Y-68890876D01*
X133407281Y-69033734D01*
X133407281Y-69271829D01*
X133502519Y-68509924D02*
X133502519Y-67748019D01*
X132931090Y-67319448D02*
X133407281Y-67319448D01*
X132407281Y-67652781D02*
X132931090Y-67319448D01*
X132407281Y-66986114D01*
X132883471Y-66652781D02*
X132883471Y-66319447D01*
X133407281Y-66176590D02*
X133407281Y-66652781D01*
X132407281Y-66652781D01*
X132407281Y-66176590D01*
X133407281Y-65271828D02*
X133407281Y-65748019D01*
X132407281Y-65748019D01*
X133407281Y-64462304D02*
X133407281Y-64938495D01*
X132407281Y-64938495D01*
X132407281Y-63938495D02*
X132407281Y-63748018D01*
X132454900Y-63652780D01*
X132550138Y-63557542D01*
X132740614Y-63509923D01*
X133073948Y-63509923D01*
X133264424Y-63557542D01*
X133359662Y-63652780D01*
X133407281Y-63748018D01*
X133407281Y-63938495D01*
X133359662Y-64033733D01*
X133264424Y-64128971D01*
X133073948Y-64176590D01*
X132740614Y-64176590D01*
X132550138Y-64128971D01*
X132454900Y-64033733D01*
X132407281Y-63938495D01*
X132407281Y-63176590D02*
X133407281Y-62938495D01*
X132692995Y-62748018D01*
X133407281Y-62557542D01*
X132407281Y-62319447D01*
X130464219Y-73094695D02*
X130416600Y-73047076D01*
X130368981Y-72951838D01*
X130368981Y-72713742D01*
X130416600Y-72618504D01*
X130464219Y-72570885D01*
X130559457Y-72523266D01*
X130654695Y-72523266D01*
X130797552Y-72570885D01*
X131368981Y-73142314D01*
X131368981Y-72523266D01*
X130368981Y-72189933D02*
X130368981Y-71523266D01*
X131368981Y-71951838D01*
X130368981Y-70951838D02*
X130368981Y-70856599D01*
X130416600Y-70761361D01*
X130464219Y-70713742D01*
X130559457Y-70666123D01*
X130749933Y-70618504D01*
X130988029Y-70618504D01*
X131178505Y-70666123D01*
X131273743Y-70713742D01*
X131321362Y-70761361D01*
X131368981Y-70856599D01*
X131368981Y-70951838D01*
X131321362Y-71047076D01*
X131273743Y-71094695D01*
X131178505Y-71142314D01*
X130988029Y-71189933D01*
X130749933Y-71189933D01*
X130559457Y-71142314D01*
X130464219Y-71094695D01*
X130416600Y-71047076D01*
X130368981Y-70951838D01*
X149020954Y-69681361D02*
X149687621Y-69681361D01*
X148640002Y-69919457D02*
X149354288Y-70157552D01*
X149354288Y-69538504D01*
X148687621Y-69252790D02*
X148687621Y-68586123D01*
X149687621Y-69014695D01*
X148687621Y-68014695D02*
X148687621Y-67919456D01*
X148735240Y-67824218D01*
X148782859Y-67776599D01*
X148878097Y-67728980D01*
X149068573Y-67681361D01*
X149306669Y-67681361D01*
X149497145Y-67728980D01*
X149592383Y-67776599D01*
X149640002Y-67824218D01*
X149687621Y-67919456D01*
X149687621Y-68014695D01*
X149640002Y-68109933D01*
X149592383Y-68157552D01*
X149497145Y-68205171D01*
X149306669Y-68252790D01*
X149068573Y-68252790D01*
X148878097Y-68205171D01*
X148782859Y-68157552D01*
X148735240Y-68109933D01*
X148687621Y-68014695D01*
X149687621Y-66681361D02*
X149211430Y-67014695D01*
X149687621Y-67252790D02*
X148687621Y-67252790D01*
X148687621Y-66871837D01*
X148735240Y-66776599D01*
X148782859Y-66728980D01*
X148878097Y-66681361D01*
X149020954Y-66681361D01*
X149116192Y-66728980D01*
X149163811Y-66776599D01*
X149211430Y-66871837D01*
X149211430Y-67252790D01*
X149163811Y-65490885D02*
X149163811Y-65157551D01*
X149687621Y-65014694D02*
X149687621Y-65490885D01*
X148687621Y-65490885D01*
X148687621Y-65014694D01*
X149687621Y-64586123D02*
X148687621Y-64586123D01*
X149401907Y-64252789D01*
X148687621Y-63919456D01*
X149687621Y-63919456D01*
X149687621Y-63443266D02*
X148687621Y-63443266D01*
X124193667Y-66928857D02*
X124193667Y-66452666D01*
X124479381Y-67024095D02*
X123479381Y-66690762D01*
X124479381Y-66357428D01*
X124479381Y-66024095D02*
X123479381Y-66024095D01*
X124479381Y-65452666D01*
X123479381Y-65452666D01*
X123479381Y-65119333D02*
X123479381Y-64547904D01*
X124479381Y-64833619D02*
X123479381Y-64833619D01*
X128315981Y-97308895D02*
X127315981Y-97308895D01*
X127315981Y-96927942D01*
X127363600Y-96832704D01*
X127411219Y-96785085D01*
X127506457Y-96737466D01*
X127649314Y-96737466D01*
X127744552Y-96785085D01*
X127792171Y-96832704D01*
X127839790Y-96927942D01*
X127839790Y-97308895D01*
X127649314Y-95880323D02*
X128315981Y-95880323D01*
X127268362Y-96118419D02*
X127982648Y-96356514D01*
X127982648Y-95737466D01*
X132378867Y-89676581D02*
X132997915Y-89676581D01*
X132664581Y-90057533D01*
X132807439Y-90057533D01*
X132902677Y-90105152D01*
X132950296Y-90152771D01*
X132997915Y-90248010D01*
X132997915Y-90486105D01*
X132950296Y-90581343D01*
X132902677Y-90628962D01*
X132807439Y-90676581D01*
X132521724Y-90676581D01*
X132426486Y-90628962D01*
X132378867Y-90581343D01*
X133378867Y-89771819D02*
X133426486Y-89724200D01*
X133521724Y-89676581D01*
X133759820Y-89676581D01*
X133855058Y-89724200D01*
X133902677Y-89771819D01*
X133950296Y-89867057D01*
X133950296Y-89962295D01*
X133902677Y-90105152D01*
X133331248Y-90676581D01*
X133950296Y-90676581D01*
X134378867Y-90581343D02*
X134426486Y-90628962D01*
X134378867Y-90676581D01*
X134331248Y-90628962D01*
X134378867Y-90581343D01*
X134378867Y-90676581D01*
X134759819Y-89676581D02*
X135426486Y-89676581D01*
X134997914Y-90676581D01*
X136236010Y-89676581D02*
X136045533Y-89676581D01*
X135950295Y-89724200D01*
X135902676Y-89771819D01*
X135807438Y-89914676D01*
X135759819Y-90105152D01*
X135759819Y-90486105D01*
X135807438Y-90581343D01*
X135855057Y-90628962D01*
X135950295Y-90676581D01*
X136140772Y-90676581D01*
X136236010Y-90628962D01*
X136283629Y-90581343D01*
X136331248Y-90486105D01*
X136331248Y-90248010D01*
X136283629Y-90152771D01*
X136236010Y-90105152D01*
X136140772Y-90057533D01*
X135950295Y-90057533D01*
X135855057Y-90105152D01*
X135807438Y-90152771D01*
X135759819Y-90248010D01*
X136902676Y-90105152D02*
X136807438Y-90057533D01*
X136759819Y-90009914D01*
X136712200Y-89914676D01*
X136712200Y-89867057D01*
X136759819Y-89771819D01*
X136807438Y-89724200D01*
X136902676Y-89676581D01*
X137093153Y-89676581D01*
X137188391Y-89724200D01*
X137236010Y-89771819D01*
X137283629Y-89867057D01*
X137283629Y-89914676D01*
X137236010Y-90009914D01*
X137188391Y-90057533D01*
X137093153Y-90105152D01*
X136902676Y-90105152D01*
X136807438Y-90152771D01*
X136759819Y-90200390D01*
X136712200Y-90295629D01*
X136712200Y-90486105D01*
X136759819Y-90581343D01*
X136807438Y-90628962D01*
X136902676Y-90676581D01*
X137093153Y-90676581D01*
X137188391Y-90628962D01*
X137236010Y-90581343D01*
X137283629Y-90486105D01*
X137283629Y-90295629D01*
X137236010Y-90200390D01*
X137188391Y-90152771D01*
X137093153Y-90105152D01*
X137712200Y-90676581D02*
X137712200Y-89676581D01*
X138140772Y-90676581D02*
X138140772Y-90152771D01*
X138093153Y-90057533D01*
X137997915Y-90009914D01*
X137855057Y-90009914D01*
X137759819Y-90057533D01*
X137712200Y-90105152D01*
X138521724Y-90009914D02*
X139045534Y-90009914D01*
X138521724Y-90676581D01*
X139045534Y-90676581D01*
X143959014Y-84676882D02*
X144101871Y-84724501D01*
X144339967Y-84724501D01*
X144435205Y-84676882D01*
X144482824Y-84629263D01*
X144530443Y-84534025D01*
X144530443Y-84438787D01*
X144482824Y-84343549D01*
X144435205Y-84295930D01*
X144339967Y-84248310D01*
X144149490Y-84200691D01*
X144054252Y-84153072D01*
X144006633Y-84105453D01*
X143959014Y-84010215D01*
X143959014Y-83914977D01*
X144006633Y-83819739D01*
X144054252Y-83772120D01*
X144149490Y-83724501D01*
X144387586Y-83724501D01*
X144530443Y-83772120D01*
X144863776Y-84057834D02*
X145101871Y-84724501D01*
X145339967Y-84057834D02*
X145101871Y-84724501D01*
X145006633Y-84962596D01*
X144959014Y-85010215D01*
X144863776Y-85057834D01*
X145720919Y-84724501D02*
X145720919Y-84057834D01*
X145720919Y-84153072D02*
X145768538Y-84105453D01*
X145863776Y-84057834D01*
X146006634Y-84057834D01*
X146101872Y-84105453D01*
X146149491Y-84200691D01*
X146149491Y-84724501D01*
X146149491Y-84200691D02*
X146197110Y-84105453D01*
X146292348Y-84057834D01*
X146435205Y-84057834D01*
X146530443Y-84105453D01*
X146578062Y-84200691D01*
X146578062Y-84724501D01*
X147054252Y-84724501D02*
X147054252Y-83724501D01*
X147054252Y-84105453D02*
X147149490Y-84057834D01*
X147339967Y-84057834D01*
X147435205Y-84105453D01*
X147482824Y-84153072D01*
X147530443Y-84248310D01*
X147530443Y-84534025D01*
X147482824Y-84629263D01*
X147435205Y-84676882D01*
X147339967Y-84724501D01*
X147149490Y-84724501D01*
X147054252Y-84676882D01*
X148101871Y-84724501D02*
X148006633Y-84676882D01*
X147959014Y-84629263D01*
X147911395Y-84534025D01*
X147911395Y-84248310D01*
X147959014Y-84153072D01*
X148006633Y-84105453D01*
X148101871Y-84057834D01*
X148244729Y-84057834D01*
X148339967Y-84105453D01*
X148387586Y-84153072D01*
X148435205Y-84248310D01*
X148435205Y-84534025D01*
X148387586Y-84629263D01*
X148339967Y-84676882D01*
X148244729Y-84724501D01*
X148101871Y-84724501D01*
X149006633Y-84724501D02*
X148911395Y-84676882D01*
X148863776Y-84581644D01*
X148863776Y-83724501D01*
X149149491Y-84819739D02*
X149911396Y-84819739D01*
X150339967Y-83724501D02*
X150530444Y-83724501D01*
X150625682Y-83772120D01*
X150720920Y-83867358D01*
X150768539Y-84057834D01*
X150768539Y-84391168D01*
X150720920Y-84581644D01*
X150625682Y-84676882D01*
X150530444Y-84724501D01*
X150339967Y-84724501D01*
X150244729Y-84676882D01*
X150149491Y-84581644D01*
X150101872Y-84391168D01*
X150101872Y-84057834D01*
X150149491Y-83867358D01*
X150244729Y-83772120D01*
X150339967Y-83724501D01*
X151149491Y-84676882D02*
X151292348Y-84724501D01*
X151530444Y-84724501D01*
X151625682Y-84676882D01*
X151673301Y-84629263D01*
X151720920Y-84534025D01*
X151720920Y-84438787D01*
X151673301Y-84343549D01*
X151625682Y-84295930D01*
X151530444Y-84248310D01*
X151339967Y-84200691D01*
X151244729Y-84153072D01*
X151197110Y-84105453D01*
X151149491Y-84010215D01*
X151149491Y-83914977D01*
X151197110Y-83819739D01*
X151244729Y-83772120D01*
X151339967Y-83724501D01*
X151578063Y-83724501D01*
X151720920Y-83772120D01*
X152149491Y-84724501D02*
X152149491Y-83724501D01*
X152149491Y-84200691D02*
X152720920Y-84200691D01*
X152720920Y-84724501D02*
X152720920Y-83724501D01*
X153101872Y-83724501D02*
X153339967Y-84724501D01*
X153530444Y-84010215D01*
X153720920Y-84724501D01*
X153959015Y-83724501D01*
X154339967Y-84343549D02*
X155101872Y-84343549D01*
X156054253Y-84724501D02*
X155578062Y-84724501D01*
X155578062Y-83724501D01*
X156530443Y-84724501D02*
X156435205Y-84676882D01*
X156387586Y-84629263D01*
X156339967Y-84534025D01*
X156339967Y-84248310D01*
X156387586Y-84153072D01*
X156435205Y-84105453D01*
X156530443Y-84057834D01*
X156673301Y-84057834D01*
X156768539Y-84105453D01*
X156816158Y-84153072D01*
X156863777Y-84248310D01*
X156863777Y-84534025D01*
X156816158Y-84629263D01*
X156768539Y-84676882D01*
X156673301Y-84724501D01*
X156530443Y-84724501D01*
X157720920Y-84057834D02*
X157720920Y-84867358D01*
X157673301Y-84962596D01*
X157625682Y-85010215D01*
X157530443Y-85057834D01*
X157387586Y-85057834D01*
X157292348Y-85010215D01*
X157720920Y-84676882D02*
X157625682Y-84724501D01*
X157435205Y-84724501D01*
X157339967Y-84676882D01*
X157292348Y-84629263D01*
X157244729Y-84534025D01*
X157244729Y-84248310D01*
X157292348Y-84153072D01*
X157339967Y-84105453D01*
X157435205Y-84057834D01*
X157625682Y-84057834D01*
X157720920Y-84105453D01*
X158339967Y-84724501D02*
X158244729Y-84676882D01*
X158197110Y-84629263D01*
X158149491Y-84534025D01*
X158149491Y-84248310D01*
X158197110Y-84153072D01*
X158244729Y-84105453D01*
X158339967Y-84057834D01*
X158482825Y-84057834D01*
X158578063Y-84105453D01*
X158625682Y-84153072D01*
X158673301Y-84248310D01*
X158673301Y-84534025D01*
X158625682Y-84629263D01*
X158578063Y-84676882D01*
X158482825Y-84724501D01*
X158339967Y-84724501D01*
X158863777Y-84819739D02*
X159625682Y-84819739D01*
X159816158Y-84676882D02*
X159959015Y-84724501D01*
X160197111Y-84724501D01*
X160292349Y-84676882D01*
X160339968Y-84629263D01*
X160387587Y-84534025D01*
X160387587Y-84438787D01*
X160339968Y-84343549D01*
X160292349Y-84295930D01*
X160197111Y-84248310D01*
X160006634Y-84200691D01*
X159911396Y-84153072D01*
X159863777Y-84105453D01*
X159816158Y-84010215D01*
X159816158Y-83914977D01*
X159863777Y-83819739D01*
X159911396Y-83772120D01*
X160006634Y-83724501D01*
X160244730Y-83724501D01*
X160387587Y-83772120D01*
X160816158Y-84724501D02*
X160816158Y-84057834D01*
X160816158Y-83724501D02*
X160768539Y-83772120D01*
X160816158Y-83819739D01*
X160863777Y-83772120D01*
X160816158Y-83724501D01*
X160816158Y-83819739D01*
X161435205Y-84724501D02*
X161339967Y-84676882D01*
X161292348Y-84581644D01*
X161292348Y-83724501D01*
X161816158Y-84724501D02*
X161816158Y-83724501D01*
X161911396Y-84343549D02*
X162197111Y-84724501D01*
X162197111Y-84057834D02*
X161816158Y-84438787D01*
X162578063Y-84676882D02*
X162720920Y-84724501D01*
X162959016Y-84724501D01*
X163054254Y-84676882D01*
X163101873Y-84629263D01*
X163149492Y-84534025D01*
X163149492Y-84438787D01*
X163101873Y-84343549D01*
X163054254Y-84295930D01*
X162959016Y-84248310D01*
X162768539Y-84200691D01*
X162673301Y-84153072D01*
X162625682Y-84105453D01*
X162578063Y-84010215D01*
X162578063Y-83914977D01*
X162625682Y-83819739D01*
X162673301Y-83772120D01*
X162768539Y-83724501D01*
X163006635Y-83724501D01*
X163149492Y-83772120D01*
X164006635Y-84676882D02*
X163911397Y-84724501D01*
X163720920Y-84724501D01*
X163625682Y-84676882D01*
X163578063Y-84629263D01*
X163530444Y-84534025D01*
X163530444Y-84248310D01*
X163578063Y-84153072D01*
X163625682Y-84105453D01*
X163720920Y-84057834D01*
X163911397Y-84057834D01*
X164006635Y-84105453D01*
X164435206Y-84724501D02*
X164435206Y-84057834D01*
X164435206Y-84248310D02*
X164482825Y-84153072D01*
X164530444Y-84105453D01*
X164625682Y-84057834D01*
X164720921Y-84057834D01*
X165435207Y-84676882D02*
X165339969Y-84724501D01*
X165149492Y-84724501D01*
X165054254Y-84676882D01*
X165006635Y-84581644D01*
X165006635Y-84200691D01*
X165054254Y-84105453D01*
X165149492Y-84057834D01*
X165339969Y-84057834D01*
X165435207Y-84105453D01*
X165482826Y-84200691D01*
X165482826Y-84295930D01*
X165006635Y-84391168D01*
X166292350Y-84676882D02*
X166197112Y-84724501D01*
X166006635Y-84724501D01*
X165911397Y-84676882D01*
X165863778Y-84581644D01*
X165863778Y-84200691D01*
X165911397Y-84105453D01*
X166006635Y-84057834D01*
X166197112Y-84057834D01*
X166292350Y-84105453D01*
X166339969Y-84200691D01*
X166339969Y-84295930D01*
X165863778Y-84391168D01*
X166768540Y-84057834D02*
X166768540Y-84724501D01*
X166768540Y-84153072D02*
X166816159Y-84105453D01*
X166911397Y-84057834D01*
X167054255Y-84057834D01*
X167149493Y-84105453D01*
X167197112Y-84200691D01*
X167197112Y-84724501D01*
X167435207Y-84819739D02*
X168197112Y-84819739D01*
X168768541Y-84200691D02*
X168911398Y-84248310D01*
X168959017Y-84295930D01*
X169006636Y-84391168D01*
X169006636Y-84534025D01*
X168959017Y-84629263D01*
X168911398Y-84676882D01*
X168816160Y-84724501D01*
X168435207Y-84724501D01*
X168435207Y-83724501D01*
X168768541Y-83724501D01*
X168863779Y-83772120D01*
X168911398Y-83819739D01*
X168959017Y-83914977D01*
X168959017Y-84010215D01*
X168911398Y-84105453D01*
X168863779Y-84153072D01*
X168768541Y-84200691D01*
X168435207Y-84200691D01*
X169435207Y-84724501D02*
X169435207Y-83724501D01*
X170435207Y-83772120D02*
X170339969Y-83724501D01*
X170197112Y-83724501D01*
X170054254Y-83772120D01*
X169959016Y-83867358D01*
X169911397Y-83962596D01*
X169863778Y-84153072D01*
X169863778Y-84295930D01*
X169911397Y-84486406D01*
X169959016Y-84581644D01*
X170054254Y-84676882D01*
X170197112Y-84724501D01*
X170292350Y-84724501D01*
X170435207Y-84676882D01*
X170482826Y-84629263D01*
X170482826Y-84295930D01*
X170292350Y-84295930D01*
X163377667Y-63769881D02*
X163044333Y-63293690D01*
X162806238Y-63769881D02*
X162806238Y-62769881D01*
X163187191Y-62769881D01*
X163282429Y-62817500D01*
X163330048Y-62865119D01*
X163377667Y-62960357D01*
X163377667Y-63103214D01*
X163330048Y-63198452D01*
X163282429Y-63246071D01*
X163187191Y-63293690D01*
X162806238Y-63293690D01*
X163806238Y-63246071D02*
X164139572Y-63246071D01*
X164282429Y-63769881D02*
X163806238Y-63769881D01*
X163806238Y-62769881D01*
X164282429Y-62769881D01*
X165044334Y-63246071D02*
X164711000Y-63246071D01*
X164711000Y-63769881D02*
X164711000Y-62769881D01*
X165187191Y-62769881D01*
X165711000Y-62769881D02*
X165711000Y-63007976D01*
X165472905Y-62912738D02*
X165711000Y-63007976D01*
X165949096Y-62912738D01*
X165568143Y-63198452D02*
X165711000Y-63007976D01*
X165853858Y-63198452D01*
X166472905Y-62769881D02*
X166472905Y-63007976D01*
X166234810Y-62912738D02*
X166472905Y-63007976D01*
X166711001Y-62912738D01*
X166330048Y-63198452D02*
X166472905Y-63007976D01*
X166615763Y-63198452D01*
X158735569Y-72771641D02*
X158735569Y-71771641D01*
X159068903Y-72485927D01*
X159402236Y-71771641D01*
X159402236Y-72771641D01*
X160021283Y-72771641D02*
X159926045Y-72724022D01*
X159878426Y-72676403D01*
X159830807Y-72581165D01*
X159830807Y-72295450D01*
X159878426Y-72200212D01*
X159926045Y-72152593D01*
X160021283Y-72104974D01*
X160164141Y-72104974D01*
X160259379Y-72152593D01*
X160306998Y-72200212D01*
X160354617Y-72295450D01*
X160354617Y-72581165D01*
X160306998Y-72676403D01*
X160259379Y-72724022D01*
X160164141Y-72771641D01*
X160021283Y-72771641D01*
X161211760Y-72104974D02*
X161211760Y-72771641D01*
X160783188Y-72104974D02*
X160783188Y-72628784D01*
X160830807Y-72724022D01*
X160926045Y-72771641D01*
X161068903Y-72771641D01*
X161164141Y-72724022D01*
X161211760Y-72676403D01*
X161687950Y-72104974D02*
X161687950Y-72771641D01*
X161687950Y-72200212D02*
X161735569Y-72152593D01*
X161830807Y-72104974D01*
X161973665Y-72104974D01*
X162068903Y-72152593D01*
X162116522Y-72247831D01*
X162116522Y-72771641D01*
X162449855Y-72104974D02*
X162830807Y-72104974D01*
X162592712Y-71771641D02*
X162592712Y-72628784D01*
X162640331Y-72724022D01*
X162735569Y-72771641D01*
X162830807Y-72771641D01*
X163164141Y-72771641D02*
X163164141Y-72104974D01*
X163164141Y-71771641D02*
X163116522Y-71819260D01*
X163164141Y-71866879D01*
X163211760Y-71819260D01*
X163164141Y-71771641D01*
X163164141Y-71866879D01*
X163640331Y-72104974D02*
X163640331Y-72771641D01*
X163640331Y-72200212D02*
X163687950Y-72152593D01*
X163783188Y-72104974D01*
X163926046Y-72104974D01*
X164021284Y-72152593D01*
X164068903Y-72247831D01*
X164068903Y-72771641D01*
X164973665Y-72104974D02*
X164973665Y-72914498D01*
X164926046Y-73009736D01*
X164878427Y-73057355D01*
X164783188Y-73104974D01*
X164640331Y-73104974D01*
X164545093Y-73057355D01*
X164973665Y-72724022D02*
X164878427Y-72771641D01*
X164687950Y-72771641D01*
X164592712Y-72724022D01*
X164545093Y-72676403D01*
X164497474Y-72581165D01*
X164497474Y-72295450D01*
X164545093Y-72200212D01*
X164592712Y-72152593D01*
X164687950Y-72104974D01*
X164878427Y-72104974D01*
X164973665Y-72152593D01*
X165449855Y-72771641D02*
X165449855Y-71771641D01*
X165449855Y-72247831D02*
X166021284Y-72247831D01*
X166021284Y-72771641D02*
X166021284Y-71771641D01*
X166640331Y-72771641D02*
X166545093Y-72724022D01*
X166497474Y-72676403D01*
X166449855Y-72581165D01*
X166449855Y-72295450D01*
X166497474Y-72200212D01*
X166545093Y-72152593D01*
X166640331Y-72104974D01*
X166783189Y-72104974D01*
X166878427Y-72152593D01*
X166926046Y-72200212D01*
X166973665Y-72295450D01*
X166973665Y-72581165D01*
X166926046Y-72676403D01*
X166878427Y-72724022D01*
X166783189Y-72771641D01*
X166640331Y-72771641D01*
X167545093Y-72771641D02*
X167449855Y-72724022D01*
X167402236Y-72628784D01*
X167402236Y-71771641D01*
X168306999Y-72724022D02*
X168211761Y-72771641D01*
X168021284Y-72771641D01*
X167926046Y-72724022D01*
X167878427Y-72628784D01*
X167878427Y-72247831D01*
X167926046Y-72152593D01*
X168021284Y-72104974D01*
X168211761Y-72104974D01*
X168306999Y-72152593D01*
X168354618Y-72247831D01*
X168354618Y-72343070D01*
X167878427Y-72438308D01*
X168545094Y-72866879D02*
X169306999Y-72866879D01*
X169449856Y-71771641D02*
X170068904Y-71771641D01*
X169735570Y-72152593D01*
X169878428Y-72152593D01*
X169973666Y-72200212D01*
X170021285Y-72247831D01*
X170068904Y-72343070D01*
X170068904Y-72581165D01*
X170021285Y-72676403D01*
X169973666Y-72724022D01*
X169878428Y-72771641D01*
X169592713Y-72771641D01*
X169497475Y-72724022D01*
X169449856Y-72676403D01*
X170497475Y-72771641D02*
X170497475Y-72104974D01*
X170497475Y-72200212D02*
X170545094Y-72152593D01*
X170640332Y-72104974D01*
X170783190Y-72104974D01*
X170878428Y-72152593D01*
X170926047Y-72247831D01*
X170926047Y-72771641D01*
X170926047Y-72247831D02*
X170973666Y-72152593D01*
X171068904Y-72104974D01*
X171211761Y-72104974D01*
X171306999Y-72152593D01*
X171354618Y-72247831D01*
X171354618Y-72771641D01*
X171830808Y-72771641D02*
X171830808Y-72104974D01*
X171830808Y-72200212D02*
X171878427Y-72152593D01*
X171973665Y-72104974D01*
X172116523Y-72104974D01*
X172211761Y-72152593D01*
X172259380Y-72247831D01*
X172259380Y-72771641D01*
X172259380Y-72247831D02*
X172306999Y-72152593D01*
X172402237Y-72104974D01*
X172545094Y-72104974D01*
X172640332Y-72152593D01*
X172687951Y-72247831D01*
X172687951Y-72771641D01*
X137632362Y-56172781D02*
X137632362Y-55172781D01*
X137965696Y-55887067D01*
X138299029Y-55172781D01*
X138299029Y-56172781D01*
X138775219Y-56172781D02*
X138775219Y-55172781D01*
X139822838Y-56077543D02*
X139775219Y-56125162D01*
X139632362Y-56172781D01*
X139537124Y-56172781D01*
X139394266Y-56125162D01*
X139299028Y-56029924D01*
X139251409Y-55934686D01*
X139203790Y-55744210D01*
X139203790Y-55601352D01*
X139251409Y-55410876D01*
X139299028Y-55315638D01*
X139394266Y-55220400D01*
X139537124Y-55172781D01*
X139632362Y-55172781D01*
X139775219Y-55220400D01*
X139822838Y-55268019D01*
X140822838Y-56172781D02*
X140489504Y-55696590D01*
X140251409Y-56172781D02*
X140251409Y-55172781D01*
X140632362Y-55172781D01*
X140727600Y-55220400D01*
X140775219Y-55268019D01*
X140822838Y-55363257D01*
X140822838Y-55506114D01*
X140775219Y-55601352D01*
X140727600Y-55648971D01*
X140632362Y-55696590D01*
X140251409Y-55696590D01*
X141441885Y-55172781D02*
X141632362Y-55172781D01*
X141727600Y-55220400D01*
X141822838Y-55315638D01*
X141870457Y-55506114D01*
X141870457Y-55839448D01*
X141822838Y-56029924D01*
X141727600Y-56125162D01*
X141632362Y-56172781D01*
X141441885Y-56172781D01*
X141346647Y-56125162D01*
X141251409Y-56029924D01*
X141203790Y-55839448D01*
X141203790Y-55506114D01*
X141251409Y-55315638D01*
X141346647Y-55220400D01*
X141441885Y-55172781D01*
X142299028Y-55791829D02*
X143060933Y-55791829D01*
X143870457Y-55648971D02*
X144013314Y-55696590D01*
X144060933Y-55744210D01*
X144108552Y-55839448D01*
X144108552Y-55982305D01*
X144060933Y-56077543D01*
X144013314Y-56125162D01*
X143918076Y-56172781D01*
X143537123Y-56172781D01*
X143537123Y-55172781D01*
X143870457Y-55172781D01*
X143965695Y-55220400D01*
X144013314Y-55268019D01*
X144060933Y-55363257D01*
X144060933Y-55458495D01*
X144013314Y-55553733D01*
X143965695Y-55601352D01*
X143870457Y-55648971D01*
X143537123Y-55648971D01*
X144299028Y-56268019D02*
X145060933Y-56268019D01*
X145299028Y-55172781D02*
X145299028Y-55982305D01*
X145346647Y-56077543D01*
X145394266Y-56125162D01*
X145489504Y-56172781D01*
X145679981Y-56172781D01*
X145775219Y-56125162D01*
X145822838Y-56077543D01*
X145870457Y-55982305D01*
X145870457Y-55172781D01*
X146299028Y-56125162D02*
X146441885Y-56172781D01*
X146679981Y-56172781D01*
X146775219Y-56125162D01*
X146822838Y-56077543D01*
X146870457Y-55982305D01*
X146870457Y-55887067D01*
X146822838Y-55791829D01*
X146775219Y-55744210D01*
X146679981Y-55696590D01*
X146489504Y-55648971D01*
X146394266Y-55601352D01*
X146346647Y-55553733D01*
X146299028Y-55458495D01*
X146299028Y-55363257D01*
X146346647Y-55268019D01*
X146394266Y-55220400D01*
X146489504Y-55172781D01*
X146727600Y-55172781D01*
X146870457Y-55220400D01*
X147632362Y-55648971D02*
X147775219Y-55696590D01*
X147822838Y-55744210D01*
X147870457Y-55839448D01*
X147870457Y-55982305D01*
X147822838Y-56077543D01*
X147775219Y-56125162D01*
X147679981Y-56172781D01*
X147299028Y-56172781D01*
X147299028Y-55172781D01*
X147632362Y-55172781D01*
X147727600Y-55220400D01*
X147775219Y-55268019D01*
X147822838Y-55363257D01*
X147822838Y-55458495D01*
X147775219Y-55553733D01*
X147727600Y-55601352D01*
X147632362Y-55648971D01*
X147299028Y-55648971D01*
X143597524Y-91931151D02*
X143740381Y-91978770D01*
X143788000Y-92026390D01*
X143835619Y-92121628D01*
X143835619Y-92264485D01*
X143788000Y-92359723D01*
X143740381Y-92407342D01*
X143645143Y-92454961D01*
X143264190Y-92454961D01*
X143264190Y-91454961D01*
X143597524Y-91454961D01*
X143692762Y-91502580D01*
X143740381Y-91550199D01*
X143788000Y-91645437D01*
X143788000Y-91740675D01*
X143740381Y-91835913D01*
X143692762Y-91883532D01*
X143597524Y-91931151D01*
X143264190Y-91931151D01*
X144216571Y-92169247D02*
X144692762Y-92169247D01*
X144121333Y-92454961D02*
X144454666Y-91454961D01*
X144788000Y-92454961D01*
X144978476Y-91454961D02*
X145549905Y-91454961D01*
X145264190Y-92454961D02*
X145264190Y-91454961D01*
X146359429Y-91454961D02*
X145883238Y-91454961D01*
X145835619Y-91931151D01*
X145883238Y-91883532D01*
X145978476Y-91835913D01*
X146216572Y-91835913D01*
X146311810Y-91883532D01*
X146359429Y-91931151D01*
X146407048Y-92026390D01*
X146407048Y-92264485D01*
X146359429Y-92359723D01*
X146311810Y-92407342D01*
X146216572Y-92454961D01*
X145978476Y-92454961D01*
X145883238Y-92407342D01*
X145835619Y-92359723D01*
X147264191Y-91788294D02*
X147264191Y-92454961D01*
X147026095Y-91407342D02*
X146788000Y-92121628D01*
X147407048Y-92121628D01*
X132115219Y-73094695D02*
X132067600Y-73047076D01*
X132019981Y-72951838D01*
X132019981Y-72713742D01*
X132067600Y-72618504D01*
X132115219Y-72570885D01*
X132210457Y-72523266D01*
X132305695Y-72523266D01*
X132448552Y-72570885D01*
X133019981Y-73142314D01*
X133019981Y-72523266D01*
X132019981Y-72189933D02*
X132019981Y-71523266D01*
X133019981Y-71951838D01*
X132019981Y-70951838D02*
X132019981Y-70856599D01*
X132067600Y-70761361D01*
X132115219Y-70713742D01*
X132210457Y-70666123D01*
X132400933Y-70618504D01*
X132639029Y-70618504D01*
X132829505Y-70666123D01*
X132924743Y-70713742D01*
X132972362Y-70761361D01*
X133019981Y-70856599D01*
X133019981Y-70951838D01*
X132972362Y-71047076D01*
X132924743Y-71094695D01*
X132829505Y-71142314D01*
X132639029Y-71189933D01*
X132400933Y-71189933D01*
X132210457Y-71142314D01*
X132115219Y-71094695D01*
X132067600Y-71047076D01*
X132019981Y-70951838D01*
X131939862Y-79409562D02*
X131987481Y-79266705D01*
X131987481Y-79028609D01*
X131939862Y-78933371D01*
X131892243Y-78885752D01*
X131797005Y-78838133D01*
X131701767Y-78838133D01*
X131606529Y-78885752D01*
X131558910Y-78933371D01*
X131511290Y-79028609D01*
X131463671Y-79219086D01*
X131416052Y-79314324D01*
X131368433Y-79361943D01*
X131273195Y-79409562D01*
X131177957Y-79409562D01*
X131082719Y-79361943D01*
X131035100Y-79314324D01*
X130987481Y-79219086D01*
X130987481Y-78980990D01*
X131035100Y-78838133D01*
X130987481Y-78504800D02*
X131987481Y-78266705D01*
X131273195Y-78076228D01*
X131987481Y-77885752D01*
X130987481Y-77647657D01*
X132082719Y-77504800D02*
X132082719Y-76742895D01*
X131987481Y-76504800D02*
X130987481Y-76504800D01*
X131987481Y-76028610D02*
X130987481Y-76028610D01*
X131987481Y-75457181D01*
X130987481Y-75457181D01*
X131892243Y-74409562D02*
X131939862Y-74457181D01*
X131987481Y-74600038D01*
X131987481Y-74695276D01*
X131939862Y-74838134D01*
X131844624Y-74933372D01*
X131749386Y-74980991D01*
X131558910Y-75028610D01*
X131416052Y-75028610D01*
X131225576Y-74980991D01*
X131130338Y-74933372D01*
X131035100Y-74838134D01*
X130987481Y-74695276D01*
X130987481Y-74600038D01*
X131035100Y-74457181D01*
X131082719Y-74409562D01*
X131987481Y-73504800D02*
X131987481Y-73980991D01*
X130987481Y-73980991D01*
X142078676Y-67624781D02*
X142078676Y-68434305D01*
X142126295Y-68529543D01*
X142173914Y-68577162D01*
X142269152Y-68624781D01*
X142459629Y-68624781D01*
X142554867Y-68577162D01*
X142602486Y-68529543D01*
X142650105Y-68434305D01*
X142650105Y-67624781D01*
X143078676Y-68577162D02*
X143221533Y-68624781D01*
X143459629Y-68624781D01*
X143554867Y-68577162D01*
X143602486Y-68529543D01*
X143650105Y-68434305D01*
X143650105Y-68339067D01*
X143602486Y-68243829D01*
X143554867Y-68196210D01*
X143459629Y-68148590D01*
X143269152Y-68100971D01*
X143173914Y-68053352D01*
X143126295Y-68005733D01*
X143078676Y-67910495D01*
X143078676Y-67815257D01*
X143126295Y-67720019D01*
X143173914Y-67672400D01*
X143269152Y-67624781D01*
X143507248Y-67624781D01*
X143650105Y-67672400D01*
X144412010Y-68100971D02*
X144554867Y-68148590D01*
X144602486Y-68196210D01*
X144650105Y-68291448D01*
X144650105Y-68434305D01*
X144602486Y-68529543D01*
X144554867Y-68577162D01*
X144459629Y-68624781D01*
X144078676Y-68624781D01*
X144078676Y-67624781D01*
X144412010Y-67624781D01*
X144507248Y-67672400D01*
X144554867Y-67720019D01*
X144602486Y-67815257D01*
X144602486Y-67910495D01*
X144554867Y-68005733D01*
X144507248Y-68053352D01*
X144412010Y-68100971D01*
X144078676Y-68100971D01*
X144840581Y-68720019D02*
X145602486Y-68720019D01*
X145840581Y-68624781D02*
X145840581Y-67624781D01*
X146221534Y-67624781D01*
X146316772Y-67672400D01*
X146364391Y-67720019D01*
X146412010Y-67815257D01*
X146412010Y-67958114D01*
X146364391Y-68053352D01*
X146316772Y-68100971D01*
X146221534Y-68148590D01*
X145840581Y-68148590D01*
X146745343Y-67624781D02*
X146983438Y-68624781D01*
X147173915Y-67910495D01*
X147364391Y-68624781D01*
X147602486Y-67624781D01*
X148554867Y-68624781D02*
X148221533Y-68148590D01*
X147983438Y-68624781D02*
X147983438Y-67624781D01*
X148364391Y-67624781D01*
X148459629Y-67672400D01*
X148507248Y-67720019D01*
X148554867Y-67815257D01*
X148554867Y-67958114D01*
X148507248Y-68053352D01*
X148459629Y-68100971D01*
X148364391Y-68148590D01*
X147983438Y-68148590D01*
X148745343Y-68720019D02*
X149507248Y-68720019D01*
X149745343Y-68624781D02*
X149745343Y-67624781D01*
X149983438Y-67624781D01*
X150126296Y-67672400D01*
X150221534Y-67767638D01*
X150269153Y-67862876D01*
X150316772Y-68053352D01*
X150316772Y-68196210D01*
X150269153Y-68386686D01*
X150221534Y-68481924D01*
X150126296Y-68577162D01*
X149983438Y-68624781D01*
X149745343Y-68624781D01*
X150745343Y-68624781D02*
X150745343Y-67624781D01*
X151173914Y-68577162D02*
X151316771Y-68624781D01*
X151554867Y-68624781D01*
X151650105Y-68577162D01*
X151697724Y-68529543D01*
X151745343Y-68434305D01*
X151745343Y-68339067D01*
X151697724Y-68243829D01*
X151650105Y-68196210D01*
X151554867Y-68148590D01*
X151364390Y-68100971D01*
X151269152Y-68053352D01*
X151221533Y-68005733D01*
X151173914Y-67910495D01*
X151173914Y-67815257D01*
X151221533Y-67720019D01*
X151269152Y-67672400D01*
X151364390Y-67624781D01*
X151602486Y-67624781D01*
X151745343Y-67672400D01*
M02*
