M48
;DRILL file {KiCad (2015-05-09 BZR 5648)-product} date man 31 aug 2015 20:27:49 CEST
;FORMAT={-:-/ absolute / inch / decimal}
FMAT,2
INCH,TZ
T1C0.016
T2C0.018
T3C0.026
T4C0.040
T5C0.118
%
G90
G05
M72
T1
X4.7461Y-3.0988
X4.7599Y-3.7149
X4.795Y-3.94
X4.81Y-3.91
X4.8186Y-4.0317
X4.85Y-3.715
X4.9571Y-3.4679
X4.9758Y-4.2282
X4.9793Y-3.2495
X4.995Y-2.95
X5.0039Y-3.4158
X5.011Y-3.4443
X5.0114Y-3.4743
X5.0258Y-4.3151
X5.0283Y-3.5667
X5.0356Y-3.4895
X5.038Y-3.536
X5.039Y-3.3321
X5.058Y-3.697
X5.063Y-3.873
X5.0686Y-3.5416
X5.07Y-3.09
X5.0891Y-3.3852
X5.0902Y-3.5191
X5.1004Y-3.4288
X5.1142Y-3.4037
X5.115Y-3.605
X5.13Y-3.05
X5.1492Y-3.935
X5.1521Y-3.889
X5.1525Y-2.615
X5.154Y-3.7679
X5.155Y-3.28
X5.155Y-3.715
X5.1554Y-3.4202
X5.1842Y-3.9794
X5.187Y-3.4126
X5.19Y-3.705
X5.195Y-3.345
X5.2125Y-3.1875
X5.2141Y-3.0173
X5.23Y-3.705
X5.24Y-3.
X5.25Y-3.35
X5.265Y-3.0229
X5.265Y-4.225
X5.275Y-3.705
X5.295Y-3.9622
X5.31Y-3.885
X5.32Y-3.705
X5.335Y-2.96
X5.335Y-3.075
X5.355Y-2.875
X5.355Y-3.33
X5.36Y-3.705
X5.365Y-3.765
X5.3677Y-2.9043
X5.37Y-3.285
X5.3785Y-3.925
X5.41Y-3.145
X5.4412Y-3.4613
X5.462Y-3.6021
X5.472Y-3.35
X5.4767Y-2.9901
X5.4866Y-3.0196
X5.49Y-2.69
X5.492Y-3.378
X5.4936Y-3.6021
X5.497Y-2.9064
X5.5043Y-3.4616
X5.5081Y-3.907
X5.52Y-3.394
X5.52Y-3.76
X5.5247Y-2.9727
X5.5543Y-3.6336
X5.5557Y-2.9693
X5.5652Y-3.4353
X5.57Y-4.1
X5.574Y-3.246
X5.5808Y-3.0415
X5.59Y-2.99
X5.59Y-3.785
X5.605Y-3.2662
X5.61Y-4.18
X5.615Y-3.76
X5.615Y-4.015
X5.62Y-3.9
X5.6257Y-3.026
X5.6319Y-3.2759
X5.6326Y-3.3734
X5.635Y-3.7357
X5.636Y-3.1521
X5.64Y-2.9
X5.6425Y-3.3062
X5.6455Y-2.85
X5.646Y-2.992
X5.65Y-3.635
X5.655Y-3.3988
X5.6558Y-3.4392
X5.664Y-3.1444
X5.6857Y-3.3577
X5.6861Y-3.315
X5.69Y-3.645
X5.69Y-4.
X5.6998Y-3.2468
X5.702Y-3.2784
X5.705Y-3.095
X5.71Y-3.62
X5.7101Y-3.3375
X5.735Y-3.585
X5.7672Y-3.7086
X5.774Y-4.247
X5.7773Y-3.9173
X5.78Y-2.87
X5.78Y-3.055
X5.7914Y-3.6637
X5.815Y-2.72
X5.8186Y-3.6263
X5.82Y-3.32
X5.835Y-2.955
X5.836Y-3.171
X5.8397Y-3.4426
X5.845Y-3.01
X5.8596Y-3.2112
X5.865Y-4.017
X5.877Y-3.4366
X5.885Y-3.37
X5.9Y-3.785
X5.9028Y-3.4108
X5.9047Y-3.6024
X5.915Y-3.735
X5.9248Y-3.6367
X5.9355Y-3.574
X5.936Y-3.171
X5.9415Y-3.6038
X5.945Y-3.295
X5.9458Y-3.762
X5.9498Y-4.0104
X6.036Y-3.171
X6.17Y-3.665
X6.2124Y-4.2023
X6.2902Y-4.019
X6.297Y-3.601
X6.395Y-3.67
X6.415Y-4.095
X6.462Y-3.391
X6.462Y-3.516
T3
X5.4863Y-2.6339
X5.6437Y-2.6339
T4
X4.8Y-2.95
X4.8Y-3.05
X4.8Y-3.15
X4.8Y-3.25
X4.8Y-3.35
X4.8Y-3.45
X4.8Y-3.55
X4.8Y-3.65
X4.8Y-3.75
X4.8Y-3.85
X4.9Y-2.95
X4.9Y-3.05
X4.9Y-3.15
X4.9Y-3.25
X4.9Y-3.35
X4.9Y-3.45
X4.9Y-3.55
X4.9Y-3.65
X4.9Y-3.75
X4.9Y-3.85
X4.99Y-4.07
X4.99Y-4.17
X5.09Y-4.07
X5.09Y-4.17
X5.19Y-4.07
X5.19Y-4.17
X5.28Y-2.655
X5.29Y-4.07
X5.29Y-4.17
X5.93Y-4.25
X5.93Y-4.35
X6.0075Y-3.9675
X6.0075Y-4.0675
X6.03Y-4.25
X6.03Y-4.35
X6.1075Y-3.9675
X6.1075Y-4.0675
X6.13Y-4.25
X6.13Y-4.35
X6.2075Y-3.9675
X6.2075Y-4.0675
X6.23Y-4.25
X6.23Y-4.35
X6.3075Y-3.9675
X6.3075Y-4.0675
X6.33Y-4.25
X6.33Y-4.35
T5
X4.826Y-2.684
X4.836Y-4.298
X6.462Y-2.676
X6.464Y-4.298
T2
X5.4243Y-2.566G85X5.4243Y-2.5345
G05
X5.4243Y-2.7019G85X5.4243Y-2.6704
G05
X5.7057Y-2.566G85X5.7057Y-2.5345
G05
X5.7057Y-2.7019G85X5.7057Y-2.6704
G05
T0
M30
